<?xml version="1.0" encoding="UTF-8" standalone="no"?>
<!-- Created with Inkscape (http://www.inkscape.org/) -->

<svg
   width="794.92603"
   height="594.09192"
   id="svg2536"
   sodipodi:version="0.32"
   inkscape:version="1.3.2 (091e20e, 2023-11-25, custom)"
   version="1.0"
   sodipodi:docname="gameover_lose.svg"
   inkscape:output_extension="org.inkscape.output.svg.inkscape"
   xmlns:inkscape="http://www.inkscape.org/namespaces/inkscape"
   xmlns:sodipodi="http://sodipodi.sourceforge.net/DTD/sodipodi-0.dtd"
   xmlns="http://www.w3.org/2000/svg"
   xmlns:svg="http://www.w3.org/2000/svg"
   xmlns:rdf="http://www.w3.org/1999/02/22-rdf-syntax-ns#"
   xmlns:cc="http://creativecommons.org/ns#"
   xmlns:dc="http://purl.org/dc/elements/1.1/">
  <defs
     id="defs2538">
    <inkscape:perspective
       sodipodi:type="inkscape:persp3d"
       inkscape:vp_x="0 : 300 : 1"
       inkscape:vp_y="0 : 1000 : 0"
       inkscape:vp_z="800 : 300 : 1"
       inkscape:persp3d-origin="400 : 200 : 1"
       id="perspective2544" />
    <inkscape:perspective
       sodipodi:type="inkscape:persp3d"
       inkscape:vp_x="0 : 526.18109 : 1"
       inkscape:vp_y="0 : 1000 : 0"
       inkscape:vp_z="744.09448 : 526.18109 : 1"
       inkscape:persp3d-origin="372.04724 : 350.78739 : 1"
       id="perspective2447" />
    <inkscape:perspective
       id="perspective10"
       inkscape:persp3d-origin="372.04724 : 350.78739 : 1"
       inkscape:vp_z="744.09448 : 526.18109 : 1"
       inkscape:vp_y="0 : 1000 : 0"
       inkscape:vp_x="0 : 526.18109 : 1"
       sodipodi:type="inkscape:persp3d" />
  </defs>
  <sodipodi:namedview
     id="base"
     pagecolor="#ffffff"
     bordercolor="#666666"
     borderopacity="1.0"
     inkscape:pageopacity="0.0"
     inkscape:pageshadow="2"
     inkscape:zoom="0.89716756"
     inkscape:cx="397.36167"
     inkscape:cy="298.71789"
     inkscape:current-layer="layer1"
     inkscape:document-units="px"
     showgrid="false"
     inkscape:window-width="3291"
     inkscape:window-height="1817"
     inkscape:window-x="-11"
     inkscape:window-y="-11"
     inkscape:showpageshadow="2"
     inkscape:pagecheckerboard="0"
     inkscape:deskcolor="#d1d1d1"
     inkscape:window-maximized="1" />
  <metadata
     id="metadata2541">
    <rdf:RDF>
      <cc:Work
         rdf:about="">
        <dc:format>image/svg+xml</dc:format>
        <dc:type
           rdf:resource="http://purl.org/dc/dcmitype/StillImage" />
      </cc:Work>
    </rdf:RDF>
  </metadata>
  <g
     id="layer1"
     inkscape:label="Layer 1"
     inkscape:groupmode="layer"
     transform="translate(-0.8703206,-0.4540456)">
    <rect
       style="opacity:1;fill:#a2ff46;fill-opacity:1;stroke:#ffffff;stroke-width:0;stroke-linecap:round;stroke-linejoin:bevel;stroke-miterlimit:4;stroke-dasharray:none;stroke-opacity:1"
       id="rect3002"
       width="794.92603"
       height="594.09192"
       x="0.87032062"
       y="0.45404562" />
    <path
       style="fill:#58ff00;fill-opacity:1;fill-rule:evenodd;stroke:#000000;stroke-width:0;stroke-linecap:butt;stroke-linejoin:miter;stroke-miterlimit:4;stroke-dasharray:none;stroke-opacity:1"
       d="M 700.29002,573.62587 C 692.47322,560.03314 697.71203,544.26449 703.84127,528.34742 C 717.53526,540.93819 727.68699,554.23741 729.58784,569.18681 C 726.16828,549.41167 732.86259,533.68207 741.1294,518.58148 C 751.28915,534.62813 760.04988,551.14112 756.22222,571.85024 C 759.40471,556.55484 762.45379,541.15938 774.86628,532.78648 C 783.96308,547.58336 782.76891,562.38024 780.19316,577.17712 L 700.29002,573.62587 z"
       id="path8073"
       sodipodi:nodetypes="cccccccc" />
    <g
       id="g2401"
       transform="matrix(0.5,0,0,0.5,-53.987584,-155.18118)">
      <path
         sodipodi:nodetypes="ccccccccc"
         id="path7994"
         d="M 238.64255,407.41776 C 201.2455,326.81138 311.05304,314.04484 318.94969,364.69408 C 361.14583,313.8425 472.55105,381.31582 410.41896,448.56832 C 480.61181,409.70943 541.51933,534.55217 464.75316,559.99204 C 501.65116,622.65321 419.50312,668.14373 376.27446,625.43121 C 392.27723,706.0368 255.65968,709.79699 239.22782,639.73369 C 178.33944,689.39628 128.59387,625.73299 156.19419,593.23209 C 109.3564,574.44703 117.40171,493.51376 174.07416,504.35231 C 95.960735,450.25768 164.00449,360.0052 238.64255,407.41776 z"
         style="fill:#0e9000;fill-opacity:1;fill-rule:evenodd;stroke:#000000;stroke-width:0;stroke-linecap:butt;stroke-linejoin:miter;stroke-miterlimit:4;stroke-dasharray:none;stroke-opacity:1" />
      <path
         sodipodi:nodetypes="cscsscccccszczccccccczczccccccczczcc"
         id="path7988"
         d="M 224.61088,767.37316 C 274.21423,741.90828 278.98789,761.51229 284.93857,679.02039 C 287.47626,643.84134 289.27581,629.48301 287.71197,621.31144 C 286.14814,613.13988 282.10873,612.04289 267.64166,602.49874 C 257.41931,595.75489 218.63664,578.00374 212.8951,584.67548 C 197.9462,602.04626 185.78227,609.83781 174.39061,617.07945 C 178.03048,604.11321 201.65433,598.12387 203.15206,577.53468 C 201.66895,581.39485 179.9762,570.84252 150.64997,558.70405 C 189.1636,566.71577 219.92566,575.86211 226.49424,574.15506 C 232.8759,564.97169 199.78244,540.11824 194.22057,518.66863 C 207.09507,534.25906 240.47036,573.20011 248.07978,576.35268 C 258.50236,580.67074 248.88516,578.76775 270.77074,583.33212 C 292.65632,587.89649 286.6149,582.76656 294.04932,583.51671 C 294.64633,567.05579 295.03991,570.72834 294.3067,553.58515 C 293.57349,536.44196 296.42234,514.39862 296.02621,487.32663 C 293.02951,467.79819 257.5956,465.51624 213.15629,453.59267 C 253.45425,453.71279 265.52783,458.58273 298.35006,465.09893 C 301.44073,422.05265 291.37833,394.76401 280.65436,343.87096 C 300.97753,394.73616 303.86284,400.01394 307.35663,416.26529 C 332.7725,400.16991 348.52632,394.09622 364.3441,387.59223 C 349.11107,406.56194 321.40454,408.74617 311.49501,435.79633 C 311.03123,466.87758 313.92409,482.61567 313.497,496.93644 C 313.06991,511.25721 311.43829,534.7489 314.89624,542.50175 C 323.68107,542.26428 344.61847,539.70363 358.58867,537.05751 C 372.77798,534.3699 396.92191,534.94267 406.75775,530.98154 C 408.60329,521.69353 423.46256,492.87636 430.91085,482.30679 C 430.10589,498.72022 419.08702,521.36802 417.13755,531.14233 C 428.50527,529.37507 451.60582,530.71496 481.75153,530.25911 C 433.06511,542.38337 405.98825,541.32951 396.80191,543.51018 C 399.15713,553.68117 414.07596,578.62825 419.19529,595.70031 C 405.93478,581.27686 387.15713,552.88398 384.39419,545.64563 C 376.30437,546.3976 368.28769,549.63436 349.79752,555.04444 C 331.30736,560.45451 331.64108,561.86161 316.05585,565.91681 C 313.78781,575.29889 315.11313,593.83641 314.71997,628.17188 C 314.32679,662.50866 324.16783,773.12061 358.67566,770.91217 L 224.61088,767.37316 z"
         style="fill:#6e2400;fill-opacity:1;fill-rule:evenodd;stroke:#000000;stroke-width:0;stroke-linecap:butt;stroke-linejoin:miter;stroke-miterlimit:4;stroke-dasharray:none;stroke-opacity:1" />
    </g>
    <g
       id="g3953"
       transform="matrix(0.5,0,0,0.5,467.67908,-160.18118)">
      <path
         sodipodi:nodetypes="ccccccccc"
         id="path3955"
         d="M 238.64255,407.41776 C 201.2455,326.81138 311.05304,314.04484 318.94969,364.69408 C 361.14583,313.8425 472.55105,381.31582 410.41896,448.56832 C 480.61181,409.70943 541.51933,534.55217 464.75316,559.99204 C 501.65116,622.65321 419.50312,668.14373 376.27446,625.43121 C 392.27723,706.0368 255.65968,709.79699 239.22782,639.73369 C 178.33944,689.39628 128.59387,625.73299 156.19419,593.23209 C 109.3564,574.44703 117.40171,493.51376 174.07416,504.35231 C 95.960735,450.25768 164.00449,360.0052 238.64255,407.41776 z"
         style="fill:#0e9000;fill-opacity:1;fill-rule:evenodd;stroke:#000000;stroke-width:0;stroke-linecap:butt;stroke-linejoin:miter;stroke-miterlimit:4;stroke-dasharray:none;stroke-opacity:1" />
      <path
         sodipodi:nodetypes="cscsscccccszczccccccczczccccccczczcc"
         id="path3957"
         d="M 224.61088,767.37316 C 274.21423,741.90828 278.98789,761.51229 284.93857,679.02039 C 287.47626,643.84134 289.27581,629.48301 287.71197,621.31144 C 286.14814,613.13988 282.10873,612.04289 267.64166,602.49874 C 257.41931,595.75489 218.63664,578.00374 212.8951,584.67548 C 197.9462,602.04626 185.78227,609.83781 174.39061,617.07945 C 178.03048,604.11321 201.65433,598.12387 203.15206,577.53468 C 201.66895,581.39485 179.9762,570.84252 150.64997,558.70405 C 189.1636,566.71577 219.92566,575.86211 226.49424,574.15506 C 232.8759,564.97169 199.78244,540.11824 194.22057,518.66863 C 207.09507,534.25906 240.47036,573.20011 248.07978,576.35268 C 258.50236,580.67074 248.88516,578.76775 270.77074,583.33212 C 292.65632,587.89649 286.6149,582.76656 294.04932,583.51671 C 294.64633,567.05579 295.03991,570.72834 294.3067,553.58515 C 293.57349,536.44196 296.42234,514.39862 296.02621,487.32663 C 293.02951,467.79819 257.5956,465.51624 213.15629,453.59267 C 253.45425,453.71279 265.52783,458.58273 298.35006,465.09893 C 301.44073,422.05265 291.37833,394.76401 280.65436,343.87096 C 300.97753,394.73616 303.86284,400.01394 307.35663,416.26529 C 332.7725,400.16991 348.52632,394.09622 364.3441,387.59223 C 349.11107,406.56194 321.40454,408.74617 311.49501,435.79633 C 311.03123,466.87758 313.92409,482.61567 313.497,496.93644 C 313.06991,511.25721 311.43829,534.7489 314.89624,542.50175 C 323.68107,542.26428 344.61847,539.70363 358.58867,537.05751 C 372.77798,534.3699 396.92191,534.94267 406.75775,530.98154 C 408.60329,521.69353 423.46256,492.87636 430.91085,482.30679 C 430.10589,498.72022 419.08702,521.36802 417.13755,531.14233 C 428.50527,529.37507 451.60582,530.71496 481.75153,530.25911 C 433.06511,542.38337 405.98825,541.32951 396.80191,543.51018 C 399.15713,553.68117 414.07596,578.62825 419.19529,595.70031 C 405.93478,581.27686 387.15713,552.88398 384.39419,545.64563 C 376.30437,546.3976 368.28769,549.63436 349.79752,555.04444 C 331.30736,560.45451 331.64108,561.86161 316.05585,565.91681 C 313.78781,575.29889 315.11313,593.83641 314.71997,628.17188 C 314.32679,662.50866 324.16783,773.12061 358.67566,770.91217 L 224.61088,767.37316 z"
         style="fill:#6e2400;fill-opacity:1;fill-rule:evenodd;stroke:#000000;stroke-width:0;stroke-linecap:butt;stroke-linejoin:miter;stroke-miterlimit:4;stroke-dasharray:none;stroke-opacity:1" />
    </g>
    <g
       id="g3959"
       transform="matrix(0.3,0,0,0.3,358.62224,-82.956996)">
      <path
         sodipodi:nodetypes="ccccccccc"
         id="path3961"
         d="M 238.64255,407.41776 C 201.2455,326.81138 311.05304,314.04484 318.94969,364.69408 C 361.14583,313.8425 472.55105,381.31582 410.41896,448.56832 C 480.61181,409.70943 541.51933,534.55217 464.75316,559.99204 C 501.65116,622.65321 419.50312,668.14373 376.27446,625.43121 C 392.27723,706.0368 255.65968,709.79699 239.22782,639.73369 C 178.33944,689.39628 128.59387,625.73299 156.19419,593.23209 C 109.3564,574.44703 117.40171,493.51376 174.07416,504.35231 C 95.960735,450.25768 164.00449,360.0052 238.64255,407.41776 z"
         style="fill:#0e9000;fill-opacity:1;fill-rule:evenodd;stroke:#000000;stroke-width:0;stroke-linecap:butt;stroke-linejoin:miter;stroke-miterlimit:4;stroke-dasharray:none;stroke-opacity:1" />
      <path
         sodipodi:nodetypes="cscsscccccszczccccccczczccccccczczcc"
         id="path3963"
         d="M 224.61088,767.37316 C 274.21423,741.90828 278.98789,761.51229 284.93857,679.02039 C 287.47626,643.84134 289.27581,629.48301 287.71197,621.31144 C 286.14814,613.13988 282.10873,612.04289 267.64166,602.49874 C 257.41931,595.75489 218.63664,578.00374 212.8951,584.67548 C 197.9462,602.04626 185.78227,609.83781 174.39061,617.07945 C 178.03048,604.11321 201.65433,598.12387 203.15206,577.53468 C 201.66895,581.39485 179.9762,570.84252 150.64997,558.70405 C 189.1636,566.71577 219.92566,575.86211 226.49424,574.15506 C 232.8759,564.97169 199.78244,540.11824 194.22057,518.66863 C 207.09507,534.25906 240.47036,573.20011 248.07978,576.35268 C 258.50236,580.67074 248.88516,578.76775 270.77074,583.33212 C 292.65632,587.89649 286.6149,582.76656 294.04932,583.51671 C 294.64633,567.05579 295.03991,570.72834 294.3067,553.58515 C 293.57349,536.44196 296.42234,514.39862 296.02621,487.32663 C 293.02951,467.79819 257.5956,465.51624 213.15629,453.59267 C 253.45425,453.71279 265.52783,458.58273 298.35006,465.09893 C 301.44073,422.05265 291.37833,394.76401 280.65436,343.87096 C 300.97753,394.73616 303.86284,400.01394 307.35663,416.26529 C 332.7725,400.16991 348.52632,394.09622 364.3441,387.59223 C 349.11107,406.56194 321.40454,408.74617 311.49501,435.79633 C 311.03123,466.87758 313.92409,482.61567 313.497,496.93644 C 313.06991,511.25721 311.43829,534.7489 314.89624,542.50175 C 323.68107,542.26428 344.61847,539.70363 358.58867,537.05751 C 372.77798,534.3699 396.92191,534.94267 406.75775,530.98154 C 408.60329,521.69353 423.46256,492.87636 430.91085,482.30679 C 430.10589,498.72022 419.08702,521.36802 417.13755,531.14233 C 428.50527,529.37507 451.60582,530.71496 481.75153,530.25911 C 433.06511,542.38337 405.98825,541.32951 396.80191,543.51018 C 399.15713,553.68117 414.07596,578.62825 419.19529,595.70031 C 405.93478,581.27686 387.15713,552.88398 384.39419,545.64563 C 376.30437,546.3976 368.28769,549.63436 349.79752,555.04444 C 331.30736,560.45451 331.64108,561.86161 316.05585,565.91681 C 313.78781,575.29889 315.11313,593.83641 314.71997,628.17188 C 314.32679,662.50866 324.16783,773.12061 358.67566,770.91217 L 224.61088,767.37316 z"
         style="fill:#6e2400;fill-opacity:1;fill-rule:evenodd;stroke:#000000;stroke-width:0;stroke-linecap:butt;stroke-linejoin:miter;stroke-miterlimit:4;stroke-dasharray:none;stroke-opacity:1" />
    </g>
    <path
       style="fill:#58ff00;fill-opacity:1;fill-rule:evenodd;stroke:#279500;stroke-width:0;stroke-linecap:butt;stroke-linejoin:miter;stroke-miterlimit:4;stroke-dasharray:none;stroke-opacity:1"
       d="M 337.09889,574.47332 C 330.16792,570.92207 334.04902,507.88737 338.87452,507.88737 C 348.736,528.01112 355.33044,548.13488 355.74296,568.25863 C 353.13766,527.74425 358.77712,491.35225 365.5089,455.50641 C 377.8328,493.31952 389.32164,530.99345 387.70422,566.48301 C 389.10976,536.81511 394.89921,511.53111 408.12391,493.68236 C 414.84589,516.60485 421.80995,539.47892 417.00204,564.70738 C 419.80645,518.79132 433.59657,486.60739 445.41205,451.95516 C 449.78688,490.11826 456.72685,528.79439 449.85111,564.70738 C 454.4324,539.24526 460.42338,516.60253 472.04643,505.22393 C 479.39594,530.42802 480.08133,554.2993 475.59768,577.13676 L 337.09889,574.47332 z"
       id="path8068"
       sodipodi:nodetypes="cccccccccccc" />
    <path
       style="fill:#bc5100;fill-opacity:1;fill-rule:evenodd;stroke:#bc5100;stroke-width:1.5px;stroke-linecap:butt;stroke-linejoin:miter;stroke-opacity:1"
       d="M 68.513935,288.63046 C 12.79909,360.46365 32.637295,411.72728 48.523015,455.22159 C 64.40872,498.71589 36.864565,507.75898 27.051265,515.19438 C 37.173805,553.52428 86.538025,537.72685 105.53417,522.59842 C 124.07384,507.83353 127.69024,453.41143 119.60188,422.64377 L 68.513935,288.63046 z"
       id="path2479"
       sodipodi:nodetypes="czczcc" />
    <path
       style="fill:#bc5100;fill-opacity:1;fill-rule:evenodd;stroke:#bc5100;stroke-width:1.5px;stroke-linecap:butt;stroke-linejoin:miter;stroke-opacity:1"
       d="M 121.82309,380.44068 L 137.3716,441.89428 C 132.0994,463.21068 118.05869,472.853 120.34228,485.57817 C 122.64535,498.41184 142.47708,539.2939 143.29483,556.65705 C 169.02785,569.7867 179.72806,563.58842 192.16156,559.61866 C 194.63965,537.06068 182.2571,539.27037 173.65144,535.1853 C 160.44949,515.19436 154.28536,491.50142 152.92009,471.51048 C 186.51295,433.76522 192.0955,419.72933 198.8252,401.17202 L 121.82309,380.44068 z"
       id="path2481"
       sodipodi:nodetypes="cczcccccc" />
    <path
       style="fill:#ec6500;fill-opacity:1;fill-rule:evenodd;stroke:#ec6500;stroke-width:1.5px;stroke-linecap:butt;stroke-linejoin:miter;stroke-opacity:1"
       d="M 56.66746,284.92845 C 39.75235,332.98231 66.856825,354.86736 69.99475,401.17202 C 71.784265,414.31339 74.75068,422.98261 67.03312,472.25089 C 69.03874,494.67864 71.361205,516.78953 71.47555,541.10854 L 67.773535,562.58029 C 75.068905,572.64888 89.63242,576.17616 116.64025,568.50352 C 114.2262,560.12925 119.40538,549.12408 107.75539,546.29138 C 95.65591,527.18454 101.02388,500.59166 101.83216,475.95291 C 124.9762,445.80954 129.57415,428.82493 135.15038,396.72958 C 148.62637,400.00644 150.05904,410.26219 188.45953,404.87404 C 180.05982,426.85524 184.83067,462.54102 190.75813,492.47398 C 197.9323,528.70272 188.61001,554.62708 191.42114,582.57122 C 197.64131,585.86812 207.2531,589.87532 238.80706,579.6096 C 235.31851,572.85258 243.99052,570.14908 224.73937,558.13786 C 221.16403,541.04521 222.3687,521.56255 222.51815,502.60749 C 226.1426,471.25875 215.46062,429.89548 236.58584,410.79728 C 250.61972,414.09604 243.13714,490.64101 250.65355,517.4156 C 258.16994,544.19017 255.59145,573.52302 267.68287,581.83082 C 282.36221,582.42114 296.29705,588.17371 309.14552,579.6096 C 308.43293,573.18813 312.4959,560.41768 293.59703,553.69544 C 286.98133,541.50625 284.55167,520.94501 281.75054,501.12667 C 285.83218,475.09851 273.85639,422.07692 282.49096,411.53769 C 307.16602,381.41968 316.66756,323.23437 303.2223,293.81331 L 210.67168,236.80212 C 206.68765,249.00117 207.54772,267.84646 195.09896,266.56783 C 182.65022,265.28922 150.97489,250.23139 111.45742,251.61022 C 60.48844,262.22607 62.09536,282.30581 56.66746,284.92845 z"
       id="path2483"
       sodipodi:nodetypes="ccccccccccsccccczccccscczcc" />
    <path
       style="fill:#ff6d00;fill-opacity:1;fill-rule:evenodd;stroke:#ff6d00;stroke-width:1.5px;stroke-linecap:butt;stroke-linejoin:miter;stroke-opacity:1"
       d="M 248.43233,130.18383 C 261.53548,156.44039 257.78834,175.50525 261.01921,176.08893 C 282.55528,172.21528 283.46902,180.80242 298.54436,174.19228 C 305.77739,162.13896 325.50655,140.44225 329.87689,144.25149 C 339.77881,170.70062 335.41324,190.55931 326.91525,207.92634 C 332.10071,250.71409 332.21947,245.02218 326.91525,256.05266 C 331.0733,265.18431 347.10773,281.72002 345.42538,290.85168 C 313.39502,311.03809 307.79888,296.3352 300.26068,299.73656 C 271.07741,293.39793 230.60006,279.0504 231.40301,278.26481 C 216.75461,262.88928 203.09824,250.28431 199.15802,209.50362 C 207.99242,168.71199 212.16685,149.61913 248.43233,130.18383 z"
       id="path2485"
       sodipodi:nodetypes="ccccccccccc" />
    <path
       sodipodi:type="arc"
       style="fill:#ffffff;fill-opacity:1;stroke:#000000;stroke-width:2;stroke-linecap:round;stroke-linejoin:round;stroke-miterlimit:4;stroke-dasharray:none;stroke-opacity:1"
       id="path3298"
       sodipodi:cx="415.61395"
       sodipodi:cy="409.6907"
       sodipodi:rx="14.808098"
       sodipodi:ry="14.808098"
       d="M 430.42205,409.6907 A 14.808098,14.808098 0 1 1 400.80585,409.6907 A 14.808098,14.808098 0 1 1 430.42205,409.6907 z"
       transform="matrix(1.5,0,0,1.5,-310.57337,-375.51272)" />
    <path
       sodipodi:type="arc"
       style="fill:#ffffff;fill-opacity:1;stroke:#000000;stroke-width:2;stroke-linecap:round;stroke-linejoin:round;stroke-miterlimit:4;stroke-dasharray:none;stroke-opacity:1"
       id="path3294"
       sodipodi:cx="415.61395"
       sodipodi:cy="409.6907"
       sodipodi:rx="14.808098"
       sodipodi:ry="14.808098"
       d="M 430.42205,409.6907 A 14.808098,14.808098 0 1 1 400.80585,409.6907 A 14.808098,14.808098 0 1 1 430.42205,409.6907 z"
       transform="matrix(1.5,0,0,1.5,-351.29565,-374.77233)" />
    <path
       sodipodi:type="arc"
       style="fill:#000000;fill-opacity:1;stroke:#ff6c00;stroke-width:0;stroke-linecap:round;stroke-linejoin:round;stroke-miterlimit:4;stroke-dasharray:none;stroke-opacity:1"
       id="path2487"
       sodipodi:cx="414.87357"
       sodipodi:cy="409.6907"
       sodipodi:rx="7.6508508"
       sodipodi:ry="7.4040489"
       d="M 422.52442,409.6907 A 7.6508508,7.4040489 0 1 1 407.22271,409.6907 A 7.6508508,7.4040489 0 1 1 422.52442,409.6907 z"
       transform="matrix(1.5,0,0,1.5,-349.81484,-374.77233)" />
    <path
       sodipodi:type="arc"
       style="fill:#000000;fill-opacity:1;stroke:#ff6c00;stroke-width:0;stroke-linecap:round;stroke-linejoin:round;stroke-miterlimit:4;stroke-dasharray:none;stroke-opacity:1"
       id="path2489"
       sodipodi:cx="445.47696"
       sodipodi:cy="411.41833"
       sodipodi:rx="7.1572475"
       sodipodi:ry="7.1572475"
       d="M 452.63421,411.41833 A 7.1572475,7.1572475 0 1 1 438.31971,411.41833 A 7.1572475,7.1572475 0 1 1 452.63421,411.41833 z"
       transform="matrix(1.5,0,0,1.5,-354.25727,-378.47435)" />
    <path
       sodipodi:type="arc"
       style="fill:#000000;fill-opacity:1;stroke:#ff6c00;stroke-width:0;stroke-linecap:round;stroke-linejoin:round;stroke-miterlimit:4;stroke-dasharray:none;stroke-opacity:1"
       id="path2491"
       sodipodi:cx="441.28134"
       sodipodi:cy="433.87729"
       sodipodi:rx="6.9104457"
       sodipodi:ry="6.9104457"
       d="M 448.19179,433.87729 A 6.9104457,6.9104457 0 1 1 434.3709,433.87729 A 6.9104457,6.9104457 0 1 1 448.19179,433.87729 z"
       transform="matrix(1.9285714,0,0,2.0357144,-511.50206,-594.65809)" />
    <path
       style="fill:#000000;fill-opacity:1;stroke:#ff6d00;stroke-width:0;stroke-linecap:round;stroke-linejoin:round;stroke-miterlimit:4;stroke-dasharray:none;stroke-opacity:1"
       d="M 48.481225,538.854 C 37.69921,535.70689 30.513145,528.96773 26.97565,518.68583 L 25.61404,514.7283 L 33.346315,509.46503 C 45.48862,501.19986 50.127085,494.75155 51.678985,483.97928 C 52.80259,476.18008 51.484825,467.9367 47.00893,454.76526 C 45.0073,448.87488 43.44775,443.97732 43.543285,443.88177 C 43.63885,443.78622 47.663725,447.02301 52.4875,451.07461 C 57.31126,455.12622 61.5475,458.44116 61.90132,458.44116 C 62.25514,458.44116 63.878335,457.23626 65.508415,455.7636 C 67.20259,454.23297 68.47255,453.51938 68.473075,454.09769 C 68.473585,454.65409 67.92502,458.99181 67.25407,463.73704 C 66.079795,472.04176 66.09568,473.08112 67.67794,491.50223 C 69.27838,510.13518 70.73347,538.40136 70.130515,539.1453 C 69.422935,540.0183 51.65092,539.77917 48.481225,538.85398 L 48.481225,538.854 z"
       id="path3266" />
    <path
       style="fill:#000000;fill-opacity:1;stroke:#ff6d00;stroke-width:0;stroke-linecap:round;stroke-linejoin:round;stroke-miterlimit:4;stroke-dasharray:none;stroke-opacity:1"
       d="M 101.51815,523.32603 C 100.81732,518.21286 100.9423,508.1397 101.91451,491.38252 L 102.78688,476.34565 L 106.9306,470.65118 C 109.20961,467.51923 112.22384,463.14753 113.62889,460.93631 L 116.18355,456.9159 L 116.67752,459.45549 C 116.94917,460.85228 117.39083,463.24455 117.65893,464.77163 C 118.25655,468.17551 118.84153,468.25093 120.5307,465.14182 C 121.24972,463.81836 122.51336,461.90256 123.33875,460.8845 L 124.83946,459.03349 L 124.3748,468.28855 C 122.96357,496.39709 115.59527,517.05142 104.04487,525.27603 L 101.98637,526.74182 L 101.51815,523.32603 z"
       id="path3270" />
    <path
       style="fill:#000000;fill-opacity:1;stroke:#ff6d00;stroke-width:0;stroke-linecap:round;stroke-linejoin:round;stroke-miterlimit:4;stroke-dasharray:none;stroke-opacity:1"
       d="M 161.84683,564.70347 C 155.78533,563.32788 151.30351,561.76912 146.24378,559.27679 L 142.20065,557.28522 L 141.34759,552.10239 C 140.1541,544.8514 137.52657,536.59032 130.59733,518.30313 C 120.7225,492.24219 121.42948,495.16887 122.78959,485.98006 C 123.43421,481.62505 124.18106,475.30583 124.44929,471.93729 C 124.71754,468.56876 125.15839,465.67584 125.42902,465.50859 C 125.69962,465.34134 127.35775,471.01275 129.11374,478.11174 C 130.86971,485.21071 132.43418,491.01898 132.59034,491.01898 C 132.74648,491.01898 134.68183,487.43727 136.89107,483.05962 L 140.90788,475.10028 L 141.97741,477.69169 C 142.56568,479.11698 143.97894,482.69868 145.118,485.65104 C 146.25707,488.60342 147.42542,491.01898 147.71437,491.01898 C 148.00331,491.01898 149.53328,488.19 151.11431,484.73237 C 154.09841,478.20633 155.09953,477.09936 155.09953,480.32583 C 155.09953,483.69688 158.15398,497.11388 160.68005,504.83884 C 163.45699,513.33107 167.07086,521.4851 171.48865,529.22653 L 174.4901,534.48609 L 180.00314,536.21505 C 183.46213,537.29985 186.6311,538.89837 188.50864,540.50547 L 191.50112,543.06691 L 191.04185,550.17609 C 190.23809,562.61695 190.77747,561.62424 183.77783,563.54588 C 176.04541,565.66869 167.97667,566.09457 161.84683,564.70347 L 161.84683,564.70347 z"
       id="path3274" />
    <path
       style="fill:#000000;fill-opacity:1;stroke:#ff6d00;stroke-width:0;stroke-linecap:round;stroke-linejoin:round;stroke-miterlimit:4;stroke-dasharray:none;stroke-opacity:1"
       d="M 84.390865,573.12027 C 76.040785,571.91083 66.991345,566.04255 66.991345,561.83724 C 66.991345,560.94193 67.85539,555.3867 68.911435,549.49226 C 70.65808,539.74333 70.79608,537.57107 70.439305,525.44781 C 70.223575,518.1178 69.500995,505.79005 68.83354,498.05283 L 67.619995,483.98514 L 71.828605,477.69169 C 74.14336,474.2303 76.28725,471.30285 76.5928,471.18623 C 76.898365,471.06963 77.36614,472.56894 77.632315,474.51806 C 78.80311,483.09165 81.324415,496.18362 81.727795,495.7842 C 81.970795,495.54357 83.87284,490.96338 85.954525,485.60598 L 89.73937,475.86527 L 91.36018,482.88683 C 93.40987,491.76645 93.63154,492.49979 94.26589,492.49979 C 94.55197,492.49979 96.23506,490.15161 98.006065,487.2816 C 99.77707,484.41158 101.37809,482.21545 101.56393,482.40127 C 101.74975,482.58709 101.49467,489.84974 100.9971,498.54044 C 100.0075,515.82402 100.40501,521.82713 103.21391,532.01893 C 105.55624,540.51786 107.86072,544.64034 111.3727,546.61417 C 115.2642,548.80131 116.32202,551.37358 116.93131,560.13081 C 117.21021,564.13924 117.60206,567.84543 117.80214,568.36682 C 118.24534,569.52173 108.169,572.09031 98.84818,573.19844 C 91.8055,574.03574 90.66844,574.02957 84.390865,573.1203 L 84.390865,573.12027 z"
       id="path3278" />
    <path
       style="fill:#000000;fill-opacity:1;stroke:#ff6d00;stroke-width:0;stroke-linecap:round;stroke-linejoin:round;stroke-miterlimit:4;stroke-dasharray:none;stroke-opacity:1"
       d="M 196.02086,585.77929 C 193.12657,584.82923 191.09429,583.67997 190.56732,582.69531 C 189.67044,581.01945 190.06676,563.64703 191.27374,551.73219 C 191.62441,548.27079 191.87488,535.85627 191.83042,524.14436 L 191.74959,502.84995 L 195.80667,511.00217 C 198.03805,515.48588 200.07652,519.15436 200.33659,519.15436 C 200.59667,519.15436 202.43465,515.43655 204.42101,510.89257 L 208.03256,502.63078 L 209.28692,509.22666 C 209.97685,512.85439 210.56125,516.5722 210.58561,517.48846 C 210.61472,518.58378 211.08718,519.15436 211.965,519.15436 C 213.00688,519.15436 213.84965,517.45395 215.80235,511.41224 L 218.30464,503.67008 L 220.64027,507.54734 L 222.97592,511.42461 L 223.43885,528.43167 C 223.69349,537.78557 224.29127,548.13023 224.76726,551.4198 C 225.61601,557.28549 225.69151,557.43821 228.68206,559.33719 C 230.35922,560.40219 233.18217,562.75641 234.95528,564.56882 C 237.91137,567.59042 238.22767,568.28568 238.76367,572.94033 C 239.08516,575.73225 239.5655,578.54655 239.83111,579.19433 C 240.75827,581.4556 220.97503,586.38345 208.77889,586.92923 C 201.90892,587.23665 199.91248,587.0567 196.02088,585.77926 L 196.02086,585.77929 z"
       id="path3282" />
    <path
       style="fill:#000000;fill-opacity:1;stroke:#ff6d00;stroke-width:0;stroke-linecap:round;stroke-linejoin:round;stroke-miterlimit:4;stroke-dasharray:none;stroke-opacity:1"
       d="M 276.52594,583.98563 C 266.40891,582.78249 265.80955,582.55183 263.29226,578.89268 C 259.46324,573.32673 258.07727,568.0761 255.04813,547.65996 C 253.77931,539.10828 252.09626,529.132 251.30801,525.49044 C 250.5146,521.82503 250.16827,518.68514 250.53217,518.45659 C 250.89368,518.22954 252.27392,515.45664 253.59934,512.29461 L 256.00917,506.54545 L 261.21343,515.54964 C 267.0658,525.67518 266.63719,525.71202 268.80608,514.89703 C 269.56148,511.13024 270.35807,508.04925 270.57623,508.05041 C 270.79442,508.05157 273.10039,511.56042 275.70065,515.84784 C 278.30091,520.13524 280.57709,523.49448 280.7588,523.31277 C 280.94048,523.13104 281.65678,519.37232 282.3505,514.96003 L 283.61185,506.93769 L 285.31481,517.67357 C 287.38033,530.69475 290.13368,542.4105 292.54648,548.44484 C 294.04148,552.18378 294.75496,553.0816 296.82649,553.83067 C 298.19378,554.3251 300.82192,555.88218 302.66684,557.29089 C 307.3594,560.87393 309.58129,565.84988 310.14124,574.02983 L 310.57787,580.40874 L 305.95369,582.54336 C 301.77955,584.47028 300.50083,584.68932 292.81484,584.79408 C 288.13178,584.85792 280.80178,584.49413 276.52594,583.98563 L 276.52594,583.98563 z"
       id="path3286" />
    <path
       style="fill:#000000;fill-opacity:1;fill-rule:evenodd;stroke:#000000;stroke-width:1.5px;stroke-linecap:butt;stroke-linejoin:miter;stroke-opacity:1"
       d="M 249.17273,130.18383 C 218.49001,138.42965 187.0142,184.09089 204.02975,236.5875 C 210.31133,232.42901 208.83746,226.31608 228.4414,223.47484 C 201.02938,183.936 235.07333,138.53302 249.17273,130.18383 z"
       id="path3288"
       sodipodi:nodetypes="cccc" />
    <path
       style="fill:#000000;fill-opacity:1;fill-rule:evenodd;stroke:#000000;stroke-width:1.5px;stroke-linecap:butt;stroke-linejoin:miter;stroke-opacity:1"
       d="M 329.13646,142.03029 C 320.18991,148.27748 309.38858,152.77461 292.85663,176.08893 C 305.08564,178.91974 313.79378,186.8247 316.54958,195.33945 C 314.54369,176.30425 313.14098,153.95965 329.13646,142.03029 z"
       id="path3290"
       sodipodi:nodetypes="cccc" />
    <path
       style="fill:#ffffff;fill-opacity:1;fill-rule:evenodd;stroke:#ffffff;stroke-width:1.5px;stroke-linecap:butt;stroke-linejoin:miter;stroke-opacity:1"
       d="M 235.84544,281.96682 C 221.08156,299.45662 220.73794,315.90184 225.47978,331.57395 C 236.62697,332.60227 240.66067,326.5171 246.21112,321.94869 C 242.1336,336.7568 242.43404,351.56489 252.13435,366.37299 C 263.56279,366.87364 266.75552,355.84432 268.42327,342.68002 C 265.35832,358.47532 268.86103,374.27064 273.6061,390.06594 C 288.01891,379.00902 288.0394,360.75595 286.93339,341.93962 C 289.96787,348.70434 292.66705,356.13968 299.52026,355.26692 C 300.68178,347.76182 309.57208,328.81317 291.37582,298.25572 C 262.49315,296.55257 251.52694,287.31223 235.84544,281.96682 z"
       id="path3292"
       sodipodi:nodetypes="cccccccccc" />
    <path
       sodipodi:type="arc"
       style="fill:#ffffff;fill-opacity:1;stroke:#000000;stroke-width:0;stroke-linecap:round;stroke-linejoin:round;stroke-miterlimit:4;stroke-dasharray:none;stroke-opacity:1"
       id="path3350"
       sodipodi:cx="421.29041"
       sodipodi:cy="406.4823"
       sodipodi:rx="3.2084212"
       sodipodi:ry="4.6892309"
       d="M 424.49883,406.4823 A 3.2084212,4.6892309 0 1 1 418.08198,406.4823 A 3.2084212,4.6892309 0 1 1 424.49883,406.4823 z"
       transform="matrix(1.7307693,0,0,1.2631578,-384.1013,-227.78244)" />
    <path
       sodipodi:type="arc"
       style="fill:#ffffff;fill-opacity:1;stroke:#000000;stroke-width:0;stroke-linecap:round;stroke-linejoin:round;stroke-miterlimit:4;stroke-dasharray:none;stroke-opacity:1"
       id="path3352"
       sodipodi:cx="421.29041"
       sodipodi:cy="406.4823"
       sodipodi:rx="3.2084212"
       sodipodi:ry="4.6892309"
       d="M 424.49883,406.4823 A 3.2084212,4.6892309 0 1 1 418.08198,406.4823 A 3.2084212,4.6892309 0 1 1 424.49883,406.4823 z"
       transform="matrix(1.7307693,0,0,1.2631578,-451.10797,-278.12997)" />
    <path
       sodipodi:type="arc"
       style="fill:#ffffff;fill-opacity:1;stroke:#000000;stroke-width:0;stroke-linecap:round;stroke-linejoin:round;stroke-miterlimit:4;stroke-dasharray:none;stroke-opacity:1"
       id="path3354"
       sodipodi:cx="421.29041"
       sodipodi:cy="406.4823"
       sodipodi:rx="3.2084212"
       sodipodi:ry="4.6892309"
       d="M 424.49883,406.4823 A 3.2084212,4.6892309 0 1 1 418.08198,406.4823 A 3.2084212,4.6892309 0 1 1 424.49883,406.4823 z"
       transform="matrix(1.7307693,0,0,1.2631578,-410.3857,-279.61078)" />
    <path
       style="fill:#ffffff;fill-opacity:1;fill-rule:evenodd;stroke:#ffffff;stroke-width:1.5px;stroke-linecap:butt;stroke-linejoin:miter;stroke-opacity:1"
       d="M 229.22539,223.15061 C 214.17362,198.71603 212.78114,167.26563 248.47592,131.3404 C 253.28041,146.76346 257.56498,162.05655 258.47138,176.5051 C 237.48563,184.094 226.53092,198.78822 229.22539,223.15061 z"
       id="path4048"
       sodipodi:nodetypes="cccc" />
    <path
       style="fill:#ffffff;fill-opacity:1;fill-rule:evenodd;stroke:#ffffff;stroke-width:1.5px;stroke-linecap:butt;stroke-linejoin:miter;stroke-opacity:1"
       d="M 318.44419,195.75563 C 314.17501,165.03158 319.97864,152.12869 328.43965,143.92728 C 337.0222,168.02892 334.75436,188.30101 326.58863,206.4915 C 325.29899,203.62546 323.62205,200.56577 318.44419,195.75563 z"
       id="path4559"
       sodipodi:nodetypes="cccc" />
    <g
       id="g6873"
       transform="matrix(0.65013401,0,0,0.65013401,330.02025,58.915408)">
      <path
         transform="translate(268.20852,330.03039)"
         d="m 313.22703,90.619146 c 20.46908,46.580834 -40.93179,57.250044 -49.74422,107.360914 -8.1196,46.17115 46.78316,77.18344 11.79309,108.38277 -37.97571,33.86153 -67.09665,-21.23721 -117.4781,-14.13321 -46.42047,6.54547 -58.949023,68.34442 -99.433879,44.70801 C 14.424556,311.28437 57.827701,266.56227 35.502677,220.84191 14.932845,178.71608 -47.712981,185.89765 -37.74393,140.09021 -26.924237,90.374098 29.021318,117.83305 65.605151,82.472326 c 33.707614,-32.580669 7.518913,-89.9411641 54.164979,-94.61531 50.62631,-5.072984 41.79941,56.619683 86.73449,80.48591 41.40228,21.989867 87.8626,-20.642436 106.72241,22.27622 z"
         inkscape:randomized="0"
         inkscape:rounded="0.43"
         inkscape:flatsided="false"
         sodipodi:arg2="0.21421339"
         sodipodi:arg1="-0.4541916"
         sodipodi:r2="120.45738"
         sodipodi:r1="186.34035"
         sodipodi:cy="172.37337"
         sodipodi:cx="145.77861"
         sodipodi:sides="5"
         id="path6286"
         style="opacity:1;fill:#ff2200;fill-opacity:1;stroke:#ffba00;stroke-width:0;stroke-linecap:round;stroke-linejoin:round;stroke-miterlimit:4;stroke-dasharray:none;stroke-opacity:1"
         sodipodi:type="star" />
      <ellipse
         transform="rotate(-26.360611,732.29798,119.16274)"
         id="path6809"
         style="opacity:1;fill:#ff2200;fill-opacity:1;stroke:#f9ff42;stroke-width:0;stroke-linecap:round;stroke-linejoin:round;stroke-miterlimit:4;stroke-dasharray:none;stroke-opacity:1"
         cx="63.531895"
         cy="331.44934"
         rx="28.072231"
         ry="21.177298" />
      <ellipse
         transform="rotate(-44.274107,249.92461,-190.68916)"
         id="path6811"
         style="opacity:1;fill:#ff2200;fill-opacity:1;stroke:#f9ff42;stroke-width:0;stroke-linecap:round;stroke-linejoin:round;stroke-miterlimit:4;stroke-dasharray:none;stroke-opacity:1"
         cx="63.531895"
         cy="331.44934"
         rx="28.072231"
         ry="21.177298" />
      <ellipse
         transform="rotate(24.060427,-14.392974,731.70084)"
         id="path6813"
         style="opacity:1;fill:#ff2200;fill-opacity:1;stroke:#f9ff42;stroke-width:0;stroke-linecap:round;stroke-linejoin:round;stroke-miterlimit:4;stroke-dasharray:none;stroke-opacity:1"
         cx="63.531895"
         cy="331.44934"
         rx="28.072231"
         ry="21.177298" />
      <ellipse
         transform="rotate(30.985658,-253.22803,1497.9387)"
         id="path6815"
         style="opacity:1;fill:#ff2200;fill-opacity:1;stroke:#f9ff42;stroke-width:0;stroke-linecap:round;stroke-linejoin:round;stroke-miterlimit:4;stroke-dasharray:none;stroke-opacity:1"
         cx="63.531895"
         cy="331.44934"
         rx="28.072231"
         ry="21.177298" />
    </g>
    <text
       xml:space="preserve"
       style="font-style:normal;font-variant:normal;font-weight:bold;font-stretch:normal;line-height:0%;font-family:'Bitstream Vera Sans Mono';-inkscape-font-specification:'Bitstream Vera Sans Mono Bold';fill:#ffffff;fill-opacity:1;stroke:#000000;stroke-width:3;stroke-linecap:butt;stroke-linejoin:miter;stroke-miterlimit:4;stroke-dasharray:none;stroke-opacity:1"
       x="591.30103"
       y="354.44049"
       id="text3153"><tspan
         sodipodi:role="line"
         id="tspan3155"
         x="591.30103"
         y="354.44049"
         style="font-size:100px;line-height:1.25;text-align:center;text-anchor:middle">YOU</tspan><tspan
         sodipodi:role="line"
         x="591.30103"
         y="479.44049"
         id="tspan3157"
         style="font-size:100px;line-height:1.25;text-align:center;text-anchor:middle">LOSE</tspan></text>
  </g>
</svg>
