#define im_width 16
#define im_height 16
static char im_bits[] = {
0x1c,0x00,0x3c,0x3c,0x3e,0x7c,0x7c,0x7c,0xf8,0x3f,0xf8,0x7f,0xf8,0x3f,0xfc,
0x3f,0xfc,0x3f,0xf8,0x1f,0xf8,0x1f,0xe0,0x1f,0xc0,0x0f,0x80,0x07,0xc0,0x07,
0xe0,0x01
};
