#define im_width 16
#define im_height 16
static char im_bits[] = {
0xf8,0x03,0xfc,0x07,0xfe,0x0f,0xfe,0x0f,0xff,0x1f,0xff,0x1f,0xff,0x1f,0xff,
0x1f,0xff,0x1f,0xff,0x1f,0xff,0x1f,0xff,0x1f,0xff,0x1f,0xfe,0x0f,0xfc,0x07,
0xf8,0x03
};
