#define im_width 16
#define im_height 16
static char im_bits[] = {
0x00,0x00,0x00,0x00,0x00,0x00,0x00,0x00,0x00,0x00,0x00,0x18,0x00,0x18,0xc0,
0x1f,0xff,0x0f,0xfe,0xff,0x00,0xf0,0x00,0x80,0x00,0x00,0x00,0x00,0x00,0x00,
0x00,0x00
};
