#define hoofprints_width 16
#define hoofprints_height 16
static char hoofprints_bits[] = {
  0x00, 0x00, 0x00, 0x00, 0x00, 0x28, 0x00, 0x6C, 0x00, 0xEE, 0x00, 0xEE, 
  0x00, 0xEE, 0x14, 0xFE, 0x76, 0x6E, 0x77, 0x00, 0x77, 0x00, 0x77, 0x00, 
  0x77, 0x00, 0x37, 0x00, 0x00, 0x00, 0x00, 0x00, };
