#define im_width 24
#define im_height 24
static char im_bits[] = {
0x1f,0x00,0x00,0xff,0x00,0x00,0xff,0x07,0x00,0xff,0x3f,0x00,0xff,0x3b,0x00,
0xfe,0x39,0x00,0xfe,0xff,0x01,0xfe,0xff,0x03,0xbe,0xbb,0x03,0x9c,0xbb,0x03,
0x8c,0x3f,0x00,0x80,0x3f,0x00,0x80,0xff,0x00,0x00,0xfe,0x01,0x00,0xf8,0x03,
0x00,0xf8,0x03,0x80,0xb9,0x03,0x80,0xb9,0x03,0x80,0xfb,0x03,0x80,0xff,0x03,
0x00,0xff,0x00,0x00,0x38,0x00,0x00,0x38,0x00,0x00,0x38,0x00
};
