<?xml version="1.0" encoding="UTF-8" standalone="no"?>
<!-- Created with Inkscape (http://www.inkscape.org/) -->
<svg
   xmlns:dc="http://purl.org/dc/elements/1.1/"
   xmlns:cc="http://creativecommons.org/ns#"
   xmlns:rdf="http://www.w3.org/1999/02/22-rdf-syntax-ns#"
   xmlns:svg="http://www.w3.org/2000/svg"
   xmlns="http://www.w3.org/2000/svg"
   xmlns:sodipodi="http://sodipodi.sourceforge.net/DTD/sodipodi-0.dtd"
   xmlns:inkscape="http://www.inkscape.org/namespaces/inkscape"
   width="471.42856"
   height="471.42856"
   id="svg8054"
   sodipodi:version="0.32"
   inkscape:version="0.46"
   sodipodi:docname="fence.svg"
   inkscape:output_extension="org.inkscape.output.svg.inkscape"
   version="1.0">
  <defs
     id="defs8056">
    <inkscape:perspective
       sodipodi:type="inkscape:persp3d"
       inkscape:vp_x="0 : 526.18109 : 1"
       inkscape:vp_y="0 : 1000 : 0"
       inkscape:vp_z="744.09448 : 526.18109 : 1"
       inkscape:persp3d-origin="372.04724 : 350.78739 : 1"
       id="perspective8062" />
  </defs>
  <sodipodi:namedview
     id="base"
     pagecolor="#ffffff"
     bordercolor="#666666"
     borderopacity="1.0"
     gridtolerance="10000"
     guidetolerance="10"
     objecttolerance="10"
     inkscape:pageopacity="0.0"
     inkscape:pageshadow="2"
     inkscape:zoom="0.50457914"
     inkscape:cx="372.04724"
     inkscape:cy="367.63312"
     inkscape:document-units="px"
     inkscape:current-layer="layer1"
     showgrid="false"
     inkscape:window-width="1278"
     inkscape:window-height="730"
     inkscape:window-x="0"
     inkscape:window-y="24" />
  <metadata
     id="metadata8059">
    <rdf:RDF>
      <cc:Work
         rdf:about="">
        <dc:format>image/svg+xml</dc:format>
        <dc:type
           rdf:resource="http://purl.org/dc/dcmitype/StillImage" />
      </cc:Work>
    </rdf:RDF>
  </metadata>
  <g
     inkscape:label="Layer 1"
     inkscape:groupmode="layer"
     id="layer1"
     transform="translate(-164.61935,-267.93091)">
    <rect
       style="opacity:1;fill:#a2ff46;fill-opacity:1;stroke:#24ff00;stroke-width:0;stroke-linecap:round;stroke-linejoin:bevel;stroke-miterlimit:4;stroke-dasharray:none;stroke-opacity:1"
       id="rect7475"
       width="471.42856"
       height="471.42856"
       x="164.61935"
       y="267.93091" />
    <g
       id="g8763"
       transform="translate(-95.128785,-75.310288)">
      <rect
         y="519.24463"
         x="360.69662"
         height="39.636993"
         width="261.60416"
         id="rect8617"
         style="opacity:1;fill:#ffffff;fill-opacity:1;stroke:#000000;stroke-width:4;stroke-linecap:round;stroke-linejoin:bevel;stroke-miterlimit:4;stroke-dasharray:none;stroke-opacity:1" />
      <rect
         y="657.97406"
         x="360.69662"
         height="39.636993"
         width="261.60416"
         id="rect8619"
         style="opacity:1;fill:#ffffff;fill-opacity:1;stroke:#000000;stroke-width:4;stroke-linecap:round;stroke-linejoin:bevel;stroke-miterlimit:4;stroke-dasharray:none;stroke-opacity:1" />
      <path
         sodipodi:nodetypes="cccccc"
         id="rect8099"
         d="M 454.6461,450.08895 L 495.46243,406.7216 L 536.27875,450.08895 L 536.27875,770.49712 L 454.6461,770.49712 L 454.6461,450.08895 z"
         style="fill:#ffffff;fill-opacity:1;stroke:#000000;stroke-width:4;stroke-linecap:round;stroke-linejoin:bevel;stroke-miterlimit:4;stroke-opacity:1" />
      <path
         sodipodi:nodetypes="cccccc"
         id="path8613"
         d="M 331.77141,450.08895 L 372.58774,406.7216 L 413.40406,450.08895 L 413.40406,770.49712 L 331.77141,770.49712 L 331.77141,450.08895 z"
         style="fill:#ffffff;fill-opacity:1;stroke:#000000;stroke-width:4;stroke-linecap:round;stroke-linejoin:bevel;stroke-miterlimit:4;stroke-opacity:1" />
      <path
         sodipodi:nodetypes="cccccc"
         id="path8615"
         d="M 577.52077,450.08895 L 618.3371,406.7216 L 659.15342,450.08895 L 659.15342,770.49712 L 577.52077,770.49712 L 577.52077,450.08895 z"
         style="fill:#ffffff;fill-opacity:1;stroke:#000000;stroke-width:4;stroke-linecap:round;stroke-linejoin:bevel;stroke-miterlimit:4;stroke-opacity:1" />
    </g>
    <path
       style="fill:#58ff00;fill-opacity:1;fill-rule:evenodd;stroke:#000000;stroke-width:0;stroke-linecap:butt;stroke-linejoin:miter;stroke-miterlimit:4;stroke-dasharray:none;stroke-opacity:1"
       d="M 521.49033,724.286 C 513.67353,710.69327 518.91234,694.92462 525.04158,679.00755 C 538.73557,691.59832 548.8873,704.89754 550.78815,719.84694 C 547.36859,700.0718 554.0629,684.3422 562.32971,669.24161 C 572.48946,685.28826 581.25019,701.80125 577.42253,722.51037 C 580.60502,707.21497 583.6541,691.81951 596.06659,683.44661 C 605.16339,698.24349 603.96922,713.04037 601.39347,727.83725 L 521.49033,724.286 z"
       id="path8077"
       sodipodi:nodetypes="cccccccc" />
    <path
       style="fill:#58ff00;fill-opacity:1;fill-rule:evenodd;stroke:#279500;stroke-width:0;stroke-linecap:butt;stroke-linejoin:miter;stroke-miterlimit:4;stroke-dasharray:none;stroke-opacity:1"
       d="M 190.5352,725.02919 C 183.60423,721.47794 187.48533,658.44324 192.31083,658.44324 C 202.17231,678.56699 208.76675,698.69075 209.17927,718.8145 C 206.57397,678.30012 212.21343,641.90812 218.94521,606.06228 C 231.26911,643.87539 242.75795,681.54932 241.14053,717.03888 C 242.54607,687.37098 248.33552,662.08698 261.56022,644.23823 C 268.2822,667.16072 275.24626,690.03479 270.43835,715.26325 C 273.24276,669.34719 287.03288,637.16326 298.84836,602.51103 C 303.22319,640.67413 310.16316,679.35026 303.28742,715.26325 C 307.86871,689.80113 313.85969,667.1584 325.48274,655.7798 C 332.83225,680.98389 333.51764,704.85517 329.03399,727.69263 L 190.5352,725.02919 z"
       id="path8068"
       sodipodi:nodetypes="cccccccccccc" />
  </g>
</svg>
