<?xml version="1.0" encoding="UTF-8" standalone="no"?>
<!-- Created with Inkscape (http://www.inkscape.org/) -->
<svg
   xmlns:dc="http://purl.org/dc/elements/1.1/"
   xmlns:cc="http://creativecommons.org/ns#"
   xmlns:rdf="http://www.w3.org/1999/02/22-rdf-syntax-ns#"
   xmlns:svg="http://www.w3.org/2000/svg"
   xmlns="http://www.w3.org/2000/svg"
   xmlns:sodipodi="http://sodipodi.sourceforge.net/DTD/sodipodi-0.dtd"
   xmlns:inkscape="http://www.inkscape.org/namespaces/inkscape"
   width="471.42856"
   height="471.42856"
   id="svg7145"
   sodipodi:version="0.32"
   inkscape:version="0.46"
   version="1.0"
   sodipodi:docname="woodland.svg"
   inkscape:output_extension="org.inkscape.output.svg.inkscape">
  <defs
     id="defs7147">
    <inkscape:perspective
       sodipodi:type="inkscape:persp3d"
       inkscape:vp_x="0 : 526.18109 : 1"
       inkscape:vp_y="0 : 1000 : 0"
       inkscape:vp_z="744.09448 : 526.18109 : 1"
       inkscape:persp3d-origin="372.04724 : 350.78739 : 1"
       id="perspective7153" />
  </defs>
  <sodipodi:namedview
     id="base"
     pagecolor="#ffffff"
     bordercolor="#666666"
     borderopacity="1.0"
     gridtolerance="10000"
     guidetolerance="10"
     objecttolerance="10"
     inkscape:pageopacity="0.0"
     inkscape:pageshadow="2"
     inkscape:zoom="1.1263637"
     inkscape:cx="285.94256"
     inkscape:cy="298.46341"
     inkscape:document-units="px"
     inkscape:current-layer="layer1"
     showgrid="false"
     inkscape:window-width="1278"
     inkscape:window-height="730"
     inkscape:window-x="0"
     inkscape:window-y="24" />
  <metadata
     id="metadata7150">
    <rdf:RDF>
      <cc:Work
         rdf:about="">
        <dc:format>image/svg+xml</dc:format>
        <dc:type
           rdf:resource="http://purl.org/dc/dcmitype/StillImage" />
      </cc:Work>
    </rdf:RDF>
  </metadata>
  <g
     inkscape:label="Layer 1"
     inkscape:groupmode="layer"
     id="layer1"
     transform="translate(-85.730438,-307.64871)">
    <rect
       style="opacity:1;fill:#58ff00;fill-opacity:1;stroke:#24ff00;stroke-width:0;stroke-linecap:round;stroke-linejoin:bevel;stroke-miterlimit:4;stroke-dasharray:none;stroke-opacity:1"
       id="rect7475"
       width="471.42856"
       height="471.42856"
       x="85.730438"
       y="307.64871" />
    <g
       id="g2401"
       transform="translate(0.8878127,-15.980629)">
      <path
         sodipodi:nodetypes="ccccccc"
         id="path7994"
         d="M 217.33505,417.1837 C 174.87534,331.21823 296.23651,309.04065 310.95938,356.70377 C 350.27078,288.81125 544.79645,390.80219 422.13816,486.30359 C 518.90103,486.75289 537.73495,643.85249 399.35759,611.22621 C 426.02157,668.98088 308.09058,743.26962 256.98407,657.48994 C 109.54057,744.29059 86.347419,503.64967 170.52291,507.90356 C 79.882195,476.89866 153.20774,360.81373 217.33505,417.1837 z"
         style="fill:#0e9000;fill-opacity:1;fill-rule:evenodd;stroke:#000000;stroke-width:0;stroke-linecap:butt;stroke-linejoin:miter;stroke-miterlimit:4;stroke-dasharray:none;stroke-opacity:1" />
      <path
         sodipodi:nodetypes="cssccczzccczzccczzcc"
         id="path7988"
         d="M 224.61088,767.37316 C 274.21423,741.90828 278.9879,761.51229 284.93857,679.02039 C 290.01397,608.6623 292.13673,607.38204 249.8854,606.93779 C 225.39384,606.68028 222.80045,612.2183 208.12749,669.4604 C 215.40722,611.56666 203.18785,624.19552 139.99621,605.75812 C 222.72033,587.00899 206.23213,631.70505 200.43525,544.41519 C 226.18426,575.59604 198.39001,596.0824 247.68761,586.88337 C 296.81136,577.71679 292.9453,612.43809 291.64326,545.59484 C 290.31825,477.57244 283.417,467.41295 215.81973,450.04142 C 310.25024,467.23054 291.44854,420.7983 280.65436,343.87096 C 305.32007,463.35761 302.84937,364.98208 346.58785,366.28473 C 313.11349,380.55989 291.4926,447.30979 303.73106,496.04863 C 315.96952,544.78747 311.0789,527.14484 367.46679,532.61845 C 423.85469,538.09207 404.47271,513.21186 415.81803,447.68209 C 410.65685,571.06586 421.46012,531.1708 481.75153,530.25911 C 384.37868,554.50763 451.57165,561.55618 433.40029,604.57844 C 419.30866,559.75091 400.90472,547.82691 358.67565,551.49319 C 316.44658,555.15949 311.72305,550.03138 314.71997,628.17188 C 317.76206,707.49008 324.16783,773.12061 358.67566,770.91217 L 224.61088,767.37316 z"
         style="fill:#6e2400;fill-opacity:1;fill-rule:evenodd;stroke:#000000;stroke-width:0;stroke-linecap:butt;stroke-linejoin:miter;stroke-miterlimit:4;stroke-dasharray:none;stroke-opacity:1" />
    </g>
    <path
       style="fill:#0e9000;fill-opacity:1;fill-rule:evenodd;stroke:#279500;stroke-width:0;stroke-linecap:butt;stroke-linejoin:miter;stroke-miterlimit:4;stroke-dasharray:none;stroke-opacity:1"
       d="M 381.75947,768.26211 C 374.8285,764.71086 378.7096,701.67616 383.5351,701.67616 C 393.39658,721.79991 399.99102,741.92367 400.40354,762.04742 C 397.79824,721.53304 403.4377,685.14104 410.16948,649.2952 C 422.49338,687.10831 433.98222,724.78224 432.3648,760.2718 C 433.77034,730.6039 439.55979,705.3199 452.78449,687.47115 C 459.50647,710.39364 466.47053,733.26771 461.66262,758.49617 C 464.46703,712.58011 478.25715,680.39618 490.07263,645.74395 C 494.44746,683.90705 501.38743,722.58318 494.51169,758.49617 C 499.09298,733.03405 505.08396,710.39132 516.70701,699.01272 C 524.05652,724.21681 524.74191,748.08809 520.25826,770.92555 L 381.75947,768.26211 z"
       id="path8002"
       sodipodi:nodetypes="cccccccccccc" />
    <path
       style="fill:#0e9000;fill-opacity:1;fill-rule:evenodd;stroke:#000000;stroke-width:0;stroke-linecap:butt;stroke-linejoin:miter;stroke-miterlimit:4;stroke-dasharray:none;stroke-opacity:1"
       d="M 109.20097,764.71086 C 101.38417,751.11813 106.62298,735.34948 112.75222,719.43241 C 126.44621,732.02318 136.59794,745.3224 138.49879,760.2718 C 135.07923,740.49666 141.77354,724.76706 150.04035,709.66647 C 160.2001,725.71312 168.96083,742.22611 165.13317,762.93523 C 168.31566,747.63983 171.36474,732.24437 183.77723,723.87147 C 192.87403,738.66835 191.67986,753.46523 189.10411,768.26211 L 109.20097,764.71086 z"
       id="path8012"
       sodipodi:nodetypes="cccccccc" />
  </g>
</svg>
