<?xml version="1.0" encoding="UTF-8" standalone="no"?>
<!-- Created with Inkscape (http://www.inkscape.org/) -->
<svg
   xmlns:dc="http://purl.org/dc/elements/1.1/"
   xmlns:cc="http://creativecommons.org/ns#"
   xmlns:rdf="http://www.w3.org/1999/02/22-rdf-syntax-ns#"
   xmlns:svg="http://www.w3.org/2000/svg"
   xmlns="http://www.w3.org/2000/svg"
   xmlns:sodipodi="http://sodipodi.sourceforge.net/DTD/sodipodi-0.dtd"
   xmlns:inkscape="http://www.inkscape.org/namespaces/inkscape"
   width="471.42856"
   height="471.42856"
   id="svg7145"
   sodipodi:version="0.32"
   inkscape:version="0.46"
   version="1.0"
   sodipodi:docname="woodland.svg"
   inkscape:output_extension="org.inkscape.output.svg.inkscape">
  <defs
     id="defs7147">
    <inkscape:perspective
       sodipodi:type="inkscape:persp3d"
       inkscape:vp_x="0 : 526.18109 : 1"
       inkscape:vp_y="0 : 1000 : 0"
       inkscape:vp_z="744.09448 : 526.18109 : 1"
       inkscape:persp3d-origin="372.04724 : 350.78739 : 1"
       id="perspective7153" />
  </defs>
  <sodipodi:namedview
     id="base"
     pagecolor="#ffffff"
     bordercolor="#666666"
     borderopacity="1.0"
     gridtolerance="10000"
     guidetolerance="10"
     objecttolerance="10"
     inkscape:pageopacity="0.0"
     inkscape:pageshadow="2"
     inkscape:zoom="1.1263637"
     inkscape:cx="285.94256"
     inkscape:cy="264.72652"
     inkscape:document-units="px"
     inkscape:current-layer="layer1"
     showgrid="false"
     inkscape:window-width="1278"
     inkscape:window-height="730"
     inkscape:window-x="1280"
     inkscape:window-y="24" />
  <metadata
     id="metadata7150">
    <rdf:RDF>
      <cc:Work
         rdf:about="">
        <dc:format>image/svg+xml</dc:format>
        <dc:type
           rdf:resource="http://purl.org/dc/dcmitype/StillImage" />
      </cc:Work>
    </rdf:RDF>
  </metadata>
  <g
     inkscape:label="Layer 1"
     inkscape:groupmode="layer"
     id="layer1"
     transform="translate(-85.730438,-307.64871)">
    <rect
       style="opacity:1;fill:#a2ff46;fill-opacity:1;stroke:#24ff00;stroke-width:0;stroke-linecap:round;stroke-linejoin:bevel;stroke-miterlimit:4;stroke-dasharray:none;stroke-opacity:1"
       id="rect7475"
       width="471.42856"
       height="471.42856"
       x="85.730438"
       y="307.64871" />
    <g
       id="g2401"
       transform="translate(0.8878127,-15.980629)">
      <path
         sodipodi:nodetypes="ccccccccc"
         id="path7994"
         d="M 238.64255,407.41776 C 201.2455,326.81138 311.05304,314.04484 318.94969,364.69408 C 361.14583,313.8425 472.55105,381.31582 410.41896,448.56832 C 480.61181,409.70943 541.51933,534.55217 464.75316,559.99204 C 501.65116,622.65321 419.50312,668.14373 376.27446,625.43121 C 392.27723,706.0368 255.65968,709.79699 239.22782,639.73369 C 178.33944,689.39628 128.59387,625.73299 156.19419,593.23209 C 109.3564,574.44703 117.40171,493.51376 174.07416,504.35231 C 95.960735,450.25768 164.00449,360.0052 238.64255,407.41776 z"
         style="fill:#0e9000;fill-opacity:1;fill-rule:evenodd;stroke:#000000;stroke-width:0;stroke-linecap:butt;stroke-linejoin:miter;stroke-miterlimit:4;stroke-dasharray:none;stroke-opacity:1" />
      <path
         sodipodi:nodetypes="cscsscccccszczccccccczczccccccczczcc"
         id="path7988"
         d="M 224.61088,767.37316 C 274.21423,741.90828 278.98789,761.51229 284.93857,679.02039 C 287.47626,643.84134 289.27581,629.48301 287.71197,621.31144 C 286.14814,613.13988 282.10873,612.04289 267.64166,602.49874 C 257.41931,595.75489 218.63664,578.00374 212.8951,584.67548 C 197.9462,602.04626 185.78227,609.83781 174.39061,617.07945 C 178.03048,604.11321 201.65433,598.12387 203.15206,577.53468 C 201.66895,581.39485 179.9762,570.84252 150.64997,558.70405 C 189.1636,566.71577 219.92566,575.86211 226.49424,574.15506 C 232.8759,564.97169 199.78244,540.11824 194.22057,518.66863 C 207.09507,534.25906 240.47036,573.20011 248.07978,576.35268 C 258.50236,580.67074 248.88516,578.76775 270.77074,583.33212 C 292.65632,587.89649 286.6149,582.76656 294.04932,583.51671 C 294.64633,567.05579 295.03991,570.72834 294.3067,553.58515 C 293.57349,536.44196 296.42234,514.39862 296.02621,487.32663 C 293.02951,467.79819 257.5956,465.51624 213.15629,453.59267 C 253.45425,453.71279 265.52783,458.58273 298.35006,465.09893 C 301.44073,422.05265 291.37833,394.76401 280.65436,343.87096 C 300.97753,394.73616 303.86284,400.01394 307.35663,416.26529 C 332.7725,400.16991 348.52632,394.09622 364.3441,387.59223 C 349.11107,406.56194 321.40454,408.74617 311.49501,435.79633 C 311.03123,466.87758 313.92409,482.61567 313.497,496.93644 C 313.06991,511.25721 311.43829,534.7489 314.89624,542.50175 C 323.68107,542.26428 344.61847,539.70363 358.58867,537.05751 C 372.77798,534.3699 396.92191,534.94267 406.75775,530.98154 C 408.60329,521.69353 423.46256,492.87636 430.91085,482.30679 C 430.10589,498.72022 419.08702,521.36802 417.13755,531.14233 C 428.50527,529.37507 451.60582,530.71496 481.75153,530.25911 C 433.06511,542.38337 405.98825,541.32951 396.80191,543.51018 C 399.15713,553.68117 414.07596,578.62825 419.19529,595.70031 C 405.93478,581.27686 387.15713,552.88398 384.39419,545.64563 C 376.30437,546.3976 368.28769,549.63436 349.79752,555.04444 C 331.30736,560.45451 331.64108,561.86161 316.05585,565.91681 C 313.78781,575.29889 315.11313,593.83641 314.71997,628.17188 C 314.32679,662.50866 324.16783,773.12061 358.67566,770.91217 L 224.61088,767.37316 z"
         style="fill:#6e2400;fill-opacity:1;fill-rule:evenodd;stroke:#000000;stroke-width:0;stroke-linecap:butt;stroke-linejoin:miter;stroke-miterlimit:4;stroke-dasharray:none;stroke-opacity:1" />
    </g>
    <path
       style="fill:#58ff00;fill-opacity:1;fill-rule:evenodd;stroke:#279500;stroke-width:0;stroke-linecap:butt;stroke-linejoin:miter;stroke-miterlimit:4;stroke-dasharray:none;stroke-opacity:1"
       d="M 381.75947,768.26211 C 374.8285,764.71086 378.7096,701.67616 383.5351,701.67616 C 393.39658,721.79991 399.99102,741.92367 400.40354,762.04742 C 397.79824,721.53304 403.4377,685.14104 410.16948,649.2952 C 422.49338,687.10831 433.98222,724.78224 432.3648,760.2718 C 433.77034,730.6039 439.55979,705.3199 452.78449,687.47115 C 459.50647,710.39364 466.47053,733.26771 461.66262,758.49617 C 464.46703,712.58011 478.25715,680.39618 490.07263,645.74395 C 494.44746,683.90705 501.38743,722.58318 494.51169,758.49617 C 499.09298,733.03405 505.08396,710.39132 516.70701,699.01272 C 524.05652,724.21681 524.74191,748.08809 520.25826,770.92555 L 381.75947,768.26211 z"
       id="path8002"
       sodipodi:nodetypes="cccccccccccc" />
    <path
       style="fill:#58ff00;fill-opacity:1;fill-rule:evenodd;stroke:#000000;stroke-width:0;stroke-linecap:butt;stroke-linejoin:miter;stroke-miterlimit:4;stroke-dasharray:none;stroke-opacity:1"
       d="M 109.20097,764.71086 C 101.38417,751.11813 106.62298,735.34948 112.75222,719.43241 C 126.44621,732.02318 136.59794,745.3224 138.49879,760.2718 C 135.07923,740.49666 141.77354,724.76706 150.04035,709.66647 C 160.2001,725.71312 168.96083,742.22611 165.13317,762.93523 C 168.31566,747.63983 171.36474,732.24437 183.77723,723.87147 C 192.87403,738.66835 191.67986,753.46523 189.10411,768.26211 L 109.20097,764.71086 z"
       id="path8012"
       sodipodi:nodetypes="cccccccc" />
  </g>
</svg>
