<?xml version="1.0" encoding="UTF-8" standalone="no"?>
<!-- Created with Inkscape (http://www.inkscape.org/) -->
<svg
   xmlns:dc="http://purl.org/dc/elements/1.1/"
   xmlns:cc="http://creativecommons.org/ns#"
   xmlns:rdf="http://www.w3.org/1999/02/22-rdf-syntax-ns#"
   xmlns:svg="http://www.w3.org/2000/svg"
   xmlns="http://www.w3.org/2000/svg"
   xmlns:sodipodi="http://sodipodi.sourceforge.net/DTD/sodipodi-0.dtd"
   xmlns:inkscape="http://www.inkscape.org/namespaces/inkscape"
   width="471.42856"
   height="471.42856"
   id="svg7145"
   sodipodi:version="0.32"
   inkscape:version="0.46"
   version="1.0"
   sodipodi:docname="woodland2.svg"
   inkscape:output_extension="org.inkscape.output.svg.inkscape">
  <defs
     id="defs7147">
    <inkscape:perspective
       sodipodi:type="inkscape:persp3d"
       inkscape:vp_x="0 : 526.18109 : 1"
       inkscape:vp_y="0 : 1000 : 0"
       inkscape:vp_z="744.09448 : 526.18109 : 1"
       inkscape:persp3d-origin="372.04724 : 350.78739 : 1"
       id="perspective7153" />
  </defs>
  <sodipodi:namedview
     id="base"
     pagecolor="#ffffff"
     bordercolor="#666666"
     borderopacity="1.0"
     gridtolerance="10000"
     guidetolerance="10"
     objecttolerance="10"
     inkscape:pageopacity="0.0"
     inkscape:pageshadow="2"
     inkscape:zoom="1.7075758"
     inkscape:cx="235.71428"
     inkscape:cy="231.61677"
     inkscape:document-units="px"
     inkscape:current-layer="layer1"
     showgrid="false"
     inkscape:window-width="1280"
     inkscape:window-height="1007"
     inkscape:window-x="0"
     inkscape:window-y="0" />
  <metadata
     id="metadata7150">
    <rdf:RDF>
      <cc:Work
         rdf:about="">
        <dc:format>image/svg+xml</dc:format>
        <dc:type
           rdf:resource="http://purl.org/dc/dcmitype/StillImage" />
      </cc:Work>
    </rdf:RDF>
  </metadata>
  <g
     inkscape:label="Layer 1"
     inkscape:groupmode="layer"
     id="layer1"
     transform="translate(-85.730438,-307.64871)">
    <rect
       style="opacity:1;fill:#a2ff46;fill-opacity:1;stroke:#24ff00;stroke-width:0;stroke-linecap:round;stroke-linejoin:bevel;stroke-miterlimit:4;stroke-dasharray:none;stroke-opacity:1"
       id="rect7475"
       width="471.42856"
       height="471.42856"
       x="85.730438"
       y="307.64871" />
    <path
       style="fill:#12b100;fill-opacity:1;fill-rule:evenodd;stroke:#000000;stroke-width:0;stroke-linecap:butt;stroke-linejoin:miter;stroke-miterlimit:4;stroke-dasharray:none;stroke-opacity:1"
       d="M 289.89416,379.139 C 281.62804,335.80259 316.10496,357.56148 333.93469,336.14757 C 338.16807,368.93408 375.25142,370.04857 359.07441,417.81726 C 388.30261,375.15138 407.05523,417.78989 448.84993,392.5403 C 434.68659,425.04677 458.25154,450.95503 433.56054,477.68085 C 475.45727,459.23967 484.67932,519.84107 504.03229,518.73826 C 467.12129,537.03051 496.88321,579.66745 435.77407,579.73457 C 463.42934,631.73674 407.24945,615.4597 412.8115,677.34196 C 366.87822,630.09732 369.69867,696.59782 306.88721,629.36185 C 246.09345,667.81479 224.68057,629.60908 193.91801,672.76345 C 209.42726,607.23101 160.67554,615.56254 182.2639,563.78207 C 118.0539,587.4086 139.76896,499.58393 112.11827,475.74993 C 154.27259,482.35641 169.4177,438.14665 226.49702,458.50478 C 188.45685,425.47426 213.09304,430.51209 184.14759,373.6706 C 235.15823,384.45808 256.08911,343.44204 289.89416,379.139 z"
       id="path7994"
       sodipodi:nodetypes="ccccccccccccccc" />
    <path
       style="fill:#844a00;fill-opacity:1;fill-rule:evenodd;stroke:#000000;stroke-width:0;stroke-linecap:butt;stroke-linejoin:miter;stroke-miterlimit:4;stroke-dasharray:none;stroke-opacity:1"
       d="M 385.83903,764.27629 C 336.23568,738.81141 331.46202,758.41542 325.51134,675.92352 C 322.97365,640.74447 321.1741,626.38614 322.73794,618.21457 C 324.30177,610.04301 328.34118,608.94602 342.80825,599.40187 C 353.0306,592.65802 388.75892,581.90976 397.55481,581.57861 C 400.02946,581.48544 413.82743,596.4839 426.68929,605.78382 C 422.79345,590.5138 407.61663,584.41645 407.29785,574.43781 C 409.95221,574.1986 414.07619,570.08815 443.40242,557.94968 C 404.88879,565.9614 390.52425,572.76524 383.95567,571.05819 C 377.57401,561.87482 391.34183,552.24763 396.9037,530.79802 C 384.0292,546.38845 369.97955,570.10324 362.37013,573.25581 C 351.94755,577.57387 347.64677,578.57037 339.67917,580.23525 C 331.8486,581.87149 333.20502,580.25532 316.40059,580.41984 C 315.80358,563.95892 315.41,567.63147 316.14321,550.48828 C 316.87642,533.34509 314.6132,529.45614 315.00933,502.38415 C 318.00603,482.85571 354.02556,478.81689 398.46487,466.89332 C 358.16691,467.01344 344.33645,476.56838 311.51422,483.08458 C 308.42355,440.0383 317.90033,398.69465 325.11055,368.29849 C 311.92876,394.77317 306.33294,401.03847 303.09328,413.16842 C 277.67741,397.07304 285.93424,399.78373 270.11646,393.27974 C 285.34949,412.24945 289.04537,405.6493 298.9549,432.69946 C 299.41868,463.78071 296.52582,479.5188 296.95291,493.83957 C 297.38,508.16034 299.01162,531.65203 295.55367,539.40488 C 286.76884,539.16741 265.83144,536.60676 251.86124,533.96064 C 237.67193,531.27303 213.528,531.8458 203.69216,527.88467 C 196.10416,518.59666 181.3526,505.59138 170.75468,500.87806 C 185.34932,520.26484 191.36448,518.35562 193.31236,528.04546 C 176.08838,530.9632 172.8991,532.30309 146.85277,540.046 C 197.88169,537.52962 204.46166,538.23264 213.648,540.41331 C 211.29278,550.5843 203.40145,567.91825 198.28212,584.99031 C 211.54263,570.56686 223.29278,549.78711 226.05572,542.54876 C 234.14554,543.30073 242.16222,546.53749 260.65239,551.94757 C 279.14255,557.35764 278.80883,558.76474 294.39406,562.81994 C 296.6621,572.20202 295.33678,590.73954 295.72994,625.07501 C 296.12312,659.41179 286.28208,770.02374 251.77425,767.8153 L 385.83903,764.27629 z"
       id="path7988"
       sodipodi:nodetypes="cscsscccccszczcccccccsczccccccczczcc" />
    <path
       style="fill:#58ff00;fill-opacity:1;fill-rule:evenodd;stroke:#279500;stroke-width:0;stroke-linecap:butt;stroke-linejoin:miter;stroke-miterlimit:4;stroke-dasharray:none;stroke-opacity:1"
       d="M 405.77012,765.33398 C 398.83915,761.78273 402.72025,698.74803 407.54575,698.74803 C 417.40723,718.87178 424.00167,738.99554 424.41419,759.11929 C 421.80889,718.60491 427.44835,682.21291 434.18013,646.36707 C 446.50403,684.18018 457.99287,721.85411 456.37545,757.34367 C 457.78099,727.67577 463.57044,702.39177 476.79514,684.54302 C 483.51712,707.46551 490.48118,730.33958 485.67327,755.56804 C 488.47768,709.65198 502.2678,677.46805 514.08328,642.81582 C 518.45811,680.97892 525.39808,719.65505 518.52234,755.56804 C 523.10363,730.10592 529.09461,707.46319 540.71766,696.08459 C 548.06717,721.28868 548.75256,745.15996 544.26891,767.99742 L 405.77012,765.33398 z"
       id="path8002"
       sodipodi:nodetypes="cccccccccccc" />
    <path
       style="fill:#58ff00;fill-opacity:1;fill-rule:evenodd;stroke:#000000;stroke-width:0;stroke-linecap:butt;stroke-linejoin:miter;stroke-miterlimit:4;stroke-dasharray:none;stroke-opacity:1"
       d="M 119.74223,756.5121 C 111.92543,742.91937 117.16424,727.15072 123.29348,711.23365 C 136.98747,723.82442 147.1392,737.12364 149.04005,752.07304 C 145.62049,732.2979 152.3148,716.5683 160.58161,701.46771 C 170.74136,717.51436 179.50209,734.02735 175.67443,754.73647 C 178.85692,739.44107 181.906,724.04561 194.31849,715.67271 C 203.41529,730.46959 202.22112,745.26647 199.64537,760.06335 L 119.74223,756.5121 z"
       id="path8012"
       sodipodi:nodetypes="cccccccc" />
  </g>
</svg>
