<?xml version="1.0" encoding="UTF-8" standalone="no"?>
<!-- Created with Inkscape (http://www.inkscape.org/) -->
<svg
   xmlns:dc="http://purl.org/dc/elements/1.1/"
   xmlns:cc="http://creativecommons.org/ns#"
   xmlns:rdf="http://www.w3.org/1999/02/22-rdf-syntax-ns#"
   xmlns:svg="http://www.w3.org/2000/svg"
   xmlns="http://www.w3.org/2000/svg"
   xmlns:sodipodi="http://sodipodi.sourceforge.net/DTD/sodipodi-0.dtd"
   xmlns:inkscape="http://www.inkscape.org/namespaces/inkscape"
   width="471.42856"
   height="471.42856"
   id="svg7145"
   sodipodi:version="0.32"
   inkscape:version="0.46"
   version="1.0"
   sodipodi:docname="woodland3.svg"
   inkscape:output_extension="org.inkscape.output.svg.inkscape">
  <defs
     id="defs7147">
    <inkscape:perspective
       sodipodi:type="inkscape:persp3d"
       inkscape:vp_x="0 : 526.18109 : 1"
       inkscape:vp_y="0 : 1000 : 0"
       inkscape:vp_z="744.09448 : 526.18109 : 1"
       inkscape:persp3d-origin="372.04724 : 350.78739 : 1"
       id="perspective7153" />
  </defs>
  <sodipodi:namedview
     id="base"
     pagecolor="#ffffff"
     bordercolor="#666666"
     borderopacity="1.0"
     gridtolerance="10000"
     guidetolerance="10"
     objecttolerance="10"
     inkscape:pageopacity="0.0"
     inkscape:pageshadow="2"
     inkscape:zoom="1.1306061"
     inkscape:cx="235.71428"
     inkscape:cy="236.59876"
     inkscape:document-units="px"
     inkscape:current-layer="layer1"
     showgrid="false"
     inkscape:window-width="1280"
     inkscape:window-height="735"
     inkscape:window-x="0"
     inkscape:window-y="24" />
  <metadata
     id="metadata7150">
    <rdf:RDF>
      <cc:Work
         rdf:about="">
        <dc:format>image/svg+xml</dc:format>
        <dc:type
           rdf:resource="http://purl.org/dc/dcmitype/StillImage" />
      </cc:Work>
    </rdf:RDF>
  </metadata>
  <g
     inkscape:label="Layer 1"
     inkscape:groupmode="layer"
     id="layer1"
     transform="translate(-85.730438,-307.64871)">
    <rect
       style="opacity:1;fill:#a2ff46;fill-opacity:1;stroke:#24ff00;stroke-width:0;stroke-linecap:round;stroke-linejoin:bevel;stroke-miterlimit:4;stroke-dasharray:none;stroke-opacity:1"
       id="rect7475"
       width="471.42856"
       height="471.42856"
       x="85.730438"
       y="307.64871" />
    <path
       style="fill:#4f1a04;fill-opacity:1;fill-rule:evenodd;stroke:none;stroke-width:1px;stroke-linecap:butt;stroke-linejoin:miter;stroke-opacity:1"
       d="M 311.23253,691.66524 C 310.02651,727.10547 268.09275,734.33964 252.08435,749.05654 C 274.07268,744.45858 287.07739,741.03284 314.74629,725.04589 C 308.38444,747.67449 292.92856,757.02003 297.76314,770.72469 C 304.32715,754.52793 329.57214,737.7776 342.27069,727.3884 C 359.74441,750.64894 374.79067,744.77984 390.87761,751.39904 C 379.31975,743.13648 339.54006,722.25595 339.92818,687.56587 L 311.23253,691.66524 z"
       id="path3309"
       sodipodi:nodetypes="cccccccc" />
    <path
       style="fill:#064f04;fill-opacity:1;fill-rule:evenodd;stroke:none;stroke-width:1px;stroke-linecap:butt;stroke-linejoin:miter;stroke-opacity:1"
       d="M 121.52282,643.65604 C 138.52159,673.10024 193.56479,685.70844 234.27199,666.14815 C 231.14081,679.06419 217.05828,689.63563 190.89577,708.46608 C 212.52666,720.38355 297.98672,727.21986 329.00685,689.62986 C 346.67887,724.88022 409.92728,723.64031 436.99131,713.10615 C 420.53462,702.91561 387.95328,691.25239 383.23855,672.79994 C 400.79725,700.19974 489.38979,677.06848 520.48214,643.0825 C 454.54937,642.30825 435.97415,621.55983 425.8767,599.48361 C 438.36877,599.41775 478.09543,591.6206 496.8912,556.36157 C 461.21138,561.17145 383.09024,497.62769 377.88837,469.55604 C 374.61279,480.29504 424.14797,486.61662 447.33937,462.67357 C 385.85725,453.56449 323.0412,353.55463 317.93701,314.07851 C 312.82986,358.18842 256.91134,440.90294 190.60245,453.55407 C 203.73183,473.28351 218.28153,478.94039 248.55522,478.98649 C 245.25631,512.10815 153.84021,560.83283 133.95061,557.22189 C 148.4046,577.84486 180.41569,607.23549 208.26461,595.34797 C 195.64647,628.36955 142.51023,645.34656 121.52282,643.65604 z"
       id="path3307"
       sodipodi:nodetypes="ccccccccccccccccc" />
    <path
       style="fill:#58ff00;fill-opacity:1;fill-rule:evenodd;stroke:#000000;stroke-width:0;stroke-linecap:butt;stroke-linejoin:miter;stroke-miterlimit:4;stroke-dasharray:none;stroke-opacity:1"
       d="M 109.12845,763.58795 C 101.31165,749.99522 106.55046,734.22657 112.67971,718.3095 C 126.3737,730.90027 136.52543,744.19949 138.42628,759.14889 C 135.00672,739.37375 141.70103,723.64415 149.96784,708.54356 C 160.12759,724.59021 168.88832,741.1032 165.06066,761.81232 C 168.24315,746.51692 171.29223,731.12146 183.70472,722.74856 C 192.80152,737.54544 191.60735,752.34232 189.0316,767.1392 L 109.12845,763.58795 z"
       id="path8012"
       sodipodi:nodetypes="cccccccc" />
    <path
       style="fill:#58ff00;fill-opacity:1;fill-rule:evenodd;stroke:#000000;stroke-width:0;stroke-linecap:butt;stroke-linejoin:miter;stroke-miterlimit:4;stroke-dasharray:none;stroke-opacity:1"
       d="M 458.04678,742.83214 C 450.22998,729.23941 455.46879,713.47076 461.59803,697.55369 C 475.29202,710.14446 485.44375,723.44368 487.3446,738.39308 C 483.92504,718.61794 490.61935,702.88834 498.88616,687.78775 C 509.04591,703.8344 517.80664,720.34739 513.97898,741.05651 C 517.16147,725.76111 520.21055,710.36565 532.62304,701.99275 C 541.71984,716.78963 540.52567,731.58651 537.94992,746.38339 L 458.04678,742.83214 z"
       id="path3311"
       sodipodi:nodetypes="cccccccc" />
  </g>
</svg>
