<?xml version="1.0" encoding="UTF-8" standalone="no"?>
<!-- Created with Inkscape (http://www.inkscape.org/) -->
<svg
   xmlns:dc="http://purl.org/dc/elements/1.1/"
   xmlns:cc="http://creativecommons.org/ns#"
   xmlns:rdf="http://www.w3.org/1999/02/22-rdf-syntax-ns#"
   xmlns:svg="http://www.w3.org/2000/svg"
   xmlns="http://www.w3.org/2000/svg"
   xmlns:sodipodi="http://sodipodi.sourceforge.net/DTD/sodipodi-0.dtd"
   xmlns:inkscape="http://www.inkscape.org/namespaces/inkscape"
   width="218.16919"
   height="305.08386"
   id="svg2"
   sodipodi:version="0.32"
   inkscape:version="0.46"
   sodipodi:docname="killed_fox.svg"
   inkscape:output_extension="org.inkscape.output.svg.inkscape"
   version="1.0">
  <defs
     id="defs4">
    <inkscape:perspective
       sodipodi:type="inkscape:persp3d"
       inkscape:vp_x="0 : 526.18109 : 1"
       inkscape:vp_y="0 : 1000 : 0"
       inkscape:vp_z="744.09448 : 526.18109 : 1"
       inkscape:persp3d-origin="372.04724 : 350.78739 : 1"
       id="perspective10" />
    <inkscape:perspective
       id="perspective2447"
       inkscape:persp3d-origin="372.04724 : 350.78739 : 1"
       inkscape:vp_z="744.09448 : 526.18109 : 1"
       inkscape:vp_y="0 : 1000 : 0"
       inkscape:vp_x="0 : 526.18109 : 1"
       sodipodi:type="inkscape:persp3d" />
  </defs>
  <sodipodi:namedview
     id="base"
     pagecolor="#ffffff"
     bordercolor="#666666"
     borderopacity="1.0"
     gridtolerance="10000"
     guidetolerance="10"
     objecttolerance="10"
     inkscape:pageopacity="0.0"
     inkscape:pageshadow="2"
     inkscape:zoom="1.7470606"
     inkscape:cx="-0.52809315"
     inkscape:cy="154.80537"
     inkscape:document-units="px"
     inkscape:current-layer="layer1"
     showgrid="false"
     inkscape:window-width="1280"
     inkscape:window-height="735"
     inkscape:window-x="0"
     inkscape:window-y="41" />
  <metadata
     id="metadata7">
    <rdf:RDF>
      <cc:Work
         rdf:about="">
        <dc:format>image/svg+xml</dc:format>
        <dc:type
           rdf:resource="http://purl.org/dc/dcmitype/StillImage" />
      </cc:Work>
    </rdf:RDF>
  </metadata>
  <g
     inkscape:label="Layer 1"
     inkscape:groupmode="layer"
     id="layer1"
     transform="translate(-250.28592,-336.13744)">
    <g
       id="g2506"
       transform="matrix(-1,0,0,1,718.74103,0)">
      <path
         sodipodi:nodetypes="czczcc"
         id="path2479"
         d="M 278.88585,442.26853 C 241.74262,490.15732 254.96809,524.33307 265.55857,553.32928 C 276.14904,582.32548 257.78627,588.35421 251.24407,593.31114 C 257.99243,618.86441 290.90191,608.33279 303.56601,598.24717 C 315.92579,588.40391 318.33672,552.12251 312.94448,531.61073 L 278.88585,442.26853 z"
         style="fill:#bc5100;fill-opacity:1;fill-rule:evenodd;stroke:#bc5100;stroke-width:1px;stroke-linecap:butt;stroke-linejoin:miter;stroke-opacity:1" />
      <path
         sodipodi:nodetypes="cczcccccc"
         id="path2481"
         d="M 314.42529,503.47534 L 324.79096,544.44441 C 321.27616,558.65534 311.91569,565.08355 313.43808,573.567 C 314.97346,582.12278 328.19461,609.37749 328.73978,620.95292 C 345.89513,629.70602 353.0286,625.57383 361.3176,622.92733 C 362.96966,607.88867 354.71463,609.3618 348.97752,606.63842 C 340.17622,593.31113 336.0668,577.51583 335.15662,564.18854 C 357.55186,539.02503 361.27356,529.66777 365.76003,517.29623 L 314.42529,503.47534 z"
         style="fill:#bc5100;fill-opacity:1;fill-rule:evenodd;stroke:#bc5100;stroke-width:1px;stroke-linecap:butt;stroke-linejoin:miter;stroke-opacity:1" />
      <path
         sodipodi:nodetypes="ccccccccccsccccczccccscczcc"
         id="path2483"
         d="M 270.9882,439.80052 C 259.71146,471.83643 277.78111,486.42646 279.87306,517.29623 C 281.06607,526.05715 283.04368,531.83663 277.89864,564.68215 C 279.23572,579.63398 280.78403,594.37457 280.86026,610.58725 L 278.39225,624.90175 C 283.25583,631.61414 292.96484,633.96566 310.97006,628.85057 C 309.36069,623.26772 312.81348,615.93094 305.04682,614.04247 C 296.9805,601.30458 300.55915,583.57599 301.098,567.15016 C 316.52736,547.05458 319.59266,535.73151 323.31015,514.33461 C 332.29414,516.51918 333.24925,523.35635 358.84958,519.76425 C 353.24977,534.41838 356.43034,558.2089 360.38198,578.16421 C 365.16476,602.3167 358.9499,619.59961 360.82399,638.22903 C 364.97077,640.42697 371.37863,643.09843 392.4146,636.25462 C 390.0889,631.74994 395.87024,629.94761 383.03614,621.94013 C 380.65258,610.54503 381.45569,597.55659 381.55533,584.91988 C 383.97163,564.02072 376.85031,536.44521 390.93379,523.71307 C 400.28971,525.91225 395.30132,576.94223 400.31226,594.79195 C 405.32319,612.64167 403.60419,632.1969 411.66514,637.73543 C 421.45137,638.12898 430.74126,641.96403 439.30691,636.25462 C 438.83185,631.97364 441.54049,623.46001 428.94125,618.97851 C 424.53078,610.85239 422.91101,597.14489 421.04359,583.93267 C 423.76468,566.58056 415.78082,531.23283 421.5372,524.20668 C 437.98724,504.12801 444.3216,465.3378 435.35809,445.72376 L 373.65768,407.7163 C 371.00166,415.849 371.57504,428.41253 363.27587,427.56011 C 354.97671,426.7077 333.85982,416.66915 307.51484,417.58837 C 273.53552,424.6656 274.6068,438.05209 270.9882,439.80052 z"
         style="fill:#ec6500;fill-opacity:1;fill-rule:evenodd;stroke:#ec6500;stroke-width:1px;stroke-linecap:butt;stroke-linejoin:miter;stroke-opacity:1" />
      <path
         sodipodi:nodetypes="ccccccccccc"
         id="path2485"
         d="M 398.83145,336.63744 C 407.56688,354.14181 405.06879,366.85172 407.2227,367.24084 C 421.58008,364.65841 422.18924,370.38317 432.23947,365.97641 C 437.06149,357.94086 450.21426,343.47639 453.12782,346.01588 C 459.7291,363.64863 456.81872,376.88776 451.15339,388.46578 C 454.61037,416.99095 454.68954,413.19634 451.15339,420.54999 C 453.92543,426.63776 464.61505,437.66157 463.49348,443.74934 C 442.13991,457.20695 438.40915,447.40502 433.38368,449.67259 C 413.92817,445.44684 386.94327,435.88182 387.47857,435.35809 C 377.71297,425.10774 368.60872,416.70443 365.98191,389.5173 C 371.87151,362.32288 374.65446,349.59431 398.83145,336.63744 z"
         style="fill:#ff6d00;fill-opacity:1;fill-rule:evenodd;stroke:#ff6d00;stroke-width:1px;stroke-linecap:butt;stroke-linejoin:miter;stroke-opacity:1" />
      <path
         transform="translate(26.160979,-0.49359)"
         d="M 430.42205,409.6907 A 14.808098,14.808098 0 1 1 400.80585,409.6907 A 14.808098,14.808098 0 1 1 430.42205,409.6907 z"
         sodipodi:ry="14.808098"
         sodipodi:rx="14.808098"
         sodipodi:cy="409.6907"
         sodipodi:cx="415.61395"
         id="path3298"
         style="opacity:1;fill:#ffffff;fill-opacity:1;stroke:#000000;stroke-width:2;stroke-linecap:round;stroke-linejoin:round;stroke-miterlimit:4;stroke-dasharray:none;stroke-opacity:1"
         sodipodi:type="arc" />
      <path
         transform="translate(-0.9872066,0)"
         d="M 430.42205,409.6907 A 14.808098,14.808098 0 1 1 400.80585,409.6907 A 14.808098,14.808098 0 1 1 430.42205,409.6907 z"
         sodipodi:ry="14.808098"
         sodipodi:rx="14.808098"
         sodipodi:cy="409.6907"
         sodipodi:cx="415.61395"
         id="path3294"
         style="opacity:1;fill:#ffffff;fill-opacity:1;stroke:#000000;stroke-width:2;stroke-linecap:round;stroke-linejoin:round;stroke-miterlimit:4;stroke-dasharray:none;stroke-opacity:1"
         sodipodi:type="arc" />
      <path
         d="M 422.52442,409.6907 A 7.6508508,7.4040489 0 1 1 407.22271,409.6907 A 7.6508508,7.4040489 0 1 1 422.52442,409.6907 z"
         sodipodi:ry="7.4040489"
         sodipodi:rx="7.6508508"
         sodipodi:cy="409.6907"
         sodipodi:cx="414.87357"
         id="path2487"
         style="opacity:1;fill:#000000;fill-opacity:1;stroke:#ff6c00;stroke-width:0;stroke-linecap:round;stroke-linejoin:round;stroke-miterlimit:4;stroke-dasharray:none;stroke-opacity:1"
         sodipodi:type="arc" />
      <path
         transform="translate(-2.9616197,-2.4680164)"
         d="M 452.63421,411.41833 A 7.1572475,7.1572475 0 1 1 438.31971,411.41833 A 7.1572475,7.1572475 0 1 1 452.63421,411.41833 z"
         sodipodi:ry="7.1572475"
         sodipodi:rx="7.1572475"
         sodipodi:cy="411.41833"
         sodipodi:cx="445.47696"
         id="path2489"
         style="opacity:1;fill:#000000;fill-opacity:1;stroke:#ff6c00;stroke-width:0;stroke-linecap:round;stroke-linejoin:round;stroke-miterlimit:4;stroke-dasharray:none;stroke-opacity:1"
         sodipodi:type="arc" />
      <path
         transform="matrix(1.2857143,0,0,1.3571429,-107.79148,-146.59051)"
         d="M 448.19179,433.87729 A 6.9104457,6.9104457 0 1 1 434.3709,433.87729 A 6.9104457,6.9104457 0 1 1 448.19179,433.87729 z"
         sodipodi:ry="6.9104457"
         sodipodi:rx="6.9104457"
         sodipodi:cy="433.87729"
         sodipodi:cx="441.28134"
         id="path2491"
         style="opacity:1;fill:#000000;fill-opacity:1;stroke:#ff6c00;stroke-width:0;stroke-linecap:round;stroke-linejoin:round;stroke-miterlimit:4;stroke-dasharray:none;stroke-opacity:1"
         sodipodi:type="arc" />
      <path
         id="path3266"
         d="M 265.53071,609.08422 C 258.3427,606.98615 253.55199,602.49337 251.19366,595.63877 L 250.28592,593.00042 L 255.44077,589.49157 C 263.53564,583.98146 266.62795,579.68259 267.66255,572.50107 C 268.41162,567.30161 267.53311,561.80602 264.54918,553.02506 C 263.21476,549.09814 262.17506,545.8331 262.23875,545.7694 C 262.30246,545.7057 264.98571,547.86356 268.20156,550.56463 C 271.4174,553.2657 274.24156,555.47566 274.47744,555.47566 C 274.71332,555.47566 275.79545,554.67239 276.88217,553.69062 C 278.01162,552.6702 278.85826,552.19447 278.85861,552.58001 C 278.85895,552.95095 278.49324,555.84276 278.04594,559.00625 C 277.26309,564.54273 277.27368,565.23563 278.32852,577.51637 C 279.39548,589.93834 280.36554,608.78246 279.96357,609.27842 C 279.49185,609.86042 267.64384,609.701 265.53071,609.08421 L 265.53071,609.08422 z"
         style="opacity:1;fill:#000000;fill-opacity:1;stroke:#ff6d00;stroke-width:0;stroke-linecap:round;stroke-linejoin:round;stroke-miterlimit:4;stroke-dasharray:none;stroke-opacity:1" />
      <path
         id="path3270"
         d="M 300.88866,598.73224 C 300.42144,595.32346 300.50476,588.60802 301.1529,577.43657 L 301.73448,567.41199 L 304.49696,563.61567 C 306.0163,561.52771 308.02579,558.61324 308.96249,557.13909 L 310.66559,554.45882 L 310.99491,556.15188 C 311.17601,557.08307 311.47045,558.67792 311.64918,559.69597 C 312.04759,561.96523 312.43758,562.01551 313.56369,559.94277 C 314.04304,559.06046 314.88547,557.78326 315.43573,557.10455 L 316.4362,555.87055 L 316.12643,562.04059 C 315.18561,580.77961 310.27341,594.54917 302.57314,600.03224 L 301.20081,601.00943 L 300.88866,598.73224 z"
         style="opacity:1;fill:#000000;fill-opacity:1;stroke:#ff6d00;stroke-width:0;stroke-linecap:round;stroke-linejoin:round;stroke-miterlimit:4;stroke-dasharray:none;stroke-opacity:1" />
      <path
         id="path3274"
         d="M 341.10778,626.3172 C 337.06678,625.40014 334.0789,624.36097 330.70575,622.69941 L 328.01033,621.3717 L 327.44162,617.91648 C 326.64596,613.08249 324.89427,607.5751 320.27478,595.38364 C 313.69156,578.00968 314.16288,579.9608 315.06962,573.83493 C 315.49937,570.93159 315.99727,566.71877 316.17609,564.47308 C 316.35492,562.22739 316.64882,560.29878 316.82924,560.18728 C 317.00964,560.07578 318.11506,563.85672 319.28572,568.58938 C 320.45637,573.32203 321.49935,577.19421 321.60345,577.19421 C 321.70755,577.19421 322.99778,574.8064 324.47061,571.88797 L 327.14848,566.58174 L 327.8615,568.30935 C 328.25368,569.25954 329.19585,571.64734 329.95523,573.61558 C 330.71461,575.58383 331.49351,577.19421 331.68614,577.19421 C 331.87877,577.19421 332.89875,575.30822 333.95277,573.00313 C 335.94217,568.65244 336.60958,567.91446 336.60958,570.06544 C 336.60958,572.31281 338.64588,581.25747 340.32993,586.40745 C 342.18122,592.06893 344.59047,597.50495 347.53566,602.66591 L 349.53663,606.17228 L 353.21199,607.32492 C 355.51798,608.04812 357.63063,609.1138 358.88232,610.1852 L 360.87731,611.89283 L 360.57113,616.63228 C 360.03529,624.92619 360.39487,624.26438 355.72845,625.54547 C 350.5735,626.96068 345.19434,627.2446 341.10778,626.3172 L 341.10778,626.3172 z"
         style="opacity:1;fill:#000000;fill-opacity:1;stroke:#ff6d00;stroke-width:0;stroke-linecap:round;stroke-linejoin:round;stroke-miterlimit:4;stroke-dasharray:none;stroke-opacity:1" />
      <path
         id="path3278"
         d="M 289.47047,631.9284 C 283.90375,631.12211 277.87079,627.20992 277.87079,624.40638 C 277.87079,623.80951 278.44682,620.10602 279.15085,616.17639 C 280.31528,609.67711 280.40728,608.22893 280.16943,600.14676 C 280.02561,595.26009 279.54389,587.04159 279.09892,581.88344 L 278.28989,572.50498 L 281.09563,568.30935 C 282.6388,566.00175 284.06806,564.05012 284.27176,563.97237 C 284.47547,563.89464 284.78732,564.89418 284.96477,566.19359 C 285.7453,571.90932 287.42617,580.6373 287.69509,580.37102 C 287.85709,580.2106 289.12512,577.15714 290.51291,573.58554 L 293.03614,567.09173 L 294.11668,571.77277 C 295.48314,577.69252 295.63092,578.18141 296.05382,578.18141 C 296.24454,578.18141 297.3666,576.61596 298.54727,574.70262 C 299.72794,572.78927 300.79529,571.32519 300.91918,571.44907 C 301.04306,571.57295 300.87301,576.41471 300.54129,582.20851 C 299.88156,593.7309 300.14657,597.73297 302.01917,604.52751 C 303.58072,610.19346 305.11704,612.94178 307.45836,614.25767 C 310.05269,615.71576 310.75791,617.43061 311.1641,623.26876 C 311.35003,625.94105 311.61127,628.41184 311.74465,628.75943 C 312.04012,629.52937 305.32256,631.24176 299.10868,631.98051 C 294.41356,632.53871 293.65552,632.5346 289.47047,631.92842 L 289.47047,631.9284 z"
         style="opacity:1;fill:#000000;fill-opacity:1;stroke:#ff6d00;stroke-width:0;stroke-linecap:round;stroke-linejoin:round;stroke-miterlimit:4;stroke-dasharray:none;stroke-opacity:1" />
      <path
         id="path3282"
         d="M 363.89047,640.36775 C 361.96094,639.73437 360.60609,638.9682 360.25477,638.31176 C 359.65685,637.19452 359.92107,625.61291 360.72572,617.66968 C 360.9595,615.36208 361.12648,607.08573 361.09684,599.27779 L 361.04295,585.08152 L 363.74767,590.51633 C 365.23526,593.50547 366.59424,595.95113 366.76762,595.95113 C 366.94101,595.95113 368.16633,593.47259 369.49057,590.44327 L 371.89827,584.93541 L 372.73451,589.33266 C 373.19446,591.75115 373.58406,594.22969 373.6003,594.84053 C 373.61971,595.57074 373.93468,595.95113 374.51989,595.95113 C 375.21448,595.95113 375.77633,594.81752 377.07813,590.78971 L 378.74632,585.62827 L 380.30341,588.21311 L 381.86051,590.79796 L 382.16913,602.136 C 382.33889,608.37193 382.73741,615.26837 383.05473,617.46142 C 383.62057,621.37188 383.6709,621.47369 385.6646,622.73968 C 386.78271,623.44968 388.66467,625.01916 389.84675,626.22743 C 391.81747,628.24183 392.02834,628.70534 392.38567,631.80844 C 392.6,633.66972 392.92023,635.54592 393.0973,635.97777 C 393.71541,637.48529 380.52658,640.77052 372.39582,641.13437 C 367.81584,641.33932 366.48488,641.21935 363.89048,640.36773 L 363.89047,640.36775 z"
         style="opacity:1;fill:#000000;fill-opacity:1;stroke:#ff6d00;stroke-width:0;stroke-linecap:round;stroke-linejoin:round;stroke-miterlimit:4;stroke-dasharray:none;stroke-opacity:1" />
      <path
         id="path3286"
         d="M 417.56052,639.17197 C 410.81583,638.36988 410.41626,638.21611 408.73807,635.77667 C 406.18539,632.06604 405.26141,628.56562 403.24198,614.95486 C 402.3961,609.25374 401.27407,602.60289 400.74857,600.17518 C 400.21963,597.73157 399.98874,595.63831 400.23134,595.48595 C 400.47235,595.33458 401.39251,593.48598 402.27612,591.37796 L 403.88267,587.54519 L 407.35218,593.54798 C 411.25376,600.29834 410.96802,600.3229 412.41395,593.11291 C 412.91755,590.60171 413.44861,588.54772 413.59405,588.54849 C 413.73951,588.54927 415.27682,590.8885 417.01033,593.74678 C 418.74383,596.60505 420.26129,598.84454 420.38243,598.7234 C 420.50355,598.60225 420.98108,596.09643 421.44356,593.15491 L 422.28446,587.80668 L 423.41977,594.96393 C 424.79678,603.64472 426.63235,611.45522 428.24088,615.47811 C 429.23755,617.97074 429.7132,618.56929 431.09422,619.06867 C 432.00575,619.39829 433.75784,620.43634 434.98779,621.37548 C 438.11616,623.76417 439.59742,627.08147 439.97072,632.53477 L 440.26181,636.78738 L 437.17902,638.21046 C 434.39626,639.49507 433.54378,639.6411 428.41979,639.71094 C 425.29775,639.7535 420.41108,639.51097 417.56052,639.17197 L 417.56052,639.17197 z"
         style="opacity:1;fill:#000000;fill-opacity:1;stroke:#ff6d00;stroke-width:0;stroke-linecap:round;stroke-linejoin:round;stroke-miterlimit:4;stroke-dasharray:none;stroke-opacity:1" />
      <path
         sodipodi:nodetypes="cccc"
         id="path3288"
         d="M 399.32505,336.63744 C 378.8699,342.13465 357.88603,372.57548 369.22973,407.57322 C 373.41745,404.80089 372.43487,400.72561 385.50416,398.83145 C 367.22948,372.47222 389.92545,342.20357 399.32505,336.63744 z"
         style="fill:#000000;fill-opacity:1;fill-rule:evenodd;stroke:#000000;stroke-width:1px;stroke-linecap:butt;stroke-linejoin:miter;stroke-opacity:1" />
      <path
         sodipodi:nodetypes="cccc"
         id="path3290"
         d="M 452.6342,344.53508 C 446.66983,348.69987 439.46895,351.69796 428.44765,367.24084 C 436.60032,369.12805 442.40575,374.39802 444.24295,380.07452 C 442.90569,367.38439 441.97055,352.48799 452.6342,344.53508 z"
         style="fill:#000000;fill-opacity:1;fill-rule:evenodd;stroke:#000000;stroke-width:1px;stroke-linecap:butt;stroke-linejoin:miter;stroke-opacity:1" />
      <path
         sodipodi:nodetypes="cccccccccc"
         id="path3292"
         d="M 390.44019,437.8261 C 380.5976,449.48597 380.36852,460.44945 383.52975,470.89752 C 390.96121,471.58307 393.65034,467.52629 397.35064,464.48068 C 394.63229,474.35275 394.83259,484.22481 401.29946,494.09688 C 408.91842,494.43065 411.04691,487.07777 412.15874,478.30157 C 410.11544,488.83177 412.45058,499.36198 415.61396,509.89218 C 425.2225,502.5209 425.23616,490.35219 424.49882,477.80797 C 426.52181,482.31778 428.32126,487.27467 432.89007,486.69283 C 433.66441,481.68943 439.59128,469.057 427.46044,448.68537 C 408.20533,447.54993 400.89452,441.38971 390.44019,437.8261 z"
         style="fill:#ffffff;fill-opacity:1;fill-rule:evenodd;stroke:#ffffff;stroke-width:1px;stroke-linecap:butt;stroke-linejoin:miter;stroke-opacity:1" />
      <path
         transform="matrix(1.1538462,0,0,0.8421052,-22.857637,97.993257)"
         d="M 424.49883,406.4823 A 3.2084212,4.6892309 0 1 1 418.08198,406.4823 A 3.2084212,4.6892309 0 1 1 424.49883,406.4823 z"
         sodipodi:ry="4.6892309"
         sodipodi:rx="3.2084212"
         sodipodi:cy="406.4823"
         sodipodi:cx="421.29041"
         id="path3350"
         style="opacity:1;fill:#ffffff;fill-opacity:1;stroke:#000000;stroke-width:0;stroke-linecap:round;stroke-linejoin:round;stroke-miterlimit:4;stroke-dasharray:none;stroke-opacity:1"
         sodipodi:type="arc" />
      <path
         transform="matrix(1.1538462,0,0,0.8421052,-67.528756,64.42824)"
         d="M 424.49883,406.4823 A 3.2084212,4.6892309 0 1 1 418.08198,406.4823 A 3.2084212,4.6892309 0 1 1 424.49883,406.4823 z"
         sodipodi:ry="4.6892309"
         sodipodi:rx="3.2084212"
         sodipodi:cy="406.4823"
         sodipodi:cx="421.29041"
         id="path3352"
         style="opacity:1;fill:#ffffff;fill-opacity:1;stroke:#000000;stroke-width:0;stroke-linecap:round;stroke-linejoin:round;stroke-miterlimit:4;stroke-dasharray:none;stroke-opacity:1"
         sodipodi:type="arc" />
      <path
         transform="matrix(1.1538462,0,0,0.8421052,-40.380575,63.441033)"
         d="M 424.49883,406.4823 A 3.2084212,4.6892309 0 1 1 418.08198,406.4823 A 3.2084212,4.6892309 0 1 1 424.49883,406.4823 z"
         sodipodi:ry="4.6892309"
         sodipodi:rx="3.2084212"
         sodipodi:cy="406.4823"
         sodipodi:cx="421.29041"
         id="path3354"
         style="opacity:1;fill:#ffffff;fill-opacity:1;stroke:#000000;stroke-width:0;stroke-linecap:round;stroke-linejoin:round;stroke-miterlimit:4;stroke-dasharray:none;stroke-opacity:1"
         sodipodi:type="arc" />
      <path
         sodipodi:nodetypes="cccc"
         transform="translate(250.28592,336.13744)"
         id="path4048"
         d="M 135.7409,62.477851 C 125.70639,46.188133 124.77807,25.221203 148.57459,1.271045 C 151.77758,11.55309 154.63396,21.74848 155.23823,31.380845 C 141.24773,36.440111 133.94459,46.236261 135.7409,62.477851 z"
         style="fill:#ffffff;fill-opacity:1;fill-rule:evenodd;stroke:#ffffff;stroke-width:1px;stroke-linecap:butt;stroke-linejoin:miter;stroke-opacity:1" />
      <path
         sodipodi:nodetypes="cccc"
         transform="translate(250.28592,336.13744)"
         id="path4559"
         d="M 195.2201,44.21453 C 192.37398,23.73183 196.24307,15.129909 201.88374,9.6623007 C 207.60544,25.730061 206.09355,39.244788 200.64973,51.371778 C 199.78997,49.461085 198.67201,47.421294 195.2201,44.21453 z"
         style="fill:#ffffff;fill-opacity:1;fill-rule:evenodd;stroke:#ffffff;stroke-width:1px;stroke-linecap:butt;stroke-linejoin:miter;stroke-opacity:1" />
    </g>
    <path
       style="fill:#ff0000;fill-opacity:1;stroke:#ff0000;stroke-width:16"
       d="M 8.5858499,8.5858473 L 204.34323,294.78084"
       id="path2406"
       transform="translate(250.28592,336.13744)" />
    <path
       style="fill:#ff0000;fill-opacity:1;stroke:#ff0000;stroke-width:16"
       d="M 453.34699,346.57784 L 258.43676,627.34656"
       id="path3178" />
  </g>
</svg>
