<?xml version="1.0" encoding="UTF-8" standalone="no"?>
<!-- Created with Inkscape (http://www.inkscape.org/) -->
<svg
   xmlns:dc="http://purl.org/dc/elements/1.1/"
   xmlns:cc="http://creativecommons.org/ns#"
   xmlns:rdf="http://www.w3.org/1999/02/22-rdf-syntax-ns#"
   xmlns:svg="http://www.w3.org/2000/svg"
   xmlns="http://www.w3.org/2000/svg"
   xmlns:sodipodi="http://sodipodi.sourceforge.net/DTD/sodipodi-0.dtd"
   xmlns:inkscape="http://www.inkscape.org/namespaces/inkscape"
   width="102.9732"
   height="123.18054"
   id="svg2"
   sodipodi:version="0.32"
   inkscape:version="0.46"
   sodipodi:docname="killed_fox.svg"
   inkscape:output_extension="org.inkscape.output.svg.inkscape"
   version="1.0">
  <defs
     id="defs4">
    <inkscape:perspective
       sodipodi:type="inkscape:persp3d"
       inkscape:vp_x="0 : 526.18109 : 1"
       inkscape:vp_y="0 : 1000 : 0"
       inkscape:vp_z="744.09448 : 526.18109 : 1"
       inkscape:persp3d-origin="372.04724 : 350.78739 : 1"
       id="perspective10" />
    <inkscape:perspective
       id="perspective2447"
       inkscape:persp3d-origin="372.04724 : 350.78739 : 1"
       inkscape:vp_z="744.09448 : 526.18109 : 1"
       inkscape:vp_y="0 : 1000 : 0"
       inkscape:vp_x="0 : 526.18109 : 1"
       sodipodi:type="inkscape:persp3d" />
  </defs>
  <sodipodi:namedview
     id="base"
     pagecolor="#ffffff"
     bordercolor="#666666"
     borderopacity="1.0"
     gridtolerance="10000"
     guidetolerance="10"
     objecttolerance="10"
     inkscape:pageopacity="0.0"
     inkscape:pageshadow="2"
     inkscape:zoom="6.9403925"
     inkscape:cx="53.683049"
     inkscape:cy="65.186704"
     inkscape:document-units="px"
     inkscape:current-layer="layer1"
     showgrid="false"
     inkscape:window-width="1280"
     inkscape:window-height="1007"
     inkscape:window-x="0"
     inkscape:window-y="0" />
  <metadata
     id="metadata7">
    <rdf:RDF>
      <cc:Work
         rdf:about="">
        <dc:format>image/svg+xml</dc:format>
        <dc:type
           rdf:resource="http://purl.org/dc/dcmitype/StillImage" />
      </cc:Work>
    </rdf:RDF>
  </metadata>
  <g
     inkscape:label="Layer 1"
     inkscape:groupmode="layer"
     id="layer1"
     transform="translate(-309.81448,-428.29223)">
    <path
       style="fill:#ff6d00;fill-opacity:1;fill-rule:evenodd;stroke:#ff6d00;stroke-width:1px;stroke-linecap:butt;stroke-linejoin:miter;stroke-opacity:1"
       d="M 379.43814,428.79223 C 370.70271,446.2966 373.2008,459.00651 371.04689,459.39563 C 356.68951,456.8132 354.61892,463.9201 347.18279,457.69895 C 339.74667,451.47779 328.05533,435.63118 325.14177,438.17067 C 318.54049,455.80342 321.45087,469.04255 327.1162,480.62057 C 321.36026,490.03563 325.87203,505.84038 326.25409,512.56109 C 326.63614,519.2818 313.65454,529.81636 314.77611,535.90413 C 336.12968,549.36174 354.78908,541.00384 357.67388,540.10316 C 365.79018,537.56913 386.46324,530.45727 390.79102,527.51288 C 395.18672,524.52227 413.19865,509.00695 411.56726,481.81617 C 409.93586,454.6254 403.61513,441.7491 379.43814,428.79223 z"
       id="path2485"
       sodipodi:nodetypes="cczcczcszzc" />
    <path
       sodipodi:type="arc"
       style="fill:#000000;fill-opacity:1;stroke:#ff6c00;stroke-width:0;stroke-linecap:round;stroke-linejoin:round;stroke-miterlimit:4;stroke-dasharray:none;stroke-opacity:1"
       id="path2491"
       sodipodi:cx="441.28134"
       sodipodi:cy="433.87729"
       sodipodi:rx="6.9104457"
       sodipodi:ry="6.9104457"
       d="M 448.19179,433.87729 A 6.9104457,6.9104457 0 1 1 434.3709,433.87729 A 6.9104457,6.9104457 0 1 1 448.19179,433.87729 z"
       transform="matrix(-1.2857143,0,0,1.3571429,886.06107,-54.435722)" />
    <path
       style="fill:#000000;fill-opacity:1;fill-rule:evenodd;stroke:#000000;stroke-width:1px;stroke-linecap:butt;stroke-linejoin:miter;stroke-opacity:1"
       d="M 379.08862,429.22448 C 398.49497,437.54553 417.78987,466.70239 407.7431,498.71942 C 403.55538,495.94709 405.83472,492.8804 392.76543,490.98624 C 411.04011,464.62701 388.48822,434.79061 379.08862,429.22448 z"
       id="path3288"
       sodipodi:nodetypes="cccc" />
    <path
       style="fill:#000000;fill-opacity:1;fill-rule:evenodd;stroke:#000000;stroke-width:1px;stroke-linecap:butt;stroke-linejoin:miter;stroke-opacity:1"
       d="M 326.06764,437.69846 C 331.84276,442.33335 335.60022,446.25842 346.50801,460.11605 C 338.35534,462.00326 335.86384,466.55281 334.02664,472.22931 C 335.3639,459.53918 336.73129,445.65137 326.06764,437.69846 z"
       id="path3290"
       sodipodi:nodetypes="cccc" />
    <path
       sodipodi:type="arc"
       style="fill:#ffffff;fill-opacity:1;stroke:#000000;stroke-width:0;stroke-linecap:round;stroke-linejoin:round;stroke-miterlimit:4;stroke-dasharray:none;stroke-opacity:1"
       id="path3350"
       sodipodi:cx="421.29041"
       sodipodi:cy="406.4823"
       sodipodi:rx="3.2084212"
       sodipodi:ry="4.6892309"
       d="M 424.49883,406.4823 A 3.2084212,4.6892309 0 1 1 418.08198,406.4823 A 3.2084212,4.6892309 0 1 1 424.49883,406.4823 z"
       transform="matrix(-1.1538462,0,0,0.8421052,801.12723,190.14804)" />
    <path
       style="fill:#ffffff;fill-opacity:1;fill-rule:evenodd;stroke:#ffffff;stroke-width:1px;stroke-linecap:butt;stroke-linejoin:miter;stroke-opacity:1"
       d="M 392.24277,490.77008 C 402.27728,474.48036 403.2056,453.51343 379.40908,429.56328 C 376.20609,439.84532 373.34971,450.04071 372.74544,459.67308 C 386.73594,464.73234 394.03908,474.52849 392.24277,490.77008 z"
       id="path4048"
       sodipodi:nodetypes="cccc" />
    <path
       style="fill:#ffffff;fill-opacity:1;fill-rule:evenodd;stroke:#ffffff;stroke-width:1px;stroke-linecap:butt;stroke-linejoin:miter;stroke-opacity:1"
       d="M 332.76357,472.50676 C 335.60969,452.02406 331.7406,443.42214 326.09993,437.95453 C 320.37823,454.02229 321.89012,467.53702 327.33394,479.66401 C 328.1937,477.75331 329.31166,475.71352 332.76357,472.50676 z"
       id="path4559"
       sodipodi:nodetypes="cccc" />
    <g
       id="g3211"
       transform="translate(25.044198,0.7589151)" />
    <g
       id="g3215"
       transform="matrix(1.2,0,0,1.2,-63.741626,-104.49001)"
       inkscape:transform-center-x="29.597688"
       inkscape:transform-center-y="-7.7409326">
      <g
         id="g3223">
        <path
           style="fill:none;fill-rule:evenodd;stroke:#000000;stroke-width:3;stroke-linecap:round;stroke-linejoin:miter;stroke-miterlimit:4;stroke-dasharray:none;stroke-opacity:1"
           d="M 327.33442,494.26484 L 343.36051,513.45199"
           id="path3217" />
        <path
           style="fill:none;fill-rule:evenodd;stroke:#000000;stroke-width:3;stroke-linecap:round;stroke-linejoin:miter;stroke-miterlimit:4;stroke-dasharray:none;stroke-opacity:1"
           d="M 343.36051,494.26484 L 327.33442,513.45199"
           id="path3219" />
      </g>
    </g>
    <path
       style="fill:#ff0000;fill-opacity:1;fill-rule:evenodd;stroke:#ff0000;stroke-width:1px;stroke-linecap:butt;stroke-linejoin:miter;stroke-opacity:1"
       d="M 355.46383,536.8826 C 357.40682,535.10969 363.68671,530.1615 368.50343,530.90311 C 369.80369,527.32123 375.97002,524.81055 379.95812,526.22038 C 405.03182,529.68057 404.8367,547.37345 390.18808,550.57058 C 375.4019,553.79773 384.3088,536.53349 355.46383,536.8826 z"
       id="path3221"
       sodipodi:nodetypes="ccczc" />
    <g
       id="g3227"
       transform="matrix(1.2,0,0,1.2,-36.863781,-100.28867)"
       inkscape:transform-center-x="29.597688"
       inkscape:transform-center-y="-7.7409326">
      <g
         id="g3229">
        <path
           style="fill:none;fill-rule:evenodd;stroke:#000000;stroke-width:3;stroke-linecap:round;stroke-linejoin:miter;stroke-miterlimit:4;stroke-dasharray:none;stroke-opacity:1"
           d="M 327.33442,494.26484 L 343.36051,513.45199"
           id="path3231" />
        <path
           style="fill:none;fill-rule:evenodd;stroke:#000000;stroke-width:3;stroke-linecap:round;stroke-linejoin:miter;stroke-miterlimit:4;stroke-dasharray:none;stroke-opacity:1"
           d="M 343.36051,494.26484 L 327.33442,513.45199"
           id="path3233" />
      </g>
    </g>
    <path
       sodipodi:type="arc"
       style="opacity:1;fill:#fffcfc;fill-opacity:1;stroke:#ffffff;stroke-width:3;stroke-linecap:round;stroke-linejoin:bevel;stroke-miterlimit:4;stroke-dasharray:none;stroke-opacity:1"
       id="path3235"
       sodipodi:cx="160.79782"
       sodipodi:cy="196.73264"
       sodipodi:rx="5.4751945"
       sodipodi:ry="4.7547741"
       d="M 166.27302,196.73264 A 5.4751945,4.7547741 0 1 1 155.32263,196.73264 A 5.4751945,4.7547741 0 1 1 166.27302,196.73264 z"
       transform="matrix(0.5625842,0.4343074,-0.2316066,0.3000138,342.84437,409.41505)"
       inkscape:transform-center-y="-1.8730929" />
  </g>
</svg>
