<?xml version="1.0" encoding="UTF-8" standalone="no"?>
<!-- Created with Inkscape (http://www.inkscape.org/) -->
<svg
   xmlns:dc="http://purl.org/dc/elements/1.1/"
   xmlns:cc="http://creativecommons.org/ns#"
   xmlns:rdf="http://www.w3.org/1999/02/22-rdf-syntax-ns#"
   xmlns:svg="http://www.w3.org/2000/svg"
   xmlns="http://www.w3.org/2000/svg"
   xmlns:xlink="http://www.w3.org/1999/xlink"
   xmlns:sodipodi="http://sodipodi.sourceforge.net/DTD/sodipodi-0.dtd"
   xmlns:inkscape="http://www.inkscape.org/namespaces/inkscape"
   width="525"
   height="525"
   id="svg2"
   sodipodi:version="0.32"
   inkscape:version="0.46"
   version="1.0"
   sodipodi:docname="wood.svg"
   inkscape:output_extension="org.inkscape.output.svg.inkscape">
  <defs
     id="defs4">
    <pattern
       inkscape:collect="always"
       xlink:href="#pattern5192"
       id="pattern5268"
       patternTransform="matrix(1.3427513,0,0,1.3427513,227.41925,714.30753)" />
    <pattern
       inkscape:collect="always"
       xlink:href="#pattern5192"
       id="pattern5200"
       patternTransform="matrix(1.3427513,0,0,1.3427513,366.29868,684.76307)" />
    <pattern
       patternUnits="userSpaceOnUse"
       width="500.08975"
       height="87.274861"
       patternTransform="translate(152.04978,499.83903)"
       id="pattern4743">
      <g
         transform="translate(-109.99974,-268.85606)"
         id="g2453">
        <path
           id="path2469"
           d="M 110,312.36218 L 110,268.86218 L 360,268.86218 L 610,268.86218 L 610,312.36218 L 610,355.86218 L 360,355.86218 L 110,355.86218 L 110,312.36218 z"
           style="fill:#ebc643" />
        <path
           id="path2467"
           d="M 110,317.60354 C 110,284.00358 110.19498,279.00134 111.52456,278.49113 C 113.1081,277.88347 112.6942,273.40111 110.87089,271.41218 C 110.3919,270.88968 110,270.09236 110,269.64036 C 110,268.77456 188.56453,269.2064 195.58176,270.11077 C 197.82672,270.40009 201.03272,271.34486 202.7062,272.21025 C 204.37968,273.07564 208.61789,274.25147 212.12444,274.82321 C 215.631,275.39494 220.70902,276.5376 223.40893,277.36245 C 226.10884,278.1873 230.83384,278.83858 233.90893,278.80973 C 239.28357,278.75931 239.4129,278.69652 237.25,277.18776 C 236.0125,276.32452 235,275.04691 235,274.34862 C 235,272.80233 232.68119,272.20099 223.22781,271.29576 C 219.2281,270.91275 215.71405,270.20851 215.41879,269.73078 C 215.11574,269.24043 300.91331,268.86218 412.44098,268.86218 C 593.88756,268.86218 622.56613,269.21711 605.75,271.25457 C 594.85238,272.57494 583.42487,272.61822 571.5,271.38429 C 562.89714,270.4941 550.88956,270.19162 536,270.49 C 510.24834,271.00606 501.92,271.77964 504.0869,273.45422 C 505.27413,274.37171 518.94928,277.92129 536.66451,281.91021 C 541.2396,282.94037 561.03647,285.5919 564.98231,285.70299 C 566.34759,285.74143 568.37259,286.25189 569.48231,286.83735 C 571.36194,287.82898 574.72684,288.8376 598.5,295.5353 C 603.45,296.92989 608.0625,298.52904 608.75,299.08899 C 610.53602,300.54364 610.53602,337.17475 608.75,338.64929 C 608.0625,339.21689 604.35,340.64853 600.5,341.8307 C 596.65,343.01288 590.76828,344.85358 587.4295,345.92115 C 584.09073,346.98872 580.58847,347.86218 579.64671,347.86218 C 578.70494,347.86218 573.28918,349.68423 567.61168,351.91119 L 557.28896,355.9602 L 501.39448,355.66119 C 456.13736,355.41908 445.03822,355.09962 443.07356,353.98257 L 440.64713,352.60296 L 443.13461,351.29964 C 444.50273,350.58281 448.51962,349.55724 452.06105,349.0206 C 458.58664,348.03176 464.0477,346.35905 474,342.30075 C 477.025,341.06723 481.075,339.76018 483,339.39619 C 484.925,339.03221 487.85,338.12605 489.5,337.38252 C 494.77917,335.00359 513.51702,330.86218 519.00132,330.86218 C 521.25526,330.86218 521.28293,330.78955 519.52007,329.50051 C 514.47437,325.81101 518.39949,322.12315 528.36227,321.19281 C 532.01302,320.8519 535,320.28817 535,319.94008 C 535,317.94924 531.58166,315.00628 528.62494,314.4516 C 526.74176,314.09831 524.65065,313.14616 523.97804,312.33572 C 523.30543,311.52527 522.24771,310.85941 521.62756,310.85602 C 521.0074,310.85263 519.1869,310.16509 517.58199,309.32816 C 514.33047,307.63254 503.97326,305.9123 496.83333,305.88199 C 494.26667,305.87109 492.00351,305.3727 491.80409,304.77446 C 491.60468,304.17621 490.10468,303.86379 488.47076,304.08019 L 485.5,304.47364 L 488.5,305.29637 C 496.40028,307.46296 501,312.80641 501,319.81752 C 501,322.24204 500.2283,323.32424 497.08406,325.30912 C 494.93029,326.66873 492.87873,328.24937 492.52504,328.82166 C 492.17135,329.39395 490.98558,329.86218 489.88999,329.86218 C 488.79441,329.86218 483.59337,331.69433 478.33213,333.93363 C 473.07089,336.17293 466.33205,338.40125 463.35694,338.88546 C 460.38183,339.36968 455.82193,340.88313 453.22383,342.24869 C 450.62572,343.61426 446.18291,345.19644 443.35092,345.76466 C 440.51893,346.33288 433.59026,348.63503 427.95389,350.88055 C 422.31752,353.12607 417.11152,354.73522 416.385,354.45642 C 415.65848,354.17763 414.79382,354.38677 414.46354,354.92117 C 413.77246,356.03936 305.68146,356.00179 294.5,354.87947 C 287.86599,354.2136 287.76852,354.16864 292.63569,354.01952 C 295.46032,353.93298 299.06032,353.18298 300.63569,352.35285 C 302.21106,351.52272 305.179,350.56657 307.23112,350.22806 C 309.28324,349.88956 311.46045,349.0123 312.06937,348.27859 C 313.88145,346.09518 308.56796,345.40288 300.57946,346.78156 C 286.42808,349.22386 285.12787,349.54838 282.44129,351.30869 C 276.0606,355.48948 269.58374,355.87104 208.00037,355.69407 C 175.82517,355.60161 152.2,355.22726 155.5,354.86218 L 161.5,354.1984 L 156.19098,354.03029 C 149.22538,353.80973 150.32248,351.86218 157.41233,351.86218 C 165.37235,351.86218 175,350.68938 175,349.71972 C 175,349.24808 174.235,348.86218 173.3,348.86218 C 169.43184,348.86218 173.96883,347.08731 181,345.84994 C 185.53947,345.05107 189.20617,343.80614 190.28895,342.69612 C 191.27288,341.68745 193.34969,340.86218 194.9041,340.86218 C 196.4585,340.86218 198.93252,339.9165 200.40191,338.76067 C 202.65917,336.98512 211.20123,335.07422 217.68261,334.8949 C 218.33305,334.8769 219.116,334.07468 219.42251,333.11218 C 219.94122,331.48333 226.54451,329.56972 239.75,327.22133 C 243.33609,326.5836 243.94275,325.44163 241.25,324.39775 C 239.61911,323.76551 239.63211,323.62211 241.44113,322.29076 C 242.50875,321.50504 245.166,320.86218 247.34612,320.86218 C 251.24663,320.86218 251.28105,320.83022 249.5,318.86218 C 248.11209,317.32856 248.01765,316.85476 249.09501,316.83038 C 252.0425,316.76366 246.66492,313.93448 242.36497,313.28966 C 239.9413,312.92621 238,312.08986 238,311.40915 C 238,310.12887 233.88448,307.86218 231.55994,307.86218 C 230.81966,307.86218 229.98243,307.25878 229.69943,306.52129 C 229.15468,305.10168 210.57674,302.3304 206.11097,303.00259 C 203.93576,303.33 204.22405,303.76191 209.33214,307.8285 C 214.18392,311.69104 215.0303,312.88146 215.59308,316.63428 C 216.57825,323.20392 215.58627,324.02492 194.90316,333.75787 C 191.27489,335.46524 186.95442,336.86218 185.3021,336.86218 C 183.64978,336.86218 180.30548,337.92155 177.87032,339.21634 C 175.43517,340.51112 170.6763,342.05779 167.29506,342.65339 C 163.91383,343.24898 159.42671,344.84085 157.32368,346.19088 C 155.22066,347.54091 151.18936,348.92785 148.36524,349.27298 C 145.54112,349.61811 141.80017,350.61403 140.05201,351.48612 C 136.81928,353.09882 128.90699,354.47527 116.75,355.53983 L 110,356.13092 L 110,317.60354 z M 344.85362,338.31591 C 349.60913,336.91547 355.525,335.14889 358,334.39017 C 360.475,333.63147 364.61767,332.72769 367.20594,332.38178 C 369.79421,332.03587 373.16921,331.12843 374.70594,330.36526 C 376.24267,329.60208 381.53127,328.18793 386.45839,327.22271 C 396.25884,325.30279 395.8788,324.80355 383.5,323.33646 C 378.37902,322.72954 377.85588,322.49121 379.92919,321.70971 C 381.26524,321.2061 384.97948,320.5201 388.18307,320.18526 C 392.75918,319.70696 393.78023,319.3023 392.94631,318.29749 C 392.36252,317.59406 389.99827,316.70644 387.69243,316.325 C 381.92622,315.37113 381.3708,314.84539 384.01904,312.84782 L 386.31014,311.11964 L 382.82974,309.971 C 380.91552,309.33925 375.37368,308.17879 370.51454,307.3922 C 365.6554,306.6056 361.38266,305.48134 361.01956,304.89383 C 359.49521,302.42738 339,299.44447 339,301.68907 C 339,303.50247 342.5806,304.86218 347.35596,304.86218 C 351.75765,304.86218 351.92133,304.98146 355.9217,311.10384 C 358.16476,314.53675 360,317.98324 360,318.7627 C 360,321.5075 350.40772,329.66147 345.35026,331.2158 C 342.68262,332.03566 338.71735,333.64149 336.53856,334.78431 C 334.35977,335.92714 331.79882,336.86218 330.84758,336.86218 C 329.89633,336.86218 328.82043,337.34372 328.45669,337.93226 C 328.09295,338.5208 326.82889,339.39228 325.64767,339.86887 C 324.0875,340.49836 325.23805,340.75275 329.85362,340.79879 C 333.8977,340.83914 339.35018,339.93662 344.85362,338.31591 z M 198.43524,298.96697 C 199.15391,297.80412 196.63011,296.86218 192.79577,296.86218 C 190.20634,296.86218 189.93985,297.08478 191,298.36218 C 192.35296,299.99239 197.5407,300.41437 198.43524,298.96697 z M 473.43296,298.97065 C 473.73601,298.48031 472.41257,297.89567 470.49198,297.67145 C 466.45104,297.19969 466.07197,297.55361 469.25,298.83102 C 472.20186,300.01752 472.77415,300.03662 473.43296,298.97065 z M 180.1875,295.17907 C 179.46563,294.8902 178.60313,294.92572 178.27083,295.25801 C 177.93854,295.59031 178.52917,295.82665 179.58333,295.78323 C 180.74828,295.73525 180.98523,295.49829 180.1875,295.17907 z M 304,291.16301 C 302.075,290.3182 298.7,289.41994 296.5,289.16687 L 292.5,288.70675 L 295,290.76223 C 296.81527,292.25473 298.86945,292.80146 302.5,292.75837 L 307.5,292.69903 L 304,291.16301 z M 285.5,287.86218 C 285.87202,287.26024 284.55205,286.86218 282.18402,286.86218 C 280.02031,286.86218 276.73125,286.57254 274.875,286.21854 C 273.01875,285.86454 271.85641,285.95845 272.29203,286.42724 C 272.9479,287.13305 277.29877,288.01144 283.69098,288.72857 C 284.34602,288.80205 285.16008,288.41218 285.5,287.86218 z M 388.4297,278.96578 C 392.02557,277.55732 380.98975,274.8581 371.8121,274.90132 L 363.5,274.94046 L 367,276.5522 C 372.78867,279.21787 384.43674,280.52976 388.4297,278.96578 z M 492.73097,270.16919 C 491.758,269.91565 490.408,269.93232 489.73097,270.20624 C 489.05394,270.48017 489.85,270.68761 491.5,270.66723 C 493.15,270.64685 493.70394,270.42273 492.73097,270.16919 z"
           style="fill:#e5c03e" />
        <path
           id="path2465"
           d="M 110,317.36218 C 110,296.18718 110.3375,278.91547 110.75,278.9806 C 113.46226,279.40885 113.81015,278.75727 112.81542,275.11218 C 112.25258,273.04968 111.32523,270.78942 110.75466,270.08937 C 109.91717,269.06185 117.30822,268.88591 149.10863,269.17641 C 187.87824,269.53058 196.06184,270.13632 203,273.16541 C 209.97408,276.21018 233.07161,280.73275 257.5,283.8367 C 260.8,284.25601 265.83318,285.5453 268.68485,286.7018 C 271.58948,287.87977 277.52657,289.09761 282.18485,289.47096 C 286.75818,289.8375 291.85,290.84248 293.5,291.70424 C 295.15,292.56601 299.65,293.62052 303.5,294.04761 C 315.18962,295.34434 320.08622,296.50788 330,300.34456 C 335.225,302.36666 341.975,304.82551 345,305.80866 C 349.21639,307.17903 351.25849,308.57893 353.75,311.80694 C 357.48072,316.64049 357.8307,319.59341 355.02922,322.60044 C 351.99502,325.85727 346.81897,329.47252 343.5,330.65309 C 341.85,331.24 336.13048,333.54395 330.78995,335.77298 C 325.44942,338.00202 319.14942,340.11076 316.78995,340.45909 C 314.43048,340.80742 310.25,342.12692 307.5,343.39132 C 304.75,344.65573 298.45919,346.41379 293.52043,347.29814 C 288.58166,348.18248 282.72083,349.7871 280.49635,350.86395 C 270.22509,355.83618 270.0486,355.84877 212.5,355.71517 C 182.8,355.64623 159.625,355.38298 161,355.13018 C 162.375,354.87738 163.99182,354.26722 164.59294,353.77426 C 165.19406,353.28131 170.25656,352.34172 175.84294,351.68629 C 185.89168,350.5073 188.07399,349.6378 183.79367,348.51848 C 180.56488,347.67413 181.76097,347.0985 189.22026,345.90687 C 193.50977,345.22162 198.48611,343.44696 203.19145,340.92449 C 208.72182,337.95974 212.54604,336.71196 218.90947,335.79597 C 224.2279,335.03041 228.47883,333.79835 230.4745,332.44405 C 232.21005,331.26627 236.75079,329.72769 240.56503,329.02498 C 253.48501,326.6447 253.06114,326.86524 248.5,324.89641 C 243.94587,322.93061 244.57974,322.50471 253.80286,321.33341 C 258.65127,320.71768 258.95121,320.5347 257.30286,319.19825 C 256.00079,318.14257 255.84722,317.59195 256.75,317.21603 C 258.966,316.29326 258.08495,315.03819 254.75,314.36698 C 248.99931,313.20956 248,312.75474 248,311.29479 C 248,310.50686 247.42015,309.86218 246.71144,309.86218 C 246.00273,309.86218 243.64023,308.91774 241.46144,307.76343 C 236.95287,305.3748 227.94717,303.40123 217,302.40276 C 207.93163,301.57565 205.97007,301.07346 206.27031,299.65576 C 206.6497,297.86439 186.63904,293.82541 177.73144,293.89545 L 173.5,293.92872 L 175.71274,295.77557 C 176.92975,296.79134 180.3921,297.93061 183.40686,298.30728 C 186.42162,298.68395 192.62589,300.5334 197.19412,302.41717 C 211.44896,308.29535 217.99482,317.8189 211.75,323.59449 C 208.55575,326.54872 190.65892,334.74448 184.59827,336.02849 C 181.79422,336.62255 177.87892,337.92841 175.8976,338.93041 C 173.91627,339.93241 169.33625,341.26751 165.71977,341.89729 C 161.80361,342.57926 157.82331,344.01698 155.87789,345.45227 C 154.055,346.79715 151.21971,347.86218 149.46227,347.86218 C 147.73023,347.86218 143.65515,348.78874 140.40655,349.9212 C 133.17621,352.4417 117.66909,355.82521 113.25,355.84651 L 110,355.86218 L 110,317.36218 z M 141,286.10273 C 141,284.23629 136.26614,282.77381 126.94095,281.75934 C 117.84771,280.7701 114.74599,280.9415 116.1596,282.35512 C 117.03241,283.22792 132.73514,286.19722 139.25,286.72138 C 140.2125,286.79882 141,286.52043 141,286.10273 z M 305.5,354.84389 C 300.55126,354.31149 300.2096,354.16894 303.55,354.03029 C 305.7775,353.93783 308.11261,353.34957 308.73913,352.72305 C 309.36566,352.09652 312.02032,351.04002 314.63839,350.37527 C 320.29757,348.93835 321.04677,347.67069 317.2759,345.91262 C 314.67717,344.70104 314.62765,344.56687 316.5,343.81059 C 317.6,343.36628 320.82994,342.97112 323.67764,342.93247 C 329.66306,342.85122 343.12079,341.13579 347.5,339.89589 C 349.15,339.42871 352.975,338.32788 356,337.44958 C 359.025,336.57128 364.3381,335.4257 367.80688,334.90383 C 371.27567,334.38197 375.55067,333.07652 377.30688,332.00284 C 379.0631,330.92915 385.1125,329.01776 390.75,327.7553 C 396.3875,326.49284 401,325.1584 401,324.78988 C 401,324.42136 398.6375,323.775 395.75,323.35354 C 390.84895,322.63817 390.7052,322.54051 393.58729,321.88428 C 398.1199,320.85225 399,320.05091 399,316.95598 C 399,315.03769 399.70198,313.8451 401.25,313.13344 C 403.32712,312.17855 403.19267,312.05134 399.5,311.47774 C 397.3,311.136 392.575,310.20479 389,309.40838 C 385.425,308.61196 379.03203,307.42967 374.7934,306.78107 C 370.36531,306.10347 367.17469,305.14183 367.2934,304.5206 C 367.51918,303.33903 364.85952,302.61009 352,300.3291 C 325.6661,295.65806 322.52844,294.93776 321.32085,293.2863 C 320.49855,292.16172 317.4205,291.17527 312.28679,290.39105 C 297.98671,288.20658 279.55636,284.7502 274.33315,283.27334 C 271.49138,282.46982 265.52555,281.53165 261.07576,281.1885 C 254.80126,280.70465 252.26988,280.03684 249.79833,278.21339 C 248.04554,276.92023 246.22418,275.86218 245.75086,275.86218 C 245.27753,275.86218 242.86228,274.93832 240.38361,273.80916 C 237.61113,272.54615 232.5336,271.49543 227.18848,271.07862 L 218.5,270.4011 L 224.5,269.74017 C 227.8,269.37666 298.45,269.1056 381.5,269.13781 C 464.55,269.17003 526.875,269.5137 520,269.90153 C 513.125,270.28936 502.775,270.45637 497,270.27265 C 491.225,270.08894 487.4,270.17085 488.5,270.45468 C 489.6,270.73852 495,272.25952 500.5,273.8347 C 516.40254,278.38912 540.47466,283.63392 553.5,285.38227 C 566.1439,287.07941 569.76759,287.92799 587.5,293.34425 C 593.55,295.19218 601.09737,297.43013 604.27194,298.31747 L 610.04388,299.93081 L 609.77194,318.63394 L 609.5,337.33707 L 606.51775,338.76551 C 603.71461,340.10815 591.76923,343.80406 577,347.89833 C 573.425,348.88937 566.9,351.08504 562.5,352.77758 L 554.5,355.85493 L 508,355.84986 C 461.8448,355.84483 449.57896,355.37899 452.17981,353.72989 C 453.11609,353.13623 452.84569,352.88835 451.25,352.87749 C 446.52932,352.84537 449.2938,351.12998 455.99675,349.9321 C 459.84497,349.24438 463.24652,348.27231 463.55577,347.77194 C 463.86501,347.27157 465.10398,346.85563 466.30902,346.84763 C 468.7869,346.83117 475.29807,344.68749 481.62592,341.80482 C 483.97131,340.73637 486.70881,339.86218 487.70925,339.86218 C 488.70969,339.86218 491.99688,338.91073 495.01412,337.74785 C 501.72523,335.1613 515.36474,331.9183 519.66821,331.88598 C 525.54697,331.84182 528.11807,329.66921 523.88247,328.32488 L 521.76494,327.6528 L 523.8981,325.51963 C 525.44052,323.97722 528.25706,323.06845 534.06852,322.2381 C 538.48902,321.6065 542.31757,320.87794 542.57643,320.61908 C 543.96143,319.23408 541.18946,316.80291 536.02186,314.87035 C 532.81119,313.66965 529.195,311.6342 527.98587,310.34714 C 525.82162,308.04341 522.41754,307.21101 507.5,305.33773 C 504.75,304.9924 500.25,303.6475 497.5,302.34905 C 491.85611,299.68422 472.59213,295.27973 456.23144,292.91345 C 447.5667,291.66025 438.46386,291.57852 441.5,292.78119 C 442.6,293.21691 445.84335,293.87635 448.70745,294.2466 C 451.57155,294.61685 456.83704,296.01967 460.40854,297.36397 C 463.98004,298.70828 469.96086,300.2968 473.69926,300.89401 C 477.83512,301.55472 481.3037,302.73832 482.55841,303.91706 C 483.69254,304.98252 486.72468,306.57123 489.2965,307.44754 C 494.92304,309.3647 499,313.82811 499,318.07083 C 499,322.11782 493.4915,327.33255 487.20603,329.23583 C 484.61771,330.01958 479.47761,332.03054 475.78358,333.70462 C 472.08954,335.3787 466.5546,337.21287 463.4837,337.78056 C 460.4128,338.34825 455.78519,339.76756 453.20012,340.93459 C 450.61505,342.10162 444.9,344.08631 440.5,345.34503 C 436.1,346.60374 430.0208,348.79343 426.99067,350.21101 C 415.59326,355.54304 410.98075,355.91551 359.10142,355.69329 C 332.92064,355.58114 308.8,355.19891 305.5,354.84389 z M 429,288.43308 C 429,288.02195 423.00585,286.74452 414.5,285.34293 C 408.56118,284.36433 410.96953,285.86983 417.68542,287.33419 C 423.75702,288.65806 429,289.16727 429,288.43308 z M 396.94785,279.91557 C 398.11472,279.17735 397.92066,278.80978 395.94785,278.02152 C 390.02109,275.6534 381.27159,273.55972 376.10351,273.27294 C 373.02158,273.10193 366,272.66313 360.5,272.29784 C 353.58542,271.83859 350.80854,271.95463 351.5,272.67391 C 352.67266,273.89375 368.49231,278.70625 375,279.82284 C 381.47045,280.93305 395.24757,280.99126 396.94785,279.91557 z M 580.69375,271.2226 C 580.32998,270.85883 576.08757,270.24521 571.26618,269.85899 C 564.99307,269.35649 569.32552,269.144 586.5,269.11184 C 602.76565,269.08139 609.37207,269.36077 607,269.97878 C 602.61446,271.12137 581.58676,272.11561 580.69375,271.2226 z M 557.25,269.17285 C 558.2125,268.92133 559.7875,268.92133 560.75,269.17285 C 561.7125,269.42438 560.925,269.63018 559,269.63018 C 557.075,269.63018 556.2875,269.42438 557.25,269.17285 z"
           style="fill:#e1bd3c" />
        <path
           id="path2463"
           d="M 110,317.80316 C 110,278.00212 109.89171,278.93969 114.07625,282.51203 C 114.94318,283.25213 117.64318,284.26253 120.07625,284.75736 C 122.50931,285.25219 128.775,286.55755 134,287.65815 C 139.225,288.75876 145.92228,289.98036 148.88285,290.37283 C 151.84342,290.76529 155.66842,291.90122 157.38285,292.89711 C 159.09728,293.893 162.75,295.00187 165.5,295.36127 C 168.25,295.72067 172.075,296.60193 174,297.31963 C 175.925,298.03732 179.975,298.95015 183,299.34812 C 186.025,299.74609 189.85,300.88678 191.5,301.88298 C 193.15,302.87918 196.24701,304.01828 198.38225,304.41432 C 202.9171,305.25542 210.52627,312.1265 211.58226,316.33392 C 212.80942,321.22331 210.73777,323.4073 199.80523,328.74957 C 194.13736,331.51922 186.7575,334.42135 183.40555,335.19876 C 180.05361,335.97617 176.22861,337.30394 174.90555,338.14937 C 173.5825,338.9948 169.125,340.18841 165,340.80185 C 160.59208,341.45736 156.36604,342.7429 154.74952,343.91998 C 153.23675,345.02151 150.08675,346.30484 147.74952,346.77181 C 142.4918,347.82228 122.50641,353.33626 118.6849,354.79074 C 117.1366,355.38003 114.5491,355.86218 112.9349,355.86218 L 110,355.86218 L 110,317.80316 z M 171.62784,354.83434 C 172.19315,354.26903 175.54565,353.3649 179.07784,352.82517 C 188.80659,351.33857 189.72265,351.03079 190.23359,349.07695 C 190.57777,347.76078 192.36102,346.96208 196.79751,346.13703 C 200.14775,345.51399 204.15136,344.11786 205.69443,343.03453 C 207.23749,341.95119 210.71711,340.79193 213.42692,340.45838 C 216.13672,340.12484 219.11095,339.16676 220.03633,338.32931 C 221.41652,337.08025 233.85943,334.90409 239.81739,334.86977 C 240.66028,334.86491 240.91536,334.17088 240.5256,332.94283 C 239.84894,330.81087 240.70519,330.40206 248,329.37424 C 253.41501,328.61127 258,326.94537 258,325.74086 C 258,325.25759 257.175,324.86218 256.16667,324.86218 C 252.17352,324.86218 253.08057,323.3038 257.65259,322.30924 C 261.1746,321.54309 262.59356,320.72597 262.86218,319.30924 C 263.06523,318.23836 263.68696,317.07499 264.2438,316.72398 C 266.19114,315.49646 264.00376,314.12034 259.06354,313.465 C 256.3238,313.10156 253.81215,312.36724 253.48208,311.83319 C 253.15202,311.29913 253.38508,310.86218 254,310.86218 C 256.27473,310.86218 253.86954,308.9932 250.73853,308.32782 C 248.95734,307.9493 246.76831,306.99544 245.87403,306.20814 C 244.97974,305.42085 242.50474,304.53889 240.37403,304.24824 C 226.85792,302.4045 217.23053,300.54682 215.5,299.44861 C 214.4,298.75053 211.925,297.91932 210,297.60147 C 208.075,297.28361 201.325,296.13121 195,295.04056 C 188.675,293.94991 180.35,292.77312 176.5,292.42548 C 172.65,292.07783 167.7,291.16193 165.5,290.39015 C 163.3,289.61836 158.125,287.99994 154,286.79367 C 149.875,285.58739 146.05,284.27138 145.5,283.8692 C 144.09875,282.84454 140.99229,282.18714 129.40607,280.46332 C 116.84068,278.59382 114.48433,277.53999 112.66345,272.97557 L 111.22197,269.36218 L 147.61361,269.09986 C 178.25542,268.87898 184.57713,269.07648 187.62475,270.34986 C 189.61547,271.18163 192.34337,271.86218 193.68674,271.86218 C 195.03011,271.86218 198.23766,272.76149 200.81462,273.86064 C 205.80459,275.98902 207.98784,276.50466 226,279.80886 C 250.09061,284.22811 253.93988,284.86219 256.6796,284.86268 C 258.23082,284.86296 261.95957,285.79801 264.9657,286.94057 C 267.97184,288.08313 274.96704,289.6133 280.5106,290.34095 C 286.05415,291.06859 292.31204,292.38355 294.41702,293.26306 C 296.52199,294.14258 299.87679,294.88193 301.87212,294.90607 C 303.86746,294.93021 307.3,295.59844 309.5,296.39102 C 311.7,297.18359 314.45291,297.83884 315.61758,297.84712 C 320.235,297.87995 347.06955,307.82763 350.35238,310.72345 C 353.47332,313.47647 355.09171,317.49141 354.11425,320.05598 C 352.07319,325.41113 332.32717,335.26256 315.5,339.32091 C 311.65,340.24945 306.7,341.84737 304.5,342.87186 C 302.3,343.89634 297.575,345.26172 294,345.90604 C 287.71727,347.03837 283.56953,348.35478 270.20451,353.45824 L 263.90902,355.86218 L 217.25451,355.86218 C 185.30905,355.86218 170.92405,355.53813 171.62784,354.83434 z M 319.75,355.11221 C 314.57959,354.60101 314.85915,352.22722 320.25,350.86658 C 326.96244,349.17238 329.01691,348.06982 328.40974,346.48755 C 327.79616,344.88859 329.27234,344.45331 340.61245,342.88933 C 348.04203,341.86468 356.7364,339.8006 361,338.04925 C 362.375,337.48444 366.875,336.5145 371,335.89383 C 375.125,335.27315 380.75,333.71972 383.5,332.44175 C 388.86347,329.94927 396.48972,327.40498 401.75,326.35314 C 404.76368,325.75052 406.49705,322.86218 403.84501,322.86218 C 402.2742,322.86218 405.80263,319.0596 408.02917,318.35292 C 409.26616,317.96032 409.63242,317.12956 409.25285,315.57739 C 408.37384,311.98289 407.19697,311.11714 402.21778,310.40215 C 399.623,310.02956 395.025,309.12358 392,308.38887 C 388.975,307.65417 384.32698,306.7522 381.67107,306.3845 C 378.07909,305.88721 376.98139,305.35307 377.38577,304.29926 C 377.99766,302.70471 377.50819,302.57309 364.9929,300.96691 C 360.31399,300.36644 354.01399,299.19698 350.9929,298.36812 C 347.9718,297.53926 343.025,296.3858 340,295.80487 C 336.975,295.22394 333.2882,293.87971 331.80712,292.8177 C 330.01872,291.53532 326.65992,290.68427 321.80712,290.28389 C 314.59305,289.6887 300.65571,287.31821 288,284.5339 C 284.425,283.74738 277,282.32039 271.5,281.36281 C 264.98329,280.22822 260.28085,278.81099 258,277.29417 C 256.075,276.014 252.25,274.44947 249.5,273.81743 C 246.75,273.1854 242.87279,272.26191 240.88398,271.76523 C 238.89517,271.26855 234.17017,270.80586 230.38398,270.73701 C 223.70562,270.61559 223.63441,270.58793 228,269.81114 C 230.475,269.37075 255.98678,268.97707 284.69284,268.9363 C 335.45431,268.86421 336.98025,268.91798 340.33402,270.89675 C 343.56983,272.80593 365.01846,278.94603 375,280.82059 C 377.475,281.2854 384.225,282.2002 390,282.85349 C 395.775,283.50677 402.975,284.85507 406,285.84971 C 411.21205,287.56347 429.63344,291.91231 440.5,293.99432 C 456.82429,297.12202 477.80059,303.36835 486,307.54332 C 492.0654,310.63171 493.85892,312.09712 495.37641,315.20439 C 497.21563,318.97045 497.21488,319.09927 495.33865,321.70439 C 493.05431,324.87616 483.6884,329.67477 472,333.6619 C 458.14192,338.38914 437.56936,344.91 436.59174,344.88521 C 436.0922,344.87254 431.8172,346.63905 427.09174,348.81078 C 414.31097,354.68458 408.61376,355.26885 363,355.3836 C 341.275,355.43826 321.8125,355.31613 319.75,355.11221 z M 458.46654,355.11805 C 456.36714,353.58255 457.57305,351.41899 461,350.5727 C 469.19602,348.54868 481.67718,344.48499 483.87068,343.12633 C 485.17455,342.31871 489.86878,341.02467 494.3023,340.25068 C 498.73582,339.47669 503.06902,338.21451 503.93162,337.44583 C 505.76278,335.81407 511.2879,334.32341 518.91784,333.40261 C 521.89765,333.04299 525.86836,332.10837 527.74163,331.32567 C 530.47411,330.18396 531.02081,329.5031 530.50641,327.88237 C 530.15376,326.77127 530.09113,325.86218 530.36724,325.86218 C 532.92549,325.86218 545.60827,322.54954 547.12953,321.484 C 549.04134,320.14493 549.02665,320.0473 546.453,316.98869 C 545.00607,315.26911 542.91915,313.86218 541.8154,313.86218 C 539.15687,313.86218 534,310.76323 534,309.16563 C 534,307.81506 532.41561,307.34286 524.5,306.3343 C 518.48585,305.56802 508.63062,303.09608 504.5,301.31781 C 502.85,300.60746 498.575,299.50949 495,298.87786 C 491.425,298.24623 485.14101,296.82813 481.03558,295.72653 C 476.93015,294.62492 469.73015,293.2953 465.03558,292.77181 C 460.34101,292.24833 454.25,291.18655 451.5,290.41232 C 443.05015,288.03336 411.92932,282.90967 405.75,282.88012 C 402.10241,282.86267 400.72783,281.55859 403.25,280.50834 C 407.37247,278.7917 385.98403,272.40455 372.39102,271.29303 C 364.00263,270.60709 364.03546,270.61383 364.60301,269.69551 C 365.28744,268.58808 484,268.61535 484,269.72294 C 484,270.80382 495.12664,274.32286 505,276.36464 C 509.125,277.21768 516.55,278.97761 521.5,280.2756 C 526.45,281.57359 533.875,283.1854 538,283.85739 C 542.125,284.52938 548.74353,285.70536 552.70784,286.47069 C 556.67215,287.23601 561.21275,287.86218 562.79806,287.86218 C 564.38336,287.86218 573.73984,290.29134 583.59022,293.26031 C 593.4406,296.22927 603.3,299.05827 605.5,299.54696 L 609.5,300.43548 L 609.77227,317.95217 L 610.04455,335.46886 L 606.27227,337.58022 C 604.19752,338.74146 600.7,340.0153 598.5,340.41098 C 596.3,340.80665 592.18042,341.98631 589.34537,343.03245 C 586.51033,344.07858 580.21033,345.99744 575.34537,347.29658 C 565.09665,350.0334 558.33494,352.35811 555.5,354.11953 C 553.99637,355.05377 541.83532,355.42568 506.5,355.61805 C 480.65,355.75877 459.03494,355.53377 458.46654,355.11805 z M 350,269.79156 L 344.5,269.18817 L 351.25,269.02518 C 354.9625,268.93553 358,269.03904 358,269.25519 C 358,270.16644 355.15548,270.35715 350,269.79156 z M 576,269.8038 C 571.4689,269.45261 576.81293,269.18243 589.5,269.12129 C 601.05,269.06562 610.05,269.17257 609.5,269.35895 C 607.4741,270.04546 583.26555,270.36694 576,269.8038 z M 359.75,269.1999 C 360.4375,268.92249 361.5625,268.92249 362.25,269.1999 C 362.9375,269.47731 362.375,269.70429 361,269.70429 C 359.625,269.70429 359.0625,269.47731 359.75,269.1999 z M 506.73097,269.20624 C 507.408,268.93232 508.758,268.91565 509.73097,269.16919 C 510.70394,269.42273 510.15,269.64685 508.5,269.66723 C 506.85,269.68761 506.05394,269.48017 506.73097,269.20624 z"
           style="fill:#d4af35" />
        <path
           id="path2461"
           d="M 110,319.3365 L 110,282.81082 L 112.80209,284.25984 C 116.028,285.92802 145.00398,292.85129 148.89743,292.88414 C 150.32885,292.89622 153.3,293.72266 155.5,294.72066 C 157.7,295.71867 164.225,297.55047 170,298.79133 C 195.19732,304.20543 207.02071,310.12501 206.98469,317.30835 C 206.97627,318.98796 206.63876,320.85689 206.23469,321.46155 C 205.38138,322.73841 185.69884,332.37147 182,333.32252 C 180.625,333.67606 177.475,334.82971 175,335.88617 C 172.525,336.94263 166.52035,338.46283 161.65632,339.26438 C 156.7923,340.06594 152.03365,341.42674 151.08154,342.28839 C 150.12943,343.15003 146.23409,344.58166 142.42522,345.46979 C 132.20478,347.85291 113.09878,353.89334 112.44733,354.9474 C 110.37416,358.30186 110,352.85744 110,319.3365 z M 188.5,353.86218 C 190.7,352.79951 193.05592,351.91477 193.73538,351.89611 C 194.41484,351.87745 197.56484,350.5233 200.73538,348.8869 C 203.90592,347.25049 209.27473,345.48158 212.66607,344.95598 C 216.05741,344.43038 220.19756,343.29426 221.86641,342.43126 C 223.53526,341.56827 225.71053,340.85941 226.70034,340.85602 C 227.69015,340.85263 229.75005,340.19781 231.27788,339.40086 C 232.80572,338.60391 236.81611,337.40879 240.18985,336.74505 C 243.5636,336.0813 247.1486,334.71358 248.15651,333.70567 C 249.16443,332.69775 251.90933,331.44276 254.2563,330.9168 C 261.28909,329.34071 267.98933,325.99796 267.3669,324.37592 C 266.99832,323.41541 267.75087,322.72263 269.65908,322.26579 C 273.67557,321.30423 274.41065,320.73401 272.86512,319.77882 C 271.79124,319.11513 271.7695,318.69268 272.75836,317.70382 C 274.62995,315.83223 274.38977,315.45074 269.25,312.13125 C 262.18627,307.56918 249.54476,303.04902 240.5,301.85127 C 236.1,301.26861 229.575,299.93892 226,298.89642 C 219.91514,297.12203 202.72126,293.85232 191.59611,292.35395 C 188.89898,291.99069 182.14898,290.32181 176.59611,288.64532 C 166.66479,285.64692 156.30996,283.15091 142.5,280.42654 C 120.75401,276.13659 113,273.34953 113,269.82322 C 113,269.22789 125.5704,268.86218 146.03324,268.86218 C 178.98826,268.86218 179.07779,268.86791 183.83847,271.28033 C 186.46306,272.61031 190.3856,273.99503 192.55523,274.35749 C 194.72485,274.71995 198.525,275.83979 201,276.84602 C 205.31909,278.60199 223.92712,282.25629 236.5,283.81762 C 242.5976,284.57484 251.69179,286.38117 267,289.87567 C 271.675,290.94286 277.525,292.07801 280,292.39824 C 285.56524,293.11829 300.95243,296.57625 307,298.46595 C 309.475,299.23932 312.95359,299.86985 314.7302,299.86713 C 320.59105,299.85815 342.0683,308.89647 346.78277,313.35589 C 350.05516,316.45124 350.06067,316.47274 348.52243,320.15426 C 346.15659,325.8165 337.67522,329.78552 309.5,338.41556 C 302.9,340.43713 297.01644,342.47921 296.42543,342.95351 C 295.83442,343.42781 292.00942,344.50857 287.92543,345.3552 C 283.84144,346.20182 274.99094,348.91224 268.25765,351.37835 L 256.0153,355.86218 L 220.25765,355.82825 L 184.5,355.79432 L 188.5,353.86218 z M 326.66667,355.19551 C 324.83517,353.36401 326.63753,352.03578 333.0567,350.48642 C 336.93789,349.54965 342.45039,347.7252 345.3067,346.4321 C 348.16302,345.13899 352.525,343.75674 355,343.36042 C 357.475,342.96411 361.40113,341.78381 363.72473,340.73753 C 366.04833,339.69126 373.47333,337.75054 380.22473,336.42481 C 393.30769,333.85581 396,333.08478 396,331.90707 C 396,331.07575 401.54018,328.58902 407.32001,326.82605 C 409.42102,326.1852 411.3696,325.06261 411.65019,324.3314 C 411.93078,323.60019 413.47427,322.5439 415.08017,321.98408 C 416.68608,321.42425 418,320.30531 418,319.49753 C 418,318.68976 418.51324,317.85777 419.14053,317.64867 C 419.81951,317.42234 419.24083,316.14606 417.71055,314.49486 C 415.21687,311.80414 410.89696,310.08975 396,305.87888 C 392.425,304.86835 386.99308,303.15082 383.92908,302.06215 C 380.86507,300.97348 372.83966,299.36847 366.09483,298.49547 C 357.12123,297.33398 351.43168,295.95919 344.88548,293.37056 C 337.82528,290.57869 333.15271,289.51638 322.71972,288.33118 C 315.44888,287.50521 304.22626,285.48679 297.78057,283.8458 C 291.33488,282.20481 284.99223,280.86218 283.68579,280.86218 C 282.37936,280.86218 278.6531,279.92986 275.40523,278.79035 C 272.15735,277.65085 267.25,276.13088 264.5,275.41264 C 261.75,274.6944 258.375,273.59161 257,272.96199 C 255.625,272.33236 251.125,271.46084 247,271.02526 L 239.5,270.2333 L 248,269.47532 C 252.675,269.05843 272.925,268.86243 293,269.03976 C 328.31953,269.35175 329.6132,269.43179 333,271.51464 C 334.925,272.6985 341.9,274.88244 348.5,276.36784 C 355.1,277.85324 363.2,279.89466 366.5,280.90432 C 369.8,281.91399 375.875,283.21904 380,283.80444 C 384.125,284.38984 390.2,285.52371 393.5,286.32416 C 415.37033,291.62901 422.66165,293.22828 434.8238,295.38808 C 442.34571,296.72384 450.075,298.47606 452,299.2819 C 453.925,300.08773 459.28526,301.4764 463.9117,302.36782 C 468.53813,303.25924 473.93813,304.85017 475.9117,305.90321 C 477.88526,306.95625 481.59558,308.68397 484.15685,309.74257 C 487.59115,311.16201 489.25183,312.59061 490.48261,315.18429 C 492.05393,318.4956 492.04739,318.86022 490.37081,321.419 C 488.50497,324.26664 476.10339,330.84543 472.52821,330.88414 C 471.4127,330.89622 468.61226,331.76314 466.30502,332.81062 C 463.99778,333.8581 454.99778,336.81859 446.30502,339.38948 C 437.61226,341.96037 428.84462,345.1824 426.82137,346.54954 C 424.25244,348.28542 419.27507,349.79682 410.32137,351.55984 C 403.26962,352.94836 397.35,354.48442 397.16667,354.9733 C 396.78387,355.99407 327.68303,356.21187 326.66667,355.19551 z M 465,353.97881 C 465,352.06495 467.51892,350.90168 471.7191,350.87584 C 474.42319,350.8592 487.6431,346.61522 491.98523,344.36982 C 493.71933,343.47308 498.57729,342.08137 502.78071,341.27712 C 506.98412,340.47288 511.34054,339.22589 512.46164,338.50604 C 513.58274,337.78619 520.71692,335.72375 528.31538,333.92283 C 540.33723,331.07353 542.24548,330.34672 543.01443,328.32423 C 543.71042,326.49365 544.91777,325.86132 548.69905,325.34704 C 556.56858,324.27671 557.07542,324.01086 556.39735,321.3092 C 555.89714,319.3162 556.29146,318.69624 558.64536,317.77483 L 561.5,316.65742 L 554.57491,313.25633 C 550.76611,311.38574 546.93416,309.20758 546.05945,308.41599 C 545.18475,307.62439 540.47691,306.48063 535.59758,305.87431 C 530.71826,305.26798 525.46006,304.11721 523.9127,303.31704 C 522.36534,302.51686 519.93752,301.86218 518.51754,301.86218 C 517.09756,301.86218 514.26272,301.1492 512.21788,300.27778 C 510.17305,299.40636 506.025,298.3007 503,297.82075 C 499.975,297.3408 493.225,296.01309 488,294.87029 C 482.775,293.72748 473.775,291.95024 468,290.92087 C 462.225,289.8915 455.53092,288.33219 453.12427,287.45573 C 450.71762,286.57928 447.34262,285.86074 445.62427,285.85899 C 438.74815,285.85195 423.86135,282.50764 412.5,278.41762 C 405.9,276.04166 398.475,273.78347 396,273.39942 C 388.41221,272.22201 383.91074,270.81563 384.52884,269.81551 C 384.89049,269.23035 403.53612,268.90068 432.80902,268.96186 C 459.03906,269.01668 479.44618,269.35767 478.15819,269.7196 C 476.25031,270.25573 477.45476,270.97103 484.65819,273.57984 C 489.52118,275.34103 495.525,277.05324 498,277.38476 C 500.475,277.71627 509.025,279.51025 517,281.37137 C 533.17128,285.14525 558.19151,289.87533 561.94045,289.86736 C 564.30847,289.86233 571.69684,291.94328 590.6624,297.95694 C 595.70172,299.55482 601.10172,300.86833 602.6624,300.87584 C 604.22308,300.88335 606.52338,301.16368 607.77418,301.49879 C 610.03526,302.10458 610.04678,302.2009 609.77418,318.21217 L 609.5,334.31625 L 602.5,336.50367 C 598.65,337.70674 591,340.04627 585.5,341.70262 C 580,343.35897 571.9,345.88598 567.5,347.31821 C 563.1,348.75044 557.04747,350.62128 554.04994,351.47565 C 551.0524,352.33001 547.68978,353.66649 546.57743,354.44561 C 544.91493,355.61007 537.47565,355.86218 504.77749,355.86218 C 466.48777,355.86218 465,355.79174 465,353.97881 z"
           style="fill:#b38c22" />
        <path
           id="path2459"
           d="M 195,354.81681 C 199.42321,351.82453 207.70807,348.62399 214.17959,347.40751 C 221.25726,346.07709 233.76314,342.15954 252.5,335.4034 C 257.45,333.61853 264.65,331.14329 268.5,329.90287 C 276.26817,327.40008 283.2396,321.70178 281.12296,319.58514 C 280.50533,318.96751 280,317.63635 280,316.627 C 280,313.96385 277.04125,309.86218 275.12018,309.86218 C 274.21279,309.86218 271.90205,309.0295 269.98519,308.01177 C 265.1536,305.44651 254.74602,302.18753 247,300.81429 C 243.425,300.18051 238.7,299.04822 236.5,298.2981 C 232.00552,296.76564 219.24406,294.10704 198.5,290.38155 C 190.8,288.99868 181.575,286.99886 178,285.93749 C 174.425,284.87613 168.16647,283.47235 164.09217,282.81799 C 160.01786,282.16362 155.19481,281.00587 153.37429,280.24521 C 151.55376,279.48454 148.88214,278.86218 147.43736,278.86218 C 145.99257,278.86218 141.81562,278.01949 138.15524,276.98954 C 134.49486,275.95959 129.7,274.64983 127.5,274.07897 C 119.742,272.06591 115.66449,270.20491 117.48292,269.50711 C 120.15005,268.48363 176.19428,268.73881 175.55603,269.77153 C 174.81622,270.96856 182.1973,274.45408 188.5,275.88398 C 191.25,276.50788 195.075,277.65247 197,278.42753 C 198.925,279.20259 205.45,280.72522 211.5,281.81116 C 231.49392,285.39996 233.40086,285.73455 246,287.86444 C 252.875,289.02666 262.55,291.06768 267.5,292.40003 C 272.45,293.73238 280.1,295.31833 284.5,295.92436 C 299.99595,298.05869 326.4804,305.41162 335.80184,310.16739 C 342.17136,313.4171 343.18179,314.87314 342.41128,319.69163 C 341.80633,323.47481 341.40003,323.91546 337.12796,325.42168 C 334.58258,326.31912 330.7,327.86437 328.5,328.85558 C 326.3,329.84679 320.41834,331.81352 315.42963,333.22609 C 310.44093,334.63866 305.04093,336.48188 303.42963,337.32213 C 301.81834,338.16238 299.58265,338.85263 298.46144,338.85602 C 297.34023,338.85941 294.64023,339.77199 292.46144,340.88398 C 290.28265,341.99597 283.775,343.97181 278,345.27472 C 272.19806,346.58372 263.52237,349.48229 258.61015,351.75292 L 249.72031,355.86218 L 221.61015,355.84687 C 202.27441,355.83633 193.96822,355.51481 195,354.81681 z M 336.00796,353.48501 C 338.47858,352.17756 342.075,350.78753 344,350.39606 C 345.925,350.00458 354.025,347.53534 362,344.90886 C 379.90447,339.01221 385.10648,337.55611 396.39524,335.2812 C 402.40022,334.07108 406.20942,332.7154 408.11867,331.10887 C 409.67418,329.8 413.54632,327.42721 416.72343,325.83601 C 419.90054,324.24481 424.075,321.59596 426,319.94968 L 429.5,316.95644 L 426.5,314.47406 C 423.56799,312.04794 414.0001,308.03721 405,305.46155 C 402.525,304.75325 398.99416,303.39466 397.15368,302.44247 C 395.31321,301.49027 391.71321,300.32881 389.15368,299.86144 C 386.59416,299.39407 380.9,298.31874 376.5,297.47182 C 372.1,296.62489 366.46263,295.91626 363.97251,295.89707 C 361.48238,295.87788 358.55738,295.25121 357.47251,294.50447 C 356.38763,293.75773 353.7,292.57408 351.5,291.87415 C 349.3,291.17421 346.97523,290.18639 346.33384,289.67899 C 345.69245,289.17159 341.41745,288.35083 336.83384,287.85506 C 314.4636,285.43549 297.44438,281.90226 273.63538,274.73489 C 266.55984,272.6049 258.45984,270.80731 255.63538,270.74024 L 250.5,270.6183 L 256.5,269.68161 C 259.8,269.16643 275.775,268.92887 292,269.15369 L 321.5,269.56246 L 327.35155,272.71232 C 330.5699,274.44474 334.10491,275.86218 335.20713,275.86218 C 336.30934,275.86218 345.15115,277.83741 354.85558,280.25157 C 364.56001,282.66574 374.525,284.94934 377,285.32625 C 379.475,285.70316 385.1,287.08186 389.5,288.39003 C 397.83942,290.86944 416.47104,294.89571 428.5,296.81789 C 432.35,297.4331 439.325,299.03746 444,300.38312 C 448.675,301.72879 455.875,303.29514 460,303.86389 C 464.2464,304.44939 468.59292,305.69686 470.01934,306.73949 C 471.40498,307.75232 473.60799,308.92037 474.91492,309.33518 C 476.22185,309.74998 479.20743,311.85573 481.54955,314.01462 C 485.66988,317.81261 485.76246,318.03107 484.40477,320.75262 C 483.43138,322.70383 480.90939,324.52973 476.17104,326.71378 C 472.41423,328.4454 468.47638,329.88193 467.42024,329.90607 C 466.36411,329.93021 463.7,330.64208 461.5,331.48799 C 457.38435,333.07049 449.21495,335.64052 433.5,340.29658 C 428.47435,341.78559 423.83761,343.79464 423,344.8461 C 422.05789,346.02875 419.13572,347.14933 415.14317,347.85901 C 406.3978,349.41349 391.57216,353.78181 391.16667,354.92359 C 390.96914,355.47979 378.74996,355.86218 361.17462,355.86218 L 331.51591,355.86218 L 336.00796,353.48501 z M 476,353.75209 C 489.06823,348.90988 492.72792,347.68138 496.5,346.87059 C 498.7,346.39771 503.65,344.90636 507.5,343.55649 C 520.48051,339.00529 531.45983,335.80474 538.75981,334.44403 C 542.7527,333.69975 546.74673,332.48734 547.63543,331.74978 C 548.52414,331.01222 552.45722,329.01265 556.37563,327.30629 C 562.78525,324.51507 563.47246,323.94438 563.22545,321.61785 C 562.9968,319.46421 563.45465,318.92123 565.96398,318.37009 C 570.13494,317.454 570.6251,316.09424 567.30639,314.64611 C 565.76287,313.97259 562.25,311.96971 559.5,310.19526 C 555.71,307.74976 552.22174,306.57873 545.08574,305.35633 C 539.90789,304.46936 534.50789,303.14809 533.08574,302.42017 C 531.66358,301.69225 528.025,300.78846 525,300.41176 C 521.975,300.03505 516.8,298.87533 513.5,297.8346 C 510.2,296.79386 502.1,295.03085 495.5,293.91679 C 480.65787,291.41147 466.62597,288.29949 462,286.48717 C 460.075,285.73302 455.35,284.81378 451.5,284.44443 C 441.956,283.52882 434.883,282.21977 426,279.72496 C 413.31566,276.16253 398.5,271.0127 398.5,270.16613 C 398.5,269.11992 467.18771,268.58725 467.93274,269.62768 C 469.48558,271.79623 483.74027,276.95051 493.5,278.87241 C 499.55,280.06379 506.525,281.63344 509,282.36053 C 511.475,283.08762 517.55,284.3942 522.5,285.26403 C 540.25475,288.38398 559.57204,292.03475 563.5,293.01262 C 565.7,293.56032 570.89975,294.81015 575.055,295.79002 C 579.21025,296.76989 585.51025,298.59454 589.055,299.84479 C 592.59975,301.09504 598.7625,302.34459 602.75,302.62158 L 610,303.12519 L 610,317.87711 C 610,332.35531 609.95825,332.63863 607.75,333.14679 C 606.5125,333.43157 601.225,334.62574 596,335.80051 C 590.775,336.97529 584.25,338.80635 581.5,339.86955 C 575.7967,342.07455 548.94838,350.43653 544.64447,351.34831 C 542.97702,351.70156 541.57629,352.76643 541.27784,353.90772 C 540.78271,355.80109 539.66862,355.86105 505.63337,355.8261 L 470.5,355.79003 L 476,353.75209 z M 110,319.36218 C 110,296.31786 110.33263,285.86218 111.06574,285.86218 C 111.6519,285.86218 113.09554,286.37813 114.27383,287.00873 C 116.48105,288.19 130.7929,291.7313 144,294.36414 C 148.125,295.18646 153.075,296.52431 155,297.33714 C 156.925,298.14998 164.35,300.23544 171.5,301.97151 C 184.18098,305.05054 197.49815,310.34764 199.93263,313.28101 C 201.78593,315.51409 200.8321,320.15121 198.25689,321.42779 C 197.02317,322.03936 195.22317,323.22216 194.25689,324.05623 C 192.4157,325.64548 182.34902,330.22899 173,333.73481 C 169.975,334.86916 163.27321,336.51187 158.10713,337.38528 C 152.94105,338.25868 146.62296,340.03303 144.06692,341.32827 C 141.51089,342.62351 136.96268,344.13915 133.95979,344.69635 C 130.95691,345.25355 124.68866,347.31881 120.03036,349.28581 C 115.37206,351.25281 111.20956,352.86218 110.78036,352.86218 C 110.35116,352.86218 110,337.78718 110,319.36218 z"
           style="fill:#926b11" />
        <path
           id="path2457"
           d="M 201.26695,355.14429 C 202.78878,354.91427 203.81664,354.37451 203.55108,353.94484 C 202.76247,352.66884 206.84764,351.13865 218.5,348.34541 C 224.55,346.89514 231.3,344.88239 233.5,343.87264 C 235.7,342.86288 239.04294,341.71903 240.92875,341.33074 C 242.81456,340.94244 249.06563,338.87817 254.82001,336.74346 C 260.57439,334.60876 266.06175,332.86218 267.01414,332.86218 C 269.94222,332.86218 278.26388,328.79504 283,325.04923 C 285.475,323.09175 287.695,321.34138 287.93333,321.15951 C 288.17167,320.97765 287.83417,320.29635 287.18333,319.64551 C 286.5325,318.99468 286,317.62313 286,316.59762 C 286,314.10015 280.81213,309.78025 275.12491,307.54204 C 265.16146,303.62089 254.08492,300.05593 249.89484,299.42178 C 247.47768,299.05595 242.575,297.88175 239,296.81244 C 235.425,295.74313 226.875,293.76928 220,292.42611 C 213.125,291.08294 205.58442,289.50361 203.24315,288.9165 C 200.90188,288.32939 195.05188,287.21921 190.24315,286.44943 C 179.01281,284.65169 167.09535,282.23269 159.5,280.20919 C 156.2,279.33003 151.025,278.00732 148,277.26983 C 135.01192,274.10337 129.2711,272.68227 125.75,271.762 C 117.39451,269.5782 122.48109,268.86248 146.25,268.87749 C 162.27624,268.88761 169.99131,269.22154 169,269.86218 C 167.76915,270.65762 167.87592,270.8343 169.59501,270.84687 C 170.74727,270.85529 172.48731,271.74318 173.46178,272.81995 C 174.53842,274.00962 178.22829,275.43467 182.86677,276.45221 C 187.06505,277.37319 191.62507,278.69561 193.00016,279.39093 C 194.37524,280.08624 200.22524,281.42168 206.00016,282.35856 C 211.77507,283.29544 218.79329,284.70384 221.59621,285.48833 C 224.39912,286.27282 230.27808,287.32363 234.66056,287.82347 C 239.04304,288.3233 248.22474,290.08433 255.06435,291.73687 C 261.90396,293.38941 271.775,295.47224 277,296.36538 C 300.88692,300.44853 330.99333,309.36416 335.11712,313.57602 C 337.78165,316.29745 337.80959,316.44904 336.31991,320.10126 C 335.058,323.19506 334.07905,324.02886 330.6474,324.93266 C 328.36633,325.53344 325.6,326.59377 324.5,327.28897 C 321.91056,328.92549 307.0339,333.86218 304.69173,333.86218 C 303.70093,333.86218 301.00246,334.70669 298.69514,335.73887 C 286.86612,341.03058 284.0086,342.0111 275.12649,343.82616 C 264.52518,345.99253 245,353.30326 245,355.10629 C 245,355.52203 234.5375,355.79476 221.75,355.71235 C 208.9625,355.62994 199.74513,355.37431 201.26695,355.14429 z M 339.77159,354.30961 C 340.99072,353.4557 345.02835,352.12151 348.74409,351.34475 C 352.45984,350.56799 357.975,349.05376 361,347.9798 C 364.025,346.90583 369.2,345.07546 372.5,343.9123 C 375.8,342.74914 383.225,340.65808 389,339.26551 C 394.775,337.87294 402.4188,336.02329 405.98621,335.15517 C 409.58813,334.27866 414.03494,332.35494 415.98621,330.82912 C 417.9188,329.3179 421.25554,327.68825 423.4012,327.20767 C 426.08068,326.60752 428.24207,325.17288 430.30297,322.62657 L 433.30355,318.91926 L 430.63759,314.89072 C 429.17131,312.67502 427.39816,310.86218 426.69725,310.86218 C 425.99635,310.86218 423.64023,309.92393 421.46144,308.77719 C 419.28265,307.63045 413.9,305.63644 409.5,304.34606 C 405.1,303.05568 398.8,301.11421 395.5,300.03167 C 387.72236,297.48029 381.26979,296.0674 372,294.88597 C 367.875,294.36025 360.9,292.50334 356.5,290.75951 C 351.13927,288.63492 345.69577,287.32594 340,286.79182 C 326.00145,285.4791 317.16884,284.02296 304,280.85691 C 291.32448,277.80946 275.56496,273.46454 270.99128,271.75637 C 269.61148,271.24105 266.81706,270.75681 264.78146,270.68028 C 262.62406,270.59917 261.33545,270.12842 261.69194,269.55162 C 262.45003,268.325 316.993,269.29359 317.88801,270.54956 C 319.44082,272.72863 324.62275,275.03877 332.21884,276.93834 C 347.55995,280.77472 356.44996,282.83549 366.5,284.88496 C 372,286.00656 381,288.22344 386.5,289.81136 C 392,291.39927 403.025,293.90149 411,295.37185 C 428.40092,298.58006 435.68489,300.15318 443,302.28287 C 446.025,303.16356 451.82786,304.36222 455.89524,304.94657 C 467.88375,306.66892 479.5173,314.58106 478.81812,320.53676 C 478.56502,322.69272 477.78462,323.42912 475,324.13959 C 473.075,324.63073 470.78841,325.67028 469.91869,326.44971 C 469.04896,327.22913 465.22396,328.70999 461.41869,329.7405 C 457.61341,330.77102 451.35,332.61364 447.5,333.83521 C 443.65,335.05679 436.675,337.08433 432,338.34086 C 427.325,339.59739 420.8,341.74356 417.5,343.11012 C 414.2,344.47668 404.50219,347.90494 395.94931,350.72848 L 380.39863,355.86218 L 358.97681,355.86218 C 339.3277,355.86218 337.73842,355.7337 339.77159,354.30961 z M 482.24334,354.63216 C 482.46884,353.95565 488.69384,351.56421 496.07667,349.31785 C 503.4595,347.07149 510.59304,344.64107 511.92897,343.91691 C 513.2649,343.19275 516.8649,342.01703 519.92897,341.3042 C 533.41637,338.16647 550.82507,333.07526 554.5,331.19383 C 556.7,330.06751 559.85,328.82207 561.5,328.42617 C 565.44839,327.4788 568,325.08266 568,322.3222 C 568,321.04702 569.07042,319.39083 570.5,318.45414 C 571.875,317.5532 573,316.45223 573,316.00754 C 573,315.15479 565.60341,310.17802 560.45753,307.56838 C 558.78416,306.71977 554.63503,305.52134 551.23722,304.9052 C 547.83942,304.28906 543.49757,303.13237 541.58868,302.33478 C 539.67978,301.5372 533.76238,300.18374 528.4389,299.32711 C 523.11542,298.47048 516.90138,297.0693 514.62992,296.21338 C 512.35847,295.35746 505.325,293.86877 499,292.90517 C 487.04463,291.08381 482.27133,290.03817 470.5,286.662 C 466.65,285.55777 459.45,284.06891 454.5,283.35342 C 445.47143,282.04839 432.10903,279.3425 420.03002,276.37322 C 413.15629,274.68351 405,271.05399 405,269.68492 C 405,269.23242 416.8125,268.86901 431.25,268.87736 C 458.76833,268.89327 462.25646,269.32485 469.03155,273.55199 C 472.89468,275.96229 500.60746,283.278 514,285.42291 C 524.9925,287.18343 534.13216,288.97654 552,292.87812 C 559.975,294.61953 568.525,296.42042 571,296.8801 C 573.475,297.33978 578.425,298.6268 582,299.74014 C 591.62865,302.73873 596.93943,303.76965 603.8218,303.97616 L 610,304.16155 L 609.99056,317.76186 L 609.98113,331.36218 L 595.24056,334.22558 C 587.13325,335.80045 578.7,337.90114 576.5,338.89378 C 571.95069,340.94644 567.3456,342.46837 550.8722,347.36351 C 544.47691,349.2639 537.95191,351.31215 536.3722,351.91518 C 533.60518,352.97144 533.57108,353.06378 535.44113,354.43688 C 537.13822,355.68299 533.89048,355.86218 509.6078,355.86218 C 488.0733,355.86218 481.92545,355.58584 482.24334,354.63216 z M 110,319.36218 C 110,301.48718 110.26807,286.86218 110.59571,286.86218 C 110.92335,286.86218 112.38585,287.52003 113.84571,288.32407 C 115.30557,289.12811 124.6,291.8101 134.5,294.28406 C 163.1928,301.45423 182.26291,306.79886 185.5,308.57743 C 189.9545,311.02489 195.96138,316.1877 195.98197,317.5865 C 195.99189,318.25988 194.76144,319.45131 193.24764,320.23412 C 191.73384,321.01694 189.6391,322.60349 188.59265,323.7598 C 187.54621,324.91611 186.17347,325.86218 185.54212,325.86218 C 184.91077,325.86218 180.81801,327.59127 176.4471,329.70459 C 172.0762,331.81792 166.7,333.86985 164.5,334.26444 C 143.56347,338.01958 116.06947,346.6637 112.8946,350.48918 C 112.26788,351.24433 111.36021,351.86218 110.87756,351.86218 C 110.39215,351.86218 110,337.33904 110,319.36218 z"
           style="fill:#835b08" />
        <path
           id="path2455"
           d="M 206.7166,354.11218 C 207.82904,353.14968 214.3104,351.07443 221.11961,349.50051 C 233.03479,346.74636 238.7434,344.96933 249.5,340.66598 C 252.25,339.56579 258.325,337.54459 263,336.17442 C 272.4248,333.41215 285.90414,327.13695 290.45169,323.39451 C 293.25758,321.0854 293.31933,320.87251 291.70169,319.08505 C 290.76576,318.05086 290,316.49708 290,315.63222 C 290,314.76735 288.5375,313.12567 286.75,311.98403 C 284.9625,310.84239 281.91488,308.83118 279.9775,307.51468 C 278.04013,306.19817 274.8993,304.77934 272.99788,304.36171 C 271.09646,303.94409 266.21291,302.08585 262.14554,300.23229 C 257.98595,298.33671 253.12435,296.86218 251.03409,296.86218 C 248.99016,296.86218 245.10884,296.17839 242.40893,295.34264 C 239.70902,294.5069 234.575,293.39504 231,292.87185 C 220.65753,291.35826 209.8721,289.00031 208.63675,287.9827 C 207.24988,286.84028 189.95321,283.77306 188.82608,284.46967 C 187.9901,284.98633 160.35884,279.20199 158.66646,278.15604 C 158.13937,277.83028 154.96129,276.97594 151.60406,276.2575 C 148.24683,275.53907 142.35,274.05715 138.5,272.96436 C 134.65,271.87157 130.0375,270.95153 128.25,270.91983 C 126.4625,270.88812 125,270.41218 125,269.86218 C 125,269.22515 132.35021,268.89836 145.25,268.96186 C 156.3875,269.01668 164.375,269.38125 163,269.77201 L 160.5,270.48249 L 163.51367,271.10007 C 165.17118,271.43974 167.57584,272.62701 168.85736,273.73847 C 170.13887,274.84992 173.73272,276.28442 176.84369,276.92625 C 179.95466,277.56809 184.75,278.92783 187.5,279.9479 C 190.25,280.96798 198.25914,282.73536 205.2981,283.87542 C 212.33705,285.01548 219.31205,286.41441 220.7981,286.98416 C 222.28414,287.55391 227.325,288.41982 232,288.90841 C 236.675,289.397 243.2,290.72061 246.5,291.84976 C 249.8,292.97891 262.85,295.71748 275.5,297.93548 C 290.12478,300.49973 300.36224,302.81644 303.61408,304.29764 C 306.42682,305.57883 311.82682,307.3812 315.61408,308.3029 C 328.10571,311.34298 328.92473,311.74627 330.56128,315.66308 C 332.01629,319.14541 331.98462,319.36766 329.78926,321.08178 C 325.82462,324.17732 319.66476,327.36818 315,328.74273 C 312.525,329.47203 310.03457,330.4468 309.46571,330.90888 C 308.89685,331.37096 305.53277,332.21584 301.98998,332.78639 C 298.44719,333.35694 293.73762,334.68789 291.52427,335.74406 C 283.13969,339.74502 279.663,340.91137 268.83664,343.35528 C 262.7088,344.73856 257.15994,346.31448 256.50585,346.85732 C 254.94407,348.15349 241.46691,352.83938 237,353.63935 L 233.5,354.26615 L 237,354.93252 C 238.925,355.29903 232.44365,355.65814 222.59699,355.73054 C 205.44964,355.85662 204.77935,355.78832 206.7166,354.11218 z M 342.41854,354.99399 C 342.71365,354.51648 345.10271,353.84061 347.72756,353.49205 C 352.14278,352.90575 364.39491,349.08278 378.22502,343.97611 C 381.37378,342.81345 384.99657,341.86218 386.27567,341.86218 C 389.6316,341.86218 405.20118,338.35195 407.52714,337.07095 C 410.96622,335.1769 421.33479,330.59888 425.91806,328.95083 C 428.58927,327.99031 431.50021,325.91007 433.28031,323.68955 L 436.22451,320.01692 L 434.43786,315.33865 C 433.2208,312.15183 431.83011,310.34176 430.07561,309.66093 C 428.65902,309.11122 425.475,307.75588 423,306.64904 C 420.525,305.54221 414.675,303.59935 410,302.33157 C 405.325,301.06379 398.8,299.13566 395.5,298.04682 C 392.2,296.95799 386.575,295.53811 383,294.89155 C 379.425,294.24498 375.6,293.14149 374.5,292.43935 C 373.4,291.73721 369.49061,290.92418 365.81247,290.63262 C 361.37281,290.2807 357.91196,289.35286 355.51628,287.87224 C 352.67334,286.11521 349.5303,285.45923 340.70381,284.78079 C 320.40735,283.2207 311.04722,281.36043 278.70121,272.45813 C 275.51188,271.58036 272.02438,270.86218 270.95121,270.86218 C 269.87804,270.86218 269,270.41218 269,269.86218 C 269,268.64107 290.39396,268.58991 300.71396,269.78634 C 304.68163,270.24632 309.66544,271.52832 311.78908,272.63522 C 313.91272,273.74213 318.31644,275.198 321.57512,275.8705 C 324.8338,276.543 329.75,277.90657 332.5,278.90067 C 340.32107,281.72789 352.69759,284.85748 356.26116,284.90904 C 358.04252,284.93481 366.025,286.69414 374,288.81866 C 395.00848,294.41528 395.27554,294.47615 409.5,296.90946 C 416.65,298.13258 426.55,300.14752 431.5,301.38709 C 436.45,302.62667 444.00124,304.42148 448.28054,305.37557 C 459.66626,307.91406 467.25048,311.20463 468.80457,314.28031 C 469.52208,315.70034 470.75958,316.86218 471.55457,316.86218 C 473.3452,316.86218 473.34517,316.86299 471.42676,320.70854 C 470.56148,322.44304 469.27216,323.86218 468.56162,323.86218 C 467.85107,323.86218 466.19653,324.68424 464.88486,325.68899 C 463.57319,326.69373 459.35,328.27127 455.5,329.19462 C 448.47895,330.87849 434.16764,335.25141 415.5,341.4169 C 410,343.23342 403.50494,345.24131 401.06652,345.87887 C 398.62811,346.51644 393.85497,348.35066 390.45955,349.95492 C 379.39776,355.18136 375.79511,355.83967 358.19098,355.85136 C 349.22056,355.85731 342.12341,355.47152 342.41854,354.99399 z M 487.5,354.28204 C 495.51379,352.10391 508.27561,347.77992 511.13251,346.27481 C 512.58038,345.51202 518.88038,343.53442 525.13251,341.88015 C 546.4564,336.23797 551.50004,334.69117 556.44634,332.27668 C 559.16683,330.94871 562.65433,329.86218 564.19634,329.86218 C 566.94063,329.86218 571,326.86616 571,324.84074 C 571,324.27895 572.21715,321.98006 573.70478,319.73211 L 576.40955,315.64492 L 572.95478,312.69127 C 568.53232,308.9103 558.24944,303.86399 554.96534,303.86297 C 553.57128,303.86254 549.85292,302.95617 546.70232,301.84882 C 543.55173,300.74148 535.83993,298.97119 529.565,297.91485 C 523.29007,296.85851 516.6642,295.22277 514.84084,294.27988 C 513.01748,293.33698 507.69487,292.19164 503.01282,291.73468 C 493.06017,290.76332 478.55204,287.65445 468.13623,284.26117 C 464.08616,282.94172 458.79237,281.86218 456.37227,281.86218 C 453.95216,281.86218 447.36585,280.79424 441.73604,279.48899 C 436.10622,278.18373 428.8,276.57416 425.5,275.91216 C 418.04806,274.41725 410.78467,271.71859 410.30057,270.26492 C 410.0452,269.4981 415.75013,269.11065 429.24413,268.97837 C 450.04585,268.77444 458.598,270.02643 464.07782,274.07783 C 467.5091,276.61469 497.06562,284.24661 515.5,287.35577 C 523.2,288.65447 535.125,291.07959 542,292.74495 C 548.875,294.4103 560.35,296.93164 567.5,298.34792 C 574.65,299.76421 582.525,301.56234 585,302.34377 C 590.85818,304.19336 605.44639,306.24021 608.0039,305.57141 C 609.92281,305.0696 610,305.55018 610,317.99964 C 610,327.82421 609.6983,330.89054 608.75,330.7041 C 604.45991,329.86067 575.68158,336.26 563,340.87737 C 554.72622,343.88985 543.55788,347.48856 533.58865,350.35442 C 527.56001,352.08747 525.90977,354.09641 529.77758,354.99387 C 531.27491,355.34129 521.25,355.62903 507.5,355.63329 C 484.65272,355.64036 482.93054,355.524 487.5,354.28204 z M 110,319.03649 C 110,301.89062 110.30207,287.86218 110.67126,287.86218 C 111.04045,287.86218 112.05295,288.50323 112.92126,289.28674 C 113.78957,290.07025 120.125,292.12307 127,293.84857 C 143.73315,298.04828 176.8292,307.78343 180.22036,309.50325 C 181.71655,310.26205 183.40357,311.74775 183.96929,312.80481 C 184.53501,313.86187 185.89835,315.01253 186.99894,315.36184 C 189.74849,316.23452 189.50877,318.30934 186.5,319.68023 C 185.125,320.30672 184,321.43561 184,322.18887 C 184,322.94213 182.0875,324.33981 179.75,325.29483 C 177.4125,326.24985 173.475,328.07837 171,329.35821 C 168.525,330.63805 158.175,333.54098 148,335.80918 C 137.825,338.07738 127.7,340.76678 125.5,341.78562 C 123.3,342.80446 119.94436,344.14754 118.04302,344.77025 C 116.14168,345.39296 113.55418,346.87183 112.29302,348.05663 L 110,350.21081 L 110,319.03649 z"
           style="fill:#714801" />
      </g>
    </pattern>
    <pattern
       inkscape:collect="always"
       xlink:href="#pattern4743"
       id="pattern4881"
       patternTransform="translate(5.8300781e-6,1.0224609e-5)" />
    <pattern
       patternUnits="userSpaceOnUse"
       width="500.08975"
       height="87.274864"
       patternTransform="translate(152.04977,499.83902)"
       id="pattern4878">
      <rect
         id="rect4754"
         y="0"
         x="0"
         height="87.274864"
         width="500.08975"
         style="fill:url(#pattern4881);stroke:none" />
    </pattern>
    <pattern
       inkscape:collect="always"
       xlink:href="#pattern4878"
       id="pattern5192"
       patternTransform="matrix(1.3427513,0,0,1.3427513,118.48475,491.94137)" />
    <pattern
       inkscape:collect="always"
       xlink:href="#pattern5192"
       id="pattern5196"
       patternTransform="matrix(1.3427513,0,0,1.3427513,-1.5921494,882.27392)" />
    <linearGradient
       id="linearGradient4262">
      <stop
         style="stop-color:#51ff00;stop-opacity:1;"
         offset="0"
         id="stop4264" />
      <stop
         style="stop-color:#267900;stop-opacity:1;"
         offset="1"
         id="stop4266" />
    </linearGradient>
    <inkscape:perspective
       sodipodi:type="inkscape:persp3d"
       inkscape:vp_x="0 : 526.18109 : 1"
       inkscape:vp_y="0 : 1000 : 0"
       inkscape:vp_z="744.09448 : 526.18109 : 1"
       inkscape:persp3d-origin="372.04724 : 350.78739 : 1"
       id="perspective10" />
    <inkscape:perspective
       id="perspective2447"
       inkscape:persp3d-origin="372.04724 : 350.78739 : 1"
       inkscape:vp_z="744.09448 : 526.18109 : 1"
       inkscape:vp_y="0 : 1000 : 0"
       inkscape:vp_x="0 : 526.18109 : 1"
       sodipodi:type="inkscape:persp3d" />
    <inkscape:perspective
       id="perspective3125"
       inkscape:persp3d-origin="372.04724 : 350.78739 : 1"
       inkscape:vp_z="744.09448 : 526.18109 : 1"
       inkscape:vp_y="0 : 1000 : 0"
       inkscape:vp_x="0 : 526.18109 : 1"
       sodipodi:type="inkscape:persp3d" />
    <inkscape:perspective
       id="perspective3201"
       inkscape:persp3d-origin="372.04724 : 350.78739 : 1"
       inkscape:vp_z="744.09448 : 526.18109 : 1"
       inkscape:vp_y="0 : 1000 : 0"
       inkscape:vp_x="0 : 526.18109 : 1"
       sodipodi:type="inkscape:persp3d" />
    <inkscape:perspective
       id="perspective3277"
       inkscape:persp3d-origin="372.04724 : 350.78739 : 1"
       inkscape:vp_z="744.09448 : 526.18109 : 1"
       inkscape:vp_y="0 : 1000 : 0"
       inkscape:vp_x="0 : 526.18109 : 1"
       sodipodi:type="inkscape:persp3d" />
    <inkscape:perspective
       id="perspective3345"
       inkscape:persp3d-origin="372.04724 : 350.78739 : 1"
       inkscape:vp_z="744.09448 : 526.18109 : 1"
       inkscape:vp_y="0 : 1000 : 0"
       inkscape:vp_x="0 : 526.18109 : 1"
       sodipodi:type="inkscape:persp3d" />
    <inkscape:perspective
       id="perspective3433"
       inkscape:persp3d-origin="372.04724 : 350.78739 : 1"
       inkscape:vp_z="744.09448 : 526.18109 : 1"
       inkscape:vp_y="0 : 1000 : 0"
       inkscape:vp_x="0 : 526.18109 : 1"
       sodipodi:type="inkscape:persp3d" />
  </defs>
  <sodipodi:namedview
     id="base"
     pagecolor="#ffffff"
     bordercolor="#666666"
     borderopacity="1.0"
     gridtolerance="10000"
     guidetolerance="10"
     objecttolerance="10"
     inkscape:pageopacity="0.0"
     inkscape:pageshadow="2"
     inkscape:zoom="1.0152381"
     inkscape:cx="152.67355"
     inkscape:cy="262.5"
     inkscape:document-units="px"
     inkscape:current-layer="layer1"
     showgrid="false"
     inkscape:window-width="1280"
     inkscape:window-height="735"
     inkscape:window-x="0"
     inkscape:window-y="24" />
  <metadata
     id="metadata7">
    <rdf:RDF>
      <cc:Work
         rdf:about="">
        <dc:format>image/svg+xml</dc:format>
        <dc:type
           rdf:resource="http://purl.org/dc/dcmitype/StillImage" />
      </cc:Work>
    </rdf:RDF>
  </metadata>
  <g
     inkscape:label="Layer 1"
     inkscape:groupmode="layer"
     id="layer1"
     transform="translate(-169.70945,-261.08105)">
    <g
       id="g5270"
       transform="matrix(0.8769136,0.1621503,-0.1621503,0.8769136,121.37966,-0.2154889)">
      <rect
         y="368.47272"
         x="249.11784"
         height="100.69507"
         width="469.91034"
         id="rect5180"
         style="opacity:1;fill:url(#pattern5268);fill-opacity:1;fill-rule:nonzero;stroke:#713901;stroke-width:1.12135363;stroke-linecap:round;stroke-linejoin:miter;stroke-miterlimit:4;stroke-dasharray:none;stroke-opacity:1" />
      <rect
         transform="matrix(0.9684482,-0.249215,0.249215,0.9684482,0,0)"
         y="536.43909"
         x="20.10644"
         height="100.69507"
         width="469.91034"
         id="rect5194"
         style="opacity:1;fill:url(#pattern5196);fill-opacity:1;fill-rule:nonzero;stroke:#713901;stroke-width:1.12135363;stroke-linecap:round;stroke-linejoin:miter;stroke-miterlimit:4;stroke-dasharray:none;stroke-opacity:1" />
      <rect
         transform="matrix(0.9653917,0.2608043,-0.2608043,0.9653917,0,0)"
         y="338.92822"
         x="387.99725"
         height="100.69507"
         width="469.91034"
         id="rect5198"
         style="opacity:1;fill:url(#pattern5200);fill-opacity:1;fill-rule:nonzero;stroke:#713901;stroke-width:1.12135363;stroke-linecap:round;stroke-linejoin:miter;stroke-miterlimit:4;stroke-dasharray:none;stroke-opacity:1" />
    </g>
  </g>
</svg>
