<?xml version="1.0" encoding="UTF-8" standalone="no"?>
<!-- Created with Inkscape (http://www.inkscape.org/) -->
<svg
   xmlns:dc="http://purl.org/dc/elements/1.1/"
   xmlns:cc="http://creativecommons.org/ns#"
   xmlns:rdf="http://www.w3.org/1999/02/22-rdf-syntax-ns#"
   xmlns:svg="http://www.w3.org/2000/svg"
   xmlns="http://www.w3.org/2000/svg"
   xmlns:sodipodi="http://sodipodi.sourceforge.net/DTD/sodipodi-0.dtd"
   xmlns:inkscape="http://www.inkscape.org/namespaces/inkscape"
   width="525"
   height="525"
   id="svg2"
   sodipodi:version="0.32"
   inkscape:version="0.46"
   version="1.0"
   sodipodi:docname="chkn_death.svg"
   inkscape:output_extension="org.inkscape.output.svg.inkscape">
  <defs
     id="defs4">
    <inkscape:perspective
       sodipodi:type="inkscape:persp3d"
       inkscape:vp_x="0 : 526.18109 : 1"
       inkscape:vp_y="0 : 1000 : 0"
       inkscape:vp_z="744.09448 : 526.18109 : 1"
       inkscape:persp3d-origin="372.04724 : 350.78739 : 1"
       id="perspective10" />
    <inkscape:perspective
       id="perspective2447"
       inkscape:persp3d-origin="372.04724 : 350.78739 : 1"
       inkscape:vp_z="744.09448 : 526.18109 : 1"
       inkscape:vp_y="0 : 1000 : 0"
       inkscape:vp_x="0 : 526.18109 : 1"
       sodipodi:type="inkscape:persp3d" />
  </defs>
  <sodipodi:namedview
     id="base"
     pagecolor="#ffffff"
     bordercolor="#666666"
     borderopacity="1.0"
     gridtolerance="10000"
     guidetolerance="10"
     objecttolerance="10"
     inkscape:pageopacity="0.0"
     inkscape:pageshadow="2"
     inkscape:zoom="1.0114286"
     inkscape:cx="262.5"
     inkscape:cy="261.5113"
     inkscape:document-units="px"
     inkscape:current-layer="layer1"
     showgrid="false"
     inkscape:window-width="1280"
     inkscape:window-height="735"
     inkscape:window-x="1280"
     inkscape:window-y="24" />
  <metadata
     id="metadata7">
    <rdf:RDF>
      <cc:Work
         rdf:about="">
        <dc:format>image/svg+xml</dc:format>
        <dc:type
           rdf:resource="http://purl.org/dc/dcmitype/StillImage" />
      </cc:Work>
    </rdf:RDF>
  </metadata>
  <g
     inkscape:label="Layer 1"
     inkscape:groupmode="layer"
     id="layer1"
     transform="translate(-169.70945,-261.08105)">
    <g
       id="g6873">
      <path
         transform="translate(268.20852,330.03039)"
         d="M 313.22703,90.619146 C 333.69611,137.19998 272.29524,147.86919 263.48281,197.98006 C 255.36321,244.15121 310.26597,275.1635 275.2759,306.36283 C 237.30019,340.22436 208.17925,285.12562 157.7978,292.22962 C 111.37733,298.77509 98.848777,360.57404 58.363921,336.93763 C 14.424556,311.28437 57.827701,266.56227 35.502677,220.84191 C 14.932845,178.71608 -47.712981,185.89765 -37.74393,140.09021 C -26.924237,90.374098 29.021318,117.83305 65.605151,82.472326 C 99.312765,49.891657 73.124064,-7.4688381 119.77013,-12.142984 C 170.39644,-17.215968 161.56954,44.476699 206.50462,68.342926 C 247.9069,90.332793 294.36722,47.70049 313.22703,90.619146 z"
         inkscape:randomized="0"
         inkscape:rounded="0.43"
         inkscape:flatsided="false"
         sodipodi:arg2="0.21421339"
         sodipodi:arg1="-0.4541916"
         sodipodi:r2="120.45738"
         sodipodi:r1="186.34035"
         sodipodi:cy="172.37337"
         sodipodi:cx="145.77861"
         sodipodi:sides="5"
         id="path6286"
         style="opacity:1;fill:#ff2200;fill-opacity:1;stroke:#ffba00;stroke-width:0;stroke-linecap:round;stroke-linejoin:round;stroke-miterlimit:4;stroke-dasharray:none;stroke-opacity:1"
         sodipodi:type="star" />
      <path
         transform="matrix(0.8960172,-0.4440193,0.4440193,0.8960172,23.235837,337.54531)"
         d="M 91.604126,331.44934 A 28.072231,21.177298 0 1 1 35.459663,331.44934 A 28.072231,21.177298 0 1 1 91.604126,331.44934 z"
         sodipodi:ry="21.177298"
         sodipodi:rx="28.072231"
         sodipodi:cy="331.44934"
         sodipodi:cx="63.531895"
         id="path6809"
         style="opacity:1;fill:#ff2200;fill-opacity:1;stroke:#f9ff42;stroke-width:0;stroke-linecap:round;stroke-linejoin:round;stroke-miterlimit:4;stroke-dasharray:none;stroke-opacity:1"
         sodipodi:type="arc" />
      <path
         transform="matrix(0.7160083,-0.6980918,0.6980918,0.7160083,204.09505,120.31618)"
         d="M 91.604126,331.44934 A 28.072231,21.177298 0 1 1 35.459663,331.44934 A 28.072231,21.177298 0 1 1 91.604126,331.44934 z"
         sodipodi:ry="21.177298"
         sodipodi:rx="28.072231"
         sodipodi:cy="331.44934"
         sodipodi:cx="63.531895"
         id="path6811"
         style="opacity:1;fill:#ff2200;fill-opacity:1;stroke:#f9ff42;stroke-width:0;stroke-linecap:round;stroke-linejoin:round;stroke-miterlimit:4;stroke-dasharray:none;stroke-opacity:1"
         sodipodi:type="arc" />
      <path
         transform="matrix(0.913116,0.4076999,-0.4076999,0.913116,297.06384,69.44111)"
         d="M 91.604126,331.44934 A 28.072231,21.177298 0 1 1 35.459663,331.44934 A 28.072231,21.177298 0 1 1 91.604126,331.44934 z"
         sodipodi:ry="21.177298"
         sodipodi:rx="28.072231"
         sodipodi:cy="331.44934"
         sodipodi:cx="63.531895"
         id="path6813"
         style="opacity:1;fill:#ff2200;fill-opacity:1;stroke:#f9ff42;stroke-width:0;stroke-linecap:round;stroke-linejoin:round;stroke-miterlimit:4;stroke-dasharray:none;stroke-opacity:1"
         sodipodi:type="arc" />
      <path
         transform="matrix(0.8572962,0.5148235,-0.5148235,0.8572962,735.03743,344.12928)"
         d="M 91.604126,331.44934 A 28.072231,21.177298 0 1 1 35.459663,331.44934 A 28.072231,21.177298 0 1 1 91.604126,331.44934 z"
         sodipodi:ry="21.177298"
         sodipodi:rx="28.072231"
         sodipodi:cy="331.44934"
         sodipodi:cx="63.531895"
         id="path6815"
         style="opacity:1;fill:#ff2200;fill-opacity:1;stroke:#f9ff42;stroke-width:0;stroke-linecap:round;stroke-linejoin:round;stroke-miterlimit:4;stroke-dasharray:none;stroke-opacity:1"
         sodipodi:type="arc" />
    </g>
    <g
       id="g6821"
       transform="matrix(0.9289336,-0.3702465,0.3702465,0.9289336,-194.4865,44.728313)">
      <g
         id="g6825"
         transform="matrix(-0.620749,0.3361784,-0.337956,-0.6140348,389.31301,1069.8826)">
        <path
           style="fill:#f0ff33;fill-opacity:1;fill-rule:evenodd;stroke:#fbffb8;stroke-width:0;stroke-linecap:butt;stroke-linejoin:miter;stroke-miterlimit:4;stroke-dasharray:none;stroke-opacity:1"
           d="M -96.416098,642.65825 C -94.000995,623.7713 -74.175494,599.2742 -74.906196,597.8128 C -74.28492,579.58087 -86.755098,597.08483 -99.460102,585.92576 C -82.112618,587.6459 -75.698819,578.20104 -67.25444,586.84583 C -72.01019,564.60397 -101.4653,575.35389 -98.331517,557.05681 C -95.432549,573.94228 -84.494126,554.77334 -60.939359,580.46879 C -46.094069,557.75316 -87.808627,554.41729 -97.157252,548.27796 C -87.464049,547.85574 -52.739915,550.8926 -53.194481,568.98503 C -44.435161,558.02543 -78.24509,534.04447 -87.340818,533.72079 C -76.049414,531.73317 -40.324273,551.14419 -46.35582,561.71378 C -37.911763,553.4752 -61.029247,531.59883 -69.49006,525.65437 C -60.936397,528.31164 -36.364358,542.19517 -40.82009,555.58351 C -29.739707,543.32029 -52.890933,528.98193 -56.504374,522.42419 C -51.773637,521.21227 -31.973592,538.7178 -32.003498,546.48123 C -38.102726,501.81868 -25.797011,503.22055 -30.220289,486.10035 C -16.814451,483.71633 6.9625202,486.27139 10.675214,494.80908 C 13.131858,481.19269 -1.3813946,467.51783 -13.60119,459.77202 C 10.763404,447.56295 9.2427607,431.7532 33.575759,430.01009 C 55.634031,436.08161 57.354963,451.55954 60.909016,460.43608 C 62.313717,446.54984 60.150438,437.45893 52.031832,429.28667 C 97.98437,412.95874 119.68686,408.83951 131.28128,427.02215 C 142.8757,445.20479 135.92385,456.45546 136.04169,481.03817 C 131.95882,481.36744 124.47184,471.25502 98.789812,475.3048 C 117.8822,479.46009 125.59164,481.47317 128.389,491.37965 C 126.22681,532.08463 100.63239,530.29042 86.736466,557.01343 C 81.464747,550.88235 76.878638,534.56914 59.210193,530.34524 C 73.592552,537.97323 78.505975,552.8672 73.744617,560.2218 C 41.185544,549.96432 43.958534,585.58812 -23.881339,553.93212 C -13.587938,573.43275 3.8487227,575.05527 10.964234,582.69205 C -1.1769089,586.2416 -26.579957,563.76826 -31.101121,561.13901 C -36.0133,562.02889 -0.65860948,590.14212 7.5888318,600.03369 C -3.6555257,596.85109 -30.338265,568.63181 -38.618572,570.45941 C -33.244495,565.45058 -0.41982877,607.26115 -10.962402,615.23502 C -10.272218,612.79037 -20.406351,579.9369 -44.091385,577.82213 C -33.048128,589.9543 -21.463292,614.31231 -17.461766,624.4245 C -30.046753,619.08411 -22.881393,602.47361 -51.244149,586.56313 C -36.326599,600.14632 -38.295762,624.78308 -33.149981,632.75411 C -46.880852,629.73291 -35.126204,596.20849 -59.158216,597.72191 C -43.501876,612.26312 -58.01131,628.69924 -54.374576,636.93377 C -62.673426,628.12184 -51.944471,606.1675 -65.585326,607.10177 C -78.667505,619.36277 -84.362413,630.38165 -96.416098,642.65825 z"
           id="path6817"
           sodipodi:nodetypes="cccccccccccccccccccczcccccccccccccccccccc" />
        <path
           style="fill:#a9b700;fill-opacity:1;fill-rule:evenodd;stroke:#000000;stroke-width:0;stroke-linecap:butt;stroke-linejoin:miter;stroke-miterlimit:4;stroke-dasharray:none;stroke-opacity:1"
           d="M -266.67726,381.79221 C -234.31694,360.21532 -238.1177,314.42082 -72.653804,188.18872 C -160.55267,228.81253 -263.95111,343.00827 -266.67726,381.79221 z"
           id="path6819"
           transform="translate(169.70945,261.08105)"
           sodipodi:nodetypes="ccc" />
      </g>
      <g
         id="g6829"
         transform="matrix(0.7059317,2.3887967e-3,2.3888418e-3,0.7008904,340.33374,321.13471)">
        <path
           style="fill:#f0ff33;fill-opacity:1;fill-rule:evenodd;stroke:#fbffb8;stroke-width:0;stroke-linecap:butt;stroke-linejoin:miter;stroke-miterlimit:4;stroke-dasharray:none;stroke-opacity:1"
           d="M -96.416098,642.65825 C -94.000995,623.7713 -74.175494,599.2742 -74.906196,597.8128 C -74.28492,579.58087 -86.755098,597.08483 -99.460102,585.92576 C -82.112618,587.6459 -75.698819,578.20104 -67.25444,586.84583 C -72.01019,564.60397 -101.4653,575.35389 -98.331517,557.05681 C -95.432549,573.94228 -84.494126,554.77334 -60.939359,580.46879 C -46.094069,557.75316 -87.808627,554.41729 -97.157252,548.27796 C -87.464049,547.85574 -52.739915,550.8926 -53.194481,568.98503 C -44.435161,558.02543 -78.24509,534.04447 -87.340818,533.72079 C -76.049414,531.73317 -40.324273,551.14419 -46.35582,561.71378 C -37.911763,553.4752 -61.029247,531.59883 -69.49006,525.65437 C -60.936397,528.31164 -36.364358,542.19517 -40.82009,555.58351 C -29.739707,543.32029 -52.890933,528.98193 -56.504374,522.42419 C -51.773637,521.21227 -31.973592,538.7178 -32.003498,546.48123 C -38.102726,501.81868 -25.797011,503.22055 -30.220289,486.10035 C -16.814451,483.71633 6.9625202,486.27139 10.675214,494.80908 C 13.131858,481.19269 -1.3813946,467.51783 -13.60119,459.77202 C 10.763404,447.56295 9.2427607,431.7532 33.575759,430.01009 C 55.634031,436.08161 57.354963,451.55954 60.909016,460.43608 C 62.313717,446.54984 60.150438,437.45893 52.031832,429.28667 C 97.98437,412.95874 119.68686,408.83951 131.28128,427.02215 C 142.8757,445.20479 135.92385,456.45546 136.04169,481.03817 C 131.95882,481.36744 124.47184,471.25502 98.789812,475.3048 C 117.8822,479.46009 125.59164,481.47317 128.389,491.37965 C 126.22681,532.08463 100.63239,530.29042 86.736466,557.01343 C 81.464747,550.88235 76.878638,534.56914 59.210193,530.34524 C 73.592552,537.97323 78.505975,552.8672 73.744617,560.2218 C 41.185544,549.96432 43.958534,585.58812 -23.881339,553.93212 C -13.587938,573.43275 3.8487227,575.05527 10.964234,582.69205 C -1.1769089,586.2416 -26.579957,563.76826 -31.101121,561.13901 C -36.0133,562.02889 -0.65860948,590.14212 7.5888318,600.03369 C -3.6555257,596.85109 -30.338265,568.63181 -38.618572,570.45941 C -33.244495,565.45058 -0.41982877,607.26115 -10.962402,615.23502 C -10.272218,612.79037 -20.406351,579.9369 -44.091385,577.82213 C -33.048128,589.9543 -21.463292,614.31231 -17.461766,624.4245 C -30.046753,619.08411 -22.881393,602.47361 -51.244149,586.56313 C -36.326599,600.14632 -38.295762,624.78308 -33.149981,632.75411 C -46.880852,629.73291 -35.126204,596.20849 -59.158216,597.72191 C -43.501876,612.26312 -58.01131,628.69924 -54.374576,636.93377 C -62.673426,628.12184 -51.944471,606.1675 -65.585326,607.10177 C -78.667505,619.36277 -84.362413,630.38165 -96.416098,642.65825 z"
           id="path6831"
           sodipodi:nodetypes="cccccccccccccccccccczcccccccccccccccccccc" />
        <path
           style="fill:#a9b700;fill-opacity:1;fill-rule:evenodd;stroke:#000000;stroke-width:0;stroke-linecap:butt;stroke-linejoin:miter;stroke-miterlimit:4;stroke-dasharray:none;stroke-opacity:1"
           d="M -266.67726,381.79221 C -234.31694,360.21532 -238.1177,314.42082 -72.653804,188.18872 C -160.55267,228.81253 -263.95111,343.00827 -266.67726,381.79221 z"
           id="path6833"
           transform="translate(169.70945,261.08105)"
           sodipodi:nodetypes="ccc" />
      </g>
      <g
         id="g6835"
         transform="matrix(0.7031662,6.2471033e-2,6.6765363e-2,-0.6977072,280.07109,883.32196)">
        <path
           style="fill:#f0ff33;fill-opacity:1;fill-rule:evenodd;stroke:#fbffb8;stroke-width:0;stroke-linecap:butt;stroke-linejoin:miter;stroke-miterlimit:4;stroke-dasharray:none;stroke-opacity:1"
           d="M -96.416098,642.65825 C -94.000995,623.7713 -74.175494,599.2742 -74.906196,597.8128 C -74.28492,579.58087 -86.755098,597.08483 -99.460102,585.92576 C -82.112618,587.6459 -75.698819,578.20104 -67.25444,586.84583 C -72.01019,564.60397 -101.4653,575.35389 -98.331517,557.05681 C -95.432549,573.94228 -84.494126,554.77334 -60.939359,580.46879 C -46.094069,557.75316 -87.808627,554.41729 -97.157252,548.27796 C -87.464049,547.85574 -52.739915,550.8926 -53.194481,568.98503 C -44.435161,558.02543 -78.24509,534.04447 -87.340818,533.72079 C -76.049414,531.73317 -40.324273,551.14419 -46.35582,561.71378 C -37.911763,553.4752 -61.029247,531.59883 -69.49006,525.65437 C -60.936397,528.31164 -36.364358,542.19517 -40.82009,555.58351 C -29.739707,543.32029 -52.890933,528.98193 -56.504374,522.42419 C -51.773637,521.21227 -31.973592,538.7178 -32.003498,546.48123 C -38.102726,501.81868 -25.797011,503.22055 -30.220289,486.10035 C -16.814451,483.71633 6.9625202,486.27139 10.675214,494.80908 C 13.131858,481.19269 -1.3813946,467.51783 -13.60119,459.77202 C 10.763404,447.56295 9.2427607,431.7532 33.575759,430.01009 C 55.634031,436.08161 57.354963,451.55954 60.909016,460.43608 C 62.313717,446.54984 60.150438,437.45893 52.031832,429.28667 C 97.98437,412.95874 119.68686,408.83951 131.28128,427.02215 C 142.8757,445.20479 135.92385,456.45546 136.04169,481.03817 C 131.95882,481.36744 124.47184,471.25502 98.789812,475.3048 C 117.8822,479.46009 125.59164,481.47317 128.389,491.37965 C 126.22681,532.08463 100.63239,530.29042 86.736466,557.01343 C 81.464747,550.88235 76.878638,534.56914 59.210193,530.34524 C 73.592552,537.97323 78.505975,552.8672 73.744617,560.2218 C 41.185544,549.96432 43.958534,585.58812 -23.881339,553.93212 C -13.587938,573.43275 3.8487227,575.05527 10.964234,582.69205 C -1.1769089,586.2416 -26.579957,563.76826 -31.101121,561.13901 C -36.0133,562.02889 -0.65860948,590.14212 7.5888318,600.03369 C -3.6555257,596.85109 -30.338265,568.63181 -38.618572,570.45941 C -33.244495,565.45058 -0.41982877,607.26115 -10.962402,615.23502 C -10.272218,612.79037 -20.406351,579.9369 -44.091385,577.82213 C -33.048128,589.9543 -21.463292,614.31231 -17.461766,624.4245 C -30.046753,619.08411 -22.881393,602.47361 -51.244149,586.56313 C -36.326599,600.14632 -38.295762,624.78308 -33.149981,632.75411 C -46.880852,629.73291 -35.126204,596.20849 -59.158216,597.72191 C -43.501876,612.26312 -58.01131,628.69924 -54.374576,636.93377 C -62.673426,628.12184 -51.944471,606.1675 -65.585326,607.10177 C -78.667505,619.36277 -84.362413,630.38165 -96.416098,642.65825 z"
           id="path6837"
           sodipodi:nodetypes="cccccccccccccccccccczcccccccccccccccccccc" />
        <path
           style="fill:#a9b700;fill-opacity:1;fill-rule:evenodd;stroke:#000000;stroke-width:0;stroke-linecap:butt;stroke-linejoin:miter;stroke-miterlimit:4;stroke-dasharray:none;stroke-opacity:1"
           d="M -266.67726,381.79221 C -234.31694,360.21532 -238.1177,314.42082 -72.653804,188.18872 C -160.55267,228.81253 -263.95111,343.00827 -266.67726,381.79221 z"
           id="path6839"
           transform="translate(169.70945,261.08105)"
           sodipodi:nodetypes="ccc" />
      </g>
      <g
         id="g6841"
         transform="matrix(0.2816191,0.6473299,-0.6407932,0.2839669,827.33758,599.2055)">
        <path
           style="fill:#f0ff33;fill-opacity:1;fill-rule:evenodd;stroke:#fbffb8;stroke-width:0;stroke-linecap:butt;stroke-linejoin:miter;stroke-miterlimit:4;stroke-dasharray:none;stroke-opacity:1"
           d="M -96.416098,642.65825 C -94.000995,623.7713 -74.175494,599.2742 -74.906196,597.8128 C -74.28492,579.58087 -86.755098,597.08483 -99.460102,585.92576 C -82.112618,587.6459 -75.698819,578.20104 -67.25444,586.84583 C -72.01019,564.60397 -101.4653,575.35389 -98.331517,557.05681 C -95.432549,573.94228 -84.494126,554.77334 -60.939359,580.46879 C -46.094069,557.75316 -87.808627,554.41729 -97.157252,548.27796 C -87.464049,547.85574 -52.739915,550.8926 -53.194481,568.98503 C -44.435161,558.02543 -78.24509,534.04447 -87.340818,533.72079 C -76.049414,531.73317 -40.324273,551.14419 -46.35582,561.71378 C -37.911763,553.4752 -61.029247,531.59883 -69.49006,525.65437 C -60.936397,528.31164 -36.364358,542.19517 -40.82009,555.58351 C -29.739707,543.32029 -52.890933,528.98193 -56.504374,522.42419 C -51.773637,521.21227 -31.973592,538.7178 -32.003498,546.48123 C -38.102726,501.81868 -25.797011,503.22055 -30.220289,486.10035 C -16.814451,483.71633 6.9625202,486.27139 10.675214,494.80908 C 13.131858,481.19269 -1.3813946,467.51783 -13.60119,459.77202 C 10.763404,447.56295 9.2427607,431.7532 33.575759,430.01009 C 55.634031,436.08161 57.354963,451.55954 60.909016,460.43608 C 62.313717,446.54984 60.150438,437.45893 52.031832,429.28667 C 97.98437,412.95874 119.68686,408.83951 131.28128,427.02215 C 142.8757,445.20479 135.92385,456.45546 136.04169,481.03817 C 131.95882,481.36744 124.47184,471.25502 98.789812,475.3048 C 117.8822,479.46009 125.59164,481.47317 128.389,491.37965 C 126.22681,532.08463 100.63239,530.29042 86.736466,557.01343 C 81.464747,550.88235 76.878638,534.56914 59.210193,530.34524 C 73.592552,537.97323 78.505975,552.8672 73.744617,560.2218 C 41.185544,549.96432 43.958534,585.58812 -23.881339,553.93212 C -13.587938,573.43275 3.8487227,575.05527 10.964234,582.69205 C -1.1769089,586.2416 -26.579957,563.76826 -31.101121,561.13901 C -36.0133,562.02889 -0.65860948,590.14212 7.5888318,600.03369 C -3.6555257,596.85109 -30.338265,568.63181 -38.618572,570.45941 C -33.244495,565.45058 -0.41982877,607.26115 -10.962402,615.23502 C -10.272218,612.79037 -20.406351,579.9369 -44.091385,577.82213 C -33.048128,589.9543 -21.463292,614.31231 -17.461766,624.4245 C -30.046753,619.08411 -22.881393,602.47361 -51.244149,586.56313 C -36.326599,600.14632 -38.295762,624.78308 -33.149981,632.75411 C -46.880852,629.73291 -35.126204,596.20849 -59.158216,597.72191 C -43.501876,612.26312 -58.01131,628.69924 -54.374576,636.93377 C -62.673426,628.12184 -51.944471,606.1675 -65.585326,607.10177 C -78.667505,619.36277 -84.362413,630.38165 -96.416098,642.65825 z"
           id="path6843"
           sodipodi:nodetypes="cccccccccccccccccccczcccccccccccccccccccc" />
        <path
           style="fill:#a9b700;fill-opacity:1;fill-rule:evenodd;stroke:#000000;stroke-width:0;stroke-linecap:butt;stroke-linejoin:miter;stroke-miterlimit:4;stroke-dasharray:none;stroke-opacity:1"
           d="M -266.67726,381.79221 C -234.31694,360.21532 -238.1177,314.42082 -72.653804,188.18872 C -160.55267,228.81253 -263.95111,343.00827 -266.67726,381.79221 z"
           id="path6845"
           transform="translate(169.70945,261.08105)"
           sodipodi:nodetypes="ccc" />
      </g>
      <g
         id="g6847"
         transform="matrix(0.7059317,2.3887967e-3,2.3888418e-3,0.7008904,550.97861,219.89672)">
        <path
           style="fill:#f0ff33;fill-opacity:1;fill-rule:evenodd;stroke:#fbffb8;stroke-width:0;stroke-linecap:butt;stroke-linejoin:miter;stroke-miterlimit:4;stroke-dasharray:none;stroke-opacity:1"
           d="M -96.416098,642.65825 C -94.000995,623.7713 -74.175494,599.2742 -74.906196,597.8128 C -74.28492,579.58087 -86.755098,597.08483 -99.460102,585.92576 C -82.112618,587.6459 -75.698819,578.20104 -67.25444,586.84583 C -72.01019,564.60397 -101.4653,575.35389 -98.331517,557.05681 C -95.432549,573.94228 -84.494126,554.77334 -60.939359,580.46879 C -46.094069,557.75316 -87.808627,554.41729 -97.157252,548.27796 C -87.464049,547.85574 -52.739915,550.8926 -53.194481,568.98503 C -44.435161,558.02543 -78.24509,534.04447 -87.340818,533.72079 C -76.049414,531.73317 -40.324273,551.14419 -46.35582,561.71378 C -37.911763,553.4752 -61.029247,531.59883 -69.49006,525.65437 C -60.936397,528.31164 -36.364358,542.19517 -40.82009,555.58351 C -29.739707,543.32029 -52.890933,528.98193 -56.504374,522.42419 C -51.773637,521.21227 -31.973592,538.7178 -32.003498,546.48123 C -38.102726,501.81868 -25.797011,503.22055 -30.220289,486.10035 C -16.814451,483.71633 6.9625202,486.27139 10.675214,494.80908 C 13.131858,481.19269 -1.3813946,467.51783 -13.60119,459.77202 C 10.763404,447.56295 9.2427607,431.7532 33.575759,430.01009 C 55.634031,436.08161 57.354963,451.55954 60.909016,460.43608 C 62.313717,446.54984 60.150438,437.45893 52.031832,429.28667 C 97.98437,412.95874 119.68686,408.83951 131.28128,427.02215 C 142.8757,445.20479 135.92385,456.45546 136.04169,481.03817 C 131.95882,481.36744 124.47184,471.25502 98.789812,475.3048 C 117.8822,479.46009 125.59164,481.47317 128.389,491.37965 C 126.22681,532.08463 100.63239,530.29042 86.736466,557.01343 C 81.464747,550.88235 76.878638,534.56914 59.210193,530.34524 C 73.592552,537.97323 78.505975,552.8672 73.744617,560.2218 C 41.185544,549.96432 43.958534,585.58812 -23.881339,553.93212 C -13.587938,573.43275 3.8487227,575.05527 10.964234,582.69205 C -1.1769089,586.2416 -26.579957,563.76826 -31.101121,561.13901 C -36.0133,562.02889 -0.65860948,590.14212 7.5888318,600.03369 C -3.6555257,596.85109 -30.338265,568.63181 -38.618572,570.45941 C -33.244495,565.45058 -0.41982877,607.26115 -10.962402,615.23502 C -10.272218,612.79037 -20.406351,579.9369 -44.091385,577.82213 C -33.048128,589.9543 -21.463292,614.31231 -17.461766,624.4245 C -30.046753,619.08411 -22.881393,602.47361 -51.244149,586.56313 C -36.326599,600.14632 -38.295762,624.78308 -33.149981,632.75411 C -46.880852,629.73291 -35.126204,596.20849 -59.158216,597.72191 C -43.501876,612.26312 -58.01131,628.69924 -54.374576,636.93377 C -62.673426,628.12184 -51.944471,606.1675 -65.585326,607.10177 C -78.667505,619.36277 -84.362413,630.38165 -96.416098,642.65825 z"
           id="path6849"
           sodipodi:nodetypes="cccccccccccccccccccczcccccccccccccccccccc" />
        <path
           style="fill:#a9b700;fill-opacity:1;fill-rule:evenodd;stroke:#000000;stroke-width:0;stroke-linecap:butt;stroke-linejoin:miter;stroke-miterlimit:4;stroke-dasharray:none;stroke-opacity:1"
           d="M -266.67726,381.79221 C -234.31694,360.21532 -238.1177,314.42082 -72.653804,188.18872 C -160.55267,228.81253 -263.95111,343.00827 -266.67726,381.79221 z"
           id="path6851"
           transform="translate(169.70945,261.08105)"
           sodipodi:nodetypes="ccc" />
      </g>
    </g>
  </g>
</svg>
