<?xml version="1.0" encoding="UTF-8" standalone="no"?>
<!-- Created with Inkscape (http://www.inkscape.org/) -->
<svg
   xmlns:dc="http://purl.org/dc/elements/1.1/"
   xmlns:cc="http://creativecommons.org/ns#"
   xmlns:rdf="http://www.w3.org/1999/02/22-rdf-syntax-ns#"
   xmlns:svg="http://www.w3.org/2000/svg"
   xmlns="http://www.w3.org/2000/svg"
   xmlns:sodipodi="http://sodipodi.sourceforge.net/DTD/sodipodi-0.dtd"
   xmlns:inkscape="http://www.inkscape.org/namespaces/inkscape"
   width="270.63596"
   height="338.47787"
   id="svg2"
   sodipodi:version="0.32"
   inkscape:version="0.46"
   version="1.0"
   sodipodi:docname="egg.svg"
   inkscape:output_extension="org.inkscape.output.svg.inkscape">
  <defs
     id="defs4">
    <inkscape:perspective
       sodipodi:type="inkscape:persp3d"
       inkscape:vp_x="0 : 526.18109 : 1"
       inkscape:vp_y="0 : 1000 : 0"
       inkscape:vp_z="744.09448 : 526.18109 : 1"
       inkscape:persp3d-origin="372.04724 : 350.78739 : 1"
       id="perspective10" />
    <inkscape:perspective
       id="perspective2447"
       inkscape:persp3d-origin="372.04724 : 350.78739 : 1"
       inkscape:vp_z="744.09448 : 526.18109 : 1"
       inkscape:vp_y="0 : 1000 : 0"
       inkscape:vp_x="0 : 526.18109 : 1"
       sodipodi:type="inkscape:persp3d" />
  </defs>
  <sodipodi:namedview
     id="base"
     pagecolor="#ffffff"
     bordercolor="#666666"
     borderopacity="1.0"
     gridtolerance="10000"
     guidetolerance="10"
     objecttolerance="10"
     inkscape:pageopacity="0.0"
     inkscape:pageshadow="2"
     inkscape:zoom="1.5746967"
     inkscape:cx="135.31798"
     inkscape:cy="163.23311"
     inkscape:document-units="px"
     inkscape:current-layer="layer1"
     showgrid="false"
     inkscape:window-width="1278"
     inkscape:window-height="735"
     inkscape:window-x="0"
     inkscape:window-y="64" />
  <metadata
     id="metadata7">
    <rdf:RDF>
      <cc:Work
         rdf:about="">
        <dc:format>image/svg+xml</dc:format>
        <dc:type
           rdf:resource="http://purl.org/dc/dcmitype/StillImage" />
      </cc:Work>
    </rdf:RDF>
  </metadata>
  <g
     inkscape:label="Layer 1"
     inkscape:groupmode="layer"
     id="layer1"
     transform="translate(-230.41221,-550.04304)">
    <path
       style="fill:#e1a86a"
       d="M 352.02213,887.57684 C 309.2587,883.37919 272.34968,853.56166 253.10823,816.06878 C 226.35086,768.41235 223.89317,708.95847 241.87368,657.84667 C 258.86945,612.18912 291.89721,567.63765 340.46054,553.3596 C 376.83126,542.26361 414.62935,560.99125 440.9872,585.40245 C 470.12318,611.78037 490.40595,647.68648 496.53251,686.62703 C 502.60638,719.69467 503.91807,754.9941 493.03979,787.22991 C 480.92295,818.48556 463.01967,849.20317 433.71032,867.17525 C 409.91449,882.88016 380.46297,890.91807 352.02213,887.57684 z"
       id="path2507" />
    <path
       style="fill:#d5944b"
       d="M 346.90564,885.20441 C 310.48078,879.84047 280.94733,854.10094 260.50693,824.77756 C 232.91439,783.55494 226.93245,731.02889 236.07314,683.06227 C 245.46342,642.28463 267.34552,603.66329 299.47338,576.57624 C 325.17933,554.52288 362.38599,544.21651 394.71432,557.02223 C 430.28643,570.91659 458.72098,599.83338 477.56409,632.52157 C 496.69224,669.74098 503.03433,712.91945 499.52806,754.38691 C 497.21219,784.15786 482.90801,811.3452 466.76792,835.8403 C 440.34393,869.86364 396.489,891.46237 353.06146,885.97385 C 351.00205,885.78417 348.94588,885.5457 346.90564,885.20441 z M 335.17691,798.31268 C 344.04435,794.4115 351.59688,781.39707 356.19328,774.474 C 342.85759,775.62793 358.08602,759.85675 356.13837,752.26244 C 361.98859,741.97078 348.2598,732.96953 351.42692,725.7082 C 344.24295,718.94529 350.46305,722.50904 353.08122,722.21346 C 349.29015,716.6118 346.35619,716.46151 350.04984,711.82616 C 344.48744,701.01636 338.10562,686.94481 326.25933,686.16701 C 318.36915,684.86923 302.83279,684.55788 299.73352,691.34931 C 294.85899,697.50224 280.81134,709.93735 284.09027,719.15154 C 289.26193,725.46631 278.52475,727.24332 284.93747,735.35751 C 285.80682,748.69891 282.64936,759.3625 289.04955,770.15691 C 295.2815,781.55097 303.72207,790.80134 314.66554,798.11339 C 323.04077,793.91462 327.11745,805.04752 335.17691,798.31268 z"
       id="path2505" />
    <path
       style="fill:#b4875b"
       d="M 346.90564,885.20441 C 324.59205,881.59733 303.50004,871.00041 287.44366,855.14488 C 288.79929,845.30862 283.74816,857.2348 279.27609,847.55947 C 236.29875,805.11054 224.5682,739.49296 236.32596,681.88413 C 246.17863,640.65829 268.59381,601.5235 301.77698,574.75607 C 327.84974,553.20404 365.30538,544.34577 397.12521,557.92884 C 432.29802,572.73173 460.5707,601.75929 478.81353,634.87265 C 497.31712,672.70679 503.49443,716.23098 499.1213,757.96307 C 496.17123,786.42175 482.18531,812.30192 466.76792,835.8403 C 440.34393,869.86364 396.489,891.46237 353.06146,885.97385 C 351.00205,885.78417 348.94588,885.5457 346.90564,885.20441 z M 273.13107,836.63031 C 268.59268,831.45909 274.4724,843.10371 273.13107,836.63031 z M 328.04156,829.466 C 337.05477,827.8438 356.01146,827.46322 363.42968,815.716 C 374.42545,809.72854 377.67361,797.95038 380.9836,788.90202 C 383.97561,795.28928 387.62764,778.99556 385.67692,777.07762 C 382.86521,773.69088 391.66371,773.73546 385.9053,767.08855 C 383.20941,760.8219 395.08818,756.24889 386.24848,749.84181 C 391.92733,743.62426 389.90405,724.74655 383.17692,715.53447 C 377.10207,708.72209 392.13424,707.09723 381.17228,703.21599 C 381.65682,697.57468 370.87477,692.99272 380.21457,692.17546 C 376.81574,685.67623 370.85325,682.44265 367.13454,678.35838 C 371.87705,664.68058 352.85189,663.22916 353.88589,651.55993 C 345.39772,645.88366 339.00348,637.05121 328.06577,638.51413 C 328.21117,635.65556 334.36612,630.23407 324.52696,631.16428 C 321.20604,638.67032 321.43854,632.8755 316.52681,629.24638 C 309.03157,637.023 290.97479,636.32157 288.78358,650.28496 C 290.20762,654.46789 277.56787,651.26648 284.88139,655.98622 C 276.61275,659.32675 276.14362,671.18877 270.40727,670.92568 C 269.36541,680.21656 253.83425,681.17846 257.45241,691.27537 C 253.64655,684.87523 256.17913,700.68061 250.52575,703.402 C 250.74944,714.67506 240.832,730.30237 247.94539,739.0396 C 249.49409,750.47508 248.92065,759.8804 252.66642,771.74907 C 257.12575,781.4962 265.09874,790.6256 269.41779,799.92576 C 271.04029,805.5709 278.28008,811.61381 281.87016,811.58329 C 282.86789,815.19447 289.57446,822.42416 295.82218,820.97761 C 302.28321,825.68738 312.61894,830.06785 322.59506,831.23491 C 322.90581,830.44506 329.75781,832.44574 328.04156,829.466 z M 374.17691,794.27502 C 376.69942,790.35904 376.93098,796.37714 374.17691,794.27502 z M 382.81641,723.02216 C 380.27587,717.63807 389.48547,723.04284 382.81641,723.02216 z M 362.8436,678.04932 C 360.60703,668.97786 371.71188,680.27379 362.8436,678.04932 z M 323.81641,644.02216 C 321.27587,638.63807 330.48547,644.04284 323.81641,644.02216 z M 265.13107,826.63031 C 259.49303,820.67217 268.15818,833.63702 265.13107,826.63031 z M 328.67691,627.716 C 323.93996,623.34174 322.19677,631.91719 328.67691,627.716 z"
       id="path2503" />
    <path
       style="fill:#c88638"
       d="M 374.67691,882.6933 C 355.2164,880.96729 336.5137,875.16037 318.03313,869.17571 C 274.352,849.21858 243.70787,805.93541 236.14092,758.87546 C 232.56266,732.73232 232.3933,705.635 238.07383,679.78029 C 247.56967,642.90715 268.56409,609.05939 298.00651,584.79615 C 308.06147,576.40728 318.82213,568.22692 329.77399,561.6714 C 355.49823,546.88859 387.51738,551.93392 412.2109,566.28265 C 454.73084,590.67263 485.46431,634.09711 494.63155,682.24568 C 500.7144,710.31329 501.4653,739.701 497.06274,768.0509 C 488.13845,803.63994 470.28917,838.94568 439.9335,860.86034 C 421.41977,874.44818 398.18965,885.61382 374.67691,882.6933 z M 328.04156,829.466 C 337.05477,827.8438 356.01146,827.46322 363.42968,815.716 C 374.42545,809.72854 377.67361,797.95038 380.9836,788.90202 C 383.97561,795.28928 387.62764,778.99556 385.67692,777.07762 C 382.86521,773.69088 391.66371,773.73546 385.9053,767.08855 C 383.20941,760.8219 395.08818,756.24889 386.24848,749.84181 C 391.92733,743.62426 389.90405,724.74655 383.17692,715.53447 C 377.10207,708.72209 392.13424,707.09723 381.17228,703.21599 C 381.65682,697.57468 370.87477,692.99272 380.21457,692.17546 C 376.81574,685.67623 370.85325,682.44265 367.13454,678.35838 C 371.87705,664.68058 352.85189,663.22916 353.88589,651.55993 C 345.39772,645.88366 339.00348,637.05121 328.06577,638.51413 C 328.21117,635.65556 334.36612,630.23407 324.52696,631.16428 C 321.20604,638.67032 321.43854,632.8755 316.52681,629.24638 C 309.03157,637.023 290.97479,636.32157 288.78358,650.28496 C 290.20762,654.46789 277.56787,651.26648 284.88139,655.98622 C 276.61275,659.32675 276.14362,671.18877 270.40727,670.92568 C 269.36541,680.21656 253.83425,681.17846 257.45241,691.27537 C 253.64655,684.87523 256.17913,700.68061 250.52575,703.402 C 250.74944,714.67506 240.832,730.30237 247.94539,739.0396 C 249.49409,750.47508 248.92065,759.8804 252.66642,771.74907 C 257.12575,781.4962 265.09874,790.6256 269.41779,799.92576 C 271.04029,805.5709 278.28008,811.61381 281.87016,811.58329 C 282.86789,815.19447 289.57446,822.42416 295.82218,820.97761 C 302.28321,825.68738 312.61894,830.06785 322.59506,831.23491 C 322.90581,830.44506 329.75781,832.44574 328.04156,829.466 z M 374.17691,794.27502 C 376.69942,790.35904 376.93098,796.37714 374.17691,794.27502 z M 382.81641,723.02216 C 380.27587,717.63807 389.48547,723.04284 382.81641,723.02216 z M 362.8436,678.04932 C 360.60703,668.97786 371.71188,680.27379 362.8436,678.04932 z M 323.81641,644.02216 C 321.27587,638.63807 330.48547,644.04284 323.81641,644.02216 z M 328.67691,627.716 C 323.93996,623.34174 322.19677,631.91719 328.67691,627.716 z"
       id="path2501" />
    <path
       style="fill:#c07e31"
       d="M 374.67691,882.6933 C 360.24266,881.12032 345.40263,879.30956 333.57684,870.22397 C 326.24561,867.36618 302.84384,858.05105 317.79989,858.35215 C 325.42318,858.45282 336.14129,866.4364 339.61755,852.10542 C 345.97703,857.23278 350.21843,845.01699 358.25816,842.83181 C 362.79664,836.32479 375.87041,838.98301 369.56451,831.19728 C 375.99742,829.36893 383.02123,825.80244 384.42822,817.97216 C 391.73667,833.42291 387.66046,803.30427 396.87377,803.31824 C 402.92881,794.03925 406.02965,786.3734 403.08236,776.38169 C 410.43498,770.58155 406.13294,755.76624 406.64219,754.06614 C 414.1043,756.5284 401.92166,738.10592 405.92692,736.7478 C 407.27064,731.41665 411.60783,715.23645 402.60492,708.58165 C 407.19823,695.81816 398.03922,690.03386 392.4569,680.80417 C 394.29898,673.86065 378.58007,659.65227 388.77753,663.31441 C 388.70801,651.8592 379.58262,633.09851 367.30699,641.21185 C 367.89766,630.29561 360.95264,624.87576 355.67692,616.99141 C 350.90232,611.86818 346.61411,610.11193 343.11599,614.34114 C 337.5699,605.27895 327.10387,602.71822 319.67219,604.29086 C 305.66245,601.19745 298.00996,609.82149 290.05233,618.65957 C 280.307,626.41631 264.04035,635.31237 262.99894,647.69006 C 259.58794,661.08475 246.84777,669.68699 244.02357,684.06599 C 238.01481,692.77545 238.98032,705.31524 235.83029,713.09012 C 232.05805,700.17579 237.32953,685.95191 240.12015,673.0161 C 249.68469,642.23627 266.1973,612.94448 290.64065,591.5444 C 302.00652,580.29775 315.59802,571.06589 328.42692,562.16333 C 347.62523,551.66588 370.76154,549.75504 391.39294,557.11816 C 429.32824,570.27558 459.74157,600.70258 478.45832,635.64819 C 498.67792,676.26434 503.75756,723.50416 497.06274,768.0509 C 488.13845,803.63994 470.28917,838.94568 439.9335,860.86034 C 421.41977,874.44818 398.18965,885.61382 374.67691,882.6933 z M 365.17691,843.65698 C 362.89172,840.04672 362.8425,848.90677 365.17692,843.65698 L 365.17691,843.65698 z M 372.17691,631.716 C 369.68889,627.82287 369.68894,635.60912 372.17691,631.716 z M 366.17691,625.15698 C 363.39739,623.247 364.21744,628.69242 366.17691,625.15698 z M 340.17691,604.716 C 337.78204,600.72084 338.58211,608.43496 340.17691,604.716 z M 318.44775,855.11182 C 321.70538,854.0098 321.13706,856.96875 318.44775,855.11182 z M 234.31229,725.716 C 235.76164,713.78624 235.76165,737.64574 234.31229,725.716 z M 373.67691,642.716 C 373.46648,638.68414 377.78593,646.48173 373.67691,642.716 z"
       id="path2499" />
    <path
       style="fill:#9e754e"
       d="M 374.67691,882.6933 C 367.51593,881.92159 353.19433,879.98702 351.25696,878.20414 C 362.90255,879.11779 363.38149,873.34685 363.05117,863.95096 C 374.00941,857.69977 376.57939,843.14466 389.13194,838.97186 C 391.93856,829.83199 408.26638,817.07485 406.85091,813.23415 C 410.12054,804.5468 414.2555,793.42938 415.63472,783.93502 C 418.29507,774.9667 424.33594,760.71806 418.03435,751.28553 C 423.75492,744.80458 418.3181,731.73773 416.79769,721.11703 C 416.47356,707.15142 419.21682,697.11794 411.46774,685.20385 C 406.48878,675.12775 403.52623,668.2433 399.52961,659.99159 C 401.26139,648.90983 392.84723,639.72766 385.96557,633.15481 C 380.24798,629.02157 379.72945,623.12838 382.21417,621.82277 C 370.46178,617.85857 365.09122,609.89502 361.7075,601.61963 C 359.02872,590.07114 340.7997,590.58341 338.17692,586.216 C 333.82142,588.54486 326.33438,578.13236 321.16369,585.08502 C 311.88752,578.66607 310.37169,597.05202 304.04737,587.39277 C 304.44875,583.60889 320.09852,576.72898 311.86207,575.08319 C 309.57305,574.46219 325.83847,563.43676 331.77849,560.84017 C 362.36349,543.96925 399.59236,555.55464 425.95091,575.03859 C 461.32285,600.49006 486.45782,639.3883 494.63155,682.24568 C 500.7144,710.31329 501.4653,739.701 497.06274,768.0509 C 488.13845,803.63994 470.28917,838.94568 439.9335,860.86034 C 421.41977,874.44818 398.18965,885.61382 374.67691,882.6933 z M 414.98941,682.7785 C 412.80995,679.5596 411.38467,688.09516 414.98941,682.7785 z M 369.17691,854.79779 C 369.96263,845.3395 373.76979,858.23626 369.17691,854.79779 z M 276.17691,611.27502 C 279.15777,605.23216 278.20556,615.82641 276.17691,611.27502 z M 302.09467,581.35254 C 308.56319,574.88637 306.4758,580.74481 302.09467,581.35254 z"
       id="path2497" />
    <path
       style="fill:#b4742a"
       d="M 362.7598,875.3606 C 358.68083,862.6394 374.96812,855.58489 379.79101,845.03527 C 392.71713,840.334 395.87247,824.75493 405.64453,816.33662 C 413.18867,813.69552 400.79534,811.21426 410.41992,806.19238 C 410.52399,794.64382 417.57569,787.17193 417.93978,776.70788 C 418.75309,768.61188 424.56057,758.57053 418.03435,751.28553 C 423.75492,744.80458 418.3181,731.73773 416.79769,721.11703 C 416.47356,707.15142 419.21682,697.11794 411.46774,685.20385 C 406.48878,675.12775 403.52623,668.2433 399.52961,659.99159 C 401.26139,648.90983 392.84723,639.72766 385.96557,633.15481 C 380.24798,629.02157 379.72945,623.12838 382.21417,621.82277 C 370.46178,617.85857 365.09122,609.89502 361.7075,601.61963 C 359.02872,590.07114 340.7997,590.58341 338.17692,586.216 C 333.82142,588.54486 326.33438,578.13236 321.16369,585.08502 C 311.88752,578.66607 310.37169,597.05202 304.04737,587.39277 C 311.45497,578.88158 321.85897,568.58687 335.02325,566.19006 C 350.02702,564.43906 365.4698,565.4037 379.714,559.86357 C 410.65006,562.35494 437.2417,581.46006 456.49241,604.79478 C 490.11148,643.29019 501.34015,696.47184 498.51671,746.41606 C 497.8227,778.27229 483.6777,808.47267 465.75304,834.21041 C 451.35711,851.49709 433.27045,867.30732 411.55262,874.20444 C 395.68007,874.80468 377.006,877.41617 362.7598,875.36061 L 362.7598,875.3606 z M 414.98941,682.7785 C 412.80995,679.5596 411.38467,688.09516 414.98941,682.7785 z M 369.17691,854.79779 C 369.96263,845.3395 373.76979,858.23626 369.17691,854.79779 z M 276.17691,611.27502 C 279.15777,605.23216 278.20556,615.82641 276.17691,611.27502 z"
       id="path2495" />
    <path
       style="fill:#8d5514"
       d="M 395.39017,874.39795 C 393.73828,861.91715 411.96745,849.27343 418.62483,837.28814 C 425.11615,825.97103 430.26652,816.25153 436.07716,804.71303 C 437.26272,796.35196 441.99902,785.3679 443.04462,779.39165 C 442.12559,774.80429 446.42259,756.88074 444.8526,746.24086 C 443.67542,734.05085 443.64385,722.37704 442.76242,712.22309 C 438.76725,697.5333 436.68612,682.21224 431.9808,667.97698 C 428.18481,654.24669 423.85967,641.05102 414.36473,629.98259 C 410.65785,618.611 402.87153,609.4326 395.38946,599.71789 C 391.11188,593.61141 379.19294,588.88648 386.90105,587.20981 C 381.8171,579.3804 353.73213,571.56832 371.67692,562.16243 C 384.06463,556.7117 397.6616,563.75719 409.58364,567.59354 C 438.59259,580.82906 460.68836,606.17225 476.28547,633.423 C 497.61522,673.97062 502.61722,721.59059 496.51965,766.54077 C 487.00733,807.04892 464.53971,846.93748 427.10232,867.49963 C 417.65436,873.50894 406.56425,876.90294 395.39017,874.39795 z"
       id="path2493" />
    <path
       style="fill:#754614"
       d="M 417.47928,867.36749 C 426.86698,852.32906 441.81815,840.51148 447.0458,822.97377 C 458.25295,803.54447 461.90338,780.80897 465.70447,759.00202 C 464.92528,741.11921 465.71982,722.94515 463.26048,705.216 C 460.39553,689.87761 455.44997,675.55173 451.2456,660.57878 C 445.28489,646.93008 442.40826,631.44196 433.73835,619.18747 C 424.93779,606.80851 417.24561,593.25731 405.31744,583.55539 C 398.51032,579.10348 381.546,561.70559 400.15038,564.56822 C 430.84537,573.60333 453.77937,598.64753 471.07198,624.48073 C 496.67875,666.02296 502.68536,716.98249 496.87988,764.716 C 488.36537,802.86487 468.50242,840.30827 435.43815,862.52494 C 432.40624,863.86634 414.32995,876.86142 417.47928,867.36749 z"
       id="path2491" />
    <path
       style="fill:#663a07"
       d="M 437.17691,853.84192 C 443.80417,840.40982 454.99769,828.99607 458.47951,813.94523 C 461.76411,801.1836 470.30052,790.39427 471.08602,777.16599 C 474.01857,763.61703 474.00541,748.9592 475.63935,735.65521 C 473.07201,719.41046 474.83693,702.17266 467.40536,686.95029 C 464.5793,672.94198 462.06195,658.00535 454.87996,644.85277 C 448.0097,621.54649 433.15832,601.39066 417.32026,583.33333 C 412.21366,570.57054 434.13463,585.81411 438.275,589.54805 C 471.66667,615.9427 490.74143,656.89349 495.92948,698.57555 C 501.88697,736.75652 498.02919,777.47691 478.20214,811.29228 C 469.46139,827.44304 458.05341,843.31362 442.17692,852.716 C 441.41286,854.01466 438.08449,856.01871 437.17691,853.84192 z"
       id="path2489" />
    <path
       style="fill:#563005"
       d="M 455.17691,837.69812 C 462.58523,821.29879 471.58017,805.31463 476.12083,787.56622 C 484.04251,759.91419 485.19373,730.69229 481.74041,702.25086 C 478.19018,688.67413 475.97176,674.55615 471.20444,661.21599 C 464.71507,637.54816 452.08135,616.38614 438.47876,596.2447 C 440.91864,590.20669 454.86556,606.98182 459.53755,612.2919 C 493.01208,650.73388 500.77448,704.553 497.17376,753.82934 C 493.18312,781.12105 482.08555,807.55294 465.444,829.52768 C 462.14634,830.56186 457.87203,842.31926 455.17691,837.69812 z"
       id="path2487" />
  </g>
</svg>
