<?xml version="1.0" encoding="UTF-8" standalone="no"?>
<!-- Created with Inkscape (http://www.inkscape.org/) -->
<svg
   xmlns:dc="http://purl.org/dc/elements/1.1/"
   xmlns:cc="http://creativecommons.org/ns#"
   xmlns:rdf="http://www.w3.org/1999/02/22-rdf-syntax-ns#"
   xmlns:svg="http://www.w3.org/2000/svg"
   xmlns="http://www.w3.org/2000/svg"
   xmlns:sodipodi="http://sodipodi.sourceforge.net/DTD/sodipodi-0.dtd"
   xmlns:inkscape="http://www.inkscape.org/namespaces/inkscape"
   width="540.07172"
   height="608.31702"
   id="svg2"
   sodipodi:version="0.32"
   inkscape:version="0.46"
   version="1.0"
   sodipodi:docname="emptynest.svg"
   inkscape:output_extension="org.inkscape.output.svg.inkscape">
  <defs
     id="defs4">
    <inkscape:perspective
       sodipodi:type="inkscape:persp3d"
       inkscape:vp_x="0 : 526.18109 : 1"
       inkscape:vp_y="0 : 1000 : 0"
       inkscape:vp_z="744.09448 : 526.18109 : 1"
       inkscape:persp3d-origin="372.04724 : 350.78739 : 1"
       id="perspective10" />
    <inkscape:perspective
       id="perspective2447"
       inkscape:persp3d-origin="372.04724 : 350.78739 : 1"
       inkscape:vp_z="744.09448 : 526.18109 : 1"
       inkscape:vp_y="0 : 1000 : 0"
       inkscape:vp_x="0 : 526.18109 : 1"
       sodipodi:type="inkscape:persp3d" />
  </defs>
  <sodipodi:namedview
     id="base"
     pagecolor="#ffffff"
     bordercolor="#666666"
     borderopacity="1.0"
     gridtolerance="10000"
     guidetolerance="10"
     objecttolerance="10"
     inkscape:pageopacity="0.0"
     inkscape:pageshadow="2"
     inkscape:zoom="0.50457914"
     inkscape:cx="372.04724"
     inkscape:cy="339.03458"
     inkscape:document-units="px"
     inkscape:current-layer="layer1"
     showgrid="false"
     inkscape:window-width="1280"
     inkscape:window-height="735"
     inkscape:window-x="1280"
     inkscape:window-y="24" />
  <metadata
     id="metadata7">
    <rdf:RDF>
      <cc:Work
         rdf:about="">
        <dc:format>image/svg+xml</dc:format>
        <dc:type
           rdf:resource="http://purl.org/dc/dcmitype/StillImage" />
      </cc:Work>
    </rdf:RDF>
  </metadata>
  <g
     inkscape:label="Layer 1"
     inkscape:groupmode="layer"
     id="layer1"
     transform="translate(-85.037468,-236.36398)">
    <path
       style="fill:#c28900;fill-opacity:1;fill-rule:evenodd;stroke:#c27400;stroke-width:0;stroke-linecap:butt;stroke-linejoin:miter;stroke-miterlimit:4;stroke-dasharray:none;stroke-opacity:1"
       d="M 469.13332,643.19171 C 495.52873,596.50418 525.3526,583.99341 557.79149,589.77395 C 534.09077,593.34701 481.79932,603.38897 484.67107,663.87099 L 469.13332,643.19171 z"
       id="path3302"
       sodipodi:nodetypes="cccc" />
    <path
       style="fill:#c28900;fill-opacity:1;fill-rule:evenodd;stroke:#c27400;stroke-width:0;stroke-linecap:butt;stroke-linejoin:miter;stroke-miterlimit:4;stroke-dasharray:none;stroke-opacity:1"
       d="M 443.18787,647.26458 C 453.88217,594.66535 501.14481,599.98434 530.25363,606.50298 C 503.744,606.29556 444.57844,609.24922 464.85217,662.04991 L 443.18787,647.26458 z"
       id="path3310"
       sodipodi:nodetypes="cccc" />
    <path
       style="fill:#c28900;fill-opacity:1;fill-rule:evenodd;stroke:#c27400;stroke-width:0;stroke-linecap:butt;stroke-linejoin:miter;stroke-miterlimit:4;stroke-dasharray:none;stroke-opacity:1"
       d="M 223.03405,640.10063 C 216.76153,573.29021 168.14101,579.57609 134.37588,586.68287 C 158.25966,594.05303 224.33687,564.03049 212.38272,660.08185 L 223.03405,640.10063 z"
       id="path3321"
       sodipodi:nodetypes="cccc" />
    <path
       style="fill:#c28900;fill-opacity:1;fill-rule:evenodd;stroke:#c27400;stroke-width:0;stroke-linecap:butt;stroke-linejoin:miter;stroke-miterlimit:4;stroke-dasharray:none;stroke-opacity:1"
       d="M 248.9795,644.1735 C 238.2852,591.57427 213.36049,570.36696 180.06331,565.71664 C 204.97515,581.0513 238.25043,581.95856 237.78611,669.42974 L 248.9795,644.1735 z"
       id="path3323"
       sodipodi:nodetypes="cccc" />
    <path
       style="fill:#c28900;fill-opacity:1;fill-rule:evenodd;stroke:#c27400;stroke-width:0;stroke-linecap:butt;stroke-linejoin:miter;stroke-miterlimit:4;stroke-dasharray:none;stroke-opacity:1"
       d="M 351.52761,674.53667 C 325.1322,627.84914 295.30833,615.33837 262.86944,621.11891 C 318.40131,635.49061 313.02628,641.07451 335.98986,695.21595 L 351.52761,674.53667 z"
       id="path3329"
       sodipodi:nodetypes="cccc" />
    <path
       style="fill:#c28900;fill-opacity:1;fill-rule:evenodd;stroke:#c27400;stroke-width:0;stroke-linecap:butt;stroke-linejoin:miter;stroke-miterlimit:4;stroke-dasharray:none;stroke-opacity:1"
       d="M 377.47306,678.60954 C 366.77876,626.01031 341.85405,604.803 308.55687,600.15268 C 352.4246,626.96472 352.22998,634.63864 355.80876,693.39487 L 377.47306,678.60954 z"
       id="path3331"
       sodipodi:nodetypes="cccc" />
    <path
       style="fill:#c28900;fill-opacity:1;fill-rule:evenodd;stroke:#c27400;stroke-width:0;stroke-linecap:butt;stroke-linejoin:miter;stroke-miterlimit:4;stroke-dasharray:none;stroke-opacity:1"
       d="M 362.32424,664.64565 C 382.68977,625.9661 411.62722,609.37839 445.40767,623.02593 C 394.25027,623.48537 377.58236,647.95907 378.52848,687.13706 L 362.32424,664.64565 z"
       id="path3333"
       sodipodi:nodetypes="cccc" />
    <rect
       style="fill:#a546ff;fill-opacity:1;stroke:#000000;stroke-width:4;stroke-linecap:round;stroke-linejoin:bevel;stroke-miterlimit:4;stroke-dasharray:none;stroke-opacity:1"
       id="rect3300"
       width="45.496861"
       height="435.18738"
       x="577.6123"
       y="238.36398" />
    <path
       style="fill:#c28900;fill-opacity:1;fill-rule:evenodd;stroke:#c27400;stroke-width:0;stroke-linecap:butt;stroke-linejoin:miter;stroke-miterlimit:4;stroke-dasharray:none;stroke-opacity:1"
       d="M 497.26874,649.35608 C 534.4216,610.67653 566.41688,605.95585 596.40756,619.60339 C 558.01868,618.90202 533.96048,612.43877 507.19044,673.24361 L 497.26874,649.35608 z"
       id="path3312"
       sodipodi:nodetypes="cccc" />
    <rect
       style="fill:#a546ff;fill-opacity:1;stroke:#000000;stroke-width:4;stroke-linecap:round;stroke-linejoin:bevel;stroke-miterlimit:4;stroke-dasharray:none;stroke-opacity:1"
       id="rect3298"
       width="45.496861"
       height="435.18738"
       x="87.037468"
       y="238.36398" />
    <path
       style="fill:#c28900;fill-opacity:1;fill-rule:evenodd;stroke:#c27400;stroke-width:0;stroke-linecap:butt;stroke-linejoin:miter;stroke-miterlimit:4;stroke-dasharray:none;stroke-opacity:1"
       d="M 194.89863,646.265 C 157.74577,607.58545 125.75049,602.86477 95.75981,616.51231 C 126.4174,616.28602 167.99561,603.11002 184.97693,670.15253 L 194.89863,646.265 z"
       id="path3325"
       sodipodi:nodetypes="cccc" />
    <path
       style="fill:#c28900;fill-opacity:1;fill-rule:evenodd;stroke:#c27400;stroke-width:0;stroke-linecap:butt;stroke-linejoin:miter;stroke-miterlimit:4;stroke-dasharray:none;stroke-opacity:1"
       d="M 270.93938,638.96827 C 240.02664,595.14081 209.10532,585.66165 177.40316,594.64328 C 201.34187,595.8388 254.37332,600.62441 257.53779,661.09182 L 270.93938,638.96827 z"
       id="path3358"
       sodipodi:nodetypes="cccc"
       inkscape:transform-center-x="41.930207"
       inkscape:transform-center-y="-9.759372" />
    <path
       style="fill:#c28900;fill-opacity:1;fill-rule:evenodd;stroke:#c27400;stroke-width:0;stroke-linecap:butt;stroke-linejoin:miter;stroke-miterlimit:4;stroke-dasharray:none;stroke-opacity:1"
       d="M 243.55753,647.90334 C 202.73811,613.11515 170.4318,611.60357 141.94897,628.16935 C 180.07726,623.64924 203.3724,614.82272 236.06352,672.66004 L 243.55753,647.90334 z"
       id="path3364"
       sodipodi:nodetypes="cccc"
       inkscape:transform-center-x="73.348227"
       inkscape:transform-center-y="9.2108126" />
    <path
       style="fill:#c28900;fill-opacity:1;fill-rule:evenodd;stroke:#c27400;stroke-width:0;stroke-linecap:butt;stroke-linejoin:miter;stroke-miterlimit:4;stroke-dasharray:none;stroke-opacity:1"
       d="M 297.16142,640.43761 C 281.28317,589.16455 234.78497,599.16285 206.46983,608.54735 C 232.82708,605.7015 291.99272,602.74961 277.07689,657.3065 L 297.16142,640.43761 z"
       id="path3360"
       sodipodi:nodetypes="cccc"
       inkscape:transform-center-x="14.285852"
       inkscape:transform-center-y="-6.9584569" />
    <path
       style="fill:#c28900;fill-opacity:1;fill-rule:evenodd;stroke:#c27400;stroke-width:0;stroke-linecap:butt;stroke-linejoin:miter;stroke-miterlimit:4;stroke-dasharray:none;stroke-opacity:1"
       d="M 282.33139,671.36374 C 297.9209,620.00214 324.72809,601.23073 358.31492,599.72978 C 312.12187,622.30112 311.59454,629.95938 302.51052,688.11935 L 282.33139,671.36374 z"
       id="path3372"
       sodipodi:nodetypes="cccc" />
    <path
       style="fill:#c28900;fill-opacity:1;fill-rule:evenodd;stroke:#c27400;stroke-width:0;stroke-linecap:butt;stroke-linejoin:miter;stroke-miterlimit:4;stroke-dasharray:none;stroke-opacity:1"
       d="M 308.54476,669.74687 C 339.21041,625.74618 370.0779,616.09319 401.83009,624.8963 C 345.19348,633.98631 350.02003,640.05058 322.07062,691.79467 L 308.54476,669.74687 z"
       id="path3370"
       sodipodi:nodetypes="cccc" />
    <path
       style="fill:#c28900;fill-opacity:1;fill-rule:evenodd;stroke:#c27400;stroke-width:0;stroke-linecap:butt;stroke-linejoin:miter;stroke-miterlimit:4;stroke-dasharray:none;stroke-opacity:1"
       d="M 379.35381,649.68105 C 355.23831,613.22141 324.79307,599.59731 292.53931,616.54042 C 343.48825,611.90404 362.51009,634.59658 365.46946,673.67409 L 379.35381,649.68105 z"
       id="path3362"
       sodipodi:nodetypes="cccc"
       inkscape:transform-center-x="-69.845083"
       inkscape:transform-center-y="5.4108439" />
    <path
       style="fill:#c28900;fill-opacity:1;fill-rule:evenodd;stroke:#c27400;stroke-width:0;stroke-linecap:butt;stroke-linejoin:miter;stroke-miterlimit:4;stroke-dasharray:none;stroke-opacity:1"
       d="M 413.49223,649.15406 C 429.08174,597.79245 455.88893,579.02105 489.47576,577.5201 C 463.23321,590.44605 430.0199,588.22256 422.26288,675.35034 L 413.49223,649.15406 z"
       id="path3368"
       sodipodi:nodetypes="cccc" />
    <path
       style="fill:#c28900;fill-opacity:1;fill-rule:evenodd;stroke:#c27400;stroke-width:0;stroke-linecap:butt;stroke-linejoin:miter;stroke-miterlimit:4;stroke-dasharray:none;stroke-opacity:1"
       d="M 439.7056,647.53719 C 452.22825,581.61178 500.04299,592.43851 532.99093,602.68661 C 508.52028,607.77991 445.55653,571.68121 448.43225,668.43086 L 439.7056,647.53719 z"
       id="path3366"
       sodipodi:nodetypes="cccc" />
    <path
       style="fill:#c28900;fill-opacity:1;fill-rule:evenodd;stroke:#c27400;stroke-width:0;stroke-linecap:butt;stroke-linejoin:miter;stroke-miterlimit:4;stroke-dasharray:none;stroke-opacity:1"
       d="M 467.13729,656.31805 C 507.76032,621.30074 540.05761,619.60741 568.6332,636.01266 C 538.13252,632.90661 497.97637,615.88198 474.77048,681.03219 L 467.13729,656.31805 z"
       id="path3374"
       sodipodi:nodetypes="cccc" />
    <rect
       style="fill:#a546ff;fill-opacity:1;stroke:#000000;stroke-width:4;stroke-linecap:round;stroke-linejoin:bevel;stroke-miterlimit:4;stroke-dasharray:none;stroke-opacity:1"
       id="rect2522"
       width="536.07172"
       height="203.74681"
       x="87.037468"
       y="638.9342" />
    <rect
       style="fill:#a546ff;fill-opacity:1;stroke:#000000;stroke-width:4;stroke-linecap:round;stroke-linejoin:bevel;stroke-miterlimit:4;stroke-dasharray:none;stroke-opacity:1"
       id="rect3296"
       width="536.07172"
       height="57.365604"
       x="87.037468"
       y="238.36398" />
  </g>
</svg>
