<?xml version="1.0" encoding="UTF-8" standalone="no"?>
<!-- Created with Inkscape (http://www.inkscape.org/) -->

<svg
   width="525"
   height="525"
   id="svg2"
   sodipodi:version="0.32"
   inkscape:version="1.3.1 (91b66b0783, 2023-11-16)"
   version="1.0"
   sodipodi:docname="equip_fox_egg.svg"
   inkscape:output_extension="org.inkscape.output.svg.inkscape"
   xmlns:inkscape="http://www.inkscape.org/namespaces/inkscape"
   xmlns:sodipodi="http://sodipodi.sourceforge.net/DTD/sodipodi-0.dtd"
   xmlns="http://www.w3.org/2000/svg"
   xmlns:svg="http://www.w3.org/2000/svg"
   xmlns:rdf="http://www.w3.org/1999/02/22-rdf-syntax-ns#"
   xmlns:cc="http://creativecommons.org/ns#"
   xmlns:dc="http://purl.org/dc/elements/1.1/">
  <sodipodi:namedview
     id="base"
     pagecolor="#ffffff"
     bordercolor="#666666"
     borderopacity="1.0"
     gridtolerance="10000"
     guidetolerance="10"
     objecttolerance="10"
     inkscape:pageopacity="0.0"
     inkscape:pageshadow="2"
     inkscape:zoom="1.0152381"
     inkscape:cx="209.803"
     inkscape:cy="262.99249"
     inkscape:document-units="px"
     inkscape:current-layer="layer1"
     showgrid="false"
     inkscape:window-width="1920"
     inkscape:window-height="956"
     inkscape:window-x="-12"
     inkscape:window-y="-12"
     inkscape:window-maximized="1"
     inkscape:showpageshadow="2"
     inkscape:pagecheckerboard="0"
     inkscape:deskcolor="#d1d1d1" />
  <defs
     id="defs4">
    <inkscape:perspective
       id="perspective10"
       inkscape:persp3d-origin="372.04724 : 350.78739 : 1"
       inkscape:vp_z="744.09448 : 526.18109 : 1"
       inkscape:vp_y="0 : 1000 : 0"
       inkscape:vp_x="0 : 526.18109 : 1"
       sodipodi:type="inkscape:persp3d" />
    <inkscape:perspective
       sodipodi:type="inkscape:persp3d"
       inkscape:vp_x="0 : 526.18109 : 1"
       inkscape:vp_y="0 : 1000 : 0"
       inkscape:vp_z="744.09448 : 526.18109 : 1"
       inkscape:persp3d-origin="372.04724 : 350.78739 : 1"
       id="perspective2447" />
  </defs>
  <metadata
     id="metadata7">
    <rdf:RDF>
      <cc:Work
         rdf:about="">
        <dc:format>image/svg+xml</dc:format>
        <dc:type
           rdf:resource="http://purl.org/dc/dcmitype/StillImage" />
        <dc:title />
      </cc:Work>
    </rdf:RDF>
  </metadata>
  <g
     transform="translate(-169.70945,-261.08105)"
     id="layer1"
     inkscape:groupmode="layer"
     inkscape:label="Layer 1">
    <g
       transform="matrix(0.5,0,0,0.5,99.126028,229.47992)"
       id="g3842">
      <path
         id="path2507"
         d="m 352.02213,887.57684 c -42.76343,-4.19765 -79.67245,-34.01518 -98.9139,-71.50806 -26.75737,-47.65643 -29.21506,-107.11031 -11.23455,-158.22211 16.99577,-45.65755 50.02353,-90.20902 98.58686,-104.48707 36.37072,-11.09599 74.16881,7.63165 100.52666,32.04285 29.13598,26.37792 49.41875,62.28403 55.54531,101.22458 6.07387,33.06764 7.38556,68.36707 -3.49272,100.60288 -12.11684,31.25565 -30.02012,61.97326 -59.32947,79.94534 -23.79583,15.70491 -53.24735,23.74282 -81.68819,20.40159 z"
         style="fill:#eba860;fill-opacity:1" />
      <path
         id="path2505"
         d="m 346.90564,885.20441 c -36.42486,-5.36394 -65.95831,-31.10347 -86.39871,-60.42685 -27.59254,-41.22262 -33.57448,-93.74867 -24.43379,-141.71529 9.39028,-40.77764 31.27238,-79.39898 63.40024,-106.48603 25.70595,-22.05336 62.91261,-32.35973 95.24094,-19.55401 35.57211,13.89436 64.00666,42.81115 82.84977,75.49934 19.12815,37.21941 25.47024,80.39788 21.96397,121.86534 -2.31587,29.77095 -16.62005,56.95829 -32.76014,81.45339 -26.42399,34.02334 -70.27892,55.62207 -113.70646,50.13355 -2.05941,-0.18968 -4.11558,-0.42815 -6.15582,-0.76944 z m -11.72873,-86.89173 c 8.86744,-3.90118 16.41997,-16.91561 21.01637,-23.83868 -13.33569,1.15393 1.89274,-14.61725 -0.0549,-22.21156 5.85022,-10.29166 -7.87857,-19.29291 -4.71145,-26.55424 -7.18397,-6.76291 -0.96387,-3.19916 1.6543,-3.49474 -3.79107,-5.60166 -6.72503,-5.75195 -3.03138,-10.3873 -5.5624,-10.8098 -11.94422,-24.88135 -23.79051,-25.65915 -7.89018,-1.29778 -23.42654,-1.60913 -26.52581,5.1823 -4.87453,6.15293 -18.92218,18.58804 -15.64325,27.80223 5.17166,6.31477 -5.56552,8.09178 0.8472,16.20597 0.86935,13.3414 -2.28811,24.00499 4.11208,34.7994 6.23195,11.39406 14.67252,20.64443 25.61599,27.95648 8.37523,-4.19877 12.45191,6.93413 20.51137,0.19929 z"
         style="fill:#e7a050;fill-opacity:1" />
      <path
         id="path2503"
         d="m 346.90564,885.20441 c -22.31359,-3.60708 -43.4056,-14.204 -59.46198,-30.05953 1.35563,-9.83626 -3.6955,2.08992 -8.16757,-7.58541 -42.97734,-42.44893 -54.70789,-108.06651 -42.95013,-165.67534 9.85267,-41.22584 32.26785,-80.36063 65.45102,-107.12806 26.07276,-21.55203 63.5284,-30.4103 95.34823,-16.82723 35.17281,14.80289 63.44549,43.83045 81.68832,76.94381 18.50359,37.83414 24.6809,81.35833 20.30777,123.09042 -2.95007,28.45868 -16.93599,54.33885 -32.35338,77.87723 -26.42399,34.02334 -70.27892,55.62207 -113.70646,50.13355 -2.05941,-0.18968 -4.11558,-0.42815 -6.15582,-0.76944 z m -73.77457,-48.5741 c -4.53839,-5.17122 1.34133,6.4734 0,0 z m 54.91049,-7.16431 c 9.01321,-1.6222 27.9699,-2.00278 35.38812,-13.75 10.99577,-5.98746 14.24393,-17.76562 17.55392,-26.81398 2.99201,6.38726 6.64404,-9.90646 4.69332,-11.8244 -2.81171,-3.38674 5.98679,-3.34216 0.22838,-9.98907 -2.69589,-6.26665 9.18288,-10.83966 0.34318,-17.24674 5.67885,-6.21755 3.65557,-25.09526 -3.07156,-34.30734 -6.07485,-6.81238 8.95732,-8.43724 -2.00464,-12.31848 0.48454,-5.64131 -10.29751,-10.22327 -0.95771,-11.04053 -3.39883,-6.49923 -9.36132,-9.73281 -13.08003,-13.81708 4.74251,-13.6778 -14.28265,-15.12922 -13.24865,-26.79845 -8.48817,-5.67627 -14.88241,-14.50872 -25.82012,-13.0458 0.1454,-2.85857 6.30035,-8.28006 -3.53881,-7.34985 -3.32092,7.50604 -3.08842,1.71122 -8.00015,-1.9179 -7.49524,7.77662 -25.55202,7.07519 -27.74323,21.03858 1.42404,4.18293 -11.21571,0.98152 -3.90219,5.70126 -8.26864,3.34053 -8.73777,15.20255 -14.47412,14.93946 -1.04186,9.29088 -16.57302,10.25278 -12.95486,20.34969 -3.80586,-6.40014 -1.27328,9.40524 -6.92666,12.12663 0.22369,11.27306 -9.69375,26.90037 -2.58036,35.6376 1.5487,11.43548 0.97526,20.8408 4.72103,32.70947 4.45933,9.74713 12.43232,18.87653 16.75137,28.17669 1.6225,5.64514 8.86229,11.68805 12.45237,11.65753 0.99773,3.61118 7.7043,10.84087 13.95202,9.39432 6.46103,4.70977 16.79676,9.09024 26.77288,10.2573 0.31075,-0.78985 7.16275,1.21083 5.4465,-1.76891 z m 46.13535,-35.19098 c 2.52251,-3.91598 2.75407,2.10212 0,0 z m 8.6395,-71.25286 c -2.54054,-5.38409 6.66906,0.0207 0,0 z M 362.8436,678.04932 c -2.23657,-9.07146 8.86828,2.22447 0,0 z m -39.02719,-34.02716 c -2.54054,-5.38409 6.66906,0.0207 0,0 z m -58.68534,182.60815 c -5.63804,-5.95814 3.02711,7.00671 0,0 z M 328.67691,627.716 c -4.73695,-4.37426 -6.48014,4.20119 0,0 z"
         style="fill:#da9958;fill-opacity:1" />
      <path
         id="path2501"
         d="m 374.67691,882.6933 c -19.46051,-1.72601 -38.16321,-7.53293 -56.64378,-13.51759 -43.68113,-19.95713 -74.32526,-63.2403 -81.89221,-110.30025 -3.57826,-26.14314 -3.74762,-53.24046 1.93291,-79.09517 9.49584,-36.87314 30.49026,-70.7209 59.93268,-94.98414 10.05496,-8.38887 20.81562,-16.56923 31.76748,-23.12475 25.72424,-14.78281 57.74339,-9.73748 82.43691,4.61125 42.51994,24.38998 73.25341,67.81446 82.42065,115.96303 6.08285,28.06761 6.83375,57.45532 2.43119,85.80522 -8.92429,35.58904 -26.77357,70.89478 -57.12924,92.80944 -18.51373,13.58784 -41.74385,24.75348 -65.25659,21.83296 z M 328.04156,829.466 c 9.01321,-1.6222 27.9699,-2.00278 35.38812,-13.75 10.99577,-5.98746 14.24393,-17.76562 17.55392,-26.81398 2.99201,6.38726 6.64404,-9.90646 4.69332,-11.8244 -2.81171,-3.38674 5.98679,-3.34216 0.22838,-9.98907 -2.69589,-6.26665 9.18288,-10.83966 0.34318,-17.24674 5.67885,-6.21755 3.65557,-25.09526 -3.07156,-34.30734 -6.07485,-6.81238 8.95732,-8.43724 -2.00464,-12.31848 0.48454,-5.64131 -10.29751,-10.22327 -0.95771,-11.04053 -3.39883,-6.49923 -9.36132,-9.73281 -13.08003,-13.81708 4.74251,-13.6778 -14.28265,-15.12922 -13.24865,-26.79845 -8.48817,-5.67627 -14.88241,-14.50872 -25.82012,-13.0458 0.1454,-2.85857 6.30035,-8.28006 -3.53881,-7.34985 -3.32092,7.50604 -3.08842,1.71122 -8.00015,-1.9179 -7.49524,7.77662 -25.55202,7.07519 -27.74323,21.03858 1.42404,4.18293 -11.21571,0.98152 -3.90219,5.70126 -8.26864,3.34053 -8.73777,15.20255 -14.47412,14.93946 -1.04186,9.29088 -16.57302,10.25278 -12.95486,20.34969 -3.80586,-6.40014 -1.27328,9.40524 -6.92666,12.12663 0.22369,11.27306 -9.69375,26.90037 -2.58036,35.6376 1.5487,11.43548 0.97526,20.8408 4.72103,32.70947 4.45933,9.74713 12.43232,18.87653 16.75137,28.17669 1.6225,5.64514 8.86229,11.68805 12.45237,11.65753 0.99773,3.61118 7.7043,10.84087 13.95202,9.39432 6.46103,4.70977 16.79676,9.09024 26.77288,10.2573 0.31075,-0.78985 7.16275,1.21083 5.4465,-1.76891 z m 46.13535,-35.19098 c 2.52251,-3.91598 2.75407,2.10212 0,0 z m 8.6395,-71.25286 c -2.54054,-5.38409 6.66906,0.0207 0,0 z M 362.8436,678.04932 c -2.23657,-9.07146 8.86828,2.22447 0,0 z m -39.02719,-34.02716 c -2.54054,-5.38409 6.66906,0.0207 0,0 z m 4.8605,-16.30616 c -4.73695,-4.37426 -6.48014,4.20119 0,0 z"
         style="fill:#e49c49;fill-opacity:1" />
      <path
         id="path2499"
         d="m 374.67691,882.6933 c -14.43425,-1.57298 -29.27428,-3.38374 -41.10007,-12.46933 -7.33123,-2.85779 -30.733,-12.17292 -15.77695,-11.87182 7.62329,0.10067 18.3414,8.08425 21.81766,-6.24673 6.35948,5.12736 10.60088,-7.08843 18.64061,-9.27361 4.53848,-6.50702 17.61225,-3.8488 11.30635,-11.63453 6.43291,-1.82835 13.45672,-5.39484 14.86371,-13.22512 7.30845,15.45075 3.23224,-14.66789 12.44555,-14.65392 6.05504,-9.27899 9.15588,-16.94484 6.20859,-26.93655 7.35262,-5.80014 3.05058,-20.61545 3.55983,-22.31555 7.46211,2.46226 -4.72053,-15.96022 -0.71527,-17.31834 1.34372,-5.33115 5.68091,-21.51135 -3.322,-28.16615 4.59331,-12.76349 -4.5657,-18.54779 -10.14802,-27.77748 1.84208,-6.94352 -13.87683,-21.1519 -3.67937,-17.48976 -0.0695,-11.45521 -9.19491,-30.2159 -21.47054,-22.10256 0.59067,-10.91624 -6.35435,-16.33609 -11.63007,-24.22044 -4.7746,-5.12323 -9.06281,-6.87948 -12.56093,-2.65027 -5.54609,-9.06219 -16.01212,-11.62292 -23.4438,-10.05028 -14.00974,-3.09341 -21.66223,5.53063 -29.61986,14.36871 -9.74533,7.75674 -26.01198,16.6528 -27.05339,29.03049 -3.411,13.39469 -16.15117,21.99693 -18.97537,36.37593 -6.00876,8.70946 -5.04325,21.24925 -8.19328,29.02413 -3.77224,-12.91433 1.49924,-27.13821 4.28986,-40.07402 9.56454,-30.77983 26.07715,-60.07162 50.5205,-81.4717 11.36587,-11.24665 24.95737,-20.47851 37.78627,-29.38107 19.19831,-10.49745 42.33462,-12.40829 62.96602,-5.04517 37.9353,13.15742 68.34863,43.58442 87.06538,78.53003 20.2196,40.61615 25.29924,87.85597 18.60442,132.40271 -8.92429,35.58904 -26.77357,70.89478 -57.12924,92.80944 -18.51373,13.58784 -41.74385,24.75348 -65.25659,21.83296 z m -9.5,-39.03632 c -2.28519,-3.61026 -2.33441,5.24979 10e-6,0 z m 7,-211.94098 c -2.48802,-3.89313 -2.48797,3.89312 0,0 z m -6,-6.55902 c -2.77952,-1.90998 -1.95947,3.53544 0,0 z m -26,-20.44098 c -2.39487,-3.99516 -1.5948,3.71896 0,0 z m -21.72916,250.39582 c 3.25763,-1.10202 2.68931,1.85693 0,0 z M 234.31229,725.716 c 1.44935,-11.92976 1.44936,11.92974 0,0 z m 139.36462,-83 c -0.21043,-4.03186 4.10902,3.76573 0,0 z"
         style="fill:#e39a44;fill-opacity:1" />
      <path
         id="path2497"
         d="m 374.67691,882.6933 c -7.16098,-0.77171 -21.48258,-2.70628 -23.41995,-4.48916 11.64559,0.91365 12.12453,-4.85729 11.79421,-14.25318 10.95824,-6.25119 13.52822,-20.8063 26.08077,-24.9791 2.80662,-9.13987 19.13444,-21.89701 17.71897,-25.73771 3.26963,-8.68735 7.40459,-19.80477 8.78381,-29.29913 2.66035,-8.96832 8.70122,-23.21696 2.39963,-32.64949 5.72057,-6.48095 0.28375,-19.5478 -1.23666,-30.1685 -0.32413,-13.96561 2.41913,-23.99909 -5.32995,-35.91318 -4.97896,-10.0761 -7.94151,-16.96055 -11.93813,-25.21226 1.73178,-11.08176 -6.68238,-20.26393 -13.56404,-26.83678 -5.71759,-4.13324 -6.23612,-10.02643 -3.7514,-11.33204 -11.75239,-3.9642 -17.12295,-11.92775 -20.50667,-20.20314 -2.67878,-11.54849 -20.9078,-11.03622 -23.53058,-15.40363 -4.3555,2.32886 -11.84254,-8.08364 -17.01323,-1.13098 -9.27617,-6.41895 -10.792,11.967 -17.11632,2.30775 0.40138,-3.78388 16.05115,-10.66379 7.8147,-12.30958 -2.28902,-0.621 13.9764,-11.64643 19.91642,-14.24302 30.585,-16.87092 67.81387,-5.28553 94.17242,14.19842 35.37194,25.45147 60.50691,64.34971 68.68064,107.20709 6.08285,28.06761 6.83375,57.45532 2.43119,85.80522 -8.92429,35.58904 -26.77357,70.89478 -57.12924,92.80944 -18.51373,13.58784 -41.74385,24.75348 -65.25659,21.83296 z m 40.3125,-199.9148 c -2.17946,-3.2189 -3.60474,5.31666 0,0 z m -45.8125,172.01929 c 0.78572,-9.45829 4.59288,3.43847 0,0 z m -93,-243.52277 c 2.98086,-6.04286 2.02865,4.55139 0,0 z m 25.91776,-29.92248 c 6.46852,-6.46617 4.38113,-0.60773 0,0 z"
         style="fill:#d79251;fill-opacity:1" />
      <path
         id="path2495"
         d="m 362.7598,875.3606 c -4.07897,-12.7212 12.20832,-19.77571 17.03121,-30.32533 12.92612,-4.70127 16.08146,-20.28034 25.85352,-28.69865 7.54414,-2.6411 -4.84919,-5.12236 4.77539,-10.14424 0.10407,-11.54856 7.15577,-19.02045 7.51986,-29.4845 0.81331,-8.096 6.62079,-18.13735 0.0946,-25.42235 5.72057,-6.48095 0.28375,-19.5478 -1.23666,-30.1685 -0.32413,-13.96561 2.41913,-23.99909 -5.32995,-35.91318 -4.97896,-10.0761 -7.94151,-16.96055 -11.93813,-25.21226 1.73178,-11.08176 -6.68238,-20.26393 -13.56404,-26.83678 -5.71759,-4.13324 -6.23612,-10.02643 -3.7514,-11.33204 -11.75239,-3.9642 -17.12295,-11.92775 -20.50667,-20.20314 -2.67878,-11.54849 -20.9078,-11.03622 -23.53058,-15.40363 -4.3555,2.32886 -11.84254,-8.08364 -17.01323,-1.13098 -9.27617,-6.41895 -10.792,11.967 -17.11632,2.30775 7.4076,-8.51119 17.8116,-18.8059 30.97588,-21.20271 15.00377,-1.751 30.44655,-0.78636 44.69075,-6.32649 30.93606,2.49137 57.5277,21.59649 76.77841,44.93121 33.61907,38.49541 44.84774,91.67706 42.0243,141.62128 -0.69401,31.85623 -14.83901,62.05661 -32.76367,87.79435 -14.39593,17.28668 -32.48259,33.09691 -54.20042,39.99403 -15.87255,0.60024 -34.54662,3.21173 -48.79282,1.15617 z m 52.22961,-192.5821 c -2.17946,-3.2189 -3.60474,5.31666 0,0 z m -45.8125,172.01929 c 0.78572,-9.45829 4.59288,3.43847 0,0 z m -93,-243.52277 c 2.98086,-6.04286 2.02865,4.55139 0,0 z"
         style="fill:#e5973e;fill-opacity:1" />
      <path
         id="path2493"
         d="m 395.39017,874.39795 c -1.65189,-12.4808 16.57728,-25.12452 23.23466,-37.10981 6.49132,-11.31711 11.64169,-21.03661 17.45233,-32.57511 1.18556,-8.36107 5.92186,-19.34513 6.96746,-25.32138 -0.91903,-4.58736 3.37797,-22.51091 1.80798,-33.15079 -1.17718,-12.19001 -1.20875,-23.86382 -2.09018,-34.01777 -3.99517,-14.68979 -6.0763,-30.01085 -10.78162,-44.24611 -3.79599,-13.73029 -8.12113,-26.92596 -17.61607,-37.99439 -3.70688,-11.37159 -11.4932,-20.54999 -18.97527,-30.2647 -4.27758,-6.10648 -16.19652,-10.83141 -8.48841,-12.50808 -5.08395,-7.82941 -33.16892,-15.64149 -15.22413,-25.04738 12.38771,-5.45073 25.98468,1.59476 37.90672,5.43111 29.00895,13.23552 51.10472,38.57871 66.70183,65.82946 21.32975,40.54762 26.33175,88.16759 20.23418,133.11777 -9.51232,40.50815 -31.97994,80.39671 -69.41733,100.95886 -9.44796,6.00931 -20.53807,9.40331 -31.71215,6.89832 z"
         style="fill:#e98f25;fill-opacity:1" />
      <path
         id="path2491"
         d="m 417.47928,867.36749 c 9.3877,-15.03843 24.33887,-26.85601 29.56652,-44.39372 11.20715,-19.4293 14.85758,-42.1648 18.65867,-63.97175 -0.77919,-17.88281 0.0154,-36.05687 -2.44399,-53.78602 -2.86495,-15.33839 -7.81051,-29.66427 -12.01488,-44.63722 -5.96071,-13.6487 -8.83734,-29.13682 -17.50725,-41.39131 -8.80056,-12.37896 -16.49274,-25.93016 -28.42091,-35.63208 -6.80712,-4.45191 -23.77144,-21.8498 -5.16706,-18.98717 30.69499,9.03511 53.62899,34.07931 70.9216,59.91251 25.60677,41.54223 31.61338,92.50176 25.8079,140.23527 -8.51451,38.14887 -28.37746,75.59227 -61.44173,97.80894 -3.03191,1.3414 -21.1082,14.33648 -17.95887,4.84255 z"
         style="fill:#e6851f;fill-opacity:1" />
      <path
         id="path2489"
         d="m 437.17691,853.84192 c 6.62726,-13.4321 17.82078,-24.84585 21.3026,-39.89669 3.2846,-12.76163 11.82101,-23.55096 12.60651,-36.77924 2.93255,-13.54896 2.91939,-28.20679 4.55333,-41.51078 -2.56734,-16.24475 -0.80242,-33.48255 -8.23399,-48.70492 -2.82606,-14.00831 -5.34341,-28.94494 -12.5254,-42.09752 -6.87026,-23.30628 -21.72164,-43.46211 -37.5597,-61.51944 -5.1066,-12.76279 16.81437,2.48078 20.95474,6.21472 33.39167,26.39465 52.46643,67.34544 57.65448,109.0275 5.95749,38.18097 2.09971,78.90136 -17.72734,112.71673 -8.74075,16.15076 -20.14873,32.02134 -36.02522,41.42372 -0.76406,1.29866 -4.09243,3.30271 -5.00001,1.12592 z"
         style="fill:#eb850f;fill-opacity:1" />
      <path
         id="path2487"
         d="m 455.17691,837.69812 c 7.40832,-16.39933 16.40326,-32.38349 20.94392,-50.1319 7.92168,-27.65203 9.0729,-56.87393 5.61958,-85.31536 -3.55023,-13.57673 -5.76865,-27.69471 -10.53597,-41.03487 -6.48937,-23.66783 -19.12309,-44.82985 -32.72568,-64.97129 2.43988,-6.03801 16.3868,10.73712 21.05879,16.0472 33.47453,38.44198 41.23693,92.2611 37.63621,141.53744 -3.99064,27.29171 -15.08821,53.7236 -31.72976,75.69834 -3.29766,1.03418 -7.57197,12.79158 -10.26709,8.17044 z"
         style="fill:#e7810d;fill-opacity:1" />
    </g>
  </g>
</svg>
