<?xml version="1.0" encoding="UTF-8" standalone="no"?>
<!-- Created with Inkscape (http://www.inkscape.org/) -->

<svg
   width="525"
   height="525"
   id="svg2"
   sodipodi:version="0.32"
   inkscape:version="1.3.2 (091e20e, 2023-11-25, custom)"
   version="1.0"
   sodipodi:docname="equip_club.svg"
   inkscape:output_extension="org.inkscape.output.svg.inkscape"
   xml:space="preserve"
   xmlns:inkscape="http://www.inkscape.org/namespaces/inkscape"
   xmlns:sodipodi="http://sodipodi.sourceforge.net/DTD/sodipodi-0.dtd"
   xmlns="http://www.w3.org/2000/svg"
   xmlns:svg="http://www.w3.org/2000/svg"
   xmlns:rdf="http://www.w3.org/1999/02/22-rdf-syntax-ns#"
   xmlns:cc="http://creativecommons.org/ns#"
   xmlns:dc="http://purl.org/dc/elements/1.1/"><defs
     id="defs4"><inkscape:perspective
       sodipodi:type="inkscape:persp3d"
       inkscape:vp_x="0 : 526.18109 : 1"
       inkscape:vp_y="0 : 1000 : 0"
       inkscape:vp_z="744.09448 : 526.18109 : 1"
       inkscape:persp3d-origin="372.04724 : 350.78739 : 1"
       id="perspective10" /><inkscape:perspective
       id="perspective2447"
       inkscape:persp3d-origin="372.04724 : 350.78739 : 1"
       inkscape:vp_z="744.09448 : 526.18109 : 1"
       inkscape:vp_y="0 : 1000 : 0"
       inkscape:vp_x="0 : 526.18109 : 1"
       sodipodi:type="inkscape:persp3d" /><inkscape:perspective
       sodipodi:type="inkscape:persp3d"
       inkscape:vp_x="0 : 526.18109 : 1"
       inkscape:vp_y="0 : 1000 : 0"
       inkscape:vp_z="744.09448 : 526.18109 : 1"
       inkscape:persp3d-origin="372.04724 : 350.78739 : 1"
       id="perspective10-7" /><inkscape:perspective
       id="perspective2447-5"
       inkscape:persp3d-origin="372.04724 : 350.78739 : 1"
       inkscape:vp_z="744.09448 : 526.18109 : 1"
       inkscape:vp_y="0 : 1000 : 0"
       inkscape:vp_x="0 : 526.18109 : 1"
       sodipodi:type="inkscape:persp3d" /></defs><sodipodi:namedview
     id="base"
     pagecolor="#ffffff"
     bordercolor="#666666"
     borderopacity="1.0"
     gridtolerance="10000"
     guidetolerance="10"
     objecttolerance="10"
     inkscape:pageopacity="0.0"
     inkscape:pageshadow="2"
     inkscape:zoom="2.9904762"
     inkscape:cx="262.5"
     inkscape:cy="262.5"
     inkscape:document-units="px"
     inkscape:current-layer="layer1"
     showgrid="false"
     inkscape:window-width="3291"
     inkscape:window-height="1817"
     inkscape:window-x="-11"
     inkscape:window-y="-11"
     inkscape:showpageshadow="2"
     inkscape:pagecheckerboard="0"
     inkscape:deskcolor="#d1d1d1"
     inkscape:window-maximized="1" /><metadata
     id="metadata7"><rdf:RDF><cc:Work
         rdf:about=""><dc:format>image/svg+xml</dc:format><dc:type
           rdf:resource="http://purl.org/dc/dcmitype/StillImage" /></cc:Work></rdf:RDF></metadata><g
     inkscape:label="Layer 1"
     inkscape:groupmode="layer"
     id="layer1"
     transform="translate(-169.70945,-261.08105)"><g
       id="g4"
       transform="matrix(21.512307,0,0,21.512307,85.497265,243.16736)"><path
         style="fill:#aeaeae;fill-opacity:1;stroke:none;stroke-width:0.0151807px;stroke-linecap:butt;stroke-linejoin:miter;stroke-opacity:1"
         d="m 15.872946,6.0274455 c -0.01955,-0.00806 -1.505902,-1.239162 -1.505902,-1.239162 0,0 1.852398,0.1644738 1.888026,0.1815577 0.218243,0.104649 0.368983,0.5804402 0.292389,0.7521369 -0.07629,0.1710212 -0.451929,0.3971996 -0.674513,0.3054674 z"
         id="path4-75"
         sodipodi:nodetypes="scsss" /><path
         style="fill:#aeaeae;fill-opacity:1;stroke:none;stroke-width:0.0151807px;stroke-linecap:butt;stroke-linejoin:miter;stroke-opacity:1"
         d="m 18.269952,2.4953384 c 0.01062,-0.018312 1.42372,-1.3168269 1.42372,-1.3168269 0,0 -0.418861,1.8257156 -0.440557,1.8587226 C 19.120211,3.2394217 18.633024,3.317974 18.475437,3.2154562 18.318471,3.1133418 18.149101,2.7038188 18.26995,2.495339 Z"
         id="path4-0"
         sodipodi:nodetypes="scsss" /><path
         style="fill:#aeaeae;fill-opacity:1;stroke:none;stroke-width:0.0151807px;stroke-linecap:butt;stroke-linejoin:miter;stroke-opacity:1"
         d="m 18.184137,5.8557505 c 0.01796,0.011234 1.281229,1.4745352 1.281229,1.4745352 0,0 -1.801061,-0.4745347 -1.833398,-0.4973713 C 17.433885,6.6930225 17.363846,6.198981 17.467856,6.0427995 17.571457,5.8872327 17.979632,5.7278482 18.184137,5.8557505 Z"
         id="path4-8"
         sodipodi:nodetypes="scsss" /><path
         id="path2"
         style="fill:#803300;stroke-width:0.405374"
         d="m 19.420695,1.6485931 c -0.861119,-0.4242248 -1.793241,0.1710358 -2.433907,0.7272279 -1.597183,1.4504259 -2.426062,3.5705147 -2.826315,5.6631387 -0.108722,0.5846369 -0.131792,1.1956924 -0.08144,1.7793909 -0.195096,0.4495754 -0.622173,0.8686854 -0.478927,1.3973524 0.157351,0.65471 1.123056,0.812877 1.468355,0.238614 0.163129,-0.284858 0.312516,-0.577751 0.470065,-0.865872 1.27927,-0.6314425 2.226365,-1.7695729 3.060209,-2.9034436 C 19.545071,6.3266167 20.3038,4.6910569 20.160101,2.9870292 20.100031,2.4709803 19.898075,1.9121688 19.420695,1.6485931 Z m -5.685014,9.7684559 c -0.772913,1.420966 -1.566849,2.831531 -2.326564,4.259026 -0.167196,0.540704 0.689008,0.726773 0.80594,0.195857 0.738526,-1.370158 1.477053,-2.740315 2.21558,-4.110473 -0.231652,-0.114803 -0.463304,-0.229607 -0.694956,-0.34441 z" /><path
         style="fill:#aeaeae;fill-opacity:1;stroke:none;stroke-width:0.0151807px;stroke-linecap:butt;stroke-linejoin:miter;stroke-opacity:1"
         d="m 14.428552,7.5000635 c -0.01955,-0.00806 -1.505903,-1.239162 -1.505903,-1.239162 0,0 1.852398,0.1644737 1.888026,0.1815574 0.218243,0.104649 0.368983,0.5804405 0.292389,0.7521372 -0.07629,0.1710212 -0.451929,0.3971996 -0.674512,0.3054674 z"
         id="path4"
         sodipodi:nodetypes="scsss" /><path
         style="fill:#aeaeae;fill-opacity:1;stroke:none;stroke-width:0.0151807px;stroke-linecap:butt;stroke-linejoin:miter;stroke-opacity:1"
         d="m 16.020496,4.3291815 c -0.01631,-0.013576 -1.072918,-1.6347916 -1.072918,-1.6347916 0,0 1.722418,0.7158558 1.751425,0.7428819 0.17768,0.1655522 0.180928,0.6642037 0.05685,0.8046063 -0.123583,0.1398499 -0.549707,0.2418642 -0.735362,0.087303 z"
         id="path4-9"
         sodipodi:nodetypes="scsss" /><path
         style="fill:#aeaeae;fill-opacity:1;stroke:none;stroke-width:0.0151807px;stroke-linecap:butt;stroke-linejoin:miter;stroke-opacity:1"
         d="m 18.939336,4.3629338 c 0.01555,-0.014262 1.749896,-0.82704 1.749896,-0.82704 0,0 -0.938634,1.6138254 -0.969113,1.6387585 -0.186708,0.15273 -0.675881,0.081218 -0.796414,-0.063811 -0.120059,-0.1444573 -0.161404,-0.58556 0.01563,-0.7479077 z"
         id="path4-6"
         sodipodi:nodetypes="scsss" /><path
         style="fill:#aeaeae;fill-opacity:1;stroke:none;stroke-width:0.0151807px;stroke-linecap:butt;stroke-linejoin:miter;stroke-opacity:1"
         d="m 17.688237,8.1590397 c 0.01461,0.015426 0.873696,1.7507476 0.873696,1.7507476 0,0 -1.62723,-0.9169421 -1.652871,-0.9472376 -0.157068,-0.1855784 -0.101604,-0.6807172 0.03821,-0.8051324 0.139258,-0.1239257 0.574685,-0.1740059 0.74097,0.00162 z"
         id="path4-7"
         sodipodi:nodetypes="scsss" /></g></g></svg>
