<?xml version="1.0" encoding="UTF-8" standalone="no"?>
<!-- Created with Inkscape (http://www.inkscape.org/) -->

<svg
   xmlns:dc="http://purl.org/dc/elements/1.1/"
   xmlns:cc="http://creativecommons.org/ns#"
   xmlns:rdf="http://www.w3.org/1999/02/22-rdf-syntax-ns#"
   xmlns:svg="http://www.w3.org/2000/svg"
   xmlns="http://www.w3.org/2000/svg"
   xmlns:sodipodi="http://sodipodi.sourceforge.net/DTD/sodipodi-0.dtd"
   xmlns:inkscape="http://www.inkscape.org/namespaces/inkscape"
   width="525"
   height="525"
   id="svg2"
   sodipodi:version="0.32"
   inkscape:version="0.48.4 r9939"
   version="1.0"
   sodipodi:docname="equip_bazooka.svg"
   inkscape:output_extension="org.inkscape.output.svg.inkscape">
  <defs
     id="defs4">
    <inkscape:perspective
       sodipodi:type="inkscape:persp3d"
       inkscape:vp_x="0 : 526.18109 : 1"
       inkscape:vp_y="0 : 1000 : 0"
       inkscape:vp_z="744.09448 : 526.18109 : 1"
       inkscape:persp3d-origin="372.04724 : 350.78739 : 1"
       id="perspective10" />
    <inkscape:perspective
       id="perspective2447"
       inkscape:persp3d-origin="372.04724 : 350.78739 : 1"
       inkscape:vp_z="744.09448 : 526.18109 : 1"
       inkscape:vp_y="0 : 1000 : 0"
       inkscape:vp_x="0 : 526.18109 : 1"
       sodipodi:type="inkscape:persp3d" />
  </defs>
  <sodipodi:namedview
     id="base"
     pagecolor="#ffffff"
     bordercolor="#666666"
     borderopacity="1.0"
     gridtolerance="10000"
     guidetolerance="10"
     objecttolerance="10"
     inkscape:pageopacity="0.0"
     inkscape:pageshadow="2"
     inkscape:zoom="2.5125861"
     inkscape:cx="312.27265"
     inkscape:cy="197.07058"
     inkscape:document-units="px"
     inkscape:current-layer="layer1"
     showgrid="false"
     inkscape:window-width="1920"
     inkscape:window-height="994"
     inkscape:window-x="0"
     inkscape:window-y="25"
     inkscape:window-maximized="1" />
  <metadata
     id="metadata7">
    <rdf:RDF>
      <cc:Work
         rdf:about="">
        <dc:format>image/svg+xml</dc:format>
        <dc:type
           rdf:resource="http://purl.org/dc/dcmitype/StillImage" />
        <dc:title />
      </cc:Work>
    </rdf:RDF>
  </metadata>
  <g
     inkscape:label="Layer 1"
     inkscape:groupmode="layer"
     id="layer1"
     transform="translate(-169.70945,-261.08105)">
    <g
       id="g3049"
       transform="matrix(-1,0,0,1,857.79085,4.3779547)">
      <path
         style="fill:#9aa299"
         d="m 347.58548,605.92052 c -1.28167,-1.95607 -2.93615,-2.10325 -7.43599,-0.66152 -1.36335,0.43682 -1.65659,0.25492 -1.65659,-1.02762 0,-1.50653 0.94832,-2.69746 4.32646,-5.4333 1.46375,-1.18544 1.55926,-1.72805 1.10151,-6.25824 -0.27565,-2.72815 -1.0299,-5.77452 -1.67612,-6.76973 -1.15748,-1.78258 -1.18316,-1.73885 -1.72985,2.94505 -0.3052,2.61499 -0.71712,5.46595 -0.91537,6.33547 -0.45397,1.99113 -4.9192,4.6773 -7.77509,4.6773 -2.01609,0 -5.11176,-2.15682 -5.11176,-3.56148 0,-3.58394 -4.15708,-21.79955 -5.68895,-24.92806 -2.43108,-4.9649 -8.52224,-10.76426 -14.00416,-13.33327 -3.6255,-1.69904 -5.18973,-1.98332 -10.86184,-1.97398 -7.75221,0.0128 -10.53347,1.095 -17.89601,6.96373 -5.4629,4.35452 -8.38705,4.8403 -11.18814,1.85868 -1.48206,-1.57758 -1.81216,-2.92738 -2.29576,-9.38737 -0.93988,-12.55521 -0.7859,-19.53388 0.47342,-21.45585 2.07908,-3.17307 0.49806,-3.49273 -15.22312,-3.0779 -19.0552,0.5028 -20.94231,0.67153 -22.48886,2.01076 -1.85407,1.60552 -5.81768,2.82979 -9.16154,2.82979 -2.21571,0 -3.25643,-0.47915 -4.79755,-2.20879 -2.74831,-3.08451 -6.78908,-3.08628 -10.29901,-0.004 -7.63434,6.70301 -16.94716,7.54445 -21.23799,1.91887 -2.86224,-3.75258 -4.14818,-8.32203 -4.57915,-16.27152 -0.45633,-8.4173 0.74121,-14.53088 3.90325,-19.92649 3.29588,-5.624 5.0839,-6.41853 15.13589,-6.72588 8.76777,-0.26809 11.07577,0.18603 12.79615,2.51775 0.63735,0.86382 2.30117,0.88941 10.52857,0.16197 5.37439,-0.47519 9.96163,-0.67396 10.19388,-0.44171 1.02879,1.02878 -0.60212,2.69457 -2.63813,2.69457 -2.49947,0 -3.20578,0.70323 -2.25377,2.24395 0.57062,0.92348 13.08531,1.10056 91.80033,1.29897 50.1268,0.12635 93.54812,0.0147 96.49182,-0.24822 4.95658,-0.44262 5.43416,-0.63647 6.46121,-2.62259 1.08205,-2.09245 1.24971,-2.14463 6.89092,-2.14463 5.71017,0 5.79305,0.027 6.68278,2.17497 0.74437,1.79706 1.43151,2.24086 3.9547,2.55415 2.92334,0.36298 78.87395,1.47606 172.02635,2.52109 24.09423,0.2703 46.49296,0.32335 49.77495,0.11788 5.60725,-0.35105 6.14745,-0.53649 8.95409,-3.07381 6.39741,-5.78353 8.80043,-5.64021 11.3402,0.67633 1.56894,3.90205 1.70245,5.32544 1.70918,18.2217 0.008,14.8496 -0.76652,20.16492 -3.43072,23.5519 -0.80001,1.01706 -1.72797,1.84919 -2.06212,1.84919 -0.33416,0 -2.99201,-1.8657 -5.90634,-4.14601 l -5.29879,-4.14601 -13.73528,-0.60633 c -7.5544,-0.33348 -17.47952,-0.62135 -22.05582,-0.6397 l -8.32053,-0.0334 -1.06242,2.54273 c -0.85533,2.04707 -1.58904,2.64153 -3.76394,3.04954 -3.32881,0.62449 -4.7957,-0.23249 -5.58022,-3.26005 -0.59623,-2.30091 -0.66584,-2.33251 -5.18494,-2.35319 -17.3478,-0.0794 -95.18566,-1.54192 -119.59359,-2.2471 l -29.6064,-0.85538 -2.2935,1.92986 c -3.1679,2.6656 -8.30398,2.46551 -9.20026,-0.35844 -0.37359,-1.17707 -1.1792,-1.39303 -5.19645,-1.39303 -4.49737,0 -4.79854,0.10943 -5.57241,2.02473 -0.47453,1.17442 -0.90954,8.16722 -1.03586,16.65113 -0.26859,18.04102 -0.49256,19.42437 -3.76343,23.24565 -5.29194,6.18244 -12.09796,7.88703 -20.96269,5.25019 -2.97603,-0.88523 -5.98669,-1.77682 -6.69037,-1.9813 -1.08287,-0.31468 -1.20889,-0.0192 -0.82039,1.92321 0.37427,1.87137 0.0753,2.69546 -1.61934,4.46433 -1.14309,1.19312 -2.53023,2.16931 -3.08256,2.16931 -1.2273,0 -3.13786,-4.35522 -3.13786,-7.15295 0,-1.51327 -0.95794,-2.92709 -3.67693,-5.42678 l -3.67693,-3.38038 1.17409,-3.98423 c 0.64574,-2.19132 1.79358,-5.80648 2.55074,-8.03368 1.46803,-4.31823 4.36529,-16.29227 4.36529,-18.04122 0,-0.82737 -1.60077,-1.09463 -7.5467,-1.25994 -7.19462,-0.20004 -7.55769,-0.2872 -7.78222,-1.86819 -0.12952,-0.91209 -1.32041,-2.48586 -2.64642,-3.49725 -2.27751,-1.73715 -2.92647,-1.83889 -11.72877,-1.83889 l -9.31787,0 0,2.24535 c 0,1.23495 -0.53538,3.28067 -1.18974,4.54605 -1.04182,2.01467 -1.1347,4.68744 -0.74706,21.49916 0.57375,24.88332 0.61133,23.71543 -0.85078,26.44116 -0.88336,1.64684 -1.18732,3.59966 -1.01335,6.51047 0.22123,3.70154 0.44625,4.20763 2.04976,4.61008 2.17686,0.54635 3.57926,3.31213 2.95024,5.81833 -0.38822,1.54684 -4.40594,4.90083 -5.87065,4.90083 -0.24657,0 -1.0104,-0.85784 -1.69738,-1.90631 z M 335.8159,592.63066 c 0.25751,-1.87878 0.46821,-5.0263 0.46821,-6.99451 0,-2.59687 0.40395,-3.98251 1.47253,-5.05108 0.80989,-0.80989 1.72829,-1.47253 2.04088,-1.47253 1.52782,0 2.29066,-9.77882 1.8576,-23.81244 -0.38466,-12.46557 -0.62272,-14.66099 -1.62245,-14.96247 -2.73071,-0.82347 -3.39878,-1.66024 -3.74856,-4.69523 -0.36128,-3.13471 -0.43667,-3.21168 -4.04945,-4.13398 -2.6652,-0.68039 -10.24938,-0.90737 -27.47697,-0.82231 l -23.79564,0.11748 -1.47152,2.06656 c -1.19239,1.67455 -2.02986,2.06657 -4.41485,2.06657 -5.7404,0 -5.74188,0.004 -5.28267,12.69897 0.42884,11.85554 1.29253,15.27905 3.85464,15.27905 1.27511,0 9.81334,-5.87967 10.75811,-7.40835 0.22805,-0.36898 2.75803,-1.38266 5.6222,-2.25262 10.17927,-3.09186 21.20716,-0.43527 29.19009,7.03182 5.28123,4.93999 7.87128,10.70774 10.10748,22.50827 2.20529,11.63745 2.77009,13.25275 4.63393,13.25275 1.09338,0 1.48768,-0.72553 1.85644,-3.41595 z m 61.40954,-11.17178 c 0.17934,-0.53802 -0.15726,-0.70257 -0.87431,-0.42741 -0.64126,0.24608 -1.16592,0.77088 -1.16592,1.16625 0,0.96774 1.67337,0.36176 2.04023,-0.73884 z m 27.08771,-5.62165 c 3.92366,-2.57088 4.71032,-6.11319 4.82769,-21.73906 0.1151,-15.32401 -0.0206,-15.86574 -3.80349,-15.18026 -2.47034,0.44764 -3.14177,-0.0624 -5.0583,-3.84236 -1.37186,-2.70571 -1.90278,-3.1405 -3.59617,-2.94506 -2.26734,0.2617 -2.2983,0.63828 -0.64331,7.82351 0.58897,2.55704 0.89887,5.30681 0.68868,6.1106 -0.2102,0.80379 0.17019,2.6875 0.84531,4.18601 0.91179,2.02381 1.07276,3.46812 0.62589,5.6155 -0.75364,3.62147 -1.99501,4.11255 -3.01313,1.19197 -0.42991,-1.23323 -1.08974,-2.24224 -1.4663,-2.24224 -0.67992,0 -6.15305,2.1448 -6.64165,2.60271 -0.64164,0.60136 -3.47473,15.86584 -3.06711,16.52539 0.25274,0.40894 2.26326,1.40388 4.46783,2.21097 4.91106,1.79794 12.84826,1.63869 15.83406,-0.31768 z"
         id="path3071"
         inkscape:connector-curvature="0" />
      <path
         style="fill:#838f79"
         d="m 348.56246,604.78694 c -0.37059,-1.41718 -0.8021,-1.53483 -4.50345,-1.22789 -3.03776,0.25191 -4.09358,0.0932 -4.09358,-0.61552 0,-0.52525 0.6368,-1.29581 1.41511,-1.71235 3.20735,-1.71652 3.73873,-2.91896 3.73873,-8.4602 0,-3.7763 -0.31498,-5.64065 -1.05706,-6.25652 -0.58139,-0.48251 -1.26952,-1.84456 -1.52918,-3.02677 -0.25966,-1.18221 -0.76527,-2.33066 -1.12359,-2.55211 -0.36337,-0.22457 -0.27752,-1.28654 0.19412,-2.4013 0.91603,-2.16512 1.77527,-34.26867 0.99987,-37.35808 -0.30823,-1.22813 -1.19118,-1.97603 -2.83142,-2.39838 -2.13975,-0.55096 -2.42115,-0.94071 -2.75164,-3.81108 -0.35504,-3.08375 -0.49088,-3.233 -3.82274,-4.20046 -2.67714,-0.77735 -9.03849,-0.95946 -28.26619,-0.80919 -23.94444,0.18713 -24.8401,0.24537 -25.62781,1.66644 -1.25592,2.26576 -2.08341,2.66033 -4.75899,2.26922 -1.58733,-0.23204 -3.13695,0.0757 -4.33556,0.8611 l -1.86531,1.2222 0.51702,11.76462 c 0.52734,11.9997 0.93721,13.79142 3.66054,16.0018 l 1.54849,1.25684 -1.95615,0.49284 c -2.67519,0.67402 -4.77828,-0.62595 -5.64951,-3.49209 -0.40099,-1.31918 -0.91438,-7.75028 -1.14084,-14.29133 -0.34349,-9.92058 -0.23235,-12.04172 0.67011,-12.7907 0.59504,-0.49383 1.08189,-1.47938 1.08189,-2.19011 0,-2.78394 -1.49633,-3.01536 -17.41309,-2.69307 -8.44286,0.17095 -16.66134,0.3324 -18.26329,0.35878 -1.94736,0.0321 -3.2894,0.51743 -4.04945,1.46455 -0.62525,0.77912 -2.2136,1.61658 -3.52967,1.86102 -2.07616,0.38562 -2.39286,0.24142 -2.39286,-1.0895 0,-1.29719 -0.30547,-1.45727 -1.97925,-1.03718 -1.08859,0.27322 -2.41382,1.05461 -2.94497,1.73641 -0.88393,1.13466 -1.09565,1.06817 -2.49974,-0.78507 -1.34627,-1.77692 -2.02905,-2.02473 -5.5787,-2.02473 -3.55544,0 -4.32528,0.28061 -6.36456,2.31988 -3.18938,3.18939 -7.53264,5.00737 -12.00876,5.02659 -4.40945,0.0189 -6.95349,-1.60287 -9.03459,-5.75947 -2.02202,-4.03858 -2.28479,-5.79548 -2.36874,-15.83703 -0.071,-8.49867 0.0747,-9.54357 1.88179,-13.49469 2.43701,-5.32833 5.10657,-8.181 8.19874,-8.76109 2.97951,-0.55896 4.8896,0.0209 5.83174,1.77046 0.40132,0.74525 1.37085,2.57052 2.1545,4.05616 0.84135,1.59502 1.972,2.70117 2.76099,2.70117 1.89471,0 1.68441,-2.2264 -0.51666,-5.46986 -1.01905,-1.50166 -1.66214,-3.03882 -1.42907,-3.41593 0.60109,-0.97259 6.74881,-0.85139 8.66821,0.17089 0.88451,0.47109 1.97381,1.35237 2.42067,1.9584 0.67233,0.91179 2.10274,1.01732 8.29188,0.61172 7.32772,-0.48021 7.46093,-0.46057 6.56859,0.96828 -1.27937,2.0486 -0.0743,3.02685 4.71407,3.82668 4.33,0.72327 181.264,0.83884 187.43234,0.12243 3.22865,-0.37498 4.02739,-0.77032 4.79294,-2.37228 0.84861,-1.77577 1.32546,-1.93881 6.25524,-2.13875 5.09455,-0.20662 5.36814,-0.13351 6.03172,1.61183 0.3823,1.00555 1.29077,2.14344 2.0188,2.52865 0.76444,0.40447 25.58729,1.04575 58.75228,1.51782 31.58572,0.4496 68.85907,0.99338 82.82968,1.20841 57.56698,0.88603 86.32816,0.9736 88.18275,0.26849 1.04458,-0.39715 3.1843,-1.88306 4.75492,-3.30202 3.72287,-3.36338 6.10269,-4.46 7.37942,-3.40041 0.53081,0.44053 1.6174,2.55998 2.41466,4.7099 1.26114,3.40082 1.44385,5.72737 1.40557,17.89795 -0.0375,11.91034 -0.25627,14.58142 -1.47253,17.97582 -2.12463,5.92956 -2.92252,6.09151 -8.48859,1.72295 -4.15524,-3.26126 -5.35385,-3.80259 -10.01503,-4.52313 -2.91219,-0.45017 -13.26145,-0.8185 -22.99836,-0.8185 l -17.70349,0 -1.04599,2.50343 c -0.77188,1.84735 -1.65065,2.63623 -3.35323,3.01018 -2.76179,0.60659 -4.11827,-0.3292 -4.70105,-3.24308 l -0.42281,-2.11404 -10.52581,-0.42761 c -5.7892,-0.23518 -26.92609,-0.61511 -46.97087,-0.8443 -20.04478,-0.22918 -44.89368,-0.72198 -55.21978,-1.0951 -10.3261,-0.37312 -24.22336,-0.69103 -30.88279,-0.70647 -12.01552,-0.0278 -12.12315,-0.0136 -14.08197,1.86305 -1.62578,1.5576 -2.41771,1.80786 -4.49038,1.41902 -1.58843,-0.29799 -2.77603,-1.06331 -3.22024,-2.07518 -0.60629,-1.38108 -1.38741,-1.63313 -5.64046,-1.82004 l -4.9367,-0.21695 -1.5056,3.11623 c -0.82809,1.71393 -1.5056,3.71664 -1.5056,4.45047 0,1.41627 -1.81141,1.8366 -2.57693,0.59797 -0.25027,-0.40494 -1.73751,-0.73626 -3.30498,-0.73626 -2.64623,0 -2.96951,-0.23938 -4.52242,-3.34879 -1.56235,-3.12828 -1.84451,-3.33433 -4.28517,-3.12912 -2.54218,0.21374 -2.60971,0.29917 -2.50174,3.16472 0.24194,6.42115 1.2408,13.35352 2.19601,15.24091 1.59872,3.15888 1.11969,4.10499 -0.85727,1.69316 -0.99578,-1.21484 -1.81217,-2.9347 -1.81418,-3.82193 -0.002,-0.88723 -0.31112,-1.80317 -0.68691,-2.03542 -0.92686,-0.57283 -1.43074,1.56113 -1.20922,5.12109 0.20415,3.28081 -0.58989,4.78571 -2.52511,4.78571 -0.71072,0 -1.69975,0.49104 -2.19785,1.09121 -1.42809,1.72075 -4.40339,16.77759 -3.52882,17.858 0.40547,0.50091 2.77098,1.65423 5.25668,2.56292 6.35415,2.32287 3.46797,2.48392 -4.27948,0.23879 -3.55256,-1.02948 -7.69607,-1.8718 -9.20779,-1.8718 -1.80168,0 -3.20181,-0.50081 -4.06419,-1.45373 -0.72359,-0.79955 -1.9176,-1.6448 -2.65337,-1.87832 -2.4726,-0.78477 -2.35333,-3.20076 0.64724,-13.11143 3.505,-11.57673 5.25147,-19.26066 4.61267,-20.29426 -0.25649,-0.41501 -3.76792,-0.85025 -7.80319,-0.9672 -7.21173,-0.20902 -7.34055,-0.24403 -7.55398,-2.0533 -0.13661,-1.158 -1.19167,-2.47793 -2.84477,-3.55894 -2.38251,-1.55799 -3.47043,-1.72147 -11.66232,-1.75247 -4.96908,-0.0188 -9.40418,0.19416 -9.85578,0.47327 -0.4516,0.2791 -0.82109,1.33266 -0.82109,2.34123 0,1.00858 -0.54363,2.88503 -1.20807,4.16991 -1.06719,2.06374 -1.16316,4.87105 -0.82298,24.07607 0.35903,20.26888 0.29131,21.92478 -1.00073,24.4716 -2.5087,4.94508 -1.68742,11.11963 1.63301,12.27714 2.73709,0.95415 2.95062,4.21556 0.43098,6.58264 -2.14651,2.01654 -3.16693,2.02582 -3.68793,0.0335 z m 59.75866,-51.90536 c 0.13821,-0.09 0.0241,-0.8795 -0.25366,-1.75453 l -0.50496,-1.59098 -1.77106,1.66383 c -2.52729,2.37426 -2.38941,3.84993 0.25366,2.71481 1.1136,-0.47826 2.13781,-0.94317 2.27602,-1.03313 z m 17.84584,-31.19761 c 0.94869,0 1.48581,-0.73924 1.81602,-2.4994 0.53846,-2.87021 -0.67228,-5.73217 -2.18017,-5.15353 -0.56062,0.21513 -5.11119,0.49316 -10.1124,0.61785 -11.59239,0.28902 -23.45025,1.22528 -23.45025,1.85156 0,0.26647 0.41414,1.01076 0.92033,1.65397 1.61275,2.04936 16.77491,3.80365 17.84933,2.0652 0.27828,-0.45026 1.09168,-0.30762 2.13172,0.37384 1.06993,0.70105 2.49661,0.93893 3.92176,0.6539 1.39492,-0.27898 2.44629,-0.11426 2.78675,0.43661 0.33823,0.54727 1.39006,0.71594 2.75825,0.4423 1.21634,-0.24326 2.81774,-0.4423 3.55866,-0.4423 z m -35.76746,-2.20879 c 0,-0.84662 -0.83107,-1.07531 -3.56053,-0.97977 -1.95829,0.0685 -3.73088,0.29499 -3.93911,0.50321 -0.97856,0.97856 0.76794,1.70169 3.97119,1.64424 2.61743,-0.047 3.52845,-0.34843 3.52845,-1.16768 z m -32.43448,-2.27168 c -0.23705,-0.38357 -0.74484,-0.50344 -1.12841,-0.26638 -0.38357,0.23706 -0.50344,0.74484 -0.26638,1.12841 0.23706,0.38357 0.74484,0.50345 1.12841,0.26639 0.38357,-0.23706 0.50345,-0.74485 0.26638,-1.12842 z m 94.64877,0.79915 c 0,-0.40495 -0.35088,-0.73626 -0.77972,-0.73626 -0.42885,0 -0.57495,0.33131 -0.32468,0.73626 0.25027,0.40494 0.60114,0.73626 0.77972,0.73626 0.17857,0 0.32468,-0.33132 0.32468,-0.73626 z m -123.22497,80.04821 c -1.4141,-1.03401 -1.89638,-2.82561 -4.04983,-15.04457 -1.75532,-9.95991 -4.52856,-15.68848 -9.98148,-20.6183 -4.77214,-4.31436 -10.09811,-6.75506 -17.22585,-7.894 l -5.65524,-0.90365 3.68131,-0.52157 c 8.00866,-1.13468 17.00188,2.26495 23.1287,8.74316 5.1392,5.43395 7.17528,10.24006 9.43403,22.26877 1.49087,7.93943 2.27632,10.53362 3.6384,12.01695 2.44406,2.66163 0.10367,4.20076 -2.97004,1.95321 z m 7.423,-7.34217 c 0.36458,-7.79224 0.71967,-9.38736 2.08969,-9.38736 0.95329,0 1.04466,0.99726 0.62396,6.81044 -0.45464,6.28199 -1.132,8.6511 -2.47349,8.6511 -0.28839,0 -0.39647,-2.73338 -0.24016,-6.07418 z m 56.57379,-10.79345 c -0.42318,-0.68472 0.21221,-3.01149 0.82238,-3.01149 0.18577,0 1.00001,0.35442 1.80943,0.78761 1.17521,0.62895 1.29561,0.99974 0.5977,1.84066 -0.98921,1.19193 -2.61077,1.38435 -3.22951,0.38322 z m 37.43472,-26.94006 c 7.4e-4,-6.07418 0.11507,-8.4611 0.25342,-5.30426 0.13834,3.15683 0.1375,8.12661 -0.002,11.04396 -0.13938,2.91734 -0.25257,0.33447 -0.25154,-5.7397 z M 225.84454,495.91474 c 1.45053,-0.9374 3.15627,-0.9374 2.57693,0 -0.25027,0.40494 -1.18095,0.73119 -2.06818,0.72499 -1.31146,-0.009 -1.4066,-0.14475 -0.50875,-0.72499 z"
         id="path3069"
         inkscape:connector-curvature="0" />
      <path
         style="fill:#7a8485"
         d="m 348.80059,604.96054 c 0,-1.46059 -1.56204,-2.43903 -3.12912,-1.96003 -3.39104,1.03652 -5.70604,1.04553 -5.70604,0.0222 0,-0.5973 0.25748,-1.08599 0.57218,-1.08599 0.3147,0 1.63997,-0.97528 2.94505,-2.16729 2.27244,-2.07551 2.37288,-2.40275 2.37288,-7.73073 0,-3.34543 -0.30397,-5.56348 -0.76243,-5.56348 -0.41933,0 -1.37142,-1.42073 -2.11574,-3.15717 -1.13308,-2.64334 -1.23034,-3.75171 -0.59764,-6.81044 0.41563,-2.0093 0.88348,-10.51994 1.03968,-18.91254 0.23601,-12.68126 0.0929,-15.6287 -0.84682,-17.44599 l -1.13081,-2.18674 3.4505,-0.22433 c 3.25659,-0.21172 3.46499,-0.35296 3.70843,-2.51314 0.24743,-2.19577 0.12766,-2.30665 -2.94669,-2.72804 -1.76252,-0.24158 -3.96629,-0.24005 -4.89726,0.003 -1.49458,0.39084 -1.64747,0.77956 -1.30648,3.32181 0.32275,2.40623 0.18513,2.84017 -0.8378,2.64178 -0.87446,-0.16961 -1.23076,-1.02173 -1.24773,-2.98408 -0.0471,-5.45018 0.76259,-5.30123 -30.19105,-5.55386 l -27.58711,-0.22515 -0.75064,1.97435 c -0.70573,1.85621 -0.95889,1.94814 -4.23092,1.53636 -3.14598,-0.39592 -3.61381,-0.25476 -4.8707,1.46955 -1.28041,1.75659 -1.34891,2.81539 -0.8657,13.38047 0.53631,11.72624 0.94576,13.48396 3.6527,15.68104 l 1.54849,1.25684 -2.09171,0.52687 c -1.5995,0.40289 -2.44794,0.17064 -3.60559,-0.987 -2.01697,-2.01697 -2.67313,-6.55904 -2.72584,-18.86866 -0.0375,-8.74749 0.14394,-10.45727 1.23767,-11.66583 1.22809,-1.35702 1.19421,-1.49127 -0.8118,-3.21677 l -2.09339,-1.80064 -14.09753,0.33378 c -17.25548,0.40856 -21.32402,0.89304 -22.99376,2.73809 -1.51711,1.67638 -4.39642,1.84983 -4.9909,0.30065 -0.61726,-1.60856 -3.89498,-1.35117 -5.12316,0.4023 -1.04344,1.48971 -1.08064,1.48141 -3.2983,-0.73626 -1.84289,-1.84287 -2.84086,-2.24295 -5.59494,-2.24295 -2.91082,0 -3.66923,0.34868 -5.76268,2.6494 -2.99126,3.28744 -3.98664,3.82525 -8.7525,4.72908 -5.60193,1.06239 -9.01326,-0.0665 -11.48417,-3.80028 -1.81441,-2.74176 -2.02703,-3.85856 -2.59984,-13.65579 -0.51102,-8.74054 -0.42163,-11.36533 0.49434,-14.51618 1.53894,-5.29374 4.84649,-9.65622 8.14705,-10.74551 2.60186,-0.85869 2.73334,-0.80937 5.20332,1.95169 1.39371,1.55796 3.10189,3.74377 3.79596,4.85737 1.38807,2.22706 3.48477,2.66895 4.17157,0.87917 0.4922,-1.28266 -1.16379,-5.76505 -2.41571,-6.53879 -0.44627,-0.2758 -0.81139,-0.97888 -0.81139,-1.5624 0,-0.76884 0.92554,-1.06095 3.36159,-1.06095 3.56306,0 6.17163,0.99711 7.20594,2.75442 0.49695,0.84434 2.10982,1.01392 7.73077,0.81285 6.85653,-0.24527 7.09548,-0.20055 6.89155,1.2898 -0.27906,2.03948 0.98321,2.95789 4.99697,3.63573 4.02584,0.67989 180.32902,0.65099 186.83899,-0.0306 4.1335,-0.43278 4.72938,-0.70673 5.72496,-2.63196 1.06724,-2.06383 1.31524,-2.1489 6.26439,-2.1489 4.69395,0 5.21032,0.15032 5.79451,1.68685 0.35274,0.92777 1.09,2.05825 1.63836,2.51217 1.18607,0.9818 58.76437,2.18899 136.8377,2.86895 28.54863,0.24863 55.05413,0.66514 58.9011,0.92556 3.84698,0.26043 13.28957,0.30784 20.98352,0.10537 l 13.98901,-0.36813 4.77452,-3.88608 c 2.62598,-2.13734 5.27651,-3.7894 5.89007,-3.67124 0.61355,0.11816 1.90925,2.19821 2.87933,4.62234 3.25524,8.1345 2.86788,30.45184 -0.66754,38.45971 -0.75982,1.72101 -1.58788,3.12912 -1.84014,3.12912 -0.50073,0 -5.26373,-3.46258 -6.90602,-5.0205 -3.61275,-3.42713 -3.66158,-3.43372 -27.43398,-3.70134 l -22.63396,-0.2548 -0.62875,2.42642 c -1.12928,4.35806 -7.54891,4.60635 -7.54891,0.29198 0,-0.9132 -0.41415,-1.98849 -0.92033,-2.38954 -0.56512,-0.44774 -16.69196,-0.91855 -41.78297,-1.21982 -22.47445,-0.26985 -50.47088,-0.79907 -62.21429,-1.17604 -11.74341,-0.37698 -28.01386,-0.89736 -36.15657,-1.1564 l -14.80491,-0.47098 -2.38931,2.33563 c -1.39838,1.36696 -2.84077,2.16239 -3.47783,1.91793 -0.59869,-0.22974 -1.70102,-0.41771 -2.44963,-0.41771 -0.85096,0 -1.44928,-0.62089 -1.59637,-1.65659 -0.21573,-1.51899 -0.67599,-1.67451 -5.54073,-1.87226 l -5.30547,-0.21567 -1.50497,3.11495 c -0.82775,1.71322 -1.50498,3.71535 -1.50498,4.44918 0,1.4563 -0.78004,1.72518 -1.87748,0.64718 -0.38469,-0.37789 -2.01647,-0.79204 -3.62615,-0.92033 -2.5375,-0.20225 -3.14084,-0.61621 -4.53686,-3.1128 -2.03828,-3.64518 -3.55214,-4.53195 -5.90592,-3.45949 -1.57719,0.71861 -1.77715,1.24596 -1.63701,4.3172 0.0878,1.92423 -0.27301,4.30701 -0.8018,5.29507 -0.5288,0.98807 -1.04722,4.3597 -1.15204,7.49251 -0.21109,6.30851 -0.54306,7.2727 -2.50396,7.2727 -0.73641,0 -1.74645,0.49104 -2.24455,1.09121 -1.42809,1.72075 -4.40339,16.77759 -3.52882,17.858 0.40547,0.50091 2.77098,1.65423 5.25668,2.56292 6.33453,2.31569 3.3375,2.5183 -4.07072,0.27519 -3.37431,-1.0217 -7.59696,-2.08561 -9.38367,-2.36425 -3.95921,-0.61744 -7.99431,-3.04278 -8.57975,-5.15694 -0.24486,-0.88423 0.57635,-4.56281 1.8902,-8.46703 1.27773,-3.79692 2.96423,-9.88536 3.74776,-13.52987 0.78353,-3.6445 1.59924,-7.1783 1.81269,-7.85287 0.51849,-1.63854 -0.89286,-2.42824 -4.45751,-2.49415 -10.1035,-0.1868 -10.67582,-0.27995 -10.67582,-1.73764 0,-0.80284 -1.32916,-2.3863 -3.0901,-3.68132 -3.01555,-2.21766 -3.28643,-2.27224 -11.22802,-2.26243 -10.56168,0.0131 -11.45111,0.26356 -11.45111,3.22518 0,1.27998 -0.54388,3.10372 -1.20862,4.05277 -1.07631,1.53665 -1.16787,4.12916 -0.8365,23.68463 0.34415,20.30977 0.26903,22.18931 -1.00018,25.02418 -1.57368,3.51491 -1.84417,10.43978 -0.45196,11.57008 0.50618,0.41095 1.58297,0.86838 2.39286,1.0165 2.4298,0.44441 2.39258,4.50197 -0.059,6.43038 -2.44564,1.92371 -3.25422,1.96444 -3.25422,0.1639 z m -2.94505,-27.32053 c 0,-1.21483 -0.33132,-2.20879 -0.73627,-2.20879 -0.40494,0 -0.73626,0.99396 -0.73626,2.20879 0,1.21484 0.33132,2.20879 0.73626,2.20879 0.40495,0 0.73627,-0.99395 0.73627,-2.20879 z m -0.0518,-10.85989 c -0.0351,-3.87195 -0.25514,-5.23273 -0.68451,-4.23351 -0.89199,2.07576 -0.89199,9.93956 0,9.93956 0.43196,0 0.71487,-2.35836 0.68451,-5.70605 z m 62.51733,-13.89854 c 0.13821,-0.09 0.0241,-0.8795 -0.25366,-1.75453 l -0.50496,-1.59098 -1.77106,1.66383 c -2.52728,2.37426 -2.3894,3.84993 0.25366,2.71481 1.1136,-0.47826 2.13781,-0.94317 2.27602,-1.03313 z m -18.72672,-29.3933 c 0.62741,-0.6274 1.41205,-1.62555 1.74366,-2.2181 0.49927,-0.89215 1.29315,-0.94553 4.6179,-0.31052 2.20823,0.42176 7.1625,0.77958 11.00947,0.79516 10.01667,0.0406 11.59512,0.18938 12.59511,1.18747 1.05712,1.05513 7.35918,0.4249 8.19307,-0.81934 0.93447,-1.39432 0.62377,-7.57128 -0.4246,-8.44134 -0.54344,-0.45102 -1.16088,-0.64722 -1.37209,-0.43601 -0.21122,0.21122 -11.91123,0.55194 -26.00002,0.75717 -14.0888,0.20523 -25.85882,0.52321 -26.15561,0.70664 -0.77406,0.4784 -28.41137,1.36118 -32.36333,1.03374 -1.82225,-0.15098 -6.62638,-0.23815 -10.67583,-0.1937 -4.04945,0.0444 -8.52225,0.0801 -9.93956,0.0793 -1.4173,-8.8e-4 -3.90219,0.006 -5.52198,0.0157 -35.53932,0.20848 -59.59973,0.15387 -71.60165,-0.16251 -8.20013,-0.21616 -14.90933,-0.12009 -14.90933,0.21349 0,0.33359 0.59402,1.1441 1.32004,1.80114 2.00453,1.81408 21.81348,2.98092 32.97401,1.94233 4.71151,-0.43845 9.11083,-0.5647 9.77628,-0.28056 0.66544,0.28415 15.06417,0.64373 31.99717,0.79908 25.035,0.22967 31.44305,0.0877 34.29701,-0.75983 2.50918,-0.74514 4.43692,-0.85649 6.76217,-0.39057 1.78884,0.35844 9.5475,0.85793 17.24146,1.10998 9.28932,0.30431 14.82311,0.80179 16.47178,1.48078 1.36553,0.56238 3.06438,1.0225 3.77524,1.0225 0.71085,0 1.70491,0.49698 2.20902,1.1044 1.17457,1.41527 2.54148,1.40279 3.98062,-0.0363 z m -206.45314,-5.16095 c 0,-0.63132 -0.33132,-0.94308 -0.73627,-0.69281 -0.40494,0.25027 -0.73626,0.7668 -0.73626,1.14785 0,0.38104 0.33132,0.69281 0.73626,0.69281 0.40495,0 0.73627,-0.51653 0.73627,-1.14785 z m 261.74177,0.44506 c 0.40494,0.004 2.31452,0.19729 4.24352,0.42984 1.92899,0.23255 4.08256,0.17118 4.78571,-0.13637 0.70315,-0.30756 1.69261,-0.49241 2.19879,-0.41079 0.50618,0.0816 0.92033,-0.11678 0.92033,-0.44088 0,-0.85132 -5.82855,-2.54528 -6.76544,-1.96625 -0.43432,0.26842 -3.95738,0.45384 -7.82902,0.41204 -6.68948,-0.0722 -8.96598,0.49961 -8.96598,2.25217 0,0.45464 2.00981,0.56429 5.33791,0.29121 2.93585,-0.2409 5.66923,-0.43483 6.07418,-0.43097 z m -245.05497,-1.18736 c 0.52549,-1.36941 -0.30315,-2.31197 -2.32966,-2.64997 -1.13452,-0.18922 -1.52601,0.21916 -1.7055,1.77913 -0.20124,1.74898 0.0275,2.02472 1.6797,2.02472 1.05742,0 2.11067,-0.51596 2.35546,-1.15388 z m 18.99283,-0.36311 c 1.17245,-1.17245 -0.98212,-2.14022 -4.79337,-2.15305 -3.0591,-0.0103 -5.11703,0.91395 -5.11703,2.29812 0,1.40652 8.48298,1.28235 9.9104,-0.14507 z m 246.12532,-0.0145 c -0.87522,-0.50977 -1.70169,-0.50977 -2.57692,0 -1.05116,0.61225 -0.81387,0.75046 1.28846,0.75046 2.10233,0 2.33963,-0.13821 1.28846,-0.75046 z m -258.98078,-1.12419 c 0,-0.15915 -0.49698,-0.28936 -1.10439,-0.28936 -0.60742,0 -1.1044,0.32092 -1.1044,0.71315 0,0.39224 0.49698,0.52245 1.1044,0.28936 0.60741,-0.23308 1.10439,-0.554 1.10439,-0.71315 z m -0.73626,-8.02013 c 0,-1.34982 -0.39268,-1.84066 -1.47253,-1.84066 -1.43654,0 -2.08022,2.09194 -0.98168,3.19048 1.1177,1.1177 2.45421,0.38262 2.45421,-1.34982 z m 124.11414,89.77269 c -1.31676,-1.31676 -1.25064,-1.06405 -3.67949,-14.06286 -2.10324,-11.25621 -3.90144,-15.29337 -9.14793,-20.53814 -4.9167,-4.9151 -10.08325,-7.42891 -17.78122,-8.65156 l -6.25824,-0.99397 3.68131,-0.52103 c 8.00988,-1.13367 17.0022,2.26584 23.1287,8.74371 5.1392,5.43395 7.17528,10.24006 9.43403,22.26877 1.49087,7.93943 2.27632,10.53362 3.6384,12.01695 0.95539,1.04045 1.51156,2.11723 1.23592,2.39286 -0.87652,0.87653 -3.05584,0.54092 -4.25148,-0.65473 z m 7.68712,-6.96931 c 0.0113,-7.0013 0.52268,-9.7401 1.74029,-9.3205 1.23764,0.42649 0.6118,13.09227 -0.71519,14.47434 -0.89271,0.92975 -1.03376,0.22057 -1.0251,-5.15384 z m 56.68226,-12.12206 c 0,-2.06839 0.21987,-2.16884 2.30474,-1.05305 1.17521,0.62895 1.29561,0.99974 0.5977,1.84066 -1.38372,1.66728 -2.90244,1.25515 -2.90244,-0.78761 z m 37.10765,-25.76923 c 7.4e-4,-6.07418 0.11507,-8.4611 0.25342,-5.30426 0.13834,3.15683 0.1375,8.12661 -0.002,11.04396 -0.13938,2.91734 -0.25257,0.33447 -0.25154,-5.7397 z m -14.48287,-0.0767 c -0.29528,-0.29527 -0.53686,-1.04488 -0.53686,-1.66579 0,-0.82874 0.21781,-0.91113 0.81909,-0.30985 0.4505,0.4505 0.69209,1.20011 0.53686,1.6658 -0.15523,0.46569 -0.52382,0.60512 -0.81909,0.30984 z M 226.21268,495.91474 c 0.25027,-0.40495 0.7668,-0.73627 1.14784,-0.73627 0.38105,0 0.69282,0.33132 0.69282,0.73627 0,0.40494 -0.51654,0.73626 -1.14785,0.73626 -0.63132,0 -0.94308,-0.33132 -0.69281,-0.73626 z"
         id="path3067"
         inkscape:connector-curvature="0" />
      <path
         style="fill:#78866f"
         d="m 348.56781,604.07111 c -0.35609,-1.36171 -0.85128,-1.51598 -4.13579,-1.28846 -2.05218,0.14215 -3.73103,0.16551 -3.73078,0.0519 2.5e-4,-0.1136 1.16007,-1.22471 2.57738,-2.46912 2.53647,-2.22706 2.57692,-2.35383 2.57692,-8.07641 0,-3.51807 -0.30107,-5.81384 -0.76243,-5.81384 -0.41933,0 -1.37142,-1.42073 -2.11574,-3.15717 -1.13308,-2.64334 -1.23034,-3.75171 -0.59764,-6.81044 0.41563,-2.0093 0.88348,-10.51994 1.03968,-18.91254 0.23601,-12.68126 0.0929,-15.6287 -0.84682,-17.44599 l -1.13081,-2.18674 3.4505,-0.22433 c 3.25659,-0.21172 3.46499,-0.35296 3.70843,-2.51314 0.24743,-2.19577 0.12766,-2.30665 -2.94669,-2.72804 -5.2022,-0.71304 -6.42486,-0.084 -6.42486,3.30551 0,1.74761 -0.29297,2.72157 -0.73626,2.4476 -0.40494,-0.25027 -0.73626,-1.39273 -0.73626,-2.53881 0,-1.14607 -0.63303,-2.86594 -1.40674,-3.82193 l -1.40673,-1.73816 -27.67829,-0.22515 -27.67829,-0.22516 -0.75064,1.97435 c -0.70573,1.85621 -0.95889,1.94814 -4.23092,1.53636 -3.12672,-0.39349 -3.61765,-0.24932 -4.83271,1.41919 -1.20541,1.65525 -1.32548,3.12716 -1.10439,13.53841 0.22822,10.74771 0.38044,11.86017 1.90464,13.91994 2.08123,2.81255 2.06901,3.03459 -0.1671,3.03459 -3.61139,0 -4.32158,-2.53551 -4.67187,-16.67947 -0.29076,-11.74011 -0.20191,-12.94471 1.05744,-14.33627 1.35133,-1.4932 1.33902,-1.55007 -0.71849,-3.31987 l -2.09339,-1.80065 -14.09753,0.33379 c -17.25548,0.40856 -21.32402,0.89304 -22.99376,2.73808 -1.51711,1.67639 -4.39642,1.84983 -4.9909,0.30065 -0.55961,-1.45833 -3.33075,-1.40892 -4.98582,0.0889 -1.22519,1.10878 -1.48096,1.05664 -3.61172,-0.73627 -3.368,-2.83398 -7.88673,-2.69889 -11.15395,0.33346 -5.46643,5.07346 -13.46631,6.9679 -17.70267,4.19213 -3.84175,-2.51722 -4.90065,-6.42827 -5.13647,-18.97162 -0.211,-11.22371 -0.18037,-11.48169 1.85571,-15.62798 4.61533,-9.39872 10.12075,-9.53338 15.77128,-0.38576 1.37535,2.22656 3.47314,2.66987 4.16029,0.87917 0.4922,-1.28266 -1.16379,-5.76505 -2.41571,-6.53879 -1.84717,-1.14161 -0.568,-1.88708 3.23806,-1.88708 3.18276,0 4.39396,0.34451 5.65911,1.60965 1.44977,1.44978 2.26407,1.59078 8.19798,1.41961 5.60069,-0.16157 6.52485,-0.0246 6.16488,0.91343 -0.59261,1.54432 1.18973,2.80025 5.23425,3.68834 3.80652,0.83582 138.88549,1.24307 172.30718,0.51948 18.30424,-0.39629 19.44449,-0.50202 20.40621,-1.89227 2.12789,-3.07603 2.63054,-3.31319 7.02225,-3.31319 4.13804,0 4.50355,0.14147 5.67701,2.19727 0.68982,1.20849 1.68376,2.36361 2.20874,2.56693 1.04438,0.40448 61.9519,1.52153 144.82571,2.65613 29.15604,0.39917 54.33626,0.78648 55.95604,0.8607 1.61978,0.0742 8.95579,0.0636 16.30224,-0.0236 l 13.35718,-0.15853 3.57689,-3.20006 c 5.10114,-4.56373 6.42536,-5.16015 7.8824,-3.55013 2.3528,2.59981 3.57873,7.76284 3.96471,16.69742 0.58878,13.6289 -1.80309,27.60222 -4.72478,27.60222 -0.5942,0 -3.10555,-1.55834 -5.58078,-3.46298 -5.7022,-4.38774 -6.57171,-4.51372 -31.62769,-4.58217 l -19.674,-0.0537 -0.61612,2.39286 c -0.5566,2.16169 -0.91192,2.41461 -3.67802,2.61807 -2.82249,0.2076 -3.10052,0.0637 -3.5559,-1.84066 -0.2717,-1.13623 -0.7769,-2.42783 -1.12265,-2.87022 -0.4325,-0.55339 -13.43724,-0.96295 -41.68144,-1.31267 -22.57905,-0.27958 -50.66105,-0.81723 -62.40446,-1.19479 -11.74341,-0.37756 -28.01386,-0.89842 -36.15657,-1.15746 l -14.80491,-0.47098 -2.38931,2.33563 c -1.39838,1.36696 -2.84077,2.16239 -3.47783,1.91793 -0.59869,-0.22974 -1.5666,-0.41771 -2.15092,-0.41771 -0.58433,0 -1.37733,-0.82829 -1.76222,-1.84066 -0.66126,-1.73922 -1.00639,-1.84066 -6.26313,-1.84066 -4.65067,0 -5.63086,0.21137 -5.97509,1.28846 -0.22648,0.70866 -0.69225,1.9511 -1.03502,2.76099 -0.34278,0.80989 -0.83757,2.23544 -1.09955,3.16789 -0.33621,1.19664 -0.73158,1.48351 -1.34407,0.97519 -0.47726,-0.39609 -2.18057,-0.82768 -3.78512,-0.95909 -2.52395,-0.20671 -3.13451,-0.62725 -4.52752,-3.11846 -2.02892,-3.62842 -3.55351,-4.53132 -5.86956,-3.47606 -1.25326,0.57102 -1.76028,1.40286 -1.76028,2.88795 0,1.14725 -0.63953,4.55037 -1.42118,7.56249 -0.91559,3.52831 -1.29624,6.85167 -1.07,9.34196 0.31965,3.51834 0.21588,3.86539 -1.15574,3.86539 -2.82662,0 -4.09585,2.37571 -5.88608,11.01733 l -1.73451,8.3727 1.66244,1.34616 1.66243,1.34616 -2.47099,-0.43032 c -1.35905,-0.23667 -3.67061,-0.87824 -5.13681,-1.4257 -1.4662,-0.54747 -3.38913,-0.80624 -4.27319,-0.57506 -1.08213,0.28299 -2.08496,-0.0923 -3.06891,-1.14844 -0.80384,-0.86282 -1.76829,-1.56877 -2.14321,-1.56877 -0.37492,0 -0.98898,-0.5798 -1.36457,-1.28846 -0.48774,-0.92023 0.11403,-3.63439 2.10557,-9.49687 1.53366,-4.51463 3.00429,-9.65007 3.26805,-11.41209 0.26377,-1.76202 0.83502,-4.80423 1.26943,-6.76046 0.96996,-4.36787 0.29589,-5.25974 -4.02479,-5.32527 -10.08885,-0.15301 -10.82234,-0.27027 -10.82234,-1.73008 0,-0.80284 -1.32916,-2.3863 -3.0901,-3.68132 -3.01555,-2.21766 -3.28643,-2.27224 -11.22802,-2.26243 -10.581,0.0131 -11.29562,0.22739 -11.89806,3.56833 -0.26577,1.47392 -0.85374,3.40581 -1.30661,4.29309 -0.58322,1.14272 -0.68873,7.79962 -0.36177,22.82417 0.43299,19.89619 0.37345,21.42046 -0.96057,24.59099 -0.99833,2.3727 -1.35531,4.67473 -1.19786,7.72432 0.20205,3.91325 0.4252,4.44023 2.24903,5.31124 2.42639,1.15878 2.7753,4.3967 0.67829,6.29447 -1.80658,1.63494 -2.81676,1.53452 -3.30393,-0.32842 z m -2.71227,-26.4311 c 0,-1.21483 -0.33132,-2.20879 -0.73627,-2.20879 -0.40494,0 -0.73626,0.99396 -0.73626,2.20879 0,1.21484 0.33132,2.20879 0.73626,2.20879 0.40495,0 0.73627,-0.99395 0.73627,-2.20879 z m -0.0518,-10.85989 c -0.0351,-3.87195 -0.25514,-5.23273 -0.68451,-4.23351 -0.89199,2.07576 -0.89199,9.93956 0,9.93956 0.43196,0 0.71487,-2.35836 0.68451,-5.70605 z m 50.89612,2.60437 c 0.45936,-1.70591 1.09076,-6.4272 1.4031,-10.49175 0.31235,-4.06455 0.92208,-8.26715 1.35497,-9.33911 1.64007,-4.06132 -2.08065,-3.20024 -3.93435,0.91052 -1.19834,2.65745 -1.20693,2.98521 -0.11,4.19731 1.10706,1.22328 1.03805,1.45804 -0.99181,3.3739 -2.52834,2.38635 -2.81296,4.86718 -0.70913,6.18104 2.12161,1.32497 2.00109,5.00425 -0.18407,5.61907 -1.62224,0.45644 -1.62696,0.48875 -0.22741,1.5584 2.11309,1.61499 2.4814,1.39724 3.3987,-2.00938 z m 10.62006,-15.29975 c 1.74474,-0.66335 1.87735,-0.98741 1.43115,-3.49725 -0.27047,-1.52139 -0.74096,-3.03898 -1.04555,-3.37244 -0.52079,-0.57016 -4.42145,5.56761 -4.42145,6.95726 0,0.85129 1.66128,0.81524 4.03585,-0.0876 z M 389.5944,523.48828 c 0.62741,-0.6274 1.41205,-1.62555 1.74366,-2.2181 0.49927,-0.89215 1.29315,-0.94553 4.61789,-0.31052 2.20824,0.42176 7.1625,0.77958 11.00948,0.79516 10.01667,0.0406 11.59512,0.18938 12.5951,1.18747 1.05713,1.05513 7.35919,0.4249 8.19308,-0.81934 0.93447,-1.39432 0.62376,-7.57128 -0.4246,-8.44134 -0.54344,-0.45102 -1.16088,-0.64722 -1.3721,-0.43601 -0.21122,0.21122 -11.91122,0.55194 -26.00002,0.75717 -14.08879,0.20523 -25.85881,0.52321 -26.1556,0.70664 -0.77406,0.4784 -28.41137,1.36118 -32.36333,1.03374 -1.82226,-0.15098 -6.62638,-0.23815 -10.67583,-0.1937 -4.04945,0.0444 -8.52225,0.0801 -9.93956,0.0793 -1.41731,-8.8e-4 -3.9022,0.006 -5.52198,0.0157 -35.53932,0.20848 -59.59973,0.15387 -71.60165,-0.16251 -8.20014,-0.21616 -14.90934,-0.12009 -14.90934,0.21349 0,0.33359 0.59402,1.1441 1.32004,1.80114 2.00453,1.81408 21.81348,2.98092 32.97401,1.94233 4.71151,-0.43845 9.11083,-0.5647 9.77628,-0.28056 0.66544,0.28415 15.06417,0.64373 31.99717,0.79908 25.035,0.22967 31.44305,0.0877 34.29701,-0.75983 2.50918,-0.74514 4.43692,-0.85649 6.76217,-0.39057 1.78884,0.35844 9.5475,0.85793 17.24146,1.10998 9.28932,0.30431 14.82311,0.80179 16.47178,1.48078 1.36553,0.56238 3.06438,1.0225 3.77524,1.0225 0.71085,0 1.70491,0.49698 2.20902,1.1044 1.17457,1.41527 2.54148,1.40279 3.98062,-0.0363 z m -206.45315,-5.16095 c 0,-0.63132 -0.33132,-0.94308 -0.73627,-0.69281 -0.40494,0.25027 -0.73626,0.7668 -0.73626,1.14785 0,0.38104 0.33132,0.69281 0.73626,0.69281 0.40495,0 0.73627,-0.51653 0.73627,-1.14785 z m 261.74177,0.44506 c 0.40494,0.004 2.31452,0.19729 4.24352,0.42984 1.92899,0.23255 4.08256,0.17118 4.78571,-0.13637 0.70315,-0.30756 1.69261,-0.49241 2.19879,-0.41079 0.50618,0.0816 0.92033,-0.11678 0.92033,-0.44088 0,-0.85452 -5.83028,-2.54421 -6.77154,-1.96249 -0.43767,0.2705 -4.39423,0.44708 -8.79233,0.39239 -7.66777,-0.0954 -7.99657,-0.0358 -7.99657,1.44891 0,1.47152 0.26487,1.52661 5.33791,1.11036 2.93585,-0.2409 5.66923,-0.43483 6.07418,-0.43097 z m -245.05497,-1.18736 c 0.52549,-1.36941 -0.30315,-2.31197 -2.32966,-2.64997 -1.13452,-0.18922 -1.52601,0.21916 -1.7055,1.77913 -0.20124,1.74898 0.0275,2.02472 1.6797,2.02472 1.05742,0 2.11067,-0.51596 2.35546,-1.15388 z m 18.99283,-0.36311 c 1.17245,-1.17245 -0.98212,-2.14022 -4.79337,-2.15305 -3.0591,-0.0103 -5.11703,0.91395 -5.11703,2.29812 0,1.40652 8.48298,1.28235 9.9104,-0.14507 z m 246.12532,-0.0145 c -0.87522,-0.50977 -1.70169,-0.50977 -2.57692,0 -1.05116,0.61225 -0.81387,0.75046 1.28846,0.75046 2.10233,0 2.33963,-0.13821 1.28846,-0.75046 z m -258.98078,-1.12419 c 0,-0.15915 -0.49698,-0.28936 -1.10439,-0.28936 -0.60742,0 -1.1044,0.32092 -1.1044,0.71315 0,0.39224 0.49698,0.52245 1.1044,0.28936 0.60741,-0.23308 1.10439,-0.554 1.10439,-0.71315 z m -0.73626,-8.02013 c 0,-1.34982 -0.39268,-1.84066 -1.47253,-1.84066 -1.43654,0 -2.08022,2.09194 -0.98168,3.19048 1.1177,1.1177 2.45421,0.38262 2.45421,-1.34982 z m 123.69831,89.09513 c -0.88452,-1.06577 -2.16782,-6.77479 -3.7254,-16.57315 -2.00746,-12.62838 -11.14781,-22.72819 -23.59939,-26.07661 -3.77715,-1.01573 -3.83992,-1.07062 -1.27702,-1.1167 7.41958,-0.13338 17.5344,5.53693 21.79443,12.21782 3.26714,5.12377 4.29726,8.22583 6.43569,19.38013 1.40164,7.31109 2.31634,10.36653 3.47152,11.59616 l 1.56844,1.66953 -1.87885,0 c -1.03337,0 -2.28861,-0.49373 -2.78942,-1.09718 z m 8.52753,-7.73799 c 0.60738,-9.00447 1.77416,-10.40438 1.77416,-2.12863 0,4.49923 -0.31647,6.66754 -1.12297,7.69395 -1.02009,1.29824 -1.07975,0.78836 -0.65119,-5.56532 z m 56.25768,-10.75459 c 0,-0.77641 0.40038,-1.02953 1.16462,-0.73627 0.64053,0.2458 1.32273,0.44691 1.51597,0.44691 0.19326,0 0.14661,0.33132 -0.10366,0.73626 -0.72505,1.17314 -2.57693,0.85198 -2.57693,-0.4469 z"
         id="path3065"
         inkscape:connector-curvature="0" />
      <path
         style="fill:#6c766b"
         d="m 349.31225,604.10238 c -0.36808,-1.40755 -0.83578,-1.5449 -4.4826,-1.31639 l -4.07163,0.25512 2.45742,-2.57692 c 2.2958,-2.40745 2.48818,-3.00405 2.9252,-9.07148 0.43388,-6.02387 0.37209,-6.46419 -0.85269,-6.07546 -1.05422,0.33459 -1.51297,-0.23279 -2.27507,-2.81387 -0.86531,-2.93062 -0.67267,-8.21984 0.33612,-9.22862 0.22093,-0.22093 0.9581,-0.40591 1.63817,-0.41107 1.3346,-0.0102 1.33317,0.0247 0.92497,-22.6495 -0.15336,-8.51875 -0.29276,-9.38736 -1.50655,-9.38736 -0.73566,0 -1.52129,-0.47878 -1.74584,-1.06395 -0.30893,-0.80507 0.34372,-1.11858 2.68222,-1.28847 3.07464,-0.22336 3.09166,-0.24073 3.31859,-3.38827 l 0.22808,-3.16377 -5.0138,0.21871 -5.01381,0.21871 0,2.76147 c 0,1.51881 -0.24849,2.76126 -0.55219,2.76099 -0.30371,-2.6e-4 -0.55728,-1.07726 -0.56347,-2.39334 -0.0274,-5.81395 -2.06148,-6.19562 -32.01621,-6.00742 -13.36318,0.084 -24.71905,0.18612 -25.23525,0.22702 -0.51621,0.0409 -1.25348,0.90266 -1.63837,1.91502 -0.70822,1.86276 -3.16642,2.53317 -4.04946,1.10439 -0.25027,-0.40494 -1.79132,-0.73626 -3.42457,-0.73626 -1.85469,0 -3.67235,-0.55283 -4.84155,-1.47253 -1.7289,-1.35995 -2.98686,-1.47252 -16.45455,-1.47252 -9.87291,0 -14.74532,0.2634 -15.08659,0.81557 -0.30688,0.49656 -1.57346,0.64458 -3.23795,0.37841 -2.2821,-0.36492 -3.01807,-0.13468 -4.45345,1.39322 -2.09865,2.23391 -4.08012,2.3461 -5.17879,0.29322 -0.64066,-1.1971 -1.2572,-1.43251 -2.78689,-1.0641 -1.08033,0.26018 -2.38497,1.02424 -2.8992,1.69791 -0.85161,1.11563 -1.10046,1.04638 -2.79079,-0.77656 -1.60614,-1.73215 -2.42749,-2.00141 -6.10514,-2.00141 -3.89616,0 -4.38926,0.18927 -5.93304,2.27735 -3.71427,5.02382 -13.38534,6.79253 -17.62667,3.22369 -2.65449,-2.23361 -4.72816,-7.2751 -4.39828,-10.69308 0.18783,-1.9461 0.6362,-2.57361 2.0801,-2.91112 1.58057,-0.36947 1.84066,-0.84172 1.84066,-3.34212 0,-2.72795 -0.12522,-2.89726 -1.98252,-2.68064 -1.72839,0.20159 -2.041,-0.0815 -2.43876,-2.20879 -1.34912,-7.21526 4.8329,-19.00595 9.96509,-19.00595 1.95506,0 2.8996,0.84284 8.57241,7.6494 3.29148,3.94931 5.45614,-0.53292 2.44971,-5.07248 -0.80455,-1.21483 -1.46501,-2.45728 -1.46767,-2.76099 -0.003,-0.3037 1.65174,-0.55219 3.67646,-0.55219 2.83042,0 4.06229,0.38096 5.3295,1.64818 1.50284,1.50284 2.22609,1.62722 8.20148,1.41049 5.78162,-0.2097 6.49968,-0.098 6.09796,0.94891 -0.53705,1.39953 3.25425,4.00526 6.1403,4.22018 6.02813,0.4489 188.47783,0.13785 190.1289,-0.32414 1.28325,-0.35907 2.18063,-1.22924 2.47428,-2.39927 0.54027,-2.1526 2.31062,-2.7409 7.28578,-2.4211 3.10308,0.19946 3.73838,0.52262 4.7943,2.43872 1.20861,2.19317 1.27412,2.21206 9.25874,2.67015 4.42284,0.25374 39.35114,0.83854 77.61845,1.29955 93.53769,1.12687 115.51103,1.70022 116.33632,3.03556 0.53764,0.86992 0.86176,0.83416 2.0311,-0.22409 1.20181,-1.08762 3.15604,-1.25919 14.34248,-1.25919 l 12.9511,0 4.29313,-3.69175 c 2.60736,-2.24213 4.87021,-3.61539 5.76279,-3.49726 1.91968,0.25407 3.80631,4.33644 4.73884,10.2541 0.91148,5.78412 -0.12448,26.28105 -1.53463,30.36308 -1.63742,4.73996 -2.68988,4.8241 -7.8934,0.63105 -5.5897,-4.50423 -5.6005,-4.50583 -31.99562,-4.71995 -20.04257,-0.16259 -20.33092,-0.11782 -20.36149,3.16163 -0.0131,1.40914 -1.48394,2.1035 -4.45571,2.1035 -1.8305,0 -2.17965,-0.34349 -2.59394,-2.55182 -0.27118,-1.44549 -1.00384,-2.69748 -1.68995,-2.8878 -0.66618,-0.18478 -16.4519,-0.54552 -35.07937,-0.80162 -18.62747,-0.25611 -51.09671,-0.94231 -72.15385,-1.52488 -51.24106,-1.41765 -47.78945,-1.4748 -49.92348,0.82666 -2.27954,2.45837 -6.63624,2.34823 -6.99595,-0.17686 -0.29762,-2.08925 -1.02915,-2.28553 -7.00887,-1.8805 -3.7844,0.25633 -5.12638,0.63693 -5.42835,1.53954 -1.65207,4.93812 -2.83856,6.65117 -4.26973,6.16458 -0.80989,-0.27535 -2.40073,-0.47515 -3.53521,-0.44398 -1.69978,0.0467 -2.33249,-0.47563 -3.59616,-2.96872 -1.73235,-3.41774 -2.5168,-4.1024 -4.7188,-4.11849 -1.80154,-0.0132 -4.33924,2.49232 -3.65149,3.60513 0.25975,0.42027 -0.17742,3.50585 -0.9715,6.85683 -0.90218,3.80724 -1.31556,7.54266 -1.102,9.95808 0.3108,3.51527 0.20526,3.86539 -1.16516,3.86539 -2.82662,0 -4.09585,2.37571 -5.88608,11.01733 l -1.73451,8.3727 1.66244,1.34616 1.66243,1.34616 -2.47099,-0.47919 c -1.35905,-0.26355 -3.65599,-0.88997 -5.10433,-1.39205 -1.44834,-0.50207 -3.48975,-0.74914 -4.53648,-0.54905 -1.41052,0.26963 -2.11729,-0.0364 -2.73048,-1.18209 -0.45503,-0.85025 -1.301,-1.54591 -1.87992,-1.54591 -2.52825,0 -2.44223,-2.50672 0.37009,-10.78533 1.53366,-4.51463 3.00812,-9.65007 3.27657,-11.41209 0.26846,-1.76202 0.85899,-4.97006 1.31228,-7.12898 1.05653,-5.03195 0.71473,-5.25219 -8.17393,-5.26672 -6.51404,-0.0106 -6.87513,-0.0923 -6.51409,-1.47289 0.2843,-1.08719 -0.391,-2.03026 -2.6361,-3.68132 -2.99909,-2.20556 -3.08054,-2.2197 -12.78693,-2.2197 -8.9044,0 -9.83604,0.12599 -10.53078,1.42412 -0.41919,0.78327 -0.76217,2.13033 -0.76217,2.99346 0,0.86314 -0.36764,2.25628 -0.81698,3.09588 -0.72538,1.35538 -0.83173,13.28366 -0.36326,40.73872 0.0486,2.8491 -0.40077,5.50033 -1.25192,7.38589 -0.94605,2.0958 -1.26355,4.30182 -1.1044,7.67343 0.20583,4.36036 0.36794,4.76593 2.06404,5.16378 1.50883,0.35393 1.84065,0.87415 1.84065,2.88569 0,1.68473 -0.49006,2.77932 -1.56341,3.492 -1.41716,0.94095 -1.60186,0.89105 -1.97438,-0.53346 z m -2.86007,-26.2783 c -0.25878,-3.12669 -2.27354,-3.91682 -2.67959,-1.05085 -0.33211,2.34413 0.33637,3.81184 1.73615,3.81184 0.90404,0 1.11971,-0.63119 0.94344,-2.76099 z m 51.40468,-17.48627 c 0.217,-3.6445 0.83523,-8.00829 1.37386,-9.6973 0.53861,-1.68901 0.82349,-3.22674 0.63306,-3.41717 -0.97007,-0.97006 -3.18819,0.68623 -4.34015,3.24081 -1.19835,2.65745 -1.20693,2.98521 -0.11,4.19731 1.10706,1.22328 1.03804,1.45804 -0.99181,3.3739 -2.52834,2.38635 -2.81296,4.86718 -0.70914,6.18104 0.91782,0.57318 1.47253,1.71698 1.47253,3.03629 0,1.49748 -0.43076,2.22933 -1.47253,2.50175 -1.94607,0.50891 -1.86721,1.59065 0.18407,2.52506 1.51684,0.69097 1.73712,0.49859 2.61108,-2.28034 0.52497,-1.66923 1.13203,-6.01684 1.34903,-9.66135 z m 9.4631,-6.25307 c 1.74474,-0.66335 1.87736,-0.98741 1.43116,-3.49725 -0.27047,-1.52139 -0.74097,-3.03898 -1.04555,-3.37244 -0.5208,-0.57016 -4.42146,5.56761 -4.42146,6.95726 0,0.85129 1.66128,0.81524 4.03585,-0.0876 z m -25.3875,-22.15964 c 0,-1.55963 -1.64778,-2.57586 -2.91088,-1.79522 -0.50081,0.30952 -0.31895,1.08283 0.51694,2.19818 1.44668,1.93034 2.39394,1.77089 2.39394,-0.40296 z m 9.4747,-9.21847 c 0.74272,-1.63008 1.18051,-1.84145 2.87918,-1.39012 1.10179,0.29274 6.94361,0.65781 12.98181,0.81125 8.14011,0.20687 11.28098,0.54985 12.14835,1.3266 0.82217,0.73627 2.21218,0.92828 4.67736,0.64609 4.01596,-0.45971 4.4645,-1.25588 4.08502,-7.25099 l -0.22993,-3.63252 -26.87363,0.26172 c -14.78049,0.14395 -27.12032,0.41088 -27.42184,0.59319 -0.30152,0.1823 -37.30492,0.34947 -82.22979,0.37149 -69.02588,0.0338 -81.74243,0.19859 -82.07429,1.06341 -0.52746,1.37452 -2.64771,1.30964 -2.64771,-0.081 0,-1.40608 -2.4877,-1.43823 -3.64226,-0.0471 -0.63612,0.76648 -0.66242,1.45924 -0.0956,2.51836 0.71181,1.33004 1.55801,1.461 9.43845,1.46075 4.7611,-1.5e-4 8.98786,0.0762 9.3928,0.16971 2.30949,0.53321 5.52158,0.20684 5.52177,-0.56105 4.3e-4,-1.77399 1.70676,-1.86944 2.99069,-0.1673 l 1.31589,1.74452 20.48693,0.22946 c 23.26253,0.26054 85.24084,0.29524 89.69572,0.0502 1.61978,-0.0891 10.3529,0.0597 19.40695,0.33061 14.95739,0.44758 19.70298,1.02409 22.92821,2.78539 0.60742,0.33171 2.29367,0.62259 3.7472,0.64641 2.15575,0.0353 2.80424,-0.311 3.51871,-1.8791 z m 75.9319,-2.79393 c 10.97757,-0.29332 21.35165,-1.22882 21.35165,-1.92543 0,-0.30203 -0.74547,-0.76541 -1.65659,-1.02974 -2.34293,-0.67971 -49.60075,-2.13013 -51.75857,-1.58855 -1.83518,0.4606 -3.11697,3.31469 -2.17393,4.84057 0.35656,0.5769 4.22944,0.68707 13.138,0.37372 6.94783,-0.24439 16.44257,-0.54614 21.09944,-0.67057 z m -266.89562,-3.01445 c 0,-2.03183 -0.20563,-2.20879 -2.56684,-2.20879 -1.89082,0 -2.63437,0.35066 -2.82325,1.33147 -0.48406,2.51351 0.46093,3.56115 2.99217,3.31721 2.12216,-0.20452 2.39792,-0.48511 2.39792,-2.43989 z m 5.20914,-8.05705 c 0.61005,-2.43066 -0.0279,-3.22645 -2.24651,-2.80233 -2.03379,0.38878 -2.25113,1.01876 -1.09606,3.17702 1.05762,1.97618 2.8016,1.78069 3.34257,-0.37469 z m 123.33099,88.38462 c -0.46996,-0.56626 -1.70021,-5.78453 -2.73389,-11.59615 -1.15815,-6.5114 -2.61346,-12.12066 -3.7921,-14.61603 -3.60591,-7.63428 -11.74284,-14.04961 -20.97265,-16.53531 -3.71598,-1.00076 -3.75769,-1.03986 -1.15927,-1.08657 7.41958,-0.13338 17.5344,5.53693 21.79443,12.21782 3.26714,5.12377 4.29726,8.22583 6.43569,19.38013 1.40164,7.31109 2.31634,10.36653 3.47152,11.59616 l 1.56844,1.66953 -1.87885,0 c -1.03337,0 -2.26336,-0.46331 -2.73332,-1.02958 z m 8.47143,-7.80559 c 0.60738,-9.00447 1.77416,-10.40438 1.77416,-2.12863 0,4.49923 -0.31647,6.66754 -1.12297,7.69395 -1.02009,1.29824 -1.07975,0.78836 -0.65119,-5.56532 z m 56.25768,-10.75459 c 0,-0.77641 0.40038,-1.02953 1.16462,-0.73627 0.64053,0.2458 1.32273,0.44691 1.51597,0.44691 0.19326,0 0.14661,0.33132 -0.10366,0.73626 -0.72505,1.17314 -2.57693,0.85198 -2.57693,-0.4469 z M 267.47521,563.43468 c -0.8175,-1.24767 -1.23667,-4.99796 -1.60456,-14.35609 -0.4563,-11.60683 -0.38635,-12.7906 0.83558,-14.14082 2.0664,-2.28335 3.41859,-1.95845 2.2938,0.55114 -0.65408,1.45935 -0.7925,5.14283 -0.49572,13.19114 0.37106,10.06241 0.57555,11.38793 2.06831,13.407 2.08112,2.81486 2.06892,3.03648 -0.16715,3.03648 -1.08909,0 -2.26942,-0.68028 -2.93026,-1.68885 z"
         id="path3063"
         inkscape:connector-curvature="0" />
      <path
         style="fill:#58664b"
         d="m 344.08342,601.01639 c 0.28796,-0.50618 0.92955,-1.41731 1.42576,-2.02473 0.4962,-0.60742 1.13373,-3.86658 1.41672,-7.24258 0.44064,-5.2567 0.33148,-6.34046 -0.76016,-7.5467 -1.14697,-1.2674 -1.16213,-1.53761 -0.15123,-2.69698 0.88687,-1.01714 1.09411,-3.07142 0.98413,-9.7555 -0.0766,-4.65687 -0.19951,-13.53032 -0.27307,-19.71878 -0.1293,-10.87598 -0.18809,-11.27184 -1.76032,-11.85345 -1.44237,-0.53356 -1.30645,-0.66175 1.20029,-1.13202 1.55477,-0.29168 3.07457,-0.25872 3.37733,0.0732 0.30275,0.33195 0.7264,10.42224 0.94143,22.42287 0.36845,20.56222 0.30999,21.95248 -1.0145,24.13043 -2.28925,3.76437 -1.67867,12.1636 0.94477,12.99624 1.36787,0.43415 1.37605,0.52573 0.16634,1.86245 -1.48664,1.64271 -7.40751,2.08514 -6.49749,0.48551 z m -14.97818,-4.41759 c -0.40303,-0.50618 -1.31164,-4.23351 -2.01913,-8.28296 -1.95846,-11.20964 -3.20544,-15.87554 -5.11249,-19.12967 -2.59229,-4.4234 -8.93678,-10.42315 -13.20844,-12.4907 -2.07475,-1.00422 -3.2454,-1.83796 -2.60142,-1.85275 2.49098,-0.0572 10.29822,4.59762 13.1553,7.84343 4.38946,4.98669 6.41673,10.00067 8.77956,21.71418 1.16957,5.79803 2.3656,11.12169 2.65784,11.83034 0.61102,1.48167 -0.5572,1.74212 -1.65122,0.36813 z m 8.88705,-6.4423 c 0,-2.63215 0.13364,-3.70893 0.29696,-2.39286 0.16332,1.31607 0.16332,3.46964 0,4.78571 -0.16332,1.31608 -0.29696,0.23929 -0.29696,-2.39285 z m 61.05831,-14.90695 c -2.63919,-0.84663 -2.7137,-1.12451 -1.6691,-6.2244 0.39807,-1.94342 1.03944,-6.76373 1.42528,-10.7118 0.49181,-5.03261 1.18623,-8.04076 2.32311,-10.06357 2.95036,-5.24945 -0.48975,-7.22207 -4.9893,-2.86094 -2.63625,2.55515 -2.84317,2.18085 -1.65152,-2.98739 1.06125,-4.60268 0.26627,-5.24467 -6.57258,-5.30769 -5.72027,-0.0527 -11.15116,-1.26169 -6.14987,-1.36903 1.86958,-0.0401 2.56825,-0.46514 3.1109,-1.89241 0.49143,-1.29255 1.25335,-1.84066 2.5587,-1.84066 1.02238,0 1.85888,-0.33132 1.85888,-0.73626 0,-0.99973 -3.9224,-0.93695 -4.93838,0.079 -0.59624,0.59624 -1.03843,0.3984 -1.64569,-0.73626 -0.77254,-1.44351 -1.4362,-1.55157 -9.52855,-1.55157 -4.784,0 -11.23907,0.21478 -14.34461,0.47729 -4.95402,0.41877 -5.68428,0.66706 -5.955,2.02473 -0.97119,4.87045 -1.26395,5.59688 -2.25564,5.59688 -0.71037,0 -1.09037,-0.73836 -1.09037,-2.11864 0,-1.16525 -0.41415,-2.43502 -0.92033,-2.82171 -1.30421,-0.99632 -7.54479,-1.19962 -9.22479,-0.30051 -0.98612,0.52776 -1.65746,0.50641 -2.23492,-0.071 -2.42761,-2.4276 -6.30979,-2.76478 -31.96095,-2.77591 l -25.56626,-0.0111 -1.14398,2.21221 c -1.09823,2.12374 -1.21433,2.16612 -2.90307,1.05961 -1.22557,-0.80302 -2.55429,-1.00342 -4.38088,-0.66075 -2.17203,0.40747 -3.01313,0.16255 -4.90309,-1.42775 l -2.28131,-1.91959 -14.66879,0 c -9.28834,0 -14.66878,0.27006 -14.66878,0.73627 0,0.40494 -1.48813,0.73626 -3.30695,0.73626 -2.50957,0 -3.52868,0.35506 -4.22656,1.47253 -0.92726,1.48479 -4.24671,2.08054 -4.24671,0.76217 0,-0.3907 -0.70238,-1.08627 -1.56084,-1.5457 -1.28671,-0.68863 -1.95482,-0.54406 -3.80408,0.82316 l -2.24323,1.6585 -1.37676,-1.70022 c -1.10472,-1.36428 -2.22653,-1.74241 -5.67763,-1.91378 -5.41338,-0.26881 -8.6004,0.54439 -8.32354,2.12382 0.37056,2.11401 -5.62273,4.94589 -10.46728,4.94589 -3.75423,0 -4.47632,-0.25131 -6.2848,-2.18729 -2.16233,-2.31478 -4.003,-7.95028 -3.24333,-9.92996 0.28441,-0.74114 0.95068,-1.02128 1.79307,-0.75392 1.69327,0.53742 2.9027,-1.5703 2.9027,-5.05867 0,-3.86094 -0.63845,-4.89433 -3.02382,-4.89433 -2.02062,0 -2.13002,-0.16344 -2.13002,-3.18203 0,-7.00414 4.76894,-15.22457 8.83227,-15.22457 2.45722,0 5.87555,2.65611 8.14578,6.32943 1.14976,1.86034 2.03922,2.52303 3.16996,2.36176 2.02177,-0.28833 2.54452,-4.34556 0.88604,-6.87673 -1.6787,-2.56202 -1.43559,-3.28698 1.10226,-3.28698 2.51993,0 5.16997,1.17343 6.06236,2.6844 0.42067,0.71227 2.35106,0.99691 6.76083,0.99691 5.35648,0 6.22911,0.17982 6.60394,1.3608 1.11522,3.51375 -1.61122,3.41229 97.22228,3.6181 51.02308,0.10625 94.75311,-0.0603 97.17785,-0.37011 3.81948,-0.48802 4.53816,-0.8336 5.37808,-2.58604 0.91011,-1.89888 1.26218,-2.02275 5.74926,-2.02275 4.53897,0 4.84298,0.11109 6.034,2.20494 0.83992,1.47659 1.98384,2.3173 3.46301,2.5451 2.06462,0.31796 61.62147,1.2259 154.90792,2.36155 37.63282,0.45813 40.12078,0.56933 41.21033,1.84184 0.63776,0.74485 1.57125,1.35427 2.07443,1.35427 0.50317,0 1.2695,0.66263 1.70293,1.47252 0.74914,1.39978 2.92906,1.97937 3.87749,1.03094 0.24287,-0.24287 0.0684,-1.26055 -0.38762,-2.26151 -1.24581,-2.73426 0.27771,-3.30243 7.37301,-2.74959 3.34244,0.26043 9.20561,0.23896 13.02927,-0.0477 l 6.95211,-0.52122 4.1317,-3.61556 c 2.27245,-1.98856 4.46238,-3.61557 4.86653,-3.61557 0.40415,0 1.46166,1.57377 2.35002,3.49726 1.4925,3.2316 1.61261,4.5878 1.58127,17.85439 -0.0327,13.82615 -0.72272,19.48447 -2.66546,21.85604 -0.52756,0.64401 -2.14359,-0.0602 -6.17055,-2.68907 -5.39274,-3.52042 -5.54321,-3.56719 -13.01821,-4.04686 -4.15933,-0.2669 -14.68272,-0.38209 -23.38531,-0.25599 l -15.8229,0.22929 -0.37933,2.19262 c -0.65457,3.78349 -6.61526,4.64493 -6.63999,0.95961 -0.0258,-3.84522 1.69287,-3.67337 -43.16414,-4.3158 -23.02469,-0.32976 -52.13393,-0.95077 -64.68723,-1.38004 -44.80047,-1.53196 -52.27473,-1.462 -52.27473,0.4893 0,1.54572 -1.41662,2.32014 -3.49725,1.91184 -1.53132,-0.3005 -2.02473,-0.82496 -2.02473,-2.15215 0,-1.69123 -0.19796,-1.75483 -5.46176,-1.75483 -6.07392,0 -7.79099,0.41636 -7.79099,1.88917 0,0.54745 -0.5798,2.17386 -1.28846,3.61425 -0.98666,2.00547 -1.63337,2.53228 -2.76099,2.24911 -0.80989,-0.20338 -2.35217,-0.37431 -3.42729,-0.37984 -1.53353,-0.008 -2.37316,-0.724 -3.89642,-3.32324 -1.67104,-2.85142 -2.27596,-3.31319 -4.34029,-3.31319 -2.84394,0 -4.16567,1.11745 -4.16567,3.52184 0,0.96514 -0.66931,4.37626 -1.48737,7.58026 -0.81805,3.204 -1.27912,6.65522 -1.02458,7.66937 0.28537,1.13702 0.14994,1.84392 -0.35328,1.84392 -0.44885,0 -0.83937,-0.91113 -0.86784,-2.02473 -0.0285,-1.1136 -0.30529,-2.67297 -0.61518,-3.46527 -0.47227,-1.20747 -1.00868,-0.64436 -3.31534,3.48034 -2.91273,5.20844 -2.89891,6.83562 0.0518,6.09505 1.61467,-0.40525 1.71845,-0.30111 1.01316,1.01673 -0.9802,1.83148 -3.70902,14.92974 -3.70902,17.8031 0,2.32171 -0.015,2.32689 -3.49725,1.20981 z m 6.31222,-35.40407 c 0.14091,-0.72651 -0.23469,-1.22745 -0.92033,-1.22745 -0.68298,0 -1.15838,0.62951 -1.15838,1.53389 0,1.7943 1.72048,1.54068 2.07871,-0.30644 z m -13.68899,-16.3998 c 0.82118,-1.80228 1.07896,-1.88443 4.21773,-1.34403 1.83871,0.31657 7.58644,0.63617 12.77274,0.71023 5.91559,0.0845 9.74313,0.44815 10.27088,0.9759 0.98693,0.98693 7.08204,1.1095 8.56211,0.17218 1.3385,-0.84767 1.90589,-7.22711 0.87913,-9.88456 l -0.8062,-2.0866 -9.02115,0.4632 c -9.90061,0.50835 -96.97189,1.13829 -164.83411,1.19253 -34.74236,0.0278 -43.44092,0.22601 -44.51935,1.01458 -1.13822,0.83229 -1.47381,0.79748 -2.22576,-0.23087 -0.75937,-1.03851 -1.22657,-1.08216 -3.28136,-0.30656 -1.68622,0.63648 -2.67206,0.67518 -3.32816,0.13067 -0.51273,-0.42552 -1.8634,-0.66691 -3.00148,-0.53642 -1.86341,0.21367 -2.09177,0.54855 -2.29565,3.36639 l -0.2264,3.12912 2.94393,0 c 1.61917,0 3.15865,-0.34741 3.42107,-0.77201 0.29453,-0.47656 0.80427,-0.5145 1.33192,-0.0991 0.47013,0.3701 6.19138,0.8913 12.7139,1.15824 10.21161,0.41792 11.99068,0.32683 12.80612,-0.65571 0.81049,-0.97659 1.11749,-0.99417 2.12989,-0.12193 0.65059,0.56052 2.01119,1.24408 3.02355,1.51902 1.01236,0.27493 33.81292,0.65254 72.89012,0.83913 68.89293,0.32895 74.3708,0.50989 78.04395,2.57787 0.60742,0.34197 2.35395,0.64126 3.88118,0.66507 2.2989,0.0358 2.92729,-0.28706 3.6514,-1.87631 z m 67.1982,-1.80094 c 12.63296,0.006 20.64341,-0.43562 45.20103,-2.48909 3.66381,-0.30637 6.0288,-1.33892 5.12858,-2.23914 -0.8489,-0.8489 -36.2709,-2.55868 -55.07631,-2.65847 -20.06711,-0.10649 -20.21752,-0.0958 -21.53572,1.53212 -1.72806,2.13406 -1.67489,3.33759 0.23165,5.24414 1.38993,1.38993 2.08906,1.50731 6.44231,1.08159 2.68575,-0.26265 11.50956,-0.47467 19.60846,-0.47115 z m 210.93957,-1.06517 c 0,-0.60741 -0.33132,-1.10439 -0.73627,-1.10439 -0.40494,0 -0.73626,0.49698 -0.73626,1.10439 0,0.60742 0.33132,1.1044 0.73626,1.1044 0.40495,0 0.73627,-0.49698 0.73627,-1.1044 z M 206.12606,507.69209 c 0.1792,-1.5872 -0.11879,-1.86925 -2.18536,-2.06851 -2.05459,-0.1981 -2.39286,0.002 -2.39286,1.41456 0,0.90489 0.55766,2.26147 1.23925,3.01462 1.00941,1.11539 1.41472,1.19388 2.18536,0.42323 0.52037,-0.52036 1.03949,-1.77312 1.15361,-2.7839 z m 185.60852,66.11374 c -2.2044,-2.84346 -1.79826,-3.65249 0.83413,-1.66162 0.99085,0.74937 1.19702,1.31968 0.66825,1.84845 -0.52877,0.52877 -0.99231,0.47113 -1.50238,-0.18683 z M 268.45219,563.7216 c -1.64664,-1.33337 -1.74234,-1.94914 -2.1991,-14.14996 -0.47492,-12.68622 -0.35495,-14.63492 0.901,-14.63492 0.36161,0 0.67833,3.23035 0.70381,7.17857 0.0722,11.18603 1.0184,19.12848 2.4699,20.73237 1.73678,1.91912 0.26312,2.60577 -1.87561,0.87394 z m 141.51642,-10.68507 c -0.0319,-0.77614 0.14205,-1.211 0.38671,-0.96634 0.24465,0.24465 0.2708,0.87968 0.0581,1.41117 -0.23503,0.58734 -0.4095,0.41288 -0.44482,-0.44483 z"
         id="path3061"
         inkscape:connector-curvature="0" />
      <path
         style="fill:#4d5749"
         d="m 344.81196,601.29885 c -0.21682,-0.35083 0.2606,-1.23047 1.06094,-1.95477 0.80034,-0.7243 1.45517,-1.80722 1.45517,-2.40648 0,-0.68434 0.57418,-0.35962 1.54382,0.87309 1.24357,1.58092 1.36923,2.17304 0.64612,3.04434 -0.97738,1.17767 -4.07213,1.46954 -4.70605,0.44382 z m -15.76364,-5.06818 c -0.36367,-0.70865 -0.87209,-2.61373 -1.12982,-4.23351 -2.09188,-13.1471 -3.50561,-19.11077 -5.32103,-22.44631 -1.92368,-3.53443 -7.39932,-9.29097 -11.34633,-11.92839 l -1.84066,-1.22994 1.74662,0.42547 c 0.96065,0.234 3.8246,2.36931 6.36435,4.74512 5.71601,5.34705 7.6976,9.76131 10.33424,23.02092 1.04127,5.23652 2.20402,10.10169 2.5839,10.81149 0.87545,1.63581 0.87093,2.12361 -0.0197,2.12361 -0.3907,0 -1.00791,-0.5798 -1.37159,-1.28846 z m 18.21004,-11.45512 c -0.5406,-1.1865 -0.62693,-2.30345 -0.22261,-2.88022 0.37322,-0.53239 0.50035,-9.86908 0.29232,-21.4682 -0.29703,-16.56129 -0.18081,-20.59775 0.60169,-20.89721 0.5334,-0.20413 1.24734,-0.0787 1.58656,0.27881 0.33921,0.35748 0.73108,10.49408 0.87083,22.52577 0.23003,19.80347 0.1357,21.99437 -0.99581,23.12747 -1.17625,1.17788 -1.30198,1.13742 -2.13298,-0.68642 z m 51.00483,-10.12246 c -1.13816,-0.45638 -1.58933,-1.11612 -1.35275,-1.97805 0.61615,-2.24475 1.18131,-6.21774 1.95624,-13.75191 0.55728,-5.4182 1.22474,-8.15185 2.58438,-10.5845 1.00818,-1.80383 1.83305,-3.73494 1.83305,-4.29135 0,-0.55642 0.69814,-1.7098 1.55141,-2.56308 1.38414,-1.38413 1.43146,-1.67138 0.43879,-2.66404 -1.3508,-1.3508 -2.72646,-0.65693 -2.72646,1.37521 0,2.39443 -1.80124,1.14156 -2.20879,-1.53635 -0.35208,-2.31344 -0.42028,-2.35904 -1.56444,-1.04587 -0.65797,0.75516 -1.7215,2.36697 -2.36338,3.58181 l -1.16707,2.20879 -0.0294,-2.61374 c -0.0387,-3.42542 -1.12086,-4.38077 -4.96248,-4.38077 -3.51021,0 -4.00981,-0.92129 -1.57062,-2.89642 2.34681,-1.90033 1.33319,-3.72995 -2.06642,-3.72995 -1.49937,0 -3.24919,-0.46344 -3.8885,-1.02987 -0.9681,-0.85775 -3.43237,-0.91421 -14.74433,-0.33782 -7.57981,0.38622 -14.00588,1.04387 -14.54121,1.48815 -0.52759,0.43786 -0.95925,1.60562 -0.95925,2.59502 0,0.9894 -0.39613,2.52259 -0.88029,3.4071 -0.83887,1.53251 -0.91992,1.46968 -1.72254,-1.3351 -0.75596,-2.64174 -1.13723,-2.99363 -3.72136,-3.43469 -1.58351,-0.27027 -4.24353,-0.31485 -5.91115,-0.0991 -1.84963,0.23934 -3.2304,0.0714 -3.5407,-0.4307 -0.27976,-0.45267 -1.29786,-0.82303 -2.26242,-0.82303 -0.96456,0 -1.94675,-0.31228 -2.18265,-0.69397 -0.25837,-0.41805 -11.03334,-0.6376 -27.10114,-0.55219 l -26.67226,0.14176 -0.23296,2.02473 c -0.21143,1.83745 -1.6077,2.98699 -1.6077,1.32359 0,-0.38562 -2.0677,-0.79977 -4.59491,-0.92033 -4.21149,-0.2009 -4.67711,-0.39124 -5.57992,-2.28098 l -0.985,-2.06179 -14.11514,0.10883 c -15.4935,0.11945 -18.16459,0.39585 -18.16459,1.87958 0,0.69203 -0.61602,0.87075 -2.02796,0.58836 -1.54909,-0.30981 -2.44869,0.0422 -3.80966,1.49094 -2.42823,2.58473 -3.38197,2.392 -4.96163,-1.00265 l -1.3491,-2.89918 -6.99451,0.38411 c -3.84697,0.21127 -7.49148,0.56782 -8.0989,0.79234 -0.60742,0.22453 -2.19775,0.33554 -3.53408,0.24669 -2.77341,-0.18439 -4.56482,0.98424 -4.56482,2.97788 0,2.28306 -5.42132,4.57989 -9.4014,3.98304 -1.81684,-0.27246 -3.73809,-0.6622 -4.26944,-0.8661 -1.47203,-0.56487 -3.09909,-3.40917 -3.65974,-6.39768 -0.47595,-2.53701 -0.39695,-2.68456 1.43719,-2.68456 2.32289,0 3.37691,-2.18316 3.37691,-6.99451 0,-4.57316 -1.12296,-7.20468 -2.84168,-6.65918 -0.76371,0.24239 -1.74871,-0.0245 -2.22985,-0.60426 -1.87765,-2.26244 2.39699,-13.3672 5.8587,-15.21985 2.73977,-1.46628 7.66563,1.32497 10.00397,5.66878 1.48713,2.76257 4.422,4.03472 5.47441,2.37295 1.06778,-1.68603 0.74559,-4.56965 -0.76695,-6.86416 -1.71835,-2.60673 -1.38601,-3.35911 1.48378,-3.35911 1.39727,0 2.74022,0.65557 3.77065,1.84066 1.45071,1.66847 2.13622,1.84065 7.32797,1.84065 5.27258,0 5.87355,0.15747 7.5657,1.98238 1.34363,1.44904 2.98582,2.17173 6.10397,2.68619 4.71355,0.7777 178.94399,0.86956 187.7137,0.099 4.95156,-0.43508 5.32624,-0.59407 6.1635,-2.61539 0.85299,-2.0593 1.09324,-2.15215 5.56893,-2.15215 4.44749,0 4.73337,0.10809 5.81418,2.19813 0.62518,1.20897 1.87613,2.36183 2.77989,2.56192 2.44731,0.54181 78.47537,1.78864 136.74761,2.2426 28.14368,0.21924 52.91303,0.55887 55.043,0.75473 3.75764,0.34552 4.44552,0.72861 8.73681,4.86549 0.86105,0.83005 2.18632,1.38246 2.94506,1.22756 1.10105,-0.22478 1.33594,-0.83372 1.16359,-3.01658 l -0.21593,-2.73494 12.96489,0 c 8.28794,0 13.54502,-0.3033 14.57307,-0.84078 0.8845,-0.46243 3.0089,-2.11902 4.72087,-3.68132 1.71196,-1.5623 3.47001,-2.84054 3.90678,-2.84054 2.60611,0 6.01917,17.86457 3.58002,18.73847 -0.56542,0.20258 -3.34728,0.45927 -6.18189,0.57042 l -5.15385,0.2021 0,2.94505 c 0,2.67344 0.16325,2.92703 1.77006,2.74957 0.97354,-0.10752 2.29881,0.26667 2.94505,0.83154 1.93903,1.69486 5.73482,3.39106 6.33714,2.83184 0.88295,-0.81979 -0.12236,7.3413 -1.22627,9.95478 l -0.99082,2.34575 -4.33836,-2.66963 c -3.32231,-2.04439 -5.21909,-2.70229 -8.0989,-2.80913 -3.6977,-0.13718 -42.36768,-0.47703 -44.72531,-0.39307 -0.77433,0.0276 -1.37415,0.93652 -1.67449,2.53748 -0.36909,1.96743 -0.89201,2.57592 -2.4748,2.87978 -2.54804,0.48917 -4.06001,-0.74294 -3.63567,-2.96273 0.21071,-1.10226 -0.10094,-1.94938 -0.86112,-2.3407 -0.65525,-0.33729 -15.43805,-0.82799 -32.85069,-1.09044 -35.98921,-0.54244 -52.27496,-0.97286 -74.36264,-1.96537 -23.05454,-1.03596 -64.40849,-1.73737 -67.56117,-1.14593 -2.26273,0.42449 -2.9593,0.99294 -3.86089,3.15076 -0.81614,1.95328 -1.33759,2.44041 -2.02033,1.88731 -0.50613,-0.41004 -2.57685,-0.61822 -4.60157,-0.46263 -3.44556,0.26478 -3.76165,0.14173 -4.93554,-1.92149 -2.37251,-4.16988 -7.42915,-2.26445 -8.26594,3.11474 -0.77737,4.99725 -3.25161,13.01915 -3.31201,10.73806 -0.0962,-3.63354 -1.2407,-2.78279 -4.0739,3.02825 -2.91721,5.98334 -2.98002,7.57282 -0.27121,6.86445 1.34495,-0.35171 1.5039,-0.19608 1.01057,0.98946 -0.96169,2.31101 -3.28403,13.74047 -3.31526,16.31614 -0.0312,2.57631 -1.00587,2.94114 -4.31368,1.61473 z m 8.10147,-41.92517 c 0.78317,0 1.21917,-0.33131 0.9689,-0.73626 -0.25027,-0.40494 -1.92642,-0.73626 -3.72477,-0.73626 -2.52737,0 -3.26973,0.27163 -3.26973,1.19643 0,0.94732 0.47904,1.10062 2.30082,0.73626 1.26546,-0.25309 2.9416,-0.46017 3.72478,-0.46017 z m 4.28209,-0.73626 c 0,-0.40494 -0.33132,-0.73626 -0.73626,-0.73626 -0.40495,0 -0.73627,0.33132 -0.73627,0.73626 0,0.40495 0.33132,0.73626 0.73627,0.73626 0.40494,0 0.73626,-0.33131 0.73626,-0.73626 z m -18.71585,-7.86388 c 1.7511,-1.88946 1.97759,-1.93777 5.30276,-1.13092 1.91044,0.46357 7.39447,0.93762 12.18672,1.05344 5.84386,0.14124 8.96488,0.51366 9.47751,1.13092 0.43881,0.52837 2.45832,0.92033 4.74185,0.92033 3.59215,0 4.04709,-0.18298 4.69556,-1.88859 0.94189,-2.47736 0.91911,-9.26692 -0.0395,-11.78839 l -0.7576,-1.99261 -6.42098,0.46647 c -7.52393,0.54661 -55.12949,0.82296 -102.13528,0.59289 -18.22253,-0.0892 -38.26731,0.072 -44.54396,0.35817 -6.27665,0.28619 -23.20554,0.54528 -37.61975,0.57576 -19.95259,0.0422 -26.47509,0.27725 -27.32814,0.98483 -1.70461,1.41394 -3.15651,-0.84625 -3.15651,-4.91377 0,-3.37004 -0.006,-3.37828 -2.57692,-3.37828 -2.09106,0 -2.62021,0.30414 -2.80649,1.61306 -0.12626,0.88718 0.33277,2.47128 1.02006,3.52023 1.58147,2.41362 1.14397,2.81534 -3.15657,2.89838 -3.10781,0.06 -3.55915,0.28495 -4.19746,2.09196 -0.46091,1.30479 -0.46235,2.74466 -0.004,4.04945 l 0.71118,2.02473 11.35035,0.20942 c 6.47822,0.11953 11.74795,0.53941 12.27663,0.97817 1.05143,0.87262 8.88158,0.13451 9.5193,-0.89733 0.21824,-0.35311 1.17934,-0.12928 2.1358,0.49741 1.46377,0.9591 6.49752,1.21835 31.80501,1.63801 33.49224,0.55539 31.68199,0.54942 81.23634,0.2679 29.62736,-0.16832 36.21036,-0.022 38.65385,0.85881 4.7861,1.72536 7.5414,1.51352 9.63031,-0.74045 z m 82.03453,-1.32795 c 8.70632,-0.16969 19.80096,-0.68172 24.65475,-1.13783 4.85379,-0.45612 13.63374,-0.93065 19.51099,-1.05452 10.92454,-0.23025 21.02031,-0.90807 24.3068,-1.63194 1.49264,-0.32876 0.93933,-0.65676 -2.9264,-1.73477 -2.62189,-0.73115 -4.96142,-1.20924 -5.19896,-1.06243 -0.23754,0.14681 -3.55912,-0.0255 -7.38129,-0.38283 -5.94312,-0.55567 -22.63643,-1.37454 -52.22962,-2.56205 -3.84698,-0.15437 -14.11786,-0.491 -22.82418,-0.74807 -14.92166,-0.4406 -15.96122,-0.38432 -18.12306,0.98109 -2.31069,1.45942 -3.10503,3.45829 -2.63126,6.6213 0.4748,3.16983 3.6644,3.85169 15.96861,3.41371 6.07417,-0.21622 18.16731,-0.53196 26.87362,-0.70166 z m -82.46154,50.4226 c 0,-0.40494 0.33132,-0.73626 0.73627,-0.73626 0.40494,0 0.73626,0.33132 0.73626,0.73626 0,0.40495 -0.33132,0.73626 -0.73626,0.73626 -0.40495,0 -0.73627,-0.33131 -0.73627,-0.73626 z m -123.70725,-10.3356 c -0.90339,-1.688 -1.97049,-27.87079 -1.10306,-27.06513 0.30606,0.28428 0.83802,5.8301 1.18213,12.32406 0.43495,8.20819 0.97515,12.48301 1.7722,14.02435 1.00453,1.94254 1.01062,2.21716 0.0491,2.21716 -0.60357,0 -1.45875,-0.6752 -1.90041,-1.50044 z m 159.86866,-26.0553 -1.75617,-0.94882 1.95781,-0.37426 c 2.03109,-0.38826 3.29798,0.5666 2.18984,1.6505 -0.34942,0.34177 -1.42558,0.19443 -2.39148,-0.32742 z m 18.32211,-4.47174 c 0,-0.73876 0.48288,-1.11937 1.23611,-0.97431 0.67986,0.13093 1.2361,0.56937 1.2361,0.97431 0,0.40495 -0.55624,0.84339 -1.2361,0.97432 -0.75323,0.14506 -1.23611,-0.23556 -1.23611,-0.97432 z m -231.84584,-0.96005 c -0.87441,-1.63386 -0.41041,-2.35313 1.51799,-2.35313 1.60689,0 1.77797,1.67315 0.29677,2.90244 -0.83952,0.69674 -1.2075,0.58535 -1.81476,-0.54931 z"
         id="path3059"
         inkscape:connector-curvature="0" />
      <path
         style="fill:#475534"
         d="m 346.72985,600.41817 c 0.17716,-0.53149 0.75697,-1.1113 1.28846,-1.28846 0.5522,-0.18407 0.8283,0.092 0.64423,0.64423 -0.17716,0.53149 -0.75697,1.1113 -1.28846,1.28846 -0.5522,0.18407 -0.82829,-0.092 -0.64423,-0.64423 z m 0.71061,-15.94178 c -0.63382,-1.1843 -0.58267,-1.72297 0.22744,-2.39532 0.57484,-0.47706 0.87837,-1.30205 0.67452,-1.83329 -0.20386,-0.53125 -0.43265,-9.78394 -0.50844,-20.56154 -0.10729,-15.25915 0.0659,-19.59565 0.78255,-19.59566 0.70252,-1e-5 0.92112,3.17996 0.92368,13.4368 10e-4,7.39024 0.20088,17.08131 0.44231,21.53571 0.35195,6.4934 0.22454,8.38062 -0.64269,9.52005 -1.06382,1.39771 -1.09515,1.39595 -1.89937,-0.10675 z m 51.57936,-9.9575 c -1.31398,-0.63285 -1.59752,-1.23278 -1.28133,-2.71116 0.22332,-1.04417 0.88426,-5.79203 1.46876,-10.55081 0.8967,-7.30059 1.51782,-9.60107 3.97569,-14.72527 1.60213,-3.34013 3.12891,-7.64672 3.39284,-9.57021 0.31961,-2.32927 0.83365,-3.49725 1.53916,-3.49725 2.15699,0 1.15999,5.27619 -2.36516,12.51648 -2.48255,5.09889 -3.47681,8.09197 -3.66869,11.04396 l -0.26319,4.04945 1.10335,-2.39286 c 2.17151,-4.70939 2.32199,-2.24018 0.43737,7.17664 -1.05334,5.26322 -2.08083,9.54794 -2.2833,9.52159 -0.20247,-0.0263 -1.12745,-0.41359 -2.0555,-0.86056 z m 10.90194,-35.30521 c -0.006,-1.0897 0.32005,-2.18603 0.72499,-2.4363 0.94014,-0.58104 0.94014,1.85843 0,3.31318 -0.55823,0.86381 -0.71617,0.67279 -0.72499,-0.87688 z m 202.78178,-1.40895 c -0.62466,-1.01072 2.15248,-3.60428 3.85941,-3.60428 0.7348,0 0.99849,0.63654 0.83876,2.02473 -0.18067,1.57016 -0.67192,2.07552 -2.18816,2.25098 -1.07536,0.12445 -2.20486,-0.1777 -2.51001,-0.67143 z m -217.51833,-2.0883 c 0,-1.78614 -0.92497,-1.9585 -2.20879,-0.41158 -1.20328,1.44986 -5.89011,1.48934 -5.89011,0.0496 0,-0.58013 0.68195,-1.27122 1.51545,-1.53576 1.02412,-0.32504 1.44186,-0.99185 1.28846,-2.05668 -0.17712,-1.22954 -0.93166,-1.6954 -3.43462,-2.12057 -1.7642,-0.29967 -3.64067,-0.90425 -4.16992,-1.34349 -0.69176,-0.5741 -4.84821,-0.56939 -14.78463,0.0168 -7.60229,0.44846 -14.0481,0.95491 -14.32403,1.12544 -0.27593,0.17054 -0.71478,1.64268 -0.97523,3.27144 -0.55469,3.46885 -1.6154,3.85499 -2.27981,0.82995 -0.40645,-1.85059 -0.89461,-2.19537 -3.705,-2.61681 -1.78028,-0.26697 -4.4254,-0.26243 -5.87805,0.0101 -2.03187,0.38118 -2.99171,0.17806 -4.16063,-0.88044 -1.41839,-1.28442 -3.38104,-1.39039 -29.51022,-1.59345 -23.37829,-0.18168 -28.18842,-0.0449 -29.19012,0.82998 -1.76013,1.5373 -8.76307,2.02633 -10.08514,0.70427 -0.57957,-0.57958 -1.05377,-1.52709 -1.05377,-2.10558 0,-1.60906 -32.98208,-1.56258 -33.59987,0.0473 -0.27695,0.72172 -0.99424,0.95548 -2.08887,0.68074 -1.27461,-0.3199 -2.10237,0.13778 -3.51601,1.94408 -2.1211,2.71027 -3.1524,2.43816 -4.68795,-1.23694 l -1.03915,-2.48704 -7.67744,0 c -4.32409,0 -7.87618,0.32159 -8.13247,0.73627 -0.25027,0.40494 -1.91536,0.73626 -3.70019,0.73626 -2.8143,0 -3.7528,0.45086 -7.06854,3.3957 -3.60758,3.20404 -4.01276,3.37435 -7.17885,3.01749 -2.42439,-0.27327 -3.8219,-0.92046 -5.03637,-2.33236 -2.23587,-2.59936 -2.20938,-5.38887 0.0594,-6.25144 2.22242,-0.84497 2.67734,-2.10454 2.67734,-7.4131 0,-5.84564 -0.98555,-8.34041 -3.03755,-7.68913 -3.11688,0.98926 -3.32317,-3.03516 -0.4544,-8.86452 4.02307,-8.1749 8.52411,-8.40399 13.82218,-0.7035 1.37041,1.99182 2.82153,3.28042 3.69415,3.28042 1.08427,0 1.43716,0.50781 1.43716,2.06807 0,1.13744 0.48644,2.7112 1.08098,3.49725 1.70546,2.25483 1.38555,2.53358 -2.90762,2.53358 -3.62736,0 -4.07955,0.17583 -4.47183,1.73878 -0.24002,0.95633 -0.32916,2.86142 -0.19809,4.23352 l 0.23831,2.49474 11.38092,0.19957 c 8.82265,0.15471 11.77552,0.45812 13.13634,1.34976 1.33727,0.87621 2.22159,0.97478 3.71249,0.41379 3.13059,-1.17797 7.2404,-1.53914 8.07032,-0.70921 0.4896,0.4896 11.71954,0.92466 31.19401,1.20849 34.81615,0.50742 34.23475,0.50574 80.49494,0.23242 33.23647,-0.19638 40.42844,0.0564 41.29054,1.45134 0.2174,0.35175 1.85325,0.63955 3.63521,0.63955 2.54813,0 3.62122,-0.41119 5.02559,-1.92574 1.61025,-1.73659 2.02902,-1.84954 4.26331,-1.14987 1.36272,0.42673 6.61915,0.86354 11.68096,0.97068 5.79529,0.12266 9.61225,0.52312 10.30769,1.08143 1.21041,0.97174 2.7686,1.23736 6.50154,1.10828 2.13202,-0.0737 2.59774,-0.45558 3.568,-2.92562 l 1.11591,-2.84084 1.73645,1.73644 c 1.45233,1.45233 2.55508,1.75543 6.73969,1.85244 2.75179,0.0638 5.50023,0.0329 6.10764,-0.0687 0.60742,-0.1016 9.55303,-0.32157 19.87913,-0.48881 10.3261,-0.16724 21.25961,-0.43207 24.2967,-0.58851 3.03709,-0.15644 16.4555,-0.65447 29.81868,-1.10673 13.36319,-0.45226 28.10687,-1.19661 32.76374,-1.6541 4.65687,-0.4575 9.55222,-0.84328 10.87856,-0.8573 1.38337,-0.0146 2.29989,-0.36327 2.14966,-0.81776 -0.14603,-0.44178 -3.32998,-1.00952 -7.19725,-1.28335 -3.81445,-0.27009 -8.75762,-0.85349 -10.98482,-1.29644 -2.22719,-0.44296 -8.35659,-0.93777 -13.62088,-1.09959 -9.07668,-0.27899 -41.34343,-1.37102 -73.62637,-2.49179 -8.0989,-0.28117 -17.31276,-0.34556 -20.47524,-0.14309 -5.01198,0.32088 -5.92423,0.59947 -7.10773,2.17063 l -1.35776,1.8025 -1.13767,-2.72283 c -0.91669,-2.19393 -1.53827,-2.73268 -3.19997,-2.77356 -1.13426,-0.0279 -2.96818,-0.1704 -4.07538,-0.31666 -1.10719,-0.14626 -2.17897,0.002 -2.38172,0.33054 -0.3728,0.60321 -35.52846,1.20248 -54.5063,0.92914 -33.09398,-0.47668 -92.37376,-0.089 -100.5,0.65733 -5.86778,0.53887 -16.00775,0.68184 -27.97802,0.39449 -10.3261,-0.24789 -20.9283,-0.16194 -23.56044,0.191 -5.89546,0.79052 -7.09523,0.0599 -6.06771,-3.69519 0.93861,-3.43017 0.4497,-4.33003 -2.3526,-4.33003 l -2.40749,0 0.33878,-3.52582 c 0.25412,-2.64468 0.0431,-3.77122 -0.84434,-4.50774 -1.80331,-1.49661 -1.42328,-2.27413 1.11153,-2.27413 1.92193,0 2.23294,0.23603 1.91469,1.45305 -0.45024,1.72171 1.84138,2.28355 8.30714,2.03664 4.94141,-0.18869 8.0989,0.59803 8.0989,2.01794 0,0.99784 3.58809,2.36661 6.9945,2.66823 4.87131,0.43133 167.33141,0.66264 178.44181,0.25406 l 13.51873,-0.49713 1.20655,-2.12108 c 1.12622,-1.97986 1.51166,-2.12139 5.78929,-2.12574 4.31334,-0.004 4.6476,0.12077 5.68602,2.12885 l 1.10327,2.1335 9.03926,0.4553 c 4.97159,0.25041 33.88816,0.77292 64.25904,1.16112 131.09204,1.67564 122.80788,1.48199 124.42858,2.90863 0.80989,0.71292 2.05234,1.50085 2.76099,1.75095 0.70865,0.25011 1.28846,0.7848 1.28846,1.18821 0,1.41539 2.83851,2.36663 4.46484,1.49625 1.1872,-0.63538 1.42057,-1.2651 1.0664,-2.87761 -0.30137,-1.37212 -0.13207,-2.17432 0.50494,-2.39253 0.52708,-0.18055 6.25943,-0.26921 12.73855,-0.19701 6.47912,0.0722 12.59687,-0.17227 13.59501,-0.54326 0.99814,-0.37099 3.13427,-1.98094 4.74695,-3.57766 1.61268,-1.59672 3.18958,-2.90313 3.50421,-2.90313 1.83415,0 4.78229,11.5495 3.93401,15.41168 -0.42735,1.94572 -0.64669,2.03525 -5.35986,2.18783 -5.87679,0.19025 -6.94789,0.90276 -6.6526,4.42539 0.1874,2.23568 0.50315,2.65425 2.06195,2.73342 1.01236,0.0514 3.31273,0.94256 5.11194,1.98032 1.7992,1.03776 3.57482,1.69923 3.94584,1.46993 0.62239,-0.38466 0.19694,4.15466 -0.68219,7.2785 -0.61837,2.19723 -3.04006,2.28982 -6.68004,0.2554 -2.29091,-1.28042 -4.42267,-1.8831 -6.4271,-1.81704 -3.08801,0.10176 -45.15069,0.20211 -49.75197,0.11869 -42.32007,-0.7672 -100.81356,-2.31475 -118.17034,-3.12642 -8.0989,-0.37873 -25.52357,-0.78094 -38.7215,-0.89381 -25.38079,-0.21705 -26.43784,-0.0904 -26.43784,3.16849 0,1.0322 -0.567,1.35635 -2.39286,1.36798 -1.31607,0.008 -3.55247,0.0185 -4.96978,0.0224 -1.8989,0.005 -2.93209,-0.47521 -3.92679,-1.82626 -0.90274,-1.22615 -2.06118,-1.83347 -3.49726,-1.83347 -2.15727,0 -5.02893,2.14875 -5.16582,3.86538 -0.0403,0.50619 -0.30003,0.10799 -0.57703,-0.88488 -0.46132,-1.65356 -0.90357,-1.81918 -5.26452,-1.9716 -6.05882,-0.21176 -7.57657,0.20736 -7.11686,1.9653 0.32927,1.25909 -0.74029,2.6765 -2.98194,3.95177 -0.6078,0.34578 -0.92033,0.009 -0.92033,-0.99241 z m 33.13187,0.69281 c 0,-0.40494 0.14611,-0.73626 0.32468,-0.73626 0.17857,0 0.52945,0.33132 0.77972,0.73626 0.25027,0.40495 0.10416,0.73627 -0.32468,0.73627 -0.42884,0 -0.77972,-0.33132 -0.77972,-0.73627 z M 214.53515,531.4808 c -0.82917,-0.82917 -0.505,-1.69793 0.63357,-1.69793 0.60742,0 1.10439,0.31176 1.10439,0.69281 0,0.92841 -1.14974,1.59335 -1.73796,1.00512 z"
         id="path3057"
         inkscape:connector-curvature="0" />
      <path
         style="fill:#394629"
         d="m 347.84065,584.00917 c -0.23378,-0.6092 0.0325,-1.48742 0.59181,-1.95157 0.55928,-0.46416 0.84782,-1.28448 0.64119,-1.82293 -0.53979,-1.40668 -0.72922,-40.1446 -0.19631,-40.14433 0.24468,1.2e-4 0.62812,9.69129 0.85208,21.53594 0.31876,16.85857 0.20403,21.74799 -0.52827,22.51313 -0.77574,0.81054 -1.00803,0.7883 -1.3605,-0.13024 z m 51.19153,-9.58713 c -1.28102,-0.63353 -1.58241,-1.26168 -1.28133,-2.67059 0.21652,-1.01321 0.87347,-5.74837 1.45988,-10.52259 0.92043,-7.49349 1.47314,-9.49339 4.04233,-14.62646 1.63686,-3.27035 2.97611,-6.55477 2.97611,-7.29871 0,-1.94823 1.57665,-5.12579 2.31645,-4.66857 1.28573,0.79462 0.53241,3.70258 -3.05272,11.78415 -2.67197,6.02315 -3.66484,9.16982 -3.62126,11.47662 l 0.0601,3.17819 1.04645,-2.39286 c 2.10857,-4.82155 2.24954,-2.16248 0.38047,7.17664 -1.05335,5.26322 -2.08083,9.52969 -2.2833,9.48103 -0.20248,-0.0487 -1.12189,-0.46124 -2.04314,-0.91685 z m 10.87831,-36.12869 c 0,-0.63131 0.33132,-1.14784 0.73626,-1.14784 0.40495,0 0.73626,0.31176 0.73626,0.69281 0,0.38105 -0.33131,0.89758 -0.73626,1.14785 -0.40494,0.25027 -0.73626,-0.0615 -0.73626,-0.69282 z m 203.2088,-0.70094 c 0,-1.05287 1.52299,-1.91943 3.3734,-1.91943 1.42048,0 1.32682,1.94279 -0.12043,2.49815 -1.93233,0.7415 -3.25297,0.50655 -3.25297,-0.57872 z m -262.19217,-2.28756 c -0.24773,-0.40495 -0.65671,-1.60165 -0.90885,-2.65934 -0.38673,-1.62225 -0.97652,-1.99409 -3.7703,-2.37702 -1.82151,-0.24966 -4.31157,-0.25399 -5.53346,-0.01 -1.41809,0.28362 -2.22161,0.14474 -2.22161,-0.38398 0,-0.5121 1.52988,-0.82829 4.00771,-0.82829 3.05562,0 4.23624,-0.32246 4.96978,-1.35738 0.69738,-0.98393 2.27875,-1.47627 5.74779,-1.78949 6.88071,-0.62128 8.56754,0.28934 3.49685,1.88774 -3.90763,1.23177 -3.99907,1.32505 -4.66167,4.75502 -0.37171,1.92424 -0.87852,3.16729 -1.12624,2.76235 z m 44.61977,-2.34696 c -0.71264,-4.36231 -1.93685,-6.473 -1.56074,-2.69089 0.30239,3.04063 -0.47025,4.66972 -2.21473,4.66972 -0.50077,0 -1.01431,-1.0577 -1.14121,-2.35044 -0.1963,-1.99988 -0.61506,-2.44718 -2.80764,-2.99904 -1.4173,-0.35672 -3.03298,-1.0922 -3.5904,-1.63439 -0.85114,-0.82789 -0.32589,-1.07171 3.27903,-1.52211 2.98054,-0.3724 4.66449,-0.99569 5.50954,-2.03928 1.20002,-1.48197 1.27557,-1.48455 5.40918,-0.18437 3.07533,0.96731 5.25904,1.18529 8.19688,0.81823 4.64052,-0.57979 7.25056,0.006 6.67754,1.49965 -0.21836,0.56904 0.26346,1.37849 1.081,1.81602 1.45468,0.77852 1.45181,0.80812 -0.20932,2.15322 -1.94748,1.57697 -2.98605,0.68233 -2.31442,-1.99369 0.30367,-1.2099 0.0948,-1.66271 -0.7669,-1.66271 -1.06566,0 -1.51553,0.84669 -1.2714,2.39286 0.0479,0.30371 -1.09198,0.5522 -2.53319,0.5522 -1.55943,0 -2.43614,-0.2981 -2.16534,-0.73626 0.25027,-0.40495 -0.22715,-0.73627 -1.06094,-0.73627 -0.83379,0 -1.51598,0.29891 -1.51598,0.66424 0,0.36533 -1.00841,1.01577 -2.24091,1.44542 -1.85912,0.6481 -2.20408,1.1263 -2.02472,2.80685 0.15204,1.42463 -0.15367,2.10166 -1.03031,2.2818 -0.94195,0.19355 -1.35852,-0.42965 -1.70502,-2.55076 z m -211.66286,-0.44338 c -2.63414,-1.33272 -2.74164,-3.36104 -0.28208,-5.32223 1.89016,-1.50716 2.1045,-2.16159 2.35908,-7.20294 0.15673,-3.10379 -0.10334,-6.70674 -0.59072,-8.1835 -0.74179,-2.24766 -1.19803,-2.63836 -3.08093,-2.63836 -2.10865,0 -2.18646,-0.10993 -1.69371,-2.39285 0.60409,-2.7987 2.96646,-7.72908 4.58613,-9.57143 0.623,-0.70865 1.78773,-1.28846 2.5883,-1.28846 2.44002,0 6.3808,2.93647 7.87723,5.86973 0.779,1.52695 2.04373,2.94034 2.81051,3.14086 0.80687,0.211 1.57455,1.25883 1.82238,2.48743 0.23553,1.16757 0.61903,2.61983 0.85224,3.22725 0.32433,0.8448 -0.20938,1.13722 -2.27056,1.24402 -1.48201,0.0768 -3.22337,0.66859 -3.8697,1.3151 -1.38259,1.38299 -1.49624,7.35384 -0.1653,8.68478 0.47684,0.47684 2.59482,1.04108 4.70662,1.25385 2.88198,0.29038 3.90093,0.70823 4.08536,1.67533 0.18386,0.9641 -0.24418,1.28846 -1.70033,1.28846 -2.01236,0 -7.04725,3.07496 -9.50405,5.80441 -1.61288,1.79187 -5.6258,2.07815 -8.53047,0.60855 z m 246.25889,0.18943 c -1.29708,-2.09871 -1.75273,-5.61216 -1.06099,-8.18109 l 0.74435,-2.76431 3.29486,2.22367 c 1.81216,1.22301 3.29484,2.46008 3.29484,2.74902 0,0.28895 -0.99395,1.1125 -2.20879,1.83013 -1.49559,0.88346 -2.20879,1.88566 -2.20879,3.10379 0,1.83837 -1.01138,2.40458 -1.85548,1.03879 z m -206.83355,-2.34863 c -0.63038,-0.89999 -1.14614,-2.22527 -1.14614,-2.94505 0,-1.15652 -0.76553,-1.30871 -6.58293,-1.30871 -6.85751,0 -8.80747,-0.83569 -6.27345,-2.68862 1.91913,-1.4033 8.01331,-1.28812 9.22709,0.1744 0.67489,0.81318 1.65108,1.0354 3.21927,0.73282 4.51783,-0.87171 8.59502,-0.65683 9.76658,0.51473 1.53396,1.53396 0.6963,3.72749 -1.1943,3.12744 -1.05259,-0.33408 -1.75623,0.12569 -2.7393,1.78989 -1.57152,2.66038 -2.72219,2.82264 -4.27682,0.6031 z m 380.81816,1.27079 c -0.11635,-0.0963 -12.13901,-0.39986 -26.71704,-0.67458 -33.7455,-0.63594 -67.81434,-1.68322 -84.3022,-2.59146 -7.08654,-0.39036 -17.4516,-0.94134 -23.03346,-1.22439 -6.88392,-0.34908 -10.05755,-0.77585 -9.86505,-1.32658 0.1561,-0.44656 1.07857,-0.72501 2.04995,-0.61877 0.97138,0.10624 2.09746,0.21744 2.50241,0.24712 2.35341,0.17249 27.14445,-0.91695 34.6044,-1.52069 4.85934,-0.39327 14.86362,-0.69447 22.23174,-0.66933 7.36813,0.0251 13.69689,-0.13989 14.06392,-0.36673 0.36702,-0.22683 9.16452,-0.60877 19.54999,-0.84875 10.38547,-0.23998 20.45698,-0.73651 22.38115,-1.10341 6.03266,-1.1503 10.49298,-2.49911 10.49298,-3.17309 0,-0.35678 -0.81095,-0.44515 -1.80211,-0.19639 -0.99116,0.24877 -3.22757,-0.0151 -4.96978,-0.58636 -1.80727,-0.59259 -8.06877,-1.24186 -14.57976,-1.51181 -6.27665,-0.26022 -13.89698,-0.78448 -16.93407,-1.165 -6.32508,-0.79249 -13.14763,-1.09923 -48.96154,-2.20134 -14.17307,-0.43615 -33.05824,-1.06237 -41.96703,-1.3916 -20.01035,-0.73949 -25.09291,-0.25636 -27.372,2.60189 l -1.6341,2.04936 -0.68557,-1.80489 c -0.37707,-0.99269 -0.81125,-2.45885 -0.96486,-3.25813 -0.20542,-1.06887 -1.126,-1.59778 -3.48056,-1.99974 -1.7607,-0.30057 -3.6484,-0.91758 -4.1949,-1.37113 -1.27232,-1.05594 -2.53065,-0.28305 -2.53065,1.55437 0,1.17223 -0.5624,1.44993 -3.12912,1.54507 -1.72102,0.0638 -3.6261,0.0704 -4.23352,0.0148 -1.17074,-0.10729 -10.90125,-0.82115 -12.14835,-0.89123 -0.40495,-0.0228 -3.87864,0.15346 -7.71931,0.39159 -4.73359,0.29349 -7.50616,0.153 -8.60693,-0.43611 -1.26246,-0.67565 -2.33014,-0.65562 -4.79717,0.09 -4.52765,1.36839 -17.80614,1.76266 -22.68429,0.67355 -2.94335,-0.65714 -15.86457,-0.90916 -47.30494,-0.92263 -23.79053,-0.0102 -43.2555,-0.29442 -43.2555,-0.63162 0,-1.13713 -2.19786,-0.62401 -3.68132,0.85944 -1.2126,1.2126 -2.47977,1.47788 -7.17857,1.50284 -27.78519,0.14761 -41.2936,0.53791 -42.94882,1.24093 -2.77997,1.18072 -3.82512,0.20348 -3.22181,-3.01244 0.58361,-3.11094 -0.47591,-4.88517 -2.91729,-4.88517 -1.38843,0 -1.56368,-0.33391 -1.31103,-2.49803 0.29142,-2.49622 0.29547,-2.49858 5.5582,-3.24701 6.81721,-0.96948 10.02439,-0.479 11.97501,1.83139 1.19482,1.4152 2.64312,1.99614 6.25824,2.5103 5.31451,0.75585 178.95559,0.94524 187.92295,0.20496 5.52417,-0.45604 5.81221,-0.57031 6.51433,-2.58443 0.66722,-1.91399 1.04881,-2.10637 4.15984,-2.09724 4.80804,0.0141 6.43944,0.58881 7.35104,2.58955 0.5287,1.16037 1.59918,1.86137 3.21887,2.10788 2.85566,0.43461 28.11278,0.84096 123.54213,1.98762 67.43196,0.81024 70.35459,0.90157 71.32332,2.22873 0.55558,0.76112 1.36574,1.38386 1.80038,1.38386 0.43463,0 1.69793,0.86963 2.80733,1.9325 1.57514,1.50908 2.45071,1.82368 3.99605,1.43582 1.78387,-0.44772 1.93832,-0.74711 1.56673,-3.0369 l -0.41221,-2.54021 14.05043,0 14.05043,0 3.60797,-3.37483 c 4.16434,-3.89526 5.09583,-3.67494 6.4025,1.51433 0.93197,3.70116 1.09101,9.22103 0.26587,9.2274 -2.91347,0.0225 -9.50639,1.68091 -10.5935,2.66473 -1.60254,1.45028 -1.8149,5.6174 -0.50847,9.97786 1.59797,5.33355 2.64771,5.15943 -32.41709,5.37704 -17.03499,0.10572 -31.06791,0.11343 -31.18424,0.0171 z m -335.57969,-1.84323 c 0,-0.40495 1.24245,-0.70324 2.76099,-0.66287 2.46407,0.0655 2.56305,0.13678 0.92033,0.66287 -2.63181,0.84285 -3.68132,0.84285 -3.68132,0 z m 185.17034,-3.68132 c -0.2626,-0.4249 0.4196,-0.73149 1.61314,-0.72499 1.60587,0.009 1.82131,0.17082 0.96378,0.72499 -1.41457,0.91417 -2.01193,0.91417 -2.57692,0 z M 200.56026,495.58553 c -0.33756,-0.87968 0.0794,-1.14332 1.80831,-1.14332 1.46843,0 2.14201,0.31889 1.94394,0.92033 -0.45335,1.37661 -3.24588,1.54256 -3.75225,0.22299 z"
         id="path3055"
         inkscape:connector-curvature="0" />
      <path
         style="fill:#303924"
         d="m 399.60279,573.17898 c 0,-0.89568 -0.32454,-1.3154 -0.79317,-1.02577 -0.54362,0.33598 -0.65755,-0.51897 -0.36209,-2.71755 0.23709,-1.76425 0.77429,-6.14939 1.19378,-9.74475 0.64237,-5.50569 1.28029,-7.51031 4.04341,-12.70618 1.80439,-3.39305 3.31914,-6.91211 3.36612,-7.82013 0.0719,-1.38919 0.14175,-1.43132 0.44076,-0.26573 0.19544,0.76188 0.0187,2.08716 -0.3927,2.94506 -3.79374,7.91078 -5.30004,12.5074 -5.9379,18.12008 -0.39082,3.4389 -0.61234,6.35082 -0.49224,6.47091 0.1201,0.12009 0.78971,-1.53395 1.48802,-3.67564 1.53357,-4.70339 2.83923,-7.02984 2.39201,-4.26212 -1.46666,9.07654 -3.23602,16.19522 -4.02567,16.19641 -0.50618,7.3e-4 -0.92033,-0.6808 -0.92033,-1.51459 z m -48.75988,-38.97853 c -1.01272,-2.50323 -1.30109,-5.15384 -0.56071,-5.15384 1.08896,0 1.62217,1.72363 1.29038,4.17132 -0.18619,1.37363 -0.43559,1.70945 -0.72967,0.98252 z m 40.24427,-2.57692 c -0.42371,-2.25858 -0.75376,-2.57692 -2.67163,-2.57692 -3.17916,0 -2.21109,-1.78763 1.12053,-2.06917 1.48724,-0.12569 2.7296,0.04 2.76078,0.36813 0.0312,0.32815 0.21367,2.00474 0.40554,3.72576 0.42317,3.79598 -0.9205,4.25535 -1.61522,0.5522 z m 39.10829,0.42919 c -0.85447,-1.38258 -1.1794,-7.09445 -0.46417,-8.15996 0.65327,-0.97322 0.88513,-0.96062 1.95216,0.10611 0.96434,0.96408 1.10558,1.97577 0.69379,4.96978 -0.48816,3.54932 -1.23861,4.61014 -2.18178,3.08407 z m -244.82174,-0.7671 c -0.93918,-0.59398 -0.90237,-1.17938 0.28104,-4.47034 1.89282,-5.26375 1.37759,-16.31136 -0.93524,-20.0536 -2.51062,-4.06227 -0.63198,-10.11465 3.13748,-10.10793 2.55236,0.005 6.17697,2.70455 7.73774,5.7639 0.80791,1.58365 2.14655,3.05657 2.97475,3.27314 1.0333,0.27022 1.50581,0.99878 1.50581,2.32178 0,1.55932 -0.42848,2.01369 -2.24078,2.37615 -4.50641,0.90128 -5.98764,8.54208 -2.46705,12.72607 1.56384,1.85851 1.75136,2.48151 1.01425,3.36967 -0.49737,0.59929 -1.65184,1.08962 -2.56549,1.08962 -1.1516,0 -1.94184,0.67756 -2.57609,2.20879 -0.69089,1.66794 -1.38882,2.20603 -2.85032,2.19752 -1.06447,-0.006 -2.42171,-0.31885 -3.0161,-0.69477 z m 37.97383,-2.25391 c -1.50119,-3.75187 -1.48517,-4.15227 0.18362,-4.58867 3.18517,-0.83294 4.89441,2.62909 3.02372,6.1245 -1.13261,2.1163 -1.89143,1.75294 -3.20734,-1.53583 z m 172.09785,0.19896 c -0.27726,-1.1136 -1.02904,-2.41657 -1.67061,-2.89549 -0.87706,-0.65469 -0.95755,-1.08289 -0.32439,-1.72564 1.41528,-1.43671 3.50559,-0.46426 4.81046,2.2379 1.14184,2.36456 1.14545,2.63998 0.0457,3.48763 -1.75846,1.35538 -2.30086,1.14602 -2.86117,-1.1044 z m 183.80574,0.57364 c -12.35082,-0.31074 -23.34143,-0.80346 -24.42356,-1.09493 -1.93053,-0.51999 -2.01757,-0.81744 -1.3964,-4.77139 0.0279,-0.17759 0.74197,0.41906 1.5868,1.32588 1.15786,1.24282 1.77501,1.45048 2.5065,0.84339 0.53373,-0.44296 1.83042,-0.58954 2.88151,-0.32573 1.07257,0.2692 1.91109,0.16659 1.91109,-0.23387 0,-0.88162 6.2649,-1.67299 9.01923,-1.13929 1.1136,0.21577 2.02472,0.85067 2.02472,1.41088 0,0.56021 0.51781,1.01856 1.15068,1.01856 0.7707,0 1.07462,-0.54703 0.92033,-1.65659 -0.21312,-1.5327 0.15509,-1.70459 4.9235,-2.29833 5.36811,-0.66842 8.2986,-0.80404 11.41209,-0.52815 2.60229,0.2306 11.10507,-1.06759 14.1105,-2.15436 2.14633,-0.77612 2.89043,-0.72844 4.90718,0.31446 1.33056,0.68806 2.7729,0.97293 3.27592,0.64702 0.49429,-0.32026 3.66861,-0.58229 7.05403,-0.58229 5.66233,0 6.24957,-0.14033 7.33181,-1.75212 l 1.17647,-1.75212 -5.12301,0.50367 c -6.84544,0.673 -12.02116,0.52703 -13.72946,-0.38723 -2.19383,-1.1741 -9.22636,-2.27117 -15.85501,-2.47338 -3.61474,-0.11027 -6.51784,-0.56894 -7.20367,-1.13813 -0.94089,-0.78086 -1.47602,-0.7783 -2.95678,0.0142 -1.81064,0.96902 -4.32814,0.56658 -9.78496,-1.56419 -1.21908,-0.47603 -2.00455,-0.36422 -2.76191,0.39314 -0.77703,0.77703 -1.65113,0.88835 -3.28841,0.41878 -2.32482,-0.66675 -15.15158,-1.46199 -30.89996,-1.91577 -5.06181,-0.14585 -19.66324,-0.56008 -32.44761,-0.92052 -12.78438,-0.36044 -23.88356,-0.85533 -24.66484,-1.09977 -0.78129,-0.24444 -8.37821,-0.64614 -16.88206,-0.89267 -8.50384,-0.24653 -17.61497,-0.54418 -20.24693,-0.66144 -4.12434,-0.18375 -5.28714,0.0733 -8.41735,1.86108 -1.99756,1.14086 -4.03395,2.82546 -4.5253,3.74356 -0.86432,1.615 -0.91967,1.57455 -1.70218,-1.24401 -1.53822,-5.54053 -0.61989,-12.11657 1.69205,-12.11657 0.59016,0 1.28308,0.66186 1.53983,1.47081 0.25675,0.80895 1.1902,1.62254 2.07434,1.80797 3.44299,0.7221 17.04671,1.11294 53.14598,1.5269 143.6744,1.64753 142.00953,1.60966 143.10904,3.25456 0.55558,0.83115 1.45164,1.51118 1.99127,1.51118 0.53961,0 1.80942,0.8283 2.82178,1.84066 2.99799,2.998 5.8921,2.03075 5.93252,-1.98271 l 0.0245,-2.43487 12.14836,0.20674 c 11.19527,0.19052 12.24782,0.32489 13.41624,1.71276 1.39823,1.66083 2.78156,1.29522 2.78156,-0.73516 0,-1.24343 5.53877,-6.70632 6.79947,-6.70632 0.89165,0 2.03616,3.44756 2.03239,6.12211 -0.003,2.17941 -0.19216,2.35473 -2.67894,2.48376 -1.47161,0.0764 -3.02732,0.49051 -3.45714,0.92033 -0.42983,0.42982 -1.5307,0.7815 -2.44638,0.7815 -1.36903,0 -1.86621,0.67792 -2.7978,3.81495 -0.62311,2.09822 -1.13292,6.08036 -1.13292,8.84919 0,4.94095 -0.0326,5.02605 -1.76034,4.59242 -0.96818,-0.243 -1.98169,-0.0837 -2.25224,0.35411 -1.00165,1.6207 -4.87754,0.85424 -7.14465,-1.41287 -2.61566,-2.61566 -2.83178,-2.67009 -2.83178,-0.71316 0,0.8226 -0.41415,1.64896 -0.92033,1.83635 -2.99137,1.10742 -45.78881,1.76573 -71.96979,1.10704 z m 85.25958,-8.06842 c 0.16918,-3.53261 -0.004,-4.54224 -0.73626,-4.29898 -0.52656,0.17486 -1.28426,1.28482 -1.68377,2.46656 -0.39952,1.18175 -1.14498,2.41358 -1.65659,2.73741 -1.43622,0.90907 -1.10409,2.41582 0.72639,3.29545 2.65141,1.27413 3.11594,0.69172 3.35023,-4.20044 z m -26.35847,-1.54756 c 0,-2.56809 -1.6899,-3.60021 -3.76886,-2.30188 -0.75076,0.46886 -1.86648,0.85246 -2.47939,0.85246 -1.91097,0 -1.21864,1.42254 0.91033,1.87049 1.1136,0.2343 2.52171,0.71811 3.12912,1.07512 1.84065,1.08185 2.2088,0.83248 2.2088,-1.49619 z m -95.38951,7.80888 c -1.37844,-1.01214 -1.35561,-1.07748 0.64348,-1.84066 3.04698,-1.16323 5.26924,-0.96878 6.67449,0.58401 1.187,1.31162 1.13691,1.39682 -1.08231,1.84066 -3.45178,0.69036 -4.65334,0.57782 -6.23566,-0.58401 z m -7.68742,-1.1594 c 0,-0.40494 0.33132,-0.73626 0.73626,-0.73626 0.40495,0 0.73627,0.33132 0.73627,0.73626 0,0.40495 -0.33132,0.73627 -0.73627,0.73627 -0.40494,0 -0.73626,-0.33132 -0.73626,-0.73627 z m -305.05862,-0.49084 c -0.26997,-0.26996 -0.49085,-0.8332 -0.49085,-1.25165 0,-0.46134 0.34293,-0.41787 0.87125,0.11044 0.47918,0.47919 0.70006,1.04243 0.49084,1.25165 -0.20922,0.20922 -0.60128,0.15953 -0.87124,-0.11044 z m -14.66392,-2.20556 c 0.50618,-0.20425 1.33447,-0.20425 1.84065,0 0.50619,0.20425 0.092,0.37136 -0.92033,0.37136 -1.01236,0 -1.42651,-0.16711 -0.92032,-0.37136 z m -7.92824,-12.13416 c -0.007,-0.14457 -0.15556,-2.75644 -0.32932,-5.80417 -0.17375,-3.04773 -0.0849,-5.90989 0.19747,-6.36034 0.64218,-1.0245 5.55621,-2.41505 7.306,-2.06742 4.91761,0.97697 5.35573,1.18085 5.35573,2.49226 0,1.7384 1.39034,2.27353 5.90688,2.27353 3.19848,0 5.19164,0.92713 4.17619,1.94257 -0.20464,0.20464 -2.88238,0.61186 -5.95054,0.90493 -4.53268,0.43296 -5.96053,0.88735 -7.61649,2.42382 -1.12091,1.04003 -3.03197,2.23347 -4.24681,2.6521 -1.21483,0.41862 -2.78859,0.99613 -3.49725,1.28334 -0.70865,0.28722 -1.29449,0.40394 -1.30186,0.25938 z m 4.79911,-11.67493 c -0.25027,-0.40495 -0.60114,-0.73626 -0.77971,-0.73626 -0.17858,0 -0.32468,0.33131 -0.32468,0.73626 0,0.40494 0.35087,0.73626 0.77971,0.73626 0.42885,0 0.57495,-0.33132 0.32468,-0.73626 z m 178.96981,5.89011 c -2.80288,-0.20247 -5.21486,-0.72921 -5.35996,-1.17053 -0.18199,-0.55352 4.8084,-0.94987 16.08934,-1.27786 8.99424,-0.2615 16.4892,-0.33942 16.65547,-0.17315 0.16627,0.16627 -0.0364,0.90696 -0.45047,1.64599 -0.67403,1.20313 -1.85557,1.34368 -11.29551,1.34368 -5.7985,0 -12.836,-0.16566 -15.63887,-0.36813 z m -95.51197,-1.55492 c -0.57928,-0.36707 3.7215,-0.63604 10.27518,-0.6426 7.57916,-0.008 11.11729,0.2382 10.8008,0.7503 -0.57023,0.92265 -19.60346,0.8254 -21.07598,-0.1077 z m 23.66854,0.0824 c 0,-0.40494 0.66264,-0.73626 1.47253,-0.73626 0.80989,0 1.47253,0.33132 1.47253,0.73626 0,0.40495 -0.66264,0.73627 -1.47253,0.73627 -0.80989,0 -1.47253,-0.33132 -1.47253,-0.73627 z m 43.43957,0 c -0.8606,-0.55616 -0.65744,-0.7162 0.92033,-0.72499 1.11359,-0.006 2.02472,0.32005 2.02472,0.72499 0,0.93094 -1.50453,0.93094 -2.94505,0 z m 7.36263,0 c 0,-0.40494 0.31177,-0.73626 0.69281,-0.73626 0.38105,0 0.89758,0.33132 1.14785,0.73626 0.25027,0.40495 -0.0615,0.73627 -0.69281,0.73627 -0.63131,0 -1.14785,-0.33132 -1.14785,-0.73627 z m 51.53847,-4.4994 c 0,-0.84934 0.89888,-1.31739 3.09596,-1.61208 3.50262,-0.4698 4.3736,-0.17768 3.81448,1.27934 -0.22411,0.58404 -1.7648,1.12032 -3.64916,1.27019 -2.6264,0.20888 -3.26128,0.0264 -3.26128,-0.93745 z m -220.87913,-5.07203 c 0,-0.40494 0.66263,-0.73626 1.47252,-0.73626 0.80989,0 1.47253,0.33132 1.47253,0.73626 0,0.40495 -0.66264,0.73627 -1.47253,0.73627 -0.80989,0 -1.47252,-0.33132 -1.47252,-0.73627 z"
         id="path3053"
         inkscape:connector-curvature="0" />
      <path
         style="fill:#29321c"
         d="m 400.72803,571.52508 c 0.53352,-3.58374 2.41701,-10.332 2.50597,-8.97847 0.0953,1.44996 -2.01547,11.51415 -2.5189,12.01021 -0.28258,0.27845 -0.27676,-1.08583 0.013,-3.03174 z m -0.27272,-14.50045 c 0,-1.01236 0.16711,-1.42651 0.37136,-0.92033 0.20425,0.50618 0.20425,1.33448 0,1.84066 -0.20425,0.50618 -0.37136,0.092 -0.37136,-0.92033 z m -50.18219,-25.03297 c 0,-0.80989 0.33132,-1.47253 0.73627,-1.47253 0.40494,0 0.73626,0.66264 0.73626,1.47253 0,0.80989 -0.33132,1.47253 -0.73626,1.47253 -0.40495,0 -0.73627,-0.66264 -0.73627,-1.47253 z m -126.1887,-1.82108 c -1.67716,-2.55966 -1.56479,-5.54156 0.20882,-5.54156 1.58051,0 2.28757,1.3706 2.28757,4.43435 0,2.83803 -1.05556,3.3062 -2.49639,1.10721 z m 206.24148,0.63943 c -0.80827,-0.80828 -0.64406,-6.91725 0.18595,-6.91725 0.39723,0 0.89856,0.74547 1.11407,1.65659 0.46699,1.9743 -0.53435,6.02632 -1.30002,5.26066 z m -243.83685,-2.3156 c 0.79668,-2.80821 0.8282,-14.20768 0.0569,-20.57375 l -0.6417,-5.29627 2.36871,-2.16349 c 3.18081,-2.90521 4.89893,-2.34532 7.04993,2.29738 0.93848,2.02561 2.05952,3.90121 2.4912,4.168 0.48046,0.29695 -0.18419,1.54308 -1.71366,3.21286 -2.92394,3.1922 -3.70116,7.3569 -2.21398,11.8635 1.07784,3.26619 0.83439,4.09891 -1.19831,4.09891 -0.82219,0 -1.88642,0.92098 -2.55238,2.20879 -0.71661,1.38577 -1.71583,2.20879 -2.68166,2.20879 -1.32781,0 -1.46048,-0.27835 -0.96504,-2.02472 z m 209.68345,0.78293 c -0.26117,-0.73432 -0.9799,-1.92277 -1.59719,-2.64099 -0.89574,-1.04221 -0.93692,-1.48815 -0.20396,-2.20879 0.72751,-0.71527 1.21357,-0.54167 2.33865,0.83523 1.5424,1.88763 1.8581,4.16258 0.6788,4.89143 -0.4078,0.25203 -0.95514,-0.14256 -1.2163,-0.87688 z m 213.85598,-0.77368 c -3.47272,-0.21896 -4.27877,-0.52781 -4.68043,-1.79336 -0.29962,-0.94401 -0.10304,-1.77102 0.51388,-2.16192 1.49082,-0.94463 5.35956,-0.78511 6.4197,0.26471 0.74437,0.73714 1.07407,0.66386 1.65636,-0.36813 0.90883,-1.61074 3.71866,-1.65009 6.98966,-0.0979 2.05022,0.97289 2.71567,1.01898 3.63973,0.25208 0.89215,-0.74041 1.31845,-0.74814 2.01992,-0.0366 1.36575,1.38534 -1.29859,2.96215 -4.91811,2.91064 -1.66536,-0.0237 -3.96062,0.32063 -5.10058,0.76517 -1.13996,0.44454 -2.13391,0.74561 -2.20879,0.66904 -0.0749,-0.0766 -2.02398,-0.25825 -4.33134,-0.40373 z m -14.02732,-0.73929 c -5.32154,-0.2758 -6.97007,-1.66282 -1.97633,-1.66282 1.64641,0 3.65654,-0.35487 4.46696,-0.78859 1.1245,-0.60182 1.89775,-0.51061 3.26478,0.3851 2.08893,1.36872 2.35514,2.67539 0.50283,2.46808 -0.70866,-0.0793 -3.52487,-0.26011 -6.25824,-0.40177 z m -11.39676,-0.63512 c 0.24466,-0.24465 0.87969,-0.27081 1.41118,-0.0581 0.58734,0.23504 0.41288,0.4095 -0.44483,0.44483 -0.77614,0.032 -1.211,-0.14205 -0.96635,-0.3867 z m 75.35206,-11.86451 c -0.26252,-0.26253 -1.70668,-0.57414 -3.20926,-0.69247 -1.79831,-0.14162 -3.17238,-0.7874 -4.0207,-1.88964 -0.70881,-0.92097 -1.29612,-1.27199 -1.30512,-0.78006 -0.0258,1.40975 -2.95712,2.71757 -3.92399,1.75071 -0.44246,-0.44246 -1.49387,-0.80448 -2.33646,-0.80448 -1.91656,0 -3.88951,-4.34555 -2.3982,-5.28221 1.03277,-0.64867 17.00501,-0.25052 18.14209,0.45224 0.40708,0.25159 1.55647,0.25256 2.55418,0.002 2.36278,-0.59302 3.73235,1.76122 3.07207,5.2808 -0.41485,2.21138 -0.63966,2.41605 -1.90806,1.73723 -0.96814,-0.51814 -1.88716,-0.52899 -2.81351,-0.0332 -0.75664,0.40494 -1.59051,0.52147 -1.85304,0.25895 z m 2.93733,-4.42532 c -0.24465,-0.24466 -0.41867,0.1902 -0.3867,0.96634 0.0353,0.85771 0.20979,1.03217 0.44482,0.44483 0.21268,-0.53149 0.18653,-1.16652 -0.0581,-1.41117 z m -50.8789,1.56176 c -0.97788,-0.75511 -2.40875,-1.01692 -4.25962,-0.77941 -1.53291,0.19671 -3.95757,0.0345 -5.38814,-0.36053 -1.86281,-0.51434 -2.90004,-0.47002 -3.65454,0.15616 -0.81366,0.67528 -1.53995,0.67285 -3.19007,-0.0106 -1.17512,-0.48675 -4.90275,-0.84372 -8.28364,-0.79327 -6.12847,0.0915 -9.65188,-0.0764 -21.33314,-1.01654 -3.39107,-0.27291 -12.29497,-0.51607 -19.78646,-0.54035 -7.49148,-0.0243 -16.90851,-0.49039 -20.92672,-1.03581 -4.01822,-0.54541 -7.52772,-0.85454 -7.79889,-0.68695 -1.8314,1.13187 -39.85586,-0.21722 -41.05691,-1.45668 -0.59041,-0.60931 119.1284,0.0858 140.27978,0.81447 7.39025,0.2546 13.43681,0.74166 13.43681,1.08235 0,0.34069 0.95381,1.11267 2.11958,1.71551 1.16576,0.60284 2.32912,1.64216 2.58524,2.3096 0.3905,1.01763 0.13747,1.12409 -1.56737,0.65944 -1.11818,-0.30474 -3.53118,-0.60662 -5.36223,-0.67084 -1.83105,-0.0642 -3.67521,-0.33061 -4.09814,-0.59199 -0.76559,-0.47316 -5.70965,0.92378 -6.67066,1.88479 -0.86481,0.86481 -3.50573,0.5092 -5.04488,-0.6793 z m -182.40394,-0.76103 c -0.94591,-1.64143 -1.12082,-6.0365 -0.33062,-8.30748 1.0384,-2.98429 2.40269,-3.68138 3.07279,-1.57006 0.26696,0.8411 1.35583,1.70263 2.45534,1.94268 4.19118,0.91505 4.26795,1.09568 1.23939,2.91595 -1.61978,0.97355 -3.64878,2.64327 -4.50887,3.7105 -0.8601,1.06722 -1.72772,1.65601 -1.92803,1.30841 z m -222.173,-5.09799 c 0,-2.65877 0.35016,-5.48841 0.77814,-6.28809 0.76233,-1.42442 0.80593,-1.4197 2.14542,0.23247 1.59514,1.96751 2.96791,1.19598 1.64398,-0.92397 -0.813,-1.30182 -0.70503,-1.43073 1.13226,-1.35193 3.67273,0.15753 6.45404,1.07415 6.23865,2.05605 -0.40022,1.82456 1.48327,3.01043 4.9017,3.08617 3.02713,0.0671 2.76719,0.18304 -2.33074,1.03994 -5.06197,0.85084 -6.12242,1.31894 -9.00278,3.97396 -4.7038,4.33581 -5.50663,4.06979 -5.50663,-1.8246 z m 261.74177,-1.05599 c 0.25027,-0.40495 1.34661,-0.73119 2.43631,-0.72499 1.54966,0.009 1.74068,0.16675 0.87688,0.72499 -1.45476,0.94013 -3.89423,0.94013 -3.31319,0 z m 205.44904,0.0509 c -0.44278,-0.71642 0.78448,-1.75051 2.36141,-1.98975 1.16478,-0.1767 1.1817,0.64673 0.0368,1.79162 -1.06028,1.06028 -1.82628,1.12357 -2.39822,0.19813 z m -487.8062,-7.41351 c 0,-0.40495 0.33132,-0.73627 0.73627,-0.73627 0.40494,0 0.73626,0.33132 0.73626,0.73627 0,0.40494 -0.33132,0.73626 -0.73626,0.73626 -0.40495,0 -0.73627,-0.33132 -0.73627,-0.73626 z"
         id="path3051"
         inkscape:connector-curvature="0" />
    </g>
  </g>
</svg>
