<?xml version="1.0" encoding="UTF-8" standalone="no"?>
<svg
   id="svg4745"
   viewBox="0 0 512.00001 511.99999"
   version="1.1"
   inkscape:version="1.3.2 (091e20e, 2023-11-25, custom)"
   width="512"
   height="512"
   sodipodi:docname="equip_shield.svg"
   xmlns:inkscape="http://www.inkscape.org/namespaces/inkscape"
   xmlns:sodipodi="http://sodipodi.sourceforge.net/DTD/sodipodi-0.dtd"
   xmlns:xlink="http://www.w3.org/1999/xlink"
   xmlns="http://www.w3.org/2000/svg"
   xmlns:svg="http://www.w3.org/2000/svg"
   xmlns:rdf="http://www.w3.org/1999/02/22-rdf-syntax-ns#"
   xmlns:cc="http://creativecommons.org/ns#"
   xmlns:dc="http://purl.org/dc/elements/1.1/">
  <sodipodi:namedview
     pagecolor="#ffffff"
     bordercolor="#666666"
     borderopacity="1"
     objecttolerance="10"
     gridtolerance="10"
     guidetolerance="10"
     inkscape:pageopacity="0"
     inkscape:pageshadow="2"
     inkscape:window-width="2304"
     inkscape:window-height="1262"
     id="namedview6576"
     showgrid="false"
     fit-margin-right="150"
     fit-margin-top="150"
     fit-margin-left="0"
     fit-margin-bottom="0"
     inkscape:zoom="1.9824219"
     inkscape:cx="255.74778"
     inkscape:cy="280.71724"
     inkscape:window-x="5750"
     inkscape:window-y="1607"
     inkscape:window-maximized="1"
     inkscape:current-layer="svg4745"
     inkscape:showpageshadow="2"
     inkscape:pagecheckerboard="0"
     inkscape:deskcolor="#d1d1d1" />
  <defs
     id="defs4747">
    <linearGradient
       id="linearGradient4705"
       x1="206.85001"
       gradientUnits="userSpaceOnUse"
       x2="643.67999"
       gradientTransform="matrix(0.53049555,0,0,0.53049555,-119.49649,69.532386)"
       y1="528.84003"
       y2="531.27002">
      <stop
         id="stop3169-6"
         stop-color="#fffdd2"
         stop-opacity=".75439"
         offset="0" />
      <stop
         id="stop3171-8"
         stop-color="#ffdd71"
         stop-opacity=".82456"
         offset=".11353" />
      <stop
         id="stop3173-8"
         stop-color="#ffef6e"
         stop-opacity=".83333"
         offset=".54393" />
      <stop
         id="stop3175-2"
         stop-color="#ffc255"
         stop-opacity=".82456"
         offset=".81916" />
      <stop
         id="stop3177-0"
         stop-color="#ffdb48"
         stop-opacity=".81579"
         offset="1" />
    </linearGradient>
    <linearGradient
       id="linearGradient4431-7"
       x1="676.19"
       xlink:href="#linearGradient3182-5-4"
       gradientUnits="userSpaceOnUse"
       x2="220.55"
       y1="475.34"
       y2="475.34" />
    <linearGradient
       id="linearGradient3182-5-4">
      <stop
         id="stop3184-6-1"
         stop-color="#a6a6a6"
         offset="0" />
      <stop
         id="stop3192-2-4"
         stop-color="#f4f4f4"
         offset=".5" />
      <stop
         id="stop3194-0-6"
         stop-color="#dbdbdb"
         offset=".78274" />
      <stop
         id="stop3186-3-0"
         stop-color="#b5b5b5"
         offset="1" />
    </linearGradient>
    <linearGradient
       id="linearGradient4760"
       x1="252.63"
       xlink:href="#linearGradient3182-5-4"
       gradientUnits="userSpaceOnUse"
       x2="641.67999"
       y1="531.27002"
       y2="531.27002" />
    <linearGradient
       id="linearGradient4823"
       y2="475.34"
       gradientUnits="userSpaceOnUse"
       y1="475.34"
       x2="220.55"
       x1="676.19">
      <stop
         id="stop13332"
         stop-color="#acacac"
         offset="0" />
      <stop
         id="stop13334"
         stop-color="#b3b3b3"
         stop-opacity="0"
         offset="1" />
    </linearGradient>
    <radialGradient
       id="radialGradient4893"
       gradientUnits="userSpaceOnUse"
       cy="28.438999"
       cx="502.87"
       gradientTransform="matrix(0.53049555,0,0,0.72455082,-58.738831,142.39595)"
       r="194.03">
      <stop
         id="stop4889"
         stop-color="#fff"
         offset="0" />
      <stop
         id="stop4891"
         stop-color="#fff"
         stop-opacity="0"
         offset="1" />
    </radialGradient>
    <radialGradient
       id="radialGradient5039"
       gradientUnits="userSpaceOnUse"
       cy="147.12"
       cx="221.06"
       r="2.6973">
      <stop
         id="stop5066"
         stop-color="#fffdd2"
         offset="0" />
      <stop
         id="stop5068"
         stop-color="#ffdd71"
         offset=".38586" />
      <stop
         id="stop5070"
         stop-color="#ffef6e"
         offset=".605" />
      <stop
         id="stop5072"
         stop-color="#ffdb48"
         offset=".83672" />
      <stop
         id="stop5074"
         stop-color="#482e00"
         offset="1" />
    </radialGradient>
    <radialGradient
       id="radialGradient7264"
       gradientUnits="userSpaceOnUse"
       cy="405.23999"
       cx="344.92001"
       gradientTransform="matrix(0.65160768,-0.01915407,0.0246447,0.83823602,-116.76656,9.9471233)"
       r="115.75">
      <stop
         id="stop5893"
         stop-color="#fffdd2"
         offset="0" />
      <stop
         id="stop5895"
         stop-color="#ffdd71"
         offset=".47355" />
      <stop
         id="stop5897"
         stop-color="#ffef6e"
         offset=".6952" />
      <stop
         id="stop5899"
         stop-color="#ffdb48"
         offset=".84685" />
      <stop
         id="stop5901"
         stop-color="#482e00"
         offset="1" />
    </radialGradient>
    <radialGradient
       inkscape:collect="always"
       xlink:href="#radialGradient5039"
       id="radialGradient6578"
       gradientUnits="userSpaceOnUse"
       cx="221.06"
       cy="147.12"
       r="2.6973" />
    <radialGradient
       inkscape:collect="always"
       xlink:href="#radialGradient5039"
       id="radialGradient6580"
       gradientUnits="userSpaceOnUse"
       cx="221.06"
       cy="147.12"
       r="2.6973" />
    <radialGradient
       inkscape:collect="always"
       xlink:href="#radialGradient5039"
       id="radialGradient6582"
       gradientUnits="userSpaceOnUse"
       cx="221.06"
       cy="147.12"
       r="2.6973" />
    <radialGradient
       inkscape:collect="always"
       xlink:href="#radialGradient5039"
       id="radialGradient6584"
       gradientUnits="userSpaceOnUse"
       cx="221.06"
       cy="147.12"
       r="2.6973" />
    <radialGradient
       inkscape:collect="always"
       xlink:href="#radialGradient5039"
       id="radialGradient6586"
       gradientUnits="userSpaceOnUse"
       cx="221.06"
       cy="147.12"
       r="2.6973" />
    <radialGradient
       inkscape:collect="always"
       xlink:href="#radialGradient5039"
       id="radialGradient6588"
       gradientUnits="userSpaceOnUse"
       cx="221.06"
       cy="147.12"
       r="2.6973" />
    <radialGradient
       inkscape:collect="always"
       xlink:href="#radialGradient5039"
       id="radialGradient6590"
       gradientUnits="userSpaceOnUse"
       cx="221.06"
       cy="147.12"
       r="2.6973" />
    <radialGradient
       inkscape:collect="always"
       xlink:href="#radialGradient5039"
       id="radialGradient6592"
       gradientUnits="userSpaceOnUse"
       cx="221.06"
       cy="147.12"
       r="2.6973" />
    <radialGradient
       inkscape:collect="always"
       xlink:href="#radialGradient5039"
       id="radialGradient6594"
       gradientUnits="userSpaceOnUse"
       cx="221.06"
       cy="147.12"
       r="2.6973" />
    <linearGradient
       inkscape:collect="always"
       xlink:href="#linearGradient4705"
       id="linearGradient8"
       x1="44.832321"
       y1="331.76379"
       x2="205.47665"
       y2="331.76379"
       gradientUnits="userSpaceOnUse" />
    <linearGradient
       inkscape:collect="always"
       xlink:href="#linearGradient4705"
       id="linearGradient9"
       gradientUnits="userSpaceOnUse"
       gradientTransform="matrix(0.53049555,0,0,0.53049555,-119.49649,69.532386)"
       x1="206.85001"
       y1="528.84003"
       x2="643.67999"
       y2="531.27002" />
  </defs>
  <metadata
     id="metadata6574">
    <rdf:RDF>
      <cc:Work>
        <dc:format>image/svg+xml</dc:format>
        <dc:type
           rdf:resource="http://purl.org/dc/dcmitype/StillImage" />
        <cc:license
           rdf:resource="http://creativecommons.org/publicdomain/zero/1.0/" />
        <dc:publisher>
          <cc:Agent
             rdf:about="http://openclipart.org/">
            <dc:title>Openclipart</dc:title>
          </cc:Agent>
        </dc:publisher>
        <dc:title>Classic Medieval Shield</dc:title>
        <dc:date>2012-03-31T14:56:30</dc:date>
        <dc:description>Classic Medieval Shield</dc:description>
        <dc:source>http://openclipart.org/detail/169239/classic-medieval-shield-by-gribba</dc:source>
        <dc:creator>
          <cc:Agent>
            <dc:title>Gribba</dc:title>
          </cc:Agent>
        </dc:creator>
        <dc:subject>
          <rdf:Bag>
            <rdf:li>Classic Medieval Shield</rdf:li>
            <rdf:li>Medieval Shield</rdf:li>
            <rdf:li>Shield</rdf:li>
            <rdf:li>clip art</rdf:li>
            <rdf:li>clipart</rdf:li>
          </rdf:Bag>
        </dc:subject>
      </cc:Work>
      <cc:License
         rdf:about="http://creativecommons.org/publicdomain/zero/1.0/">
        <cc:permits
           rdf:resource="http://creativecommons.org/ns#Reproduction" />
        <cc:permits
           rdf:resource="http://creativecommons.org/ns#Distribution" />
        <cc:permits
           rdf:resource="http://creativecommons.org/ns#DerivativeWorks" />
      </cc:License>
    </rdf:RDF>
  </metadata>
  <g
     id="g8"
     transform="matrix(0.893077,0,0,0.86336911,88.767709,-66.253533)">
    <g
       id="g4683"
       transform="matrix(0.53049555,0,0,0.53049555,-119.49967,69.532383)">
      <path
         id="path4411"
         d="m 233.58,297.27 c -13.106,169 -32.955,373.05 213.57,535 246.53,-161.95 226.68,-366 213.57,-535 -81.788,-1 -149.54,-11 -213.57,-67 -64.035,56 -131.79,66 -213.57,67 z"
         inkscape:connector-curvature="0"
         style="fill:url(#linearGradient4431-7);stroke:url(#linearGradient4823);stroke-width:3" />
      <path
         id="path4415"
         d="M 259.14,325.26 C 247.6,474.05 230.13,653.69 447.15,796.27 664.18,653.69 646.7,474.05 635.17,325.26 c -72,-0.88 -131.65,-9.68 -188.02,-58.99 -56.37,49.31 -116.01,58.11 -188.01,58.99 z"
         inkscape:connector-curvature="0"
         style="fill:url(#linearGradient4760)" />
    </g>
    <path
       id="path4415-1"
       d="M 17.97613,242.0819 C 11.854212,321.01433 2.5864546,416.31255 117.7146,491.95061 232.84805,416.31255 223.57499,321.01433 217.45837,242.0819 179.26269,241.61506 147.61863,236.94458 117.7146,210.79009 87.810565,236.94458 56.17181,241.61506 17.97613,242.08243 Z"
       inkscape:connector-curvature="0"
       style="fill:url(#radialGradient4893);stroke-width:0.530496" />
    <path
       id="path4413-3"
       d="M 17.97613,242.0819 C 11.854212,321.01433 2.5864546,416.31255 117.7146,491.95061 232.84805,416.31255 223.57499,321.01433 217.45837,242.0819 179.26269,241.61506 147.61863,236.94458 117.7146,210.79009 87.810565,236.94458 56.17181,241.61506 17.97613,242.08243 Z"
       inkscape:connector-curvature="0"
       style="fill:none;stroke:#797979;stroke-width:3.18297" />
    <path
       id="path4413"
       d="M 17.97613,242.0819 C 11.854212,321.01433 2.5864546,416.31255 117.7146,491.95061 232.84805,416.31255 223.57499,321.01433 217.45837,242.0819 179.26269,241.61506 147.61863,236.94458 117.7146,210.79009 87.810565,236.94458 56.17181,241.61506 17.97613,242.08243 Z"
       inkscape:connector-curvature="0"
       style="fill:none;stroke:url(#linearGradient9);stroke-width:2.65248" />
    <g
       id="g5308"
       transform="matrix(0.53049555,0,0,0.53049555,-58.738831,198.36323)"
       style="fill:url(#radialGradient6594)">
      <path
         id="path4217-59-6"
         transform="matrix(2.5,0,0,2.5,-220.03,-359.26)"
         d="m 223.76,147.12 a 2.6973,2.6973 0 1 1 -5.3946,0 2.6973,2.6973 0 1 1 5.3946,0 z"
         inkscape:connector-curvature="0"
         style="fill:url(#radialGradient6578)" />
      <path
         id="path4217-59-6-5"
         transform="matrix(2.5,0,0,2.5,-18.454,-297.36)"
         d="m 223.76,147.12 a 2.6973,2.6973 0 1 1 -5.3946,0 2.6973,2.6973 0 1 1 5.3946,0 z"
         inkscape:connector-curvature="0"
         style="fill:url(#radialGradient6580)" />
      <path
         id="path4217-59-6-1"
         transform="matrix(2.5,0,0,2.5,-420.45,-297.36)"
         d="m 223.76,147.12 a 2.6973,2.6973 0 1 1 -5.3946,0 2.6973,2.6973 0 1 1 5.3946,0 z"
         inkscape:connector-curvature="0"
         style="fill:url(#radialGradient6582)" />
      <path
         id="path4217-59-6-1-2"
         transform="matrix(2.5,0,0,2.5,-427.82,-154.15)"
         d="m 223.76,147.12 a 2.6973,2.6973 0 1 1 -5.3946,0 2.6973,2.6973 0 1 1 5.3946,0 z"
         inkscape:connector-curvature="0"
         style="fill:url(#radialGradient6584)" />
      <path
         id="path4217-59-6-1-4"
         transform="matrix(2.5,0,0,2.5,-390.43,18.045)"
         d="m 223.76,147.12 a 2.6973,2.6973 0 1 1 -5.3946,0 2.6973,2.6973 0 1 1 5.3946,0 z"
         inkscape:connector-curvature="0"
         style="fill:url(#radialGradient6586)" />
      <path
         id="path4217-59-6-1-9"
         transform="matrix(2.5,0,0,2.5,-220.03,203.97)"
         d="m 223.76,147.12 a 2.6973,2.6973 0 1 1 -5.3946,0 2.6973,2.6973 0 1 1 5.3946,0 z"
         inkscape:connector-curvature="0"
         style="fill:url(#radialGradient6588)" />
      <path
         id="path4217-59-6-1-0"
         transform="matrix(2.5,0,0,2.5,-49.086,18.045)"
         d="m 223.76,147.12 a 2.6973,2.6973 0 1 1 -5.3946,0 2.6973,2.6973 0 1 1 5.3946,0 z"
         inkscape:connector-curvature="0"
         style="fill:url(#radialGradient6590)" />
      <path
         id="path4217-59-6-1-92"
         transform="matrix(2.5,0,0,2.5,-11.243,-153.69)"
         d="m 223.76,147.12 a 2.6973,2.6973 0 1 1 -5.3946,0 2.6973,2.6973 0 1 1 5.3946,0 z"
         inkscape:connector-curvature="0"
         style="fill:url(#radialGradient6592)" />
    </g>
    <path
       id="path1"
       style="fill:url(#linearGradient8);fill-opacity:1;stroke:none;stroke-width:1.3028"
       d="m 74.773434,259.24736 c -1.35491,-0.13028 -3.830461,3.5437 -4.468833,6.98308 -0.140898,0.7585 -0.201983,1.45097 -0.234208,2.10849 -1.012183,-0.0525 -2.019877,-0.0894 -2.996661,-0.0894 -1.357738,0 -2.89399,0.25233 -4.444498,0.7373 -1.434262,-2.69931 -3.838633,-6.56788 -5.625884,-6.05233 -1.808826,0.52178 -1.376521,6.15847 -0.889387,9.85625 -1.482688,1.45897 -2.63038,3.25996 -3.136576,5.41236 -1.550328,6.59215 -2.461932,9.70586 -3.62142,10.21395 -1.159489,0.50809 -4.403288,3.5e-4 -4.52054,2.33235 -0.117252,2.33201 3.100365,2.97009 7.503816,2.70953 0.53805,-0.0318 1.103827,-0.1073 1.685697,-0.219 -0.04194,0.0107 -0.265842,0.0754 -0.265842,0.0754 0,0 0.273827,5.34175 -0.32546,6.72272 -1.289768,2.93129 -7.03537,7.71249 -7.569516,15.45111 -0.57323,8.41606 4.859412,12.29824 7.960067,13.26231 0.894044,0.28336 1.746286,0.20975 2.461933,0.007 0.371089,0.16494 2.220716,-0.49005 2.645041,-0.82733 0.06681,-0.0527 0.139612,-0.10409 0.212919,-0.15574 0.645171,-0.0492 1.628986,-0.29153 2.90115,-1.14671 3.165795,-2.13658 2.83971,-6.85289 2.83971,-6.85289 l 4.97679,-5.69341 c 0,0 3.751955,0.15634 7.243448,-1.00315 0.825324,-0.27408 1.666047,-0.66691 2.482619,-1.17835 l 1.648589,3.17187 c 0.385257,1.33526 0.867085,3.00685 1.119337,4.50776 0.260558,1.55033 0.39116,3.8824 0.39116,3.8824 0,0 -5.107055,2.96989 -5.823596,7.76418 -0.394894,2.67135 -0.253512,6.35262 0.351619,9.69321 -2.25301,1.27675 -5.157241,2.80872 -7.074334,3.37383 -3.49149,1.02921 -8.142251,-0.39062 -11.386211,2.84032 -3.230935,3.23093 -1.420365,6.21408 -2.710133,9.44501 -1.289768,3.23094 -6.318657,8.11651 -5.823594,12.93686 0.522365,5.07739 4.121399,8.00862 5.542543,8.9845 0.665525,0.87476 2.767653,3.44338 5.284,4.48648 3.061571,1.26371 4.220923,-4.11644 3.830081,-8.63715 -0.195418,-2.27989 -0.677374,-3.68695 -1.602355,-4.41651 -0.535298,-0.42326 -1.695353,-0.39455 -1.800065,-0.39116 0.0017,-0.0956 0.0051,-0.19118 0.0024,-0.28653 -0.130281,-4.66401 -0.13066,-6.85274 0.520737,-9.05446 0.651397,-2.20172 3.230898,-6.08434 5.172067,-6.72271 1.941163,-0.6514 8.924309,-0.39046 12.024963,-0.52074 1.345195,-0.0565 3.179166,-0.18776 4.851474,-0.31694 0.61479,0.46642 1.252449,0.86338 1.899831,1.21424 0.511066,0.40428 1.257264,0.88311 2.407181,1.42167 1.97408,0.92457 3.93574,1.1471 4.09714,1.16436 0.41425,0.15397 0.80733,0.30472 1.255,0.45868 -0.0929,0.14737 -0.18198,0.27097 -0.25794,0.33094 -0.48203,0.39084 -3.68678,3.97391 -5.1459,5.43304 -1.459139,1.45913 -3.296001,3.46531 -4.077679,4.14276 -0.781678,0.67746 -4.051759,2.46248 -3.882395,5.84976 0.260558,5.21118 2.839785,5.71902 3.399984,8.44187 0.45598,2.25383 0.912367,5.40678 2.423608,7.85604 1.704722,2.7479 4.096312,4.22432 7.822592,4.29241 -2.9e-4,3e-4 -0.006,0.007 -0.006,0.007 0,0 2.63152,0.79474 6.618077,0.62537 2.70982,-0.11725 4.3516,-0.72968 4.78152,-1.49833 0.44295,-0.78167 -0.44316,-4.89881 -2.52764,-8.19488 -2.08447,-3.29608 -3.830417,-3.60841 -4.846597,-3.93411 -1.15991,-0.35611 -2.624,0.50383 -3.21566,0.90095 -0.96094,0.50924 -1.27804,1.46664 -2.0215,1.01409 -1.05526,-0.63836 -1.39361,-2.9703 -1.68022,-4.23401 -0.28662,-1.26371 -1.06847,-2.7748 -0.58644,-3.36105 0.48204,-0.58626 5.41972,-3.17898 7.98623,-4.9117 3.555227,-2.40248 10.627507,-7.86798 13.388847,-10.00894 2.90995,0.0268 6.13276,-0.21969 9.66401,-1.14185 1.23322,-0.21468 4.49598,-0.79187 5.89538,-1.22579 1.6806,-0.52112 4.07767,-1.0944 4.07767,-1.0944 0,0 0.82062,1.08148 1.35477,3.75221 0.65139,3.23094 0.52092,5.30197 0.26036,5.69281 -0.71653,1.06829 -5.69283,3.10119 -7.634,3.23147 -1.94116,0.13028 -6.85264,-0.69096 -9.18464,2.96989 -1.81089,2.8401 -0.85994,4.10407 -1.02931,4.78152 -0.2118,0.83663 -1.66351,1.38063 -1.77938,2.59759 -5.1e-4,-1.5e-4 -0.0189,-0.005 -0.0189,-0.005 0,0 -0.62522,1.889 -0.82064,4.70303 -0.19542,2.70983 -0.3387,4.98928 0.78171,5.38012 1.1204,0.39084 4.22147,-0.24712 7.37424,-2.37068 1.64152,-1.10737 3.1523,-3.49187 3.43892,-4.11721 0.28662,-0.62534 0.28653,-2.70953 0.28653,-2.70953 0,0 -0.0736,0.003 -0.0839,0.004 0.22844,-0.77142 0.57103,-1.74077 0.9052,-1.7885 1.3549,-0.19542 3.62183,-0.78184 5.04188,-2.59273 0.89219,-1.13774 5.56223,-1.86947 9.19986,-2.83119 -0.85368,2.45922 -0.60652,4.65 -1.12299,5.38498 -0.67746,0.96407 -3.26989,3.13946 -5.45859,5.34119 -1.48519,1.48519 -6.46177,1.26406 -8.40294,3.49184 -1.94117,2.22778 -1.65467,4.65072 -1.65467,4.65072 0,0 -2.53856,0.67271 -4.03205,2.32263 -0.73529,0.44065 -1.89987,2.57137 -2.83362,4.03509 -0.96407,1.49821 -2.12365,3.66069 -2.03245,4.36419 0.14331,1.1595 1.74581,1.88944 6.35771,1.79824 4.6119,-0.0912 7.465,-1.5505 7.80373,-1.74592 0.1779,-0.10264 0.4058,-0.38819 0.58582,-0.63997 0.0221,-0.0124 0.0517,-0.0229 0.0657,-0.0377 1.42005,-1.55033 0.39055,-4.846 0.39055,-4.846 0,0 2.13651,-2.7e-4 4.07768,-2.61889 1.94116,-2.61862 4.56002,-4.27317 6.7878,-6.11012 2.22778,-1.83694 10.53958,-7.86899 12.12899,-10.77422 2.0975,-3.84325 1.35503,-7.46463 2.81416,-9.79664 1.45913,-2.332 4.29943,-4.82088 9.6409,-9.18525 4.27317,-3.49149 9.23645,-6.56597 12.74097,-15.20351 0.23885,-0.59277 0.42045,-1.16583 0.57366,-1.72889 0.51028,-1.59562 0.90825,-3.35994 1.15949,-5.31929 0.25276,-1.97115 0.31478,-3.86005 0.22752,-5.67212 0.63153,-0.47559 1.25401,-1.07979 1.83595,-1.87671 3.4915,-4.78126 2.08461,-10.33113 6.76165,-16.76694 2.94432,-4.03867 6.60506,-2.94429 10.40923,-1.84995 3.89535,1.10738 6.8528,1.22473 6.98308,-1.28967 0.0391,-0.75562 -0.95101,-5.49786 -5.17207,-9.83617 -4.65098,-4.78126 -10.93061,-8.14272 -20.29772,-4.46883 -8.57239,3.36121 -10.9695,14.5526 -10.9695,14.5526 l 0.1095,0.64301 c -1.6071,-1.34971 -3.27673,-2.46573 -4.92204,-3.30813 -6.33159,-3.24396 -13.34097,-3.5179 -17.56203,-2.33236 -2.29292,0.6514 -4.29909,2.46231 -6.3054,3.10069 -1.64152,0.53414 -8.7936,0.75584 -12.61079,0.52134 -3.7367,-0.22878 -3.67894,-1.45158 -5.88808,-3.35862 1.51004,-0.84069 2.57694,-2.28866 1.72403,-4.80889 -2.13659,-6.31856 -9.04273,-10.78779 -13.58596,-14.6037 -5.22805,-4.39111 -8.17921,-11.7602 -28.434196,-15.24427 -0.760925,-0.13089 -1.659163,-0.2699 -2.579949,-0.40637 0.01868,-0.90162 -0.01308,-1.90814 -0.195274,-3.09825 -0.390839,-2.52743 -2.592533,-6.78771 -4.012579,-6.91799 z m 75.338066,86.58193 c -0.60421,6.8244 -1.53552,12.24722 -1.9777,14.11155 -0.48203,2.03237 -1.35453,4.75507 -1.83656,5.14591 -0.20046,0.16254 -0.8472,0.63693 -1.6346,1.29758 -0.20489,-2.39942 -0.93194,-4.98413 -1.01045,-7.47279 -0.13027,-4.12986 -0.12981,-7.69942 0.19589,-8.40294 2.09374,-1.22861 4.48457,-3.1591 6.26342,-4.67931 z" />
  </g>
</svg>
