<?xml version="1.0" encoding="UTF-8" standalone="no"?>
<!-- Created with Inkscape (http://www.inkscape.org/) -->

<svg
   xmlns:dc="http://purl.org/dc/elements/1.1/"
   xmlns:cc="http://creativecommons.org/ns#"
   xmlns:rdf="http://www.w3.org/1999/02/22-rdf-syntax-ns#"
   xmlns:svg="http://www.w3.org/2000/svg"
   xmlns="http://www.w3.org/2000/svg"
   xmlns:sodipodi="http://sodipodi.sourceforge.net/DTD/sodipodi-0.dtd"
   xmlns:inkscape="http://www.inkscape.org/namespaces/inkscape"
   width="525"
   height="525"
   id="svg2"
   sodipodi:version="0.32"
   inkscape:version="0.48.4 r9939"
   version="1.0"
   sodipodi:docname="equip_binoculars.svg"
   inkscape:output_extension="org.inkscape.output.svg.inkscape">
  <defs
     id="defs4">
    <inkscape:perspective
       sodipodi:type="inkscape:persp3d"
       inkscape:vp_x="0 : 526.18109 : 1"
       inkscape:vp_y="0 : 1000 : 0"
       inkscape:vp_z="744.09448 : 526.18109 : 1"
       inkscape:persp3d-origin="372.04724 : 350.78739 : 1"
       id="perspective10" />
    <inkscape:perspective
       id="perspective2447"
       inkscape:persp3d-origin="372.04724 : 350.78739 : 1"
       inkscape:vp_z="744.09448 : 526.18109 : 1"
       inkscape:vp_y="0 : 1000 : 0"
       inkscape:vp_x="0 : 526.18109 : 1"
       sodipodi:type="inkscape:persp3d" />
  </defs>
  <sodipodi:namedview
     id="base"
     pagecolor="#ffffff"
     bordercolor="#666666"
     borderopacity="1.0"
     gridtolerance="10000"
     guidetolerance="10"
     objecttolerance="10"
     inkscape:pageopacity="0.0"
     inkscape:pageshadow="2"
     inkscape:zoom="0.44416667"
     inkscape:cx="547.47068"
     inkscape:cy="295.54239"
     inkscape:document-units="px"
     inkscape:current-layer="layer1"
     showgrid="false"
     inkscape:window-width="1920"
     inkscape:window-height="994"
     inkscape:window-x="0"
     inkscape:window-y="25"
     inkscape:window-maximized="1" />
  <metadata
     id="metadata7">
    <rdf:RDF>
      <cc:Work
         rdf:about="">
        <dc:format>image/svg+xml</dc:format>
        <dc:type
           rdf:resource="http://purl.org/dc/dcmitype/StillImage" />
        <dc:title></dc:title>
      </cc:Work>
    </rdf:RDF>
  </metadata>
  <g
     inkscape:label="Layer 1"
     inkscape:groupmode="layer"
     id="layer1"
     transform="translate(-169.70945,-261.08105)">
    <g
       id="g3973">
      <path
         sodipodi:nodetypes="csccccc"
         inkscape:connector-curvature="0"
         id="path3096-5-0"
         d="m 185.4011,277.20548 c -8.39307,0 -15.21875,14.1234 -15.21875,31.53125 0,17.40785 6.82568,31.5 15.21875,31.5 61.70079,-3.14582 -0.13504,-0.0238 61.90625,-3.40625 6.58735,0 11.90625,-11.05609 11.90625,-24.71875 -1.29605,-8.53617 -4.06494,-25.38959 -12.75,-24.6875 -61.02387,-9.89949 0.14419,0.28442 -61.0625,-10.21875 z"
         style="fill:#000000;fill-opacity:1;fill-rule:nonzero;stroke:#451d00;stroke-width:0.78485626;stroke-linecap:butt;stroke-linejoin:miter;stroke-miterlimit:4;stroke-opacity:1;stroke-dashoffset:0" />
      <path
         transform="matrix(0.86054788,0,0,0.86054788,163.58944,257.02188)"
         d="m 40.52533,60.084427 a 15.196999,31.519699 0 1 1 -30.393998,0 15.196999,31.519699 0 1 1 30.393998,0 z"
         sodipodi:ry="31.519699"
         sodipodi:rx="15.196999"
         sodipodi:cy="60.084427"
         sodipodi:cx="25.328331"
         id="path3096-7"
         style="fill:#465e5e;fill-opacity:1;fill-rule:nonzero;stroke:#341600;stroke-width:1;stroke-linecap:butt;stroke-linejoin:miter;stroke-miterlimit:4;stroke-opacity:1;stroke-dasharray:none;stroke-dashoffset:0"
         sodipodi:type="arc" />
      <path
         sodipodi:nodetypes="csccccc"
         inkscape:connector-curvature="0"
         id="path3096-5"
         d="m 205.4011,297.20548 c -8.39307,0 -15.21875,14.1234 -15.21875,31.53125 0,17.40785 6.82568,31.5 15.21875,31.5 61.7008,-3.14582 -0.13504,-0.0238 61.90625,-3.40625 6.58735,0 11.90625,-11.05609 11.90625,-24.71875 -1.29605,-8.53617 -4.06494,-25.38959 -12.75,-24.6875 -61.02387,-9.89949 0.14419,0.28442 -61.0625,-10.21875 z"
         style="fill:#000000;fill-opacity:1;fill-rule:nonzero;stroke:#451d00;stroke-width:0.78485626;stroke-linecap:butt;stroke-linejoin:miter;stroke-miterlimit:4;stroke-opacity:1;stroke-dashoffset:0" />
      <path
         transform="matrix(0.86054788,0,0,0.86054788,183.58944,277.02188)"
         d="m 40.52533,60.084427 a 15.196999,31.519699 0 1 1 -30.393998,0 15.196999,31.519699 0 1 1 30.393998,0 z"
         sodipodi:ry="31.519699"
         sodipodi:rx="15.196999"
         sodipodi:cy="60.084427"
         sodipodi:cx="25.328331"
         id="path3096"
         style="fill:#465e5e;fill-opacity:1;fill-rule:nonzero;stroke:#341600;stroke-width:1;stroke-linecap:butt;stroke-linejoin:miter;stroke-miterlimit:4;stroke-opacity:1;stroke-dasharray:none;stroke-dashoffset:0"
         sodipodi:type="arc" />
      <path
         sodipodi:nodetypes="cccccccccccc"
         inkscape:connector-curvature="0"
         id="path3959"
         d="m 279.55643,332.36525 13.92987,11.1439 35.02368,0.398 12.73588,-15.12386 -0.796,-10.74591 10.34791,13.13388 0,5.96995 -11.93989,15.52185 -14.32787,3.58197 -30.64571,-0.79599 -15.91986,-13.13388 z"
         style="fill:#000000;fill-opacity:1;stroke:none" />
    </g>
  </g>
</svg>
