<?xml version="1.0" encoding="UTF-8" standalone="no"?>
<!-- Created with Inkscape (http://www.inkscape.org/) -->

<svg
   xmlns:dc="http://purl.org/dc/elements/1.1/"
   xmlns:cc="http://creativecommons.org/ns#"
   xmlns:rdf="http://www.w3.org/1999/02/22-rdf-syntax-ns#"
   xmlns:svg="http://www.w3.org/2000/svg"
   xmlns="http://www.w3.org/2000/svg"
   xmlns:sodipodi="http://sodipodi.sourceforge.net/DTD/sodipodi-0.dtd"
   xmlns:inkscape="http://www.inkscape.org/namespaces/inkscape"
   width="525"
   height="525"
   id="svg2"
   sodipodi:version="0.32"
   inkscape:version="0.48.4 r9939"
   version="1.0"
   sodipodi:docname="equip_handgun.svg"
   inkscape:output_extension="org.inkscape.output.svg.inkscape">
  <defs
     id="defs4">
    <inkscape:perspective
       sodipodi:type="inkscape:persp3d"
       inkscape:vp_x="0 : 526.18109 : 1"
       inkscape:vp_y="0 : 1000 : 0"
       inkscape:vp_z="744.09448 : 526.18109 : 1"
       inkscape:persp3d-origin="372.04724 : 350.78739 : 1"
       id="perspective10" />
    <inkscape:perspective
       id="perspective2447"
       inkscape:persp3d-origin="372.04724 : 350.78739 : 1"
       inkscape:vp_z="744.09448 : 526.18109 : 1"
       inkscape:vp_y="0 : 1000 : 0"
       inkscape:vp_x="0 : 526.18109 : 1"
       sodipodi:type="inkscape:persp3d" />
  </defs>
  <sodipodi:namedview
     id="base"
     pagecolor="#ffffff"
     bordercolor="#666666"
     borderopacity="1.0"
     gridtolerance="10000"
     guidetolerance="10"
     objecttolerance="10"
     inkscape:pageopacity="0.0"
     inkscape:pageshadow="2"
     inkscape:zoom="0.88833333"
     inkscape:cx="141.19606"
     inkscape:cy="155.41034"
     inkscape:document-units="px"
     inkscape:current-layer="layer1"
     showgrid="false"
     inkscape:window-width="1278"
     inkscape:window-height="730"
     inkscape:window-x="0"
     inkscape:window-y="25"
     inkscape:window-maximized="0" />
  <metadata
     id="metadata7">
    <rdf:RDF>
      <cc:Work
         rdf:about="">
        <dc:format>image/svg+xml</dc:format>
        <dc:type
           rdf:resource="http://purl.org/dc/dcmitype/StillImage" />
        <dc:title></dc:title>
      </cc:Work>
    </rdf:RDF>
  </metadata>
  <g
     inkscape:label="Layer 1"
     inkscape:groupmode="layer"
     id="layer1"
     transform="translate(-169.70945,-261.08105)">
    <path
       style="fill:#020202"
       inkscape:connector-curvature="0"
       nodetypes="csssccccscccsssccssssssssssssccccscccsccssssssssssssscccsssssscccccsccccccccccsccccccscccccssccsssssssssc"
       d="m 386.66155,506.27711 c -0.3841,0.0105 -0.71558,0.0789 -0.82608,0.16311 -0.14206,0.11575 -0.46302,0.75767 -0.71032,1.43117 -0.2473,0.66823 -0.54195,1.32067 -0.65244,1.45747 0.0526,-0.0421 -125.85869,0.79451 -125.78502,0.7419 0.0595,5.97197 -0.35885,21.10448 2.26724,26.1504 l 0.30044,0.43672 7.18742,-0.0368 c 6.75596,-0.0316 7.19793,-0.0105 7.30843,0.32097 0.0631,0.19468 0.44198,0.64718 0.8366,1.01023 l 0.72085,0.66823 5.72993,0.19994 c 3.14647,0.1105 7.28213,0.26309 9.17632,0.32623 13.46457,0.47355 14.15911,0.5209 15.44821,1.07337 1.34172,0.58405 2.70975,1.74687 3.44638,2.93074 0.26308,0.43146 0.96288,2.22568 1.54693,3.9936 8.27657,11.97025 3.69368,8.01349 16.41635,14.84311 11.88607,0.91553 13.3488,0.92605 16.85306,0.18416 1.01024,-0.21573 2.74132,-0.6998 3.85153,-1.07864 2.42036,-0.82082 4.1304,-0.91553 5.90357,-0.32622 1.25754,0.41567 2.594,1.28384 2.4151,1.56797 -0.0631,0.1 0.0211,0.13154 0.18416,0.0737 0.32622,-0.12627 0.82082,0.54722 0.57878,0.77873 -0.0789,0.0789 -0.0105,0.11049 0.14733,0.0737 0.17889,-0.0421 0.5209,0.3157 0.86817,0.90501 0.5209,0.88395 3.26748,8.55018 5.5984,15.66393 0.51038,1.55219 1.9889,6.06142 3.29379,10.02344 1.29963,3.95677 2.43088,7.59257 2.50981,8.07664 0.0842,0.56299 0.0105,1.3996 -0.21047,2.34143 -0.18942,0.79977 -0.34727,1.85737 -0.35779,2.33618 l -0.0158,0.87869 c 7.00326,1.09969 0.53669,2.56243 16.18484,2.65713 12.57008,-5.57208 13.75396,2.55717 18.47892,2.71502 0.77346,0.0158 1.05233,-0.0789 1.55745,-0.53669 0.36305,-0.32622 0.66823,-0.84713 0.74715,-1.26806 l 0.1368,-0.72085 c 3.62002,-0.0263 8.66594,-0.9734 8.38181,-5.48264 -0.0684,-0.91552 -0.17363,-1.88893 -0.23151,-2.15727 -0.0579,-0.26835 -0.16837,-0.7682 -0.24204,-1.12073 -1.27331,-11.02842 -10.80216,-20.14686 -13.63293,-30.94377 -0.005,-0.20521 -0.14207,-0.47881 -0.31044,-0.61561 -0.16837,-0.13155 -0.30518,-0.34201 -0.30518,-0.47355 0,-0.3157 -1.21018,-2.59926 -1.44695,-2.73606 -0.10523,-0.0631 -0.19468,-0.3157 -0.19468,-0.56826 0,-0.2473 -0.1368,-0.50512 -0.30518,-0.563 -0.16837,-0.0631 -0.30517,-0.24729 -0.31043,-0.41567 0,-0.2736 -0.17364,-0.67875 -0.64719,-1.46274 -0.0947,-0.16311 -0.23151,-0.42619 -0.29465,-0.58404 -0.0631,-0.16311 -0.19994,-0.42093 -0.30517,-0.58404 -0.10524,-0.15785 -0.24204,-0.42093 -0.31044,-0.58405 -0.11576,-0.29465 -0.19994,-0.44197 -1.03655,-1.84683 -1.2207,-2.05731 -1.48904,-5.30901 -0.63666,-7.71885 1.14178,-3.22013 2.36775,-4.75127 5.24587,-6.54549 0.32622,-0.2052 1.96786,-0.82082 3.64632,-1.36803 l 3.06228,-0.98919 c 0.33675,-3.21487 -1.14177,-2.47824 -3.91993,-5.77203 -0.68401,-0.82608 -1.29962,-1.44169 -1.36276,-1.37329 -0.0684,0.0631 -0.0894,-0.0631 -0.0474,-0.28413 0.0421,-0.21573 -0.15259,-0.72085 -0.43672,-1.11547 -0.82081,-1.14704 -2.64661,-4.90386 -3.2517,-6.67177 -0.4525,-1.34172 -0.6577,-1.68899 -1.18913,-1.99417 -0.35253,-0.2052 -0.72611,-0.39462 -0.82608,-0.42619 -0.25782,-0.0842 0.23678,-2.00995 0.78925,-3.08333 1.87315,-1.9205 8.92902,-3.76208 2.63082,-4.13566 -0.34726,0.0105 -1.47326,0.0737 -2.49928,0.14733 l -1.85736,0.13154 -0.14733,-1.12599 c -0.29991,-2.4151 -0.65244,-3.08859 -2.00469,-3.83048 -0.68927,-0.37884 -1.19965,-0.48408 -2.67818,-0.53669 l -1.82579,-0.0631 -0.64718,-1.55219 -0.64192,-1.54692 -0.95236,-0.0526 c -0.13154,-0.005 -0.26835,-0.0158 -0.39463,-0.0105 z m -123.86978,-0.0105 -1.06864,0.16838 c -1.27805,0.18415 -2.19568,1.36802 -2.71817,3.5253 l 1.26385,2.12045 c 1.66426,0.53142 2.50139,0.46828 2.65135,-0.18942 0.0447,-0.19468 0.0331,-1.52062 -0.0253,-2.97284 l -0.10313,-2.65187 z m 61.06672,36.93679 c 2.2783,-0.0263 5.19851,-0.0105 7.77672,0.0631 l 4.28825,0.11576 0.72084,1.38381 c 1.27858,2.45193 1.55219,3.87784 1.126,5.90883 -0.62614,2.94127 -0.87344,4.36191 -3.81996,5.70363 0.31043,0.21047 -0.563,0.67349 0.18415,2.19411 1.58376,-0.79977 3.32011,-1.41012 3.94624,-1.87315 0.27361,-0.24729 0.73137,-0.73663 1.00498,-1.08916 1.72582,-1.57849 2.26777,-3.41481 3.26748,-5.39845 0.69454,-1.34172 1.63638,-2.36248 3.08333,-3.36746 0.55774,-0.38936 1.52062,-1.18913 2.14675,-1.77317 0.96289,-0.89975 1.19966,-1.03655 1.53114,-0.86291 2.66766,2.17832 4.22511,5.89831 4.57238,9.37099 0.005,2.04153 -1.40486,3.98307 -3.62528,4.96174 -1.52588,0.67349 -4.28824,1.43117 -6.16665,1.68899 -1.43117,0.19994 -5.68259,0.28413 -6.40869,0.12628 -0.16838,-0.0316 -2.81499,-0.23151 -5.88779,-0.43672 -3.06754,-0.21046 -6.17718,-0.46302 -6.90329,-0.57352 -3.13594,-0.46828 -6.04563,-2.53085 -7.39788,-5.24586 -1.02076,-2.05205 -1.65742,-4.4724 -1.53114,-5.84043 0.1789,-2.02048 1.67321,-3.98834 3.42007,-4.50398 0.41568,-0.12628 0.75768,-0.28413 0.75768,-0.36305 0,-0.1 1.63638,-0.16311 3.91467,-0.18942 z"
       id="path8" />
  </g>
</svg>
