<?xml version="1.0" encoding="UTF-8" standalone="no"?>
<!-- Created with Inkscape (http://www.inkscape.org/) -->

<svg
   xmlns:dc="http://purl.org/dc/elements/1.1/"
   xmlns:cc="http://creativecommons.org/ns#"
   xmlns:rdf="http://www.w3.org/1999/02/22-rdf-syntax-ns#"
   xmlns:svg="http://www.w3.org/2000/svg"
   xmlns="http://www.w3.org/2000/svg"
   xmlns:sodipodi="http://sodipodi.sourceforge.net/DTD/sodipodi-0.dtd"
   xmlns:inkscape="http://www.inkscape.org/namespaces/inkscape"
   width="525"
   height="525"
   id="svg2"
   sodipodi:version="0.32"
   inkscape:version="0.48.4 r9939"
   version="1.0"
   sodipodi:docname="equip_egg.svg"
   inkscape:output_extension="org.inkscape.output.svg.inkscape">
  <sodipodi:namedview
     id="base"
     pagecolor="#ffffff"
     bordercolor="#666666"
     borderopacity="1.0"
     gridtolerance="10000"
     guidetolerance="10"
     objecttolerance="10"
     inkscape:pageopacity="0.0"
     inkscape:pageshadow="2"
     inkscape:zoom="1.0152381"
     inkscape:cx="209.31051"
     inkscape:cy="262.5"
     inkscape:document-units="px"
     inkscape:current-layer="svg2"
     showgrid="false"
     inkscape:window-width="1855"
     inkscape:window-height="1056"
     inkscape:window-x="65"
     inkscape:window-y="24"
     inkscape:window-maximized="1" />
  <defs
     id="defs4">
    <inkscape:perspective
       id="perspective10"
       inkscape:persp3d-origin="372.04724 : 350.78739 : 1"
       inkscape:vp_z="744.09448 : 526.18109 : 1"
       inkscape:vp_y="0 : 1000 : 0"
       inkscape:vp_x="0 : 526.18109 : 1"
       sodipodi:type="inkscape:persp3d" />
    <inkscape:perspective
       sodipodi:type="inkscape:persp3d"
       inkscape:vp_x="0 : 526.18109 : 1"
       inkscape:vp_y="0 : 1000 : 0"
       inkscape:vp_z="744.09448 : 526.18109 : 1"
       inkscape:persp3d-origin="372.04724 : 350.78739 : 1"
       id="perspective2447" />
  </defs>
  <metadata
     id="metadata7">
    <rdf:RDF>
      <cc:Work
         rdf:about="">
        <dc:format>image/svg+xml</dc:format>
        <dc:type
           rdf:resource="http://purl.org/dc/dcmitype/StillImage" />
        <dc:title></dc:title>
      </cc:Work>
    </rdf:RDF>
  </metadata>
  <g
     transform="translate(-169.70945,-261.08105)"
     id="layer1"
     inkscape:groupmode="layer"
     inkscape:label="Layer 1">
    <path
       id="path2507"
       d="m 275.13709,673.26834 c -21.38171,-2.09882 -39.83622,-17.00759 -49.45695,-35.75403 -13.37868,-23.82821 -14.60753,-53.55516 -5.61727,-79.11106 8.49788,-22.82877 25.01176,-45.10451 49.29343,-52.24353 18.18536,-5.548 37.0844,3.81582 50.26333,16.02143 14.56799,13.18895 24.70937,31.14201 27.77265,50.61228 3.03694,16.53382 3.69278,34.18354 -1.74636,50.30144 -6.05842,15.62783 -15.01006,30.98663 -29.66473,39.97267 -11.89792,7.85246 -26.62368,11.87141 -40.8441,10.2008 z"
       style="fill:#a5a5a5"
       inkscape:connector-curvature="0" />
    <path
       id="path2505"
       d="m 272.57885,672.08213 c -18.21243,-2.68197 -32.97916,-15.55174 -43.19936,-30.21343 -13.79627,-20.61131 -16.78724,-46.87433 -12.21689,-70.85765 4.69514,-20.38881 15.63619,-39.69949 31.70012,-53.24301 12.85297,-11.02668 31.4563,-16.17987 47.62047,-9.77701 17.78605,6.94719 32.00333,21.40558 41.42488,37.74967 9.56408,18.60971 12.73512,40.19894 10.98199,60.93267 -1.15794,14.88548 -8.31003,28.47915 -16.38007,40.7267 -13.212,17.01167 -35.13946,27.81103 -56.85323,25.06677 -1.02971,-0.0948 -2.05779,-0.21407 -3.07791,-0.38472 z m -5.86437,-43.44587 c 4.43372,-1.95059 8.20999,-8.45781 10.50819,-11.91934 -6.66785,0.57697 0.94637,-7.30863 -0.0274,-11.10578 2.92511,-5.14583 -3.93929,-9.64645 -2.35573,-13.27712 -3.59198,-3.38145 -0.48193,-1.59958 0.82715,-1.74737 -1.89553,-2.80083 -3.36251,-2.87597 -1.51569,-5.19365 -2.7812,-5.4049 -5.97211,-12.44068 -11.89525,-12.82957 -3.94509,-0.64889 -11.71327,-0.80457 -13.26291,2.59115 -2.43726,3.07646 -9.46109,9.29402 -7.82162,13.90111 2.58583,3.15739 -2.78276,4.04589 0.4236,8.10299 0.43467,6.6707 -1.14406,12.00249 2.05604,17.3997 3.11597,5.69703 7.33626,10.32221 12.80799,13.97824 4.18762,-2.09939 6.22596,3.46706 10.25569,0.0996 z"
       style="fill:#909090"
       inkscape:connector-curvature="0" />
    <path
       id="path2503"
       d="m 272.57885,672.08213 c -11.1568,-1.80354 -21.7028,-7.102 -29.73099,-15.02977 0.67781,-4.91813 -1.84775,1.04496 -4.08379,-3.7927 -21.48867,-21.22447 -27.35394,-54.03326 -21.47506,-82.83768 4.92633,-20.61291 16.13392,-40.18031 32.72551,-53.56403 13.03638,-10.77601 31.7642,-15.20515 47.67411,-8.41361 17.58641,7.40144 31.72275,21.91522 40.84416,38.4719 9.2518,18.91708 12.34045,40.67917 10.15389,61.54521 -1.47504,14.22934 -8.468,27.16943 -16.17669,38.93862 -13.212,17.01167 -35.13946,27.81104 -56.85323,25.06678 -1.02971,-0.0948 -2.05779,-0.21408 -3.07791,-0.38472 z m -36.88729,-24.28706 c -2.26919,-2.5856 0.67067,3.2367 0,0 z m 27.45525,-3.58215 c 4.5066,-0.8111 13.98495,-1.00139 17.69406,-6.875 5.49788,-2.99373 7.12196,-8.88281 8.77696,-13.40699 1.496,3.19363 3.32202,-4.95323 2.34666,-5.9122 -1.40586,-1.69337 2.99339,-1.67108 0.11419,-4.99454 -1.34795,-3.13332 4.59144,-5.41982 0.17159,-8.62337 2.83942,-3.10877 1.82778,-12.54763 -1.53578,-17.15366 -3.03743,-3.40619 4.47866,-4.21862 -1.00232,-6.15924 0.24227,-2.82066 -5.14876,-5.11164 -0.47886,-5.52027 -1.69941,-3.24962 -4.68066,-4.86641 -6.54001,-6.90854 2.37125,-6.8389 -7.14133,-7.56461 -6.62433,-13.39923 -4.24408,-2.83813 -7.4412,-7.25435 -12.91006,-6.5229 0.0727,-1.42928 3.15018,-4.14003 -1.7694,-3.67492 -1.66046,3.75302 -1.54421,0.85561 -4.00008,-0.95895 -3.74762,3.88831 -12.77601,3.5376 -13.87161,10.51929 0.71202,2.09147 -5.60786,0.49076 -1.9511,2.85063 -4.13432,1.67027 -4.36888,7.60128 -7.23706,7.46973 -0.52093,4.64544 -8.28651,5.12639 -6.47743,10.17485 -1.90293,-3.20007 -0.63664,4.70262 -3.46333,6.06331 0.11185,5.63653 -4.84687,13.45019 -1.29018,17.8188 0.77435,5.71774 0.48763,10.4204 2.36052,16.35474 2.22966,4.87356 6.21616,9.43826 8.37568,14.08834 0.81125,2.82257 4.43115,5.84403 6.22619,5.82876 0.49886,1.8056 3.85215,5.42044 6.97601,4.69717 3.23051,2.35488 8.39838,4.54512 13.38644,5.12865 0.15537,-0.39493 3.58137,0.60541 2.72325,-0.88446 z m 23.06767,-17.59549 c 1.26126,-1.95799 1.37704,1.05106 0,0 z m 4.31975,-35.62643 c -1.27027,-2.69205 3.33453,0.0104 0,0 z m -9.9864,-22.48642 c -1.11829,-4.53573 4.43414,1.11223 0,0 z M 261.03423,551.491 c -1.27027,-2.69205 3.33453,0.0104 0,0 z m -29.34267,91.30407 c -2.81902,-2.97906 1.51356,3.50336 0,0 z m 31.77292,-99.45715 c -2.36847,-2.18713 -3.24007,2.1006 0,0 z"
       style="fill:#878787"
       inkscape:connector-curvature="0" />
    <path
       id="path2501"
       d="m 286.46448,670.82657 c -9.73025,-0.863 -19.0816,-3.76646 -28.32189,-6.7588 -21.84056,-9.97856 -37.16263,-31.62014 -40.9461,-55.15012 -1.78913,-13.07157 -1.87381,-26.62023 0.96645,-39.54759 4.74792,-18.43657 15.24513,-35.36045 29.96634,-47.49207 5.02748,-4.19443 10.40781,-8.28461 15.88374,-11.56237 12.86212,-7.39141 28.8717,-4.86874 41.21846,2.30563 21.25997,12.19498 36.6267,33.90722 41.21032,57.98151 3.04143,14.03381 3.41688,28.72766 1.2156,42.90261 -4.46215,17.79452 -13.38679,35.44739 -28.56462,46.40472 -9.25687,6.79392 -20.87193,12.37674 -32.6283,10.91648 z m -23.31767,-26.61365 c 4.5066,-0.8111 13.98495,-1.00139 17.69406,-6.875 5.49788,-2.99373 7.12196,-8.88281 8.77696,-13.40699 1.496,3.19363 3.32202,-4.95323 2.34666,-5.9122 -1.40586,-1.69337 2.99339,-1.67108 0.11419,-4.99454 -1.34795,-3.13332 4.59144,-5.41982 0.17159,-8.62337 2.83942,-3.10877 1.82778,-12.54763 -1.53578,-17.15366 -3.03743,-3.40619 4.47866,-4.21862 -1.00232,-6.15924 0.24227,-2.82066 -5.14876,-5.11164 -0.47886,-5.52027 -1.69941,-3.24962 -4.68066,-4.86641 -6.54001,-6.90854 2.37125,-6.8389 -7.14133,-7.56461 -6.62433,-13.39923 -4.24408,-2.83813 -7.4412,-7.25435 -12.91006,-6.5229 0.0727,-1.42928 3.15018,-4.14003 -1.7694,-3.67492 -1.66046,3.75302 -1.54421,0.85561 -4.00008,-0.95895 -3.74762,3.88831 -12.77601,3.5376 -13.87161,10.51929 0.71202,2.09147 -5.60786,0.49076 -1.9511,2.85063 -4.13432,1.67027 -4.36888,7.60128 -7.23706,7.46973 -0.52093,4.64544 -8.28651,5.12639 -6.47743,10.17485 -1.90293,-3.20007 -0.63664,4.70262 -3.46333,6.06331 0.11185,5.63653 -4.84687,13.45019 -1.29018,17.8188 0.77435,5.71774 0.48763,10.4204 2.36052,16.35474 2.22966,4.87356 6.21616,9.43826 8.37568,14.08834 0.81125,2.82257 4.43115,5.84403 6.22619,5.82876 0.49886,1.8056 3.85215,5.42044 6.97601,4.69717 3.23051,2.35488 8.39838,4.54512 13.38644,5.12865 0.15537,-0.39493 3.58137,0.60541 2.72325,-0.88446 z m 23.06767,-17.59549 c 1.26126,-1.95799 1.37704,1.05106 0,0 z m 4.31975,-35.62643 c -1.27027,-2.69205 3.33453,0.0104 0,0 z m -9.9864,-22.48642 c -1.11829,-4.53573 4.43414,1.11223 0,0 z M 261.03423,551.491 c -1.27027,-2.69205 3.33453,0.0104 0,0 z m 2.43025,-8.15308 c -2.36847,-2.18713 -3.24007,2.1006 0,0 z"
       style="fill:#808080"
       inkscape:connector-curvature="0" />
    <path
       id="path2499"
       d="m 286.46448,670.82657 c -7.21712,-0.78649 -14.63714,-1.69187 -20.55003,-6.23467 -3.66562,-1.42889 -15.3665,-6.08646 -7.88848,-5.9359 3.81165,0.0503 9.1707,4.04212 10.90883,-3.12337 3.17974,2.56368 5.30044,-3.54421 9.32031,-4.6368 2.26924,-3.25351 8.80612,-1.9244 5.65317,-5.81727 3.21646,-0.91417 6.72836,-2.69742 7.43186,-6.61256 3.65422,7.72538 1.61612,-7.33394 6.22277,-7.32696 3.02752,-4.63949 4.57794,-8.47242 3.1043,-13.46827 3.67631,-2.90007 1.52529,-10.30773 1.77991,-11.15778 3.73106,1.23113 -2.36026,-7.98011 -0.35763,-8.65917 0.67186,-2.66557 2.84045,-10.75567 -1.661,-14.08307 2.29665,-6.38175 -2.28285,-9.2739 -5.07401,-13.88874 0.92104,-3.47176 -6.93842,-10.57595 -1.83969,-8.74489 -0.0348,-5.7276 -4.59745,-15.10795 -10.73527,-11.05127 0.29534,-5.45812 -3.17717,-8.16805 -5.81503,-12.11022 -2.3873,-2.56162 -4.53141,-3.43975 -6.28047,-1.32514 -2.77304,-4.5311 -8.00606,-5.81146 -11.7219,-5.02514 -7.00487,-1.5467 -10.83111,2.76531 -14.80993,7.18435 -4.87266,3.87838 -13.00599,8.3264 -13.52669,14.51525 -1.7055,6.69734 -8.07559,10.99846 -9.48769,18.18797 -3.00438,4.35473 -2.52162,10.62462 -4.09664,14.51206 -1.88612,-6.45717 0.74962,-13.56911 2.14493,-20.03701 4.78227,-15.38992 13.03858,-30.03581 25.26025,-40.73585 5.68294,-5.62333 12.47869,-10.23926 18.89314,-14.69054 9.59915,-5.24872 21.16731,-6.20414 31.48301,-2.52258 18.96765,6.57871 34.17431,21.79221 43.53269,39.26501 10.1098,20.30808 12.64962,43.92799 9.30221,66.20136 -4.46215,17.79452 -13.38679,35.44739 -28.56462,46.40472 -9.25687,6.79392 -20.87193,12.37674 -32.6283,10.91648 z m -4.75,-19.51816 c -1.14259,-1.80513 -1.1672,2.6249 1e-5,0 l -1e-5,0 z m 3.5,-105.97049 c -1.24401,-1.94657 -1.24398,1.94656 0,0 z m -3,-3.27951 c -1.38976,-0.95499 -0.97973,1.76772 0,0 z m -13,-10.22049 c -1.19743,-1.99758 -0.7974,1.85948 0,0 z M 258.3499,657.03583 c 1.62882,-0.55101 1.34466,0.92846 0,0 z m -42.06773,-64.69791 c 0.72468,-5.96488 0.72468,5.96487 0,0 z m 69.68231,-41.5 c -0.10521,-2.01593 2.05451,1.88286 0,0 z"
       style="fill:#787878"
       inkscape:connector-curvature="0" />
    <path
       id="path2497"
       d="m 286.46448,670.82657 c -3.58049,-0.38586 -10.74129,-1.35314 -11.70997,-2.24458 5.82279,0.45682 6.06226,-2.42865 5.8971,-7.12659 5.47912,-3.12559 6.76411,-10.40315 13.04039,-12.48955 1.40331,-4.56993 9.56722,-10.94851 8.85948,-12.86886 1.63482,-4.34367 3.7023,-9.90238 4.39191,-14.64956 1.33017,-4.48416 4.35061,-11.60848 1.19981,-16.32474 2.86029,-3.24048 0.14188,-9.77391 -0.61833,-15.08426 -0.16206,-6.9828 1.20957,-11.99954 -2.66497,-17.95659 -2.48948,-5.03804 -3.97076,-8.48027 -5.96907,-12.60612 0.86589,-5.54088 -3.34119,-10.13197 -6.78202,-13.4184 -2.85879,-2.06662 -3.11806,-5.01321 -1.8757,-5.66602 -5.87619,-1.9821 -8.56147,-5.96387 -10.25333,-10.10156 -1.33939,-5.77425 -10.4539,-5.51811 -11.76529,-7.70182 -2.17775,1.16443 -5.92127,-4.04182 -8.50662,-0.56549 -4.63808,-3.20948 -5.396,5.9835 -8.55816,1.15387 0.20069,-1.89194 8.02558,-5.33189 3.90735,-6.15478 -1.14451,-0.3105 6.9882,-5.82322 9.95821,-7.12151 15.2925,-8.43546 33.90694,-2.64277 47.08621,7.09921 17.68597,12.72573 30.25346,32.17485 34.34032,53.60354 3.04143,14.03381 3.41688,28.72766 1.2156,42.90261 -4.46215,17.79452 -13.38679,35.44739 -28.56462,46.40472 -9.25687,6.79392 -20.87193,12.37674 -32.6283,10.91648 z m 20.15625,-99.9574 c -1.08973,-1.60945 -1.80237,2.65833 0,0 z m -22.90625,86.00965 c 0.39286,-4.72915 2.29644,1.71923 0,0 z m -46.5,-121.76139 c 1.49043,-3.02143 1.01433,2.2757 0,0 z m 12.95888,-14.96124 c 3.23426,-3.23308 2.19057,-0.30386 0,0 z"
       style="fill:#767676"
       inkscape:connector-curvature="0" />
    <path
       id="path2495"
       d="m 280.50593,667.16022 c -2.03949,-6.3606 6.10416,-9.88785 8.5156,-15.16267 6.46306,-2.35063 8.04073,-10.14016 12.92676,-14.34932 3.77207,-1.32055 -2.42459,-2.56118 2.3877,-5.07212 0.052,-5.77428 3.57788,-9.51023 3.75993,-14.74225 0.40665,-4.048 3.31039,-9.06868 0.0473,-12.71118 2.86028,-3.24047 0.14187,-9.7739 -0.61833,-15.08425 -0.16207,-6.9828 1.20956,-11.99954 -2.66498,-17.95659 -2.48948,-5.03805 -3.97075,-8.48027 -5.96906,-12.60613 0.86589,-5.54088 -3.34119,-10.13196 -6.78202,-13.41839 -2.8588,-2.06662 -3.11806,-5.01321 -1.8757,-5.66602 -5.8762,-1.9821 -8.56148,-5.96387 -10.25334,-10.10157 -1.33939,-5.77424 -10.4539,-5.51811 -11.76529,-7.70181 -2.17775,1.16443 -5.92127,-4.04182 -8.50661,-0.56549 -4.63809,-3.20948 -5.396,5.9835 -8.55816,1.15387 3.7038,-4.25559 8.9058,-9.40294 15.48794,-10.60135 7.50188,-0.8755 15.22327,-0.39318 22.34537,-3.16325 15.46803,1.24569 28.76385,10.79825 38.38921,22.46561 16.80953,19.2477 22.42387,45.83853 21.01215,70.81064 -0.34701,15.92811 -7.41951,31.0283 -16.38184,43.89717 -7.19796,8.64334 -16.24129,16.54846 -27.10021,19.99702 -7.93627,0.30012 -17.27331,1.60586 -24.39641,0.57808 l 0,0 z m 26.1148,-96.29105 c -1.08973,-1.60945 -1.80237,2.65833 0,0 z m -22.90625,86.00965 c 0.39286,-4.72915 2.29644,1.71923 0,0 z m -46.5,-121.76139 c 1.49043,-3.02143 1.01433,2.2757 0,0 z"
       style="fill:#6f6f6f"
       inkscape:connector-curvature="0" />
    <path
       id="path2493"
       d="m 296.82111,666.67889 c -0.82594,-6.2404 8.28864,-12.56225 11.61733,-18.5549 3.24566,-5.65855 5.82085,-10.51831 8.72617,-16.28756 0.59278,-4.18053 2.96093,-9.67256 3.48373,-12.66069 -0.45952,-2.29368 1.68898,-11.25545 0.90399,-16.57539 -0.58859,-6.095 -0.60438,-11.93191 -1.04509,-17.00889 -1.99759,-7.34489 -3.03815,-15.00542 -5.39081,-22.12305 -1.898,-6.86515 -4.06057,-13.46298 -8.80804,-18.99719 -1.85344,-5.6858 -5.7466,-10.275 -9.48763,-15.13236 -2.13879,-3.05324 -8.09826,-5.4157 -4.24421,-6.25403 -2.54197,-3.91471 -16.58446,-7.82075 -7.61206,-12.52369 6.19385,-2.72537 12.99234,0.79737 18.95336,2.71555 14.50447,6.61776 25.55236,19.28936 33.35091,32.91473 10.66488,20.27381 13.16588,44.0838 10.11709,66.55889 -4.75616,20.25407 -15.98997,40.19835 -34.70866,50.47942 -4.72398,3.00466 -10.26904,4.70166 -15.85608,3.44916 z"
       style="fill:#505050"
       inkscape:connector-curvature="0" />
    <path
       id="path2491"
       d="m 307.86567,663.16367 c 4.69385,-7.51922 12.16943,-13.42801 14.78326,-22.19686 5.60357,-9.71466 7.42879,-21.0824 9.32933,-31.98588 -0.38959,-8.94141 0.008,-18.02844 -1.22199,-26.89301 -1.43248,-7.6692 -3.90526,-14.83214 -6.00744,-22.31861 -2.98036,-6.82435 -4.41867,-14.56841 -8.75363,-20.69566 -4.40028,-6.18948 -8.24637,-12.96508 -14.21045,-17.81604 -3.40356,-2.22595 -11.88572,-10.9249 -2.58353,-9.49358 15.34749,4.51755 26.81449,17.03965 35.4608,29.95625 12.80338,20.77112 15.80669,46.25088 12.90395,70.11764 -4.25726,19.07443 -14.18873,37.79613 -30.72087,48.90447 -1.51595,0.6707 -10.5541,7.16824 -8.97943,2.42128 z"
       style="fill:#444444"
       inkscape:connector-curvature="0" />
    <path
       id="path2489"
       d="m 317.71448,656.40088 c 3.31363,-6.71605 8.91039,-12.42293 10.6513,-19.94835 1.6423,-6.38081 5.91051,-11.77548 6.30326,-18.38962 1.46627,-6.77448 1.45969,-14.10339 2.27666,-20.75539 -1.28367,-8.12237 -0.40121,-16.74127 -4.11699,-24.35246 -1.41303,-7.00415 -2.67171,-14.47247 -6.2627,-21.04876 -3.43513,-11.65314 -10.86082,-21.73105 -18.77985,-30.75972 -2.5533,-6.38139 8.40718,1.24039 10.47737,3.10736 16.69583,13.19733 26.23321,33.67272 28.82724,54.51375 2.97874,19.09049 1.04985,39.45068 -8.86367,56.35837 -4.37038,8.07538 -10.07437,16.01067 -18.01261,20.71186 -0.38203,0.64933 -2.04622,1.65135 -2.50001,0.56296 z"
       style="fill:#363636"
       inkscape:connector-curvature="0" />
    <path
       id="path2487"
       d="m 326.71448,648.32898 c 3.70416,-8.19966 8.20163,-16.19175 10.47196,-25.06595 3.96084,-13.82602 4.53645,-28.43697 2.80979,-42.65768 -1.77511,-6.78836 -2.88432,-13.84735 -5.26798,-20.51743 -3.24469,-11.83392 -9.56155,-22.41493 -16.36284,-32.48565 1.21994,-3.019 8.1934,5.36856 10.52939,8.0236 16.73727,19.22099 20.61847,46.13055 18.81811,70.76872 -1.99532,13.64586 -7.54411,26.8618 -15.86488,37.84917 -1.64883,0.51709 -3.78599,6.39579 -5.13355,4.08522 z"
       style="fill:#2d2d2d"
       inkscape:connector-curvature="0" />
  </g>
</svg>
