<?xml version="1.0" encoding="UTF-8" standalone="no"?>
<!-- Created with Inkscape (http://www.inkscape.org/) -->

<svg
   width="525"
   height="525"
   id="svg2"
   sodipodi:version="0.32"
   inkscape:version="1.3.2 (091e20e, 2023-11-25, custom)"
   version="1.0"
   sodipodi:docname="equip_axe.svg"
   inkscape:output_extension="org.inkscape.output.svg.inkscape"
   xmlns:inkscape="http://www.inkscape.org/namespaces/inkscape"
   xmlns:sodipodi="http://sodipodi.sourceforge.net/DTD/sodipodi-0.dtd"
   xmlns="http://www.w3.org/2000/svg"
   xmlns:svg="http://www.w3.org/2000/svg"
   xmlns:rdf="http://www.w3.org/1999/02/22-rdf-syntax-ns#"
   xmlns:cc="http://creativecommons.org/ns#"
   xmlns:dc="http://purl.org/dc/elements/1.1/">
  <defs
     id="defs4">
    <inkscape:perspective
       sodipodi:type="inkscape:persp3d"
       inkscape:vp_x="0 : 526.18109 : 1"
       inkscape:vp_y="0 : 1000 : 0"
       inkscape:vp_z="744.09448 : 526.18109 : 1"
       inkscape:persp3d-origin="372.04724 : 350.78739 : 1"
       id="perspective10" />
    <inkscape:perspective
       id="perspective2447"
       inkscape:persp3d-origin="372.04724 : 350.78739 : 1"
       inkscape:vp_z="744.09448 : 526.18109 : 1"
       inkscape:vp_y="0 : 1000 : 0"
       inkscape:vp_x="0 : 526.18109 : 1"
       sodipodi:type="inkscape:persp3d" />
    <linearGradient
       id="IconifyId17ecdb2904d178eab9182"
       gradientUnits="userSpaceOnUse"
       x1="23.860001"
       y1="70.781998"
       x2="19.916"
       y2="102.334"
       gradientTransform="matrix(4.1827696,0,0,4.1827696,-8.9376225,-8.6758647)">
      <stop
         offset=".306"
         stop-color="#b3875d"
         id="stop3" />
      <stop
         offset=".567"
         stop-color="#a87c5b"
         id="stop4" />
      <stop
         offset=".926"
         stop-color="#916656"
         id="stop5" />
    </linearGradient>
    <linearGradient
       id="IconifyId17ecdb2904d178eab9183"
       gradientUnits="userSpaceOnUse"
       x1="76.399002"
       y1="58.587002"
       x2="72.263"
       y2="104.09"
       gradientTransform="matrix(4.1827696,0,0,4.1827696,-8.9376225,-8.6758647)">
      <stop
         offset=".476"
         stop-color="#b3875d"
         id="stop6" />
      <stop
         offset=".735"
         stop-color="#a4785a"
         id="stop7" />
      <stop
         offset=".985"
         stop-color="#916656"
         id="stop8" />
    </linearGradient>
    <linearGradient
       id="IconifyId17ecdb2904d178eab9184"
       gradientUnits="userSpaceOnUse"
       x1="41.299"
       y1="112.112"
       x2="45.998001"
       y2="70.490997"
       gradientTransform="matrix(4.1827696,0,0,4.1827696,-8.9376225,-8.6758647)">
      <stop
         offset="0"
         stop-color="#865b52"
         id="stop10" />
      <stop
         offset=".545"
         stop-color="#feaf5f"
         id="stop11" />
    </linearGradient>
    <linearGradient
       id="IconifyId17ecdb2904d178eab9185"
       gradientUnits="userSpaceOnUse"
       x1="62.056999"
       y1="118.415"
       x2="96.686996"
       y2="68.959"
       gradientTransform="matrix(4.1827696,0,0,4.1827696,-8.9376225,-8.6758647)">
      <stop
         offset="0"
         stop-color="#865b52"
         id="stop12" />
      <stop
         offset=".136"
         stop-color="#9f6c55"
         id="stop13" />
      <stop
         offset=".421"
         stop-color="#dd985b"
         id="stop14" />
      <stop
         offset=".56"
         stop-color="#feaf5f"
         id="stop15" />
    </linearGradient>
    <radialGradient
       id="IconifyId17ecdb2904d178eab9186"
       cx="-0.117"
       cy="70.575996"
       r="51.660999"
       gradientUnits="userSpaceOnUse"
       gradientTransform="matrix(4.1827696,0,0,4.1827696,-8.9376225,-8.6758647)">
      <stop
         offset=".226"
         stop-color="#865b52"
         id="stop16" />
      <stop
         offset=".285"
         stop-color="#895d52"
         id="stop17" />
      <stop
         offset=".336"
         stop-color="#946554"
         id="stop18" />
      <stop
         offset=".385"
         stop-color="#a67255"
         id="stop19" />
      <stop
         offset=".432"
         stop-color="#c08358"
         id="stop20" />
      <stop
         offset=".477"
         stop-color="#e09a5c"
         id="stop21" />
      <stop
         offset=".512"
         stop-color="#feaf5f"
         id="stop22" />
    </radialGradient>
  </defs>
  <sodipodi:namedview
     id="base"
     pagecolor="#ffffff"
     bordercolor="#666666"
     borderopacity="1.0"
     gridtolerance="10000"
     guidetolerance="10"
     objecttolerance="10"
     inkscape:pageopacity="0.0"
     inkscape:pageshadow="2"
     inkscape:zoom="0.88833333"
     inkscape:cx="140.71295"
     inkscape:cy="245.96623"
     inkscape:document-units="px"
     inkscape:current-layer="layer1"
     showgrid="false"
     inkscape:window-width="2304"
     inkscape:window-height="1262"
     inkscape:window-x="5750"
     inkscape:window-y="1607"
     inkscape:showpageshadow="2"
     inkscape:pagecheckerboard="0"
     inkscape:deskcolor="#d1d1d1"
     inkscape:window-maximized="1" />
  <metadata
     id="metadata7">
    <rdf:RDF>
      <cc:Work
         rdf:about="">
        <dc:format>image/svg+xml</dc:format>
        <dc:type
           rdf:resource="http://purl.org/dc/dcmitype/StillImage" />
      </cc:Work>
    </rdf:RDF>
  </metadata>
  <g
     inkscape:label="Layer 1"
     inkscape:groupmode="layer"
     id="layer1"
     transform="translate(-169.70945,-261.08105)">
    <g
       id="g3553"
       transform="matrix(-0.00873676,-0.64275991,-0.64275991,0.00873676,671.08056,674.9682)">
      <g
         transform="translate(5.0484736,4.7119087)"
         id="g3546">
        <path
           style="opacity:1;fill:#ff0000;fill-opacity:1;fill-rule:nonzero;stroke:none;stroke-width:0.699812;stroke-linecap:round;stroke-linejoin:miter;stroke-miterlimit:4;stroke-dasharray:none;stroke-opacity:1"
           d="m 476.46875,311.65625 c -18.01479,8.28661 -36.34572,17.1188 -51.28125,30.28125 -0.80634,3.96988 4.9681,6.65227 6.81569,9.97051 24.52853,27.85191 40.21732,61.75283 54.52806,95.59199 4.0244,2.79096 8.22814,-3.57568 12.165,-4.52334 19.86254,-11.3959 40.55667,-22.35619 57.17875,-38.22666 0.78622,-4.11227 -5.06022,-7.32179 -6.84314,-10.96799 C 526.05832,365.8143 503.54052,337.16216 477.875,311.8125 l -0.6875,-0.34375 z"
           id="path3520" />
        <path
           style="opacity:1;fill:#ff0000;fill-opacity:1;fill-rule:nonzero;stroke:none;stroke-width:0.699812;stroke-linecap:round;stroke-linejoin:miter;stroke-miterlimit:4;stroke-dasharray:none;stroke-opacity:1"
           d="m 423.375,344.71875 c -1.24133,3.86409 -5.80147,8.09188 -1.45117,11.57286 20.32147,31.0548 43.34431,60.4495 61.73242,92.52089 3.21411,3.2464 5.52338,-2.51404 2.90625,-4.875 -14.84542,-35.89785 -32.35766,-71.82966 -59.75,-99.71875 -0.9018,-0.6604 -3.3752,-1.25722 -3.4375,0.5 z"
           id="path3522" />
        <path
           style="opacity:1;fill:#999999;fill-opacity:1;fill-rule:nonzero;stroke:none;stroke-width:0.699812;stroke-linecap:round;stroke-linejoin:miter;stroke-miterlimit:4;stroke-dasharray:none;stroke-opacity:1"
           d="m 555.53125,403.71875 c -20.22525,17.46542 -44.0531,30.18703 -67.21875,43.40625 -2.88962,4.19744 2.91144,9.06753 3.43653,13.39355 3.90043,9.54225 7.8916,19.04758 11.75097,28.60645 33.56487,-6.34881 64.80466,-24.78836 86.03125,-51.59375 -12.57747,-9.8208 -22.09557,-22.67586 -32.84375,-34.1875 l -0.95122,0.3085 z"
           id="path3524" />
        <path
           style="opacity:1;fill:#999999;fill-opacity:1;fill-rule:nonzero;stroke:none;stroke-width:0.062;stroke-linecap:round;stroke-linejoin:miter;stroke-miterlimit:4;stroke-dasharray:none;stroke-opacity:1"
           d="m 486.5,447.65625 c -3.79665,0.10539 -2.76424,2.72737 -1.08365,5.03415 0.47706,2.6634 8.02969,12.31441 6.62358,5.60627 -0.8294,-3.11527 -2.05663,-11.21078 -5.53993,-10.64042 z"
           id="path3530" />
        <path
           id="path2723"
           style="fill:none;fill-opacity:1;fill-rule:nonzero;stroke:#000000;stroke-width:2;stroke-linecap:butt;stroke-linejoin:miter;stroke-miterlimit:4;stroke-dasharray:none;stroke-opacity:1"
           d="m 424.32158,342.95604 c -1.51626,3.12827 -2.21807,5.91954 -3.73434,9.94367 28.35016,44.52027 57.05747,74.42052 83.62758,136.1135 m -79.4287,-146.26078 c 24.50905,-19.15343 33.60561,-21.04701 52.48593,-30.79175 47.23712,47.80649 87.30321,107.2801 111.27017,125.96623 -37.95843,45.68693 -84.82308,49.16844 -84.3274,50.7364 C 481.28054,434.6947 465.9632,385.69643 424.78612,342.75243 Z m 131.91463,60.53377 c -20.44095,19.02526 -45.30387,31.41756 -69.28143,45.1379 l -2.93498,0.29259"
           sodipodi:nodetypes="ccccccccccc" />
      </g>
      <g
         transform="translate(115.77833,-18.847635)"
         id="g3542">
        <path
           id="path2721"
           style="fill:#7a3c00;fill-opacity:1;fill-rule:evenodd;stroke:#000000;stroke-width:2;stroke-linecap:butt;stroke-linejoin:miter;stroke-miterlimit:4;stroke-dasharray:none;stroke-opacity:1"
           d="M 1.0497154,615.32935 C 77.837875,574.37834 123.96441,529.56007 165.79676,503.24587 c 54.26376,-34.13405 128.96902,-58.7814 156.81675,-111.15668 9.456,-8.58782 25.92915,27.81845 33.591,46.18763 C 246.7332,519.55718 162.41874,525.88904 53.885555,654.51884 23.433255,652.42146 11.540825,637.95232 1.0497154,615.32935 Z M 114.76924,539.0498 l 24.49343,32.54127 v 0.34991" />
        <path
           style="opacity:1;fill:#ff0000;fill-opacity:1;fill-rule:nonzero;stroke:none;stroke-width:0.062;stroke-linecap:round;stroke-linejoin:miter;stroke-miterlimit:4;stroke-dasharray:none;stroke-opacity:1"
           d="m 50.403485,653.05168 c -22.418945,-2.84909 -34.414048,-11.315 -45.0949013,-31.82712 -1.3909689,-2.6713 -2.5290329,-5.00636 -2.5290329,-5.18902 0,-0.18266 2.9912206,-1.97871 6.6471569,-3.9912 C 40.366268,595.01297 68.943321,576.07595 106.76916,547.53891 l 8.2369,-6.21418 11.39834,15.11118 c 6.2691,8.31114 11.34684,15.14674 11.28387,15.19022 -2.48619,1.71668 -13.92303,11.05774 -20.81322,16.99922 -18.327921,15.80438 -41.676993,39.34165 -58.89738,59.37214 -4.8946,5.69331 -4.518704,5.44249 -7.574185,5.05418 z"
           id="path3540" />
      </g>
    </g>
  </g>
</svg>
