<?xml version="1.0" encoding="UTF-8" standalone="no"?>
<!-- Created with Inkscape (http://www.inkscape.org/) -->

<svg
   xmlns:dc="http://purl.org/dc/elements/1.1/"
   xmlns:cc="http://creativecommons.org/ns#"
   xmlns:rdf="http://www.w3.org/1999/02/22-rdf-syntax-ns#"
   xmlns:svg="http://www.w3.org/2000/svg"
   xmlns="http://www.w3.org/2000/svg"
   xmlns:sodipodi="http://sodipodi.sourceforge.net/DTD/sodipodi-0.dtd"
   xmlns:inkscape="http://www.inkscape.org/namespaces/inkscape"
   width="525"
   height="525"
   id="svg2"
   sodipodi:version="0.32"
   inkscape:version="0.48.4 r9939"
   version="1.0"
   sodipodi:docname="equip_cloak.svg"
   inkscape:output_extension="org.inkscape.output.svg.inkscape">
  <defs
     id="defs4">
    <inkscape:perspective
       sodipodi:type="inkscape:persp3d"
       inkscape:vp_x="0 : 526.18109 : 1"
       inkscape:vp_y="0 : 1000 : 0"
       inkscape:vp_z="744.09448 : 526.18109 : 1"
       inkscape:persp3d-origin="372.04724 : 350.78739 : 1"
       id="perspective10" />
    <inkscape:perspective
       id="perspective2447"
       inkscape:persp3d-origin="372.04724 : 350.78739 : 1"
       inkscape:vp_z="744.09448 : 526.18109 : 1"
       inkscape:vp_y="0 : 1000 : 0"
       inkscape:vp_x="0 : 526.18109 : 1"
       sodipodi:type="inkscape:persp3d" />
  </defs>
  <sodipodi:namedview
     id="base"
     pagecolor="#ffffff"
     bordercolor="#666666"
     borderopacity="1.0"
     gridtolerance="10000"
     guidetolerance="10"
     objecttolerance="10"
     inkscape:pageopacity="0.0"
     inkscape:pageshadow="2"
     inkscape:zoom="1"
     inkscape:cx="136.39066"
     inkscape:cy="143.40463"
     inkscape:document-units="px"
     inkscape:current-layer="layer2"
     showgrid="false"
     inkscape:window-width="1920"
     inkscape:window-height="994"
     inkscape:window-x="0"
     inkscape:window-y="25"
     inkscape:window-maximized="1" />
  <metadata
     id="metadata7">
    <rdf:RDF>
      <cc:Work
         rdf:about="">
        <dc:format>image/svg+xml</dc:format>
        <dc:type
           rdf:resource="http://purl.org/dc/dcmitype/StillImage" />
        <dc:title></dc:title>
      </cc:Work>
    </rdf:RDF>
  </metadata>
  <g
     inkscape:groupmode="layer"
     id="layer2"
     inkscape:label="Chicken"
     style="display:none"
     sodipodi:insensitive="true">
    <path
       style="fill:#ff8200;fill-opacity:1;fill-rule:evenodd;stroke:#ff8200;stroke-width:1px;stroke-linecap:butt;stroke-linejoin:miter;stroke-opacity:1"
       d="m 251.88749,424.90608 c 3.67804,29.53262 7.90065,33.9091 -15.25955,69.04951 -10.18908,-2.47911 -21.5497,-7.52033 -33.57103,-2.67042 5.85593,2.44628 17.29195,2.16232 15.64104,6.48531 -27.61912,-0.73039 -36.78345,5.91981 -42.34528,12.20765 44.8945,-4.78043 43.33482,-1.51637 56.07889,-4.19638 0.26306,9.96811 -3.35014,12.61189 1.90744,16.78552 6.8697,-12.15628 10.02621,-18.15944 16.78551,-22.88934 15.21369,-0.16885 15.81879,-0.0101 31.6636,2.28893 -3.11647,-8.80108 -20.84258,-6.76301 -22.88934,-13.7336 -0.17844,-26.90851 24.86257,-54.47838 25.94125,-60.27527 l 16.02254,-16.40403 c 1.60421,11.73324 6.13432,27.18556 -0.38149,41.9638 -10.89941,3.96998 -24.09592,6.01213 -33.18954,14.49658 9.84419,-1.305 21.38365,-6.1617 26.32273,0.38149 -9.57634,7.09318 -21.95558,10.98533 -24.79678,22.88934 21.80368,-8.8778 23.61027,-6.94457 46.16017,-22.12636 15.80911,-4.67782 13.35742,12.55734 19.83743,19.07445 1.77066,-8.94042 2.95103,-18.32355 -7.2483,-36.24146 7.49374,-4.00744 15.29785,-2.0763 23.27084,0 -4.90934,-10.95004 -16.71087,-6.74662 -27.8487,-16.40402 0.3041,-8.61948 -0.24693,-14.76571 3.81489,-30.90062 l -75.91632,20.21892 z"
       id="path3297"
       sodipodi:nodetypes="ccccccccccccccccccccccc"
       inkscape:connector-curvature="0" />
    <path
       style="opacity:0.98000004;fill:#ffff00;fill-opacity:1;fill-rule:evenodd;stroke:#ffff00;stroke-width:1px;stroke-linecap:butt;stroke-linejoin:miter;stroke-opacity:1"
       d="m 82.26225,62.39221 c -1.56348,-31.995002 46.26643,-29.706068 46.26643,-29.706068 20.31817,3.797175 46.97104,21.038155 62.82677,56.735508 22.9077,48.64332 34.59871,70.68168 77.64857,73.59596 46.28235,-2.95181 58.56153,-14.20887 77.79857,-35.37211 2.25892,-37.97883 -3.25706,-96.758397 47.64227,-93.833654 9.59144,0.551137 9.86864,13.070663 9.86864,13.070663 32.94771,-11.082131 34.18219,16.822911 35.19703,26.804261 19.91098,-13.35049 27.34972,13.25384 15.6848,19.71231 18.75026,19.66273 0.0646,22.13763 -2.97686,32.72046 19.47076,11.31803 -3.66743,28.5211 -4.54034,41.68855 30.4347,26.09538 1.88035,31.71149 -2.13883,50.61914 3.15418,45.54761 -3.13111,25.39086 -18.81176,49.53096 7.77938,92.76173 -33.00807,134.7905 -107.70482,140.31269 -25.22677,6.79428 -26.89179,23.3521 -51.78236,28.54284 C 219.34198,405.66999 253.89671,413.24907 191.99963,367.39537 171.79805,350.80946 136.17722,346.13834 117.04026,318.91506 85.33907,273.48026 98.29726,233.93694 105.13905,189.15894 116.40375,151.1604 114.8573,157.88 119.37294,120.75371 123.8071,84.2974 93.70692,81.70608 82.26225,62.39221 z"
       id="path2513"
       sodipodi:nodetypes="cccccscccccccccccczc"
       inkscape:connector-curvature="0" />
    <path
       style="fill:#d80000;fill-opacity:1;fill-rule:evenodd;stroke:#d80000;stroke-width:1px;stroke-linecap:butt;stroke-linejoin:miter;stroke-opacity:1"
       d="m 76.40256,56.7692 c -4.81001,-7.87329 -2.44472,-12.96 7.62978,-10.30021 -9.3826,-6.48632 -7.61755,-18.06858 5.72234,-14.49658 -9.30651,-12.21878 0.87263,-17.60588 8.39275,-9.15574 -5.29791,-11.82359 6.50879,-18.29562 12.58914,-5.34084 -0.95763,-14.77511 11.63029,-23.91077 15.25955,-1.52596 16.92994,-21.08546 35.35273,8.19128 7.2483,15.25956 -16.41102,2.19887 -37.20225,8.5284 -33.57103,13.73361 25.9215,-13.97136 32.59456,6.01119 27.08572,17.54849 39.42766,14.23491 -5.24018,48.44658 -12.58915,21.36339 10.99676,51.4282 -58.04691,-6.67394 -13.7336,-17.167 L 76.40256,56.7692 z"
       id="path2517"
       sodipodi:nodetypes="cccccccccccc"
       inkscape:connector-curvature="0" />
    <path
       style="fill:#ff8200;fill-opacity:1;fill-rule:evenodd;stroke:#ff8200;stroke-width:1px;stroke-linecap:butt;stroke-linejoin:miter;stroke-opacity:1"
       d="m 61.52448,74.31769 c 0.21521,-9.73997 12.8544,-18.514585 24.03381,-23.270828 11.33281,2.514919 1.15807,6.484348 -0.38149,9.918718 15.02101,-3.41901 16.17779,4.31659 19.07445,7.62978 -14.6963,4.3959 -24.74705,-1.92704 -42.72677,5.72233 z"
       id="path2523"
       sodipodi:nodetypes="ccccc"
       inkscape:connector-curvature="0" />
    <path
       style="opacity:0.98000004;fill:#ffff00;fill-opacity:1;stroke:#ffff00;stroke-width:0;stroke-linecap:round;stroke-linejoin:round;stroke-miterlimit:4;stroke-opacity:1;stroke-dasharray:none"
       d="m 166.07004,185.08552 c -3.5628,-1.02377 -6.23201,-2.66429 -9.39338,-5.77323 -2.4609,-2.42008 -3.19614,-3.46176 -4.76929,-6.75701 -1.02362,-2.14414 -2.09924,-3.90233 -2.39224,-3.91026 -0.2928,-0.008 -2.33737,1.881 -4.54348,4.19764 -8.82721,9.26944 -15.28524,12.6436 -20.74094,10.83665 -4.07612,-1.35003 -7.88314,-6.60595 -10.34756,-14.28573 -1.41638,-4.41377 -1.5122,-4.95936 -0.87115,-4.95936 0.44216,0 0.5886,-0.83789 0.7167,-4.10101 0.16463,-4.19366 0.87085,-8.10664 1.46311,-8.10664 0.18201,0 0.33093,-0.94418 0.33093,-2.09819 0,-1.154 0.1599,-2.09819 0.35532,-2.09819 0.19542,0 0.36269,-1.55428 0.37168,-3.45396 0.009,-1.89968 0.10524,-3.59776 0.21386,-3.7735 0.16863,-0.27285 1.12657,-7.77108 2.51266,-19.66751 0.19557,-1.67855 0.35689,-4.55941 0.35848,-6.40191 0.002,-2.62397 0.12691,-3.3976 0.57513,-3.56959 0.37305,-0.14316 0.57223,-0.73653 0.57223,-1.70473 0,-1.0658 0.16158,-1.48514 0.57224,-1.48514 0.31472,0 0.57223,-0.17167 0.57223,-0.38149 0,-0.20982 -0.25751,-0.38149 -0.57223,-0.38149 -0.44997,0 -0.57224,-0.52985 -0.57224,-2.47968 0,-1.36382 -0.15306,-2.47968 -0.34013,-2.47968 -0.18707,0 -0.44785,-0.42917 -0.5795,-0.95372 -0.13166,-0.52455 -0.40777,-0.95372 -0.61359,-0.95372 -0.20583,0 -0.37422,-0.42918 -0.37422,-0.95372 0,-0.59343 -0.21618,-0.95373 -0.57224,-0.95373 -0.31473,0 -0.57223,-0.2575 -0.57223,-0.57223 0,-0.33935 -0.34933,-0.57189 -0.85835,-0.5714 -0.84142,8.2e-4 -0.85596,-0.075 -0.73704,-3.84284 l 0.12131,-3.84365 1.88959,1.76748 c 2.6663,2.49401 4.07067,3.01644 8.16799,3.03851 3.26062,0.0176 3.5993,-0.0612 6.72996,-1.56535 8.30947,-3.99233 12.41904,-11.77159 9.84441,-18.63507 -0.67405,-1.79688 -1.48172,-2.91153 -3.75714,-5.18511 -2.36695,-2.36504 -3.63262,-3.26239 -6.90147,-4.8931 -2.20164,-1.09831 -4.04079,-2.03475 -4.08702,-2.08098 -0.0462,-0.0462 0.18749,-0.9344 0.51938,-1.9737 0.95309,-2.98463 0.85164,-8.991957 -0.1972,-11.675809 -1.07326,-2.74632 -3.11023,-5.417277 -5.07952,-6.660435 -4.8381,-3.054155 -12.1596,-2.702541 -19.97362,0.959235 -3.47187,1.626967 -4.04505,1.445988 -2.23464,-0.705568 2.24142,-2.663777 12.70225,-6.447553 24.32051,-8.796942 4.18601,-0.846482 5.28681,-0.920063 6.25775,-0.41831 0.36434,0.18828 1.43494,0.657332 2.37913,1.042339 0.94418,0.38501 1.94355,0.917641 2.22081,1.18363 0.27726,0.265993 0.74935,0.483618 1.04909,0.483618 0.29975,0 0.54499,0.17167 0.54499,0.381489 0,0.209819 0.68668,0.381489 1.52595,0.381489 0.83928,0 1.52596,0.1684 1.52596,0.374221 0,0.205817 0.42917,0.481935 0.95372,0.613591 0.52455,0.131652 0.95372,0.392426 0.95372,0.579501 0,0.187071 0.42918,0.340132 0.95373,0.340132 0.52454,0 0.95372,0.183931 0.95372,0.408738 0,0.727996 1.06498,1.498707 2.07094,1.498707 0.61764,0 0.98097,0.21194 0.98097,0.572233 0,0.314729 0.25751,0.572234 0.57223,0.572234 0.31473,0 0.57224,0.1684 0.57224,0.374221 0,0.205817 0.42917,0.481935 0.95372,0.613591 0.52455,0.131652 0.95372,0.392426 0.95372,0.579501 0,0.187071 0.42918,0.340132 0.95373,0.340132 0.59342,0 0.95372,0.216178 0.95372,0.572233 0,0.314729 0.2575,0.572234 0.57223,0.572234 0.31473,0 0.57223,0.17167 0.57223,0.381489 0,0.209819 0.42918,0.381489 0.95373,0.381489 0.59343,0 0.95372,0.216178 0.95372,0.572233 0,0.314729 0.25751,0.572234 0.57223,0.572234 0.31473,0 0.57224,0.1684 0.57224,0.374221 0,0.205817 0.42917,0.481935 0.95372,0.613591 0.52455,0.131652 0.95372,0.373817 0.95372,0.538144 0,0.164326 0.42918,0.406492 0.95372,0.538143 0.52455,0.131656 0.95373,0.40777 0.95373,0.613591 0,0.205825 0.18487,0.374222 0.41083,0.374222 0.53393,0 2.64108,2.107158 2.64108,2.641079 0,0.225956 0.18393,0.410833 0.40874,0.410833 0.52817,0 1.4987,0.970542 1.4987,1.498706 0,0.224808 0.18394,0.408739 0.40874,0.408739 0.45949,0 1.49871,0.944452 1.49871,1.362034 0,0.149635 0.51501,0.764237 1.14447,1.365777 0.62945,0.60154 1.14446,1.34973 1.14446,1.66263 0,0.3129 0.17167,0.56892 0.38149,0.56892 0.20982,0 0.38149,0.2575 0.38149,0.57223 0,0.31473 0.18488,0.57223 0.41083,0.57223 0.44117,0 2.64108,2.06549 2.64108,2.47968 0,0.4142 2.19993,2.47968 2.64108,2.47968 0.22595,0 0.41084,0.18393 0.41084,0.40874 0,0.52816 0.97054,1.4987 1.4987,1.4987 0.2248,0 0.40874,0.42918 0.40874,0.95373 0,0.59343 0.21618,0.95372 0.57223,0.95372 0.31473,0 0.57224,0.2575 0.57224,0.57223 0,0.31473 0.18393,0.57224 0.40874,0.57224 0.52817,0 1.4987,0.97054 1.4987,1.4987 0,0.22481 0.17167,0.40874 0.38149,0.40874 0.20982,0 0.38149,0.22659 0.38149,0.50353 0,0.27693 0.51501,1.08037 1.14447,1.78541 0.62945,0.70503 1.14446,1.5943 1.14446,1.97615 0,0.38185 0.15307,0.69427 0.34014,0.69427 0.18707,0 0.44784,0.42917 0.5795,0.95372 0.13165,0.52455 0.40777,0.95372 0.61359,0.95372 0.20582,0 0.37422,0.25751 0.37422,0.57224 0,0.31473 0.1601,0.57223 0.35578,0.57223 0.19568,0 0.47826,0.38626 0.62796,0.85835 0.14972,0.47209 0.67629,1.4987 1.17018,2.28135 0.49388,0.78266 0.89799,1.75545 0.89799,2.16177 0,0.40633 0.13642,0.796 0.30315,0.86594 0.57021,0.23919 2.74876,4.86288 2.74876,5.83387 0,0.53314 0.17445,0.96935 0.38766,0.96935 0.21322,0 0.68531,0.64376 1.0491,1.43058 0.36379,0.78682 0.74727,1.51642 0.85218,1.62133 0.31353,0.31353 2.68174,5.12639 2.67586,5.43809 -0.003,0.15839 0.42374,1.17762 0.94828,2.26496 0.52455,1.08733 0.95373,2.26981 0.95373,2.62773 0,0.35792 0.2575,0.74958 0.57223,0.87036 0.33852,0.1299 0.57223,0.70302 0.57223,1.40327 0,0.65103 0.25751,1.4412 0.57224,1.75593 0.31472,0.31473 0.57223,0.98914 0.57223,1.4987 0,0.50956 0.17167,0.92648 0.38149,0.92648 0.20982,0 0.38149,0.51501 0.38149,1.14446 0,0.62946 0.1684,1.14447 0.37422,1.14447 0.20582,0 0.48193,0.42917 0.61359,0.95372 0.13165,0.52455 0.3904,0.95372 0.57499,0.95372 0.18458,0 0.44543,0.68668 0.57964,1.52596 0.13421,0.83928 0.39373,1.52596 0.57674,1.52596 0.183,0 0.33273,0.44143 0.33273,0.98097 0,0.53953 0.21459,1.22026 0.47686,1.51271 1.21759,1.35773 1.43058,1.72244 1.43058,2.44957 0,0.43819 0.25039,0.77908 0.57224,0.77908 0.31473,0 0.57223,0.26977 0.57223,0.59948 0,0.32971 0.21459,0.83877 0.47686,1.13123 1.13208,1.26238 1.43059,1.6939 1.43059,2.06808 0,0.21868 0.2575,0.39759 0.57223,0.39759 0.31473,0 0.57223,0.1949 0.57223,0.43312 0,0.23822 0.42918,0.83086 0.95373,1.31699 0.52454,0.48613 0.95372,1.14958 0.95372,1.47433 0,0.32475 0.15758,0.59045 0.35017,0.59045 0.41493,0 1.8011,6.086 2.12879,9.34648 0.31025,3.0869 -0.36773,7.44374 -1.50871,9.69534 -1.91003,3.76928 -4.52418,5.44404 -8.87333,5.68471 -5.12051,0.28337 -10.37767,-2.05192 -15.62791,-6.94211 -1.5502,-1.44388 -2.887,-2.55678 -2.97067,-2.47311 -0.0837,0.0837 0.10789,1.95172 0.4257,4.1512 0.71595,4.95505 0.49203,13.52978 -0.44816,17.16043 -2.93867,11.34805 -11.48178,17.2743 -20.97126,14.54748 l 0,0 z"
       id="path3309"
       inkscape:connector-curvature="0" />
    <path
       style="fill:#592300;fill-opacity:1;stroke:#321b09;stroke-width:0;stroke-linecap:round;stroke-linejoin:round;stroke-miterlimit:4;stroke-opacity:1;stroke-dasharray:none"
       d="m 165.4978,184.94846 c -6.32072,-2.10467 -10.82732,-6.33926 -14.14563,-13.2918 -0.83441,-1.74826 -1.61512,-3.17866 -1.7349,-3.17866 -0.11979,0 -2.82663,2.5466 -6.01523,5.65911 -8.99812,8.78341 -13.88509,11.17924 -19.42044,9.52081 -2.34307,-0.70201 -5.52028,-3.88599 -7.39642,-7.41219 -0.87931,-1.65264 -2.28828,-5.07489 -3.13108,-7.60498 -1.51652,-4.55266 -1.52646,-4.6196 -0.96178,-6.48246 0.31383,-1.03526 0.72083,-2.82649 0.90447,-3.98049 0.18363,-1.154 0.60015,-3.15343 0.92557,-4.44316 0.69507,-2.75469 1.24823,-6.08749 1.7423,-10.49738 0.19596,-1.7491 0.89264,-7.30027 1.54816,-12.33592 1.59399,-12.2449 1.86232,-20.41321 0.83416,-25.39206 -0.41425,-2.00595 -1.20083,-4.76614 -1.74796,-6.13376 -0.83207,-2.0798 -0.99479,-3.09006 -0.99479,-6.17573 l 0,-3.68916 1.6061,1.55866 c 2.77709,2.69507 4.13915,3.2091 8.50336,3.2091 3.68524,0 3.91862,-0.0517 6.8668,-1.52264 3.86461,-1.9281 7.61229,-5.5162 9.16796,-8.77756 1.5332,-3.2143 1.58796,-7.43282 0.13616,-10.49095 -1.80203,-3.79584 -6.09302,-7.46645 -11.80454,-10.09787 -1.35241,-0.62309 -2.51201,-1.16257 -2.57688,-1.19884 -0.0649,-0.0363 0.16307,-1.03264 0.50655,-2.21416 0.81645,-2.80853 0.81664,-8.589915 3.4e-4,-10.891922 -2.5088,-7.074928 -8.10484,-10.322173 -15.83938,-9.191234 -3.08259,0.450741 -7.26113,1.707213 -9.46145,2.84505 -0.66822,0.345541 -1.64527,0.791879 -2.17124,0.991852 -1.47288,0.559991 -1.23683,-0.592887 0.43493,-2.124165 2.84658,-2.607355 12.36118,-5.990762 22.94225,-8.158295 l 5.78628,-1.185321 5.06364,1.754796 c 12.87034,4.46016 23.63262,11.263143 33.48461,21.166051 9.22908,9.276798 15.00209,17.783988 22.77637,33.563618 3.04952,6.18966 5.69581,11.31115 5.88068,11.38109 0.18485,0.0699 0.33611,0.46896 0.33611,0.88671 0,1.09718 8.55911,17.87538 12.36491,24.23863 3.24426,5.42433 4.58126,8.78074 5.51713,13.85012 1.50633,8.1595 0.26649,14.27238 -3.50681,17.28979 -5.38332,4.30493 -12.98643,2.8625 -21.10692,-4.00428 -1.99097,-1.68358 -3.6694,-3.00109 -3.72986,-2.92781 -0.0605,0.0733 0.13515,1.93578 0.43469,4.13888 0.72901,5.36171 0.44959,13.26072 -0.6113,17.28164 -1.68131,6.37242 -5.25333,11.17854 -9.93869,13.37245 -3.22074,1.5081 -8.13162,1.80547 -11.46823,0.69444 l 0,0 z"
       id="path3311"
       inkscape:connector-curvature="0" />
    <path
       sodipodi:type="arc"
       style="opacity:0.98000004;fill:#ffffff;fill-opacity:1;stroke:#020202;stroke-width:0.89679456;stroke-linecap:round;stroke-linejoin:round;stroke-miterlimit:4;stroke-opacity:1;stroke-dasharray:none"
       id="path3299"
       sodipodi:cx="186.16663"
       sodipodi:cy="96.81601"
       sodipodi:rx="11.826159"
       sodipodi:ry="11.826159"
       d="m 197.99278,96.81601 a 11.826159,11.826159 0 1 1 -23.65231,0 11.826159,11.826159 0 1 1 23.65231,0 z"
       transform="matrix(2.2263346,0,0,2.2340024,-295.25234,-159.10213)" />
    <path
       sodipodi:type="arc"
       style="opacity:0.98000004;fill:#000000;fill-opacity:1;stroke:#ffffff;stroke-width:0;stroke-linecap:round;stroke-linejoin:round;stroke-miterlimit:4;stroke-opacity:1;stroke-dasharray:none"
       id="path3303"
       sodipodi:cx="186.54813"
       sodipodi:cy="97.388237"
       sodipodi:rx="3.4334011"
       sodipodi:ry="2.8611674"
       d="m 189.98153,97.388237 a 3.4334011,2.8611674 0 1 1 -6.8668,0 3.4334011,2.8611674 0 1 1 6.8668,0 z"
       transform="matrix(2.7418229,0,0,3.4078119,-386.78049,-277.67469)" />
    <path
       sodipodi:type="arc"
       style="opacity:0.98000004;fill:#ffffff;fill-opacity:1;stroke:#ffffff;stroke-width:0;stroke-linecap:round;stroke-linejoin:round;stroke-miterlimit:4;stroke-opacity:1;stroke-dasharray:none"
       id="path3305"
       sodipodi:cx="190.55376"
       sodipodi:cy="91.856651"
       sodipodi:rx="4.3871236"
       sodipodi:ry="4.577868"
       d="m 194.94088,91.856651 a 4.3871236,4.577868 0 1 1 -8.77425,0 4.3871236,4.577868 0 1 1 8.77425,0 z"
       transform="matrix(1.243956,0,0,1.2558326,-109.28742,-64.80775)" />
    <path
       style="fill:#592300;fill-opacity:1;fill-rule:evenodd;stroke:#592300;stroke-width:1px;stroke-linecap:butt;stroke-linejoin:miter;stroke-opacity:1"
       d="m 215.64604,228.05776 c -2.74134,24.9738 9.24153,74.90898 64.47164,51.11952 26.78279,26.20633 43.81084,9.12966 53.78995,-1.90744 30.76915,21.24128 52.49789,5.22157 47.30464,-16.40403 27.20796,10.14697 31.24848,-16.92268 25.94125,-32.42656 7.38294,6.14244 31.38311,-24.29633 -1.52595,-37.00444 0.2653,-16.1117 -27.07682,-28.7654 -41.58231,-4.19638 32.07127,-11.73617 40.22411,29.7592 9.50853,36.4028 13.96704,7.99254 -5.51872,52.18465 -45.11863,25.24924 -10.96007,26.99172 -45.47144,26.99966 -55.63913,5.29566 -34.38066,15.3275 -49.91907,0.41791 -57.14999,-26.12837 z"
       id="path3377-4"
       sodipodi:nodetypes="ccccccccccc"
       inkscape:connector-curvature="0" />
    <path
       style="fill:#592300;fill-opacity:1;stroke:#592300;stroke-width:0;stroke-linecap:round;stroke-linejoin:round;stroke-miterlimit:4;stroke-opacity:1;stroke-dasharray:none"
       d="m 430.34013,263.62136 c 0.12677,-0.31473 0.92664,-2.15843 1.77751,-4.09711 2.11914,-4.82853 4.02242,-10.71002 5.25727,-16.24611 0.93728,-4.20198 1.03757,-5.38913 1.05313,-12.46483 0.0192,-8.73771 -0.28901,-10.52692 -2.6721,-15.51389 -1.39522,-2.91968 -4.33386,-6.44384 -6.47848,-7.76929 l -1.30992,-0.80959 2.19093,-2.44682 c 2.91316,-3.25345 4.87184,-6.56604 6.00689,-10.15905 3.80264,-12.0375 -1.41765,-22.88781 -12.74818,-26.497 -0.96227,-0.30649 -3.58577,-0.65703 -5.83007,-0.77895 l -4.08052,-0.22167 0.89963,-1.77531 c 3.10932,-6.13605 3.02387,-13.98072 -0.22241,-20.40616 -3.3074,-6.54653 -9.03561,-11.1921 -16.06275,-13.02694 -4.63478,-1.21017 -11.50334,-0.43149 -16.76484,1.90064 -0.57723,0.25584 -0.56834,0.0628 0.0954,-2.06967 1.40423,-4.51187 0.65445,-10.17719 -1.86742,-14.11003 -4.10681,-6.40447 -12.42315,-10.4157 -19.05938,-9.19292 -6.32608,1.16562 -10.59144,5.324 -13.14398,12.81431 -1.25166,3.67308 -1.21649,4.6047 -0.49082,-12.97777 0.57322,-13.88852 0.67157,-15.49802 1.38648,-22.68869 1.98237,-19.93905 6.8995,-33.550243 15.07282,-41.723595 4.45808,-4.45805 9.01024,-7.05728 15.56597,-8.887973 4.65062,-1.298673 15.41941,-1.731163 18.40593,-0.739204 3.42524,1.137681 6.64154,5.532049 7.22571,9.872402 0.13482,1.001347 0.3853,1.907296 0.55667,2.013209 0.17136,0.105912 1.65085,-0.17206 3.28775,-0.617715 3.71807,-1.012293 11.53203,-1.415786 14.6953,-0.758843 5.002,1.038822 9.62451,4.526798 12.25865,9.249956 2.31087,4.143483 3.09956,7.139673 4.67213,17.748313 l 0.18163,1.22537 1.22527,-0.75486 c 3.39933,-2.09425 8.8312,-2.81487 12.30245,-1.63209 2.26345,0.77123 5.00505,3.39293 6.18527,5.91477 2.47868,5.29624 1.67214,12.32116 -1.82875,15.9286 -0.83015,0.85541 -1.50936,1.69464 -1.50936,1.86497 0,0.17032 0.51139,0.79962 1.13642,1.39844 1.6198,1.55187 4.55795,6.04565 5.45804,8.34789 0.46114,1.17951 0.7819,2.94747 0.80544,4.4397 0.0539,3.41456 -1.15527,5.71573 -5.51256,10.49095 -1.91454,2.09819 -3.9293,4.57527 -4.47723,5.50463 l -0.99614,1.68973 1.10052,0.78994 c 3.90091,2.79975 5.61964,5.23765 6.28694,8.9177 0.75363,4.15598 -0.34033,7.99234 -4.38747,15.38651 -1.41964,2.59376 -3.32823,6.10668 -4.24128,7.80649 -1.70018,3.1653 -3.18395,6.98698 -3.18395,8.2009 0,0.3746 1.76809,2.45067 3.92911,4.61351 5.83808,5.84306 8.67502,10.36453 9.49187,15.12795 0.86224,5.02835 -0.70148,8.8548 -6.84998,16.76183 -5.77887,7.43166 -7.24768,9.81315 -8.35762,13.55066 -0.4882,1.64393 -0.50204,3.05433 -0.1014,10.3355 0.49299,8.95947 0.30336,15.83184 -0.53416,19.36046 -0.84828,3.57373 -2.17411,5.36324 -6.27409,8.46819 -2.03959,1.54464 -5.06934,4.24988 -6.73263,6.01162 -1.66333,1.76174 -2.92045,2.94567 -2.79364,2.63094 l 3e-5,0 z"
       id="path3385"
       inkscape:connector-curvature="0" />
  </g>
  <g
     inkscape:label="Cloak"
     inkscape:groupmode="layer"
     id="layer1"
     transform="translate(-169.70945,-261.08105)"
     style="display:inline">
    <path
       style="fill:#483e3b;fill-opacity:1;fill-rule:evenodd;stroke:#592300;stroke-width:1px;stroke-linecap:butt;stroke-linejoin:miter;stroke-opacity:1"
       d="m 119.9375,2.4375 c -0.67058,0.012371 -1.33556,0.035312 -1.96875,0.0625 -6.54223,0.2809154 -12.1153,5.0609641 -17.78125,8.34375 -4.417758,2.559594 -9.069649,5.028197 -12.53125,8.78125 -4.141724,4.490439 -6.82712,10.218292 -9.28125,15.8125 -1.712086,3.902715 -3.527703,7.994062 -3.75,12.25 -0.138631,2.654127 -0.488401,4.547096 0.9375,7.53125 l -0.75,0.53125 c 0,0 3.675336,15.960644 7.96875,21.8125 6.80996,9.281868 6.61673,15.484864 12.8125,25.1875 5.53712,17.64053 14.09987,11.03252 22.21875,28.15625 -0.65552,5.03565 -1.36654,10.59465 -1.5625,12.34375 -0.49407,4.40989 -1.02368,7.74531 -1.71875,10.5 -0.32542,1.28973 -0.75387,3.2835 -0.9375,4.4375 -0.18364,1.154 -0.59242,2.93349 -0.90625,3.96875 -0.56468,1.86286 -0.54777,1.94734 0.96875,6.5 0.8428,2.53009 2.24569,5.94111 3.125,7.59375 1.87614,3.5262 5.06318,6.70424 7.40625,7.40625 0.3341,0.0909 0.6636,0.16748 1,0.25 L 147.34375,203.75 172.625,224 c -0.52451,1.29908 22.68692,26.49257 22.4375,27.90625 18.75046,23.38181 58.60989,43.06503 93.0625,51.28125 17.44902,4.16122 36.70765,3.59615 53.78125,-1.90625 27.93239,-9.00191 57.27682,-24.22444 73.25,-48.84375 16.7468,-25.81168 48.37781,-78.29189 15.46875,-91 0.26007,-15.79426 -64.89358,-76.409923 -79.59375,-53.75 l -61.25,53.125 -75.09375,-25.03125 c -0.92385,-3.42781 -2.29606,-6.37606 -4.78125,-10.53125 -3.8058,-6.36325 -12.375,-23.15282 -12.375,-24.25 0,-0.41775 -0.12765,-0.8051 -0.3125,-0.875 -0.18487,-0.0699 -2.85673,-5.18534 -5.90625,-11.375 C 183.04079,67.037511 179.20253,64.682364 173.46875,48.25 162.33902,27.439872 157.18729,17.113526 143.09375,7.90625 136.454,3.5685198 127.71285,2.294056 119.9375,2.4375 z m -0.71875,25.4375 c 16.13731,0 29.21875,13.11959 29.21875,29.3125 0,16.19291 -13.08144,29.3125 -29.21875,29.3125 C 103.08142,86.5 90,73.38041 90,57.1875 90,40.99459 103.08142,27.875 119.21875,27.875 z"
       transform="translate(169.70945,261.08105)"
       id="path3377"
       inkscape:connector-curvature="0"
       sodipodi:nodetypes="ssssssccsccssscsscccccaaaccccsscccsssssss" />
  </g>
</svg>
