<?xml version="1.0" encoding="UTF-8" standalone="no"?>
<!-- Created with Inkscape (http://www.inkscape.org/) -->

<svg
   width="525"
   height="525"
   id="svg2"
   sodipodi:version="0.32"
   inkscape:version="1.3.1 (91b66b0783, 2023-11-16)"
   version="1.0"
   sodipodi:docname="fox_rooster.svg"
   inkscape:output_extension="org.inkscape.output.svg.inkscape"
   xmlns:inkscape="http://www.inkscape.org/namespaces/inkscape"
   xmlns:sodipodi="http://sodipodi.sourceforge.net/DTD/sodipodi-0.dtd"
   xmlns="http://www.w3.org/2000/svg"
   xmlns:svg="http://www.w3.org/2000/svg"
   xmlns:rdf="http://www.w3.org/1999/02/22-rdf-syntax-ns#"
   xmlns:cc="http://creativecommons.org/ns#"
   xmlns:dc="http://purl.org/dc/elements/1.1/">
  <defs
     id="defs4">
    <inkscape:perspective
       sodipodi:type="inkscape:persp3d"
       inkscape:vp_x="0 : 526.18109 : 1"
       inkscape:vp_y="0 : 1000 : 0"
       inkscape:vp_z="744.09448 : 526.18109 : 1"
       inkscape:persp3d-origin="372.04724 : 350.78739 : 1"
       id="perspective10" />
    <inkscape:perspective
       id="perspective2447"
       inkscape:persp3d-origin="372.04724 : 350.78739 : 1"
       inkscape:vp_z="744.09448 : 526.18109 : 1"
       inkscape:vp_y="0 : 1000 : 0"
       inkscape:vp_x="0 : 526.18109 : 1"
       sodipodi:type="inkscape:persp3d" />
  </defs>
  <sodipodi:namedview
     id="base"
     pagecolor="#ffffff"
     bordercolor="#666666"
     borderopacity="1.0"
     gridtolerance="10000"
     guidetolerance="10"
     objecttolerance="10"
     inkscape:pageopacity="0.0"
     inkscape:pageshadow="2"
     inkscape:zoom="1.0114286"
     inkscape:cx="262.99434"
     inkscape:cy="262.49999"
     inkscape:document-units="px"
     inkscape:current-layer="layer1"
     showgrid="false"
     inkscape:window-width="1920"
     inkscape:window-height="956"
     inkscape:window-x="-12"
     inkscape:window-y="-12"
     inkscape:showpageshadow="2"
     inkscape:pagecheckerboard="0"
     inkscape:deskcolor="#d1d1d1"
     inkscape:window-maximized="1" />
  <metadata
     id="metadata7">
    <rdf:RDF>
      <cc:Work
         rdf:about="">
        <dc:format>image/svg+xml</dc:format>
        <dc:type
           rdf:resource="http://purl.org/dc/dcmitype/StillImage" />
      </cc:Work>
    </rdf:RDF>
  </metadata>
  <g
     inkscape:label="Layer 1"
     inkscape:groupmode="layer"
     id="layer1"
     transform="translate(-169.70945,-261.08105)">
    <path
       sodipodi:nodetypes="ccccccccccccccccccccccc"
       id="path3297"
       d="m 421.59694,685.98713 c 3.67804,29.53262 7.90065,33.9091 -15.25955,69.04951 -10.18908,-2.47911 -21.5497,-7.52033 -33.57103,-2.67042 5.85593,2.44628 17.29195,2.16232 15.64104,6.48531 -27.61912,-0.73039 -36.78345,5.91981 -42.34528,12.20765 44.8945,-4.78043 43.33482,-1.51637 56.07889,-4.19638 0.26306,9.96811 -3.35014,12.61189 1.90744,16.78552 6.8697,-12.15628 10.02621,-18.15944 16.78551,-22.88934 15.21369,-0.16885 15.81879,-0.0101 31.6636,2.28893 -3.11647,-8.80108 -20.84258,-6.76301 -22.88934,-13.7336 -0.17844,-26.90851 24.86257,-54.47838 25.94125,-60.27527 l 16.02254,-16.40403 c 1.60421,11.73324 6.13432,27.18556 -0.38149,41.9638 -10.89941,3.96998 -24.09592,6.01213 -33.18954,14.49658 9.84419,-1.305 21.38365,-6.1617 26.32273,0.38149 -9.57634,7.09318 -21.95558,10.98533 -24.79678,22.88934 21.80368,-8.8778 23.61027,-6.94457 46.16017,-22.12636 15.80911,-4.67782 13.35742,12.55734 19.83743,19.07445 1.77066,-8.94042 2.95103,-18.32355 -7.2483,-36.24146 7.49374,-4.00744 15.29785,-2.0763 23.27084,0 -4.90934,-10.95004 -16.71087,-6.74662 -27.8487,-16.40402 0.3041,-8.61948 -0.24693,-14.76571 3.81489,-30.90062 z"
       style="fill:#d80000;fill-opacity:1;fill-rule:evenodd;stroke:#ff8200;stroke-width:1px;stroke-linecap:butt;stroke-linejoin:miter;stroke-opacity:1" />
    <path
       sodipodi:nodetypes="cccccscccccccccccczc"
       id="path2513"
       d="m 251.9717,323.47326 c -1.56348,-31.995 46.26643,-29.70607 46.26643,-29.70607 20.31817,3.79718 46.97104,21.03816 62.82677,56.73551 22.9077,48.64332 34.59871,70.68168 77.64857,73.59596 46.28235,-2.95181 58.56153,-14.20887 77.79857,-35.37211 2.25892,-37.97883 -3.25706,-96.7584 47.64227,-93.83365 9.59144,0.55113 9.86864,13.07066 9.86864,13.07066 32.94771,-11.08213 34.18219,16.82291 35.19703,26.80426 19.91098,-13.35049 27.34972,13.25384 15.6848,19.71231 18.75026,19.66273 0.0646,22.13763 -2.97686,32.72046 19.47076,11.31803 -3.66743,28.5211 -4.54034,41.68855 30.4347,26.09538 1.88035,31.71149 -2.13883,50.61914 3.15418,45.54761 -3.13111,25.39086 -18.81176,49.53096 7.77938,92.76173 -33.00807,134.7905 -107.70482,140.31269 -25.22677,6.79428 -26.89179,23.3521 -51.78236,28.54284 -47.89838,-31.14373 -13.34365,-23.56465 -75.24073,-69.41835 -20.20158,-16.58591 -55.82241,-21.25703 -74.95937,-48.48031 -31.70119,-45.4348 -18.743,-84.97812 -11.90121,-129.75612 11.2647,-37.99854 9.71825,-31.27894 14.23389,-68.40523 4.43416,-36.45631 -25.66602,-39.04763 -37.11069,-58.3615 z"
       style="opacity:0.98;fill:#d17300;fill-opacity:1;fill-rule:evenodd;stroke:#ffff00;stroke-width:1px;stroke-linecap:butt;stroke-linejoin:miter;stroke-opacity:1" />
    <path
       sodipodi:nodetypes="ccccc"
       id="path2523"
       d="m 231.23393,335.39874 c 0.21521,-9.73997 12.8544,-18.51459 24.03381,-23.27083 11.33281,2.51492 1.15807,6.48435 -0.38149,9.91872 15.02101,-3.41901 16.17779,4.31659 19.07445,7.62978 -14.6963,4.3959 -24.74705,-1.92704 -42.72677,5.72233 z"
       style="fill:#ff8200;fill-opacity:1;fill-rule:evenodd;stroke:#ff8200;stroke-width:1px;stroke-linecap:butt;stroke-linejoin:miter;stroke-opacity:1" />
    <path
       id="path3309"
       d="m 335.77949,446.16657 c -3.5628,-1.02377 -6.23201,-2.66429 -9.39338,-5.77323 -2.4609,-2.42008 -3.19614,-3.46176 -4.76929,-6.75701 -1.02362,-2.14414 -2.09924,-3.90233 -2.39224,-3.91026 -0.2928,-0.008 -2.33737,1.881 -4.54348,4.19764 -8.82721,9.26944 -15.28524,12.6436 -20.74094,10.83665 -4.07612,-1.35003 -7.88314,-6.60595 -10.34756,-14.28573 -1.41638,-4.41377 -1.5122,-4.95936 -0.87115,-4.95936 0.44216,0 0.5886,-0.83789 0.7167,-4.10101 0.16463,-4.19366 0.87085,-8.10664 1.46311,-8.10664 0.18201,0 0.33093,-0.94418 0.33093,-2.09819 0,-1.154 0.1599,-2.09819 0.35532,-2.09819 0.19542,0 0.36269,-1.55428 0.37168,-3.45396 0.009,-1.89968 0.10524,-3.59776 0.21386,-3.7735 0.16863,-0.27285 1.12657,-7.77108 2.51266,-19.66751 0.19557,-1.67855 0.35689,-4.55941 0.35848,-6.40191 0.002,-2.62397 0.12691,-3.3976 0.57513,-3.56959 0.37305,-0.14316 0.57223,-0.73653 0.57223,-1.70473 0,-1.0658 0.16158,-1.48514 0.57224,-1.48514 0.31472,0 0.57223,-0.17167 0.57223,-0.38149 0,-0.20982 -0.25751,-0.38149 -0.57223,-0.38149 -0.44997,0 -0.57224,-0.52985 -0.57224,-2.47968 0,-1.36382 -0.15306,-2.47968 -0.34013,-2.47968 -0.18707,0 -0.44785,-0.42917 -0.5795,-0.95372 -0.13166,-0.52455 -0.40777,-0.95372 -0.61359,-0.95372 -0.20583,0 -0.37422,-0.42918 -0.37422,-0.95372 0,-0.59343 -0.21618,-0.95373 -0.57224,-0.95373 -0.31473,0 -0.57223,-0.2575 -0.57223,-0.57223 0,-0.33935 -0.34933,-0.57189 -0.85835,-0.5714 -0.84142,8.2e-4 -0.85596,-0.075 -0.73704,-3.84284 l 0.12131,-3.84365 1.88959,1.76748 c 2.6663,2.49401 4.07067,3.01644 8.16799,3.03851 3.26062,0.0176 3.5993,-0.0612 6.72996,-1.56535 8.30947,-3.99233 12.41904,-11.77159 9.84441,-18.63507 -0.67405,-1.79688 -1.48172,-2.91153 -3.75714,-5.18511 -2.36695,-2.36504 -3.63262,-3.26239 -6.90147,-4.8931 -2.20164,-1.09831 -4.04079,-2.03475 -4.08702,-2.08098 -0.0462,-0.0462 0.18749,-0.9344 0.51938,-1.9737 0.95309,-2.98463 0.85164,-8.99196 -0.1972,-11.67581 -1.07326,-2.74632 -3.11023,-5.41728 -5.07952,-6.66043 -4.8381,-3.05416 -12.1596,-2.70255 -19.97362,0.95923 -3.47187,1.62697 -4.04505,1.44599 -2.23464,-0.70557 2.24142,-2.66377 12.70225,-6.44755 24.32051,-8.79694 4.18601,-0.84648 5.28681,-0.92006 6.25775,-0.41831 0.36434,0.18828 1.43494,0.65733 2.37913,1.04234 0.94418,0.38501 1.94355,0.91764 2.22081,1.18363 0.27726,0.26599 0.74935,0.48362 1.04909,0.48362 0.29975,0 0.54499,0.17167 0.54499,0.38149 0,0.20982 0.68668,0.38149 1.52595,0.38149 0.83928,0 1.52596,0.1684 1.52596,0.37422 0,0.20581 0.42917,0.48193 0.95372,0.61359 0.52455,0.13165 0.95372,0.39242 0.95372,0.5795 0,0.18707 0.42918,0.34013 0.95373,0.34013 0.52454,0 0.95372,0.18393 0.95372,0.40874 0,0.72799 1.06498,1.49871 2.07094,1.49871 0.61764,0 0.98097,0.21194 0.98097,0.57223 0,0.31473 0.25751,0.57223 0.57223,0.57223 0.31473,0 0.57224,0.1684 0.57224,0.37422 0,0.20582 0.42917,0.48194 0.95372,0.61359 0.52455,0.13166 0.95372,0.39243 0.95372,0.57951 0,0.18707 0.42918,0.34013 0.95373,0.34013 0.59342,0 0.95372,0.21618 0.95372,0.57223 0,0.31473 0.2575,0.57223 0.57223,0.57223 0.31473,0 0.57223,0.17167 0.57223,0.38149 0,0.20982 0.42918,0.38149 0.95373,0.38149 0.59343,0 0.95372,0.21618 0.95372,0.57224 0,0.31472 0.25751,0.57223 0.57223,0.57223 0.31473,0 0.57224,0.1684 0.57224,0.37422 0,0.20582 0.42917,0.48194 0.95372,0.61359 0.52455,0.13165 0.95372,0.37382 0.95372,0.53815 0,0.16432 0.42918,0.40649 0.95372,0.53814 0.52455,0.13165 0.95373,0.40777 0.95373,0.61359 0,0.20582 0.18487,0.37422 0.41083,0.37422 0.53393,0 2.64108,2.10716 2.64108,2.64108 0,0.22596 0.18393,0.41083 0.40874,0.41083 0.52817,0 1.4987,0.97055 1.4987,1.49871 0,0.22481 0.18394,0.40874 0.40874,0.40874 0.45949,0 1.49871,0.94445 1.49871,1.36203 0,0.14964 0.51501,0.76424 1.14447,1.36578 0.62945,0.60154 1.14446,1.34973 1.14446,1.66263 0,0.3129 0.17167,0.56892 0.38149,0.56892 0.20982,0 0.38149,0.2575 0.38149,0.57223 0,0.31473 0.18488,0.57223 0.41083,0.57223 0.44117,0 2.64108,2.06549 2.64108,2.47968 0,0.4142 2.19993,2.47968 2.64108,2.47968 0.22595,0 0.41084,0.18393 0.41084,0.40874 0,0.52816 0.97054,1.4987 1.4987,1.4987 0.2248,0 0.40874,0.42918 0.40874,0.95373 0,0.59343 0.21618,0.95372 0.57223,0.95372 0.31473,0 0.57224,0.2575 0.57224,0.57223 0,0.31473 0.18393,0.57224 0.40874,0.57224 0.52817,0 1.4987,0.97054 1.4987,1.4987 0,0.22481 0.17167,0.40874 0.38149,0.40874 0.20982,0 0.38149,0.22659 0.38149,0.50353 0,0.27693 0.51501,1.08037 1.14447,1.78541 0.62945,0.70503 1.14446,1.5943 1.14446,1.97615 0,0.38185 0.15307,0.69427 0.34014,0.69427 0.18707,0 0.44784,0.42917 0.5795,0.95372 0.13165,0.52455 0.40777,0.95372 0.61359,0.95372 0.20582,0 0.37422,0.25751 0.37422,0.57224 0,0.31473 0.1601,0.57223 0.35578,0.57223 0.19568,0 0.47826,0.38626 0.62796,0.85835 0.14972,0.47209 0.67629,1.4987 1.17018,2.28135 0.49388,0.78266 0.89799,1.75545 0.89799,2.16177 0,0.40633 0.13642,0.796 0.30315,0.86594 0.57021,0.23919 2.74876,4.86288 2.74876,5.83387 0,0.53314 0.17445,0.96935 0.38766,0.96935 0.21322,0 0.68531,0.64376 1.0491,1.43058 0.36379,0.78682 0.74727,1.51642 0.85218,1.62133 0.31353,0.31353 2.68174,5.12639 2.67586,5.43809 -0.003,0.15839 0.42374,1.17762 0.94828,2.26496 0.52455,1.08733 0.95373,2.26981 0.95373,2.62773 0,0.35792 0.2575,0.74958 0.57223,0.87036 0.33852,0.1299 0.57223,0.70302 0.57223,1.40327 0,0.65103 0.25751,1.4412 0.57224,1.75593 0.31472,0.31473 0.57223,0.98914 0.57223,1.4987 0,0.50956 0.17167,0.92648 0.38149,0.92648 0.20982,0 0.38149,0.51501 0.38149,1.14446 0,0.62946 0.1684,1.14447 0.37422,1.14447 0.20582,0 0.48193,0.42917 0.61359,0.95372 0.13165,0.52455 0.3904,0.95372 0.57499,0.95372 0.18458,0 0.44543,0.68668 0.57964,1.52596 0.13421,0.83928 0.39373,1.52596 0.57674,1.52596 0.183,0 0.33273,0.44143 0.33273,0.98097 0,0.53953 0.21459,1.22026 0.47686,1.51271 1.21759,1.35773 1.43058,1.72244 1.43058,2.44957 0,0.43819 0.25039,0.77908 0.57224,0.77908 0.31473,0 0.57223,0.26977 0.57223,0.59948 0,0.32971 0.21459,0.83877 0.47686,1.13123 1.13208,1.26238 1.43059,1.6939 1.43059,2.06808 0,0.21868 0.2575,0.39759 0.57223,0.39759 0.31473,0 0.57223,0.1949 0.57223,0.43312 0,0.23822 0.42918,0.83086 0.95373,1.31699 0.52454,0.48613 0.95372,1.14958 0.95372,1.47433 0,0.32475 0.15758,0.59045 0.35017,0.59045 0.41493,0 1.8011,6.086 2.12879,9.34648 0.31025,3.0869 -0.36773,7.44374 -1.50871,9.69534 -1.91003,3.76928 -4.52418,5.44404 -8.87333,5.68471 -5.12051,0.28337 -10.37767,-2.05192 -15.62791,-6.94211 -1.5502,-1.44388 -2.887,-2.55678 -2.97067,-2.47311 -0.0837,0.0837 0.10789,1.95172 0.4257,4.1512 0.71595,4.95505 0.49203,13.52978 -0.44816,17.16043 -2.93867,11.34805 -11.48178,17.2743 -20.97126,14.54748 z"
       style="opacity:0.98;fill:#ffff00;fill-opacity:1;stroke:#ffff00;stroke-width:0;stroke-linecap:round;stroke-linejoin:round;stroke-miterlimit:4;stroke-dasharray:none;stroke-opacity:1" />
    <path
       id="path1"
       style="display:inline;fill:#ff6d00;fill-opacity:1;fill-rule:evenodd;stroke:#ff6d00;stroke-width:1px;stroke-linecap:butt;stroke-linejoin:miter;stroke-opacity:1"
       d="M 631.18406 362.70019 L 517.34617 367.79589 C 517.10049 374.97183 516.89231 382.33455 516.51218 388.72558 C 497.27516 409.8888 484.99566 421.14682 438.71336 424.09863 C 403.53489 421.71721 389.25751 406.27196 372.72703 374.26855 L 291.96726 377.88378 C 291.76708 379.67051 289.31701 390.54696 286.5864 402.44043 C 284.85465 415.98961 283.22678 421.95452 277.58836 440.95214 C 277.57496 441.00649 277.4041 441.73638 277.395 441.77246 C 277.06958 443.06218 276.64113 445.05596 276.4575 446.20996 C 276.27386 447.36396 275.86508 449.14345 275.55125 450.17871 C 274.98657 452.04156 275.00348 452.12605 276.52 456.67871 C 277.3628 459.20879 278.76569 462.61982 279.645 464.27246 C 281.52113 467.79865 284.70818 470.9767 287.05125 471.67871 C 287.38535 471.76961 287.71485 471.84619 288.05125 471.92871 L 310.2075 491.77246 L 335.48875 512.02246 C 334.96424 513.32153 358.17567 538.51503 357.92625 539.92871 C 376.67669 563.31049 416.53617 582.99374 450.98875 591.20996 C 468.43775 595.37117 487.69641 594.8061 504.77 589.30371 C 532.70236 580.30181 562.04683 565.07924 578.02 540.45996 C 583.79188 531.56381 599.18879 508.7344 615.40476 482.52246 C 615.33443 481.40565 615.3321 480.71583 615.24851 479.50878 C 619.26769 460.60115 647.82185 454.985 617.38718 428.88964 C 618.26009 415.72221 641.39894 398.51821 621.9282 387.20019 C 624.48051 378.31936 637.96614 375.11032 631.18406 362.70019 z " />
    <path
       id="path3311"
       d="m 335.20725,446.02951 c -6.32072,-2.10467 -10.82732,-6.33926 -14.14563,-13.2918 -0.83441,-1.74826 -1.61512,-3.17866 -1.7349,-3.17866 -0.11979,0 -2.82663,2.5466 -6.01523,5.65911 -8.99812,8.78341 -13.88509,11.17924 -19.42044,9.52081 -2.34307,-0.70201 -5.52028,-3.88599 -7.39642,-7.41219 -0.87931,-1.65264 -2.28828,-5.07489 -3.13108,-7.60498 -1.51652,-4.55266 -1.52646,-4.6196 -0.96178,-6.48246 0.31383,-1.03526 0.72083,-2.82649 0.90447,-3.98049 0.18363,-1.154 0.60015,-3.15343 0.92557,-4.44316 0.69507,-2.75469 1.24823,-6.08749 1.7423,-10.49738 0.19596,-1.7491 0.89264,-7.30027 1.54816,-12.33592 1.59399,-12.2449 1.86232,-20.41321 0.83416,-25.39206 -0.41425,-2.00595 -1.20083,-4.76614 -1.74796,-6.13376 -0.83207,-2.0798 -0.99479,-3.09006 -0.99479,-6.17573 v -3.68916 l 1.6061,1.55866 c 2.77709,2.69507 4.13915,3.2091 8.50336,3.2091 3.68524,0 3.91862,-0.0517 6.8668,-1.52264 3.86461,-1.9281 7.61229,-5.5162 9.16796,-8.77756 1.5332,-3.2143 1.58796,-7.43282 0.13616,-10.49095 -1.80203,-3.79584 -6.09302,-7.46645 -11.80454,-10.09787 -1.35241,-0.62309 -2.51201,-1.16257 -2.57688,-1.19884 -0.0649,-0.0363 0.16307,-1.03264 0.50655,-2.21416 0.81645,-2.80853 0.81664,-8.58991 3.4e-4,-10.89192 -2.5088,-7.07493 -8.10484,-10.32217 -15.83938,-9.19124 -3.08259,0.45074 -7.26113,1.70722 -9.46145,2.84505 -0.66822,0.34554 -1.64527,0.79188 -2.17124,0.99186 -1.47288,0.55999 -1.23683,-0.59289 0.43493,-2.12417 2.84658,-2.60735 12.36118,-5.99076 22.94225,-8.15829 l 5.78628,-1.18533 5.06364,1.7548 c 12.87034,4.46016 23.63262,11.26314 33.48461,21.16605 9.22908,9.2768 15.00209,17.78399 22.77637,33.56362 3.04952,6.18966 5.69581,11.31115 5.88068,11.38109 0.18485,0.0699 0.33611,0.46896 0.33611,0.88671 0,1.09718 8.55911,17.87538 12.36491,24.23863 3.24426,5.42433 4.58126,8.78074 5.51713,13.85012 1.50633,8.1595 0.26649,14.27238 -3.50681,17.28979 -5.38332,4.30493 -12.98643,2.8625 -21.10692,-4.00428 -1.99097,-1.68358 -3.6694,-3.00109 -3.72986,-2.92781 -0.0605,0.0733 0.13515,1.93578 0.43469,4.13888 0.72901,5.36171 0.44959,13.26072 -0.6113,17.28164 -1.68131,6.37242 -5.25333,11.17854 -9.93869,13.37245 -3.22074,1.5081 -8.13162,1.80547 -11.46823,0.69444 z"
       style="fill:#592300;fill-opacity:1;stroke:#321b09;stroke-width:0;stroke-linecap:round;stroke-linejoin:round;stroke-miterlimit:4;stroke-dasharray:none;stroke-opacity:1" />
    <path
       sodipodi:nodetypes="cccccccccccc"
       id="path2517"
       d="m 246.11201,317.85025 c -4.81001,-7.87329 -2.44472,-12.96 7.62978,-10.30021 -9.88594,-9.84193 -9.23636,-28.86067 5.72234,-14.49658 -6.92507,-18.00227 3.7352,-24.55785 8.39275,-9.15574 -0.76988,-15.70476 17.18836,-27.44954 12.58914,-5.34084 6.85391,-14.5384 27.92389,-23.41702 15.25955,-1.52596 22.8558,-21.89353 75.82652,14.58317 44.95937,30.73798 -16.41102,2.19887 -74.91332,-6.95002 -71.2821,-1.74481 25.9215,-13.97136 32.59456,6.01119 27.08572,17.54849 48.9107,12.16929 0.32705,56.38878 -12.58915,21.36339 43.07301,112.51468 -125.93564,59.34485 -13.7336,-17.167 z"
       style="fill:#d80000;fill-opacity:1;fill-rule:evenodd;stroke:#d80000;stroke-width:1px;stroke-linecap:butt;stroke-linejoin:miter;stroke-opacity:1" />
    <ellipse
       id="path3299"
       style="opacity:0.98;fill:#ffffff;fill-opacity:1;stroke:#020202;stroke-width:2;stroke-linecap:round;stroke-linejoin:round;stroke-miterlimit:4;stroke-dasharray:none;stroke-opacity:1"
       cx="288.9263"
       cy="318.26611"
       rx="26.328985"
       ry="26.419666" />
    <ellipse
       id="path3303"
       style="opacity:0.98;fill:#000000;fill-opacity:1;stroke:#ffffff;stroke-width:0;stroke-linecap:round;stroke-linejoin:round;stroke-miterlimit:4;stroke-dasharray:none;stroke-opacity:1"
       cx="294.41089"
       cy="315.28714"
       rx="9.4137774"
       ry="9.7503204" />
    <ellipse
       id="path3305"
       style="opacity:0.98;fill:#ffffff;fill-opacity:1;stroke:#ffffff;stroke-width:0;stroke-linecap:round;stroke-linejoin:round;stroke-miterlimit:4;stroke-dasharray:none;stroke-opacity:1"
       cx="297.46252"
       cy="311.62988"
       rx="5.4573889"
       ry="5.7490358" />
    <path
       sodipodi:nodetypes="ccccccccccc"
       id="path3377"
       d="m 385.35549,489.13881 c -2.74134,24.9738 9.24153,74.90898 64.47164,51.11952 26.78279,26.20633 43.81084,9.12966 53.78995,-1.90744 30.76915,21.24128 52.49789,5.22157 47.30464,-16.40403 27.20796,10.14697 31.24848,-16.92268 25.94125,-32.42656 7.38294,6.14244 31.38311,-24.29633 -1.52595,-37.00444 0.2653,-16.1117 -27.07682,-28.7654 -41.58231,-4.19638 32.07127,-11.73617 40.22411,29.7592 9.50853,36.4028 13.96704,7.99254 -5.51872,52.18465 -45.11863,25.24924 -10.96007,26.99172 -45.47144,26.99966 -55.63913,5.29566 -34.38066,15.3275 -49.91907,0.41791 -57.14999,-26.12837 z"
       style="fill:#592300;fill-opacity:1;fill-rule:evenodd;stroke:#592300;stroke-width:1px;stroke-linecap:butt;stroke-linejoin:miter;stroke-opacity:1" />
    <path
       id="path3385"
       d="m 600.04958,524.70241 c 0.12677,-0.31473 0.92664,-2.15843 1.77751,-4.09711 2.11914,-4.82853 4.02242,-10.71002 5.25727,-16.24611 0.93728,-4.20198 1.03757,-5.38913 1.05313,-12.46483 0.0192,-8.73771 -0.28901,-10.52692 -2.6721,-15.51389 -1.39522,-2.91968 -4.33386,-6.44384 -6.47848,-7.76929 l -1.30992,-0.80959 2.19093,-2.44682 c 2.91316,-3.25345 4.87184,-6.56604 6.00689,-10.15905 3.80264,-12.0375 -1.41765,-22.88781 -12.74818,-26.497 -0.96227,-0.30649 -3.58577,-0.65703 -5.83007,-0.77895 l -4.08052,-0.22167 0.89963,-1.77531 c 3.10932,-6.13605 3.02387,-13.98072 -0.22241,-20.40616 -3.3074,-6.54653 -9.03561,-11.1921 -16.06275,-13.02694 -4.63478,-1.21017 -11.50334,-0.43149 -16.76484,1.90064 -0.57723,0.25584 -0.56834,0.0628 0.0954,-2.06967 1.40423,-4.51187 0.65445,-10.17719 -1.86742,-14.11003 -4.10681,-6.40447 -12.42315,-10.4157 -19.05938,-9.19292 -6.32608,1.16562 -10.59144,5.324 -13.14398,12.81431 -1.25166,3.67308 -1.21649,4.6047 -0.49082,-12.97777 0.57322,-13.88852 0.75497,-15.49022 1.38648,-22.68869 -0.29977,-102.73454 130.50826,-79.43896 169.71178,-79.13024 -23.2204,13.93065 -76.31254,13.40698 -106.93054,34.61349 51.75485,-24.32923 98.5957,-7.88367 106.75786,9.88661 -18.84629,-13.16785 -52.92325,-8.01518 -77.79817,20.78669 22.29981,-16.64722 70.52643,-16.11473 81.85585,23.57951 -9.6095,-9.07797 -41.74912,-10.13715 -60.31755,11.86012 24.03991,-10.31456 55.10486,-3.55371 61.32344,37.80124 1.42913,3.04664 -37.44961,-32.17939 -59.94641,4.10111 47.2802,-21.51252 56.76403,20.08479 57.07891,38.29713 -12.81039,-18.44954 -44.87604,-22.67267 -60.1034,2.49409 24.62289,-7.71835 47.15152,8.84361 43.72887,36.98958 -1.76566,-10.60422 -22.78979,-21.57159 -46.97925,-4.42234 21.9133,-1.42041 40.77516,0.59069 38.96478,44.5356 -1.39568,-11.52498 -34.13359,-28.54633 -44.90492,-18.00911 42.60381,5.29741 28.32756,55.41659 7.59116,62.00461 1.87663,-0.2281 14.23217,-35.17146 -27.96878,-46.85124 z"
       style="fill:#00450a;fill-opacity:1;stroke:#592300;stroke-width:0;stroke-linecap:round;stroke-linejoin:round;stroke-miterlimit:4;stroke-dasharray:none;stroke-opacity:1"
       sodipodi:nodetypes="csssscccsscccsssssssscccccccccccccccccc" />
    <path
       style="display:inline;fill:#ff6d00;fill-opacity:1;fill-rule:evenodd;stroke:#ff6d00;stroke-width:1.4273px;stroke-linecap:butt;stroke-linejoin:miter;stroke-opacity:1"
       d="m 228.99284,262.78473 c -4.5484,0.0484 -8.5869,1.41424 -10.40625,3 -9.42197,25.16715 -8.24235,21.03724 -0.15625,37.5625 -4.93413,40.71385 -5.04713,35.31667 0,45.8125 -3.95652,8.68905 -19.22581,24.4047 -17.625,33.09375 30.47786,19.20799 35.79592,5.23226 42.96875,8.46875 27.76876,-6.03139 66.29528,-19.68998 65.53125,-20.4375 13.9384,-14.63028 26.93827,-26.60218 30.6875,-65.40625 -8.4062,-38.81448 -2.39854,-23.00671 -36.90625,-41.5 -22.46804,2.98391 -18.89448,9.13211 -21.96875,9.6875 -20.49222,-3.68589 -21.37411,4.47725 -35.71875,-1.8125 -3.87138,-6.45137 -10.55831,-8.53099 -16.40625,-8.46875 z m 60.03125,29.3125 c 14.5411,0 26.3125,11.84632 26.3125,26.4375 0,14.59118 -11.7714,26.40625 -26.3125,26.40625 -14.5411,0 -26.34375,-11.81507 -26.34375,-26.40625 0,-14.59118 11.80265,-26.4375 26.34375,-26.4375 z"
       id="path2485" />
    <ellipse
       style="display:inline;fill:#000000;fill-opacity:1;stroke:#ff6c00;stroke-width:0;stroke-linecap:round;stroke-linejoin:round;stroke-miterlimit:4;stroke-dasharray:none;stroke-opacity:1"
       id="path2491"
       transform="scale(-1,1)"
       cx="-206.40208"
       cy="380.11832"
       rx="12.68132"
       ry="13.385839" />
    <ellipse
       style="display:inline;fill:#ffffff;fill-opacity:1;stroke:#000000;stroke-width:0;stroke-linecap:round;stroke-linejoin:round;stroke-miterlimit:4;stroke-dasharray:none;stroke-opacity:1"
       id="path3350"
       transform="scale(-1,1)"
       cx="-201.15469"
       cy="377.3367"
       rx="5.2838836"
       ry="5.6361418" />
    <path
       inkscape:connector-curvature="0"
       style="display:inline;fill:#bc5100;fill-opacity:1;fill-rule:evenodd;stroke:#bc5100;stroke-width:1.73381px;stroke-linecap:butt;stroke-linejoin:miter;stroke-opacity:1"
       d="m 620.62809,470.2331 c 64.39917,83.0299 41.46877,142.28404 23.10692,192.55786 -18.36183,50.27381 13.47567,60.72646 24.81858,69.32082 -11.70035,44.30442 -68.75903,26.04463 -90.71613,8.55812 -21.42947,-17.06631 -25.60955,-79.97124 -16.26045,-115.5347 z"
       id="path2479"
       sodipodi:nodetypes="czczcc" />
    <path
       style="display:inline;fill:#000000;fill-opacity:1;fill-rule:evenodd;stroke:#000000;stroke-width:1.73381px;stroke-linecap:butt;stroke-linejoin:miter;stroke-opacity:1"
       d="m 647.60654,652.13978 -19.46875,15.875 -7.34375,-6.65625 2,18 -10,-12 -9,21 -19,-18 -3.46875,17.65625 -16.0625,-22.78125 c 0,0 -0.0686,9.59161 -2.28125,12.71875 -2.26418,-1.53906 -4.84689,-5.84288 -6.0625,-8.03125 0.44838,29.55745 7.06156,59.72416 20.90625,70.75 21.9571,17.48651 79.0184,35.74192 90.71875,-8.5625 -11.34291,-8.59436 -43.17433,-19.03869 -24.8125,-69.3125 1.27988,-3.50424 2.58185,-7.05973 3.875,-10.65625 z"
       id="path2479-3" />
  </g>
  <g
     inkscape:groupmode="layer"
     id="layer2"
     inkscape:label="Disguise"
     style="display:inline" />
</svg>
