<?xml version="1.0" encoding="UTF-8" standalone="no"?>
<!-- Uploaded to: SVG Repo, www.svgrepo.com, Generator: SVG Repo Mixer Tools -->

<svg
   width="525"
   height="525"
   viewBox="0 0 525 525"
   aria-hidden="true"
   role="img"
   class="iconify iconify--fxemoji"
   preserveAspectRatio="xMidYMid"
   version="1.1"
   id="svg7"
   sodipodi:docname="stallion.svg"
   inkscape:version="1.3.2 (091e20e, 2023-11-25, custom)"
   xmlns:inkscape="http://www.inkscape.org/namespaces/inkscape"
   xmlns:sodipodi="http://sodipodi.sourceforge.net/DTD/sodipodi-0.dtd"
   xmlns="http://www.w3.org/2000/svg"
   xmlns:svg="http://www.w3.org/2000/svg">
  <defs
     id="defs7" />
  <sodipodi:namedview
     id="namedview7"
     pagecolor="#ffffff"
     bordercolor="#666666"
     borderopacity="1.0"
     inkscape:showpageshadow="2"
     inkscape:pageopacity="0.0"
     inkscape:pagecheckerboard="0"
     inkscape:deskcolor="#d1d1d1"
     inkscape:zoom="0.90875"
     inkscape:cx="399.44979"
     inkscape:cy="400"
     inkscape:window-width="1920"
     inkscape:window-height="974"
     inkscape:window-x="4248"
     inkscape:window-y="3229"
     inkscape:window-maximized="1"
     inkscape:current-layer="svg7" />
  <path
     fill="#d19b61"
     d="m 208.96545,256.889 c -28.77,48.887 -33.902,42.987 -76.24,53.954 -42.337995,10.967 -59.614995,-8.386 -57.399995,18.256 2.298,24.029 4.619,30.674 19.292,46.802 20.943995,23.022 -17.926,48.626 -30.447,12.537 -12.521,-36.089 -8.11,-64.733 -8.11,-64.733 l 0.016,0.005 c -2.483,-25.003 15.881,-32.86 40.787,-39.312 27.827995,-7.209 37.671995,-23.241 31.998995,-45.143 0.001,0 108.873,-31.253 80.103,17.634 z m 143.834,-13.849 c 20.458,15.239 36.064,19.007 -6.512,29.61 -25.46,6.341 -35.786,34.948 -27.619,58.775 l -0.673,-0.34 c 0.344,0.426 0.662,0.828 0.992,1.242 2.39,6.56 6.199,12.725 11.501,17.926 1.936,7.942 -8.209,8.625 -32.57,8.625 -22.162,0 -35.371,12.254 -42.409,22.091 -4.932,5.303 -10.455,12.231 -15.798,21.022 -10.796,17.763 33.905,36.083 33.848,9.863 -0.044,-20.273 10.872,-32.432 25.502,-34.714 l -0.237,-0.09 c 3.973,-0.784 8.597,-1.253 14.029,-1.253 36.37,0 49.328,-10.755 49.975,-21.197 0.714,-1.678 -1.058,-4.468 -7.04,-8.924 -24.174,-18.006 8.152,-16.274 47.699,-45.732 39.548,-29.458 49.03,-27.093 49.03,-81.125 0,-54.033 -99.718,24.221 -99.718,24.221 z"
     id="path1" />
  <path
     fill="#2b3b47"
     d="m 258.06545,169.313 c -3.2,0.386 -6.302,0.604 -9.347,0.604 -28.108,0 -77.916,-24.235 -82.814,-47.135 a 60.025,60.025 0 0 0 -0.394,-3.523 l -0.002,-0.068 -0.005,0.008 c -4.218,-29.216 -29.349,-51.666 -59.732,-51.666 a 60.144,60.144 0 0 0 -19.636995,3.289 c -0.616,0.212 -1.223,0.443 -1.83,0.674 -0.29,0.111 -0.584,0.213 -0.872,0.328 -13.38,5.335 -24.4,15.315 -31.072,27.948 a 29.85,29.85 0 0 1 -2.085,-0.177 c -3.484,-0.408 -6.866,-1.379 -9.712,-2.866 -2.883,-1.406 -5.182,-3.307 -6.989,-5.17 -0.89,-0.952 -1.627,-1.941 -2.297,-2.878 -0.343,-0.463 -0.601,-0.968 -0.876,-1.429 a 18.538,18.538 0 0 1 -0.74,-1.376 c -0.457,-0.902 -0.816,-1.746 -1.075,-2.595 -0.272,-0.83 -0.515,-1.566 -0.679,-2.272 a 24.402,24.402 0 0 1 -0.485,-3.373 c -0.057,-0.796 -0.049,-1.238 -0.049,-1.238 l 1.258,-0.018 c 0.796,-0.002 1.917,0.016 3.216,0.066 1.363,-0.057 2.839,0.046 4.457,-0.071 0.819,-0.083 1.586,-0.032 2.42,-0.157 0.828,-0.134 1.621,-0.188 2.41,-0.331 1.584,-0.323 3.048,-0.669 4.363,-1.221 1.309,-0.472 2.47,-1.104 3.638,-1.696 1.153,-0.565 2.378,-1.256 3.773,-1.908 0.354,-0.198 0.69,-0.286 1.074,-0.504 0.372,-0.2 0.755,-0.365 1.14,-0.525 0.8,-0.415 1.605,-0.732 2.491,-1.154 0.858,-0.365 1.799,-0.803 2.735,-1.17 0.963,-0.448 1.938,-0.798 2.971,-1.229 a 86.443,86.443 0 0 1 6.48,-2.285 c 2.24,-0.686 4.615,-1.304 6.939,-1.749 2.308,-0.441 4.574,-0.734 6.795,-0.847 a 61.528,61.528 0 0 0 2.24,7.82 c 0.164,-0.155 0.314,-0.302 0.484,-0.459 l 2.192,-1.944 c 0.779,-0.634 1.595,-1.31 2.467,-1.951 a 52.789,52.789 0 0 1 5.849,-3.85 c 4.346995,-2.487 9.675995,-4.718 16.443995,-5.968 3.383,-0.61 7.127,-0.935 11.238,-0.835 4.094,0.148 8.576,0.674 13.221,1.942 2.337,0.593 4.682,1.413 7.057,2.343 2.36,0.967 4.713,2.1 7.029,3.373 a 82.425,82.425 0 0 1 13.094,9.192 c 4.026,3.494 7.614,7.328 10.774,11.26 3.144,3.947 5.811,8.03 8.166,12.082 2.319,4.065 4.26,8.147 5.979,12.162 0.449,1.008 0.81,2.011 1.214,3.017 l 0.736,2.072 0.187,0.621 0.281,0.793 0.581,1.61 a 105.575,105.575 0 0 0 5.586,12.564 c 2.084,4.024 4.414,7.741 6.816,11.149 a 88.59,88.59 0 0 0 3.725,4.815 44.8,44.8 0 0 0 3.928,4.25 c 2.661,2.722 5.534,4.905 8.524,6.862 0.75,0.474 1.511,0.912 2.277,1.322 0.764,0.438 1.535,0.859 2.31,1.237 1.552,0.769 3.113,1.368 4.659,1.985 a 61.464,61.464 0 0 0 8.681,2.468 53.56,53.56 0 0 0 3.556,0.674 c 1.069,0.208 1.989,0.319 2.75,0.436 l 2.377,0.345 3.743,0.544 a 7.681,7.681 0 0 1 6.367,5.783 z m 256.872,-29.85 c -0.794,-4.583 -2.239,-9.055 -4.238,-13.105 -1.969,-4.074 -4.427,-7.763 -7.109,-11.063 a 70.28,70.28 0 0 0 -4.198,-4.666 200.425,200.425 0 0 0 -3.452,-3.445 l -6.249,-6.232 c -4.15,-4.151 -8.041,-8.213 -11.541,-12.197 -1.715,-1.998 -3.376,-3.984 -4.792,-5.981 -0.773,-0.993 -1.383,-1.995 -2.063,-3 -0.588,-1.007 -1.221,-2.018 -1.713,-3.035 -2.155,-4.052 -3.328,-8.259 -3.581,-12.453 -0.119,-2.09 -0.096,-4.175 0.206,-6.165 0.099,-1.003 0.31,-1.977 0.481,-2.937 0.213,-0.951 0.449,-1.879 0.686,-2.783 1.02,-3.602 2.284,-6.748 3.362,-9.357 1.103,-2.6 2.018,-4.675 2.646,-6.095 0.651,-1.406 0.97,-2.186 0.97,-2.186 l 0.01,-0.024 a 1.11,1.11 0 0 0 -1.733,-1.276 c 0,0 -0.654,0.539 -1.828,1.606 a 69.61,69.61 0 0 0 -4.891,4.881 c -2.012,2.221 -4.309,5.083 -6.647,8.735 -2.299,3.662 -4.699,8.149 -6.408,13.702 -0.884,2.768 -1.42,5.808 -1.773,9.015 -0.358,3.216 -0.328,6.595 -0.003,10.021 0.654,6.877 2.635,13.844 5.529,20.356 2.899,6.514 6.678,12.629 10.952,18.254 1.092,1.381 2.173,2.758 3.329,4.129 l 1.788,2.049 0.903,1.021 0.456,0.507 0.418,0.448 c 1.117,1.209 2.232,2.348 3.4,3.577 0.848,0.87 1.643,1.752 2.37,2.643 2.932,3.567 4.821,7.134 5.664,10.615 0.873,3.477 0.813,7.108 -0.239,10.931 -1.012,3.81 -3.057,7.63 -5.546,11.02 -1.259,1.687 -2.651,3.249 -4.084,4.689 -1.443,1.43 -2.959,2.693 -4.457,3.839 -3.028,2.246 -6.06,3.814 -8.754,4.757 -1.765,0.606 -3.369,0.94 -4.818,1.094 a 71.329,71.329 0 0 1 9.421,16.641 c 4.509,-0.256 9.302,-1.293 14.076,-3.182 2.872,-1.109 5.722,-2.554 8.537,-4.28 2.832,-1.708 5.582,-3.764 8.217,-6.151 1.332,-1.178 2.61,-2.465 3.877,-3.811 a 58.097,58.097 0 0 0 3.595,-4.367 c 2.289,-3.093 4.362,-6.559 6.004,-10.419 1.668,-3.837 2.873,-8.091 3.479,-12.56 0.576,-4.471 0.537,-9.174 -0.259,-13.76 z"
     id="path2" />
  <path
     fill="#af773f"
     d="m 472.14145,222.153 c 0,-1.248 -0.037,-2.435 -0.102,-3.575 l -0.008,-0.126 a 51.095,51.095 0 0 0 -0.233,-2.73 c -3.654,-36.126 -37.675,-66.099 -79.125,-66.099 -79.494,0 -114.374,20.293 -143.957,20.293 -28.108,0 -77.916,-24.235 -82.814,-47.135 a 60.025,60.025 0 0 0 -0.394,-3.523 l -0.002,-0.068 -0.005,0.008 c -3.813,-26.41 -24.716,-47.287 -51.138,-51.055 -4.305,-12.572 -14.658995,-22.659 -17.193995,-24.971 -0.123,-0.097 -0.232,-0.198 -0.352,-0.308 -0.076,-0.056 -0.268,-0.233 -0.268,-0.233 l -0.032,-0.002 c -3.314,-2.794 -7.038,-4.481 -9.456,-5.377 -1.449,-0.537 -3.044,0.265 -3.506,1.74 -0.572,1.822 -1.244,4.431 -1.486,7.216 l -0.014,0.004 c 0.002,0.044 0.013,0.074 -10e-4,0.099 a 35.141,35.141 0 0 0 0.392,8.498 c 0.659,6.234 2.122,11.558 3.821,15.961 -23.764,8.112 -40.862,30.615 -40.862,57.126 -1.417,7.589 -16.014,21.543 -28.04,34.065 l 0.005,10e-4 c -4.862,4.074 -7.9580005,10.186 -7.9580005,17.026 0,11.612 8.9150005,21.128 20.2710005,22.112 0.593,0.064 1.238,0.098 1.939,0.098 0.74,0 1.495,-0.042 2.259,-0.114 l 0.049,-0.006 c 11.514,-1.099 25.624,-10.008 38.095,-18.32 3.286,-2.19 7.206,-3.168 11.146,-2.883 2.252,0.162 4.568,0.096 6.927,-0.231 a 32.074,32.074 0 0 0 4.604,-1 60.924,60.924 0 0 0 4.923,-1.881 32.839,32.839 0 0 0 4.538995,-2.635 c 0.021,0.134 0.05,0.264 0.072,0.398 6.854,-3.662 9.114,-6.224 14.08,-2.026 7.598,6.424 6.555,11.339 4.509,30.464 0.059,0.031 0.115,0.068 0.174,0.099 -0.222,1.971 -0.487,4.056 -0.759,6.291 -0.04,0.147 -0.074,0.297 -0.113,0.444 a 495.273,495.273 0 0 0 -1.406,17.729 62.797,62.797 0 0 1 -0.55,5.363 c 1.61,18.145 10.468,34.195 23.649,45.268 11.945,16.346 14.579,34.768 -4.983,54.33 -21.867,21.867 -35.928,41.133 -16.467,65.783 22.164,31.231 9.022,27.99 37.897,52.999 27.535,23.848 60.972,-21.283 29.179,-27.633 -18.032,-3.602 -29.243,-10.546 -42.176,-22.491 -21.898,-22.041 7.342,-27.087 43.517,-63.262 8.927,-8.927 16.18,-15.478 22.047,-21.277 0.06,0 0.12,0.009 0.181,0.009 91.519,0 110.266,-44.17 148.677,-29.049 -15.259,13.468 -20.675,41.729 -14.483,65.981 l -0.617,-0.419 c 0.315,0.525 0.607,1.019 0.91,1.528 2.191,8.072 5.682,15.659 10.542,22.06 1.775,9.773 -7.525,10.614 -29.855,10.614 -17.656,0 -29.106,11.393 -36.039,22.322 -4.582,6.513 -7.197,16.079 -7.597,35.316 -0.615,29.6 45.736,27.081 38.005,2.026 -5.965,-19.332 -8.362,-30.332 4.868,-36.803 3.923,-1.268 8.666,-2.043 14.454,-2.043 33.339,0 73.133,-1.721 39.356,-37.067 -21.65,-22.656 9.891,-39.93 43.723,-56.278 0.401,-0.194 0.788,-0.396 1.184,-0.592 a 37.024,37.024 0 0 0 5.771,-3.088 c 26.717,-15.396 40.227,-39.927 40.227,-88.971 z"
     id="path3" />
  <path
     fill="#d9dbd5"
     d="m 267.96245,427.053 c -10.692,16.608 -38.054,-16.079 -29.807,-25.856 2.726,-3.231 12.05,-14.659 14.234,-17.233 4.658,11.365 22.022,21.811 22.022,25.1 0,8.497 -5.668,16.776 -6.449,17.989 z M 27.079455,151.948 c -3.226,3.343 -6.558,6.727 -9.714,10.014 l 0.005,0.001 c -4.862,4.074 -7.9580005,10.186 -7.9580005,17.026 0,11.612 8.9150005,21.128 20.2710005,22.112 0.593,0.064 1.238,0.098 1.939,0.098 0.74,0 1.495,-0.043 2.259,-0.114 l 0.049,-0.006 c 10.048,-0.959 22.072,-7.869 33.26,-15.137 -4.441,-16.083 -24.157,-33.793 -40.111,-33.994 z M 182.10745,422.043 c -6.253,11.321 -12.828,21.767 -23.24,28.282 2.907,1.717 13.366,10.661 17.012,12.801 11.031,6.473 42.276,-28.641 20.739,-38.896 -1.303,-0.62 -13.176,-1.977 -14.511,-2.187 z m -88.252995,-46.83 c -9.097,8.087 -16.547,14.892 -28.093,17.178 1.174,4.067 7.579,14.683 10.331,17.889 8.328,9.7 46.168995,-9.536 29.212995,-26.315 -1.026,-1.016 -10.275995,-8.098 -11.450995,-8.752 z m 227.487995,67.775 c -12.911,-0.773 -26.937,-2.749 -37.298,-9.345 -0.299,3.363 -1.322,18.076 -1.684,22.288 -1.096,12.743 44.101,20.83 43.253,1.096 -0.063,-1.441 -3.886,-12.743 -4.271,-14.039 z"
     id="path4" />
  <path
     fill="#2b3b47"
     d="m 81.208455,104.403 a 7.952,7.952 0 0 1 8.507,7.354 l 0.997,13.713 a 7.952,7.952 0 0 1 -15.861,1.153 l -0.997,-13.713 a 7.951,7.951 0 0 1 7.354,-8.507 z m -46.49,65.581 a 4.168,4.168 0 0 0 -3.855,4.459 l 0.523,7.189 a 4.168,4.168 0 1 0 8.314,-0.604 l -0.523,-7.189 a 4.168,4.168 0 0 0 -4.459,-3.855 z"
     id="path5" />
  <path
     fill="#af773f"
     d="m 76.146455,75.313 1.52,0.581 a 3.922,3.922 0 0 0 5.302,-3.875 60.195,60.195 0 0 0 -6.822,3.294 z"
     id="path6" />
  <path
     fill="#af773f"
     d="m 56.286455,60.741 c 0.414,1.349 1.052,2.514 1.679,3.575 0.689,1.038 1.382,1.966 2.148,2.739 0.167,0.19 0.339,0.363 0.515,0.531 0.873,-0.39 1.757,-0.72 2.69,-1.109 a 86.443,86.443 0 0 1 6.48,-2.285 c 2.23,-0.683 4.594,-1.298 6.908,-1.743 -0.118,-0.109 -0.232,-0.22 -0.351,-0.329 -0.698,-0.621 -1.417,-1.258 -2.142,-1.802 -0.726,-0.559 -1.425,-1.112 -2.113,-1.606 a 75.63,75.63 0 0 1 -1.932,-1.444 27.298,27.298 0 0 1 -1.645,-1.294 c -0.469,-0.417 -0.945,-0.806 -1.293,-1.215 -0.353,-0.412 -0.712,-0.847 -0.947,-1.345 -0.268,-0.496 -0.404,-1.048 -0.502,-1.612 -0.06,-0.558 -0.102,-1.137 -0.077,-1.671 0.002,-0.538 0.103,-1.014 0.146,-1.427 l 0.259,-1.312 a 1.562,1.562 0 0 0 -1.672,-1.859 l -0.555,0.049 c 0,0 -0.184,0.016 -0.5,0.084 -0.304,0.078 -0.799,0.164 -1.355,0.369 -0.545,0.229 -1.219,0.508 -1.909,0.99 -0.352,0.239 -0.705,0.507 -1.073,0.83 -0.355,0.335 -0.709,0.704 -1.069,1.127 -0.675,0.869 -1.341,1.945 -1.775,3.244 -0.456,1.286 -0.687,2.767 -0.656,4.246 -0.015,0.753 0.094,1.473 0.213,2.2 0.12,0.703 0.287,1.43 0.528,2.069 z"
     id="path7" />
</svg>
