<?xml version="1.0" encoding="UTF-8" standalone="no"?>
<!-- Created with Inkscape (http://www.inkscape.org/) -->
<svg
   xmlns:dc="http://purl.org/dc/elements/1.1/"
   xmlns:cc="http://creativecommons.org/ns#"
   xmlns:rdf="http://www.w3.org/1999/02/22-rdf-syntax-ns#"
   xmlns:svg="http://www.w3.org/2000/svg"
   xmlns="http://www.w3.org/2000/svg"
   xmlns:sodipodi="http://sodipodi.sourceforge.net/DTD/sodipodi-0.dtd"
   xmlns:inkscape="http://www.inkscape.org/namespaces/inkscape"
   width="421.01721"
   height="633.61548"
   id="svg8893"
   sodipodi:version="0.32"
   inkscape:version="0.46"
   version="1.0"
   sodipodi:docname="hendominium.svg"
   inkscape:output_extension="org.inkscape.output.svg.inkscape">
  <defs
     id="defs8895">
    <inkscape:perspective
       sodipodi:type="inkscape:persp3d"
       inkscape:vp_x="0 : 526.18109 : 1"
       inkscape:vp_y="0 : 1000 : 0"
       inkscape:vp_z="744.09448 : 526.18109 : 1"
       inkscape:persp3d-origin="372.04724 : 350.78739 : 1"
       id="perspective8901" />
  </defs>
  <sodipodi:namedview
     id="base"
     pagecolor="#ffffff"
     bordercolor="#666666"
     borderopacity="1.0"
     gridtolerance="10000"
     guidetolerance="10"
     objecttolerance="10"
     inkscape:pageopacity="0.0"
     inkscape:pageshadow="2"
     inkscape:zoom="0.83015649"
     inkscape:cx="145.46063"
     inkscape:cy="267.41946"
     inkscape:document-units="px"
     inkscape:current-layer="layer1"
     showgrid="false"
     inkscape:window-width="1278"
     inkscape:window-height="730"
     inkscape:window-x="1277"
     inkscape:window-y="24" />
  <metadata
     id="metadata8898">
    <rdf:RDF>
      <cc:Work
         rdf:about="">
        <dc:format>image/svg+xml</dc:format>
        <dc:type
           rdf:resource="http://purl.org/dc/dcmitype/StillImage" />
      </cc:Work>
    </rdf:RDF>
  </metadata>
  <g
     inkscape:label="Layer 1"
     inkscape:groupmode="layer"
     id="layer1"
     transform="translate(-148.06281,-208.41162)">
    <rect
       style="opacity:1;fill:#a2ff46;fill-opacity:1;stroke:#000000;stroke-width:0;stroke-linecap:round;stroke-linejoin:bevel;stroke-miterlimit:4;stroke-dasharray:none;stroke-opacity:1"
       id="rect8908"
       width="633.61548"
       height="421.01721"
       x="208.41162"
       y="-569.08002"
       transform="matrix(0,1,-1,0,0,0)" />
    <rect
       style="fill:#ff0000;fill-opacity:1;stroke:#000000;stroke-width:4;stroke-linecap:round;stroke-linejoin:bevel;stroke-miterlimit:4;stroke-dasharray:none;stroke-opacity:1"
       id="rect7113"
       width="31.270035"
       height="77.270035"
       x="191.0883"
       y="672.61151" />
    <rect
       style="fill:#ff0000;fill-opacity:1;stroke:#000000;stroke-width:4;stroke-linecap:round;stroke-linejoin:bevel;stroke-miterlimit:4;stroke-dasharray:none;stroke-opacity:1"
       id="rect7115"
       width="31.468674"
       height="70.468674"
       x="494.70328"
       y="679.51221" />
    <path
       style="fill:#ff0000;fill-opacity:1;stroke:#000000;stroke-width:4;stroke-linecap:round;stroke-linejoin:bevel;stroke-miterlimit:4;stroke-dasharray:none;stroke-opacity:1"
       d="M 358.57142,257.56502 L 174.54017,352.47127 L 190.63392,352.47127 L 190.63392,710.31502 L 526.50892,710.31502 L 526.50892,352.47127 L 542.60267,352.47127 L 358.57142,257.56502 z"
       id="rect5426"
       sodipodi:nodetypes="cccccccc" />
    <rect
       style="fill:#000000;fill-opacity:1;stroke:#000000;stroke-width:0.87412381;stroke-linecap:round;stroke-linejoin:miter;stroke-miterlimit:4;stroke-dasharray:none;stroke-opacity:1"
       id="rect7111"
       width="109.27082"
       height="130.93074"
       x="303.936"
       y="570.91956" />
    <path
       style="fill:#ff0000;fill-opacity:1;fill-rule:evenodd;stroke:#000000;stroke-width:4;stroke-linecap:butt;stroke-linejoin:miter;stroke-miterlimit:4;stroke-dasharray:none;stroke-opacity:1"
       d="M 335.07142,685.3022 L 288.07142,752.3022 L 429.07142,752.3022 L 382.07142,685.3022 L 335.07142,685.3022 z"
       id="path7123"
       sodipodi:nodetypes="ccccc" />
    <path
       style="fill:#58ff00;fill-opacity:1;fill-rule:evenodd;stroke:#279500;stroke-width:0;stroke-linecap:butt;stroke-linejoin:miter;stroke-miterlimit:4;stroke-dasharray:none;stroke-opacity:1"
       d="M 403.46408,817.23115 C 396.53311,813.67995 400.41421,750.64525 405.23971,750.64525 C 415.10119,770.76895 421.69563,790.89275 422.10815,811.01655 C 419.50285,770.50215 425.14231,734.11015 431.87409,698.26428 C 444.19799,736.07735 455.68683,773.75135 454.06941,809.24085 C 455.47495,779.57295 461.2644,754.28895 474.4891,736.44025 C 481.21108,759.36275 488.17514,782.23675 483.36723,807.46525 C 486.17164,761.54915 499.96176,729.36525 511.77724,694.71303 C 516.15207,732.87615 523.09204,771.55225 516.2163,807.46525 C 520.79759,782.00315 526.78857,759.36045 538.41162,747.98185 C 545.76113,773.18585 546.44652,797.05715 541.96287,819.89465 L 403.46408,817.23115 z"
       id="path8068"
       sodipodi:nodetypes="cccccccccccc" />
    <path
       style="fill:#58ff00;fill-opacity:1;fill-rule:evenodd;stroke:#000000;stroke-width:0;stroke-linecap:butt;stroke-linejoin:miter;stroke-miterlimit:4;stroke-dasharray:none;stroke-opacity:1"
       d="M 165.51089,826.1525 C 157.69409,812.55977 162.9329,796.79112 169.06214,780.87405 C 182.75613,793.46482 192.90786,806.76404 194.80871,821.71344 C 191.38915,801.9383 198.08346,786.2087 206.35027,771.10811 C 216.51002,787.15476 225.27075,803.66775 221.44309,824.37687 C 224.62558,809.08147 227.67466,793.68601 240.08715,785.31311 C 249.18395,800.10999 247.98978,814.90687 245.41403,829.70375 L 165.51089,826.1525 z"
       id="path8075"
       sodipodi:nodetypes="cccccccc" />
    <g
       id="g3866"
       transform="translate(8.4321498,0)">
      <g
         transform="translate(-20.773081,30.409184)"
         id="g3797">
        <rect
           style="fill:#000000;fill-opacity:1;stroke:#000000;stroke-width:0.87400001;stroke-linecap:round;stroke-linejoin:miter;stroke-miterlimit:4;stroke-dasharray:none;stroke-opacity:1"
           id="rect3280"
           width="69.519279"
           height="74.314903"
           x="235.56927"
           y="374.22797" />
        <rect
           style="opacity:1;fill:#ff0000;fill-opacity:1;stroke:#000000;stroke-width:0;stroke-linecap:round;stroke-linejoin:bevel;stroke-miterlimit:4;stroke-dasharray:none;stroke-opacity:1"
           id="rect3282"
           width="12.045922"
           height="90.344406"
           x="264.30594"
           y="365.00861" />
        <rect
           style="opacity:1;fill:#ff0000;fill-opacity:1;stroke:#000000;stroke-width:0;stroke-linecap:round;stroke-linejoin:bevel;stroke-miterlimit:4;stroke-dasharray:none;stroke-opacity:1"
           id="rect3793"
           width="12.045922"
           height="90.344406"
           x="405.36246"
           y="-318.5126"
           transform="matrix(0,1,-1,0,0,0)" />
      </g>
      <g
         transform="translate(76.798862,30.409184)"
         id="g3802">
        <rect
           style="fill:#000000;fill-opacity:1;stroke:#000000;stroke-width:0.87400001;stroke-linecap:round;stroke-linejoin:miter;stroke-miterlimit:4;stroke-dasharray:none;stroke-opacity:1"
           id="rect3804"
           width="69.519279"
           height="74.314903"
           x="235.56927"
           y="374.22797" />
        <rect
           style="opacity:1;fill:#ff0000;fill-opacity:1;stroke:#000000;stroke-width:0;stroke-linecap:round;stroke-linejoin:bevel;stroke-miterlimit:4;stroke-dasharray:none;stroke-opacity:1"
           id="rect3806"
           width="12.045922"
           height="90.344406"
           x="264.30594"
           y="365.00861" />
        <rect
           style="opacity:1;fill:#ff0000;fill-opacity:1;stroke:#000000;stroke-width:0;stroke-linecap:round;stroke-linejoin:bevel;stroke-miterlimit:4;stroke-dasharray:none;stroke-opacity:1"
           id="rect3808"
           width="12.045922"
           height="90.344406"
           x="405.36246"
           y="-318.5126"
           transform="matrix(0,1,-1,0,0,0)" />
      </g>
      <g
         transform="translate(174.37082,30.409184)"
         id="g3810">
        <rect
           style="fill:#000000;fill-opacity:1;stroke:#000000;stroke-width:0.87400001;stroke-linecap:round;stroke-linejoin:miter;stroke-miterlimit:4;stroke-dasharray:none;stroke-opacity:1"
           id="rect3812"
           width="69.519279"
           height="74.314903"
           x="235.56927"
           y="374.22797" />
        <rect
           style="opacity:1;fill:#ff0000;fill-opacity:1;stroke:#000000;stroke-width:0;stroke-linecap:round;stroke-linejoin:bevel;stroke-miterlimit:4;stroke-dasharray:none;stroke-opacity:1"
           id="rect3814"
           width="12.045922"
           height="90.344406"
           x="264.30594"
           y="365.00861" />
        <rect
           style="opacity:1;fill:#ff0000;fill-opacity:1;stroke:#000000;stroke-width:0;stroke-linecap:round;stroke-linejoin:bevel;stroke-miterlimit:4;stroke-dasharray:none;stroke-opacity:1"
           id="rect3816"
           width="12.045922"
           height="90.344406"
           x="405.36246"
           y="-318.5126"
           transform="matrix(0,1,-1,0,0,0)" />
      </g>
    </g>
    <path
       style="fill:#58ff00;fill-opacity:1;fill-rule:evenodd;stroke:#000000;stroke-width:0;stroke-linecap:butt;stroke-linejoin:miter;stroke-miterlimit:4;stroke-dasharray:none;stroke-opacity:1"
       d="M 475.34519,272.70514 C 467.52839,259.11241 472.7672,243.34376 478.89644,227.42669 C 492.59043,240.01746 502.74216,253.31668 504.64301,268.26608 C 501.22345,248.49094 507.91776,232.76134 516.18457,217.66075 C 526.34432,233.7074 535.10505,250.22039 531.27739,270.92951 C 534.45988,255.63411 537.50896,240.23865 549.92145,231.86575 C 559.01825,246.66263 557.82408,261.45951 555.24833,276.25639 L 475.34519,272.70514 z"
       id="path3852"
       sodipodi:nodetypes="cccccccc" />
  </g>
</svg>
