<?xml version="1.0" encoding="UTF-8" standalone="no"?>
<svg
   shape-rendering="geometricPrecision"
   text-rendering="geometricPrecision"
   image-rendering="optimizeQuality"
   fill-rule="evenodd"
   clip-rule="evenodd"
   viewBox="0 0 525 525.00001"
   version="1.1"
   id="svg5"
   sodipodi:docname="mongoose.svg"
   width="525"
   height="525"
   inkscape:version="1.3.1 (91b66b0783, 2023-11-16)"
   xmlns:inkscape="http://www.inkscape.org/namespaces/inkscape"
   xmlns:sodipodi="http://sodipodi.sourceforge.net/DTD/sodipodi-0.dtd"
   xmlns="http://www.w3.org/2000/svg"
   xmlns:svg="http://www.w3.org/2000/svg">
  <defs
     id="defs5" />
  <sodipodi:namedview
     id="namedview5"
     pagecolor="#ffffff"
     bordercolor="#666666"
     borderopacity="1.0"
     inkscape:showpageshadow="2"
     inkscape:pageopacity="0.0"
     inkscape:pagecheckerboard="0"
     inkscape:deskcolor="#d1d1d1"
     inkscape:zoom="1.2514286"
     inkscape:cx="262.10046"
     inkscape:cy="262.10046"
     inkscape:window-width="1920"
     inkscape:window-height="956"
     inkscape:window-x="-12"
     inkscape:window-y="-12"
     inkscape:window-maximized="1"
     inkscape:current-layer="svg5" />
  <path
     fill="#824322"
     d="m 339.45655,108.90241 47.073,-12.756005 c 30.072,-7.681 42.643,-13.285 64.787,0.511 18.977,11.823005 32.835,26.241005 47.15,43.469005 15.14,18.222 28.133,38.918 13.89,42.453 -2.743,0.681 -6.298,0.378 -10.587,-0.578 -18.52,5.745 -52.019,-0.035 -69.416,-7.424 -9.155,-1.237 -15.373,-0.195 -20.708,3.777 -5.786,5.094 -7.565,10.483 -13.078,16.106 -1.897,4.744 6.707,7.097 19.611,6.907 8.182,-0.872 17.972,-3.359 25.716,0.246 6.346,-0.369 9.819,1.597 11.724,5.551 l 1.674,3.042 c -5.365,-3.886 -8.373,-2.797 -9.322,2.638 -5.356,-2.76 -8.134,-1.738 -8.585,2.698 -5.13,1.15 -10.039,1.489 -14.808,1.316 -4.351,0.704 -8.724,1.091 -13.112,1.246 -6.073,0.214 -12.177,-0.014 -18.294,-0.456 -13.176,-1.384 -26.616,-1.3 -40.27,-0.045 4.806,2.361 10.35,3.564 16.836,3.285 3.488,-0.511 6.817,-0.392 9.989,0.36 3.584,-0.238 6.735,0.546 9.45,2.989 4.361,0.436 8.185,1.499 10.651,4.143 -4.104,-0.811 -7.238,-0.727 -9.29,0.355 3.123,1.156 5.969,3.007 8.462,5.741 -3.023,-1.22 -6.111,-1.779 -9.291,-1.42 0.77,3.974 -2.032,4.96 -8.048,3.254 0.971,0.962 1.888,1.977 2.583,3.214 -2.118,-0.003 -4.159,-0.367 -6.003,-1.655 l -1.759,2.691 c -12.107,-0.618 -20.656,-1.535 -32.627,-3.37 -9.648,-0.584 -18.816,-3.455 -27.234,-9.878 -9.434,1.343 -14.131,5.636 -24.224,5.704 -14.095,0.092 -15.252,1.045 -29.214,4.005 -17.902,3.796 -28.953,4.893 -46.783,11.882 -10.079,3.951 -23.13,9.124 -34.179,14.651 a 153.488,153.488 0 0 0 -6.416,3.39 c -3.77,2.116 -4.282,1.774 -0.043,3.345 4.255,1.576 9.633,2.979 15.709,4.271 11.023,2.347 19.408,2.547 29.482,8.279 2.424,1.379 5.609,3.185 7.611,5.02 -1.436,-0.183 -3.122,-0.249 -4.348,0.089 1.417,1.012 2.415,2.024 2.372,3.036 -2.476,-1.062 -4.111,-1.658 -6.065,-1.469 -1.545,0.891 -2.663,2.148 -3.476,3.664 -2.64,-1.302 -4.775,-1.247 -7.31,0.056 0.076,-1.399 -0.122,-2.548 -0.818,-3.246 -1.012,0.905 -1.419,2.252 -1.659,3.719 -3.504,-2.553 -7.175,-3.78 -11.107,-2.91 l 0.528,3.351 c -38.312,-0.407 -42.045,0.553 -73.702,-21.688 -16.908,0.981 -28.062001,-1.124 -37.136001,-9.24 -11.909,17.281 -31.988,32.268 -35.215,51.936 -1.149,6.995 -0.117,16.426 1.741,26.252 4.027,21.294 14.929,44.955 7.801,65.856 -3.351,9.823 -9.825,19.221 -19.139,28.231 -5.775,3.177 -12.247,0.601 -7.387,-10.342 4.21,-7.398 6.834,-14.851 7.597,-22.368 2.131,-20.98 -19.969,-49.302 -27.798,-72.681 -10.3359998,-30.873 -10.1729998,-58.735 7.623,-78.326 12.908,-14.209 22.794,-28.416 34.002,-49.21 18.117,-33.612 15.39,-44.706 53.109001,-63.532 34.892,-17.414 66.432,-23.853 105.337,-24.038 30.263,-0.144 70.661,8.857 97.521,1.59 z"
     id="path1"
     style="fill:#aa8561;fill-opacity:1" />
  <path
     style="fill:#3e2f1f;fill-opacity:1"
     d="m 516.67755,167.45741 c 3.091,7.6 2.619,13.399 -4.321,15.122 -0.784,0.195 -1.635,0.308 -2.55,0.35 -1.348,-1.332 -2.159,-2.998 -2.184,-4.814 -0.052,-3.77 4.191,-9.045 9.055,-10.658 z"
     id="path6" />
  <path
     style="fill:#d5c0aa;fill-opacity:1"
     d="m 295.54355,232.84941 c -0.992,0.1 -2.037,0.159 -3.147,0.166 -14.095,0.093 -15.252,1.046 -29.214,4.006 -17.902,3.796 -28.953,4.894 -46.783,11.882 -10.079,3.951 -23.13,9.124 -34.179,14.651 a 153.488,153.488 0 0 0 -6.416,3.39 c -1.54,0.865 -2.537,1.319 -2.887,1.661 l -0.309,0.09 c 14.345,-57.999 80.979,-56.349 131.061,-60.277 l 13.548,18.112 z"
     id="path2" />
  <ellipse
     fill="#5d2e1a"
     transform="matrix(0.82678186,0.56252267,-0.56252521,0.82678013,0,0)"
     rx="7.9401584"
     ry="7.393867"
     id="ellipse2"
     cx="479.76923"
     cy="-147.84059"
     style="stroke-width:1.04054;fill:#e68d2f;fill-opacity:1" />
  <ellipse
     fill="#ffffff"
     transform="matrix(0.8267728,0.56253598,-0.56253278,0.82677498,0,0)"
     rx="4.6904664"
     ry="4.367784"
     id="ellipse3"
     cx="479.24432"
     cy="-147.1619"
     style="stroke-width:0.614677" />
  <path
     d="m 480.08255,146.34441 c 0.936,0.637 1.214,1.859 0.621,2.731 -0.593,0.871 -1.832,1.061 -2.767,0.424 -0.937,-0.636 -1.214,-1.859 -0.621,-2.73 0.592,-0.871 1.831,-1.061 2.767,-0.425 z"
     id="path3" />
  <path
     fill="#5d2e1a"
     fill-rule="nonzero"
     d="m 454.22655,110.70741 -13.613,6.229 c -0.292,0.15 -0.618,0.248 -0.966,0.283 -0.65,0.065 -1.197,0.207 -1.649,0.409 -0.916,0.41 -1.497,1.157 -1.831,2.06 -0.423,1.147 -0.5,2.544 -0.36,3.945 a 14.878,14.878 0 0 0 1.115,4.332 c 0.423,0.85 0.387,1.897 -0.186,2.737 -0.767,1.12 -1.231,2.375 -1.475,3.725 -0.264,1.454 -0.282,3.067 -0.151,4.778 a 2.72,2.72 0 0 1 -0.732,2.057 c -1.487,1.578 -2.963,2.739 -4.425,3.48 -1.68,0.854 -3.344,1.163 -4.983,0.931 -3.656,-0.518 -6.148,-3.323 -7.822,-6.929 -2.165,-4.669 -2.986,-10.878 -3.155,-14.259 -0.169,-3.378 0.72,-6.62 2.206,-9.605 1.752,-3.52 4.355,-6.699 6.985,-9.298 a 28.105,28.105 0 0 1 4.171,-3.416 25.012,25.012 0 0 1 4.763,-2.486005 l 0.159,-0.054 c 4.628,-1.496 8.879,-1.663 12.747,-0.493 3.877,1.171005 7.284,3.657005 10.219,7.460005 a 2.704,2.704 0 0 1 -1.017,4.114 z"
     id="path4"
     style="fill:#ac7742;fill-opacity:1" />
  <path
     fill="#67331d"
     d="m 439.38255,114.52641 13.72,-6.278 c -5.159,-6.687 -11.83,-8.686005 -19.998,-6.046 -3.009,1.174 -5.664,2.98 -8.022,5.31 -4.408,4.354 -8.708,10.421 -8.386,16.845 0.263,5.249 2.175,17.718 8.645,18.634 2.167,0.308 4.522,-0.885 7.066,-3.584 -0.293,-3.806 0.109,-7.335 2.092,-10.232 -2.131,-4.754 -2.959,-13.864 4.883,-14.649 z m -396.987001,319.8 -0.594,0.58 c -5.774,3.177 -12.246,0.601 -7.387,-10.342 4.21,-7.398 6.834,-14.851 7.597,-22.368 2.131,-20.98 -19.969,-49.302 -27.797,-72.681 -10.3369998,-30.873 -10.1739998,-58.735 7.622,-78.325 9.837,-10.83 17.919,-21.658 26.169,-35.401 0,16.516 -7.26,21.816 -18.527,34.219 -17.795,19.59 -17.959,47.453 -7.622,78.325 7.828,23.38 29.928,51.701 27.797,72.682 -0.763,7.516 -3.387,14.969 -7.597,22.368 -2.703,6.087 -1.9,9.583 0.339,10.943 z"
     id="path5"
     style="fill:#d5c0aa;fill-opacity:1" />
</svg>
