<svg xmlns="http://www.w3.org/2000/svg" shape-rendering="geometricPrecision" text-rendering="geometricPrecision" image-rendering="optimizeQuality" fill-rule="evenodd" clip-rule="evenodd" viewBox="0 0 512 348.525"><path fill="#824322" d="M332.957 20.665L380.03 7.909c30.072-7.681 42.643-13.285 64.787.511 18.977 11.823 32.835 26.241 47.15 43.469 15.14 18.222 28.133 38.918 13.89 42.453-2.743.681-6.298.378-10.587-.578-18.52 5.745-52.019-.035-69.416-7.424-9.155-1.237-15.373-.195-20.708 3.777-5.786 5.094-7.565 10.483-13.078 16.106-1.897 4.744 6.707 7.097 19.611 6.907 8.182-.872 17.972-3.359 25.716.246 6.346-.369 9.819 1.597 11.724 5.551l1.674 3.042c-5.365-3.886-8.373-2.797-9.322 2.638-5.356-2.76-8.134-1.738-8.585 2.698-5.13 1.15-10.039 1.489-14.808 1.316-4.351.704-8.724 1.091-13.112 1.246-6.073.214-12.177-.014-18.294-.456-13.176-1.384-26.616-1.3-40.27-.045 4.806 2.361 10.35 3.564 16.836 3.285 3.488-.511 6.817-.392 9.989.36 3.584-.238 6.735.546 9.45 2.989 4.361.436 8.185 1.499 10.651 4.143-4.104-.811-7.238-.727-9.29.355 3.123 1.156 5.969 3.007 8.462 5.741-3.023-1.22-6.111-1.779-9.291-1.42.77 3.974-2.032 4.96-8.048 3.254.971.962 1.888 1.977 2.583 3.214-2.118-.003-4.159-.367-6.003-1.655l-1.759 2.691c-12.107-.618-20.656-1.535-32.627-3.37-9.648-.584-18.816-3.455-27.234-9.878-9.434 1.343-14.131 5.636-24.224 5.704-14.095.092-15.252 1.045-29.214 4.005-17.902 3.796-28.953 4.893-46.783 11.882-10.079 3.951-23.13 9.124-34.179 14.651a153.488 153.488 0 00-6.416 3.39c-3.77 2.116-4.282 1.774-.043 3.345 4.255 1.576 9.633 2.979 15.709 4.271 11.023 2.347 19.408 2.547 29.482 8.279 2.424 1.379 5.609 3.185 7.611 5.02-1.436-.183-3.122-.249-4.348.089 1.417 1.012 2.415 2.024 2.372 3.036-2.476-1.062-4.111-1.658-6.065-1.469-1.545.891-2.663 2.148-3.476 3.664-2.64-1.302-4.775-1.247-7.31.056.076-1.399-.122-2.548-.818-3.246-1.012.905-1.419 2.252-1.659 3.719-3.504-2.553-7.175-3.78-11.107-2.91l.528 3.351c-38.312-.407-42.045.553-73.702-21.688-16.908.981-28.062-1.124-37.136-9.24-11.909 17.281-31.988 32.268-35.215 51.936-1.149 6.995-.117 16.426 1.741 26.252 4.027 21.294 14.929 44.955 7.801 65.856-3.351 9.823-9.825 19.221-19.139 28.231-5.775 3.177-12.247.601-7.387-10.342 4.21-7.398 6.834-14.851 7.597-22.368 2.131-20.98-19.969-49.302-27.798-72.681-10.336-30.873-10.173-58.735 7.623-78.326 12.908-14.209 22.794-28.416 34.002-49.21C66.685 80.72 63.958 69.626 101.677 50.8c34.892-17.414 66.432-23.853 105.337-24.038 30.263-.144 70.661 8.857 97.521 1.59l28.422-7.687z"/><path fill="#67331D" d="M289.044 144.612c-.992.1-2.037.159-3.147.166-14.095.093-15.252 1.046-29.214 4.006-17.902 3.796-28.953 4.894-46.783 11.882-10.079 3.951-23.13 9.124-34.179 14.651a153.488 153.488 0 00-6.416 3.39c-1.54.865-2.537 1.319-2.887 1.661l-.309.09c14.345-57.999 80.979-56.349 131.061-60.277l13.548 18.112-21.674 6.319zM510.178 79.22c3.091 7.6 2.619 13.399-4.321 15.122-.784.195-1.635.308-2.55.35-1.348-1.332-2.159-2.998-2.184-4.814-.052-3.77 4.191-9.045 9.055-10.658z"/><ellipse fill="#5D2E1A" transform="matrix(.8826 .6005 -.57054 .83856 473.329 59.412)" rx="7.438" ry="7.29"/><ellipse fill="#fff" transform="matrix(.52137 .35474 -.33704 .49536 472.51 59.685)" rx="7.438" ry="7.29"/><path d="M473.583 58.107c.936.637 1.214 1.859.621 2.731-.593.871-1.832 1.061-2.767.424-.937-.636-1.214-1.859-.621-2.73.592-.871 1.831-1.061 2.767-.425z"/><path fill="#5D2E1A" fill-rule="nonzero" d="M447.727 22.47l-13.613 6.229c-.292.15-.618.248-.966.283-.65.065-1.197.207-1.649.409-.916.41-1.497 1.157-1.831 2.06-.423 1.147-.5 2.544-.36 3.945a14.878 14.878 0 001.115 4.332c.423.85.387 1.897-.186 2.737-.767 1.12-1.231 2.375-1.475 3.725-.264 1.454-.282 3.067-.151 4.778a2.72 2.72 0 01-.732 2.057c-1.487 1.578-2.963 2.739-4.425 3.48-1.68.854-3.344 1.163-4.983.931-3.656-.518-6.148-3.323-7.822-6.929-2.165-4.669-2.986-10.878-3.155-14.259-.169-3.378.72-6.62 2.206-9.605 1.752-3.52 4.355-6.699 6.985-9.298a28.105 28.105 0 014.171-3.416 25.012 25.012 0 014.763-2.486l.159-.054c4.628-1.496 8.879-1.663 12.747-.493 3.877 1.171 7.284 3.657 10.219 7.46a2.704 2.704 0 01-1.017 4.114z"/><path fill="#67331D" d="M432.883 26.289l13.72-6.278c-5.159-6.687-11.83-8.686-19.998-6.046-3.009 1.174-5.664 2.98-8.022 5.31-4.408 4.354-8.708 10.421-8.386 16.845.263 5.249 2.175 17.718 8.645 18.634 2.167.308 4.522-.885 7.066-3.584-.293-3.806.109-7.335 2.092-10.232-2.131-4.754-2.959-13.864 4.883-14.649zM35.896 346.089l-.594.58c-5.774 3.177-12.246.601-7.387-10.342 4.21-7.398 6.834-14.851 7.597-22.368 2.131-20.98-19.969-49.302-27.797-72.681-10.337-30.873-10.174-58.735 7.622-78.325 9.837-10.83 17.919-21.658 26.169-35.401 0 16.516-7.26 21.816-18.527 34.219-17.795 19.59-17.959 47.453-7.622 78.325 7.828 23.38 29.928 51.701 27.797 72.682-.763 7.516-3.387 14.969-7.597 22.368-2.703 6.087-1.9 9.583.339 10.943z"/></svg>