<?xml version="1.0" encoding="UTF-8" standalone="no"?>
<!-- Created with Inkscape (http://www.inkscape.org/) -->
<svg
   xmlns:dc="http://purl.org/dc/elements/1.1/"
   xmlns:cc="http://creativecommons.org/ns#"
   xmlns:rdf="http://www.w3.org/1999/02/22-rdf-syntax-ns#"
   xmlns:svg="http://www.w3.org/2000/svg"
   xmlns="http://www.w3.org/2000/svg"
   xmlns:sodipodi="http://sodipodi.sourceforge.net/DTD/sodipodi-0.dtd"
   xmlns:inkscape="http://www.inkscape.org/namespaces/inkscape"
   width="306"
   height="306"
   id="svg2"
   sodipodi:version="0.32"
   inkscape:version="0.46"
   sodipodi:docname="fox_death.svg"
   inkscape:output_extension="org.inkscape.output.svg.inkscape"
   version="1.0">
  <defs
     id="defs4">
    <inkscape:perspective
       sodipodi:type="inkscape:persp3d"
       inkscape:vp_x="0 : 526.18109 : 1"
       inkscape:vp_y="0 : 1000 : 0"
       inkscape:vp_z="744.09448 : 526.18109 : 1"
       inkscape:persp3d-origin="372.04724 : 350.78739 : 1"
       id="perspective10" />
    <inkscape:perspective
       id="perspective2447"
       inkscape:persp3d-origin="372.04724 : 350.78739 : 1"
       inkscape:vp_z="744.09448 : 526.18109 : 1"
       inkscape:vp_y="0 : 1000 : 0"
       inkscape:vp_x="0 : 526.18109 : 1"
       sodipodi:type="inkscape:persp3d" />
  </defs>
  <sodipodi:namedview
     id="base"
     pagecolor="#ffffff"
     bordercolor="#666666"
     borderopacity="1.0"
     gridtolerance="10000"
     guidetolerance="10"
     objecttolerance="10"
     inkscape:pageopacity="0.0"
     inkscape:pageshadow="2"
     inkscape:zoom="1.7470606"
     inkscape:cx="125.27482"
     inkscape:cy="152.54193"
     inkscape:document-units="px"
     inkscape:current-layer="layer1"
     showgrid="false"
     inkscape:window-width="1278"
     inkscape:window-height="735"
     inkscape:window-x="0"
     inkscape:window-y="19" />
  <metadata
     id="metadata7">
    <rdf:RDF>
      <cc:Work
         rdf:about="">
        <dc:format>image/svg+xml</dc:format>
        <dc:type
           rdf:resource="http://purl.org/dc/dcmitype/StillImage" />
      </cc:Work>
    </rdf:RDF>
  </metadata>
  <g
     inkscape:label="Layer 1"
     inkscape:groupmode="layer"
     id="layer1"
     transform="translate(-250.28592,-336.13744)">
    <g
       transform="matrix(0.63,0,0,0.63,139.25925,182.73707)"
       id="g6873">
      <path
         transform="translate(268.20852,330.03039)"
         d="M 313.22703,90.619146 C 333.69611,137.19998 272.29524,147.86919 263.48281,197.98006 C 255.36321,244.15121 310.26597,275.1635 275.2759,306.36283 C 237.30019,340.22436 208.17925,285.12562 157.7978,292.22962 C 111.37733,298.77509 98.848777,360.57404 58.363921,336.93763 C 14.424556,311.28437 57.827701,266.56227 35.502677,220.84191 C 14.932845,178.71608 -47.712981,185.89765 -37.74393,140.09021 C -26.924237,90.374098 29.021318,117.83305 65.605151,82.472326 C 99.312765,49.891657 73.124064,-7.4688381 119.77013,-12.142984 C 170.39644,-17.215968 161.56954,44.476699 206.50462,68.342926 C 247.9069,90.332793 294.36722,47.70049 313.22703,90.619146 z"
         inkscape:randomized="0"
         inkscape:rounded="0.43"
         inkscape:flatsided="false"
         sodipodi:arg2="0.21421339"
         sodipodi:arg1="-0.4541916"
         sodipodi:r2="120.45738"
         sodipodi:r1="186.34035"
         sodipodi:cy="172.37337"
         sodipodi:cx="145.77861"
         sodipodi:sides="5"
         id="path6286"
         style="opacity:1;fill:#ff2200;fill-opacity:1;stroke:#ffba00;stroke-width:0;stroke-linecap:round;stroke-linejoin:round;stroke-miterlimit:4;stroke-dasharray:none;stroke-opacity:1"
         sodipodi:type="star" />
      <path
         transform="matrix(0.8960172,-0.4440193,0.4440193,0.8960172,23.235837,337.54531)"
         d="M 91.604126,331.44934 A 28.072231,21.177298 0 1 1 35.459663,331.44934 A 28.072231,21.177298 0 1 1 91.604126,331.44934 z"
         sodipodi:ry="21.177298"
         sodipodi:rx="28.072231"
         sodipodi:cy="331.44934"
         sodipodi:cx="63.531895"
         id="path6809"
         style="opacity:1;fill:#ff2200;fill-opacity:1;stroke:#f9ff42;stroke-width:0;stroke-linecap:round;stroke-linejoin:round;stroke-miterlimit:4;stroke-dasharray:none;stroke-opacity:1"
         sodipodi:type="arc" />
      <path
         transform="matrix(0.7160083,-0.6980918,0.6980918,0.7160083,204.09505,120.31618)"
         d="M 91.604126,331.44934 A 28.072231,21.177298 0 1 1 35.459663,331.44934 A 28.072231,21.177298 0 1 1 91.604126,331.44934 z"
         sodipodi:ry="21.177298"
         sodipodi:rx="28.072231"
         sodipodi:cy="331.44934"
         sodipodi:cx="63.531895"
         id="path6811"
         style="opacity:1;fill:#ff2200;fill-opacity:1;stroke:#f9ff42;stroke-width:0;stroke-linecap:round;stroke-linejoin:round;stroke-miterlimit:4;stroke-dasharray:none;stroke-opacity:1"
         sodipodi:type="arc" />
      <path
         transform="matrix(0.913116,0.4076999,-0.4076999,0.913116,297.06384,69.44111)"
         d="M 91.604126,331.44934 A 28.072231,21.177298 0 1 1 35.459663,331.44934 A 28.072231,21.177298 0 1 1 91.604126,331.44934 z"
         sodipodi:ry="21.177298"
         sodipodi:rx="28.072231"
         sodipodi:cy="331.44934"
         sodipodi:cx="63.531895"
         id="path6813"
         style="opacity:1;fill:#ff2200;fill-opacity:1;stroke:#f9ff42;stroke-width:0;stroke-linecap:round;stroke-linejoin:round;stroke-miterlimit:4;stroke-dasharray:none;stroke-opacity:1"
         sodipodi:type="arc" />
      <path
         transform="matrix(0.8572962,0.5148235,-0.5148235,0.8572962,735.03743,344.12928)"
         d="M 91.604126,331.44934 A 28.072231,21.177298 0 1 1 35.459663,331.44934 A 28.072231,21.177298 0 1 1 91.604126,331.44934 z"
         sodipodi:ry="21.177298"
         sodipodi:rx="28.072231"
         sodipodi:cy="331.44934"
         sodipodi:cx="63.531895"
         id="path6815"
         style="opacity:1;fill:#ff2200;fill-opacity:1;stroke:#f9ff42;stroke-width:0;stroke-linecap:round;stroke-linejoin:round;stroke-miterlimit:4;stroke-dasharray:none;stroke-opacity:1"
         sodipodi:type="arc" />
    </g>
  </g>
</svg>
