<?xml version="1.0" encoding="UTF-8" standalone="no"?>
<!-- Created with Inkscape (http://www.inkscape.org/) -->
<svg
   xmlns:dc="http://purl.org/dc/elements/1.1/"
   xmlns:cc="http://creativecommons.org/ns#"
   xmlns:rdf="http://www.w3.org/1999/02/22-rdf-syntax-ns#"
   xmlns:svg="http://www.w3.org/2000/svg"
   xmlns="http://www.w3.org/2000/svg"
   xmlns:sodipodi="http://sodipodi.sourceforge.net/DTD/sodipodi-0.dtd"
   xmlns:inkscape="http://www.inkscape.org/namespaces/inkscape"
   width="525"
   height="525"
   id="svg2"
   sodipodi:version="0.32"
   inkscape:version="0.46"
   version="1.0"
   sodipodi:docname="rinkhals.svg"
   inkscape:output_extension="org.inkscape.output.svg.inkscape">
  <defs
     id="defs4">
    <inkscape:perspective
       sodipodi:type="inkscape:persp3d"
       inkscape:vp_x="0 : 526.18109 : 1"
       inkscape:vp_y="0 : 1000 : 0"
       inkscape:vp_z="744.09448 : 526.18109 : 1"
       inkscape:persp3d-origin="372.04724 : 350.78739 : 1"
       id="perspective10" />
    <inkscape:perspective
       id="perspective2447"
       inkscape:persp3d-origin="372.04724 : 350.78739 : 1"
       inkscape:vp_z="744.09448 : 526.18109 : 1"
       inkscape:vp_y="0 : 1000 : 0"
       inkscape:vp_x="0 : 526.18109 : 1"
       sodipodi:type="inkscape:persp3d" />
  </defs>
  <sodipodi:namedview
     id="base"
     pagecolor="#ffffff"
     bordercolor="#666666"
     borderopacity="1.0"
     gridtolerance="10000"
     guidetolerance="10"
     objecttolerance="10"
     inkscape:pageopacity="0.0"
     inkscape:pageshadow="2"
     inkscape:zoom="1.5314286"
     inkscape:cx="241.60448"
     inkscape:cy="262.17351"
     inkscape:document-units="px"
     inkscape:current-layer="layer1"
     showgrid="false"
     inkscape:window-width="1280"
     inkscape:window-height="1007"
     inkscape:window-x="0"
     inkscape:window-y="0" />
  <metadata
     id="metadata7">
    <rdf:RDF>
      <cc:Work
         rdf:about="">
        <dc:format>image/svg+xml</dc:format>
        <dc:type
           rdf:resource="http://purl.org/dc/dcmitype/StillImage" />
      </cc:Work>
    </rdf:RDF>
  </metadata>
  <g
     inkscape:label="Layer 1"
     inkscape:groupmode="layer"
     id="layer1"
     transform="translate(-169.70945,-261.08105)">
    <g
       id="g5048">
      <path
         sodipodi:nodetypes="ccccccccccszcccccscszccsssccscccccccccc"
         id="path2497"
         d="M 426.53161,262.72976 C 436.55616,265.75262 435.43172,268.77547 439.81056,271.79833 C 456.13814,272.87913 469.70202,286.07121 468.95951,289.61157 C 480.60591,309.16537 482.36733,320.88986 483.53398,339.48864 C 481.06029,357.02224 474.54767,368.78593 466.04461,377.70615 C 447.31671,395.61012 427.33238,415.08461 405.15571,437.29955 C 386.03115,464.72114 350.57737,492.14274 357.86964,519.56433 C 371.1335,544.69336 406.15532,556.96542 437.54343,571.38467 C 463.88584,582.3252 490.70038,594.05262 512.03516,596.64709 C 533.45641,602.82163 555.22866,608.87916 571.62856,616.72748 C 581.38042,626.54328 594.68351,647.19234 585.87915,667.90006 C 581.78957,677.51871 556.19376,711.1434 526.60963,716.8055 C 497.0255,722.46761 470.04387,762.26472 447.9075,773.48401 C 435.42825,782.76794 412.80057,788.2711 356.57414,781.25706 C 334.38108,775.61838 309.44347,771.44347 299.57176,759.23342 C 272.5683,725.40977 282.16761,717.59335 286.61668,706.11756 C 294.94638,689.18485 304.48208,673.45813 319.65215,663.36578 C 346.02049,644.74414 353.40396,646.28095 373.09187,640.69438 C 388.04944,636.45007 397.38266,633.18396 412.28101,633.89296 C 397.39001,633.66456 354.8307,643.52255 344.26681,649.11519 C 344.26681,649.11519 316.15061,664.40033 311.23134,666.60455 C 306.31207,668.80878 292.17581,675.70595 291.15095,676.32086 C 292.15353,699.91478 284.61914,708.74095 280.13913,722.95918 C 277.80975,705.81012 271.34782,675.70132 280.13913,665.30904 C 285.1989,659.32784 382.07051,624.81778 408.07061,614.78421 C 421.34562,609.66131 439.05895,612.0629 454.38504,625.14827 C 462.6362,632.19311 470.02605,651.21841 456.65217,661.42251 C 430.54635,665.88607 412.24304,675.26923 384.42757,679.55964 C 367.21687,682.5875 356.16712,685.0154 343.61905,695.75349 C 337.88078,700.66406 339.28756,708.8974 344.91457,713.24286 C 361.51379,719.83358 383.27244,720.89635 411.95714,714.53837 C 441.48771,697.78927 399.13123,723.3896 506.52926,653.97335 C 454.55156,640.4304 417.01807,615.43935 372.12024,597.9426 C 346.61697,588.08691 327.88599,570.00773 314.47011,545.4745 C 300.47266,499.11735 314.88016,472.19518 333.25499,447.98749 C 350.55378,424.88645 365.81196,404.50621 380.54105,384.83145 C 411.16402,336.84289 409.37638,336.44169 419.4063,301.27115 C 406.59473,298.39227 403.57197,294.62351 399.97368,290.90707 C 394.75873,276.44789 412.66171,267.11543 426.53161,262.72976 z"
         style="fill:#000000;fill-opacity:1;fill-rule:nonzero;stroke:#000000;stroke-width:1.26071715px;stroke-linecap:butt;stroke-linejoin:miter;stroke-opacity:1" />
      <path
         sodipodi:nodetypes="ccccccsccsccccccc"
         id="path3286"
         d="M 366.61433,483.12815 L 378.21263,468.18606 C 376.75334,465.84668 374.96334,463.34082 368.55759,457.7038 C 376.07383,452.99879 377.81923,450.4896 380.06525,447.19379 C 385.63704,450.36823 389.43616,449.6514 393.61496,450.96964 C 415.53064,423.15251 428.55789,416.80321 448.32923,384.87311 C 420.72889,380.12081 416.48566,372.81916 403.28476,350.01851 C 403.06401,349.63723 408.81545,340.21302 410.61771,334.48697 C 413.47953,336.02725 441.16327,352.88892 459.90185,341.16921 C 461.67387,343.04065 466.15303,307.4051 459.63825,307.0959 C 456.71604,306.95721 424.31893,307.93257 419.65669,301.71802 C 411.83709,336.8032 403.68312,347.84944 389.26136,373.12313 C 398.07823,391.94842 413.34605,404.06073 431.24,407.70134 C 405.5588,435.55739 410.09169,432.38988 401.3423,439.96013 C 392.35446,438.95186 370.04091,429.96758 361.10841,412.68487 C 351.22607,426.09666 342.65347,438.46067 328.72072,455.11277 C 344.97311,456.33876 356.07524,472.10792 366.61433,483.12815 z"
         style="fill:#dddd08;fill-opacity:1;fill-rule:nonzero;stroke:none;stroke-width:1px;stroke-linecap:butt;stroke-linejoin:miter;stroke-opacity:1" />
      <path
         id="path2503"
         d="M 341.99967,489.44375 C 335.94234,491.46432 335.86065,495.4838 335.52212,500.77947 C 344.74414,506.25931 348.06479,501.1167 353.33537,499.48396 C 356.46171,501.85906 354.98707,504.23415 353.0115,506.60925 C 345.99654,514.34381 337.06922,509.64806 328.39682,506.60925 C 326.93316,511.48156 323.13665,516.1418 330.66397,521.83147 C 338.73312,520.95233 347.85766,522.71167 352.68762,513.73455 C 353.22011,516.98906 354.92964,521.18522 351.3921,521.18372 C 343.35917,530.05443 333.19382,529.32925 323.53868,530.90003 C 315.7011,536.67444 321.10074,539.96688 326.77745,543.20737 C 339.99207,545.34583 348.8009,538.67272 356.89801,530.57615 C 359.87176,529.23407 359.92847,531.53828 359.48904,534.46268 C 353.34856,543.40719 347.42517,553.36374 338.76089,564.90713 C 339.20134,571.58626 343.19584,572.34192 348.80109,570.41304 C 353.99605,556.65609 358.83566,547.3284 365.96658,539.64472 C 370.01418,539.86178 373.24641,541.16601 374.71126,544.82675 C 365.58936,552.27718 357.09246,560.97768 351.3921,575.2712 C 351.27786,582.8748 356.52368,581.54495 361.43229,580.77711 C 361.9384,564.86668 370.66377,556.42832 380.54105,549.03715 C 386.03741,547.37174 385.85513,550.43854 386.37084,552.92368 C 377.93137,561.21786 368.95455,568.9747 364.67106,581.42486 C 364.38807,592.47336 368.91101,590.06525 372.76799,589.52179 C 376.83454,573.83906 385.59798,564.732 393.82,554.86693 C 400.54333,554.2812 398.81809,556.51165 400.9453,557.45796 C 395.85831,569.17739 388.74368,580.60714 377.62615,591.46505 C 379.4372,600.41472 383.63598,599.81346 387.99022,598.59036 C 395.87274,587.20144 401.02262,574.44619 405.47958,561.34449 L 414.54815,565.23101 C 403.51854,568.95975 404.89011,589.50953 393.17226,598.59036 C 394.68705,602.66515 395.60565,607.8131 401.26918,604.42014 C 422.89168,593.95866 416.38034,567.68405 424.91222,570.73692 C 430.97117,571.25021 436.44639,572.93099 440.7822,576.89058 C 426.80385,588.55016 413.11586,600.20974 427.82711,611.86932 L 436.89567,613.4887 C 432.21168,603.37774 435.56641,593.58834 452.44177,584.33975 C 459.0206,578.42865 462.15973,586.27644 467.01624,587.25466 C 447.5342,595.0238 443.80871,605.53323 444.02097,616.72748 L 457.29993,625.79603 C 458.90808,611.80041 463.43269,599.67964 477.05644,593.40832 C 483.72055,591.65791 487.81517,594.19 491.95479,596.64709 C 463.86839,604.98736 468.30657,617.81379 463.45359,629.35868 C 469.15101,637.78273 473.73056,638.94068 477.70419,636.1601 C 480.12133,616.82419 491.52963,610.47551 501.34722,601.82913 C 507.17985,597.50225 511.38045,598.07147 514.62619,601.50525 C 502.75877,609.17842 492.24074,618.20098 488.06826,633.56908 C 490.27566,640.07958 490.78273,649.23501 500.37558,644.25703 C 501.8423,623.80806 510.35996,610.41002 528.22902,606.3634 C 534.21762,605.55684 536.96117,607.99533 539.56472,610.5738 C 525.36093,617.41646 504.36368,616.84809 507.82476,642.96152 C 506.57892,647.49867 509.43858,649.29883 513.33067,650.41069 C 529.68738,635.47655 529.68557,627.29844 550.25267,614.46033 C 554.71208,618.26994 547.28348,619.2328 549.28103,622.23338 C 558.58378,620.15476 566.1043,620.74948 571.95244,623.85277 C 580.70156,632.47545 582.92494,641.91383 584.90752,651.38232 L 579.72549,653.32559 C 579.05864,644.1783 579.61716,634.54087 570.65692,628.71092 C 563.89763,627.35926 558.39749,624.32871 549.28103,626.11991 C 541.07063,628.3651 540.33306,631.10847 545.07063,634.21684 C 553.16839,631.66685 565.08992,627.91975 569.03754,636.1601 C 570.5543,663.92829 573.44809,646.49075 576.48672,672.75821 C 575.10135,676.0125 576.86342,681.96459 570.00918,680.53127 C 573.43198,663.14968 561.21551,671.43707 559.32122,650.08682 C 549.33021,647.09099 546.8907,634.22014 526.93351,644.25703 C 527.1127,649.01022 522.2985,655.29985 532.76331,656.88824 C 540.24694,655.62518 553.81796,650.55749 548.63328,657.21212 C 544.90817,685.78449 564.89805,673.28064 561.26449,685.06555 C 548.77517,674.41913 546.53654,669.59628 542.15574,702.55491 C 536.6898,706.07051 547.7629,682.48011 536.32595,668.22394 C 531.88618,659.63103 521.80651,658.08797 514.30231,653.32559 C 503.53455,652.9482 505.65021,657.72417 507.50088,662.39415 C 515.11797,666.14773 528.05494,667.6847 526.28575,675.34924 C 521.6942,689.8713 536.26744,704.39798 526.28575,709.68021 L 522.07535,714.53837 C 524.21223,688.6505 511.51738,675.32721 501.34722,661.74639 C 491.75242,663.79762 492.77148,665.84884 492.27866,667.90006 C 510.475,685.53277 513.05885,700.66748 509.76803,714.86225 C 508.30813,719.38673 507.23588,725.46179 503.29049,720.04427 C 499.61265,703.1667 500.69273,683.78495 481.59072,675.02536 C 473.61585,674.33924 474.1691,676.87656 474.46541,682.79841 C 488.3058,690.54983 491.02284,709.42461 494.86968,727.16957 C 494.24589,735.05049 491.24036,732.21359 489.03988,732.99937 C 485.34853,715.83103 487.85549,694.42173 468.95951,687.65656 C 459.41015,683.82904 461.14766,691.28837 458.59544,694.45798 C 477.61323,698.33498 478.29397,718.61882 481.59072,736.56201 C 483.83064,744.83402 478.50295,741.75464 476.0848,743.03955 C 474.6287,724.2632 474.33886,704.80317 448.55525,700.28778 C 442.84156,698.25012 417.6881,710.88299 417.13916,717.45327 C 434.42694,723.7032 464.49373,706.0545 465.39686,752.75588 C 462.69194,757.48824 459.23718,759.97109 455.68055,762.14831 C 439.7799,727.51915 472.61043,740.22416 439.48669,724.57856 C 433.90622,722.18158 428.88752,729.72274 430.742,731.0561 C 442.55101,737.14613 446.72214,748.32809 435.27628,769.92136 C 433.76236,778.0811 429.5877,776.48482 425.55997,775.42726 C 414.08958,734.86697 425.95833,743.73074 427.50323,730.73223 C 427.27235,724.67048 421.00079,726.66298 415.84365,727.16957 C 405.68014,747.37216 401.42649,759.02675 402.24081,775.42726 C 398.23728,782.62435 392.30232,782.09565 385.72309,778.98991 C 389.17499,717.02672 406.65427,752.68048 411.30938,718.74877 C 402.14231,718.45523 393.36197,717.1949 380.86492,725.22631 C 372.05985,734.57573 369.36352,759.19699 363.69944,776.3989 C 358.21386,780.45052 355.73886,776.97568 353.65924,772.51237 C 358.9006,755.61999 358.84565,735.54983 371.79636,723.28306 C 368.29213,720.84657 363.95716,719.79468 357.86964,721.66366 C 345.4287,733.88192 345.75815,741.50163 337.46539,769.59748 C 333.10322,772.24116 329.22055,773.12667 327.42519,766.35871 C 330.77909,744.34366 336.23212,740.4439 353.65924,719.72041 C 350.49633,717.48537 349.03226,713.55148 341.02804,716.15775 C 329.37639,727.77524 321.88832,745.63812 313.49848,762.14831 C 308.91547,764.83679 307.57047,761.04924 306.37318,756.96627 C 312.20287,735.34347 320.60937,717.40185 338.43701,712.91898 C 340.55495,710.05382 338.54047,708.56614 335.52212,707.41307 C 313.4906,708.69807 301.22311,723.0018 294.7136,744.98282 C 291.21314,743.77956 290.33778,741.00123 291.15095,737.20977 C 297.56746,703.16623 315.62231,706.9473 331.95947,705.14592 C 337.3072,702.79745 332.16077,701.49838 329.36846,699.9639 C 319.35033,699.60691 311.10006,696.59817 297.95238,700.93553 C 296.98691,698.49812 297.84071,696.78842 301.19115,696.07737 C 313.61591,691.74006 321.41868,696.64675 330.66397,698.66838 L 332.28335,695.75349 C 323.22522,690.20588 313.59155,686.96037 302.81053,688.30432 C 301.72391,687.33268 301.9819,686.36106 306.0493,685.38943 C 320.44697,681.10081 327.81996,690.86153 337.46539,696.07737 C 343.46361,696.58139 340.81789,693.38087 341.35192,691.54309 C 329.07152,686.59678 326.89226,676.23899 316.73725,677.61637 C 316.03696,675.96562 310.84039,673.94017 319.65215,673.08209 C 329.84054,675.32254 336.40314,681.91393 342.32354,689.27595 C 348.3796,691.67534 346.76689,687.50151 347.1817,685.06555 C 344.69864,677.40045 339.19274,671.89455 330.66397,668.54781 C 328.06803,666.20706 324.30225,663.47636 334.22662,665.30904 C 345.46475,667.39196 350.27365,674.1507 352.03986,683.12229 C 355.29992,684.09757 359.94428,688.11831 359.16516,680.20739 C 355.40516,672.16419 350.45746,664.63002 340.70416,659.15538 C 340.10861,656.09813 335.44529,651.51546 347.82946,653.32559 C 359.14583,661.14524 363.02322,669.5848 364.02332,678.26413 C 368.31425,681.98784 369.61774,679.73666 370.50086,676.64474 L 366.93821,667.90006 C 367.58307,663.8117 368.23171,659.73313 373.09187,666.60455 L 374.38738,675.67312 C 379.71642,680.74674 380.70884,676.27976 381.83656,672.11047 C 377.86995,663.04677 373.83116,654.02639 365.6427,647.4958 C 369.42127,641.8578 373.19983,643.92044 376.9784,644.90478 C 383.24188,652.35303 383.53795,662.78498 386.69471,671.78659 C 393.36254,680.54586 393.99403,672.40341 396.73491,670.1672 C 391.53802,664.302 388.77477,655.39475 387.01859,645.22866 C 386.56435,642.14936 387.61638,640.79151 393.17226,644.58091 C 394.61365,654.47522 396.06446,664.3601 402.56469,669.19556 C 408.89743,675.04152 412.20743,674.46414 411.63326,665.63292 C 409.33636,655.54428 406.26464,647.00528 402.24081,640.3705 C 405.47723,635.81733 409.49067,637.48038 413.57651,639.72275 C 410.44711,645.09775 425.1702,655.96291 422.64508,663.68966 C 434.77249,670.29317 435.15639,662.21729 441.10608,661.09865 C 425.4599,661.01781 437.98689,637.88375 424.58834,633.24521 L 429.77038,632.92133 C 440.97156,633.13828 442.89686,658.42037 448.55525,659.47926 L 457.6238,654.29722 L 460.21482,648.46743 C 454.64792,638.1314 448.28347,630.9856 440.13444,630.97807 C 442.79375,627.24796 447.52019,626.61855 455.35667,630.65419 C 452.32095,625.8089 449.44111,620.80774 443.04933,619.31849 C 438.01645,618.49601 437.41456,622.10451 436.57179,625.47215 L 432.68526,627.41542 C 432.47143,623.96073 431.48981,620.50605 436.24792,617.05136 C 435.20427,615.14416 433.271,615.01621 431.38975,614.78421 C 427.7077,619.40029 424.05281,624.02722 424.58834,630.33031 L 420.70181,630.97807 L 426.53161,616.07972 C 424.27644,614.18454 424.45988,613.0514 421.34957,615.43196 C 417.26399,619.4116 413.68756,624.6313 413.90039,630.33031 L 411.30938,629.68256 C 408.07255,627.13355 415.77481,620.87122 416.81528,615.75583 C 413.4959,615.75438 410.27857,615.34479 406.12734,618.67073 C 400.20856,623.60512 402.99786,626.36248 403.53633,629.68256 C 402.57395,631.82014 401.64689,634.08134 399.00204,630.33031 C 395.64121,627.41542 398.0662,624.50052 398.67817,621.58563 C 395.76672,621.48454 392.78543,621.24383 391.55287,624.50052 C 389.77421,629.39288 392.7803,631.09542 396.08715,632.59745 C 395.45107,637.47896 390.94278,634.61605 387.99022,634.8646 L 384.75145,626.44379 C 380.53436,625.87199 379.06645,627.36207 378.27391,629.35868 L 382.80818,635.51234 L 379.56941,637.45561 C 377.05027,636.43606 375.61264,634.69551 375.68289,631.94969 C 373.92199,630.46018 370.13241,628.84968 369.20535,634.8646 L 374.71126,638.42724 C 373.58111,638.34457 370.34247,639.31613 367.58597,640.04662 C 364.42382,638.80057 362.5592,637.29501 363.69944,635.18847 C 360.80009,633.44603 359.04603,634.56679 357.86964,637.13173 C 357.61891,639.51843 356.4116,642.224 361.10841,642.96152 C 369.7327,635.94678 421.02464,631.31347 414.22427,633.24521 C 367.02549,643.21452 363.86311,643.07147 342.9713,650.73458 C 327.9232,656.33735 314.08555,666.0862 302.48665,681.17902 C 295.06563,692.7898 287.15846,705.54886 281.43464,724.90243 C 286.04328,740.72283 296.10579,752.90734 305.72542,765.38708 C 323.82301,771.93305 339.01388,775.5723 354.63087,779.63767 C 386.9646,783.01205 419.01227,786.33043 442.0777,775.42726 C 463.51325,762.19222 475.8375,747.4025 497.46069,731.0561 C 505.99259,720.7397 513.02166,719.61422 546.04226,708.06083 C 558.67768,698.59873 570.29416,689.11351 582.96426,672.43433 C 585.02301,666.31068 586.69591,659.32473 587.82241,652.35396 C 587.20551,638.52046 576.94935,621.62777 565.79877,615.10809 C 550.25267,608.12201 534.70656,604.85672 519.16046,600.20975 C 504.49661,596.0673 495.99494,597.20228 471.22664,586.93077 L 424.26446,565.87876 C 410.31012,561.46399 398.29313,554.13644 382.80818,546.12226 C 373.95449,540.67296 364.12072,536.37835 358.5174,522.80311 C 350.14987,514.84472 356.99993,500.20781 362.88974,489.11988 C 353.24124,491.76105 348.48768,491.41018 341.99967,489.44375"
         style="fill:#bbbb00;fill-opacity:0.41666667;fill-rule:nonzero;stroke:none;stroke-width:1px;stroke-linecap:butt;stroke-linejoin:miter;stroke-opacity:1" />
      <g
         id="g3191"
         transform="matrix(0.6220827,0,0,0.6220827,273.63402,85.819747)">
        <path
           sodipodi:type="arc"
           style="opacity:0.98000004;fill:#ffffff;fill-opacity:1;stroke:#020202;stroke-width:0.89679456;stroke-linecap:round;stroke-linejoin:round;stroke-miterlimit:4;stroke-dasharray:none;stroke-opacity:1"
           id="path3299"
           sodipodi:cx="186.16663"
           sodipodi:cy="96.81601"
           sodipodi:rx="11.826159"
           sodipodi:ry="11.826159"
           d="M 197.99278,96.81601 A 11.826159,11.826159 0 1 1 174.34047,96.81601 A 11.826159,11.826159 0 1 1 197.99278,96.81601 z"
           transform="matrix(2.2263346,0,0,2.2340024,-125.54289,101.97892)" />
        <path
           sodipodi:type="arc"
           style="opacity:0.98000004;fill:#000000;fill-opacity:1;stroke:#ffffff;stroke-width:0;stroke-linecap:round;stroke-linejoin:round;stroke-miterlimit:4;stroke-dasharray:none;stroke-opacity:1"
           id="path3303"
           sodipodi:cx="186.54813"
           sodipodi:cy="97.388237"
           sodipodi:rx="3.4334011"
           sodipodi:ry="2.8611674"
           d="M 189.98153,97.388237 A 3.4334011,2.8611674 0 1 1 183.11473,97.388237 A 3.4334011,2.8611674 0 1 1 189.98153,97.388237 z"
           transform="matrix(2.7418229,0,0,3.4078119,-217.07104,-16.593642)" />
        <path
           sodipodi:type="arc"
           style="opacity:0.98000004;fill:#ffffff;fill-opacity:1;stroke:#ffffff;stroke-width:0;stroke-linecap:round;stroke-linejoin:round;stroke-miterlimit:4;stroke-dasharray:none;stroke-opacity:1"
           id="path3305"
           sodipodi:cx="190.55376"
           sodipodi:cy="91.856651"
           sodipodi:rx="4.3871236"
           sodipodi:ry="4.577868"
           d="M 194.94088,91.856651 A 4.3871236,4.577868 0 1 1 186.16663,91.856651 A 4.3871236,4.577868 0 1 1 194.94088,91.856651 z"
           transform="matrix(1.243956,0,0,1.2558326,60.42203,196.2733)" />
      </g>
      <path
         sodipodi:nodetypes="cccc"
         id="path4882"
         d="M 419.04972,301.28615 C 422.42783,308.91906 419.38388,315.63455 418.93845,322.72124 C 423.50048,316.01874 429.33351,309.79288 429.27607,301.35807 C 426.66914,301.73503 424.04556,302.10365 419.04972,301.28615 z"
         style="fill:#ffffff;fill-opacity:1;fill-rule:evenodd;stroke:#000000;stroke-width:1.26071715px;stroke-linecap:butt;stroke-linejoin:miter;stroke-opacity:1" />
      <path
         sodipodi:nodetypes="cccc"
         id="path4884"
         d="M 401.75157,291.59033 C 397.7152,299.32146 400.00605,307.95648 399.80589,316.23563 C 401.99249,309.40716 402.28512,301.39495 408.99701,297.39478 C 406.86786,296.60397 404.49166,294.82495 401.75157,291.59033 z"
         style="fill:#ffffff;fill-opacity:1;fill-rule:evenodd;stroke:#000000;stroke-width:1.26071715px;stroke-linecap:butt;stroke-linejoin:miter;stroke-opacity:1" />
    </g>
  </g>
</svg>
