<?xml version="1.0" encoding="UTF-8" standalone="no"?>
<!-- Created with Inkscape (http://www.inkscape.org/) -->
<svg
   xmlns:dc="http://purl.org/dc/elements/1.1/"
   xmlns:cc="http://creativecommons.org/ns#"
   xmlns:rdf="http://www.w3.org/1999/02/22-rdf-syntax-ns#"
   xmlns:svg="http://www.w3.org/2000/svg"
   xmlns="http://www.w3.org/2000/svg"
   xmlns:sodipodi="http://sodipodi.sourceforge.net/DTD/sodipodi-0.dtd"
   xmlns:inkscape="http://www.inkscape.org/namespaces/inkscape"
   width="306"
   height="306"
   id="svg2"
   sodipodi:version="0.32"
   inkscape:version="0.46"
   sodipodi:docname="sapper_fox.svg"
   inkscape:output_extension="org.inkscape.output.svg.inkscape"
   version="1.0">
  <defs
     id="defs4">
    <inkscape:perspective
       sodipodi:type="inkscape:persp3d"
       inkscape:vp_x="0 : 526.18109 : 1"
       inkscape:vp_y="0 : 1000 : 0"
       inkscape:vp_z="744.09448 : 526.18109 : 1"
       inkscape:persp3d-origin="372.04724 : 350.78739 : 1"
       id="perspective10" />
    <inkscape:perspective
       id="perspective2447"
       inkscape:persp3d-origin="372.04724 : 350.78739 : 1"
       inkscape:vp_z="744.09448 : 526.18109 : 1"
       inkscape:vp_y="0 : 1000 : 0"
       inkscape:vp_x="0 : 526.18109 : 1"
       sodipodi:type="inkscape:persp3d" />
  </defs>
  <sodipodi:namedview
     id="base"
     pagecolor="#ffffff"
     bordercolor="#666666"
     borderopacity="1.0"
     gridtolerance="10000"
     guidetolerance="10"
     objecttolerance="10"
     inkscape:pageopacity="0.0"
     inkscape:pageshadow="2"
     inkscape:zoom="1.7352941"
     inkscape:cx="153"
     inkscape:cy="139.00837"
     inkscape:document-units="px"
     inkscape:current-layer="layer1"
     showgrid="false"
     inkscape:window-width="1280"
     inkscape:window-height="735"
     inkscape:window-x="1280"
     inkscape:window-y="24" />
  <metadata
     id="metadata7">
    <rdf:RDF>
      <cc:Work
         rdf:about="">
        <dc:format>image/svg+xml</dc:format>
        <dc:type
           rdf:resource="http://purl.org/dc/dcmitype/StillImage" />
      </cc:Work>
    </rdf:RDF>
  </metadata>
  <g
     inkscape:label="Layer 1"
     inkscape:groupmode="layer"
     id="layer1"
     transform="translate(-250.28592,-336.13744)">
    <path
       style="fill:#bc5100;fill-opacity:1;fill-rule:evenodd;stroke:#bc5100;stroke-width:1px;stroke-linecap:butt;stroke-linejoin:miter;stroke-opacity:1"
       d="M 483.77059,442.26853 C 520.91382,490.15732 507.68835,524.33307 497.09787,553.32928 C 486.5074,582.32548 504.87017,588.35421 511.41237,593.31114 C 504.66401,618.86441 471.75453,608.33279 459.09043,598.24717 C 446.73065,588.40391 444.31972,552.12251 449.71196,531.61073 L 483.77059,442.26853 z"
       id="path2479"
       sodipodi:nodetypes="czczcc" />
    <path
       style="fill:#bc5100;fill-opacity:1;fill-rule:evenodd;stroke:#bc5100;stroke-width:1px;stroke-linecap:butt;stroke-linejoin:miter;stroke-opacity:1"
       d="M 448.23115,503.47534 L 437.86548,544.44441 C 441.38028,558.65534 450.74075,565.08355 449.21836,573.567 C 447.68298,582.12278 434.46183,609.37749 433.91666,620.95292 C 416.76131,629.70602 409.62784,625.57383 401.33884,622.92733 C 399.68678,607.88867 407.94181,609.3618 413.67892,606.63842 C 422.48022,593.31113 426.58964,577.51583 427.49982,564.18854 C 405.10458,539.02503 401.38288,529.66777 396.89641,517.29623 L 448.23115,503.47534 z"
       id="path2481"
       sodipodi:nodetypes="cczcccccc" />
    <path
       style="fill:#ec6500;fill-opacity:1;fill-rule:evenodd;stroke:#ec6500;stroke-width:1px;stroke-linecap:butt;stroke-linejoin:miter;stroke-opacity:1"
       d="M 491.66824,439.80052 C 502.94498,471.83643 484.87533,486.42646 482.78338,517.29623 C 481.59037,526.05715 479.61276,531.83663 484.7578,564.68215 C 483.42072,579.63398 481.87241,594.37457 481.79618,610.58725 L 484.26419,624.90175 C 479.40061,631.61414 469.6916,633.96566 451.68638,628.85057 C 453.29575,623.26772 449.84296,615.93094 457.60962,614.04247 C 465.67594,601.30458 462.09729,583.57599 461.55844,567.15016 C 446.12908,547.05458 443.06378,535.73151 439.34629,514.33461 C 430.3623,516.51918 429.40719,523.35635 403.80686,519.76425 C 409.40667,534.41838 406.2261,558.2089 402.27446,578.16421 C 397.49168,602.3167 403.70654,619.59961 401.83245,638.22903 C 397.68567,640.42697 391.27781,643.09843 370.24184,636.25462 C 372.56754,631.74994 366.7862,629.94761 379.6203,621.94013 C 382.00386,610.54503 381.20075,597.55659 381.10111,584.91988 C 378.68481,564.02072 385.80613,536.44521 371.72265,523.71307 C 362.36673,525.91225 367.35512,576.94223 362.34418,594.79195 C 357.33325,612.64167 359.05225,632.1969 350.9913,637.73543 C 341.20507,638.12898 331.91518,641.96403 323.34953,636.25462 C 323.82459,631.97364 321.11595,623.46001 333.71519,618.97851 C 338.12566,610.85239 339.74543,597.14489 341.61285,583.93267 C 338.89176,566.58056 346.87562,531.23283 341.11924,524.20668 C 324.6692,504.12801 318.33484,465.3378 327.29835,445.72376 L 388.99876,407.7163 C 391.65478,415.849 391.0814,428.41253 399.38057,427.56011 C 407.67973,426.7077 428.79662,416.66915 455.1416,417.58837 C 489.12092,424.6656 488.04964,438.05209 491.66824,439.80052 z"
       id="path2483"
       sodipodi:nodetypes="ccccccccccsccccczccccscczcc" />
    <path
       style="fill:#ff6d00;fill-opacity:1;fill-rule:evenodd;stroke:#ff6d00;stroke-width:1px;stroke-linecap:butt;stroke-linejoin:miter;stroke-opacity:1"
       d="M 363.82499,336.63744 C 355.08956,354.14181 357.58765,366.85172 355.43374,367.24084 C 341.07636,364.65841 340.4672,370.38317 330.41697,365.97641 C 325.59495,357.94086 312.44218,343.47639 309.52862,346.01588 C 302.92734,363.64863 305.83772,376.88776 311.50305,388.46578 C 308.04607,416.99095 307.9669,413.19634 311.50305,420.54999 C 308.73101,426.63776 298.04139,437.66157 299.16296,443.74934 C 320.51653,457.20695 324.24729,447.40502 329.27276,449.67259 C 348.72827,445.44684 375.71317,435.88182 375.17787,435.35809 C 384.94347,425.10774 394.04772,416.70443 396.67453,389.5173 C 390.78493,362.32288 388.00198,349.59431 363.82499,336.63744 z"
       id="path2485"
       sodipodi:nodetypes="ccccccccccc" />
    <path
       style="fill:#ffffff;fill-opacity:1;fill-rule:evenodd;stroke:#ffffff;stroke-width:1px;stroke-linecap:butt;stroke-linejoin:miter;stroke-opacity:1"
       d="M 372.21625,437.8261 C 382.05884,449.48597 382.28792,460.44945 379.12669,470.89752 C 371.69523,471.58307 369.0061,467.52629 365.3058,464.48068 C 368.02415,474.35275 367.82385,484.22481 361.35698,494.09688 C 353.73802,494.43065 351.60953,487.07777 350.4977,478.30157 C 352.541,488.83177 350.20586,499.36198 347.04248,509.89218 C 337.43394,502.5209 337.42028,490.35219 338.15762,477.80797 C 336.13463,482.31778 334.33518,487.27467 329.76637,486.69283 C 328.99203,481.68943 323.06516,469.057 335.196,448.68537 C 354.45111,447.54993 361.76192,441.38971 372.21625,437.8261 z"
       id="path3292"
       sodipodi:nodetypes="cccccccccc" />
    <path
       style="fill:#9a1900;fill-opacity:1;fill-rule:evenodd;stroke:#000000;stroke-width:0;stroke-linecap:butt;stroke-linejoin:miter;stroke-miterlimit:4;stroke-dasharray:none;stroke-opacity:1"
       d="M 355.00077,473.92033 C 352.22908,476.62738 345.95758,482.13604 337.2034,477.36498 C 358.93908,494.08345 341.40343,505.15069 349.83379,517.55259 C 344.41494,520.87624 339.99742,526.20256 325.72122,511.81151 C 337.03918,528.08924 319.27077,530.14258 318.25781,543.38749 C 309.15069,535.07997 298.77725,528.03877 304.4792,504.9222 C 299.54977,511.28358 301.21426,526.53531 288.97826,525.59012 C 287.68449,512.76077 275.63567,515.16105 288.40415,484.82839 C 277.28468,481.92726 285.92424,490.39912 267.73623,489.99537 C 270.67354,470.70205 268.67012,465.52076 305.11818,453.24592 C 335.11471,449.53357 345.66798,451.78359 355.00077,473.92033 z"
       id="path3229"
       sodipodi:nodetypes="ccccccccccc" />
    <g
       id="g3223"
       transform="matrix(-0.9929932,-0.1181711,-0.1181711,0.9929932,839.27265,149.5068)">
      <path
         sodipodi:nodetypes="ccccc"
         id="path3217"
         d="M 447.66842,362.37717 L 447.66842,391.40171 L 524.337,391.40171 C 542.89659,392.33255 542.41996,362.22403 524.337,362.37717 L 447.66842,362.37717 z"
         style="fill:#ff000e;fill-opacity:1;fill-rule:evenodd;stroke:#000000;stroke-width:0.95388317px;stroke-linecap:butt;stroke-linejoin:miter;stroke-opacity:1" />
      <path
         transform="matrix(0.9044897,0,0,0.9379419,220.3144,302.58882)"
         d="M 270.40525,79.22702 A 16.075047,15.500938 0 1 1 238.25515,79.22702 A 16.075047,15.500938 0 1 1 270.40525,79.22702 z"
         sodipodi:ry="15.500938"
         sodipodi:rx="16.075047"
         sodipodi:cy="79.22702"
         sodipodi:cx="254.3302"
         id="path3221"
         style="opacity:1;fill:#ff000e;fill-opacity:1;stroke:#000000;stroke-width:1;stroke-linecap:round;stroke-linejoin:round;stroke-miterlimit:4;stroke-dasharray:none;stroke-opacity:1"
         sodipodi:type="arc" />
    </g>
    <path
       style="fill:#9a1900;fill-opacity:1;fill-rule:evenodd;stroke:#000000;stroke-width:0;stroke-linecap:butt;stroke-linejoin:miter;stroke-miterlimit:4;stroke-dasharray:none;stroke-opacity:1"
       d="M 352.60693,439.47566 C 334.46767,468.25686 314.93415,462.00528 301.66613,453.14085 C 278.80418,461.69053 277.57661,444.44649 273.57281,437.35661 C 283.57614,445.2116 288.92485,420.41352 302.22233,448.58819 C 327.17063,429.38289 324.3139,446.02938 352.60693,439.47566 z"
       id="path2414"
       sodipodi:nodetypes="ccccc" />
    <path
       sodipodi:type="arc"
       style="fill:#ffffff;fill-opacity:1;stroke:#000000;stroke-width:2;stroke-linecap:round;stroke-linejoin:round;stroke-miterlimit:4;stroke-dasharray:none;stroke-opacity:1"
       id="path3298"
       sodipodi:cx="415.61395"
       sodipodi:cy="409.6907"
       sodipodi:rx="14.808098"
       sodipodi:ry="14.808098"
       d="M 430.42205,409.6907 A 14.808098,14.808098 0 1 1 400.80585,409.6907 A 14.808098,14.808098 0 1 1 430.42205,409.6907 z"
       transform="matrix(-1,0,0,1,736.49546,-0.49359)" />
    <path
       sodipodi:type="arc"
       style="fill:#ffffff;fill-opacity:1;stroke:#000000;stroke-width:2;stroke-linecap:round;stroke-linejoin:round;stroke-miterlimit:4;stroke-dasharray:none;stroke-opacity:1"
       id="path3294"
       sodipodi:cx="415.61395"
       sodipodi:cy="409.6907"
       sodipodi:rx="14.808098"
       sodipodi:ry="14.808098"
       d="M 430.42205,409.6907 A 14.808098,14.808098 0 1 1 400.80585,409.6907 A 14.808098,14.808098 0 1 1 430.42205,409.6907 z"
       transform="matrix(-1,0,0,1,763.64365,0)" />
    <path
       sodipodi:type="arc"
       style="fill:#000000;fill-opacity:1;stroke:#ff6c00;stroke-width:0;stroke-linecap:round;stroke-linejoin:round;stroke-miterlimit:4;stroke-dasharray:none;stroke-opacity:1"
       id="path2487"
       sodipodi:cx="414.87357"
       sodipodi:cy="409.6907"
       sodipodi:rx="7.6508508"
       sodipodi:ry="7.4040489"
       d="M 422.52442,409.6907 A 7.6508508,7.4040489 0 1 1 407.22271,409.6907 A 7.6508508,7.4040489 0 1 1 422.52442,409.6907 z"
       transform="matrix(-1,0,0,1,762.65644,0)" />
    <path
       sodipodi:type="arc"
       style="fill:#000000;fill-opacity:1;stroke:#ff6c00;stroke-width:0;stroke-linecap:round;stroke-linejoin:round;stroke-miterlimit:4;stroke-dasharray:none;stroke-opacity:1"
       id="path2489"
       sodipodi:cx="445.47696"
       sodipodi:cy="411.41833"
       sodipodi:rx="7.1572475"
       sodipodi:ry="7.1572475"
       d="M 452.63421,411.41833 A 7.1572475,7.1572475 0 1 1 438.31971,411.41833 A 7.1572475,7.1572475 0 1 1 452.63421,411.41833 z"
       transform="matrix(-1,0,0,1,765.61806,-2.4680164)" />
    <path
       sodipodi:type="arc"
       style="fill:#000000;fill-opacity:1;stroke:#ff6c00;stroke-width:0;stroke-linecap:round;stroke-linejoin:round;stroke-miterlimit:4;stroke-dasharray:none;stroke-opacity:1"
       id="path2491"
       sodipodi:cx="441.28134"
       sodipodi:cy="433.87729"
       sodipodi:rx="6.9104457"
       sodipodi:ry="6.9104457"
       d="M 448.19179,433.87729 A 6.9104457,6.9104457 0 1 1 434.3709,433.87729 A 6.9104457,6.9104457 0 1 1 448.19179,433.87729 z"
       transform="matrix(-1.2857143,0,0,1.3571429,870.44792,-146.59051)" />
    <path
       style="fill:#000000;fill-opacity:1;stroke:#ff6d00;stroke-width:0;stroke-linecap:round;stroke-linejoin:round;stroke-miterlimit:4;stroke-dasharray:none;stroke-opacity:1"
       d="M 497.12573,609.08422 C 504.31374,606.98615 509.10445,602.49337 511.46278,595.63877 L 512.37052,593.00042 L 507.21567,589.49157 C 499.1208,583.98146 496.02849,579.68259 494.99389,572.50107 C 494.24482,567.30161 495.12333,561.80602 498.10726,553.02506 C 499.44168,549.09814 500.48138,545.8331 500.41769,545.7694 C 500.35398,545.7057 497.67073,547.86356 494.45488,550.56463 C 491.23904,553.2657 488.41488,555.47566 488.179,555.47566 C 487.94312,555.47566 486.86099,554.67239 485.77427,553.69062 C 484.64482,552.6702 483.79818,552.19447 483.79783,552.58001 C 483.79749,552.95095 484.1632,555.84276 484.6105,559.00625 C 485.39335,564.54273 485.38276,565.23563 484.32792,577.51637 C 483.26096,589.93834 482.2909,608.78246 482.69287,609.27842 C 483.16459,609.86042 495.0126,609.701 497.12573,609.08421 L 497.12573,609.08422 z"
       id="path3266" />
    <path
       style="fill:#000000;fill-opacity:1;stroke:#ff6d00;stroke-width:0;stroke-linecap:round;stroke-linejoin:round;stroke-miterlimit:4;stroke-dasharray:none;stroke-opacity:1"
       d="M 461.76778,598.73224 C 462.235,595.32346 462.15168,588.60802 461.50354,577.43657 L 460.92196,567.41199 L 458.15948,563.61567 C 456.64014,561.52771 454.63065,558.61324 453.69395,557.13909 L 451.99085,554.45882 L 451.66153,556.15188 C 451.48043,557.08307 451.18599,558.67792 451.00726,559.69597 C 450.60885,561.96523 450.21886,562.01551 449.09275,559.94277 C 448.6134,559.06046 447.77097,557.78326 447.22071,557.10455 L 446.22024,555.87055 L 446.53001,562.04059 C 447.47083,580.77961 452.38303,594.54917 460.0833,600.03224 L 461.45563,601.00943 L 461.76778,598.73224 z"
       id="path3270" />
    <path
       style="fill:#000000;fill-opacity:1;stroke:#ff6d00;stroke-width:0;stroke-linecap:round;stroke-linejoin:round;stroke-miterlimit:4;stroke-dasharray:none;stroke-opacity:1"
       d="M 421.54866,626.3172 C 425.58966,625.40014 428.57754,624.36097 431.95069,622.69941 L 434.64611,621.3717 L 435.21482,617.91648 C 436.01048,613.08249 437.76217,607.5751 442.38166,595.38364 C 448.96488,578.00968 448.49356,579.9608 447.58682,573.83493 C 447.15707,570.93159 446.65917,566.71877 446.48035,564.47308 C 446.30152,562.22739 446.00762,560.29878 445.8272,560.18728 C 445.6468,560.07578 444.54138,563.85672 443.37072,568.58938 C 442.20007,573.32203 441.15709,577.19421 441.05299,577.19421 C 440.94889,577.19421 439.65866,574.8064 438.18583,571.88797 L 435.50796,566.58174 L 434.79494,568.30935 C 434.40276,569.25954 433.46059,571.64734 432.70121,573.61558 C 431.94183,575.58383 431.16293,577.19421 430.9703,577.19421 C 430.77767,577.19421 429.75769,575.30822 428.70367,573.00313 C 426.71427,568.65244 426.04686,567.91446 426.04686,570.06544 C 426.04686,572.31281 424.01056,581.25747 422.32651,586.40745 C 420.47522,592.06893 418.06597,597.50495 415.12078,602.66591 L 413.11981,606.17228 L 409.44445,607.32492 C 407.13846,608.04812 405.02581,609.1138 403.77412,610.1852 L 401.77913,611.89283 L 402.08531,616.63228 C 402.62115,624.92619 402.26157,624.26438 406.92799,625.54547 C 412.08294,626.96068 417.4621,627.2446 421.54866,626.3172 L 421.54866,626.3172 z"
       id="path3274" />
    <path
       style="fill:#000000;fill-opacity:1;stroke:#ff6d00;stroke-width:0;stroke-linecap:round;stroke-linejoin:round;stroke-miterlimit:4;stroke-dasharray:none;stroke-opacity:1"
       d="M 473.18597,631.9284 C 478.75269,631.12211 484.78565,627.20992 484.78565,624.40638 C 484.78565,623.80951 484.20962,620.10602 483.50559,616.17639 C 482.34116,609.67711 482.24916,608.22893 482.48701,600.14676 C 482.63083,595.26009 483.11255,587.04159 483.55752,581.88344 L 484.36655,572.50498 L 481.56081,568.30935 C 480.01764,566.00175 478.58838,564.05012 478.38468,563.97237 C 478.18097,563.89464 477.86912,564.89418 477.69167,566.19359 C 476.91114,571.90932 475.23027,580.6373 474.96135,580.37102 C 474.79935,580.2106 473.53132,577.15714 472.14353,573.58554 L 469.6203,567.09173 L 468.53976,571.77277 C 467.1733,577.69252 467.02552,578.18141 466.60262,578.18141 C 466.4119,578.18141 465.28984,576.61596 464.10917,574.70262 C 462.9285,572.78927 461.86115,571.32519 461.73726,571.44907 C 461.61338,571.57295 461.78343,576.41471 462.11515,582.20851 C 462.77488,593.7309 462.50987,597.73297 460.63727,604.52751 C 459.07572,610.19346 457.5394,612.94178 455.19808,614.25767 C 452.60375,615.71576 451.89853,617.43061 451.49234,623.26876 C 451.30641,625.94105 451.04517,628.41184 450.91179,628.75943 C 450.61632,629.52937 457.33388,631.24176 463.54776,631.98051 C 468.24288,632.53871 469.00092,632.5346 473.18597,631.92842 L 473.18597,631.9284 z"
       id="path3278" />
    <path
       style="fill:#000000;fill-opacity:1;stroke:#ff6d00;stroke-width:0;stroke-linecap:round;stroke-linejoin:round;stroke-miterlimit:4;stroke-dasharray:none;stroke-opacity:1"
       d="M 398.76597,640.36775 C 400.6955,639.73437 402.05035,638.9682 402.40167,638.31176 C 402.99959,637.19452 402.73537,625.61291 401.93072,617.66968 C 401.69694,615.36208 401.52996,607.08573 401.5596,599.27779 L 401.61349,585.08152 L 398.90877,590.51633 C 397.42118,593.50547 396.0622,595.95113 395.88882,595.95113 C 395.71543,595.95113 394.49011,593.47259 393.16587,590.44327 L 390.75817,584.93541 L 389.92193,589.33266 C 389.46198,591.75115 389.07238,594.22969 389.05614,594.84053 C 389.03673,595.57074 388.72176,595.95113 388.13655,595.95113 C 387.44196,595.95113 386.88011,594.81752 385.57831,590.78971 L 383.91012,585.62827 L 382.35303,588.21311 L 380.79593,590.79796 L 380.48731,602.136 C 380.31755,608.37193 379.91903,615.26837 379.60171,617.46142 C 379.03587,621.37188 378.98554,621.47369 376.99184,622.73968 C 375.87373,623.44968 373.99177,625.01916 372.80969,626.22743 C 370.83897,628.24183 370.6281,628.70534 370.27077,631.80844 C 370.05644,633.66972 369.73621,635.54592 369.55914,635.97777 C 368.94103,637.48529 382.12986,640.77052 390.26062,641.13437 C 394.8406,641.33932 396.17156,641.21935 398.76596,640.36773 L 398.76597,640.36775 z"
       id="path3282" />
    <path
       style="fill:#000000;fill-opacity:1;stroke:#ff6d00;stroke-width:0;stroke-linecap:round;stroke-linejoin:round;stroke-miterlimit:4;stroke-dasharray:none;stroke-opacity:1"
       d="M 345.09592,639.17197 C 351.84061,638.36988 352.24018,638.21611 353.91837,635.77667 C 356.47105,632.06604 357.39503,628.56562 359.41446,614.95486 C 360.26034,609.25374 361.38237,602.60289 361.90787,600.17518 C 362.43681,597.73157 362.6677,595.63831 362.4251,595.48595 C 362.18409,595.33458 361.26393,593.48598 360.38032,591.37796 L 358.77377,587.54519 L 355.30426,593.54798 C 351.40268,600.29834 351.68842,600.3229 350.24249,593.11291 C 349.73889,590.60171 349.20783,588.54772 349.06239,588.54849 C 348.91693,588.54927 347.37962,590.8885 345.64611,593.74678 C 343.91261,596.60505 342.39515,598.84454 342.27401,598.7234 C 342.15289,598.60225 341.67536,596.09643 341.21288,593.15491 L 340.37198,587.80668 L 339.23667,594.96393 C 337.85966,603.64472 336.02409,611.45522 334.41556,615.47811 C 333.41889,617.97074 332.94324,618.56929 331.56222,619.06867 C 330.65069,619.39829 328.8986,620.43634 327.66865,621.37548 C 324.54028,623.76417 323.05902,627.08147 322.68572,632.53477 L 322.39463,636.78738 L 325.47742,638.21046 C 328.26018,639.49507 329.11266,639.6411 334.23665,639.71094 C 337.35869,639.7535 342.24536,639.51097 345.09592,639.17197 L 345.09592,639.17197 z"
       id="path3286" />
    <path
       style="fill:#000000;fill-opacity:1;fill-rule:evenodd;stroke:#000000;stroke-width:1px;stroke-linecap:butt;stroke-linejoin:miter;stroke-opacity:1"
       d="M 363.33139,336.63744 C 383.78654,342.13465 404.77041,372.57548 393.42671,407.57322 C 389.23899,404.80089 390.22157,400.72561 377.15228,398.83145 C 395.42696,372.47222 372.73099,342.20357 363.33139,336.63744 z"
       id="path3288"
       sodipodi:nodetypes="cccc" />
    <path
       style="fill:#000000;fill-opacity:1;fill-rule:evenodd;stroke:#000000;stroke-width:1px;stroke-linecap:butt;stroke-linejoin:miter;stroke-opacity:1"
       d="M 310.02224,344.53508 C 315.98661,348.69987 323.18749,351.69796 334.20879,367.24084 C 326.05612,369.12805 320.25069,374.39802 318.41349,380.07452 C 319.75075,367.38439 320.68589,352.48799 310.02224,344.53508 z"
       id="path3290"
       sodipodi:nodetypes="cccc" />
    <path
       sodipodi:type="arc"
       style="fill:#ffffff;fill-opacity:1;stroke:#000000;stroke-width:0;stroke-linecap:round;stroke-linejoin:round;stroke-miterlimit:4;stroke-dasharray:none;stroke-opacity:1"
       id="path3350"
       sodipodi:cx="421.29041"
       sodipodi:cy="406.4823"
       sodipodi:rx="3.2084212"
       sodipodi:ry="4.6892309"
       d="M 424.49883,406.4823 A 3.2084212,4.6892309 0 1 1 418.08198,406.4823 A 3.2084212,4.6892309 0 1 1 424.49883,406.4823 z"
       transform="matrix(-1.1538462,0,0,0.8421052,785.51408,97.993257)" />
    <path
       sodipodi:type="arc"
       style="fill:#ffffff;fill-opacity:1;stroke:#000000;stroke-width:0;stroke-linecap:round;stroke-linejoin:round;stroke-miterlimit:4;stroke-dasharray:none;stroke-opacity:1"
       id="path3352"
       sodipodi:cx="421.29041"
       sodipodi:cy="406.4823"
       sodipodi:rx="3.2084212"
       sodipodi:ry="4.6892309"
       d="M 424.49883,406.4823 A 3.2084212,4.6892309 0 1 1 418.08198,406.4823 A 3.2084212,4.6892309 0 1 1 424.49883,406.4823 z"
       transform="matrix(-1.1538462,0,0,0.8421052,830.1852,64.42824)" />
    <path
       sodipodi:type="arc"
       style="fill:#ffffff;fill-opacity:1;stroke:#000000;stroke-width:0;stroke-linecap:round;stroke-linejoin:round;stroke-miterlimit:4;stroke-dasharray:none;stroke-opacity:1"
       id="path3354"
       sodipodi:cx="421.29041"
       sodipodi:cy="406.4823"
       sodipodi:rx="3.2084212"
       sodipodi:ry="4.6892309"
       d="M 424.49883,406.4823 A 3.2084212,4.6892309 0 1 1 418.08198,406.4823 A 3.2084212,4.6892309 0 1 1 424.49883,406.4823 z"
       transform="matrix(-1.1538462,0,0,0.8421052,803.03701,63.441033)" />
    <path
       style="fill:#ffffff;fill-opacity:1;fill-rule:evenodd;stroke:#ffffff;stroke-width:1px;stroke-linecap:butt;stroke-linejoin:miter;stroke-opacity:1"
       d="M 376.62962,398.61529 C 386.66413,382.32557 387.59245,361.35864 363.79593,337.40849 C 360.59294,347.69053 357.73656,357.88592 357.13229,367.51829 C 371.12279,372.57755 378.42593,382.3737 376.62962,398.61529 z"
       id="path4048"
       sodipodi:nodetypes="cccc" />
    <path
       style="fill:#ffffff;fill-opacity:1;fill-rule:evenodd;stroke:#ffffff;stroke-width:1px;stroke-linecap:butt;stroke-linejoin:miter;stroke-opacity:1"
       d="M 317.15042,380.35197 C 319.99654,359.86927 316.12745,351.26735 310.48678,345.79974 C 304.76508,361.8675 306.27697,375.38223 311.72079,387.50922 C 312.58055,385.59852 313.69851,383.55873 317.15042,380.35197 z"
       id="path4559"
       sodipodi:nodetypes="cccc" />
    <path
       sodipodi:type="arc"
       style="opacity:1;fill:#ff000e;fill-opacity:1;stroke:#5c4900;stroke-width:0;stroke-linecap:round;stroke-linejoin:round;stroke-miterlimit:4;stroke-dasharray:none;stroke-opacity:1"
       id="path3219"
       sodipodi:cx="251.17261"
       sodipodi:cy="80.088181"
       sodipodi:rx="12.917448"
       sodipodi:ry="16.362101"
       d="M 264.09006,80.088181 A 12.917448,16.362101 0 1 1 264.09006,80.088181 A 12.917448,16.362101 0 1 1 264.09006,80.088181 z"
       transform="translate(250.28592,336.13744)" />
    <path
       style="fill:#ffffff;fill-opacity:1;fill-rule:evenodd;stroke:#000000;stroke-width:1px;stroke-linecap:butt;stroke-linejoin:miter;stroke-opacity:1"
       d="M 369.375,463.125 C 360.91182,463.28377 352.78448,465.81022 344.9375,468.75 C 345.27889,475.98664 351.02401,471.40966 355.28125,470.5 C 367.26151,466.52817 382.32592,466.75822 391.03125,477.28125 C 399.19528,486.24326 406.11638,499.54958 419.6875,500.34375 C 428.21643,500.98651 436.37578,497.85143 443.9375,494.28125 C 442.93313,488.67886 439.35688,490.62915 435.5,492.5 C 426.17882,496.73698 413.88687,497.02171 406.875,488.40625 C 398.24272,478.2702 389.91035,464.79837 375.28125,463.4375 C 373.34675,463.15494 371.3432,463.04888 369.375,463.125 z"
       id="path3231" />
    <path
       sodipodi:type="star"
       style="opacity:1;fill:#ffef00;fill-opacity:1;stroke:#feff82;stroke-width:1;stroke-linecap:round;stroke-linejoin:round;stroke-miterlimit:4;stroke-dasharray:none;stroke-opacity:1"
       id="path3251"
       sodipodi:sides="7"
       sodipodi:cx="229.35593"
       sodipodi:cy="44.949154"
       sodipodi:r1="31.458286"
       sodipodi:r2="17.736145"
       sodipodi:arg1="0.49642276"
       sodipodi:arg2="0.9452217"
       inkscape:flatsided="false"
       inkscape:rounded="0"
       inkscape:randomized="0"
       d="M 257.01694,59.932206 L 239.74156,59.326548 L 234.88807,75.917189 L 224.59056,62.033128 L 208.59338,68.58261 L 213.02798,51.875127 L 197.93331,43.451557 L 213.76068,36.501727 L 210.93511,19.448225 L 226.23691,27.489412 L 237.80817,14.647612 L 241.06183,31.624639 L 258.31651,32.664679 L 247.07196,45.793497 L 257.01694,59.932206 z"
       transform="translate(222.04863,443.90015)" />
    <path
       sodipodi:type="star"
       style="opacity:1;fill:#ffef00;fill-opacity:1;stroke:#feff82;stroke-width:1;stroke-linecap:round;stroke-linejoin:round;stroke-miterlimit:4;stroke-dasharray:none;stroke-opacity:1"
       id="path3273"
       sodipodi:sides="7"
       sodipodi:cx="229.35593"
       sodipodi:cy="44.949154"
       sodipodi:r1="16.011633"
       sodipodi:r2="7.6575055"
       sodipodi:arg1="0.52807446"
       sodipodi:arg2="0.95968921"
       inkscape:flatsided="false"
       inkscape:rounded="0"
       inkscape:randomized="0"
       d="M 243.18644,53.016952 L 233.74961,51.220753 L 231.67145,60.792472 L 227.19201,52.294551 L 218.41283,56.637651 L 222.26388,47.837115 L 213.39458,43.681153 L 222.67621,41.204986 L 220.39555,31.679485 L 228.1185,37.392292 L 234.14387,29.670149 L 234.4926,39.270069 L 244.28677,39.166215 L 236.99868,45.424313 L 243.18644,53.016952 z"
       transform="translate(299.92372,366.92284)" />
    <path
       sodipodi:type="star"
       style="opacity:1;fill:#ffef00;fill-opacity:1;stroke:#feff82;stroke-width:1;stroke-linecap:round;stroke-linejoin:round;stroke-miterlimit:4;stroke-dasharray:none;stroke-opacity:1"
       id="path3275"
       sodipodi:sides="7"
       sodipodi:cx="229.35593"
       sodipodi:cy="44.949154"
       sodipodi:r1="22.177086"
       sodipodi:r2="12.424087"
       sodipodi:arg1="0.42877804"
       sodipodi:arg2="0.88416529"
       inkscape:flatsided="false"
       inkscape:rounded="0"
       inkscape:randomized="0"
       d="M 249.52542,54.169494 L 237.23199,54.55777 L 234.72265,66.467087 L 226.75426,57.097785 L 215.87863,62.561237 L 218.23563,50.489633 L 207.18329,45.39313 L 218.09081,39.709387 L 215.1844,27.890699 L 226.42886,32.874793 L 233.85696,23.233633 L 236.97104,35.132438 L 249.14015,34.928797 L 241.77889,44.782271 L 249.52542,54.169494 z"
       transform="translate(237.11016,330.04148)" />
  </g>
</svg>
