<?xml version="1.0" encoding="UTF-8" standalone="no"?>
<!-- Created with Inkscape (http://www.inkscape.org/) -->
<svg
   xmlns:dc="http://purl.org/dc/elements/1.1/"
   xmlns:cc="http://creativecommons.org/ns#"
   xmlns:rdf="http://www.w3.org/1999/02/22-rdf-syntax-ns#"
   xmlns:svg="http://www.w3.org/2000/svg"
   xmlns="http://www.w3.org/2000/svg"
   xmlns:sodipodi="http://sodipodi.sourceforge.net/DTD/sodipodi-0.dtd"
   xmlns:inkscape="http://www.inkscape.org/namespaces/inkscape"
   width="633.61548"
   height="421.01721"
   id="svg8893"
   sodipodi:version="0.32"
   inkscape:version="0.46"
   version="1.0"
   sodipodi:docname="select_henhouse.svg"
   inkscape:output_extension="org.inkscape.output.svg.inkscape">
  <defs
     id="defs8895">
    <inkscape:perspective
       sodipodi:type="inkscape:persp3d"
       inkscape:vp_x="0 : 526.18109 : 1"
       inkscape:vp_y="0 : 1000 : 0"
       inkscape:vp_z="744.09448 : 526.18109 : 1"
       inkscape:persp3d-origin="372.04724 : 350.78739 : 1"
       id="perspective8901" />
  </defs>
  <sodipodi:namedview
     id="base"
     pagecolor="#ffffff"
     bordercolor="#666666"
     borderopacity="1.0"
     gridtolerance="10000"
     guidetolerance="10"
     objecttolerance="10"
     inkscape:pageopacity="0.0"
     inkscape:pageshadow="2"
     inkscape:zoom="1.2659815"
     inkscape:cx="316.80774"
     inkscape:cy="210.50861"
     inkscape:document-units="px"
     inkscape:current-layer="layer1"
     showgrid="false"
     inkscape:window-width="1280"
     inkscape:window-height="735"
     inkscape:window-x="1280"
     inkscape:window-y="24" />
  <metadata
     id="metadata8898">
    <rdf:RDF>
      <cc:Work
         rdf:about="">
        <dc:format>image/svg+xml</dc:format>
        <dc:type
           rdf:resource="http://purl.org/dc/dcmitype/StillImage" />
      </cc:Work>
    </rdf:RDF>
  </metadata>
  <g
     inkscape:label="Layer 1"
     inkscape:groupmode="layer"
     id="layer1"
     transform="translate(-41.763672,-314.71075)">
    <rect
       style="opacity:1;fill:#a2ff46;fill-opacity:1;stroke:#000000;stroke-width:0;stroke-linecap:round;stroke-linejoin:bevel;stroke-miterlimit:4;stroke-dasharray:none;stroke-opacity:1"
       id="rect8908"
       width="633.61548"
       height="421.01721"
       x="41.763672"
       y="314.71075" />
    <path
       style="fill:#58ff00;fill-opacity:1;fill-rule:evenodd;stroke:#124900;stroke-width:1;stroke-linecap:butt;stroke-linejoin:miter;stroke-miterlimit:4;stroke-dasharray:none;stroke-opacity:1"
       d="M 59.109395,455.17355 C 52.178425,451.62235 56.059525,388.58765 60.885025,388.58765 C 70.746503,408.71135 77.340943,428.83515 77.753463,448.95895 C 75.148163,408.44455 80.787623,372.05255 87.519403,336.20668 C 99.843303,374.01975 111.33214,411.69375 109.71472,447.18325 C 111.12026,417.51535 116.90971,392.23135 130.13441,374.38265 C 136.85639,397.30515 143.82045,420.17915 139.01254,445.40765 C 141.81695,399.49155 155.60707,367.30765 167.42255,332.65543 C 171.79738,370.81855 178.73735,409.49465 171.86161,445.40765 C 176.4429,419.94555 182.43388,397.30285 194.05693,385.92425 C 201.40644,411.12825 202.09183,434.99955 197.60818,457.83705 L 59.109395,455.17355 z"
       id="path5109"
       sodipodi:nodetypes="cccccccccccc" />
    <path
       sodipodi:type="star"
       style="opacity:1;fill:#00ffeb;fill-opacity:1;stroke:#008c92;stroke-width:1;stroke-linecap:round;stroke-linejoin:bevel;stroke-miterlimit:4;stroke-dasharray:none;stroke-opacity:1"
       id="path3939"
       sodipodi:sides="9"
       sodipodi:cx="336.49481"
       sodipodi:cy="204.92694"
       sodipodi:r1="213.69962"
       sodipodi:r2="160.2747"
       sodipodi:arg1="-0.49368865"
       sodipodi:arg2="-0.1446228"
       inkscape:flatsided="false"
       inkscape:rounded="0"
       inkscape:randomized="0"
       d="M 524.67675,103.65954 L 495.0963,181.82828 L 545.74396,248.31263 L 472.83813,289.17941 L 468.90118,372.66507 L 386.78341,357.10788 L 330.10398,418.53097 L 277.19809,353.82919 L 194.29713,364.44918 L 195.35837,280.87748 L 125.02615,235.72515 L 179.55796,172.38768 L 154.70371,92.590304 L 237.19004,79.123351 L 269.44335,2.0190149 L 341.28793,44.723924 L 415.55711,6.3905996 L 443.14307,85.285269 L 524.67675,103.65954 z"
       transform="translate(-75.138963,314.94436)" />
    <rect
       style="fill:#ff0000;fill-opacity:1;stroke:#000000;stroke-width:4;stroke-linecap:round;stroke-linejoin:bevel;stroke-miterlimit:4;stroke-dasharray:none;stroke-opacity:1"
       id="rect7113"
       width="31.270035"
       height="77.270035"
       x="223.21283"
       y="634.61151" />
    <rect
       style="fill:#ff0000;fill-opacity:1;stroke:#000000;stroke-width:4;stroke-linecap:round;stroke-linejoin:bevel;stroke-miterlimit:4;stroke-dasharray:none;stroke-opacity:1"
       id="rect7115"
       width="31.468674"
       height="70.468674"
       x="618.82782"
       y="641.51221" />
    <rect
       style="fill:#ff0000;fill-opacity:1;stroke:#000000;stroke-width:4;stroke-linecap:round;stroke-linejoin:bevel;stroke-miterlimit:4;stroke-dasharray:none;stroke-opacity:1"
       id="rect7117"
       width="30.850006"
       height="92.850006"
       x="114.1007"
       y="618.82153" />
    <path
       style="fill:#ff0000;fill-opacity:1;stroke:#000000;stroke-width:4;stroke-linecap:round;stroke-linejoin:round;stroke-miterlimit:4;stroke-dasharray:none;stroke-opacity:1"
       d="M 224.96285,490.57937 L 105.2728,547.92255 L 113.41711,547.92255 L 113.41711,631.39442 L 222.98942,631.39442 L 222.98942,547.92255 L 224.96285,547.92255 L 224.96285,490.57937 z"
       id="rect7087" />
    <path
       style="fill:#58ff00;fill-opacity:1;fill-rule:evenodd;stroke:#124900;stroke-width:1;stroke-linecap:butt;stroke-linejoin:miter;stroke-miterlimit:4;stroke-dasharray:none;stroke-opacity:1"
       d="M 565.00369,385.11066 C 557.18689,371.51793 562.4257,355.74928 568.55494,339.83221 C 582.24893,352.42298 592.40066,365.7222 594.30151,380.6716 C 590.88195,360.89646 597.57626,345.16686 605.84307,330.06627 C 616.00282,346.11292 624.76355,362.62591 620.93589,383.33503 C 624.11838,368.03963 627.16746,352.64417 639.57995,344.27127 C 648.67675,359.06815 647.48258,373.86503 644.90683,388.66191 L 565.00369,385.11066 z"
       id="path3213"
       sodipodi:nodetypes="cccccccc" />
    <path
       style="fill:#ff0000;fill-opacity:1;stroke:#000000;stroke-width:4;stroke-linecap:round;stroke-linejoin:bevel;stroke-miterlimit:4;stroke-dasharray:none;stroke-opacity:1"
       d="M 437.18005,327.81364 L 202.91332,422.58301 L 223.40022,422.58301 L 223.40022,672.0664 L 650.95987,672.0664 L 650.95987,422.58301 L 671.44676,422.58301 L 437.18005,327.81364 z"
       id="rect5426" />
    <rect
       style="fill:#000000;fill-opacity:1;stroke:#000000;stroke-width:0.87412381;stroke-linecap:round;stroke-linejoin:miter;stroke-miterlimit:4;stroke-dasharray:none;stroke-opacity:1"
       id="rect7111"
       width="109.27082"
       height="130.93074"
       x="316.06958"
       y="532.91956" />
    <path
       style="fill:#ff0000;fill-opacity:1;fill-rule:evenodd;stroke:#000000;stroke-width:4;stroke-linecap:butt;stroke-linejoin:miter;stroke-miterlimit:4;stroke-dasharray:none;stroke-opacity:1"
       d="M 347.19595,647.3022 L 300.19595,714.3022 L 441.19595,714.3022 L 394.19595,647.3022 L 347.19595,647.3022 z"
       id="path7123"
       sodipodi:nodetypes="ccccc" />
    <path
       style="fill:#58ff00;fill-opacity:1;fill-rule:evenodd;stroke:#124900;stroke-width:1;stroke-linecap:butt;stroke-linejoin:miter;stroke-miterlimit:4;stroke-dasharray:none;stroke-opacity:1"
       d="M 54.085711,718.00379 C 47.154741,714.45259 51.035841,651.41789 55.861341,651.41789 C 65.722821,671.54159 72.317261,691.66539 72.729781,711.78919 C 70.124481,671.27479 75.763941,634.88279 82.495721,599.03692 C 94.819621,636.84999 106.30846,674.52399 104.69104,710.01349 C 106.09658,680.34559 111.88603,655.06159 125.11073,637.21289 C 131.83271,660.13539 138.79677,683.00939 133.98886,708.23789 C 136.79327,662.32179 150.58339,630.13789 162.39887,595.48567 C 166.7737,633.64879 173.71367,672.32489 166.83793,708.23789 C 171.41922,682.77579 177.4102,660.13309 189.03325,648.75449 C 196.38276,673.95849 197.06815,697.82979 192.5845,720.66729 L 54.085711,718.00379 z"
       id="path8068"
       sodipodi:nodetypes="cccccccccccc" />
    <path
       style="fill:#58ff00;fill-opacity:1;fill-rule:evenodd;stroke:#124900;stroke-width:1;stroke-linecap:butt;stroke-linejoin:miter;stroke-miterlimit:4;stroke-dasharray:none;stroke-opacity:1"
       d="M 516.4706,716.89125 C 508.6538,703.29852 513.89261,687.52987 520.02185,671.6128 C 533.71584,684.20357 543.86757,697.50279 545.76842,712.45219 C 542.34886,692.67705 549.04317,676.94745 557.30998,661.84686 C 567.46973,677.89351 576.23046,694.4065 572.4028,715.11562 C 575.58529,699.82022 578.63437,684.42476 591.04686,676.05186 C 600.14366,690.84874 598.94949,705.64562 596.37374,720.4425 L 516.4706,716.89125 z"
       id="path8075"
       sodipodi:nodetypes="cccccccc" />
    <g
       id="g3797"
       transform="translate(277.20478,91.914496)">
      <rect
         y="374.22797"
         x="235.56927"
         height="74.314903"
         width="69.519279"
         id="rect3280"
         style="fill:#000000;fill-opacity:1;stroke:#000000;stroke-width:0.87400001;stroke-linecap:round;stroke-linejoin:miter;stroke-miterlimit:4;stroke-dasharray:none;stroke-opacity:1" />
      <rect
         y="365.00861"
         x="264.30594"
         height="90.344406"
         width="12.045922"
         id="rect3282"
         style="opacity:1;fill:#ff0000;fill-opacity:1;stroke:#000000;stroke-width:0;stroke-linecap:round;stroke-linejoin:bevel;stroke-miterlimit:4;stroke-dasharray:none;stroke-opacity:1" />
      <rect
         transform="matrix(0,1,-1,0,0,0)"
         y="-318.5126"
         x="405.36246"
         height="90.344406"
         width="12.045922"
         id="rect3793"
         style="opacity:1;fill:#ff0000;fill-opacity:1;stroke:#000000;stroke-width:0;stroke-linecap:round;stroke-linejoin:bevel;stroke-miterlimit:4;stroke-dasharray:none;stroke-opacity:1" />
    </g>
  </g>
</svg>
