<?xml version="1.0" encoding="UTF-8" standalone="no"?>
<!-- Uploaded to: SVG Repo, www.svgrepo.com, Generator: SVG Repo Mixer Tools -->

<svg
   width="525"
   height="525"
   viewBox="0 0 525 525"
   aria-hidden="true"
   role="img"
   class="iconify iconify--fxemoji"
   preserveAspectRatio="xMidYMid"
   version="1.1"
   id="svg7"
   sodipodi:docname="stallion.svg"
   inkscape:version="1.3.2 (091e20e, 2023-11-25, custom)"
   xmlns:inkscape="http://www.inkscape.org/namespaces/inkscape"
   xmlns:sodipodi="http://sodipodi.sourceforge.net/DTD/sodipodi-0.dtd"
   xmlns="http://www.w3.org/2000/svg"
   xmlns:svg="http://www.w3.org/2000/svg">
  <defs
     id="defs7">
    <linearGradient
       id="IconifyId17ecdb2904d178eab9182"
       gradientUnits="userSpaceOnUse"
       x1="23.860001"
       y1="70.781998"
       x2="19.916"
       y2="102.334"
       gradientTransform="matrix(4.1827696,0,0,4.1827696,-8.9376225,-8.6758647)">
      <stop
         offset="0.30599999"
         stop-color="#b3875d"
         id="stop3"
         style="stop-color:#784421;stop-opacity:1;" />
      <stop
         offset=".567"
         stop-color="#a87c5b"
         id="stop4" />
      <stop
         offset=".926"
         stop-color="#916656"
         id="stop5" />
    </linearGradient>
    <linearGradient
       id="IconifyId17ecdb2904d178eab9183"
       gradientUnits="userSpaceOnUse"
       x1="76.399002"
       y1="58.587002"
       x2="72.263"
       y2="104.09"
       gradientTransform="matrix(4.1827696,0,0,4.1827696,-8.9376225,-8.6758647)">
      <stop
         offset="0.47600001"
         stop-color="#b3875d"
         id="stop6"
         style="stop-color:#784421;stop-opacity:1;" />
      <stop
         offset=".735"
         stop-color="#a4785a"
         id="stop7" />
      <stop
         offset=".985"
         stop-color="#916656"
         id="stop8" />
    </linearGradient>
    <linearGradient
       id="IconifyId17ecdb2904d178eab9184"
       gradientUnits="userSpaceOnUse"
       x1="41.299"
       y1="112.112"
       x2="45.998001"
       y2="70.490997"
       gradientTransform="matrix(4.1827696,0,0,4.1827696,-8.9376225,-8.6758647)">
      <stop
         offset="0"
         stop-color="#865b52"
         id="stop10" />
      <stop
         offset="0.54500002"
         stop-color="#feaf5f"
         id="stop11"
         style="stop-color:#c8713f;stop-opacity:1;" />
    </linearGradient>
    <linearGradient
       id="IconifyId17ecdb2904d178eab9185"
       gradientUnits="userSpaceOnUse"
       x1="62.056999"
       y1="118.415"
       x2="96.686996"
       y2="68.959"
       gradientTransform="matrix(4.1827696,0,0,4.1827696,-8.9376225,-8.6758647)">
      <stop
         offset="0"
         stop-color="#865b52"
         id="stop12" />
      <stop
         offset="0.56"
         stop-color="#feaf5f"
         id="stop15"
         style="stop-color:#c8713f;stop-opacity:1;" />
    </linearGradient>
    <radialGradient
       id="IconifyId17ecdb2904d178eab9186"
       cx="-0.117"
       cy="70.575996"
       r="51.660999"
       gradientUnits="userSpaceOnUse"
       gradientTransform="matrix(4.1827696,0,0,4.1827696,-8.9376225,-8.6758647)">
      <stop
         offset=".226"
         stop-color="#865b52"
         id="stop16" />
      <stop
         offset=".285"
         stop-color="#895d52"
         id="stop17" />
      <stop
         offset=".336"
         stop-color="#946554"
         id="stop18" />
      <stop
         offset=".385"
         stop-color="#a67255"
         id="stop19" />
      <stop
         offset=".432"
         stop-color="#c08358"
         id="stop20" />
      <stop
         offset=".477"
         stop-color="#e09a5c"
         id="stop21" />
      <stop
         offset=".512"
         stop-color="#feaf5f"
         id="stop22" />
    </radialGradient>
  </defs>
  <sodipodi:namedview
     id="namedview7"
     pagecolor="#ffffff"
     bordercolor="#666666"
     borderopacity="1.0"
     inkscape:showpageshadow="2"
     inkscape:pageopacity="0.0"
     inkscape:pagecheckerboard="0"
     inkscape:deskcolor="#d1d1d1"
     inkscape:zoom="2.5703331"
     inkscape:cx="58.941776"
     inkscape:cy="278.17406"
     inkscape:window-width="3291"
     inkscape:window-height="1817"
     inkscape:window-x="-11"
     inkscape:window-y="-11"
     inkscape:window-maximized="1"
     inkscape:current-layer="svg7" />
  <g
     id="g1">
    <path
       d="m 65.306544,68.914517 c 0,0 -13.301207,-29.906803 -22.001368,-27.397141 -8.700161,2.509662 -1.254831,41.953179 -1.254831,41.953179 z"
       fill="#feaf5f"
       id="path1"
       style="stroke-width:4.18277;fill:#c87137" />
    <path
       d="m 415.46281,262.68405 c 0,0 15.76904,5.39578 26.97886,-9.95499 11.20982,-15.35076 6.69243,-33.16936 21.70858,-53.83224 9.45306,-12.96659 21.20664,-9.45306 33.42033,-5.93954 12.50648,3.55536 22.00136,3.93181 22.41964,-4.14094 0.12548,-2.426 -3.05342,-17.65129 -16.6056,-31.57991 -14.93248,-15.35076 -35.09343,-26.14231 -65.16755,-14.3469 -27.52262,10.79155 -35.21892,46.72154 -35.21892,46.72154 z"
       fill="#865b52"
       id="path2"
       style="fill:#502d16;fill-opacity:1;stroke-width:4.18277" />
    <path
       d="m 235.5871,178.12663 c 0,0 27.95694,0.003 21.47365,-19.15423 C 250.201,138.68597 228.02845,124.33784 213.44192,112.08644 196.65666,97.988293 187.18121,74.328284 122.15038,63.142295 110.42671,61.1257 91.825304,58.583076 75.637985,58.583076 c -16.187318,0 -40.280071,10.791546 -45.257567,31.95636 -4.977496,21.164814 -7.905435,31.161634 -11.6281,32.792914 -3.722665,1.63128 -14.1377613,0 -14.5142105,7.48716 -0.3764493,7.48716 9.9549915,9.53671 24.0927535,8.70016 14.137761,-0.83656 34.047744,-10.79155 42.371456,-21.16482 8.323712,-10.37326 15.350765,-26.142306 15.350765,-26.142306 z"
       fill="#865b52"
       id="path3"
       style="fill:#502d16;fill-opacity:1;stroke-width:4.18277"
       sodipodi:nodetypes="ccsssssssscc" />
    <path
       d="m 118.88782,285.70747 c 0,0 -22.001365,13.71948 -33.211188,17.02387 -11.209822,3.30439 -26.14231,-1.25483 -36.557406,9.11844 -10.373269,10.37327 -4.559219,19.95181 -8.700161,30.32508 -4.140942,10.37327 -20.286433,26.05865 -18.69698,41.5349 2.091384,20.32826 19.742672,30.11594 19.742672,30.11594 0,0 16.814734,-15.97818 16.396457,-30.95249 -0.418277,-14.97432 -0.418277,-22.00137 1.673108,-29.07025 2.091385,-7.06888 10.373269,-19.53354 16.605596,-21.58309 6.232326,-2.09139 28.651972,-1.25484 38.606962,-1.67311 9.95499,-0.41828 28.65197,-2.09139 28.65197,-2.09139 z"
       fill="url(#IconifyId17ecdb2904d178eab9182)"
       id="path5"
       style="fill:#a05b2c;stroke-width:4.18277;fill-opacity:1" />
    <path
       d="m 355.17248,240.4499 -102.14323,88.84203 -5.31212,19.61719 c 0,0 16.52194,-2.80246 21.91771,-4.47557 5.39577,-1.6731 13.09207,-3.51352 13.09207,-3.51352 0,0 2.63515,3.4717 4.35008,12.04637 2.09139,10.37327 1.67311,17.02388 0.83655,18.27871 -2.30052,3.42987 -18.2787,9.95499 -24.51103,10.37327 -6.23232,0.41827 -22.00136,-2.21687 -29.48852,9.53671 -5.81405,9.11844 -2.76063,13.17572 -3.30439,15.35076 -0.83655,3.30439 -7.6963,5.18664 -5.18663,11.41897 2.50966,6.23232 33.8386,2.7188 33.8386,2.7188 0,0 1.9659,-8.4492 3.72267,-8.70016 4.35008,-0.62742 11.6281,-2.50967 16.18732,-8.32372 4.55921,-5.81405 39.86179,-8.32371 43.58446,-15.76904 5.39577,-10.79154 -0.83656,-24.9293 -1.25484,-38.18868 -0.41827,-13.25938 -0.41827,-24.72017 0.62742,-26.97887 12.04638,-7.06888 28.02456,-22.00137 28.02456,-22.00137 l 28.65197,-50.23506 z"
       fill="url(#IconifyId17ecdb2904d178eab9183)"
       id="path8"
       style="fill:#a05b2c;stroke-width:4.18277;fill-opacity:1" />
    <path
       fill="#b3875d"
       d="m 112.23722,191.84612 11.54444,22.2105 56.1746,-44.63015 -51.53172,-44.42101 -22.41965,37.77041 z"
       id="path9"
       style="stroke-width:4.18277;fill:#a05b2c;fill-opacity:1" />
    <path
       d="m 120.97921,208.45171 c 1.25483,4.35008 2.88611,9.95499 3.72266,14.93249 0.83656,4.9775 1.25483,12.46465 1.25483,12.46465 0,0 -16.39645,9.53672 -18.69698,24.92931 -2.13321,14.43056 0.50194,38.10503 7.15254,50.15141 6.6506,12.04637 17.14936,21.49943 28.02456,25.2221 11.79541,4.05729 26.10048,11.92089 53.58128,14.3469 19.11525,1.67311 45.67584,5.39577 78.46875,-11.20982 32.79292,-16.6056 59.47899,-56.88567 64.03821,-65.20938 4.55922,-8.32371 13.71948,-21.58309 18.2787,-17.86043 4.55922,3.72267 -8.32371,12.46466 -11.6281,29.48853 -3.30439,17.02387 1.08752,37.51944 25.34758,44.83929 25.76587,7.77995 59.06071,-4.9775 65.29304,-53.58128 6.23233,-48.60378 -22.12685,-82.52605 -48.26916,-95.91091 -20.32826,-10.4151 -42.83156,-11.29348 -56.38374,-7.48716 -7.36167,2.09139 -13.80314,7.90544 -20.2446,9.955 -5.27029,1.71493 -28.2337,2.426 -40.48921,1.6731 -14.3469,-0.87838 -11.12617,-6.27415 -23.96727,-14.59786 -12.88293,-8.32371 -16.81474,-5.89771 -21.70858,-10.74972 C 218.43774,153.6156 193.46661,117.10002 159.12607,94.220273 129.21926,74.268462 112.40453,72.84632 112.40453,72.84632 c 0,0 2.80246,-8.114573 0.83655,-20.955675 -1.25483,-8.114574 -8.32371,-21.79223 -12.88293,-22.210507 -4.350077,-0.418277 -12.297339,11.377133 -14.346896,22.419645 -2.509662,13.510346 1.254831,22.419645 1.254831,22.419645 0,0 -0.920209,27.397142 -16.52194,46.094122 -15.601731,18.69698 49.816785,9.32758 58.851565,13.38486 9.03479,4.05729 16.14549,23.33986 14.93249,40.19642 -1.46397,21.79223 -23.88361,33.16936 -23.54899,34.25688 z"
       fill="#feaf5f"
       id="path10"
       style="stroke-width:4.18277;fill:#c87137" />
    <path
       d="m 165.19108,334.60404 c 0,0 -3.09525,8.40737 -4.6847,9.6622 -1.54762,1.25483 -11.83724,12.75745 -16.52194,17.44215 -4.6847,4.6847 -10.58241,11.12617 -13.09207,13.30121 -2.50966,2.17504 -13.00841,7.90543 -12.46465,18.78064 0.83655,16.73107 9.11844,18.36235 10.91703,27.10434 1.46397,7.23619 2.92794,17.3585 7.77995,25.2221 5.60491,9.03479 13.51034,13.80314 25.975,13.80314 12.46465,0 19.82633,-25.01296 19.82633,-25.01296 0,0 -10.91703,-15.5599 -15.89453,-14.63969 -4.97749,0.92021 -5.81405,5.81405 -8.70016,4.05728 -3.38804,-2.04955 -4.47556,-9.53671 -5.39577,-13.594 -0.92021,-4.05728 -3.42987,-8.9093 -1.88225,-10.79154 1.54763,-1.88225 17.40032,-10.20596 25.64038,-15.76905 13.80314,-9.32757 49.81679,-37.39396 49.81679,-37.39396 0,0 24.97113,-64.62379 -24.59469,-56.67652 -42.62242,6.81791 -36.72472,44.50466 -36.72472,44.50466 z"
       fill="url(#IconifyId17ecdb2904d178eab9184)"
       id="path11"
       style="fill:#c8713f;stroke-width:4.18277;fill-opacity:1" />
    <path
       d="m 392.14816,239.61335 c -12.21368,-2.04956 -45.88498,15.89452 -49.39851,62.0723 -1.88224,24.72017 -5.31211,44.75563 -6.85974,51.28075 -1.54762,6.52512 -4.35008,15.26711 -5.8977,16.52194 -1.54763,1.25483 -10.45693,7.19437 -17.52581,17.52581 -7.27802,10.58241 -5.18663,21.70857 -7.36167,24.80382 -2.17504,3.09525 -10.49875,10.08048 -17.52581,17.14936 -4.76835,4.76836 -20.74653,4.05728 -26.97886,11.20982 -6.23233,7.15254 -5.31212,14.93249 -5.31212,14.93249 0,0 -12.04638,3.09525 -15.47625,11.20982 -3.42987,8.11457 4.55922,18.36236 11.41896,19.3244 6.85975,0.96203 21.62492,3.38804 23.04707,1.88224 4.55921,-4.97749 1.25483,-15.5599 1.25483,-15.5599 0,0 6.85974,0 13.09207,-8.40737 6.23232,-8.40736 14.63969,-13.71948 21.79223,-19.61719 7.15253,-5.8977 33.8386,-25.26393 38.94158,-34.5915 6.73426,-12.33917 4.35008,-23.96727 9.03478,-31.45443 4.6847,-7.48716 13.80314,-15.47625 30.9525,-29.48853 13.71948,-11.20982 29.65584,-21.08115 40.90749,-48.81292 16.06183,-39.86179 -30.61788,-58.72608 -38.10504,-59.98091 z"
       fill="url(#IconifyId17ecdb2904d178eab9185)"
       id="path15"
       style="fill:#c8713f;stroke-width:4.18277;fill-opacity:1" />
    <path
       d="m 133.10924,130.90316 c -4.9775,1.88225 -8.40737,1.54763 -8.11457,5.60491 0.29279,4.05729 12.46465,14.01228 9.32757,33.00206 -3.13707,18.98977 -15.26711,29.27938 -26.47693,33.00205 -11.209821,3.72266 -23.256198,3.22073 -23.256198,3.22073 l -15.97818,18.27871 c 0,0 1.045693,15.14162 -9.118438,22.00136 -7.528985,5.06115 -12.046376,3.51353 -12.046376,3.51353 0,0 -6.692432,5.73039 -14.3469,3.30439 C 23.144226,249.73565 5.7020768,237.271 7.5424955,210.2503 9.257431,185.40465 27.703445,170.05389 31.844387,160.64266 c 1.924074,-4.43374 1.045693,-21.5831 1.045693,-21.5831 0,0 24.092753,-5.81405 36.139129,-19.74267 8.574678,-9.91316 15.97818,-24.511029 16.396457,-30.534217 0.418277,-6.023189 70.814294,21.164817 70.814294,21.164817 z"
       fill="url(#IconifyId17ecdb2904d178eab9186)"
       id="path22"
       style="fill:#c87137;stroke-width:4.18277" />
    <path
       d="m 86.80598,138.72494 c 3.09525,5.7304 0.669243,12.54831 -4.308253,15.26711 -4.099114,2.2587 -12.757447,-0.25096 -14.974315,-5.85588 -2.593317,-6.60877 -1.08752,-12.00454 3.931804,-14.72335 5.019323,-2.67697 12.255515,-0.41827 15.350764,5.31212 z"
       fill="#2f2927"
       id="path23"
       style="stroke-width:4.18277" />
    <path
       d="m 20.258115,215.31145 c -3.429871,3.26256 -3.095249,9.74586 0.627416,16.18732 3.722665,6.44147 8.114573,9.53672 12.255515,6.85975 4.140942,-2.67698 2.300523,-10.58241 -0.418277,-16.81474 -2.718801,-6.23233 -8.9093,-9.53671 -12.464654,-6.23233 z"
       fill="#523226"
       id="path24"
       style="stroke-width:4.18277" />
    <path
       d="m 51.377921,222.79861 c 0,-1.25483 -6.232326,-12.00455 0.92021,-15.89452 4.726529,-2.55149 9.954991,1.25483 9.494887,7.77995 -0.460105,6.27415 -3.262561,8.57468 -3.262561,8.57468 0,0 0.627416,3.26256 -1.714935,15.0998 -1.756763,8.99295 -5.144807,10.1223 -7.319847,11.83723 -1.63128,1.29666 -9.829509,4.05729 -8.574678,2.00773 1.254831,-2.00773 7.487158,-9.6622 8.867472,-16.64742 1.045692,-5.18663 1.589452,-12.75745 1.589452,-12.75745 z"
       fill="#523226"
       id="path25"
       style="stroke-width:4.18277" />
    <path
       d="m 57.735731,383.79342 c 0,0 -4.89384,9.20209 -7.779951,14.22141 -4.057287,7.02706 -11.209823,13.51035 -11.209823,13.51035 0,0 7.947262,11.37713 17.734943,15.43442 9.829509,4.05728 13.552174,-13.21755 12.297343,-27.73176 -0.627415,-7.31985 -2.17504,-11.83724 -5.144807,-14.17959 -1.798591,-1.42215 -5.897705,-1.25483 -5.897705,-1.25483 z"
       fill="#6b4733"
       id="path26"
       style="stroke-width:4.18277" />
    <path
       d="m 163.93625,421.68931 c 3.09525,5.39577 6.35781,12.96658 5.89771,20.32826 -0.62742,10.74972 -7.61264,17.90225 -7.61264,17.90225 0,0 8.44919,2.55149 21.24847,2.00773 8.70016,-0.37645 13.97045,-2.34235 15.35076,-4.81018 1.42214,-2.50966 -1.42214,-15.72722 -8.11457,-26.30962 -6.69243,-10.58241 -12.29734,-11.58628 -15.5599,-12.63197 -4.76836,-1.46397 -11.20983,3.51353 -11.20983,3.51353 z"
       fill="#6b4733"
       id="path27"
       style="stroke-width:4.18277" />
    <path
       d="m 243.53436,417.92482 c -9.32758,-0.2928 -18.69698,-3.09525 -18.69698,-3.09525 0,0 -2.00773,6.06501 -2.63515,15.09979 -0.62741,8.70017 -1.08752,16.02001 2.50967,17.27484 3.59718,1.25483 13.55217,-0.79472 23.67447,-7.61264 5.27029,-3.55535 10.1223,-11.20982 11.04251,-13.21755 0.92021,-2.00773 0.92021,-8.70016 0.92021,-8.70016 0,0 -9.32757,0.50193 -16.81473,0.25097 z"
       fill="#6b4733"
       id="path28"
       style="stroke-width:4.18277" />
    <path
       d="m 242.57232,462.42948 c -2.34235,1.08752 -6.23233,8.24006 -9.32757,13.09207 -3.09525,4.81019 -6.81792,11.75359 -6.52513,14.01228 0.46011,3.72267 5.60492,6.06502 20.41192,5.77222 14.80701,-0.29279 23.96727,-4.97749 25.05479,-5.60491 1.08752,-0.62741 2.80246,-3.42987 2.80246,-3.42987 0,0 -5.4376,-7.31985 -15.26711,-14.63969 -9.82951,-7.31985 -17.14936,-9.2021 -17.14936,-9.2021 z"
       fill="#6b4733"
       id="path29"
       style="stroke-width:4.18277" />
    <path
       d="m 157.49479,341.75658 c 0,0 -5.18664,-4.89384 -8.19823,-9.6622 -4.35008,-6.85974 -5.89771,-11.54444 -7.15254,-22.12685 -0.87838,-7.36167 4.05729,-21.12299 -6.06501,-22.21051 -7.61264,-0.83655 -11.54445,3.63901 -10.74972,17.23302 0.62741,11.16799 7.15253,24.30189 8.40737,25.84951 1.25483,1.54763 3.80632,4.05729 10.41509,7.15254 6.60878,3.09525 13.34304,3.76449 13.34304,3.76449 z"
       fill="#b3875d"
       id="path30"
       style="stroke-width:4.18277;fill:#a05b2c;fill-opacity:1" />
  </g>
</svg>
