<?xml version="1.0" encoding="UTF-8" standalone="no"?>
<!-- Created with Inkscape (http://www.inkscape.org/) -->

<svg
   xmlns:dc="http://purl.org/dc/elements/1.1/"
   xmlns:cc="http://creativecommons.org/ns#"
   xmlns:rdf="http://www.w3.org/1999/02/22-rdf-syntax-ns#"
   xmlns:svg="http://www.w3.org/2000/svg"
   xmlns="http://www.w3.org/2000/svg"
   xmlns:xlink="http://www.w3.org/1999/xlink"
   xmlns:sodipodi="http://sodipodi.sourceforge.net/DTD/sodipodi-0.dtd"
   xmlns:inkscape="http://www.inkscape.org/namespaces/inkscape"
   inkscape:output_extension="org.inkscape.output.svg.inkscape"
   sodipodi:docname="uniform_sergeant.svg"
   version="1.0"
   inkscape:version="0.48.4 r9939"
   sodipodi:version="0.32"
   id="svg2"
   height="525"
   width="525">
  <defs
     id="defs4">
    <pattern
       inkscape:collect="always"
       xlink:href="#Camouflage"
       id="pattern6744"
       patternTransform="scale(1.1038421,0.92478446)" />
    <pattern
       inkscape:stockid="Camouflage"
       id="Camouflage"
       patternTransform="translate(0,0) scale(0.2,0.2)"
       height="400"
       width="372"
       patternUnits="userSpaceOnUse"
       inkscape:collect="always">
      <g
         id="g3410">
        <path
           id="rect5504"
           d="M 89,270 L 480,270 L 480,680 L 89,680 L 89,270 z"
           style="fill:#344a33;" />
        <g
           transform="matrix(0.5,0,0,0.5,161.785,352.005)"
           id="g5707"
           style="fill:#463a28;fill-opacity:1">
          <path
             id="path7788"
             d="M 600,178.31 C 560.97,190.236 519.231,189.9 479.23,183.581 C 455.918,186.853 438.62,213.05 412.95,203.143 C 384.723,200.460 356.541,204.918 328.406,206.68 C 309.806,190.517 275.53,228.018 306.603,234.354 C 327.210,236.132 348.992,229.341 368.62,238.962 C 383.037,247.894 390.808,258.693 408.529,259.350 C 420.656,274.332 386.675,270.062 378.494,268.502 C 357.207,270.434 385.060,292.401 395.894,290.848 C 424.579,294.517 449.809,275.993 477.405,272.721 C 495.590,279.799 463.282,296.428 453.105,296.250 C 438.778,294.524 418.703,307.58 439.246,316.579 C 457.033,324.061 485.201,315.67 493.525,338.098 C 485.057,361.173 449.064,351.396 431.337,343.369 C 413.333,329.691 390.442,339.22 375.767,353.012 C 362.304,365.825 347.051,376.832 329.963,383.669 C 312.790,403.576 345.997,415.972 357.265,402.870 C 362.161,424.280 326.751,414.476 324.658,431.463 C 341.974,441.266 373.473,430.487 380.502,454.940 C 378.508,479.296 348.435,488.15 329.175,477.225 C 300.598,468.454 269.938,460.273 240.214,468.494 C 224.261,471.401 206.547,476.887 191.786,467.162 C 172.250,457.596 155.905,442.99 138,430.8 C 124.824,404.143 96.097,387.060 66.775,384.893 C 46.983,374.555 15.716,362.529 -2.282,380.956 C -5.629,405.028 31.603,403.219 46.194,414.656 C 67.224,420.952 69.502,454.051 42.915,450.37 C 12.992,451.162 -21.439,452.420 -45.709,431.774 C -57.746,419.467 -61.574,401.735 -71.239,387.695 C -88.819,367.483 -61.456,351.684 -42.526,355.292 C -16.517,355.025 -17.113,321.144 -10.032,303.64 C -25.652,288.652 -40.742,321.498 -56.006,324.403 C -78.301,322.326 -83.577,292.543 -82.521,274.145 C -80.525,250.62 -107.323,242.235 -114.751,221.643 C -125.662,204.223 -139.460,220.004 -131.811,234.932 C -120.793,259.937 -133.284,286.858 -127.928,312.715 C -124.867,334.367 -91.797,344.018 -99.659,368.317 C -111.945,383.164 -125.622,410.580 -150,399.781 C -150,424. -150,448.718 -150,473.18 C -125.302,478.553 -132.230,508.537 -136.682,526.118 C -138.435,548.920 -115.870,560.382 -97.390,566.074 C -79.986,572.020 -63.202,582.322 -55.644,599.777 C -37.724,622.346 -5.898,618.235 19.446,623.426 C 38.438,629.090 57.258,637.088 77.557,634.888 C 128.370,635.236 179.185,634.855 230,635 C 205.840,620.831 176.501,628.467 150.735,620.057 C 174.602,613.037 202.175,628.036 223.812,611.93 C 248.788,599.491 208.494,588.826 196.470,593.890 C 174.716,597.94 151.747,602.937 130.463,593.724 C 109.734,583.381 90.847,567.89 76.969,549.340 C 58.947,527.803 79.814,500.291 105.420,509.858 C 127.255,513.818 153.171,511.947 169.881,529.057 C 154.102,533.042 132.701,517.975 116.702,530.217 C 97.280,546.038 118.157,574.262 136.675,579.629 C 161.105,588.782 187.823,576.764 211.865,587.810 C 236.001,599.167 265.115,595.524 286.270,579.468 C 302.270,568.417 341.076,576.817 350.421,572.420 C 333.300,581.50 328.493,610.228 355.054,600.493 C 381.612,594.843 406.638,583.784 433.093,577. C 452.413,583.091 483.371,598.36 495.980,574.90 C 501.833,555.719 521.524,550.721 534.710,538.651 C 552.058,518.928 517.047,523.810 505.635,523.333 C 486.286,522.775 466.995,521.032 447.75,519.031 C 462.818,495.215 494.296,493.760 519.567,495.617 C 546.589,483.008 582.396,482.543 600,455 C 598.131,432.490 603.727,402.981 597.220,384.820 C 567.631,377.721 602.659,349.517 600,332.297 C 600,280.969 600,229.640 600,178.31 z"
             style="fill:#463a28" />
          <path
             id="path5796"
             d="M -74.218,518.06 C -97.532,526.845 -124.316,516.128 -145.992,521.806 C -157.072,543.338 -145.463,569.615 -149.820,593.10 C -151.229,611.617 -155.632,643.9 -127.319,634.913 C -97.561,634.560 -67.597,636.446 -37.975,633.489 C -24.011,634.582 -7.730,614.171 -30.230,612.945 C -58.089,611.719 -54.502,572.239 -26.809,574.076 C -3.761,572.761 19.404,568.607 38.632,555.215 C 54.406,535.664 16.639,537.46 5.606,542.32 C -14.881,542.187 -29.999,552.534 -44.080,565.88 C -59.331,563.486 -73.922,550.934 -92.005,556.885 C -113.452,558.010 -95.924,533.254 -81.630,540.383 C -67.556,534.655 -37.894,553.619 -34.982,532.886 C -41.444,521.257 -61.503,518.496 -74.218,518.06 z"
             style="fill:#463a28;" />
          <path
             id="path7734"
             d="M -77.873,101.507 C -61.245,117.641 -35.033,101.775 -18.966,106.888 C -35.237,127.785 -1.393,135.40 13.663,126.668 C 34.894,135.65 46.799,108.962 66.603,111.441 C 88.453,118.352 111.506,110.511 133.557,110.931 C 146.552,107.752 177.049,127.459 155.197,134.646 C 137.041,134.209 117.488,127.557 101.063,135.571 C 85.282,153.172 113.748,148.425 123.936,148.060 C 140.630,156.251 158.465,163.670 170.942,144.758 C 186.614,132.311 207.878,136.555 226.074,130.774 C 253.269,131.014 234.168,157.849 216.711,157.163 C 198.764,167.882 177.594,162.934 158.941,169.746 C 132.016,184.951 160.562,207.39 178.167,209.892 C 179.357,231.237 144.387,225.712 129.351,230.21 C 112.394,234.817 82.211,217.187 76.263,240.878 C 74.364,262.691 119.457,261.719 96.662,283.479 C 88.080,299.449 50.228,285.837 65.631,310.924 C 75.750,333.571 38.484,313.147 25.461,318.338 C 13.084,327.758 -11.260,313.710 3.757,300.453 C 11.434,299.004 32.809,302.772 26.839,288.875 C 10.009,286.651 -14.890,301.330 -25.642,281.730 C -18.642,263.900 -43.268,246.97 -27.986,233.262 C -22.287,229.756 -48.133,238.298 -42.827,222.371 C -36.804,205.576 -39.335,190.426 -41.601,174.046 C -34.701,169.194 -17.617,153.507 -37.551,156.061 C -47.733,158.3 -62.292,150.373 -69.392,151.239 C -69.143,139.703 -75.979,120.783 -89.516,134.314 C -114.483,130.598 -92.908,101.2 -77.873,101.507 z"
             style="fill:#463a28;" />
          <path
             id="rect8003"
             d="M 119.843,-1 C 116.556,-137.634 82.136,-140.81 64.585,-150.953 C 42.657,-148.527 33.487,-122.141 11.296,-119.480 C -14.956,-116.940 8.724,-83.186 -17.272,-79.091 C -56.271,-65.964 -100.879,-67.422 -135.573,-42.601 C -153.881,-26.024 -143.982,0.661 -141.751,21.550 C -139.412,45.169 -104.870,34.373 -105.628,58.104 C -99.882,87.281 -68.317,57.858 -53.203,52.771 C -31.034,41.210 -11.896,68.353 10.154,60.876 C 22.041,48.348 39.710,45.854 56.278,45.240 C 74.791,44.990 88.864,30.990 107.722,32.386 C 139.310,29.879 171.071,32.348 202.605,30.205 C 222.380,27.043 242.209,24.338 262.163,22.913 C 283.344,19.446 304.971,9.012 326.555,15.928 C 343.027,36.999 366.296,17.733 374.887,0.832 C 395.270,-11.985 420.435,-10.365 443.402,-13.363 C 463.417,-11.221 493.073,-9.726 498.820,-34.799 C 499.965,-55.190 474.411,-61.506 458.112,-61.252 C 432.280,-55.690 406.923,-44.314 379.859,-46.245 C 366.366,-42.028 332.931,-23.175 332.146,-47.095 C 340.849,-53.140 360.005,-71.805 336.974,-71.342 C 312.874,-71.978 288.314,-52.549 265.031,-66.281 C 256.299,-89.716 287.554,-98.793 305.299,-98.953 C 330.803,-102.261 356.292,-97.825 381.048,-92.039 C 398.272,-93.695 428.282,-82.086 438.577,-95.697 C 432.712,-113.674 417.972,-119.830 401.585,-126.651 C 390.598,-136.203 361.634,-122.216 362.391,-146.599 C 376.520,-165.216 341.318,-156.437 331.042,-152.221 C 315.827,-145.266 299.206,-144.548 283.122,-142.637 C 259.176,-143.957 249.187,-174.257 223.052,-1 C 188.649,-1 154.246,-1 119.843,-1 z M 107.125,-108.5 C 128.383,-98.019 149.698,-87.606 171.601,-78.527 C 189.186,-73.970 221.496,-93.304 228.634,-72.459 C 215.601,-56.322 190.578,-71.098 172.445,-67.078 C 149.711,-65.477 123.370,-58.850 104.074,-75.051 C 92.331,-81.647 51.714,-77.224 65.846,-98.560 C 79.069,-104.077 95.620,-98.359 107.125,-108.5 z"
             style="fill:#463a28;" />
          <path
             id="path5784"
             d="M -150,-1 C -150,-134.446 -150,-103.893 -150,-73.340 C -140.617,-68.983 -119.386,-66.831 -133.939,-81.861 C -146.584,-107.449 -107.838,-92.756 -99.971,-110.812 C -80.328,-132.78 -125.557,-128.479 -121.460,-151.42 C -117.123,-175.278 -85.779,-157.045 -69.257,-162.198 C -60.864,-162.377 -40.952,-165.987 -60.241,-165.042 C -90.159,-164.916 -120.080,-165.046 -150,-1 z"
             style="fill:#463a28;" />
          <path
             id="path5809"
             d="M 473.656,509.156 C 452.234,504.277 441.387,551.97 468.796,538.902 C 490.088,528.916 469.817,571.564 493.359,560.897 C 504.024,567.417 538.462,558.658 517.053,575.909 C 503.234,582.520 508.456,593.847 514.496,602.529 C 510.232,616.211 501.017,641.753 526.025,635 C 550.683,635 575.341,635 600,635 C 600,598.177 600,561.354 600,524.531 C 583.610,540.604 555.550,533.912 536.555,537.104 C 524.205,532.170 531.392,516.638 531.498,513.096 C 510.741,511.891 492.699,524.018 473.656,509.156 z"
             style="fill:#463a28;fill-opacity:1;fill-rule:evenodd;stroke:none;stroke-width:2;stroke-linecap:round;stroke-linejoin:round;marker:none;marker-start:none;marker-mid:none;marker-end:none;stroke-miterlimit:4;stroke-dasharray:none;stroke-dashoffset:0;stroke-opacity:1;visibility:visible;display:inline;overflow:visible;enable-background:accumulate" />
          <path
             id="path5800"
             d="M 510,-1 C 507.765,-149.145 537.198,-169.760 521.773,-156.735 C 509.530,-141.80 534.936,-126.48 526.170,-110.745 C 535.759,-86.341 574.941,-114.840 580.160,-97.956 C 570.192,-90.967 533.398,-90.853 556.435,-73.165 C 570.230,-73.551 587.408,-72.641 598.802,-76.813 C 603.207,-95.887 597.254,-116.108 600.019,-135.693 C 603.625,-153.054 599.552,-171.961 578.115,-1 C 555.410,-1 532.705,-1 510,-1 z"
             style="fill:#463a28;" />
          <path
             id="path5822"
             d="M 297.218,609.281 C 273.460,616.16 245.099,607.606 224.733,624.859 C 213.115,642.376 249.131,636.399 258.093,631.305 C 277.004,620.102 298.754,616.212 320.476,617.711 C 335.240,616.788 337.511,610.244 321.564,611.424 C 313.436,610.909 305.261,610.666 297.218,609.281 z"
             style="fill:#463a28;" />
          <path
             id="path5872"
             d="M -126.656,154.81 C -137.651,170.980 -158.192,184.029 -150,206.627 C -150,252.751 -150,298.875 -150,345 C -142.652,328.6 -127.352,305.181 -107.988,321.931 C -82.305,327.845 -77.109,291.184 -85.353,274.07 C -96.521,258.54 -116.604,286.214 -119.612,262.303 C -129.445,242.23 -130.482,220.834 -121.032,200.456 C -119.582,186.121 -97.174,152.998 -126.656,154.81 z M -150,385 C -150,410.083 -150,435.166 -150,460. C -135.228,443.436 -139.871,419.809 -133.972,400.025 C -131.703,390.185 -140.503,382.296 -150,385 z"
             style="fill:#463a28;" />
        </g>
        <g
           transform="matrix(0.5,0,0,0.5,161.785,352.005)"
           id="g5530"
           style="fill:#758949;fill-opacity:1">
          <path
             id="path7689"
             d="M -19.092,152.663 C -0.336,165.154 -44.495,173.82 -22.905,182.657 C -18.543,203.392 -55.957,201.559 -44.511,225.005 C -39.954,238.057 -60.169,248.53 -56.909,229.876 C -54.108,217.223 -58.600,202.326 -73.928,208.118 C -89.423,197.340 -51.695,192.141 -64.568,177.550 C -70.646,150.414 -39.259,153.91 -22.517,154.630 L -19.092,152.663 L -19.092,152.663 z"
             style="fill:#758949;" />
          <path
             id="path7371"
             d="M 233.782,202.069 C 212.165,215.215 251.363,241.045 228.203,248.174 C 216.084,262.584 197.512,272.265 181.504,258.722 C 166.306,253.675 158.151,286.797 173.605,270.658 C 187.546,263.531 197.630,287.677 178.147,284.195 C 152.858,293.417 187.317,304.915 198.171,295.591 C 222.204,290.740 214.910,317.192 210.320,329.770 C 226.071,327.954 237.467,305.507 255.759,301.380 C 272.512,302.120 241.691,291.452 238.658,291.396 C 231.708,281.968 211.890,280.530 228.799,270.141 C 241.557,253.974 263.959,244.392 283.670,248.937 C 307.010,259.22 306.336,290.76 287.321,305.101 C 275.751,324.097 301.617,317.866 306.139,305.330 C 313.269,295.780 319.991,293.767 321.832,307.153 C 328.474,315.898 343.140,299.239 334.218,313.064 C 343.564,330.863 365.600,294.385 355.932,281.417 C 335.827,263.687 377.040,269.185 373.147,254.758 C 355.214,239.308 329.890,254.377 312.623,257.325 C 303.211,240.040 290.434,225.805 269.487,228.434 C 253.320,225.850 240.032,216.376 233.782,202.069 z"
             style="fill:#758949;" />
          <path
             id="path8024"
             d="M -130,-165 C -146.497,-154.421 -111.929,-144.56 -116.154,-130.844 C -106.837,-127.738 -105.619,-157.368 -93.415,-141.701 C -92.028,-125.613 -124.299,-103.209 -96.213,-92.855 C -71.406,-90.775 -92.001,-126.698 -70.547,-124.698 C -48.241,-125.914 -96.932,-142.021 -76.377,-155.530 C -56.893,-158.324 -51.410,-131.611 -35.806,-126.653 C -16.916,-131.918 -55.218,-163.601 -27.063,-154.425 C -2.890,-146.007 17.057,-129.190 39.176,-116.894 C 40.828,-101.311 15.033,-93.682 13.535,-75.677 C -0.378,-55.259 31.471,-32.696 45.974,-49.748 C 60.624,-69.816 14.547,-63.868 33.181,-81.896 C 45.279,-99.115 64.649,-103.932 83.254,-110.523 C 95.273,-125.338 123.044,-137.032 134.741,-115.232 C 132.972,-91.529 161.875,-99.012 158.794,-119.174 C 159.876,-142.26 119.587,-129.296 123.977,-151.367 C 142.397,-170.599 102.674,-166.12 101.607,-163.014 C 114.787,-137.921 71.243,-145.883 57.367,-143.840 C 36.664,-144.791 -2.221,-141.174 -8.202,-163.7 C 10.582,-166.931 -21.788,-163.9 -28.437,-165 C -62.291,-165 -96.145,-165 -130,-165 z"
             style="fill:#758949;" />
          <path
             id="rect5572"
             d="M 80.180,-53.140 C 56.900,-52.662 89.138,-31.342 99.278,-34.180 C 122.695,-29.031 145.247,-45.948 168.535,-38.850 C 186.050,-14.683 148.370,-10.383 133.396,-6.339 C 116.031,0.591 112.889,23.829 134.592,24.996 C 135.046,35.775 104.864,26.141 93.677,32.376 C 38.303,40.303 -18.369,41.542 -73.682,32.866 C -97.562,31.831 -123.660,45.595 -130.480,69.639 C -113.540,88.374 -88.665,64.747 -69.062,62.697 C -43.559,53.796 -17.618,64.805 4.823,76.600 C 24.493,85.249 46.587,90.598 68.023,86.259 C 89.548,90.484 106.942,57.041 127.416,72.700 C 123.301,103.634 177.876,71.627 171.783,106.819 C 170.418,134.092 132.041,130.404 126.886,154.059 C 126.564,179.769 158.650,187.075 178.860,186.680 C 198.986,179.982 183.582,152.17 203.066,141.92 C 215.750,130.298 231.005,120.20 247.654,115.737 C 269.912,113.679 284.047,143.49 306.963,134.030 C 318.786,136.867 329.086,132.320 316.097,122.62 C 303.680,100.913 279.415,95.542 257.066,92.728 C 243.720,93.656 207.006,77.408 234.473,68.069 C 256.968,62.338 277.178,77.229 296.535,85.874 C 321.830,88.892 310.681,57.703 308.688,43.767 C 299.163,20.644 271.759,28.617 252.560,29.583 C 242.307,32.841 223.412,25.117 240.438,17.169 C 247.469,-3.014 201.522,6.149 215.980,-13.696 C 232.971,-27.984 257.284,-32.22 278.739,-28.691 C 295.008,-22.015 253.843,-1.598 280.725,-3.239 C 303.384,-7.501 326.577,-10.184 349.306,-5.881 C 363.001,-4.568 369.729,-23.494 351.428,-21.061 C 329.114,-15.869 301.776,-7.311 287.447,-31.455 C 266.756,-42.578 241.953,-29.973 220.607,-38.314 C 203.587,-45.622 230.866,-69.353 208.095,-60.375 C 188.176,-54.085 167.423,-55.103 146.981,-57.487 C 128.546,-59.556 109.670,-59.219 91.876,-53.596 C 88.021,-52.967 84.073,-52.601 80.180,-53.140 z"
             style="fill:#758949;" />
          <path
             id="path5592"
             d="M 512.876,-62.711 C 540.679,-53.738 506.599,-23.828 488.541,-31.107 C 464.951,-28.723 440.378,-29.361 417.860,-24.858 C 399.324,-29.592 415.081,-41.282 426.286,-35.644 C 447.544,-37.616 468.492,-43.816 488.623,-50.619 C 496.805,-54.453 504.426,-59.442 512.876,-62.711 z"
             style="fill:#758949;" />
          <path
             id="path5007"
             d="M 451.001,-1.461 C 468.726,-0.840 461.653,26.563 466.651,33.645 C 440.211,40.460 480.446,55.015 478.446,33.704 C 469.630,18.486 488.076,21.671 488.649,34.861 C 501.909,41.444 521.233,44.311 536.671,53.170 C 549.653,68.129 520.183,89.230 512.178,103.759 C 496.897,110.255 479.090,134.667 505.043,140.112 C 513.160,142.650 534.585,164.06 513.400,153.396 C 493.096,147.189 475.071,131.345 453.169,133.204 C 436.762,138.61 398.134,129.671 423.385,110.110 C 430.946,105.76 458.160,91.780 436.083,89.728 C 420.126,97.581 403.326,80.553 423.550,71.954 C 434.306,69.172 470.866,67.501 454.313,50.572 C 445.784,48.466 418.500,43.825 441.341,38.155 C 452.561,26.652 419.249,0.098 451.001,-1.461 z"
             style="fill:#758949;" />
          <path
             id="path7658"
             d="M 120.750,286.171 C 95.028,279.495 71.769,297.18 51.206,309.947 C 35.800,326.947 7.625,339.422 -8.827,316.962 C -29.141,299.556 -58.821,323.637 -39.107,345.140 C -28.354,366.769 -3.695,371.322 13.216,386.158 C 29.069,397.511 48.529,384.460 65.904,391.702 C 92.546,397.365 109.087,423.019 114.132,448.215 C 116.592,470.547 134.874,469.710 150.046,460.218 C 165.384,461.610 176.739,476.346 192.194,480.406 C 206.600,486.078 225.071,491.646 239.137,483.120 C 252.957,467.143 198.093,455.840 228.878,455.984 C 250.782,455.775 272.424,461.84 294.358,459.633 C 310.460,437.525 276.753,415.776 257.095,428.803 C 235.117,436.219 209.734,435.850 191.901,419.574 C 174.240,414.639 157.613,394.55 180.200,385.132 C 175.730,357.879 144.842,376.758 127.838,370.299 C 110.594,367.219 75.422,347.013 104.391,332.559 C 113.581,322.981 140.066,349.011 131.848,326.882 C 127.762,310.403 94.619,329.441 100.705,311.855 C 112.458,298.604 137.616,328.81 141.168,310.94 C 136.582,303.309 104.502,300.13 116.585,292.76 C 121.002,292.822 128.260,290.432 120.750,286.171 z"
             style="fill:#758949;" />
          <path
             id="path7828"
             d="M 562.095,205.850 C 573.784,200.524 605.253,210.77 580.048,219.99 C 562.632,226.276 531.034,224.833 522.783,236.940 C 532.805,257.104 504.185,266.119 490.345,257.813 C 481.847,265.491 457.320,273.067 467.437,252.59 C 479.464,245.02 513.436,239.577 490.560,222.884 C 502.985,210.705 523.137,218.586 538.101,210.887 C 546.004,208.804 553.971,206.857 562.095,205.850 z"
             style="fill:#758949;" />
          <path
             id="path7887"
             d="M 473.938,414.663 C 501.010,421.925 445.051,444.214 469.783,436.782 C 481.931,439.690 488.672,451.514 500.505,440.17 C 519.854,432.389 541.157,440.217 558.634,427.959 C 570.709,426.51 567.747,443.33 574.535,449.934 C 569.059,472.078 541.022,468.421 523.535,472.904 C 497.113,478.137 470.403,482.785 444.297,489.084 C 428.588,496. 436.671,519.826 453.422,508.08 C 475.113,501.799 497.856,499.731 518.201,510.654 C 533.977,515.25 572.554,494.800 569.848,521.948 C 552.927,541.235 527.667,522.388 506.503,526.540 C 492.944,527.705 455.888,520.852 470.485,545.276 C 476.067,565.641 437.601,563.860 423.021,561.455 C 411.298,558.316 422.445,523.731 396.859,534.222 C 373.444,536.237 348.263,539.128 326.518,528. C 313.708,506.171 352.117,512.546 357.533,513.494 C 372.669,497.037 398.984,509.528 416.148,496.495 C 428.843,482.992 399.882,459.606 425.604,454.270 C 438.106,452.098 429.349,446.715 429.187,442.468 C 439.381,428.038 455.947,416.048 473.938,414.663 z"
             style="fill:#758949;" />
          <path
             id="path5163"
             d="M 275.179,501.892 C 292.410,488.933 311.668,520.896 286.513,524.008 C 262.770,525.078 239.559,532.63 216.363,531.992 C 197.448,538.067 173.981,510.852 200.541,504.633 C 217.368,497.768 234.994,502.859 252.080,504.591 C 259.858,504.647 267.578,503.437 275.179,501.892 z"
             style="fill:#758949;" />
          <path
             id="path5341"
             d="M 90.907,421.850 C 115.097,434.205 79.915,449.140 75.308,461.933 C 76.046,476.838 111.893,493.205 88.037,505.814 C 65.591,511.710 67.119,539.381 74.391,554.828 C 68.793,571.202 60.646,583.138 74.985,576.198 C 90.053,583.430 77.355,599.522 69.679,599.936 C 78.245,606.26 82.148,640.738 58.958,631.437 C 43.811,614.828 51.809,598.97 38.187,581.490 C 15.582,576.927 11.083,531.721 38.271,531.790 C 51.983,522.087 23.004,527.286 25.987,516.22 C 14.801,507.378 -24.167,523.467 -13.648,497.965 C 4.844,484.197 29.168,497.071 49.732,490.9 C 72.736,477.877 64.285,445.583 79.401,426.719 C 82.216,423.403 86.609,421.655 90.907,421.850 z"
             style="fill:#758949;" />
          <path
             id="path5363"
             d="M -79.875,564.18 C -85.413,581.540 -46.054,608.532 -78.955,614.355 C -97.039,617.317 -117.370,620.221 -130,635 C -82.896,634.678 -35.759,635.66 11.323,634.460 C 29.818,631.873 32.140,603.452 9.861,611.038 C -9.013,604.237 -29.929,628.832 -44.497,610.055 C -56.171,594.637 -68.690,579.512 -79.875,564.18 z M 150,603.127 C 144.337,627.035 108.911,611.083 99.920,630.969 C 117.081,647.786 135.136,622.453 152.770,622.460 C 175.979,626.833 198.486,638.54 222.864,633.699 C 235.379,636.403 262.364,617.725 238.087,614.456 C 217.835,612.636 197.972,611.038 177.764,613.750 C 164.751,616.281 153.083,579.323 144.860,597.480 C 146.791,599.185 148.550,600.989 150,603.127 z"
             style="fill:#758949;" />
          <path
             id="rect7802"
             d="M 540.843,255.5 C 524.778,267.032 546.199,290.831 557.714,298.356 C 573.544,321.31 550.898,343.348 529.817,350.348 C 514.884,360.46 498.146,378.822 478.618,367.634 C 457.085,358.232 456.528,329.755 472.804,314.99 C 480.380,309.560 496.059,280.616 476.601,293.060 C 454.726,306.354 466.225,259.548 454.897,269.268 C 449.416,295.563 437.087,322.417 413.277,336.765 C 397.554,352.32 376.854,358.488 357.903,368.558 C 335.403,385.986 351.746,414.691 371.734,425.793 C 380.956,437.386 405.654,466.909 416.517,447.00 C 406.766,425.211 374.881,424.090 368.522,399.817 C 380.294,378.698 405.382,401.155 419.465,408.932 C 436.020,418.397 440.374,399.051 423.214,395.466 C 407.605,387.724 417.303,366.273 433.411,377.239 C 455.436,387.157 477.494,397.603 498.735,408.735 C 517.530,426.448 537.356,442.847 556.807,459.809 C 571.992,479.766 610.187,470.050 600.638,441.696 C 595.542,428.910 609.339,397.222 584.625,408.658 C 566.401,407.978 544.296,410.00 527.955,401.135 C 525.184,385.43 540.099,372.884 550.007,362.353 C 562.306,351.130 577.496,343.24 593.523,339.24 C 607.774,328.866 599.681,310.070 582.581,312.480 C 568.270,296.309 567.300,269.826 548.224,257.375 C 545.919,256.285 543.411,255.53 540.843,255.5 z"
             style="opacity:1;fill:#758949;" />
          <path
             id="path6151"
             d="M -94.406,299.06 C -112.304,303.291 -145.945,302.32 -155,322.5 C -155.824,347.833 -128.327,317.835 -114.937,319.205 C -86.634,311.946 -56.693,319.598 -30.861,331.769 C -10.525,320.979 -47.440,311.617 -56.852,308.219 C -68.863,303.53 -81.342,299.037 -94.406,299.06 z M -155,405 C -155.704,423.49 -155.581,450.965 -155.077,463.884 C -127.982,452.644 -103.146,452.013 -84.900,437.138 C -76.646,411.704 -111.267,402.906 -130.098,401.640 C -136.858,401.257 -143.835,402.0 -155,405 z"
             style="opacity:1;fill:#758949;" />
        </g>
        <g
           transform="matrix(0.5,0,0,0.5,161.785,352.052)"
           id="g5672"
           style="fill:#17181f;fill-opacity:1;">
          <path
             id="path5621"
             d="M 44.470,84.288 C 42.091,86.145 43.127,87.588 44.470,84.288 z"
             style="opacity:0.6;fill:#17181f;" />
          <path
             id="path5005"
             d="M 435.313,39.975 C 437.069,40.076 435.818,39.307 435.313,39.975 z"
             style="fill:#17181f;" />
          <path
             id="path7844"
             d="M 569.376,220.569 C 571.946,219.7 568.522,218.329 569.376,220.569 z"
             style="fill:#17181f;" />
          <path
             id="path5285"
             d="M -40.779,446.382 L -40.561,446.382 L -40.779,446.382 L -40.779,446.382 z"
             style="fill:#17181f;" />
          <path
             id="path5703"
             d="M 417.375,581.8 C 398.238,581.952 380.983,586.234 363.105,590.959 C 345.113,599.35 386.040,605.875 363.224,611.210 C 343.557,611.47 359.752,626.180 370.685,619.529 C 386.174,614.371 400.008,607.479 416.337,607.208 C 422.333,590.876 379.920,607.349 399.568,591.529 C 402.112,588.623 427.042,589.396 417.375,581.8 z"
             style="fill:#17181f;" />
          <path
             id="path7926"
             d="M 355.75,406.93 C 345.563,426.00 359.119,445.641 379.079,449.548 C 393.821,459.642 403.065,489.476 378.326,492.93 C 364.364,500.197 346.707,507.293 332.940,495.498 C 312.881,487.077 321.290,464.152 317.027,448.902 C 308.642,458.480 307.855,480.428 304.438,495.173 C 296.137,513.389 275.074,521.187 264.685,538.074 C 258.726,552.710 249.924,565.688 244.872,580.692 C 243.891,598.635 249.491,617.083 244.252,634.905 C 271.077,640.679 252.795,609.001 258.218,595.085 C 263.563,569.722 282.664,597.31 269.918,608.247 C 252.700,621.883 294.199,644.002 290.428,630.909 C 274.423,617.495 289.749,597.368 280.918,580.774 C 270.535,561.572 289.093,546.569 306.823,545.81 C 313.962,540.53 322.801,529.558 316.024,545.185 C 308.605,559.668 323.185,573.127 322.772,550.686 C 328.963,526.89 339.400,578.581 350.155,564.257 C 348.082,555.731 331.634,532.831 349.913,546.99 C 358.984,556.440 371.463,549.012 358.273,539.421 C 349.754,522.001 376.915,513.411 391.297,515.025 C 404.986,509.113 425.639,502.079 427.100,484.595 C 421.416,461.503 450.427,457.184 466.518,462.311 C 490.519,463.933 514.039,456.772 537.138,451.289 C 551.669,448.932 576.006,418.961 546.684,423.721 C 527.187,414.422 511.907,442.330 489.895,433.585 C 459.885,432.463 430.621,456.076 401.087,441.566 C 382.700,434.482 371.333,417.65 355.75,406.93 z"
             style="fill:#17181f;" />
          <path
             id="path7716"
             d="M -26.717,185.819 C -4.009,189.708 -24.996,210.33 -34.568,217.511 C -39.374,239.736 -17.316,208.817 -8.795,211.183 C 7.990,223.443 -31.198,234.136 -20.724,250.752 C -10.009,262.063 7.054,278.131 -17.995,280.536 C -14.593,283.824 -4.163,280.203 -1.952,288.349 C 7.172,283.655 30.926,277.876 13.464,292.746 C -12.105,296.797 15.175,317.069 21.452,327.938 C 23.165,343.552 2.944,317.842 -4.293,317.437 C -28.648,311.364 -14.592,277.076 -41.598,277.185 C -50.194,267.248 -55.047,248.224 -57.829,234.093 C -45.571,221.697 -61.987,197.556 -39.529,192.225 C -36.326,188.081 -30.491,189.045 -26.717,185.819 z"
             style="fill:#17181f;" />
          <path
             id="path5623"
             d="M 55.876,52.194 C 78.421,57.603 31.912,89.563 53.025,80.097 C 71.395,82.048 64.699,116.828 55.896,127.423 C 36.265,131.554 36.368,155.472 19.776,162.6 C 15.135,173.292 -8.288,180.141 0.013,161.736 C -6.056,140.265 -28.842,169.336 -43.099,158.238 C -55.076,156.300 -73.653,174.818 -71.911,151.839 C -75.676,146.077 -74.836,122.54 -67.447,136.601 C -70.518,154.716 -56.847,142.723 -60.010,131.582 C -50.276,124.990 -58.894,159.068 -41.321,150.581 C -29.086,152.776 -5.023,148.485 -11.680,132.406 C 13.073,127.595 -28.953,103.292 -6.472,103.009 C -0.976,125.046 16.324,106.496 8.478,91.834 C 11.912,74.662 22.715,85.114 19.746,97.393 C 22.728,89.987 28.087,66.534 42.915,59.842 C 46.861,56.779 50.465,52.453 55.876,52.194 z"
             style="fill:#17181f;" />
          <path
             id="path5610"
             d="M 312.751,36.819 C 333.347,31.401 319.520,68.441 339.837,53.566 C 355.785,62.978 336.469,71.570 334.110,79.235 C 342.926,82.750 353.361,85.892 344.447,97.071 C 353.134,99.680 367.802,101.47 378.486,102.476 C 391.604,100.00 399.455,92.651 405.879,81.436 C 420.967,87.675 377.675,107.470 401.457,104.086 C 401.113,116.866 376.638,106.043 368.316,111.684 C 354.696,120.757 339.014,116.713 332.787,100.527 C 310.130,94.775 300.900,68.842 300.369,48.584 C 302.113,42.960 306.226,36.966 312.751,36.819 z"
             style="fill:#17181f;" />
          <path
             id="path7545"
             d="M 124.563,61.382 C 141.869,61.999 123.813,93.281 146.275,82.862 C 164.259,65.635 179.165,98.949 171.855,113.641 C 163.317,122.193 159.439,139.925 151.047,144.667 C 152.153,135.436 152.690,126.589 143.802,125.534 C 153.709,118.321 175.291,92.812 148.314,94.460 C 138.699,102.752 133.010,118.902 121.868,123.960 C 117.942,117.990 123.621,114.946 118.440,110.975 C 132.067,112.793 142.774,86.452 123.194,95.627 C 118.380,100.722 103.558,124.369 106.209,104.387 C 106.320,94.245 132.543,86.253 113.688,81.819 C 96.133,83.671 89.213,111.185 73.688,109.569 C 73.979,101.064 107.162,83.463 83.630,87.231 C 77.083,94.797 57.400,93.831 72.357,82.939 C 90.393,80.118 103.401,65.319 121.033,61.716 L 124.563,61.382 L 124.563,61.382 z"
             style="fill:#17181f;" />
          <path
             id="path5033"
             d="M 600,65 C 578.446,70.035 558.890,80.922 538.305,88.790 C 514.410,94.174 529.541,115.832 543.789,121.904 C 557.726,137.020 513.328,132.244 530.286,143.139 C 539.038,141.785 565.464,141.977 547.525,153.817 C 538.669,160.204 537.703,174.858 535.410,183.983 C 560.548,189.769 547.664,147.864 574.688,149.69 C 585.780,143.918 584.790,125.621 600,132.537 C 601.995,117.92 599.777,112.229 584.967,117.773 C 576.042,121.476 552.111,108.38 573.016,108.230 C 583.603,111.967 602.154,100.226 581.569,100.450 C 579.292,94.783 601.689,90.527 584.670,89.034 C 576.763,91.731 557.543,111.007 555.736,94.681 C 565.083,78.373 603.506,84.368 600,65 z"
             style="fill:#17181f;" />
          <path
             id="path7676"
             d="M 205.999,403.162 C 222.110,400.367 234.226,391.739 232.584,373.83 C 234.461,365.526 241.617,336.05 248.461,356.988 C 252.945,369.136 233.998,393.456 257.801,385.073 C 268.688,382.753 290.532,383.386 294.040,392.778 C 277.204,399.388 256.313,394.789 241.160,401.138 C 235.562,410.652 211.000,414.918 205.999,403.162 z"
             style="fill:#17181f;" />
          <path
             id="path7569"
             d="M 332.845,139.475 C 352.863,130.378 349.487,158.01 337.832,165.14 C 331.732,174.884 336.697,200.271 341.491,178.337 C 346.584,160.053 367.846,164.000 379.377,152.626 C 390.418,146.210 420.427,167.530 397.029,174.301 C 386.417,176.486 377.457,201.185 392.497,186.372 C 397.068,174.413 406.442,182.571 408.958,183.425 C 414.068,158.077 439.235,174.174 455.675,175.739 C 482.828,175.897 468.285,213.057 450.947,215.550 C 440.538,213.907 408.369,216.499 415.688,229.194 C 427.156,218.386 460.833,219.25 448.600,241.171 C 438.832,257.209 415.750,243.928 406.295,261.499 C 391.087,275.576 384.198,295.784 370.463,311.248 C 357.435,323.151 348.308,340.656 355.16,358.499 C 355.389,339.321 365.823,311.751 386.970,310.444 C 390.792,318.100 381.501,352.171 396.408,334.557 C 395.831,322.811 391.000,291.040 411.286,308.877 C 418.026,318.01 441.996,305.671 422.283,302.697 C 401.139,302.839 404.714,267.453 420.799,260.306 C 433.241,248.443 445.414,261.684 446.944,271.273 C 452.090,255.386 460.197,240.366 466.783,225.053 C 471.331,209.361 489.971,199.825 488.548,182.335 C 482.707,169.026 470.173,165.759 457.203,160.569 C 448.661,148.764 427.427,161.944 413.982,156.483 C 397.448,150.315 389.629,129.947 371.871,126.594 C 355.030,131.24 340.265,134.178 326.383,121.030 C 314.588,114.722 291.517,99.562 287.560,121.929 C 279.397,133.690 264.780,107.848 251.050,111.580 C 232.488,106.003 213.227,123.157 212.830,141.344 C 222.162,137.388 231.952,131.694 237.381,144.667 C 246.012,142.670 253.719,121.984 267.025,134.670 C 270.664,149.682 250.665,157.810 243.525,169.20 C 239.271,182.893 207.443,183.278 212.044,189.767 C 222.009,184.899 237.877,186.188 235.552,197.509 C 243.165,193.245 248.768,163.463 256.028,185.527 C 259.303,197.669 288.974,203.598 270.948,188.430 C 258.541,178.825 257.702,156.452 274.009,150.469 C 293.394,140.31 298.839,166.61 282.455,174.589 C 268.624,190.52 298.714,167.773 288.785,185.394 C 297.133,199.246 295.406,171.123 298.905,165.093 C 307.593,154.063 322.334,149.656 332.845,139.475 z"
             style="fill:#17181f;" />
          <path
             id="path7851"
             d="M 560.345,226.194 C 570.694,239.566 539.999,265.05 568.244,267.620 C 575.316,273.079 605.897,265.093 589.369,277.637 C 576.209,280.310 543.939,271.606 552.439,295.321 C 554.648,309.836 530.244,319.813 550.738,329.860 C 557.794,341.681 559.532,356.254 577.322,352.021 C 587.427,349.241 607.058,360.351 588.549,364.587 C 564.999,354.584 559.015,381.195 561.119,398.87 C 562.259,410.792 550.118,418.982 552.783,402.285 C 552.202,389.57 541.440,357.285 526.467,375.71 C 515.224,382.672 505.208,407.771 490.576,397.434 C 497.813,379.725 521.228,373.73 529.154,355.58 C 532.419,340.678 534.228,308.963 509.707,318.284 C 492.014,328.649 466.845,312.548 484.473,294.387 C 502.429,288.056 520.196,314.187 537.560,300.139 C 546.962,284.527 534.385,268.670 526.479,256.339 C 532.000,248.640 547.654,259.186 547.325,242.59 C 550.056,236.278 553.516,228.789 560.345,226.194 z"
             style="fill:#17181f;" />
          <path
             id="path7865"
             d="M -55.529,-47.117 C -46.847,-36.949 -63.249,-11.023 -39.965,-13.941 C -33.287,3.138 3.100,-19.203 6.667,7.749 C -5.992,13.522 -19.200,-5.973 -34.811,3.163 C -46.610,-0.387 -36.169,23.362 -51.061,11.757 C -42.695,27.198 -46.887,50.869 -67.774,52.935 C -84.797,48.901 -97.365,70.083 -110.259,67.709 C -120.803,52.397 -113.898,21.858 -91.193,27.681 C -76.723,29.255 -58.147,32.595 -65.560,11.62 C -66.480,0.487 -99.369,-14.114 -76.027,-17.707 C -62.994,-15.800 -70.688,-45.17 -55.529,-47.117 z"
             style="fill:#17181f;" />
          <path
             id="path5063"
             d="M -15.614,356.373 C -22.403,348.830 -23.847,321.532 -34.489,341.948 C -39.582,350.629 -72.942,356.794 -56.909,339.771 C -55.617,321.053 -79.360,353.510 -86.482,358.694 C -94.385,362.874 -115.117,390.635 -94.150,376.79 C -78.640,368.87 -85.083,396.030 -75.739,402.815 C -69.384,424.632 -74.873,371.691 -63.846,395.540 C -62.987,403.270 -53.017,420.966 -52.531,403.753 C -61.296,392.467 -72.899,371.944 -48.689,371.770 C -35.270,369.222 -35.187,352.828 -19.106,359.587 L -17.247,358.490 L -15.614,356.373 L -15.614,356.373 z"
             style="fill:#17181f;" />
          <path
             id="path5266"
             d="M 169.313,461.538 C 184.142,467.810 192.624,486.09 210.325,485.603 C 226.187,487.988 242.800,487.038 258.165,484.202 C 262.328,488.353 238.273,499.633 252.967,499.026 C 266.888,497.131 265.229,523.527 259.041,529.633 C 254.225,515.813 235.402,515.915 220.920,516.423 C 208.878,513.232 197.253,513.893 194.486,526.777 C 180.219,539.762 172.658,525.310 167.480,513.518 C 158.059,511.106 135.154,513.719 133.967,503.363 C 145.535,492.595 179.909,511.129 177.436,487.441 C 177.558,481.149 158.925,462.943 169.313,461.538 z"
             style="fill:#17181f;" />
          <path
             id="path5306"
             d="M -40.686,443.038 C -21.520,445.723 -2.097,465.144 -10.440,485.440 C -19.570,496.441 -29.373,509.947 -32.266,522.070 C -47.029,509.955 -22.895,492.764 -21.759,482.933 C -34.249,490.868 -43.020,472.218 -26.364,473.56 C -19.963,466.903 -46.450,470.498 -43.742,482.067 C -59.084,491.761 -55.148,462.129 -40.126,463.895 C -15.251,461.297 -52.618,451.196 -40.686,443.038 z"
             style="fill:#17181f;" />
          <path
             id="path5321"
             d="M 78.813,492.819 C 88.192,510.53 111.962,487.893 120.676,503.749 C 115.913,513.54 99.194,520.609 115.112,531.096 C 120.828,548.580 103.417,532.345 101.629,533.188 C 96.278,545.210 125.887,547.533 108.656,554.638 C 89.357,550.904 97.998,508.071 76.012,530.570 C 70.225,521.22 58.023,537.398 52.928,521.668 C 50.288,503.300 72.306,505.902 78.813,492.819 z"
             style="fill:#17181f;" />
          <path
             id="path5609"
             d="M 478.446,-72.782 C 478.183,-83.682 491.734,-106.253 470.272,-95.140 C 460.356,-92.706 432.833,-106.305 455.389,-110.775 C 466.313,-123.74 435.073,-114.252 428.140,-113.795 C 418.571,-110.672 394.611,-113.297 393.981,-103.344 C 405.837,-104.771 416.828,-97.845 405.269,-87.088 C 406.255,-78.639 394.458,-54.213 408.576,-70.884 C 423.592,-90.312 410.948,-56.836 413.971,-51.449 C 427.901,-56.316 416.009,-97.808 442.901,-79.639 C 454.725,-73.048 465.100,-88.276 473.503,-72.331 L 475.308,-71.998 L 478.446,-72.782 L 478.446,-72.782 z"
             style="fill:#17181f;" />
          <path
             id="path5613"
             d="M 54.288,1.417 C 47.103,-16.418 53.991,-42.708 75.519,-45.931 C 89.742,-42.596 107.710,-43.539 118.942,-44.488 C 113.542,-26.528 88.429,-39.100 79.536,-34.829 C 95.289,-18.824 75.016,-19.849 70.452,-26.339 C 69.373,-8.026 106.206,-21.882 90.647,-3.772 C 77.195,4.692 59.241,-31.932 61.536,-2.433 C 62.413,1.167 56.571,5.100 54.288,1.417 z"
             style="fill:#17181f;" />
          <path
             id="path5615"
             d="M 333.562,16.595 C 344.782,18.575 361.143,24.846 365.950,9.752 C 374.717,3.240 383.335,-14.773 394.142,-11.198 C 395.573,1.476 385.209,10.753 376.356,18.027 C 375.801,26.170 390.687,25.108 396.296,29.802 C 402.660,31.180 428.193,54.886 409.578,49.049 C 396.111,44.021 382.162,40.038 370.572,31.047 C 358.094,37.109 334.671,32.854 333.562,16.595 L 333.562,16.595 z"
             style="fill:#17181f;" />
          <path
             id="path5617"
             d="M 233.928,-120.424 C 245.534,-107.508 213.363,-81.435 241.722,-78.732 C 250.558,-74.717 282.707,-79.616 260.580,-67.054 C 246.867,-68.206 214.694,-73.649 225.859,-48.931 C 224.633,-36.963 203.816,-26.156 222.783,-16.286 C 232.365,-8.174 230.322,10.256 247.865,4.915 C 257.680,3.129 282.077,12.010 262.133,17.967 C 238.492,7.917 231.838,35.071 234.959,52.933 C 237.241,63.962 224.103,73.841 226.209,56.772 C 225.189,44.505 215.763,10.934 200.544,29.642 C 189.264,36.419 178.644,60.250 164.496,51.021 C 171.462,33.298 195.025,27.240 203.001,9.117 C 205.887,-5.488 207.926,-37.434 183.723,-28.335 C 166.085,-18.076 140.569,-34.025 158.052,-52.351 C 176.145,-58.517 193.816,-32.558 211.414,-46.558 C 221.270,-62.364 207.050,-78.044 200.081,-90.910 C 205.128,-98.126 221.297,-88.353 220.261,-104.204 C 222.832,-110.266 227.663,-118.374 233.928,-120.424 z"
             style="fill:#17181f;" />
          <path
             id="path5786"
             d="M 558.906,509.906 C 539.592,517.182 519.104,520.67 498.514,520.9 C 484.109,516.356 460.993,514.612 460.892,534.430 C 452.247,543.106 468.317,556.489 458.385,565.734 C 465.926,580.012 482.357,592.871 478.460,610.803 C 469.727,621.167 464.486,640.715 484.256,634.905 C 495.362,637.240 478.216,623.907 487.027,616.565 C 483.614,600.780 495.801,598.319 506.176,607.791 C 515.342,615.670 533.662,607.570 514.807,603.74 C 502.518,604.746 503.964,597.515 506.547,590.031 C 486.569,601.265 482.699,577.572 477.590,563.859 C 471.438,547.955 470.328,528.3 492.976,531.888 C 513.385,525.684 514.216,550.435 526.600,559.826 C 531.256,569.226 551.493,568.705 535.349,559.71 C 522.035,551.670 513.792,525.375 538.223,528.778 C 555.640,531.127 554.874,556.624 575.538,555.057 C 592.128,561.517 605.267,559.988 600,539.576 C 593.847,541.82 574.112,554.99 563.370,540.952 C 546.444,534.686 553.954,518.28 561.556,510.864 L 558.906,509.906 z"
             style="fill:#17181f;" />
          <path
             id="path5788"
             d="M 470,-165.094 C 463.359,-144.158 494.001,-138.293 491.066,-119.944 C 490.507,-103.773 485.828,-79.478 503.305,-72.742 C 507.168,-70.474 521.992,-83.950 516.537,-68.776 C 513.522,-49.912 516.709,-25.731 535.399,-16.125 C 551.003,-9.792 575.376,-17.042 550.519,-27.731 C 556.650,-39.723 554.212,-45.855 540.024,-45.090 C 517.107,-56.704 542.053,-73.859 556.967,-61.306 C 573.040,-58.242 589.202,-54.980 600,-41.393 C 598.833,-50.390 589.912,-57.816 600,-63.689 C 596.203,-69.665 564.345,-58.787 581.167,-76.241 C 589.536,-85.017 580.931,-114.73 576.330,-91.684 C 575.492,-72.620 547.328,-61.733 537.031,-80 C 526.038,-95.605 551.030,-102.009 561.031,-92.81 C 576.415,-92.302 545.527,-104.363 565.270,-105.191 C 572.972,-120.975 543.736,-98.314 536.033,-104.238 C 525.682,-116.525 494.984,-114.75 497.886,-135.0 C 511.721,-144.197 534.296,-130.717 545,-149.218 C 524.016,-142.21 503.022,-153.159 487.568,-165.094 C 481.712,-165.094 475.856,-165.094 470,-165.094 z"
             style="fill:#17181f;" />
          <path
             id="path5802"
             d="M -150,-65.906 C -152.530,-57.763 -143.633,-62.932 -150,-65.906 z M -150,-46.156 C -152.421,-34.897 -132.804,-34.567 -147.875,-44 L -150,-46.156 z"
             style="fill:#17181f;" />
          <path
             id="path5804"
             d="M -147.406,510.781 C -151.840,520.254 -137.880,532.329 -150,540.110 C -154.884,557.926 -144.674,562.675 -128.478,560.466 C -107.816,563.553 -83.737,572.708 -67.239,554.332 C -77.444,557.642 -101.176,566.010 -116.703,555.9 C -143.787,544.798 -83.651,538.706 -102.543,528.309 C -114.046,527.597 -140.500,557.889 -137.132,530.607 C -132.177,523.879 -142.212,513.819 -147.406,510.781 z"
             style="fill:#17181f;" />
          <path
             id="path5808"
             d="M 244.156,-165 C 239.392,-156.74 230.683,-124.441 249.357,-136.510 C 262.760,-140.958 248.694,-156.823 257.843,-165 C 253.281,-165 248.718,-165 244.156,-165 z M 282.25,-165 C 285.766,-157.48 302.910,-151.930 293.343,-165 C 289.645,-165 285.947,-165 282.25,-165 z"
             style="fill:#17181f;" />
          <path
             id="path5818"
             d="M -148.343,65 C -153.944,71.344 -147.949,79.819 -142.276,68.433 C -139.207,63.527 -146.000,65.357 -148.343,65 z M -121.125,106.218 C -133.686,114.03 -157.067,108.382 -150,130.332 C -146.282,135.359 -140.641,112.483 -129.789,122.651 C -115.702,136.795 -109.182,109.703 -121.125,106.218 z"
             style="fill:#17181f;" />
        </g>
      </g>
    </pattern>
    <inkscape:perspective
       sodipodi:type="inkscape:persp3d"
       inkscape:vp_x="0 : 526.18109 : 1"
       inkscape:vp_y="0 : 1000 : 0"
       inkscape:vp_z="744.09448 : 526.18109 : 1"
       inkscape:persp3d-origin="372.04724 : 350.78739 : 1"
       id="perspective10" />
    <inkscape:perspective
       id="perspective2447"
       inkscape:persp3d-origin="372.04724 : 350.78739 : 1"
       inkscape:vp_z="744.09448 : 526.18109 : 1"
       inkscape:vp_y="0 : 1000 : 0"
       inkscape:vp_x="0 : 526.18109 : 1"
       sodipodi:type="inkscape:persp3d" />
  </defs>
  <sodipodi:namedview
     id="base"
     pagecolor="#ffffff"
     bordercolor="#666666"
     borderopacity="1.0"
     gridtolerance="10000"
     guidetolerance="10"
     objecttolerance="10"
     inkscape:pageopacity="0.0"
     inkscape:pageshadow="2"
     inkscape:zoom="2.8284271"
     inkscape:cx="169.60653"
     inkscape:cy="258.04017"
     inkscape:document-units="px"
     inkscape:current-layer="layer3"
     showgrid="false"
     inkscape:window-width="1920"
     inkscape:window-height="1031"
     inkscape:window-x="0"
     inkscape:window-y="25"
     inkscape:window-maximized="1" />
  <metadata
     id="metadata7">
    <rdf:RDF>
      <cc:Work
         rdf:about="">
        <dc:format>image/svg+xml</dc:format>
        <dc:type
           rdf:resource="http://purl.org/dc/dcmitype/StillImage" />
        <dc:title />
      </cc:Work>
    </rdf:RDF>
  </metadata>
  <g
     inkscape:groupmode="layer"
     id="layer2"
     inkscape:label="Chicken"
     style="display:none">
    <path
       style="fill:#ff8200;fill-opacity:1;fill-rule:evenodd;stroke:#ff8200;stroke-width:1px;stroke-linecap:butt;stroke-linejoin:miter;stroke-opacity:1"
       d="m 251.88749,424.90608 c 3.67804,29.53262 7.90065,33.9091 -15.25955,69.04951 -10.18908,-2.47911 -21.5497,-7.52033 -33.57103,-2.67042 5.85593,2.44628 17.29195,2.16232 15.64104,6.48531 -27.61912,-0.73039 -36.78345,5.91981 -42.34528,12.20765 44.8945,-4.78043 43.33482,-1.51637 56.07889,-4.19638 0.26306,9.96811 -3.35014,12.61189 1.90744,16.78552 6.8697,-12.15628 10.02621,-18.15944 16.78551,-22.88934 15.21369,-0.16885 15.81879,-0.0101 31.6636,2.28893 -3.11647,-8.80108 -20.84258,-6.76301 -22.88934,-13.7336 -0.17844,-26.90851 24.86257,-54.47838 25.94125,-60.27527 l 16.02254,-16.40403 c 1.60421,11.73324 6.13432,27.18556 -0.38149,41.9638 -10.89941,3.96998 -24.09592,6.01213 -33.18954,14.49658 9.84419,-1.305 21.38365,-6.1617 26.32273,0.38149 -9.57634,7.09318 -21.95558,10.98533 -24.79678,22.88934 21.80368,-8.8778 23.61027,-6.94457 46.16017,-22.12636 15.80911,-4.67782 13.35742,12.55734 19.83743,19.07445 1.77066,-8.94042 2.95103,-18.32355 -7.2483,-36.24146 7.49374,-4.00744 15.29785,-2.0763 23.27084,0 -4.90934,-10.95004 -16.71087,-6.74662 -27.8487,-16.40402 0.3041,-8.61948 -0.24693,-14.76571 3.81489,-30.90062 l -75.91632,20.21892 z"
       id="path3297"
       sodipodi:nodetypes="ccccccccccccccccccccccc"
       inkscape:connector-curvature="0" />
    <path
       style="opacity:0.98000004;fill:#ffff00;fill-opacity:1;fill-rule:evenodd;stroke:#ffff00;stroke-width:1px;stroke-linecap:butt;stroke-linejoin:miter;stroke-opacity:1"
       d="m 82.26225,62.39221 c -1.56348,-31.995002 46.26643,-29.706068 46.26643,-29.706068 20.31817,3.797175 46.97104,21.038155 62.82677,56.735508 22.9077,48.64332 34.59871,70.68168 77.64857,73.59596 46.28235,-2.95181 58.56153,-14.20887 77.79857,-35.37211 2.25892,-37.97883 -3.25706,-96.758397 47.64227,-93.833654 9.59144,0.551137 9.86864,13.070663 9.86864,13.070663 32.94771,-11.082131 34.18219,16.822911 35.19703,26.804261 19.91098,-13.35049 27.34972,13.25384 15.6848,19.71231 18.75026,19.66273 0.0646,22.13763 -2.97686,32.72046 19.47076,11.31803 -3.66743,28.5211 -4.54034,41.68855 30.4347,26.09538 1.88035,31.71149 -2.13883,50.61914 3.15418,45.54761 -3.13111,25.39086 -18.81176,49.53096 7.77938,92.76173 -33.00807,134.7905 -107.70482,140.31269 -25.22677,6.79428 -26.89179,23.3521 -51.78236,28.54284 C 219.34198,405.66999 253.89671,413.24907 191.99963,367.39537 171.79805,350.80946 136.17722,346.13834 117.04026,318.91506 85.33907,273.48026 98.29726,233.93694 105.13905,189.15894 116.40375,151.1604 114.8573,157.88 119.37294,120.75371 123.8071,84.2974 93.70692,81.70608 82.26225,62.39221 z"
       id="path2513"
       sodipodi:nodetypes="cccccscccccccccccczc"
       inkscape:connector-curvature="0" />
    <path
       style="fill:#d80000;fill-opacity:1;fill-rule:evenodd;stroke:#d80000;stroke-width:1px;stroke-linecap:butt;stroke-linejoin:miter;stroke-opacity:1"
       d="m 76.40256,56.7692 c -4.81001,-7.87329 -2.44472,-12.96 7.62978,-10.30021 -9.3826,-6.48632 -7.61755,-18.06858 5.72234,-14.49658 -9.30651,-12.21878 0.87263,-17.60588 8.39275,-9.15574 -5.29791,-11.82359 6.50879,-18.29562 12.58914,-5.34084 -0.95763,-14.77511 11.63029,-23.91077 15.25955,-1.52596 16.92994,-21.08546 35.35273,8.19128 7.2483,15.25956 -16.41102,2.19887 -37.20225,8.5284 -33.57103,13.73361 25.9215,-13.97136 32.59456,6.01119 27.08572,17.54849 39.42766,14.23491 -5.24018,48.44658 -12.58915,21.36339 10.99676,51.4282 -58.04691,-6.67394 -13.7336,-17.167 L 76.40256,56.7692 z"
       id="path2517"
       sodipodi:nodetypes="cccccccccccc"
       inkscape:connector-curvature="0" />
    <path
       style="fill:#ff8200;fill-opacity:1;fill-rule:evenodd;stroke:#ff8200;stroke-width:1px;stroke-linecap:butt;stroke-linejoin:miter;stroke-opacity:1"
       d="m 61.52448,74.31769 c 0.21521,-9.73997 12.8544,-18.514585 24.03381,-23.270828 11.33281,2.514919 1.15807,6.484348 -0.38149,9.918718 15.02101,-3.41901 16.17779,4.31659 19.07445,7.62978 -14.6963,4.3959 -24.74705,-1.92704 -42.72677,5.72233 z"
       id="path2523"
       sodipodi:nodetypes="ccccc"
       inkscape:connector-curvature="0" />
    <path
       style="opacity:0.98000004;fill:#ffff00;fill-opacity:1;stroke:#ffff00;stroke-width:0;stroke-linecap:round;stroke-linejoin:round;stroke-miterlimit:4;stroke-opacity:1;stroke-dasharray:none"
       d="m 166.07004,185.08552 c -3.5628,-1.02377 -6.23201,-2.66429 -9.39338,-5.77323 -2.4609,-2.42008 -3.19614,-3.46176 -4.76929,-6.75701 -1.02362,-2.14414 -2.09924,-3.90233 -2.39224,-3.91026 -0.2928,-0.008 -2.33737,1.881 -4.54348,4.19764 -8.82721,9.26944 -15.28524,12.6436 -20.74094,10.83665 -4.07612,-1.35003 -7.88314,-6.60595 -10.34756,-14.28573 -1.41638,-4.41377 -1.5122,-4.95936 -0.87115,-4.95936 0.44216,0 0.5886,-0.83789 0.7167,-4.10101 0.16463,-4.19366 0.87085,-8.10664 1.46311,-8.10664 0.18201,0 0.33093,-0.94418 0.33093,-2.09819 0,-1.154 0.1599,-2.09819 0.35532,-2.09819 0.19542,0 0.36269,-1.55428 0.37168,-3.45396 0.009,-1.89968 0.10524,-3.59776 0.21386,-3.7735 0.16863,-0.27285 1.12657,-7.77108 2.51266,-19.66751 0.19557,-1.67855 0.35689,-4.55941 0.35848,-6.40191 0.002,-2.62397 0.12691,-3.3976 0.57513,-3.56959 0.37305,-0.14316 0.57223,-0.73653 0.57223,-1.70473 0,-1.0658 0.16158,-1.48514 0.57224,-1.48514 0.31472,0 0.57223,-0.17167 0.57223,-0.38149 0,-0.20982 -0.25751,-0.38149 -0.57223,-0.38149 -0.44997,0 -0.57224,-0.52985 -0.57224,-2.47968 0,-1.36382 -0.15306,-2.47968 -0.34013,-2.47968 -0.18707,0 -0.44785,-0.42917 -0.5795,-0.95372 -0.13166,-0.52455 -0.40777,-0.95372 -0.61359,-0.95372 -0.20583,0 -0.37422,-0.42918 -0.37422,-0.95372 0,-0.59343 -0.21618,-0.95373 -0.57224,-0.95373 -0.31473,0 -0.57223,-0.2575 -0.57223,-0.57223 0,-0.33935 -0.34933,-0.57189 -0.85835,-0.5714 -0.84142,8.2e-4 -0.85596,-0.075 -0.73704,-3.84284 l 0.12131,-3.84365 1.88959,1.76748 c 2.6663,2.49401 4.07067,3.01644 8.16799,3.03851 3.26062,0.0176 3.5993,-0.0612 6.72996,-1.56535 8.30947,-3.99233 12.41904,-11.77159 9.84441,-18.63507 -0.67405,-1.79688 -1.48172,-2.91153 -3.75714,-5.18511 -2.36695,-2.36504 -3.63262,-3.26239 -6.90147,-4.8931 -2.20164,-1.09831 -4.04079,-2.03475 -4.08702,-2.08098 -0.0462,-0.0462 0.18749,-0.9344 0.51938,-1.9737 0.95309,-2.98463 0.85164,-8.991957 -0.1972,-11.675809 -1.07326,-2.74632 -3.11023,-5.417277 -5.07952,-6.660435 -4.8381,-3.054155 -12.1596,-2.702541 -19.97362,0.959235 -3.47187,1.626967 -4.04505,1.445988 -2.23464,-0.705568 2.24142,-2.663777 12.70225,-6.447553 24.32051,-8.796942 4.18601,-0.846482 5.28681,-0.920063 6.25775,-0.41831 0.36434,0.18828 1.43494,0.657332 2.37913,1.042339 0.94418,0.38501 1.94355,0.917641 2.22081,1.18363 0.27726,0.265993 0.74935,0.483618 1.04909,0.483618 0.29975,0 0.54499,0.17167 0.54499,0.381489 0,0.209819 0.68668,0.381489 1.52595,0.381489 0.83928,0 1.52596,0.1684 1.52596,0.374221 0,0.205817 0.42917,0.481935 0.95372,0.613591 0.52455,0.131652 0.95372,0.392426 0.95372,0.579501 0,0.187071 0.42918,0.340132 0.95373,0.340132 0.52454,0 0.95372,0.183931 0.95372,0.408738 0,0.727996 1.06498,1.498707 2.07094,1.498707 0.61764,0 0.98097,0.21194 0.98097,0.572233 0,0.314729 0.25751,0.572234 0.57223,0.572234 0.31473,0 0.57224,0.1684 0.57224,0.374221 0,0.205817 0.42917,0.481935 0.95372,0.613591 0.52455,0.131652 0.95372,0.392426 0.95372,0.579501 0,0.187071 0.42918,0.340132 0.95373,0.340132 0.59342,0 0.95372,0.216178 0.95372,0.572233 0,0.314729 0.2575,0.572234 0.57223,0.572234 0.31473,0 0.57223,0.17167 0.57223,0.381489 0,0.209819 0.42918,0.381489 0.95373,0.381489 0.59343,0 0.95372,0.216178 0.95372,0.572233 0,0.314729 0.25751,0.572234 0.57223,0.572234 0.31473,0 0.57224,0.1684 0.57224,0.374221 0,0.205817 0.42917,0.481935 0.95372,0.613591 0.52455,0.131652 0.95372,0.373817 0.95372,0.538144 0,0.164326 0.42918,0.406492 0.95372,0.538143 0.52455,0.131656 0.95373,0.40777 0.95373,0.613591 0,0.205825 0.18487,0.374222 0.41083,0.374222 0.53393,0 2.64108,2.107158 2.64108,2.641079 0,0.225956 0.18393,0.410833 0.40874,0.410833 0.52817,0 1.4987,0.970542 1.4987,1.498706 0,0.224808 0.18394,0.408739 0.40874,0.408739 0.45949,0 1.49871,0.944452 1.49871,1.362034 0,0.149635 0.51501,0.764237 1.14447,1.365777 0.62945,0.60154 1.14446,1.34973 1.14446,1.66263 0,0.3129 0.17167,0.56892 0.38149,0.56892 0.20982,0 0.38149,0.2575 0.38149,0.57223 0,0.31473 0.18488,0.57223 0.41083,0.57223 0.44117,0 2.64108,2.06549 2.64108,2.47968 0,0.4142 2.19993,2.47968 2.64108,2.47968 0.22595,0 0.41084,0.18393 0.41084,0.40874 0,0.52816 0.97054,1.4987 1.4987,1.4987 0.2248,0 0.40874,0.42918 0.40874,0.95373 0,0.59343 0.21618,0.95372 0.57223,0.95372 0.31473,0 0.57224,0.2575 0.57224,0.57223 0,0.31473 0.18393,0.57224 0.40874,0.57224 0.52817,0 1.4987,0.97054 1.4987,1.4987 0,0.22481 0.17167,0.40874 0.38149,0.40874 0.20982,0 0.38149,0.22659 0.38149,0.50353 0,0.27693 0.51501,1.08037 1.14447,1.78541 0.62945,0.70503 1.14446,1.5943 1.14446,1.97615 0,0.38185 0.15307,0.69427 0.34014,0.69427 0.18707,0 0.44784,0.42917 0.5795,0.95372 0.13165,0.52455 0.40777,0.95372 0.61359,0.95372 0.20582,0 0.37422,0.25751 0.37422,0.57224 0,0.31473 0.1601,0.57223 0.35578,0.57223 0.19568,0 0.47826,0.38626 0.62796,0.85835 0.14972,0.47209 0.67629,1.4987 1.17018,2.28135 0.49388,0.78266 0.89799,1.75545 0.89799,2.16177 0,0.40633 0.13642,0.796 0.30315,0.86594 0.57021,0.23919 2.74876,4.86288 2.74876,5.83387 0,0.53314 0.17445,0.96935 0.38766,0.96935 0.21322,0 0.68531,0.64376 1.0491,1.43058 0.36379,0.78682 0.74727,1.51642 0.85218,1.62133 0.31353,0.31353 2.68174,5.12639 2.67586,5.43809 -0.003,0.15839 0.42374,1.17762 0.94828,2.26496 0.52455,1.08733 0.95373,2.26981 0.95373,2.62773 0,0.35792 0.2575,0.74958 0.57223,0.87036 0.33852,0.1299 0.57223,0.70302 0.57223,1.40327 0,0.65103 0.25751,1.4412 0.57224,1.75593 0.31472,0.31473 0.57223,0.98914 0.57223,1.4987 0,0.50956 0.17167,0.92648 0.38149,0.92648 0.20982,0 0.38149,0.51501 0.38149,1.14446 0,0.62946 0.1684,1.14447 0.37422,1.14447 0.20582,0 0.48193,0.42917 0.61359,0.95372 0.13165,0.52455 0.3904,0.95372 0.57499,0.95372 0.18458,0 0.44543,0.68668 0.57964,1.52596 0.13421,0.83928 0.39373,1.52596 0.57674,1.52596 0.183,0 0.33273,0.44143 0.33273,0.98097 0,0.53953 0.21459,1.22026 0.47686,1.51271 1.21759,1.35773 1.43058,1.72244 1.43058,2.44957 0,0.43819 0.25039,0.77908 0.57224,0.77908 0.31473,0 0.57223,0.26977 0.57223,0.59948 0,0.32971 0.21459,0.83877 0.47686,1.13123 1.13208,1.26238 1.43059,1.6939 1.43059,2.06808 0,0.21868 0.2575,0.39759 0.57223,0.39759 0.31473,0 0.57223,0.1949 0.57223,0.43312 0,0.23822 0.42918,0.83086 0.95373,1.31699 0.52454,0.48613 0.95372,1.14958 0.95372,1.47433 0,0.32475 0.15758,0.59045 0.35017,0.59045 0.41493,0 1.8011,6.086 2.12879,9.34648 0.31025,3.0869 -0.36773,7.44374 -1.50871,9.69534 -1.91003,3.76928 -4.52418,5.44404 -8.87333,5.68471 -5.12051,0.28337 -10.37767,-2.05192 -15.62791,-6.94211 -1.5502,-1.44388 -2.887,-2.55678 -2.97067,-2.47311 -0.0837,0.0837 0.10789,1.95172 0.4257,4.1512 0.71595,4.95505 0.49203,13.52978 -0.44816,17.16043 -2.93867,11.34805 -11.48178,17.2743 -20.97126,14.54748 l 0,0 z"
       id="path3309"
       inkscape:connector-curvature="0" />
    <path
       style="fill:#592300;fill-opacity:1;stroke:#321b09;stroke-width:0;stroke-linecap:round;stroke-linejoin:round;stroke-miterlimit:4;stroke-opacity:1;stroke-dasharray:none"
       d="m 165.4978,184.94846 c -6.32072,-2.10467 -10.82732,-6.33926 -14.14563,-13.2918 -0.83441,-1.74826 -1.61512,-3.17866 -1.7349,-3.17866 -0.11979,0 -2.82663,2.5466 -6.01523,5.65911 -8.99812,8.78341 -13.88509,11.17924 -19.42044,9.52081 -2.34307,-0.70201 -5.52028,-3.88599 -7.39642,-7.41219 -0.87931,-1.65264 -2.28828,-5.07489 -3.13108,-7.60498 -1.51652,-4.55266 -1.52646,-4.6196 -0.96178,-6.48246 0.31383,-1.03526 0.72083,-2.82649 0.90447,-3.98049 0.18363,-1.154 0.60015,-3.15343 0.92557,-4.44316 0.69507,-2.75469 1.24823,-6.08749 1.7423,-10.49738 0.19596,-1.7491 0.89264,-7.30027 1.54816,-12.33592 1.59399,-12.2449 1.86232,-20.41321 0.83416,-25.39206 -0.41425,-2.00595 -1.20083,-4.76614 -1.74796,-6.13376 -0.83207,-2.0798 -0.99479,-3.09006 -0.99479,-6.17573 l 0,-3.68916 1.6061,1.55866 c 2.77709,2.69507 4.13915,3.2091 8.50336,3.2091 3.68524,0 3.91862,-0.0517 6.8668,-1.52264 3.86461,-1.9281 7.61229,-5.5162 9.16796,-8.77756 1.5332,-3.2143 1.58796,-7.43282 0.13616,-10.49095 -1.80203,-3.79584 -6.09302,-7.46645 -11.80454,-10.09787 -1.35241,-0.62309 -2.51201,-1.16257 -2.57688,-1.19884 -0.0649,-0.0363 0.16307,-1.03264 0.50655,-2.21416 0.81645,-2.80853 0.81664,-8.589915 3.4e-4,-10.891922 -2.5088,-7.074928 -8.10484,-10.322173 -15.83938,-9.191234 -3.08259,0.450741 -7.26113,1.707213 -9.46145,2.84505 -0.66822,0.345541 -1.64527,0.791879 -2.17124,0.991852 -1.47288,0.559991 -1.23683,-0.592887 0.43493,-2.124165 2.84658,-2.607355 12.36118,-5.990762 22.94225,-8.158295 l 5.78628,-1.185321 5.06364,1.754796 c 12.87034,4.46016 23.63262,11.263143 33.48461,21.166051 9.22908,9.276798 15.00209,17.783988 22.77637,33.563618 3.04952,6.18966 5.69581,11.31115 5.88068,11.38109 0.18485,0.0699 0.33611,0.46896 0.33611,0.88671 0,1.09718 8.55911,17.87538 12.36491,24.23863 3.24426,5.42433 4.58126,8.78074 5.51713,13.85012 1.50633,8.1595 0.26649,14.27238 -3.50681,17.28979 -5.38332,4.30493 -12.98643,2.8625 -21.10692,-4.00428 -1.99097,-1.68358 -3.6694,-3.00109 -3.72986,-2.92781 -0.0605,0.0733 0.13515,1.93578 0.43469,4.13888 0.72901,5.36171 0.44959,13.26072 -0.6113,17.28164 -1.68131,6.37242 -5.25333,11.17854 -9.93869,13.37245 -3.22074,1.5081 -8.13162,1.80547 -11.46823,0.69444 l 0,0 z"
       id="path3311"
       inkscape:connector-curvature="0" />
    <path
       sodipodi:type="arc"
       style="opacity:0.98000004;fill:#ffffff;fill-opacity:1;stroke:#020202;stroke-width:0.89679456;stroke-linecap:round;stroke-linejoin:round;stroke-miterlimit:4;stroke-opacity:1;stroke-dasharray:none"
       id="path3299"
       sodipodi:cx="186.16663"
       sodipodi:cy="96.81601"
       sodipodi:rx="11.826159"
       sodipodi:ry="11.826159"
       d="m 197.99278,96.81601 a 11.826159,11.826159 0 1 1 -23.65231,0 11.826159,11.826159 0 1 1 23.65231,0 z"
       transform="matrix(2.2263346,0,0,2.2340024,-295.25234,-159.10213)" />
    <path
       sodipodi:type="arc"
       style="opacity:0.98000004;fill:#000000;fill-opacity:1;stroke:#ffffff;stroke-width:0;stroke-linecap:round;stroke-linejoin:round;stroke-miterlimit:4;stroke-opacity:1;stroke-dasharray:none"
       id="path3303"
       sodipodi:cx="186.54813"
       sodipodi:cy="97.388237"
       sodipodi:rx="3.4334011"
       sodipodi:ry="2.8611674"
       d="m 189.98153,97.388237 a 3.4334011,2.8611674 0 1 1 -6.8668,0 3.4334011,2.8611674 0 1 1 6.8668,0 z"
       transform="matrix(2.7418229,0,0,3.4078119,-386.78049,-277.67469)" />
    <path
       sodipodi:type="arc"
       style="opacity:0.98000004;fill:#ffffff;fill-opacity:1;stroke:#ffffff;stroke-width:0;stroke-linecap:round;stroke-linejoin:round;stroke-miterlimit:4;stroke-opacity:1;stroke-dasharray:none"
       id="path3305"
       sodipodi:cx="190.55376"
       sodipodi:cy="91.856651"
       sodipodi:rx="4.3871236"
       sodipodi:ry="4.577868"
       d="m 194.94088,91.856651 a 4.3871236,4.577868 0 1 1 -8.77425,0 4.3871236,4.577868 0 1 1 8.77425,0 z"
       transform="matrix(1.243956,0,0,1.2558326,-109.28742,-64.80775)" />
    <path
       style="fill:#592300;fill-opacity:1;fill-rule:evenodd;stroke:#592300;stroke-width:1px;stroke-linecap:butt;stroke-linejoin:miter;stroke-opacity:1"
       d="m 215.64604,228.05776 c -2.74134,24.9738 9.24153,74.90898 64.47164,51.11952 26.78279,26.20633 43.81084,9.12966 53.78995,-1.90744 30.76915,21.24128 52.49789,5.22157 47.30464,-16.40403 27.20796,10.14697 31.24848,-16.92268 25.94125,-32.42656 7.38294,6.14244 31.38311,-24.29633 -1.52595,-37.00444 0.2653,-16.1117 -27.07682,-28.7654 -41.58231,-4.19638 32.07127,-11.73617 40.22411,29.7592 9.50853,36.4028 13.96704,7.99254 -5.51872,52.18465 -45.11863,25.24924 -10.96007,26.99172 -45.47144,26.99966 -55.63913,5.29566 -34.38066,15.3275 -49.91907,0.41791 -57.14999,-26.12837 z"
       id="path3377-4"
       sodipodi:nodetypes="ccccccccccc"
       inkscape:connector-curvature="0" />
    <path
       style="fill:#592300;fill-opacity:1;stroke:#592300;stroke-width:0;stroke-linecap:round;stroke-linejoin:round;stroke-miterlimit:4;stroke-opacity:1;stroke-dasharray:none"
       d="m 430.34013,263.62136 c 0.12677,-0.31473 0.92664,-2.15843 1.77751,-4.09711 2.11914,-4.82853 4.02242,-10.71002 5.25727,-16.24611 0.93728,-4.20198 1.03757,-5.38913 1.05313,-12.46483 0.0192,-8.73771 -0.28901,-10.52692 -2.6721,-15.51389 -1.39522,-2.91968 -4.33386,-6.44384 -6.47848,-7.76929 l -1.30992,-0.80959 2.19093,-2.44682 c 2.91316,-3.25345 4.87184,-6.56604 6.00689,-10.15905 3.80264,-12.0375 -1.41765,-22.88781 -12.74818,-26.497 -0.96227,-0.30649 -3.58577,-0.65703 -5.83007,-0.77895 l -4.08052,-0.22167 0.89963,-1.77531 c 3.10932,-6.13605 3.02387,-13.98072 -0.22241,-20.40616 -3.3074,-6.54653 -9.03561,-11.1921 -16.06275,-13.02694 -4.63478,-1.21017 -11.50334,-0.43149 -16.76484,1.90064 -0.57723,0.25584 -0.56834,0.0628 0.0954,-2.06967 1.40423,-4.51187 0.65445,-10.17719 -1.86742,-14.11003 -4.10681,-6.40447 -12.42315,-10.4157 -19.05938,-9.19292 -6.32608,1.16562 -10.59144,5.324 -13.14398,12.81431 -1.25166,3.67308 -1.21649,4.6047 -0.49082,-12.97777 0.57322,-13.88852 0.67157,-15.49802 1.38648,-22.68869 1.98237,-19.93905 6.8995,-33.550243 15.07282,-41.723595 4.45808,-4.45805 9.01024,-7.05728 15.56597,-8.887973 4.65062,-1.298673 15.41941,-1.731163 18.40593,-0.739204 3.42524,1.137681 6.64154,5.532049 7.22571,9.872402 0.13482,1.001347 0.3853,1.907296 0.55667,2.013209 0.17136,0.105912 1.65085,-0.17206 3.28775,-0.617715 3.71807,-1.012293 11.53203,-1.415786 14.6953,-0.758843 5.002,1.038822 9.62451,4.526798 12.25865,9.249956 2.31087,4.143483 3.09956,7.139673 4.67213,17.748313 l 0.18163,1.22537 1.22527,-0.75486 c 3.39933,-2.09425 8.8312,-2.81487 12.30245,-1.63209 2.26345,0.77123 5.00505,3.39293 6.18527,5.91477 2.47868,5.29624 1.67214,12.32116 -1.82875,15.9286 -0.83015,0.85541 -1.50936,1.69464 -1.50936,1.86497 0,0.17032 0.51139,0.79962 1.13642,1.39844 1.6198,1.55187 4.55795,6.04565 5.45804,8.34789 0.46114,1.17951 0.7819,2.94747 0.80544,4.4397 0.0539,3.41456 -1.15527,5.71573 -5.51256,10.49095 -1.91454,2.09819 -3.9293,4.57527 -4.47723,5.50463 l -0.99614,1.68973 1.10052,0.78994 c 3.90091,2.79975 5.61964,5.23765 6.28694,8.9177 0.75363,4.15598 -0.34033,7.99234 -4.38747,15.38651 -1.41964,2.59376 -3.32823,6.10668 -4.24128,7.80649 -1.70018,3.1653 -3.18395,6.98698 -3.18395,8.2009 0,0.3746 1.76809,2.45067 3.92911,4.61351 5.83808,5.84306 8.67502,10.36453 9.49187,15.12795 0.86224,5.02835 -0.70148,8.8548 -6.84998,16.76183 -5.77887,7.43166 -7.24768,9.81315 -8.35762,13.55066 -0.4882,1.64393 -0.50204,3.05433 -0.1014,10.3355 0.49299,8.95947 0.30336,15.83184 -0.53416,19.36046 -0.84828,3.57373 -2.17411,5.36324 -6.27409,8.46819 -2.03959,1.54464 -5.06934,4.24988 -6.73263,6.01162 -1.66333,1.76174 -2.92045,2.94567 -2.79364,2.63094 l 3e-5,0 z"
       id="path3385"
       inkscape:connector-curvature="0" />
  </g>
  <g
     style="display:inline"
     transform="translate(-169.70945,-261.08105)"
     id="g8319"
     inkscape:groupmode="layer"
     inkscape:label="Camouflage">
    <g
       id="g8872">
      <path
         style="fill:none;stroke:none"
         d="m 287.52195,391.9873 c -0.65552,5.03565 -1.36654,10.59465 -1.5625,12.34375 -0.49407,4.40989 -1.02368,7.74531 -1.71875,10.5 -0.32542,1.28973 -0.75387,3.2835 -0.9375,4.4375 -0.18364,1.154 -0.59242,2.93349 -0.90625,3.96875 -5.93205,29.20047 -22.62952,94.31926 -10.33992,128.33188 12.13918,33.59633 58.96458,70.25391 137.77742,83.69937 91.52855,-52.10398 60.32279,-133.34088 49.65625,-213.375 L 384.39695,396.8623 c -0.92385,-3.42781 -2.29606,-6.37606 -4.78125,-10.53125 -54.69675,5.15985 -63.35324,2.99559 -92.09375,5.65625 z"
         id="path8321"
         inkscape:connector-curvature="0"
         sodipodi:nodetypes="cssscsccccc" />
      <path
         style="fill:none;stroke:none;display:inline"
         d="m 287.52195,391.9873 c -0.65552,5.03565 -1.36654,10.59465 -1.5625,12.34375 -0.49407,4.40989 -1.02368,7.74531 -1.71875,10.5 -0.32542,1.28973 -0.75387,3.2835 -0.9375,4.4375 -0.18364,1.154 -0.59242,2.93349 -0.90625,3.96875 -5.93205,29.20047 -22.62952,94.31926 -10.33992,128.33188 12.13918,33.59633 58.96458,70.25391 137.77742,83.69937 91.52855,-52.10398 60.32279,-133.34088 49.65625,-213.375 L 384.39695,396.8623 c -0.92385,-3.42781 -2.29606,-6.37606 -4.78125,-10.53125 -54.69675,5.15985 -63.35324,2.99559 -92.09375,5.65625 z"
         id="path8323"
         inkscape:connector-curvature="0"
         sodipodi:nodetypes="cssscsccccc" />
      <path
         id="path8327"
         d="m 379.6157,386.33105 c -54.69675,5.15985 -63.35324,2.99559 -92.09375,5.65625 -0.65552,5.03565 -1.36654,10.59465 -1.5625,12.34375 -0.49407,4.40989 -1.02368,7.74531 -1.71875,10.5 -0.32542,1.28973 -0.75387,3.2835 -0.9375,4.4375 -0.18364,1.154 -0.59242,2.93349 -0.90625,3.96875 -5.93205,29.20047 -22.63335,94.33113 -10.34375,128.34375 12.13918,33.59633 58.96841,70.24204 137.78125,83.6875 91.52855,-52.10398 60.32279,-133.34088 49.65625,-213.375 L 384.39695,396.8623 c -0.92385,-3.42781 -2.29606,-6.37606 -4.78125,-10.53125 z"
         style="fill:#344a33"
         inkscape:connector-curvature="0" />
      <path
         id="path8331"
         d="m 455.9907,526.5498 c -9.69965,0.3677 -19.5905,12.2446 -5.65625,14.625 7.40132,0.535 15.08702,-0.58115 22.53125,-0.21875 0.32876,-4.38127 0.45115,-8.80507 0.4375,-13.28125 -3.64461,0.26953 -7.29573,0.52767 -10.9375,0.71875 -1.92482,-1.40131 -4.13662,-1.9286 -6.375,-1.84375 z"
         style="fill:#463a28;fill-opacity:1"
         inkscape:connector-curvature="0" />
      <path
         id="path8335"
         d="m 356.27195,483.95605 c -0.51432,0.0132 -0.98924,0.0644 -1.4375,0.15625 -12.17041,-0.1942 -24.90928,3.41435 -36.96875,0.21875 -10.93025,-1.14627 -17.50092,11.21571 -29.21875,7.0625 -5.37715,2.6127 -15.08676,2.05212 -18.84375,-1.28125 -2.88669,22.72001 -3.51335,45.51813 2.25,61.46875 1.92732,5.33405 4.74102,10.74177 8.40625,16.125 5.25974,-0.46125 10.90486,-1.81777 15.46875,-1.3125 3.25209,6.34223 -8.1901,4.71142 -12.5625,5.3125 2.45622,3.21675 5.23913,6.40743 8.3125,9.5625 1.24763,-0.19945 2.45891,-0.58617 3.5,-1.25 7.18767,-2.40028 27.74114,7.0343 22.15625,-3.4375 -8.50124,-11.60003 12.38842,-5.3031 17.125,-12.6875 12.58104,-10.06166 -12.2981,-9.60134 -11.25,-19.6875 3.28282,-10.95454 19.95357,-2.80726 29.3125,-4.9375 8.29868,-2.07984 27.59428,0.46351 26.9375,-9.40625 -9.71657,-1.15691 -25.48547,-11.53182 -10.625,-18.5625 10.29499,-3.14981 22.00093,-0.85612 31.90625,-5.8125 9.63489,0.3172 20.16574,-12.10777 5.15625,-12.21875 -10.04276,2.67309 -21.7878,0.71336 -30.4375,6.46875 -6.88632,8.74477 -16.72373,5.31871 -25.9375,1.53125 -5.62297,0.16878 -21.33487,2.35731 -12.625,-5.78125 9.0653,-3.70561 19.85432,-0.60831 29.875,-0.40625 11.30679,-3.11551 -2.78524,-11.32291 -10.5,-11.125 z"
         style="fill:#463a28;fill-opacity:1"
         inkscape:connector-curvature="0" />
      <path
         id="path8337"
         d="m 354.4907,388.45605 c -4.8235,0.3508 -9.16578,0.61941 -13.125,0.84375 1.08361,3.37988 2.06874,7.30201 2.90625,11.75 9.80155,3.56325 21.60633,1.36507 32.03125,0.75 7.65719,-1.42219 17.52649,2.229 24.96875,0.6875 l -16.875,-5.625 c -0.0334,-0.12396 -0.0591,-0.25221 -0.0937,-0.375 -3.0982,0.3912 -6.04237,0.55803 -8.46875,0.0313 -7.20872,-2.50338 -14.30368,-5.24457 -21.34375,-8.0625 z m -10.21875,12.59375 c -1.99554,-0.72546 -3.91727,-1.67032 -5.71875,-2.9375 -5.68788,-2.67661 -23.64741,-1.42735 -22.6875,-7.75 -8.99235,0.28987 -17.16554,0.59017 -28.34375,1.625 -0.65552,5.03565 -1.36654,10.59465 -1.5625,12.34375 -0.49407,4.40989 -1.02368,7.74531 -1.71875,10.5 -0.32542,1.28973 -0.75387,3.2835 -0.9375,4.4375 -0.18364,1.154 -0.59242,2.93349 -0.90625,3.96875 -1.90348,9.36984 -4.91176,22.448 -7.71875,37 3.91669,1.20571 7.86986,1.90095 12.03125,0.71875 6.56068,-5.79285 16.32452,-6.93484 25.46875,-7.21875 10.21772,-0.11559 17.99812,-6.58299 28.40625,-5.9375 17.43408,-1.15921 34.93948,-0.0404 52.34375,-1.03125 10.91424,-1.46209 21.86197,-2.71609 32.875,-3.375 11.69024,-1.60311 23.64983,-6.41665 35.5625,-3.21875 0.34426,0.36895 0.67687,0.71472 1.03125,1.03125 -1.04848,-6.43352 -2.04879,-12.87876 -2.90625,-19.3125 L 409.52195,405.2373 c -1.63832,7.56465 -3.3682,16.50003 -5.28125,27.125 l -56.96875,0 c -0.36756,-12.8004 -1.44207,-23.0384 -3,-31.3125 z"
         style="fill:#463a28;fill-opacity:1"
         inkscape:connector-curvature="0" />
      <path
         id="path8351"
         d="m 270.58445,503.39355 -1.90625,0.90625 c -0.10482,-0.004 -0.23689,0.004 -0.34375,0 -0.19533,2.49793 -0.35665,4.98313 -0.46875,7.4375 3.50823,-2.43712 8.4794,-5.12963 2.71875,-8.34375 z m -2.90625,13.59375 c -0.0306,1.62575 -0.0464,3.22001 -0.0313,4.8125 0.89284,-1.23183 1.30825,-2.6814 0.84375,-4.53125 -0.29174,-0.10004 -0.56322,-0.18128 -0.8125,-0.28125 z"
         style="fill:#758949;fill-opacity:1"
         inkscape:connector-curvature="0" />
      <path
         id="path8353"
         d="m 410.14695,526.2373 c -11.93088,6.0786 9.71999,18.04736 -3.0625,21.34375 -6.68873,6.66307 -16.9461,11.13718 -25.78125,4.875 -8.3881,-2.33369 -12.90438,12.96254 -4.375,5.5 7.69434,-3.29547 13.25308,7.8913 2.5,6.28125 -13.95753,4.26418 5.07195,9.56135 11.0625,5.25 13.26431,-2.24306 9.25206,9.99653 6.71875,15.8125 8.6933,-0.83971 14.96676,-11.21671 25.0625,-13.125 9.24633,0.34217 -7.76352,-4.59911 -9.4375,-4.625 -3.83585,-4.35944 -14.76993,-5.00871 -5.4375,-9.8125 7.04141,-7.4755 19.40234,-11.91407 30.28125,-9.8125 12.88184,4.75478 12.52603,19.33758 2.03125,25.96875 -6.38573,8.7836 7.87921,5.8903 10.375,0.0937 3.9352,-4.41585 7.64016,-5.34583 8.65625,0.84375 1.87018,2.0629 4.8912,1.08906 6.75,0.46875 3.42016,-8.89477 5.52836,-18.11266 6.6875,-27.59375 -6.5668,0.84032 -13.21436,3.33772 -18.5,4.09375 -5.19468,-7.99245 -12.25141,-14.59063 -23.8125,-13.375 -8.92291,-1.19482 -16.26925,-5.57206 -19.71875,-12.1875 z"
         style="fill:#758949;fill-opacity:1"
         inkscape:connector-curvature="0" />
      <path
         id="path8355"
         d="m 303.8657,390.83105 c -3.71405,0.18434 -7.58513,0.43278 -11.875,0.78125 -1.78828,1.80845 -3.16743,3.81396 -3.40625,6.21875 -7.67888,9.44113 9.90174,19.85346 17.90625,11.96875 8.08564,-9.27929 -17.34699,-6.50775 -7.0625,-14.84375 1.32764,-1.5831 2.82738,-2.94381 4.4375,-4.125 z"
         style="fill:#758949;fill-opacity:1"
         inkscape:connector-curvature="0" />
      <path
         id="path8357"
         d="m 400.0532,403.9873 c -0.81355,-0.003 -2.13003,0.2576 -4.09375,0.90625 -10.99371,2.90845 -22.43638,2.44609 -33.71875,1.34375 -10.17467,-0.95669 -20.58537,-0.81879 -30.40625,1.78125 -2.12766,0.29084 -4.32012,0.46798 -6.46875,0.21875 -12.84872,0.22102 4.96602,10.09352 10.5625,8.78125 12.92433,2.38086 25.36562,-5.43831 38.21875,-2.15625 9.6669,11.17463 -11.14178,13.16133 -19.40625,15.03125 -9.58411,3.20437 -11.32209,13.92913 0.65625,14.46875 0.25057,4.98412 -16.38816,0.55449 -22.5625,3.4375 -18.58779,2.22928 -37.46213,3.30051 -56.25,2.90625 -0.89276,4.34125 -1.78683,8.89723 -2.65625,13.5625 3.39162,1.20121 6.66932,2.57092 9.84375,3.96875 10.85628,3.99924 23.07527,6.47507 34.90625,4.46875 11.8801,1.95361 21.44997,-13.52185 32.75,-6.28125 -2.27115,14.30364 27.86286,-0.49126 24.5,15.78125 -0.75337,12.61082 -21.93609,10.90587 -24.78125,21.84375 -0.17771,11.88811 17.53317,15.2764 28.6875,15.09375 11.10796,-3.0971 2.62137,-15.97923 13.375,-20.71875 7.00057,-5.37393 15.40481,-10.03009 24.59375,-12.09375 12.28465,-0.9516 20.10218,12.84298 32.75,8.46875 6.52536,1.31181 12.20015,-0.79605 5.03125,-5.28125 -6.85321,-10.03715 -20.25887,-12.51133 -32.59375,-13.8125 -7.36594,0.4291 -27.62836,-7.08797 -12.46875,-11.40625 12.41547,-2.64997 23.56646,4.22137 34.25,8.21875 13.96084,1.3955 7.81872,-13.02485 6.71875,-19.46875 -5.25705,-10.69189 -20.37242,-7.00917 -30.96875,-6.5625 -5.65885,1.50647 -16.0845,-2.0749 -6.6875,-5.75 3.88056,-9.33246 -21.47968,-5.07383 -13.5,-14.25 9.37769,-6.60666 22.78354,-8.56928 34.625,-6.9375 8.97921,3.08694 -13.74299,12.54004 1.09375,11.78125 8.08359,-1.27382 16.28764,-2.26145 24.46875,-2.25 -0.17165,-1.16801 -0.33571,-2.33221 -0.5,-3.5 -7.91698,0.6619 -15.42108,-0.49576 -20.25,-7.3125 -11.4198,-5.14319 -25.12495,0.70057 -36.90625,-3.15625 -7.92593,-2.85117 1.58067,-11.10782 -2.8125,-11.125 z"
         style="fill:#758949;fill-opacity:1"
         inkscape:connector-curvature="0" />
      <path
         id="path8363"
         d="m 341.20945,564.45605 c -11.61723,0.0866 -22.2679,6.70654 -31.84375,11.6875 -3.87459,3.58194 -9.19647,6.71118 -14.71875,8.09375 23.20113,22.21461 61.85712,41.9331 115.1875,51.03125 1.37653,-0.78361 2.70976,-1.57832 4.03125,-2.375 -9.58872,1.09338 -19.4052,-0.3747 -26.84375,-6.0625 -9.74748,-2.28191 -18.90374,-11.58269 -6.4375,-15.9375 -2.46708,-12.60157 -19.52138,-3.85716 -28.90625,-6.84375 -9.51732,-1.42417 -28.9261,-10.78534 -12.9375,-17.46875 5.07215,-4.4288 19.69193,7.60727 15.15625,-2.625 -2.25515,-7.61976 -20.54649,1.19413 -17.1875,-6.9375 6.48673,-6.12716 20.35208,7.82545 22.3125,-0.4375 -2.53111,-3.52852 -20.23137,-4.99842 -13.5625,-8.40625 2.43783,0.0287 6.45742,-1.061 2.3125,-3.03125 -2.21821,-0.48233 -4.41116,-0.70354 -6.5625,-0.6875 z"
         style="fill:#758949;fill-opacity:1"
         inkscape:connector-curvature="0" />
      <path
         inkscape:connector-curvature="0"
         id="path8381"
         d="m 305.66333,471.83166 c -1.31302,0.85866 -0.74123,1.52589 0,0 z"
         style="opacity:0.6;fill:#17181f;fill-opacity:1" />
      <path
         inkscape:connector-curvature="0"
         id="path8383"
         d="m 521.37781,451.34167 c 0.96917,0.0467 0.27872,-0.30888 0,0 z"
         style="fill:#17181f;fill-opacity:1" />
      <path
         inkscape:connector-curvature="0"
         id="path8385"
         d="m 595.37,534.84693 c 1.41844,-0.40182 -0.47134,-1.03576 0,0 z"
         style="fill:#17181f;fill-opacity:1" />
      <path
         inkscape:connector-curvature="0"
         id="path8387"
         d="m 258.61261,639.26111 0.12032,0 -0.12032,0 0,0 z"
         style="fill:#17181f;fill-opacity:1" />
      <path
         id="path8393"
         d="m 267.6782,518.9873 c -0.0254,3.38929 0.027,6.72002 0.21875,9.9375 4.06476,-3.79945 6.79349,-8.40656 -0.21875,-9.9375 z m 8.125,11.46875 c -1.93187,-0.0642 -4.80723,1.84943 -7.46875,3.65625 0.33377,3.19075 0.78932,6.23715 1.40625,9.15625 3.37162,-4.79209 13.37374,-8.56287 6.53125,-12.75 -0.14697,-0.0342 -0.30787,-0.0571 -0.46875,-0.0625 z m -4.09375,20.125 c 0.11276,0.33249 0.22567,0.6732 0.34375,1 1.17559,3.25355 2.70751,6.52539 4.53125,9.8125 4.423,-2.22303 -0.36404,-6.83539 -4.875,-10.8125 z m 18.09375,13.21875 c -2.70234,0.0799 -7.23213,1.28976 -9.75,2.375 -0.3381,-1.0436 -1.05069,-1.63932 -1.90625,-2.03125 1.38845,2.27972 2.9276,4.54243 4.625,6.8125 0.47143,-1.26565 2.16503,-2.27001 5.78125,-2.75 4.81882,-3.43789 3.95234,-4.48613 1.25,-4.40625 z"
         style="fill:#979674;fill-opacity:1"
         inkscape:connector-curvature="0" />
      <path
         id="path8395"
         d="m 311.95945,456.9873 c -2.98644,0.11976 -4.97837,2.11494 -7.15625,3.53125 -8.18388,3.09432 -11.13542,13.95052 -12.78125,17.375 1.63866,-5.67772 -4.32346,-10.5027 -6.21875,-2.5625 4.33037,6.77959 -5.21664,15.34599 -8.25,5.15625 -12.40774,0.13086 10.7867,11.36918 -2.875,13.59375 2.13217,4.31455 -1.45795,6.78382 -6.15625,7.90625 -0.11505,1.3191 -0.21878,2.62758 -0.3125,3.9375 5.61288,-1.8071 10.90617,-4.20937 12.90625,1.71875 -4.58149,8.51033 8.34479,5.35014 10.90625,0.40625 9.15747,-3.29594 9.10274,-14.37111 19.9375,-16.28125 4.85856,-4.89905 8.57629,-20.97287 -1.5625,-21.875 -11.65271,4.37701 14.00556,-10.40517 1.5625,-12.90625 z"
         style="fill:#979674;fill-opacity:1"
         inkscape:connector-curvature="0" />
      <path
         id="path8397"
         d="m 455.64695,449.64355 c -0.57127,0.0138 -1.19579,0.0934 -1.90625,0.25 -3.60128,0.068 -5.8812,2.83701 -6.84375,5.4375 0.29307,9.36715 5.40138,21.34032 17.90625,24 1.11822,2.43512 2.77711,4.26911 4.78125,5.5 -0.71907,-4.89316 -1.52582,-9.8115 -2.34375,-14.75 -0.57404,-0.19125 -1.15065,-0.40399 -1.71875,-0.59375 0.21764,-0.59246 0.70645,-1.19631 1.3125,-1.8125 -0.47439,-2.83476 -0.95221,-5.68616 -1.4375,-8.53125 -5.92589,1.43818 -2.27454,-9.68129 -9.75,-9.5 z"
         style="fill:#979674;fill-opacity:1"
         inkscape:connector-curvature="0" />
      <path
         inkscape:connector-curvature="0"
         id="path8399"
         d="m 349.86834,461.2401 c 9.55155,0.2853 -0.41394,14.74985 11.98331,9.93218 9.92575,-7.96563 18.15268,7.43851 14.11814,14.23198 -4.7123,3.95437 -6.85265,12.15351 -11.48437,14.34618 0.61042,-4.26835 0.90681,-8.35913 -3.99867,-8.84695 5.46788,-3.33524 17.37944,-15.1304 2.49027,-14.36838 -5.30672,3.83416 -8.4466,11.30179 -14.59611,13.64057 -2.16684,-2.76048 0.96752,-4.168 -1.89198,-6.00416 7.52103,0.84063 13.43045,-11.33925 2.62383,-7.0968 -2.65695,2.35589 -10.83752,13.29008 -9.37438,4.05056 0.0613,-4.68958 14.53429,-8.38502 4.12782,-10.43527 -9.68897,0.85635 -13.50827,13.57861 -22.07684,12.83138 0.16061,-3.93264 18.475,-12.07121 5.4872,-10.32891 -3.61343,3.49846 -14.47689,3.05179 -6.22181,-1.98459 9.95445,-1.30441 17.13384,-8.14735 26.86531,-9.81335 l 1.94828,-0.15444 0,0 z"
         style="fill:#979674;fill-opacity:1" />
      <path
         id="path8403"
         d="m 415.4282,594.51855 c -2.75294,-0.0711 -5.16054,8.30772 -5.9375,11.1875 0.90625,8.28098 -5.7955,12.27011 -14.6875,13.5625 2.76016,5.43588 16.3166,3.4617 19.40625,-0.9375 6.55948,-2.30255 15.0895,-1.48252 22.9375,-2.5 1.30774,-1.18157 2.55876,-2.39157 3.78125,-3.59375 -4.34051,-2.15386 -12.80377,-2.1565 -17.53125,-1.3125 -13.13738,3.87624 -2.68144,-7.38286 -5.15625,-13 -0.94434,-2.42039 -1.89485,-3.38254 -2.8125,-3.40625 z"
         style="fill:#979674;fill-opacity:1"
         inkscape:connector-curvature="0" />
      <path
         id="path8405"
         d="m 445.8657,483.7998 c -2.9015,0.12897 -5.21227,1.55913 -6.03125,5.4375 -4.50533,5.4382 -12.57837,-6.5069 -20.15625,-4.78125 -10.24476,-2.57877 -20.87464,5.34047 -21.09375,13.75 5.15052,-1.82923 10.56612,-4.46737 13.5625,1.53125 4.76363,-0.9234 8.99989,-10.49091 16.34375,-4.625 2.00844,6.94143 -9.02803,10.7021 -12.96875,15.96875 -2.34787,6.33153 -19.91439,6.53078 -17.375,9.53125 5.49989,-2.25093 14.25196,-1.67225 12.96875,3.5625 4.20177,-1.97164 7.30556,-15.73347 11.3125,-5.53125 1.80754,5.61437 18.16768,8.35731 8.21875,1.34375 -6.84768,-4.44128 -7.28142,-14.79601 1.71875,-17.5625 10.69899,-4.69745 13.69892,7.46682 4.65625,11.15625 -7.63362,7.36637 8.94877,-3.14782 3.46875,5 4.60744,6.40505 3.66258,-6.58677 5.59375,-9.375 4.79509,-5.10019 12.94876,-7.13614 18.75,-11.84375 3.07868,-1.17213 5.15221,-1.04898 6.40625,-0.15625 -0.16917,-1.40942 -0.34667,-2.83525 -0.53125,-4.25 -3.25654,-0.47901 -6.37826,-1.69753 -9.4375,-4.125 -4.06869,-1.82298 -10.57042,-5.2462 -15.40625,-5.03125 z m 26.15625,20.375 c -0.86533,2.0648 -2.4355,4.00519 -4.4375,5.03125 -3.36672,4.50555 -0.64591,16.26711 2,6.125 0.62042,-1.86601 1.69507,-3.26132 3.03125,-4.3125 -0.17386,-2.27062 -0.36517,-4.55602 -0.59375,-6.84375 z"
         style="fill:#979674;fill-opacity:1"
         inkscape:connector-curvature="0" />
      <path
         id="path8409"
         d="m 280.77195,430.89355 c -0.41102,1.91916 -0.76636,3.64989 -1.21875,5.75 1.77938,0.39145 3.52309,0.47229 5.25,-0.1875 -0.46817,-2.96362 -1.97845,-4.62514 -4.03125,-5.5625 z"
         style="fill:#979674;fill-opacity:1"
         inkscape:connector-curvature="0" />
      <path
         inkscape:connector-curvature="0"
         id="path8421"
         d="m 311.08209,433.51275 c -3.96555,-8.24677 -0.16392,-20.40306 11.71784,-21.89335 7.84997,1.54208 17.76689,1.10604 23.96606,0.66723 -2.98037,8.30457 -16.84076,2.49137 -21.749,4.46625 8.69441,7.40059 -2.49468,6.92664 -5.01365,3.92571 -0.59552,8.46779 19.73339,2.06088 11.14605,10.43481 -7.42444,3.91368 -17.33364,-13.02097 -16.06698,0.61914 0.48404,1.66461 -2.74028,3.4832 -4.00032,1.78021 z"
         style="fill:#979674;fill-opacity:1" />
      <path
         id="path8425"
         d="m 398.64695,401.6123 c 1.35626,3.15041 1.60279,6.43169 -0.84375,9.71875 -9.71271,6.47349 -19.4516,-5.53861 -29.4375,-2.6875 -9.64924,8.4738 4.42147,15.86868 14.15625,11.125 13.35815,-4.20731 12.21784,10.55926 10.625,17.3125 -4.40213,8.37993 -17.40532,11.18003 -21.25,19.375 7.80857,4.26742 13.68058,-6.77262 19.90625,-9.90625 8.39968,-8.65043 13.59329,6.89034 14.15625,12.5625 -1.16235,7.89257 6.10323,3.31847 4.84375,-1.78125 -1.72255,-8.25925 1.95204,-20.80329 15,-16.15625 11.00751,-2.75447 -2.45789,-6.85708 -7.875,-6.03125 -9.68235,2.46963 -8.55525,-6.06157 -13.84375,-9.8125 -10.46829,-4.56381 1.01084,-9.55984 1.6875,-15.09375 -1.61883,-3.00255 -1.56427,-5.03983 -0.5,-6.40625 l -6.625,-2.21875 z"
         style="fill:#979674;fill-opacity:1"
         inkscape:connector-curvature="0" />
    </g>
  </g>
  <g
     inkscape:groupmode="layer"
     id="layer3"
     inkscape:label="Badge"
     style="display:inline">
    <path
       style="fill:#0004ff;fill-opacity:1;stroke:#0004ff;stroke-width:3.92476153000000005;stroke-linecap:butt;stroke-linejoin:miter;stroke-miterlimit:4;stroke-opacity:1;stroke-dasharray:none;display:inline"
       d="m 105.51488,255.74803 1.76495,34.41615 95.30626,52.06551 97.07121,-60.0077 -1.76492,-29.12134 -95.30629,55.59535 z"
       id="path3637"
       inkscape:connector-curvature="0" />
    <path
       style="fill:#0004ff;fill-opacity:1;stroke:#0004ff;stroke-width:3.33627700999999988;stroke-linecap:butt;stroke-linejoin:miter;stroke-miterlimit:4;stroke-opacity:1;stroke-dasharray:none;display:inline"
       d="m 120.42344,197.68643 1.50031,29.25575 81.0159,44.25873 82.51621,-51.01006 -1.50029,-24.75484 -81.01592,47.25931 z"
       id="path3637-6"
       inkscape:connector-curvature="0" />
    <path
       style="fill:#0004ff;fill-opacity:1;stroke:#0004ff;stroke-width:2.87389635999999982;stroke-linecap:butt;stroke-linejoin:miter;stroke-miterlimit:4;stroke-opacity:1;stroke-dasharray:none;display:inline"
       d="m 129.38464,141.10644 1.29238,25.20114 69.78776,38.12483 71.08014,-43.94048 -1.29236,-21.32402 -69.78778,40.70955 z"
       id="path3637-6-0"
       inkscape:connector-curvature="0" />
  </g>
</svg>
