<?xml version="1.0" encoding="UTF-8" standalone="no"?>
<!-- Created with Inkscape (http://www.inkscape.org/) -->

<svg
   xmlns:dc="http://purl.org/dc/elements/1.1/"
   xmlns:cc="http://creativecommons.org/ns#"
   xmlns:rdf="http://www.w3.org/1999/02/22-rdf-syntax-ns#"
   xmlns:svg="http://www.w3.org/2000/svg"
   xmlns="http://www.w3.org/2000/svg"
   xmlns:sodipodi="http://sodipodi.sourceforge.net/DTD/sodipodi-0.dtd"
   xmlns:inkscape="http://www.inkscape.org/namespaces/inkscape"
   inkscape:output_extension="org.inkscape.output.svg.inkscape"
   sodipodi:docname="uniform_corporal.svg"
   version="1.0"
   inkscape:version="0.48.4 r9939"
   sodipodi:version="0.32"
   id="svg2"
   height="525"
   width="525">
  <defs
     id="defs4">
    <inkscape:perspective
       sodipodi:type="inkscape:persp3d"
       inkscape:vp_x="0 : 526.18109 : 1"
       inkscape:vp_y="0 : 1000 : 0"
       inkscape:vp_z="744.09448 : 526.18109 : 1"
       inkscape:persp3d-origin="372.04724 : 350.78739 : 1"
       id="perspective10" />
    <inkscape:perspective
       id="perspective2447"
       inkscape:persp3d-origin="372.04724 : 350.78739 : 1"
       inkscape:vp_z="744.09448 : 526.18109 : 1"
       inkscape:vp_y="0 : 1000 : 0"
       inkscape:vp_x="0 : 526.18109 : 1"
       sodipodi:type="inkscape:persp3d" />
  </defs>
  <sodipodi:namedview
     id="base"
     pagecolor="#ffffff"
     bordercolor="#666666"
     borderopacity="1.0"
     gridtolerance="10000"
     guidetolerance="10"
     objecttolerance="10"
     inkscape:pageopacity="0.0"
     inkscape:pageshadow="2"
     inkscape:zoom="2.8284271"
     inkscape:cx="231.3016"
     inkscape:cy="258.04017"
     inkscape:document-units="px"
     inkscape:current-layer="layer3"
     showgrid="false"
     inkscape:window-width="1920"
     inkscape:window-height="1031"
     inkscape:window-x="0"
     inkscape:window-y="25"
     inkscape:window-maximized="1" />
  <metadata
     id="metadata7">
    <rdf:RDF>
      <cc:Work
         rdf:about="">
        <dc:format>image/svg+xml</dc:format>
        <dc:type
           rdf:resource="http://purl.org/dc/dcmitype/StillImage" />
        <dc:title></dc:title>
      </cc:Work>
    </rdf:RDF>
  </metadata>
  <g
     inkscape:groupmode="layer"
     id="layer2"
     inkscape:label="Chicken"
     style="display:none">
    <path
       style="fill:#ff8200;fill-opacity:1;fill-rule:evenodd;stroke:#ff8200;stroke-width:1px;stroke-linecap:butt;stroke-linejoin:miter;stroke-opacity:1"
       d="m 251.88749,424.90608 c 3.67804,29.53262 7.90065,33.9091 -15.25955,69.04951 -10.18908,-2.47911 -21.5497,-7.52033 -33.57103,-2.67042 5.85593,2.44628 17.29195,2.16232 15.64104,6.48531 -27.61912,-0.73039 -36.78345,5.91981 -42.34528,12.20765 44.8945,-4.78043 43.33482,-1.51637 56.07889,-4.19638 0.26306,9.96811 -3.35014,12.61189 1.90744,16.78552 6.8697,-12.15628 10.02621,-18.15944 16.78551,-22.88934 15.21369,-0.16885 15.81879,-0.0101 31.6636,2.28893 -3.11647,-8.80108 -20.84258,-6.76301 -22.88934,-13.7336 -0.17844,-26.90851 24.86257,-54.47838 25.94125,-60.27527 l 16.02254,-16.40403 c 1.60421,11.73324 6.13432,27.18556 -0.38149,41.9638 -10.89941,3.96998 -24.09592,6.01213 -33.18954,14.49658 9.84419,-1.305 21.38365,-6.1617 26.32273,0.38149 -9.57634,7.09318 -21.95558,10.98533 -24.79678,22.88934 21.80368,-8.8778 23.61027,-6.94457 46.16017,-22.12636 15.80911,-4.67782 13.35742,12.55734 19.83743,19.07445 1.77066,-8.94042 2.95103,-18.32355 -7.2483,-36.24146 7.49374,-4.00744 15.29785,-2.0763 23.27084,0 -4.90934,-10.95004 -16.71087,-6.74662 -27.8487,-16.40402 0.3041,-8.61948 -0.24693,-14.76571 3.81489,-30.90062 l -75.91632,20.21892 z"
       id="path3297"
       sodipodi:nodetypes="ccccccccccccccccccccccc"
       inkscape:connector-curvature="0" />
    <path
       style="opacity:0.98000004;fill:#ffff00;fill-opacity:1;fill-rule:evenodd;stroke:#ffff00;stroke-width:1px;stroke-linecap:butt;stroke-linejoin:miter;stroke-opacity:1"
       d="m 82.26225,62.39221 c -1.56348,-31.995002 46.26643,-29.706068 46.26643,-29.706068 20.31817,3.797175 46.97104,21.038155 62.82677,56.735508 22.9077,48.64332 34.59871,70.68168 77.64857,73.59596 46.28235,-2.95181 58.56153,-14.20887 77.79857,-35.37211 2.25892,-37.97883 -3.25706,-96.758397 47.64227,-93.833654 9.59144,0.551137 9.86864,13.070663 9.86864,13.070663 32.94771,-11.082131 34.18219,16.822911 35.19703,26.804261 19.91098,-13.35049 27.34972,13.25384 15.6848,19.71231 18.75026,19.66273 0.0646,22.13763 -2.97686,32.72046 19.47076,11.31803 -3.66743,28.5211 -4.54034,41.68855 30.4347,26.09538 1.88035,31.71149 -2.13883,50.61914 3.15418,45.54761 -3.13111,25.39086 -18.81176,49.53096 7.77938,92.76173 -33.00807,134.7905 -107.70482,140.31269 -25.22677,6.79428 -26.89179,23.3521 -51.78236,28.54284 C 219.34198,405.66999 253.89671,413.24907 191.99963,367.39537 171.79805,350.80946 136.17722,346.13834 117.04026,318.91506 85.33907,273.48026 98.29726,233.93694 105.13905,189.15894 116.40375,151.1604 114.8573,157.88 119.37294,120.75371 123.8071,84.2974 93.70692,81.70608 82.26225,62.39221 z"
       id="path2513"
       sodipodi:nodetypes="cccccscccccccccccczc"
       inkscape:connector-curvature="0" />
    <path
       style="fill:#d80000;fill-opacity:1;fill-rule:evenodd;stroke:#d80000;stroke-width:1px;stroke-linecap:butt;stroke-linejoin:miter;stroke-opacity:1"
       d="m 76.40256,56.7692 c -4.81001,-7.87329 -2.44472,-12.96 7.62978,-10.30021 -9.3826,-6.48632 -7.61755,-18.06858 5.72234,-14.49658 -9.30651,-12.21878 0.87263,-17.60588 8.39275,-9.15574 -5.29791,-11.82359 6.50879,-18.29562 12.58914,-5.34084 -0.95763,-14.77511 11.63029,-23.91077 15.25955,-1.52596 16.92994,-21.08546 35.35273,8.19128 7.2483,15.25956 -16.41102,2.19887 -37.20225,8.5284 -33.57103,13.73361 25.9215,-13.97136 32.59456,6.01119 27.08572,17.54849 39.42766,14.23491 -5.24018,48.44658 -12.58915,21.36339 10.99676,51.4282 -58.04691,-6.67394 -13.7336,-17.167 L 76.40256,56.7692 z"
       id="path2517"
       sodipodi:nodetypes="cccccccccccc"
       inkscape:connector-curvature="0" />
    <path
       style="fill:#ff8200;fill-opacity:1;fill-rule:evenodd;stroke:#ff8200;stroke-width:1px;stroke-linecap:butt;stroke-linejoin:miter;stroke-opacity:1"
       d="m 61.52448,74.31769 c 0.21521,-9.73997 12.8544,-18.514585 24.03381,-23.270828 11.33281,2.514919 1.15807,6.484348 -0.38149,9.918718 15.02101,-3.41901 16.17779,4.31659 19.07445,7.62978 -14.6963,4.3959 -24.74705,-1.92704 -42.72677,5.72233 z"
       id="path2523"
       sodipodi:nodetypes="ccccc"
       inkscape:connector-curvature="0" />
    <path
       style="opacity:0.98000004;fill:#ffff00;fill-opacity:1;stroke:#ffff00;stroke-width:0;stroke-linecap:round;stroke-linejoin:round;stroke-miterlimit:4;stroke-opacity:1;stroke-dasharray:none"
       d="m 166.07004,185.08552 c -3.5628,-1.02377 -6.23201,-2.66429 -9.39338,-5.77323 -2.4609,-2.42008 -3.19614,-3.46176 -4.76929,-6.75701 -1.02362,-2.14414 -2.09924,-3.90233 -2.39224,-3.91026 -0.2928,-0.008 -2.33737,1.881 -4.54348,4.19764 -8.82721,9.26944 -15.28524,12.6436 -20.74094,10.83665 -4.07612,-1.35003 -7.88314,-6.60595 -10.34756,-14.28573 -1.41638,-4.41377 -1.5122,-4.95936 -0.87115,-4.95936 0.44216,0 0.5886,-0.83789 0.7167,-4.10101 0.16463,-4.19366 0.87085,-8.10664 1.46311,-8.10664 0.18201,0 0.33093,-0.94418 0.33093,-2.09819 0,-1.154 0.1599,-2.09819 0.35532,-2.09819 0.19542,0 0.36269,-1.55428 0.37168,-3.45396 0.009,-1.89968 0.10524,-3.59776 0.21386,-3.7735 0.16863,-0.27285 1.12657,-7.77108 2.51266,-19.66751 0.19557,-1.67855 0.35689,-4.55941 0.35848,-6.40191 0.002,-2.62397 0.12691,-3.3976 0.57513,-3.56959 0.37305,-0.14316 0.57223,-0.73653 0.57223,-1.70473 0,-1.0658 0.16158,-1.48514 0.57224,-1.48514 0.31472,0 0.57223,-0.17167 0.57223,-0.38149 0,-0.20982 -0.25751,-0.38149 -0.57223,-0.38149 -0.44997,0 -0.57224,-0.52985 -0.57224,-2.47968 0,-1.36382 -0.15306,-2.47968 -0.34013,-2.47968 -0.18707,0 -0.44785,-0.42917 -0.5795,-0.95372 -0.13166,-0.52455 -0.40777,-0.95372 -0.61359,-0.95372 -0.20583,0 -0.37422,-0.42918 -0.37422,-0.95372 0,-0.59343 -0.21618,-0.95373 -0.57224,-0.95373 -0.31473,0 -0.57223,-0.2575 -0.57223,-0.57223 0,-0.33935 -0.34933,-0.57189 -0.85835,-0.5714 -0.84142,8.2e-4 -0.85596,-0.075 -0.73704,-3.84284 l 0.12131,-3.84365 1.88959,1.76748 c 2.6663,2.49401 4.07067,3.01644 8.16799,3.03851 3.26062,0.0176 3.5993,-0.0612 6.72996,-1.56535 8.30947,-3.99233 12.41904,-11.77159 9.84441,-18.63507 -0.67405,-1.79688 -1.48172,-2.91153 -3.75714,-5.18511 -2.36695,-2.36504 -3.63262,-3.26239 -6.90147,-4.8931 -2.20164,-1.09831 -4.04079,-2.03475 -4.08702,-2.08098 -0.0462,-0.0462 0.18749,-0.9344 0.51938,-1.9737 0.95309,-2.98463 0.85164,-8.991957 -0.1972,-11.675809 -1.07326,-2.74632 -3.11023,-5.417277 -5.07952,-6.660435 -4.8381,-3.054155 -12.1596,-2.702541 -19.97362,0.959235 -3.47187,1.626967 -4.04505,1.445988 -2.23464,-0.705568 2.24142,-2.663777 12.70225,-6.447553 24.32051,-8.796942 4.18601,-0.846482 5.28681,-0.920063 6.25775,-0.41831 0.36434,0.18828 1.43494,0.657332 2.37913,1.042339 0.94418,0.38501 1.94355,0.917641 2.22081,1.18363 0.27726,0.265993 0.74935,0.483618 1.04909,0.483618 0.29975,0 0.54499,0.17167 0.54499,0.381489 0,0.209819 0.68668,0.381489 1.52595,0.381489 0.83928,0 1.52596,0.1684 1.52596,0.374221 0,0.205817 0.42917,0.481935 0.95372,0.613591 0.52455,0.131652 0.95372,0.392426 0.95372,0.579501 0,0.187071 0.42918,0.340132 0.95373,0.340132 0.52454,0 0.95372,0.183931 0.95372,0.408738 0,0.727996 1.06498,1.498707 2.07094,1.498707 0.61764,0 0.98097,0.21194 0.98097,0.572233 0,0.314729 0.25751,0.572234 0.57223,0.572234 0.31473,0 0.57224,0.1684 0.57224,0.374221 0,0.205817 0.42917,0.481935 0.95372,0.613591 0.52455,0.131652 0.95372,0.392426 0.95372,0.579501 0,0.187071 0.42918,0.340132 0.95373,0.340132 0.59342,0 0.95372,0.216178 0.95372,0.572233 0,0.314729 0.2575,0.572234 0.57223,0.572234 0.31473,0 0.57223,0.17167 0.57223,0.381489 0,0.209819 0.42918,0.381489 0.95373,0.381489 0.59343,0 0.95372,0.216178 0.95372,0.572233 0,0.314729 0.25751,0.572234 0.57223,0.572234 0.31473,0 0.57224,0.1684 0.57224,0.374221 0,0.205817 0.42917,0.481935 0.95372,0.613591 0.52455,0.131652 0.95372,0.373817 0.95372,0.538144 0,0.164326 0.42918,0.406492 0.95372,0.538143 0.52455,0.131656 0.95373,0.40777 0.95373,0.613591 0,0.205825 0.18487,0.374222 0.41083,0.374222 0.53393,0 2.64108,2.107158 2.64108,2.641079 0,0.225956 0.18393,0.410833 0.40874,0.410833 0.52817,0 1.4987,0.970542 1.4987,1.498706 0,0.224808 0.18394,0.408739 0.40874,0.408739 0.45949,0 1.49871,0.944452 1.49871,1.362034 0,0.149635 0.51501,0.764237 1.14447,1.365777 0.62945,0.60154 1.14446,1.34973 1.14446,1.66263 0,0.3129 0.17167,0.56892 0.38149,0.56892 0.20982,0 0.38149,0.2575 0.38149,0.57223 0,0.31473 0.18488,0.57223 0.41083,0.57223 0.44117,0 2.64108,2.06549 2.64108,2.47968 0,0.4142 2.19993,2.47968 2.64108,2.47968 0.22595,0 0.41084,0.18393 0.41084,0.40874 0,0.52816 0.97054,1.4987 1.4987,1.4987 0.2248,0 0.40874,0.42918 0.40874,0.95373 0,0.59343 0.21618,0.95372 0.57223,0.95372 0.31473,0 0.57224,0.2575 0.57224,0.57223 0,0.31473 0.18393,0.57224 0.40874,0.57224 0.52817,0 1.4987,0.97054 1.4987,1.4987 0,0.22481 0.17167,0.40874 0.38149,0.40874 0.20982,0 0.38149,0.22659 0.38149,0.50353 0,0.27693 0.51501,1.08037 1.14447,1.78541 0.62945,0.70503 1.14446,1.5943 1.14446,1.97615 0,0.38185 0.15307,0.69427 0.34014,0.69427 0.18707,0 0.44784,0.42917 0.5795,0.95372 0.13165,0.52455 0.40777,0.95372 0.61359,0.95372 0.20582,0 0.37422,0.25751 0.37422,0.57224 0,0.31473 0.1601,0.57223 0.35578,0.57223 0.19568,0 0.47826,0.38626 0.62796,0.85835 0.14972,0.47209 0.67629,1.4987 1.17018,2.28135 0.49388,0.78266 0.89799,1.75545 0.89799,2.16177 0,0.40633 0.13642,0.796 0.30315,0.86594 0.57021,0.23919 2.74876,4.86288 2.74876,5.83387 0,0.53314 0.17445,0.96935 0.38766,0.96935 0.21322,0 0.68531,0.64376 1.0491,1.43058 0.36379,0.78682 0.74727,1.51642 0.85218,1.62133 0.31353,0.31353 2.68174,5.12639 2.67586,5.43809 -0.003,0.15839 0.42374,1.17762 0.94828,2.26496 0.52455,1.08733 0.95373,2.26981 0.95373,2.62773 0,0.35792 0.2575,0.74958 0.57223,0.87036 0.33852,0.1299 0.57223,0.70302 0.57223,1.40327 0,0.65103 0.25751,1.4412 0.57224,1.75593 0.31472,0.31473 0.57223,0.98914 0.57223,1.4987 0,0.50956 0.17167,0.92648 0.38149,0.92648 0.20982,0 0.38149,0.51501 0.38149,1.14446 0,0.62946 0.1684,1.14447 0.37422,1.14447 0.20582,0 0.48193,0.42917 0.61359,0.95372 0.13165,0.52455 0.3904,0.95372 0.57499,0.95372 0.18458,0 0.44543,0.68668 0.57964,1.52596 0.13421,0.83928 0.39373,1.52596 0.57674,1.52596 0.183,0 0.33273,0.44143 0.33273,0.98097 0,0.53953 0.21459,1.22026 0.47686,1.51271 1.21759,1.35773 1.43058,1.72244 1.43058,2.44957 0,0.43819 0.25039,0.77908 0.57224,0.77908 0.31473,0 0.57223,0.26977 0.57223,0.59948 0,0.32971 0.21459,0.83877 0.47686,1.13123 1.13208,1.26238 1.43059,1.6939 1.43059,2.06808 0,0.21868 0.2575,0.39759 0.57223,0.39759 0.31473,0 0.57223,0.1949 0.57223,0.43312 0,0.23822 0.42918,0.83086 0.95373,1.31699 0.52454,0.48613 0.95372,1.14958 0.95372,1.47433 0,0.32475 0.15758,0.59045 0.35017,0.59045 0.41493,0 1.8011,6.086 2.12879,9.34648 0.31025,3.0869 -0.36773,7.44374 -1.50871,9.69534 -1.91003,3.76928 -4.52418,5.44404 -8.87333,5.68471 -5.12051,0.28337 -10.37767,-2.05192 -15.62791,-6.94211 -1.5502,-1.44388 -2.887,-2.55678 -2.97067,-2.47311 -0.0837,0.0837 0.10789,1.95172 0.4257,4.1512 0.71595,4.95505 0.49203,13.52978 -0.44816,17.16043 -2.93867,11.34805 -11.48178,17.2743 -20.97126,14.54748 l 0,0 z"
       id="path3309"
       inkscape:connector-curvature="0" />
    <path
       style="fill:#592300;fill-opacity:1;stroke:#321b09;stroke-width:0;stroke-linecap:round;stroke-linejoin:round;stroke-miterlimit:4;stroke-opacity:1;stroke-dasharray:none"
       d="m 165.4978,184.94846 c -6.32072,-2.10467 -10.82732,-6.33926 -14.14563,-13.2918 -0.83441,-1.74826 -1.61512,-3.17866 -1.7349,-3.17866 -0.11979,0 -2.82663,2.5466 -6.01523,5.65911 -8.99812,8.78341 -13.88509,11.17924 -19.42044,9.52081 -2.34307,-0.70201 -5.52028,-3.88599 -7.39642,-7.41219 -0.87931,-1.65264 -2.28828,-5.07489 -3.13108,-7.60498 -1.51652,-4.55266 -1.52646,-4.6196 -0.96178,-6.48246 0.31383,-1.03526 0.72083,-2.82649 0.90447,-3.98049 0.18363,-1.154 0.60015,-3.15343 0.92557,-4.44316 0.69507,-2.75469 1.24823,-6.08749 1.7423,-10.49738 0.19596,-1.7491 0.89264,-7.30027 1.54816,-12.33592 1.59399,-12.2449 1.86232,-20.41321 0.83416,-25.39206 -0.41425,-2.00595 -1.20083,-4.76614 -1.74796,-6.13376 -0.83207,-2.0798 -0.99479,-3.09006 -0.99479,-6.17573 l 0,-3.68916 1.6061,1.55866 c 2.77709,2.69507 4.13915,3.2091 8.50336,3.2091 3.68524,0 3.91862,-0.0517 6.8668,-1.52264 3.86461,-1.9281 7.61229,-5.5162 9.16796,-8.77756 1.5332,-3.2143 1.58796,-7.43282 0.13616,-10.49095 -1.80203,-3.79584 -6.09302,-7.46645 -11.80454,-10.09787 -1.35241,-0.62309 -2.51201,-1.16257 -2.57688,-1.19884 -0.0649,-0.0363 0.16307,-1.03264 0.50655,-2.21416 0.81645,-2.80853 0.81664,-8.589915 3.4e-4,-10.891922 -2.5088,-7.074928 -8.10484,-10.322173 -15.83938,-9.191234 -3.08259,0.450741 -7.26113,1.707213 -9.46145,2.84505 -0.66822,0.345541 -1.64527,0.791879 -2.17124,0.991852 -1.47288,0.559991 -1.23683,-0.592887 0.43493,-2.124165 2.84658,-2.607355 12.36118,-5.990762 22.94225,-8.158295 l 5.78628,-1.185321 5.06364,1.754796 c 12.87034,4.46016 23.63262,11.263143 33.48461,21.166051 9.22908,9.276798 15.00209,17.783988 22.77637,33.563618 3.04952,6.18966 5.69581,11.31115 5.88068,11.38109 0.18485,0.0699 0.33611,0.46896 0.33611,0.88671 0,1.09718 8.55911,17.87538 12.36491,24.23863 3.24426,5.42433 4.58126,8.78074 5.51713,13.85012 1.50633,8.1595 0.26649,14.27238 -3.50681,17.28979 -5.38332,4.30493 -12.98643,2.8625 -21.10692,-4.00428 -1.99097,-1.68358 -3.6694,-3.00109 -3.72986,-2.92781 -0.0605,0.0733 0.13515,1.93578 0.43469,4.13888 0.72901,5.36171 0.44959,13.26072 -0.6113,17.28164 -1.68131,6.37242 -5.25333,11.17854 -9.93869,13.37245 -3.22074,1.5081 -8.13162,1.80547 -11.46823,0.69444 l 0,0 z"
       id="path3311"
       inkscape:connector-curvature="0" />
    <path
       sodipodi:type="arc"
       style="opacity:0.98000004;fill:#ffffff;fill-opacity:1;stroke:#020202;stroke-width:0.89679456;stroke-linecap:round;stroke-linejoin:round;stroke-miterlimit:4;stroke-opacity:1;stroke-dasharray:none"
       id="path3299"
       sodipodi:cx="186.16663"
       sodipodi:cy="96.81601"
       sodipodi:rx="11.826159"
       sodipodi:ry="11.826159"
       d="m 197.99278,96.81601 a 11.826159,11.826159 0 1 1 -23.65231,0 11.826159,11.826159 0 1 1 23.65231,0 z"
       transform="matrix(2.2263346,0,0,2.2340024,-295.25234,-159.10213)" />
    <path
       sodipodi:type="arc"
       style="opacity:0.98000004;fill:#000000;fill-opacity:1;stroke:#ffffff;stroke-width:0;stroke-linecap:round;stroke-linejoin:round;stroke-miterlimit:4;stroke-opacity:1;stroke-dasharray:none"
       id="path3303"
       sodipodi:cx="186.54813"
       sodipodi:cy="97.388237"
       sodipodi:rx="3.4334011"
       sodipodi:ry="2.8611674"
       d="m 189.98153,97.388237 a 3.4334011,2.8611674 0 1 1 -6.8668,0 3.4334011,2.8611674 0 1 1 6.8668,0 z"
       transform="matrix(2.7418229,0,0,3.4078119,-386.78049,-277.67469)" />
    <path
       sodipodi:type="arc"
       style="opacity:0.98000004;fill:#ffffff;fill-opacity:1;stroke:#ffffff;stroke-width:0;stroke-linecap:round;stroke-linejoin:round;stroke-miterlimit:4;stroke-opacity:1;stroke-dasharray:none"
       id="path3305"
       sodipodi:cx="190.55376"
       sodipodi:cy="91.856651"
       sodipodi:rx="4.3871236"
       sodipodi:ry="4.577868"
       d="m 194.94088,91.856651 a 4.3871236,4.577868 0 1 1 -8.77425,0 4.3871236,4.577868 0 1 1 8.77425,0 z"
       transform="matrix(1.243956,0,0,1.2558326,-109.28742,-64.80775)" />
    <path
       style="fill:#592300;fill-opacity:1;fill-rule:evenodd;stroke:#592300;stroke-width:1px;stroke-linecap:butt;stroke-linejoin:miter;stroke-opacity:1"
       d="m 215.64604,228.05776 c -2.74134,24.9738 9.24153,74.90898 64.47164,51.11952 26.78279,26.20633 43.81084,9.12966 53.78995,-1.90744 30.76915,21.24128 52.49789,5.22157 47.30464,-16.40403 27.20796,10.14697 31.24848,-16.92268 25.94125,-32.42656 7.38294,6.14244 31.38311,-24.29633 -1.52595,-37.00444 0.2653,-16.1117 -27.07682,-28.7654 -41.58231,-4.19638 32.07127,-11.73617 40.22411,29.7592 9.50853,36.4028 13.96704,7.99254 -5.51872,52.18465 -45.11863,25.24924 -10.96007,26.99172 -45.47144,26.99966 -55.63913,5.29566 -34.38066,15.3275 -49.91907,0.41791 -57.14999,-26.12837 z"
       id="path3377-4"
       sodipodi:nodetypes="ccccccccccc"
       inkscape:connector-curvature="0" />
    <path
       style="fill:#592300;fill-opacity:1;stroke:#592300;stroke-width:0;stroke-linecap:round;stroke-linejoin:round;stroke-miterlimit:4;stroke-opacity:1;stroke-dasharray:none"
       d="m 430.34013,263.62136 c 0.12677,-0.31473 0.92664,-2.15843 1.77751,-4.09711 2.11914,-4.82853 4.02242,-10.71002 5.25727,-16.24611 0.93728,-4.20198 1.03757,-5.38913 1.05313,-12.46483 0.0192,-8.73771 -0.28901,-10.52692 -2.6721,-15.51389 -1.39522,-2.91968 -4.33386,-6.44384 -6.47848,-7.76929 l -1.30992,-0.80959 2.19093,-2.44682 c 2.91316,-3.25345 4.87184,-6.56604 6.00689,-10.15905 3.80264,-12.0375 -1.41765,-22.88781 -12.74818,-26.497 -0.96227,-0.30649 -3.58577,-0.65703 -5.83007,-0.77895 l -4.08052,-0.22167 0.89963,-1.77531 c 3.10932,-6.13605 3.02387,-13.98072 -0.22241,-20.40616 -3.3074,-6.54653 -9.03561,-11.1921 -16.06275,-13.02694 -4.63478,-1.21017 -11.50334,-0.43149 -16.76484,1.90064 -0.57723,0.25584 -0.56834,0.0628 0.0954,-2.06967 1.40423,-4.51187 0.65445,-10.17719 -1.86742,-14.11003 -4.10681,-6.40447 -12.42315,-10.4157 -19.05938,-9.19292 -6.32608,1.16562 -10.59144,5.324 -13.14398,12.81431 -1.25166,3.67308 -1.21649,4.6047 -0.49082,-12.97777 0.57322,-13.88852 0.67157,-15.49802 1.38648,-22.68869 1.98237,-19.93905 6.8995,-33.550243 15.07282,-41.723595 4.45808,-4.45805 9.01024,-7.05728 15.56597,-8.887973 4.65062,-1.298673 15.41941,-1.731163 18.40593,-0.739204 3.42524,1.137681 6.64154,5.532049 7.22571,9.872402 0.13482,1.001347 0.3853,1.907296 0.55667,2.013209 0.17136,0.105912 1.65085,-0.17206 3.28775,-0.617715 3.71807,-1.012293 11.53203,-1.415786 14.6953,-0.758843 5.002,1.038822 9.62451,4.526798 12.25865,9.249956 2.31087,4.143483 3.09956,7.139673 4.67213,17.748313 l 0.18163,1.22537 1.22527,-0.75486 c 3.39933,-2.09425 8.8312,-2.81487 12.30245,-1.63209 2.26345,0.77123 5.00505,3.39293 6.18527,5.91477 2.47868,5.29624 1.67214,12.32116 -1.82875,15.9286 -0.83015,0.85541 -1.50936,1.69464 -1.50936,1.86497 0,0.17032 0.51139,0.79962 1.13642,1.39844 1.6198,1.55187 4.55795,6.04565 5.45804,8.34789 0.46114,1.17951 0.7819,2.94747 0.80544,4.4397 0.0539,3.41456 -1.15527,5.71573 -5.51256,10.49095 -1.91454,2.09819 -3.9293,4.57527 -4.47723,5.50463 l -0.99614,1.68973 1.10052,0.78994 c 3.90091,2.79975 5.61964,5.23765 6.28694,8.9177 0.75363,4.15598 -0.34033,7.99234 -4.38747,15.38651 -1.41964,2.59376 -3.32823,6.10668 -4.24128,7.80649 -1.70018,3.1653 -3.18395,6.98698 -3.18395,8.2009 0,0.3746 1.76809,2.45067 3.92911,4.61351 5.83808,5.84306 8.67502,10.36453 9.49187,15.12795 0.86224,5.02835 -0.70148,8.8548 -6.84998,16.76183 -5.77887,7.43166 -7.24768,9.81315 -8.35762,13.55066 -0.4882,1.64393 -0.50204,3.05433 -0.1014,10.3355 0.49299,8.95947 0.30336,15.83184 -0.53416,19.36046 -0.84828,3.57373 -2.17411,5.36324 -6.27409,8.46819 -2.03959,1.54464 -5.06934,4.24988 -6.73263,6.01162 -1.66333,1.76174 -2.92045,2.94567 -2.79364,2.63094 l 3e-5,0 z"
       id="path3385"
       inkscape:connector-curvature="0" />
  </g>
  <g
     style="display:inline"
     transform="translate(-169.70945,-261.08105)"
     id="g8319"
     inkscape:groupmode="layer"
     inkscape:label="Camouflage">
    <g
       id="g8872">
      <path
         style="fill:none;stroke:none"
         d="m 287.52195,391.9873 c -0.65552,5.03565 -1.36654,10.59465 -1.5625,12.34375 -0.49407,4.40989 -1.02368,7.74531 -1.71875,10.5 -0.32542,1.28973 -0.75387,3.2835 -0.9375,4.4375 -0.18364,1.154 -0.59242,2.93349 -0.90625,3.96875 -5.93205,29.20047 -22.62952,94.31926 -10.33992,128.33188 12.13918,33.59633 58.96458,70.25391 137.77742,83.69937 91.52855,-52.10398 60.32279,-133.34088 49.65625,-213.375 L 384.39695,396.8623 c -0.92385,-3.42781 -2.29606,-6.37606 -4.78125,-10.53125 -54.69675,5.15985 -63.35324,2.99559 -92.09375,5.65625 z"
         id="path8321"
         inkscape:connector-curvature="0"
         sodipodi:nodetypes="cssscsccccc" />
      <path
         style="fill:none;stroke:none;display:inline"
         d="m 287.52195,391.9873 c -0.65552,5.03565 -1.36654,10.59465 -1.5625,12.34375 -0.49407,4.40989 -1.02368,7.74531 -1.71875,10.5 -0.32542,1.28973 -0.75387,3.2835 -0.9375,4.4375 -0.18364,1.154 -0.59242,2.93349 -0.90625,3.96875 -5.93205,29.20047 -22.62952,94.31926 -10.33992,128.33188 12.13918,33.59633 58.96458,70.25391 137.77742,83.69937 91.52855,-52.10398 60.32279,-133.34088 49.65625,-213.375 L 384.39695,396.8623 c -0.92385,-3.42781 -2.29606,-6.37606 -4.78125,-10.53125 -54.69675,5.15985 -63.35324,2.99559 -92.09375,5.65625 z"
         id="path8323"
         inkscape:connector-curvature="0"
         sodipodi:nodetypes="cssscsccccc" />
      <path
         id="path8327"
         d="m 379.6157,386.33105 c -54.69675,5.15985 -63.35324,2.99559 -92.09375,5.65625 -0.65552,5.03565 -1.36654,10.59465 -1.5625,12.34375 -0.49407,4.40989 -1.02368,7.74531 -1.71875,10.5 -0.32542,1.28973 -0.75387,3.2835 -0.9375,4.4375 -0.18364,1.154 -0.59242,2.93349 -0.90625,3.96875 -5.93205,29.20047 -22.63335,94.33113 -10.34375,128.34375 12.13918,33.59633 58.96841,70.24204 137.78125,83.6875 91.52855,-52.10398 60.32279,-133.34088 49.65625,-213.375 L 384.39695,396.8623 c -0.92385,-3.42781 -2.29606,-6.37606 -4.78125,-10.53125 z"
         style="fill:#344a33"
         inkscape:connector-curvature="0" />
      <path
         id="path8331"
         d="m 455.9907,526.5498 c -9.69965,0.3677 -19.5905,12.2446 -5.65625,14.625 7.40132,0.535 15.08702,-0.58115 22.53125,-0.21875 0.32876,-4.38127 0.45115,-8.80507 0.4375,-13.28125 -3.64461,0.26953 -7.29573,0.52767 -10.9375,0.71875 -1.92482,-1.40131 -4.13662,-1.9286 -6.375,-1.84375 z"
         style="fill:#463a28;fill-opacity:1"
         inkscape:connector-curvature="0" />
      <path
         id="path8335"
         d="m 356.27195,483.95605 c -0.51432,0.0132 -0.98924,0.0644 -1.4375,0.15625 -12.17041,-0.1942 -24.90928,3.41435 -36.96875,0.21875 -10.93025,-1.14627 -17.50092,11.21571 -29.21875,7.0625 -5.37715,2.6127 -15.08676,2.05212 -18.84375,-1.28125 -2.88669,22.72001 -3.51335,45.51813 2.25,61.46875 1.92732,5.33405 4.74102,10.74177 8.40625,16.125 5.25974,-0.46125 10.90486,-1.81777 15.46875,-1.3125 3.25209,6.34223 -8.1901,4.71142 -12.5625,5.3125 2.45622,3.21675 5.23913,6.40743 8.3125,9.5625 1.24763,-0.19945 2.45891,-0.58617 3.5,-1.25 7.18767,-2.40028 27.74114,7.0343 22.15625,-3.4375 -8.50124,-11.60003 12.38842,-5.3031 17.125,-12.6875 12.58104,-10.06166 -12.2981,-9.60134 -11.25,-19.6875 3.28282,-10.95454 19.95357,-2.80726 29.3125,-4.9375 8.29868,-2.07984 27.59428,0.46351 26.9375,-9.40625 -9.71657,-1.15691 -25.48547,-11.53182 -10.625,-18.5625 10.29499,-3.14981 22.00093,-0.85612 31.90625,-5.8125 9.63489,0.3172 20.16574,-12.10777 5.15625,-12.21875 -10.04276,2.67309 -21.7878,0.71336 -30.4375,6.46875 -6.88632,8.74477 -16.72373,5.31871 -25.9375,1.53125 -5.62297,0.16878 -21.33487,2.35731 -12.625,-5.78125 9.0653,-3.70561 19.85432,-0.60831 29.875,-0.40625 11.30679,-3.11551 -2.78524,-11.32291 -10.5,-11.125 z"
         style="fill:#463a28;fill-opacity:1"
         inkscape:connector-curvature="0" />
      <path
         id="path8337"
         d="m 354.4907,388.45605 c -4.8235,0.3508 -9.16578,0.61941 -13.125,0.84375 1.08361,3.37988 2.06874,7.30201 2.90625,11.75 9.80155,3.56325 21.60633,1.36507 32.03125,0.75 7.65719,-1.42219 17.52649,2.229 24.96875,0.6875 l -16.875,-5.625 c -0.0334,-0.12396 -0.0591,-0.25221 -0.0937,-0.375 -3.0982,0.3912 -6.04237,0.55803 -8.46875,0.0313 -7.20872,-2.50338 -14.30368,-5.24457 -21.34375,-8.0625 z m -10.21875,12.59375 c -1.99554,-0.72546 -3.91727,-1.67032 -5.71875,-2.9375 -5.68788,-2.67661 -23.64741,-1.42735 -22.6875,-7.75 -8.99235,0.28987 -17.16554,0.59017 -28.34375,1.625 -0.65552,5.03565 -1.36654,10.59465 -1.5625,12.34375 -0.49407,4.40989 -1.02368,7.74531 -1.71875,10.5 -0.32542,1.28973 -0.75387,3.2835 -0.9375,4.4375 -0.18364,1.154 -0.59242,2.93349 -0.90625,3.96875 -1.90348,9.36984 -4.91176,22.448 -7.71875,37 3.91669,1.20571 7.86986,1.90095 12.03125,0.71875 6.56068,-5.79285 16.32452,-6.93484 25.46875,-7.21875 10.21772,-0.11559 17.99812,-6.58299 28.40625,-5.9375 17.43408,-1.15921 34.93948,-0.0404 52.34375,-1.03125 10.91424,-1.46209 21.86197,-2.71609 32.875,-3.375 11.69024,-1.60311 23.64983,-6.41665 35.5625,-3.21875 0.34426,0.36895 0.67687,0.71472 1.03125,1.03125 -1.04848,-6.43352 -2.04879,-12.87876 -2.90625,-19.3125 L 409.52195,405.2373 c -1.63832,7.56465 -3.3682,16.50003 -5.28125,27.125 l -56.96875,0 c -0.36756,-12.8004 -1.44207,-23.0384 -3,-31.3125 z"
         style="fill:#463a28;fill-opacity:1"
         inkscape:connector-curvature="0" />
      <path
         id="path8351"
         d="m 270.58445,503.39355 -1.90625,0.90625 c -0.10482,-0.004 -0.23689,0.004 -0.34375,0 -0.19533,2.49793 -0.35665,4.98313 -0.46875,7.4375 3.50823,-2.43712 8.4794,-5.12963 2.71875,-8.34375 z m -2.90625,13.59375 c -0.0306,1.62575 -0.0464,3.22001 -0.0313,4.8125 0.89284,-1.23183 1.30825,-2.6814 0.84375,-4.53125 -0.29174,-0.10004 -0.56322,-0.18128 -0.8125,-0.28125 z"
         style="fill:#758949;fill-opacity:1"
         inkscape:connector-curvature="0" />
      <path
         id="path8353"
         d="m 410.14695,526.2373 c -11.93088,6.0786 9.71999,18.04736 -3.0625,21.34375 -6.68873,6.66307 -16.9461,11.13718 -25.78125,4.875 -8.3881,-2.33369 -12.90438,12.96254 -4.375,5.5 7.69434,-3.29547 13.25308,7.8913 2.5,6.28125 -13.95753,4.26418 5.07195,9.56135 11.0625,5.25 13.26431,-2.24306 9.25206,9.99653 6.71875,15.8125 8.6933,-0.83971 14.96676,-11.21671 25.0625,-13.125 9.24633,0.34217 -7.76352,-4.59911 -9.4375,-4.625 -3.83585,-4.35944 -14.76993,-5.00871 -5.4375,-9.8125 7.04141,-7.4755 19.40234,-11.91407 30.28125,-9.8125 12.88184,4.75478 12.52603,19.33758 2.03125,25.96875 -6.38573,8.7836 7.87921,5.8903 10.375,0.0937 3.9352,-4.41585 7.64016,-5.34583 8.65625,0.84375 1.87018,2.0629 4.8912,1.08906 6.75,0.46875 3.42016,-8.89477 5.52836,-18.11266 6.6875,-27.59375 -6.5668,0.84032 -13.21436,3.33772 -18.5,4.09375 -5.19468,-7.99245 -12.25141,-14.59063 -23.8125,-13.375 -8.92291,-1.19482 -16.26925,-5.57206 -19.71875,-12.1875 z"
         style="fill:#758949;fill-opacity:1"
         inkscape:connector-curvature="0" />
      <path
         id="path8355"
         d="m 303.8657,390.83105 c -3.71405,0.18434 -7.58513,0.43278 -11.875,0.78125 -1.78828,1.80845 -3.16743,3.81396 -3.40625,6.21875 -7.67888,9.44113 9.90174,19.85346 17.90625,11.96875 8.08564,-9.27929 -17.34699,-6.50775 -7.0625,-14.84375 1.32764,-1.5831 2.82738,-2.94381 4.4375,-4.125 z"
         style="fill:#758949;fill-opacity:1"
         inkscape:connector-curvature="0" />
      <path
         id="path8357"
         d="m 400.0532,403.9873 c -0.81355,-0.003 -2.13003,0.2576 -4.09375,0.90625 -10.99371,2.90845 -22.43638,2.44609 -33.71875,1.34375 -10.17467,-0.95669 -20.58537,-0.81879 -30.40625,1.78125 -2.12766,0.29084 -4.32012,0.46798 -6.46875,0.21875 -12.84872,0.22102 4.96602,10.09352 10.5625,8.78125 12.92433,2.38086 25.36562,-5.43831 38.21875,-2.15625 9.6669,11.17463 -11.14178,13.16133 -19.40625,15.03125 -9.58411,3.20437 -11.32209,13.92913 0.65625,14.46875 0.25057,4.98412 -16.38816,0.55449 -22.5625,3.4375 -18.58779,2.22928 -37.46213,3.30051 -56.25,2.90625 -0.89276,4.34125 -1.78683,8.89723 -2.65625,13.5625 3.39162,1.20121 6.66932,2.57092 9.84375,3.96875 10.85628,3.99924 23.07527,6.47507 34.90625,4.46875 11.8801,1.95361 21.44997,-13.52185 32.75,-6.28125 -2.27115,14.30364 27.86286,-0.49126 24.5,15.78125 -0.75337,12.61082 -21.93609,10.90587 -24.78125,21.84375 -0.17771,11.88811 17.53317,15.2764 28.6875,15.09375 11.10796,-3.0971 2.62137,-15.97923 13.375,-20.71875 7.00057,-5.37393 15.40481,-10.03009 24.59375,-12.09375 12.28465,-0.9516 20.10218,12.84298 32.75,8.46875 6.52536,1.31181 12.20015,-0.79605 5.03125,-5.28125 -6.85321,-10.03715 -20.25887,-12.51133 -32.59375,-13.8125 -7.36594,0.4291 -27.62836,-7.08797 -12.46875,-11.40625 12.41547,-2.64997 23.56646,4.22137 34.25,8.21875 13.96084,1.3955 7.81872,-13.02485 6.71875,-19.46875 -5.25705,-10.69189 -20.37242,-7.00917 -30.96875,-6.5625 -5.65885,1.50647 -16.0845,-2.0749 -6.6875,-5.75 3.88056,-9.33246 -21.47968,-5.07383 -13.5,-14.25 9.37769,-6.60666 22.78354,-8.56928 34.625,-6.9375 8.97921,3.08694 -13.74299,12.54004 1.09375,11.78125 8.08359,-1.27382 16.28764,-2.26145 24.46875,-2.25 -0.17165,-1.16801 -0.33571,-2.33221 -0.5,-3.5 -7.91698,0.6619 -15.42108,-0.49576 -20.25,-7.3125 -11.4198,-5.14319 -25.12495,0.70057 -36.90625,-3.15625 -7.92593,-2.85117 1.58067,-11.10782 -2.8125,-11.125 z"
         style="fill:#758949;fill-opacity:1"
         inkscape:connector-curvature="0" />
      <path
         id="path8363"
         d="m 341.20945,564.45605 c -11.61723,0.0866 -22.2679,6.70654 -31.84375,11.6875 -3.87459,3.58194 -9.19647,6.71118 -14.71875,8.09375 23.20113,22.21461 61.85712,41.9331 115.1875,51.03125 1.37653,-0.78361 2.70976,-1.57832 4.03125,-2.375 -9.58872,1.09338 -19.4052,-0.3747 -26.84375,-6.0625 -9.74748,-2.28191 -18.90374,-11.58269 -6.4375,-15.9375 -2.46708,-12.60157 -19.52138,-3.85716 -28.90625,-6.84375 -9.51732,-1.42417 -28.9261,-10.78534 -12.9375,-17.46875 5.07215,-4.4288 19.69193,7.60727 15.15625,-2.625 -2.25515,-7.61976 -20.54649,1.19413 -17.1875,-6.9375 6.48673,-6.12716 20.35208,7.82545 22.3125,-0.4375 -2.53111,-3.52852 -20.23137,-4.99842 -13.5625,-8.40625 2.43783,0.0287 6.45742,-1.061 2.3125,-3.03125 -2.21821,-0.48233 -4.41116,-0.70354 -6.5625,-0.6875 z"
         style="fill:#758949;fill-opacity:1"
         inkscape:connector-curvature="0" />
      <path
         inkscape:connector-curvature="0"
         id="path8381"
         d="m 305.66333,471.83166 c -1.31302,0.85866 -0.74123,1.52589 0,0 z"
         style="opacity:0.6;fill:#17181f;fill-opacity:1" />
      <path
         inkscape:connector-curvature="0"
         id="path8383"
         d="m 521.37781,451.34167 c 0.96917,0.0467 0.27872,-0.30888 0,0 z"
         style="fill:#17181f;fill-opacity:1" />
      <path
         inkscape:connector-curvature="0"
         id="path8385"
         d="m 595.37,534.84693 c 1.41844,-0.40182 -0.47134,-1.03576 0,0 z"
         style="fill:#17181f;fill-opacity:1" />
      <path
         inkscape:connector-curvature="0"
         id="path8387"
         d="m 258.61261,639.26111 0.12032,0 -0.12032,0 0,0 z"
         style="fill:#17181f;fill-opacity:1" />
      <path
         id="path8393"
         d="m 267.6782,518.9873 c -0.0254,3.38929 0.027,6.72002 0.21875,9.9375 4.06476,-3.79945 6.79349,-8.40656 -0.21875,-9.9375 z m 8.125,11.46875 c -1.93187,-0.0642 -4.80723,1.84943 -7.46875,3.65625 0.33377,3.19075 0.78932,6.23715 1.40625,9.15625 3.37162,-4.79209 13.37374,-8.56287 6.53125,-12.75 -0.14697,-0.0342 -0.30787,-0.0571 -0.46875,-0.0625 z m -4.09375,20.125 c 0.11276,0.33249 0.22567,0.6732 0.34375,1 1.17559,3.25355 2.70751,6.52539 4.53125,9.8125 4.423,-2.22303 -0.36404,-6.83539 -4.875,-10.8125 z m 18.09375,13.21875 c -2.70234,0.0799 -7.23213,1.28976 -9.75,2.375 -0.3381,-1.0436 -1.05069,-1.63932 -1.90625,-2.03125 1.38845,2.27972 2.9276,4.54243 4.625,6.8125 0.47143,-1.26565 2.16503,-2.27001 5.78125,-2.75 4.81882,-3.43789 3.95234,-4.48613 1.25,-4.40625 z"
         style="fill:#979674;fill-opacity:1"
         inkscape:connector-curvature="0" />
      <path
         id="path8395"
         d="m 311.95945,456.9873 c -2.98644,0.11976 -4.97837,2.11494 -7.15625,3.53125 -8.18388,3.09432 -11.13542,13.95052 -12.78125,17.375 1.63866,-5.67772 -4.32346,-10.5027 -6.21875,-2.5625 4.33037,6.77959 -5.21664,15.34599 -8.25,5.15625 -12.40774,0.13086 10.7867,11.36918 -2.875,13.59375 2.13217,4.31455 -1.45795,6.78382 -6.15625,7.90625 -0.11505,1.3191 -0.21878,2.62758 -0.3125,3.9375 5.61288,-1.8071 10.90617,-4.20937 12.90625,1.71875 -4.58149,8.51033 8.34479,5.35014 10.90625,0.40625 9.15747,-3.29594 9.10274,-14.37111 19.9375,-16.28125 4.85856,-4.89905 8.57629,-20.97287 -1.5625,-21.875 -11.65271,4.37701 14.00556,-10.40517 1.5625,-12.90625 z"
         style="fill:#979674;fill-opacity:1"
         inkscape:connector-curvature="0" />
      <path
         id="path8397"
         d="m 455.64695,449.64355 c -0.57127,0.0138 -1.19579,0.0934 -1.90625,0.25 -3.60128,0.068 -5.8812,2.83701 -6.84375,5.4375 0.29307,9.36715 5.40138,21.34032 17.90625,24 1.11822,2.43512 2.77711,4.26911 4.78125,5.5 -0.71907,-4.89316 -1.52582,-9.8115 -2.34375,-14.75 -0.57404,-0.19125 -1.15065,-0.40399 -1.71875,-0.59375 0.21764,-0.59246 0.70645,-1.19631 1.3125,-1.8125 -0.47439,-2.83476 -0.95221,-5.68616 -1.4375,-8.53125 -5.92589,1.43818 -2.27454,-9.68129 -9.75,-9.5 z"
         style="fill:#979674;fill-opacity:1"
         inkscape:connector-curvature="0" />
      <path
         inkscape:connector-curvature="0"
         id="path8399"
         d="m 349.86834,461.2401 c 9.55155,0.2853 -0.41394,14.74985 11.98331,9.93218 9.92575,-7.96563 18.15268,7.43851 14.11814,14.23198 -4.7123,3.95437 -6.85265,12.15351 -11.48437,14.34618 0.61042,-4.26835 0.90681,-8.35913 -3.99867,-8.84695 5.46788,-3.33524 17.37944,-15.1304 2.49027,-14.36838 -5.30672,3.83416 -8.4466,11.30179 -14.59611,13.64057 -2.16684,-2.76048 0.96752,-4.168 -1.89198,-6.00416 7.52103,0.84063 13.43045,-11.33925 2.62383,-7.0968 -2.65695,2.35589 -10.83752,13.29008 -9.37438,4.05056 0.0613,-4.68958 14.53429,-8.38502 4.12782,-10.43527 -9.68897,0.85635 -13.50827,13.57861 -22.07684,12.83138 0.16061,-3.93264 18.475,-12.07121 5.4872,-10.32891 -3.61343,3.49846 -14.47689,3.05179 -6.22181,-1.98459 9.95445,-1.30441 17.13384,-8.14735 26.86531,-9.81335 l 1.94828,-0.15444 0,0 z"
         style="fill:#979674;fill-opacity:1" />
      <path
         id="path8403"
         d="m 415.4282,594.51855 c -2.75294,-0.0711 -5.16054,8.30772 -5.9375,11.1875 0.90625,8.28098 -5.7955,12.27011 -14.6875,13.5625 2.76016,5.43588 16.3166,3.4617 19.40625,-0.9375 6.55948,-2.30255 15.0895,-1.48252 22.9375,-2.5 1.30774,-1.18157 2.55876,-2.39157 3.78125,-3.59375 -4.34051,-2.15386 -12.80377,-2.1565 -17.53125,-1.3125 -13.13738,3.87624 -2.68144,-7.38286 -5.15625,-13 -0.94434,-2.42039 -1.89485,-3.38254 -2.8125,-3.40625 z"
         style="fill:#979674;fill-opacity:1"
         inkscape:connector-curvature="0" />
      <path
         id="path8405"
         d="m 445.8657,483.7998 c -2.9015,0.12897 -5.21227,1.55913 -6.03125,5.4375 -4.50533,5.4382 -12.57837,-6.5069 -20.15625,-4.78125 -10.24476,-2.57877 -20.87464,5.34047 -21.09375,13.75 5.15052,-1.82923 10.56612,-4.46737 13.5625,1.53125 4.76363,-0.9234 8.99989,-10.49091 16.34375,-4.625 2.00844,6.94143 -9.02803,10.7021 -12.96875,15.96875 -2.34787,6.33153 -19.91439,6.53078 -17.375,9.53125 5.49989,-2.25093 14.25196,-1.67225 12.96875,3.5625 4.20177,-1.97164 7.30556,-15.73347 11.3125,-5.53125 1.80754,5.61437 18.16768,8.35731 8.21875,1.34375 -6.84768,-4.44128 -7.28142,-14.79601 1.71875,-17.5625 10.69899,-4.69745 13.69892,7.46682 4.65625,11.15625 -7.63362,7.36637 8.94877,-3.14782 3.46875,5 4.60744,6.40505 3.66258,-6.58677 5.59375,-9.375 4.79509,-5.10019 12.94876,-7.13614 18.75,-11.84375 3.07868,-1.17213 5.15221,-1.04898 6.40625,-0.15625 -0.16917,-1.40942 -0.34667,-2.83525 -0.53125,-4.25 -3.25654,-0.47901 -6.37826,-1.69753 -9.4375,-4.125 -4.06869,-1.82298 -10.57042,-5.2462 -15.40625,-5.03125 z m 26.15625,20.375 c -0.86533,2.0648 -2.4355,4.00519 -4.4375,5.03125 -3.36672,4.50555 -0.64591,16.26711 2,6.125 0.62042,-1.86601 1.69507,-3.26132 3.03125,-4.3125 -0.17386,-2.27062 -0.36517,-4.55602 -0.59375,-6.84375 z"
         style="fill:#979674;fill-opacity:1"
         inkscape:connector-curvature="0" />
      <path
         id="path8409"
         d="m 280.77195,430.89355 c -0.41102,1.91916 -0.76636,3.64989 -1.21875,5.75 1.77938,0.39145 3.52309,0.47229 5.25,-0.1875 -0.46817,-2.96362 -1.97845,-4.62514 -4.03125,-5.5625 z"
         style="fill:#979674;fill-opacity:1"
         inkscape:connector-curvature="0" />
      <path
         inkscape:connector-curvature="0"
         id="path8421"
         d="m 311.08209,433.51275 c -3.96555,-8.24677 -0.16392,-20.40306 11.71784,-21.89335 7.84997,1.54208 17.76689,1.10604 23.96606,0.66723 -2.98037,8.30457 -16.84076,2.49137 -21.749,4.46625 8.69441,7.40059 -2.49468,6.92664 -5.01365,3.92571 -0.59552,8.46779 19.73339,2.06088 11.14605,10.43481 -7.42444,3.91368 -17.33364,-13.02097 -16.06698,0.61914 0.48404,1.66461 -2.74028,3.4832 -4.00032,1.78021 z"
         style="fill:#979674;fill-opacity:1" />
      <path
         id="path8425"
         d="m 398.64695,401.6123 c 1.35626,3.15041 1.60279,6.43169 -0.84375,9.71875 -9.71271,6.47349 -19.4516,-5.53861 -29.4375,-2.6875 -9.64924,8.4738 4.42147,15.86868 14.15625,11.125 13.35815,-4.20731 12.21784,10.55926 10.625,17.3125 -4.40213,8.37993 -17.40532,11.18003 -21.25,19.375 7.80857,4.26742 13.68058,-6.77262 19.90625,-9.90625 8.39968,-8.65043 13.59329,6.89034 14.15625,12.5625 -1.16235,7.89257 6.10323,3.31847 4.84375,-1.78125 -1.72255,-8.25925 1.95204,-20.80329 15,-16.15625 11.00751,-2.75447 -2.45789,-6.85708 -7.875,-6.03125 -9.68235,2.46963 -8.55525,-6.06157 -13.84375,-9.8125 -10.46829,-4.56381 1.01084,-9.55984 1.6875,-15.09375 -1.61883,-3.00255 -1.56427,-5.03983 -0.5,-6.40625 l -6.625,-2.21875 z"
         style="fill:#979674;fill-opacity:1"
         inkscape:connector-curvature="0" />
    </g>
  </g>
  <g
     inkscape:groupmode="layer"
     id="layer3"
     inkscape:label="Badge"
     style="display:inline">
    <path
       style="fill:#000000;fill-opacity:1;stroke:#000000;stroke-width:0.55064243px;stroke-linecap:butt;stroke-linejoin:miter;stroke-opacity:1"
       d="m 128.03674,178.58837 1.34908,26.30694 72.84998,39.79772 74.19906,-45.86855 -1.34906,-22.25971 -72.85,42.49585 z"
       id="path3637"
       inkscape:connector-curvature="0" />
    <path
       style="fill:#000000;fill-opacity:1;stroke:#000000;stroke-width:0.55064243px;stroke-linecap:butt;stroke-linejoin:miter;stroke-opacity:1"
       d="m 128.03674,266.41382 1.34908,26.30694 72.84998,39.7977 74.19906,-45.86855 -1.34906,-22.25971 -72.85,42.49585 z"
       id="path3637-1-9"
       inkscape:connector-curvature="0" />
  </g>
</svg>
